<?xml version="1.0" encoding="UTF-8" standalone="no"?>
<!-- Created with Inkscape (http://www.inkscape.org/) -->

<svg
   xmlns:dc="http://purl.org/dc/elements/1.1/"
   xmlns:cc="http://creativecommons.org/ns#"
   xmlns:rdf="http://www.w3.org/1999/02/22-rdf-syntax-ns#"
   xmlns:svg="http://www.w3.org/2000/svg"
   xmlns="http://www.w3.org/2000/svg"
   xmlns:sodipodi="http://sodipodi.sourceforge.net/DTD/sodipodi-0.dtd"
   xmlns:inkscape="http://www.inkscape.org/namespaces/inkscape"
   id="svg16788"
   version="1.1"
   inkscape:version="0.91 r"
   width="771"
   height="1254"
   viewBox="0 0 771 1254"
   sodipodi:docname="snowflake-yoda-000.svg">
  <metadata
     id="metadata16794">
    <rdf:RDF>
      <cc:Work
         rdf:about="">
        <dc:format>image/svg+xml</dc:format>
        <dc:type
           rdf:resource="http://purl.org/dc/dcmitype/StillImage" />
        <dc:title />
      </cc:Work>
    </rdf:RDF>
  </metadata>
  <defs
     id="defs16792" />
  <sodipodi:namedview
     pagecolor="#ffffff"
     bordercolor="#666666"
     borderopacity="1"
     objecttolerance="10"
     gridtolerance="10"
     guidetolerance="10"
     inkscape:pageopacity="0"
     inkscape:pageshadow="2"
     inkscape:window-width="1600"
     inkscape:window-height="843"
     id="namedview16790"
     showgrid="false"
     inkscape:zoom="2.5824554"
     inkscape:cx="228.85492"
     inkscape:cy="374.95917"
     inkscape:window-x="0"
     inkscape:window-y="0"
     inkscape:window-maximized="1"
     inkscape:current-layer="svg16788"
     showguides="true"
     inkscape:guide-bbox="true"
     inkscape:object-nodes="true"
     inkscape:snap-center="true">
    <sodipodi:guide
       position="652.62535,61.399214"
       orientation="0,1"
       id="guide4133" />
    <sodipodi:guide
       position="488.27539,194.1968"
       orientation="1,0"
       id="guide4135" />
  </sodipodi:namedview>
  <path
     id="path4174"
     style="fill:none;stroke:#00ff00;stroke-opacity:1;stroke-width:0.70866142;stroke-miterlimit:4;stroke-dasharray:none"
     d="m 345.55325,946.42215 -0.78276,1.1764 c -1.00332,1.5078 -1.37139,1.9314 -2.39839,2.7604 -1.62416,1.3111 -4.01147,2.2474 -6.10511,2.3944 l -0.92743,0.065 -0.46547,0.6405 c -2.37477,3.2678 -4.05345,4.3551 -7.36288,4.7689 -0.81705,0.1022 -3.19578,0.1518 -4.32396,0.09 l -0.70839,-0.039 0.40195,1.5008 c 0.3224,1.2038 0.38672,1.7396 0.32503,2.7074 -0.0423,0.6637 -0.17804,1.4385 -0.30163,1.7218 l -0.22469,0.515 -1.59556,-0.837 c -1.46839,-0.7703 -3.09849,-1.3682 -3.73741,-1.3708 -0.14385,0 -0.0862,0.3106 0.21139,1.1407 0.50357,1.4048 0.76131,2.8323 0.88242,4.887 0.53796,9.1277 -4.42628,21.2596 -11.54535,28.2153 -1.87122,1.8282 -4.02096,3.43105 -4.44123,3.31125 -0.68257,-0.19455 -0.73012,-1.18475 -0.16054,-3.34215 0.88021,-3.3341 0.99959,-6.0159 0.43436,-9.7566 -0.59214,-3.9187 -1.98953,-7.8441 -5.34833,-15.0236 -1.68933,-3.6111 -2.54823,-5.7877 -2.71891,-6.8903 -0.1692,-1.0931 0.0724,-4.6631 0.40552,-5.9928 0.36164,-1.4434 1.65057,-3.679 2.82673,-4.9027 0.43793,-0.4556 0.78822,-0.8583 0.77844,-0.8948 -0.01,-0.036 -0.89141,-0.3739 -1.95919,-0.7498 -5.64357,-1.987 -9.67779,-4.091 -11.74886,-6.1277 -1.23972,-1.2191 -1.96091,-2.6416 -1.96006,-3.8661 2.5e-4,-0.3249 0.11105,-1.3736 0.24631,-2.3304 0.53791,-3.8052 0.6612,-7.0362 0.39715,-10.4087 -0.0816,-1.0421 -0.1896,-2.4909 -0.24,-3.2194 -0.10419,-1.5063 0.028,-2.8475 0.28144,-2.8551 0.089,0 0.90256,0.4146 1.80787,0.9272 1.62833,0.9221 3.38867,1.7572 4.10596,1.9477 0.25198,0.067 -0.17088,-0.2468 -1.32198,-0.9811 -3.9425,-2.5147 -6.09098,-4.4239 -6.49465,-5.7714 -0.19037,-0.6355 -0.10178,-1.0842 0.54292,-2.7497 0.25186,-0.6506 0.50012,-1.3051 0.55169,-1.4544 l 0.0938,-0.2716 -16.93186,-9.7756 c -9.65096,-5.5719 -16.95553,-9.7346 -16.98691,-9.6802 -0.1259,0.218 0.51464,2.5233 0.93867,3.3781 0.85235,1.7182 2.21266,3.2522 3.94819,4.4522 1.89757,1.3121 4.75494,2.0863 7.053,1.911 l 0.58343,-0.044 0.2468,0.8117 c 0.31085,1.0223 1.54669,2.8454 2.72484,4.0195 3.57192,3.5599 8.01363,5.4996 12.11737,5.2918 1.26606,-0.064 1.26059,-0.058 -0.96369,1.0109 -4.00046,1.9231 -5.26222,2.2506 -7.28714,1.8917 -1.74415,-0.3091 -2.91781,-1.0811 -4.83185,-3.1785 -1.5121,-1.657 -1.61214,-1.6842 -1.44674,-0.3942 0.24578,1.917 0.84839,3.544 1.73446,4.683 l 0.46624,0.5993 -1.38304,0.1262 c -3.31322,0.3023 -6.72567,-0.081 -9.61245,-1.0791 l -1.27649,-0.4414 m -12.20153,-21.1182 0.36615,-1.7642 c 0.40989,-1.9748 1.01158,-3.9726 1.75085,-5.8133 0.69283,-1.7251 0.75685,-1.8733 1.03861,-2.4036 l 0.25009,-0.4707 m 77.04499,52.9488 c -0.17099,2.4307 -1.31872,7.4876 -2.34524,10.3333 -0.0891,0.2471 -0.1244,0.4709 -0.0784,0.4975 0.152,0.088 1.67449,-1.3995 2.32561,-2.2719 0.84316,-1.1296 1.53076,-2.3343 2.21213,-3.8757 0.93304,-2.1108 0.68115,-1.9443 2.26536,-1.4977 1.62157,0.4571 3.59157,0.8012 5.09478,0.8897 0.59664,0.035 1.09251,0.051 1.10195,0.034 0.009,-0.016 -0.63433,-0.2832 -1.43056,-0.5931 -1.83771,-0.7152 -6.20163,-3.1945 -7.84694,-4.4582 -0.73017,-0.5608 -1.09617,-0.7892 -1.1345,-0.7079 -0.0311,0.066 -0.10501,0.8083 -0.1642,1.6498 z m -20.73874,19.0884 c -0.60011,3.1456 -0.53687,6.0289 0.19092,8.7056 0.5223,1.9208 1.03183,3.0331 2.33692,5.1013 0.99831,1.582 1.37982,2.3666 2.68442,5.5204 1.13929,2.7542 1.74493,4.369 2.35548,6.2803 l 0.48084,1.5053 0.17524,-0.4659 c 2.62518,-6.9781 3.35578,-12.616 2.83829,-21.9026 l -0.13946,-2.5024 -0.60185,0 c -1.67908,0.01 -3.32557,-0.5213 -7.10378,-2.2734 -1.50702,-0.6989 -2.79377,-1.2589 -2.85949,-1.2445 -0.0657,0.014 -0.22661,0.5876 -0.35753,1.2739 z m 4.04295,-22.2147 c 0.901,-0.3911 1.9104,-0.5555 2.90244,-0.4727 0.79205,0.066 1.03054,0.1441 1.78026,0.5824 1.00572,0.5879 1.35864,1.0057 1.67378,1.9811 0.41844,1.2952 0.16672,2.5273 -0.88366,4.3255 -1.03138,1.7656 -2.20483,2.7967 -3.49822,3.0739 -0.88546,0.1898 -1.45301,0.05 -2.4431,-0.6004 -0.984,-0.6467 -1.73254,-1.6673 -2.06771,-2.8191 l -0.21348,-0.7337 -0.20553,0.356 c -0.53289,0.923 -1.06363,3.1945 -1.04309,4.4642 0.0295,1.8239 0.72014,3.3871 1.77493,4.0175 0.99772,0.5963 2.94197,0.5039 4.70488,-0.2235 2.86294,-1.1813 5.19318,-3.4129 6.8709,-6.58 1.30954,-2.472 1.81299,-4.6397 1.63741,-7.0503 -0.0814,-1.1182 -0.58458,-3.0963 -1.0186,-4.0047 l -0.301,-0.6299 -2.04566,-0.1939 c -2.05775,-0.195 -3.69421,-0.2534 -4.18547,-0.1493 -0.46459,0.099 -2.03216,1.9153 -3.28356,3.8058 l -0.72789,1.0996 z m -7.62519,-19.3824 -0.69955,1.3691 c -0.38476,0.753 -1.14735,2.2187 -1.69465,3.257 l -0.99511,1.8878 -0.59893,0.376 c -0.3294,0.2068 -0.74628,0.4426 -0.92641,0.5239 l -0.32747,0.1478 0.47054,0.1686 c 0.75587,0.2709 1.7883,0.4088 2.25862,0.3018 l 0.43572,-0.099 1.97716,-3.4245 1.97715,-3.4246 m 47.68175,27.5291 -0.78276,1.1763 c -1.00334,1.5079 -1.3714,1.9315 -2.39839,2.7605 -1.62416,1.3111 -4.01147,2.2473 -6.10511,2.3944 l -0.92745,0.065 -0.46545,0.6405 c -2.37478,3.2678 -4.05346,4.3551 -7.36289,4.7689 -0.81705,0.1022 -3.19577,0.1518 -4.32397,0.09 l -0.70839,-0.039 0.40195,1.5008 c 0.32241,1.2038 0.38674,1.7397 0.32503,2.7075 -0.0423,0.6637 -0.17804,1.4384 -0.30161,1.7217 l -0.22469,0.5151 -1.59558,-0.837 c -1.46839,-0.7704 -3.09847,-1.3683 -3.7374,-1.3709 -0.14385,0 -0.0862,0.3106 0.21138,1.1408 0.50357,1.4048 0.76133,2.8322 0.88242,4.8869 0.53797,9.1277 -4.42627,21.2597 -11.54534,28.2153 -1.87122,1.8283 -4.02097,3.43115 -4.44123,3.31135 -0.68257,-0.19465 -0.73012,-1.18475 -0.16053,-3.34225 0.88019,-3.3341 0.99959,-6.0158 0.43434,-9.7566 -0.59212,-3.9186 -1.98953,-7.844 -5.34833,-15.0236 -1.68933,-3.611 -2.54822,-5.7876 -2.71889,-6.8903 -0.1692,-1.0931 0.0724,-4.6631 0.4055,-5.9927 0.36166,-1.4434 1.65059,-3.679 2.82675,-4.9027 0.43792,-0.4557 0.78821,-0.8583 0.77844,-0.8948 -0.01,-0.036 -0.89141,-0.3739 -1.9592,-0.7499 -5.64357,-1.9869 -9.67779,-4.0909 -11.74886,-6.1276 -1.23972,-1.2191 -1.96091,-2.6416 -1.96006,-3.8661 2.5e-4,-0.325 0.11105,-1.3737 0.24631,-2.3304 0.53791,-3.8052 0.6612,-7.0362 0.39715,-10.4087 -0.0816,-1.0422 -0.18959,-2.4909 -0.24,-3.2194 -0.10419,-1.5063 0.028,-2.8475 0.28144,-2.8551 0.089,0 0.90256,0.4146 1.80787,0.9272 1.62833,0.9221 3.38867,1.7571 4.10596,1.9477 0.25198,0.067 -0.17088,-0.2469 -1.32198,-0.9811 -3.9425,-2.5147 -6.09098,-4.424 -6.49465,-5.7715 -0.19037,-0.6354 -0.10178,-1.0841 0.54292,-2.7496 0.25186,-0.6506 0.50012,-1.3051 0.55169,-1.4545 l 0.0938,-0.2715 -16.93186,-9.7756 c -9.65096,-5.572 -16.95554,-9.7346 -16.9869,-9.6803 -0.12592,0.2181 0.51464,2.5234 0.93865,3.3781 0.85236,1.7183 2.21268,3.2523 3.9482,4.4523 1.89757,1.3121 4.75494,2.0863 7.053,1.911 l 0.58343,-0.045 0.24681,0.8117 c 0.31084,1.0224 1.54668,2.8454 2.72483,4.0196 3.57192,3.5598 8.01363,5.4996 12.11737,5.2918 1.26606,-0.064 1.26059,-0.058 -0.96369,1.0109 -4.00046,1.923 -5.26222,2.2506 -7.28714,1.8917 -1.74414,-0.3091 -2.91781,-1.0812 -4.83185,-3.1785 -1.5121,-1.657 -1.61214,-1.6842 -1.44674,-0.3942 0.24579,1.917 0.84839,3.544 1.73446,4.6829 l 0.46624,0.5993 -1.38304,0.1262 c -3.31322,0.3024 -6.72567,-0.081 -9.61245,-1.079 l -1.27648,-0.4415 m -12.20155,-21.1181 0.36617,-1.7642 c 0.40987,-1.9748 1.01156,-3.9726 1.75084,-5.8134 0.69282,-1.725 0.75686,-1.8732 1.03861,-2.4036 l 0.2501,-0.4707 m 58.35759,33.6928 -0.74991,1.34 c -1.15703,2.0675 -1.59193,3.4068 -1.32703,4.0867 0.0512,0.1314 0.62689,1.0629 1.27932,2.07 0.65243,1.0071 1.32028,2.0783 1.48413,2.3805 0.19739,0.3641 0.32472,0.5012 0.37739,0.4062 0.16172,-0.2912 0.19347,-1.3783 0.0804,-2.7541 -0.14283,-1.7381 0.0129,-2.3954 1.03171,-4.3553 l 0.76682,-1.475 m 40.98242,23.6612 0.62736,-1.266 c 0.80416,-1.6228 0.98699,-2.1534 1.19145,-3.4573 0.32333,-2.0621 -0.0595,-4.5977 -0.97898,-6.4844 l -0.40733,-0.8358 0.32196,-0.7233 c 1.6426,-3.6905 1.74487,-5.6879 0.44857,-8.7609 -0.32004,-0.7587 -1.46647,-2.8435 -2.08396,-3.7897 l -0.3877,-0.5941 1.50073,-0.4024 c 1.20371,-0.3226 1.69993,-0.5349 2.50725,-1.0722 0.55359,-0.3685 1.1567,-0.8734 1.34024,-1.1221 l 0.33373,-0.4521 -1.52269,-0.9633 c -1.40132,-0.8865 -2.73416,-1.9992 -3.05588,-2.5513 -0.0725,-0.1242 0.22592,-0.2299 1.09361,-0.3873 1.4684,-0.2663 2.83346,-0.7568 4.67345,-1.6792 8.17379,-4.098 16.19824,-14.4632 18.66248,-24.1063 0.64771,-2.5346 0.96091,-5.1978 0.64702,-5.5018 -0.50978,-0.4939 -1.39104,-0.04 -2.97468,1.532 -2.4473,2.4294 -4.71005,3.8736 -8.23227,5.2545 -3.68972,1.4465 -7.7879,2.199 -15.68499,2.88 -3.97191,0.3425 -6.28637,0.687 -7.32663,1.0905 -1.03124,0.4 -4.00216,2.3943 -4.9871,3.3476 -1.06922,1.0349 -2.36079,3.2689 -2.83253,4.8994 -0.17563,0.607 -0.34918,1.1117 -0.38567,1.1215 -0.0365,0.01 -0.76952,-0.585 -1.62897,-1.3218 -4.54252,-3.894 -8.3818,-6.3357 -11.18113,-7.111 -1.67563,-0.464 -3.26816,-0.3774 -4.3282,0.2356 -0.28129,0.1627 -1.13406,0.783 -1.89501,1.3785 -3.02645,2.3685 -5.76297,4.0908 -8.81561,5.5483 -0.94334,0.4504 -2.25199,1.0813 -2.9081,1.4019 -1.35659,0.6629 -2.45202,1.448 -2.33189,1.6713 0.0422,0.078 0.81032,0.5743 1.70695,1.102 1.61271,0.9491 3.21604,2.0561 3.73974,2.582 0.18397,0.1848 -0.29924,-0.024 -1.51065,-0.6543 -4.14907,-2.1569 -6.87676,-3.0629 -8.24557,-2.7388 -0.64553,0.1529 -0.98979,0.4539 -2.10977,1.845 -0.43754,0.5434 -0.88023,1.0857 -0.98378,1.205 l -0.18826,0.217 -16.93186,-9.7756 c -9.65096,-5.572 -16.9082,-9.8166 -16.87682,-9.871 0.12591,-0.2181 2.44258,-0.8159 3.39486,-0.8761 1.91421,-0.121 3.92287,0.2901 5.82989,1.1931 2.08509,0.9873 4.18423,3.0747 5.18143,5.1526 l 0.25316,0.5275 0.82636,-0.1921 c 1.04078,-0.242 3.2375,-0.083 4.84343,0.35 4.86887,1.3134 8.7696,4.1902 10.64152,7.848 0.57751,1.1285 0.57975,1.1209 0.3936,-1.34 -0.3348,-4.426 -0.68201,-5.6825 -2.00526,-7.2567 -1.13977,-1.3559 -2.39524,-1.9863 -5.16864,-2.5952 -2.191,-0.4811 -2.26462,-0.5541 -1.06472,-1.0559 1.78302,-0.7456 3.49337,-1.0372 4.92277,-0.8393 l 0.75212,0.1041 -0.58221,-1.2609 c -1.39475,-3.0205 -3.43272,-5.7842 -5.74071,-7.7851 l -1.02056,-0.8847 m -24.38962,-0.01 -1.34475,1.1992 c -1.50531,1.3424 -2.93461,2.8624 -4.15909,4.423 -1.14756,1.4625 -1.24387,1.5921 -1.56228,2.1012 l -0.28262,0.452 m 84.37757,40.2485 c 2.01953,-1.3635 5.82508,-4.8859 7.77626,-7.1977 0.1694,-0.2007 0.34564,-0.3432 0.39164,-0.3167 0.15201,0.088 -0.37479,2.15 -0.80469,3.15 -0.55669,1.295 -1.25618,2.4929 -2.25042,3.8537 -1.36147,1.8634 -1.34321,1.562 -0.16434,2.7106 1.20666,1.1758 2.4896,2.7099 3.31791,3.9674 0.32875,0.4991 0.59002,0.9209 0.58059,0.9372 -0.009,0.016 -0.56245,-0.4077 -1.22893,-0.9423 -1.53823,-1.2339 -5.86735,-3.7735 -7.78438,-4.5666 -0.85075,-0.3519 -1.23155,-0.5547 -1.18036,-0.6285 0.0416,-0.06 0.64757,-0.4951 1.34672,-0.9671 z m 6.16164,-27.5045 c 2.42412,-2.0925 4.95279,-3.4794 7.63471,-4.1874 1.92463,-0.5082 3.14267,-0.623 5.58632,-0.5269 1.86922,0.074 2.73945,0.012 6.12304,-0.4354 2.95483,-0.3904 4.65614,-0.6733 6.61664,-1.1003 l 1.54401,-0.3362 -0.3158,0.3847 c -4.73067,5.7626 -9.2479,9.2142 -17.54905,13.4093 l -2.23692,1.1305 -0.29917,-0.5222 c -0.83466,-1.457 -2.11423,-2.6194 -5.52071,-5.0154 -1.35874,-0.9557 -2.48714,-1.79 -2.50753,-1.8541 -0.0204,-0.064 0.3956,-0.4901 0.92446,-0.9466 z m -17.21697,14.6086 c 0.11176,0.9759 0.47406,1.9323 1.04181,2.75 0.45328,0.6529 0.64009,0.8204 1.39451,1.2505 1.01201,0.577 1.55025,0.6738 2.55258,0.459 1.33089,-0.2852 2.27208,-1.1193 3.30415,-2.928 1.01337,-1.776 1.31963,-3.3078 0.91298,-4.5665 -0.27839,-0.8617 -0.68297,-1.2835 -1.74153,-1.8156 -1.05204,-0.5288 -2.31016,-0.6668 -3.47528,-0.3811 l -0.74212,0.1819 0.20553,-0.356 c 0.5329,-0.9229 2.23468,-2.5183 3.34459,-3.1354 1.59426,-0.8864 3.2934,-1.0699 4.36673,-0.4716 1.01523,0.5659 1.90738,2.2958 2.15886,4.1863 0.40842,3.07 -0.35906,6.2039 -2.26297,9.2403 -1.48608,2.3702 -3.11165,3.89 -5.28707,4.9432 -1.00908,0.4886 -2.97372,1.0419 -3.97742,1.1202 l -0.6961,0.054 -1.19073,-1.6747 c -1.19778,-1.6846 -2.06655,-3.0726 -2.22202,-3.5501 -0.14702,-0.4515 0.64267,-2.7176 1.65417,-4.7465 l 0.58833,-1.1802 z m -20.59826,3.0876 0.83591,-1.2904 c 0.45975,-0.7097 1.3477,-2.1029 1.97323,-3.096 l 1.13735,-1.8057 0.0262,-0.7067 c 0.0144,-0.3887 0.0102,-0.8676 -0.01,-1.0643 l -0.0357,-0.3575 0.3813,0.3232 c 0.61251,0.5192 1.24817,1.3443 1.39061,1.8052 l 0.13197,0.4269 -1.97715,3.4245 -1.97715,3.4246 m 47.68173,27.529 0.62737,-1.266 c 0.80415,-1.6228 0.987,-2.1534 1.19144,-3.4573 0.32334,-2.0621 -0.0595,-4.5977 -0.97898,-6.4844 l -0.40732,-0.8358 0.32195,-0.7233 c 1.64262,-3.6905 1.74488,-5.6879 0.44857,-8.7609 -0.32004,-0.7587 -1.46648,-2.8435 -2.08394,-3.7897 l -0.3877,-0.5941 1.50071,-0.4024 c 1.20371,-0.3226 1.69994,-0.5349 2.50726,-1.0722 0.55358,-0.3685 1.1567,-0.8734 1.34024,-1.1221 l 0.33372,-0.4521 -1.52268,-0.9633 c -1.40132,-0.8865 -2.73416,-1.9992 -3.05588,-2.5513 -0.0725,-0.1242 0.22591,-0.2299 1.09361,-0.3873 1.4684,-0.2663 2.83346,-0.7568 4.67344,-1.6792 8.17379,-4.098 16.19824,-14.4632 18.66248,-24.1063 0.64771,-2.5346 0.96091,-5.1978 0.64702,-5.5018 -0.50979,-0.4939 -1.39104,-0.04 -2.97468,1.532 -2.4473,2.4294 -4.71005,3.8736 -8.23227,5.2545 -3.68972,1.4465 -7.7879,2.199 -15.68499,2.88 -3.97191,0.3425 -6.28637,0.687 -7.32663,1.0905 -1.03124,0.4 -4.00216,2.3943 -4.9871,3.3476 -1.06922,1.0349 -2.36079,3.2689 -2.83253,4.8994 -0.17563,0.607 -0.34918,1.1117 -0.38567,1.1215 -0.0365,0.01 -0.76952,-0.585 -1.62897,-1.3218 -4.54252,-3.894 -8.3818,-6.3357 -11.18113,-7.111 -1.67563,-0.464 -3.26816,-0.3774 -4.3282,0.2356 -0.28129,0.1627 -1.13406,0.783 -1.89501,1.3785 -3.02645,2.3685 -5.76297,4.0908 -8.81561,5.5483 -0.94334,0.4504 -2.25199,1.0813 -2.9081,1.4019 -1.3566,0.6629 -2.45202,1.448 -2.33189,1.6713 0.0422,0.078 0.81032,0.5743 1.70695,1.102 1.61271,0.9491 3.21604,2.0561 3.73974,2.582 0.18397,0.1848 -0.29924,-0.024 -1.51065,-0.6543 -4.14907,-2.1569 -6.87676,-3.0629 -8.24558,-2.7388 -0.64552,0.1529 -0.98978,0.4539 -2.10976,1.845 -0.43754,0.5434 -0.88023,1.0857 -0.98378,1.205 l -0.18826,0.217 -16.93186,-9.7756 c -9.65096,-5.572 -16.9082,-9.8166 -16.87682,-9.871 0.12591,-0.2181 2.44258,-0.8159 3.39486,-0.8761 1.91421,-0.121 3.92287,0.2901 5.82989,1.1931 2.08509,0.9873 4.18423,3.0747 5.18143,5.1526 l 0.25316,0.5275 0.82636,-0.1921 c 1.04078,-0.242 3.2375,-0.083 4.84343,0.35 4.86888,1.3134 8.7696,4.1902 10.64152,7.848 0.57751,1.1285 0.57975,1.1209 0.3936,-1.34 -0.3348,-4.426 -0.68201,-5.6825 -2.00526,-7.2567 -1.13977,-1.3559 -2.39524,-1.9863 -5.16864,-2.5952 -2.191,-0.4811 -2.26462,-0.5541 -1.06472,-1.0559 1.78302,-0.7456 3.49337,-1.0372 4.92277,-0.8393 l 0.75212,0.1041 -0.58221,-1.2609 c -1.39475,-3.0205 -3.43272,-5.7842 -5.74071,-7.7851 l -1.02056,-0.8847 m -24.38962,-0.01 -1.34475,1.1992 c -1.50531,1.3424 -2.93461,2.8624 -4.15909,4.423 -1.14756,1.4625 -1.24387,1.5921 -1.56228,2.1012 l -0.28262,0.452 m 58.3576,33.6928 0.78555,-1.3195 c 1.21196,-2.0357 2.1544,-3.0821 2.87568,-3.1926 0.13941,-0.021 1.23396,0.011 2.43232,0.073 1.19836,0.061 2.46,0.1043 2.80363,0.095 0.41402,-0.011 0.59636,0.031 0.54053,0.1237 -0.17143,0.2857 -1.09698,0.8567 -2.34496,1.4467 -1.57671,0.7454 -2.06808,1.2088 -3.25592,3.0711 l -0.89399,1.4016 m -192.41377,23.6612 -0.62735,-1.266 c -0.80416,-1.6229 -0.98701,-2.1534 -1.19146,-3.4573 -0.32332,-2.0621 0.0595,-4.5977 0.97899,-6.4844 l 0.40731,-0.8357 -0.32194,-0.7234 c -1.64261,-3.6905 -1.74487,-5.6879 -0.44857,-8.7609 0.32004,-0.7587 1.46647,-2.8435 2.08394,-3.7897 l 0.38771,-0.5941 -1.50072,-0.4024 c -1.20372,-0.3226 -1.69994,-0.5349 -2.50725,-1.0722 -0.5536,-0.3685 -1.1567,-0.8734 -1.34025,-1.1221 l -0.33372,-0.4521 1.52269,-0.9633 c 1.40132,-0.8865 2.73415,-1.9992 3.05588,-2.5513 0.0724,-0.1242 -0.22592,-0.2299 -1.09361,-0.3873 -1.46841,-0.2663 -2.83347,-0.7568 -4.67346,-1.6793 -8.173782,-4.0979 -16.198242,-14.463 -18.662482,-24.1062 -0.64772,-2.5346 -0.9609,-5.1977 -0.64701,-5.5018 0.50978,-0.4938 1.39104,-0.04 2.97467,1.5321 2.44731,2.4293 4.71005,3.8735 8.23228,5.2544 3.689722,1.4465 7.787892,2.199 15.684992,2.88 3.97191,0.3425 6.28637,0.687 7.32662,1.0905 1.03124,0.4 4.00216,2.3943 4.9871,3.3476 1.06922,1.0349 2.3608,3.2689 2.83253,4.8994 0.17563,0.6071 0.34918,1.1117 0.38567,1.1215 0.0365,0.01 0.76952,-0.585 1.62898,-1.3218 4.54252,-3.894 8.3818,-6.3357 11.18112,-7.111 1.67563,-0.464 3.26816,-0.3774 4.32821,0.2356 0.28129,0.1627 1.13406,0.783 1.89501,1.3785 3.02645,2.3685 5.76296,4.0908 8.81561,5.5483 0.94333,0.4504 2.25198,1.0813 2.9081,1.4019 1.35659,0.6629 2.45202,1.448 2.33189,1.6713 -0.0422,0.078 -0.81032,0.5743 -1.70696,1.102 -1.6127,0.9492 -3.21604,2.0561 -3.73974,2.582 -0.18396,0.1848 0.29925,-0.024 1.51066,-0.6543 4.14906,-2.1569 6.87675,-3.0629 8.24557,-2.7388 0.64552,0.1529 0.98979,0.4539 2.10977,1.845 0.43753,0.5434 0.88023,1.0857 0.98377,1.205 l 0.18827,0.217 16.93185,-9.7756 c 9.65097,-5.572 16.90821,-9.8166 16.87683,-9.871 -0.12591,-0.2181 -2.4426,-0.8159 -3.39486,-0.8761 -1.91421,-0.121 -3.92287,0.2901 -5.8299,1.1931 -2.08509,0.9873 -4.18423,3.0747 -5.18142,5.1526 l -0.25317,0.5275 -0.82635,-0.1921 c -1.04079,-0.242 -3.2375,-0.083 -4.84343,0.35 -4.86888,1.3134 -8.76961,4.1902 -10.64152,7.848 -0.57752,1.1285 -0.57975,1.1209 -0.3936,-1.34 0.33479,-4.426 0.68201,-5.6825 2.00526,-7.2567 1.13978,-1.3559 2.39524,-1.9863 5.16864,-2.5952 2.19099,-0.4811 2.26462,-0.5541 1.06471,-1.0559 -1.78301,-0.7456 -3.49336,-1.0372 -4.92276,-0.8393 l -0.75213,0.1041 0.58222,-1.2609 c 1.39475,-3.0205 3.43272,-5.7842 5.74071,-7.7851 l 1.02055,-0.8847 m 24.38963,-0.01 1.34475,1.1992 c 1.5053,1.3424 2.9346,2.8624 4.15909,4.423 1.14756,1.4625 1.24388,1.5921 1.56227,2.1012 l 0.28262,0.452 m -84.37756,40.2485 c -2.01954,-1.3635 -5.82508,-4.8859 -7.77626,-7.1977 -0.1694,-0.2007 -0.34565,-0.3432 -0.39165,-0.3167 -0.152,0.088 0.37479,2.15 0.80468,3.15 0.5567,1.295 1.2562,2.4929 2.25044,3.8537 1.36147,1.8634 1.34319,1.562 0.16433,2.7106 -1.20667,1.1758 -2.4896,2.7099 -3.31791,3.9674 -0.32875,0.4991 -0.59003,0.9209 -0.58059,0.9372 0.009,0.016 0.56246,-0.4077 1.22893,-0.9423 1.53822,-1.2339 5.86736,-3.7735 7.78439,-4.5666 0.85074,-0.3519 1.23155,-0.5547 1.18036,-0.6285 -0.0416,-0.06 -0.64758,-0.4951 -1.34672,-0.9671 z m -6.16164,-27.5045 c -2.42413,-2.0925 -4.9528,-3.4794 -7.63471,-4.1874 -1.92464,-0.5081 -3.14267,-0.623 -5.58632,-0.5269 -1.86924,0.074 -2.73945,0.012 -6.12304,-0.4354 -2.95483,-0.3904 -4.656142,-0.6733 -6.616642,-1.1002 l -1.54403,-0.3363 0.31582,0.3847 c 4.730672,5.7626 9.247902,9.2142 17.549052,13.4093 l 2.2369,1.1305 0.29919,-0.5222 c 0.83466,-1.457 2.11423,-2.6194 5.52071,-5.0154 1.35874,-0.9557 2.48712,-1.79 2.50753,-1.8541 0.0204,-0.064 -0.3956,-0.4901 -0.92446,-0.9466 z m 17.21697,14.6086 c -0.11176,0.9759 -0.47406,1.9323 -1.04181,2.75 -0.45328,0.6529 -0.64009,0.8204 -1.39451,1.2505 -1.01203,0.577 -1.55025,0.6738 -2.55259,0.459 -1.33088,-0.2852 -2.27206,-1.1193 -3.30414,-2.928 -1.01337,-1.776 -1.31964,-3.3078 -0.91298,-4.5665 0.27839,-0.8617 0.68296,-1.2835 1.74152,-1.8156 1.05205,-0.5288 2.31016,-0.6668 3.47528,-0.3811 l 0.74212,0.1819 -0.20552,-0.3559 c -0.5329,-0.923 -2.23468,-2.5184 -3.3446,-3.1355 -1.59427,-0.8864 -3.29339,-1.0699 -4.36672,-0.4716 -1.01525,0.5659 -1.90738,2.2958 -2.15886,4.1863 -0.40842,3.07 0.35906,6.2038 2.26296,9.2403 1.48608,2.3702 3.11165,3.89 5.28708,4.9432 1.00908,0.4886 2.97372,1.0419 3.97742,1.1202 l 0.6961,0.054 1.19072,-1.6747 c 1.19778,-1.6846 2.06656,-3.0726 2.22202,-3.5501 0.14703,-0.4516 -0.64266,-2.7175 -1.65416,-4.7465 l -0.58834,-1.1802 z m 20.59825,3.0876 -0.8359,-1.2904 c -0.45975,-0.7097 -1.34771,-2.1029 -1.97325,-3.096 l -1.13733,-1.8057 -0.0262,-0.7067 c -0.0144,-0.3887 -0.0101,-0.8676 0.01,-1.0643 l 0.0357,-0.3575 -0.38129,0.3232 c -0.61251,0.5192 -1.24818,1.3443 -1.39062,1.8052 l -0.13197,0.4269 1.97716,3.4245 1.97716,3.4246 m -47.68175,27.529 -0.62736,-1.266 c -0.80415,-1.6229 -0.987,-2.1534 -1.19145,-3.4573 -0.32332,-2.0621 0.0595,-4.5977 0.97898,-6.4844 l 0.40732,-0.8357 -0.32194,-0.7234 c -1.64261,-3.6905 -1.74488,-5.6879 -0.44857,-8.7609 0.32004,-0.7587 1.46647,-2.8435 2.08394,-3.7897 l 0.38771,-0.5941 -1.50073,-0.4024 c -1.20371,-0.3226 -1.69993,-0.5349 -2.50725,-1.0722 -0.55359,-0.3685 -1.15669,-0.8734 -1.34025,-1.1221 l -0.33371,-0.4521 1.52269,-0.9633 c 1.40131,-0.8865 2.73414,-1.9992 3.05587,-2.5513 0.0724,-0.1242 -0.22591,-0.2299 -1.09361,-0.3873 -1.4684,-0.2663 -2.83347,-0.7568 -4.67345,-1.6793 -8.173792,-4.0979 -16.198242,-14.463 -18.662482,-24.1062 -0.64772,-2.5346 -0.9609,-5.1977 -0.64702,-5.5018 0.50979,-0.4938 1.39104,-0.04 2.97467,1.5321 2.44731,2.4293 4.71006,3.8735 8.23229,5.2544 3.689722,1.4465 7.787892,2.199 15.684982,2.88 3.97192,0.3425 6.28638,0.687 7.32663,1.0905 1.03124,0.4 4.00216,2.3943 4.9871,3.3476 1.06922,1.0349 2.3608,3.2689 2.83253,4.8994 0.17563,0.6071 0.34918,1.1117 0.38567,1.1215 0.0365,0.01 0.76952,-0.585 1.62898,-1.3218 4.54252,-3.894 8.38179,-6.3357 11.18112,-7.111 1.67563,-0.464 3.26816,-0.3774 4.32821,0.2356 0.28129,0.1627 1.13406,0.783 1.895,1.3785 3.02645,2.3685 5.76297,4.0908 8.81561,5.5483 0.94334,0.4504 2.25199,1.0813 2.9081,1.4019 1.3566,0.6629 2.45203,1.448 2.3319,1.6713 -0.0422,0.078 -0.81032,0.5743 -1.70696,1.102 -1.61271,0.9492 -3.21604,2.0561 -3.73974,2.582 -0.18397,0.1848 0.29925,-0.024 1.51066,-0.6543 4.14906,-2.1569 6.87675,-3.0629 8.24557,-2.7388 0.64552,0.1529 0.98979,0.4539 2.10977,1.845 0.43752,0.5434 0.88023,1.0857 0.98377,1.205 l 0.18827,0.217 16.93185,-9.7756 c 9.65097,-5.572 16.9082,-9.8166 16.87683,-9.871 -0.12591,-0.2181 -2.4426,-0.8159 -3.39486,-0.8761 -1.91421,-0.121 -3.92287,0.2901 -5.8299,1.1931 -2.08509,0.9873 -4.18423,3.0747 -5.18142,5.1526 l -0.25317,0.5275 -0.82635,-0.1921 c -1.04079,-0.242 -3.2375,-0.083 -4.84343,0.35 -4.86888,1.3134 -8.76961,4.1902 -10.64152,7.848 -0.57752,1.1285 -0.57975,1.1209 -0.3936,-1.34 0.33479,-4.426 0.682,-5.6825 2.00526,-7.2567 1.13977,-1.3559 2.39524,-1.9863 5.16863,-2.5952 2.191,-0.4811 2.26463,-0.5541 1.06472,-1.0559 -1.78301,-0.7456 -3.49336,-1.0372 -4.92276,-0.8393 l -0.75214,0.1041 0.58223,-1.2609 c 1.39474,-3.0205 3.43272,-5.7842 5.74071,-7.7851 l 1.02055,-0.8847 m 24.38963,-0.01 1.34475,1.1992 c 1.5053,1.3424 2.93459,2.8624 4.15909,4.423 1.14756,1.4625 1.24387,1.5921 1.56227,2.1012 l 0.28261,0.452 m -58.35759,33.6928 -0.78554,-1.3195 c -1.21196,-2.0357 -2.15441,-3.0821 -2.87569,-3.1926 -0.1394,-0.021 -1.23396,0.011 -2.43232,0.073 -1.19836,0.061 -2.45999,0.1043 -2.80363,0.095 -0.414,-0.011 -0.59637,0.031 -0.54051,0.1237 0.17142,0.2857 1.09697,0.8567 2.34494,1.4467 1.5767,0.7454 2.06807,1.2088 3.25593,3.0711 l 0.89399,1.4016 m -40.98241,23.6612 0.78276,1.1764 c 1.00332,1.5078 1.37139,1.9314 2.39838,2.7604 1.62417,1.3111 4.01148,2.2474 6.10512,2.3944 l 0.92744,0.065 0.46545,0.6405 c 2.37478,3.2678 4.05346,4.3551 7.36289,4.7689 0.81704,0.1022 3.19578,0.1518 4.32397,0.09 l 0.70838,-0.039 -0.40195,1.5008 c -0.3224,1.2038 -0.38672,1.7396 -0.32503,2.7074 0.0423,0.6637 0.17804,1.4385 0.30163,1.7218 l 0.22469,0.515 1.59556,-0.837 c 1.46839,-0.7703 3.09849,-1.3682 3.7374,-1.3708 0.14386,0 0.0862,0.3106 -0.21138,1.1407 -0.50357,1.4048 -0.76131,2.8323 -0.88242,4.887 -0.53796,9.1277 4.42629,21.2596 11.54536,28.2153 1.87122,1.8282 4.02095,3.43105 4.44122,3.31125 0.68257,-0.19455 0.73012,-1.18475 0.16055,-3.34225 -0.88022,-3.334 -0.99961,-6.0158 -0.43437,-9.7565 0.59213,-3.9187 1.98955,-7.8441 5.34833,-15.0236 1.68933,-3.6111 2.54822,-5.7877 2.71891,-6.8903 0.1692,-1.0931 -0.0724,-4.6631 -0.40552,-5.9928 -0.36164,-1.4434 -1.65057,-3.679 -2.82675,-4.9027 -0.4379,-0.4556 -0.7882,-0.8583 -0.77842,-0.8948 0.01,-0.036 0.89141,-0.3739 1.95919,-0.7498 5.64357,-1.987 9.67778,-4.091 11.74886,-6.1277 1.23971,-1.2191 1.9609,-2.6416 1.96006,-3.8661 0,-0.3249 -0.11105,-1.3736 -0.24631,-2.3304 -0.53792,-3.8052 -0.6612,-7.0362 -0.39715,-10.4087 0.0816,-1.0421 0.18959,-2.4909 0.23999,-3.2194 0.1042,-1.5063 -0.028,-2.8475 -0.28143,-2.8551 -0.089,0 -0.90256,0.4146 -1.80787,0.9272 -1.62833,0.9221 -3.38867,1.7572 -4.10596,1.9477 -0.25198,0.067 0.17088,-0.2468 1.32199,-0.9811 3.9425,-2.5147 6.09096,-4.4239 6.49465,-5.7714 0.19037,-0.6355 0.10177,-1.0842 -0.54293,-2.7497 -0.25187,-0.6506 -0.50012,-1.3051 -0.55169,-1.4544 l -0.0938,-0.2716 16.93186,-9.7756 c 9.65096,-5.5719 16.95553,-9.7346 16.9869,-9.6802 0.12591,0.218 -0.51464,2.5233 -0.93866,3.3781 -0.85235,1.7182 -2.21267,3.2522 -3.94819,4.4522 -1.89758,1.3121 -4.75494,2.0863 -7.053,1.911 l -0.58343,-0.044 -0.24681,0.8117 c -0.31084,1.0223 -1.54668,2.8454 -2.72482,4.0195 -3.57192,3.5599 -8.01364,5.4996 -12.11738,5.2918 -1.26606,-0.064 -1.26058,-0.058 0.96369,1.0109 4.00046,1.9231 5.26222,2.2506 7.28714,1.8917 1.74415,-0.3091 2.91781,-1.0811 4.83184,-3.1785 1.5121,-1.657 1.61215,-1.6842 1.44675,-0.3942 -0.24578,1.917 -0.84839,3.544 -1.73447,4.683 l -0.46623,0.5993 1.38304,0.1262 c 3.31322,0.3023 6.72567,-0.081 9.61245,-1.0791 l 1.27648,-0.4414 m 12.20151,-21.1182 -0.36616,-1.7642 c -0.40988,-1.9748 -1.01157,-3.9726 -1.75084,-5.8133 -0.69283,-1.7251 -0.75685,-1.8733 -1.03861,-2.4036 l -0.2501,-0.4708 m -77.04495,52.9489 c 0.17099,2.4307 1.31872,7.4876 2.34524,10.3333 0.0891,0.2471 0.12439,0.4709 0.0784,0.4975 -0.152,0.088 -1.67449,-1.3995 -2.32561,-2.2719 -0.84316,-1.1296 -1.53076,-2.3343 -2.21213,-3.8757 -0.93305,-2.1108 -0.68115,-1.9443 -2.26536,-1.4977 -1.62157,0.4571 -3.59157,0.8012 -5.09478,0.8897 -0.59664,0.035 -1.09251,0.051 -1.10195,0.034 -0.009,-0.016 0.63433,-0.2832 1.43056,-0.5931 1.83771,-0.7152 6.20163,-3.1945 7.84694,-4.4582 0.73017,-0.5608 1.09617,-0.7892 1.1345,-0.7079 0.0311,0.066 0.10501,0.8083 0.1642,1.6498 z m 20.73873,19.0884 c 0.60012,3.1456 0.53688,6.029 -0.19091,8.7056 -0.52228,1.9208 -1.03183,3.0331 -2.33692,5.1013 -0.99831,1.582 -1.37984,2.3666 -2.68443,5.5204 -1.13927,2.7542 -1.74493,4.369 -2.35547,6.2803 l -0.48083,1.5053 -0.17525,-0.4659 c -2.62519,-6.9781 -3.35578,-12.616 -2.83829,-21.9026 l 0.13946,-2.5024 0.60184,0 c 1.67909,0.01 3.32558,-0.5213 7.10379,-2.2734 1.50701,-0.6989 2.79379,-1.2589 2.85949,-1.2445 0.0657,0.014 0.2266,0.5876 0.35752,1.2739 z m -4.04294,-22.2147 c -0.901,-0.3911 -1.9104,-0.5555 -2.90246,-0.4727 -0.79203,0.066 -1.03052,0.1441 -1.78024,0.5824 -1.00571,0.5879 -1.35865,1.0057 -1.67379,1.9811 -0.41843,1.2952 -0.16672,2.5273 0.88367,4.3255 1.03138,1.7656 2.20482,2.7967 3.49821,3.0739 0.88545,0.1898 1.45302,0.05 2.44311,-0.6004 0.984,-0.6467 1.73255,-1.6673 2.06771,-2.8191 l 0.21348,-0.7337 0.20553,0.356 c 0.53289,0.923 1.06363,3.1945 1.04308,4.4642 -0.0295,1.8239 -0.72013,3.3871 -1.77492,4.0175 -0.99772,0.5963 -2.94197,0.5039 -4.70488,-0.2235 -2.86294,-1.1813 -5.19318,-3.4129 -6.8709,-6.58 -1.30954,-2.472 -1.81299,-4.6397 -1.63741,-7.0503 0.0815,-1.1182 0.58458,-3.0963 1.0186,-4.0047 l 0.301,-0.63 2.04566,-0.1938 c 2.05776,-0.1951 3.69421,-0.2534 4.18547,-0.1493 0.46459,0.099 2.03216,1.9153 3.28357,3.8058 l 0.72788,1.0996 z m 7.62519,-19.3824 0.69955,1.3691 c 0.38476,0.753 1.14735,2.2187 1.69466,3.2569 l 0.99511,1.8879 0.59891,0.376 c 0.32942,0.2068 0.74629,0.4426 0.92641,0.5239 l 0.32746,0.1479 -0.47054,0.1686 c -0.75588,0.2708 -1.78831,0.4088 -2.25861,0.3017 l -0.43573,-0.099 -1.97715,-3.4245 -1.97716,-3.4245 m -47.68174,27.529 0.78276,1.1764 c 1.00332,1.5078 1.37139,1.9314 2.39838,2.7604 1.62417,1.3111 4.01148,2.2474 6.10512,2.3944 l 0.92744,0.065 0.46545,0.6405 c 2.37478,3.2678 4.05346,4.3551 7.36289,4.7689 0.81704,0.1022 3.19578,0.1518 4.32397,0.09 l 0.70838,-0.039 -0.40195,1.5008 c -0.3224,1.2038 -0.38672,1.7396 -0.32503,2.7074 0.0423,0.6637 0.17804,1.4385 0.30163,1.7218 l 0.22469,0.515 1.59556,-0.837 c 1.46839,-0.7703 3.09849,-1.3682 3.7374,-1.3708 0.14386,0 0.0862,0.3106 -0.21138,1.1407 -0.50357,1.4048 -0.76131,2.8323 -0.88242,4.887 -0.53796,9.1277 4.42629,21.2596 11.54536,28.2153 1.87122,1.8282 4.02095,3.43105 4.44122,3.31125 0.68257,-0.19455 0.73012,-1.18475 0.16055,-3.34225 -0.88022,-3.334 -0.99961,-6.0158 -0.43437,-9.7565 0.59213,-3.9187 1.98955,-7.8441 5.34833,-15.0236 1.68933,-3.6111 2.54822,-5.7877 2.71891,-6.8903 0.1692,-1.0931 -0.0724,-4.6631 -0.40552,-5.9928 -0.36164,-1.4434 -1.65057,-3.679 -2.82675,-4.9027 -0.4379,-0.4556 -0.7882,-0.8583 -0.77842,-0.8948 0.01,-0.036 0.89141,-0.3739 1.95919,-0.7498 5.64357,-1.987 9.67778,-4.091 11.74886,-6.1277 1.23971,-1.2191 1.9609,-2.6416 1.96006,-3.8661 0,-0.3249 -0.11105,-1.3736 -0.24631,-2.3304 -0.53792,-3.8052 -0.6612,-7.0362 -0.39715,-10.4087 0.0816,-1.0421 0.18959,-2.4909 0.23999,-3.2194 0.1042,-1.5063 -0.028,-2.8475 -0.28143,-2.8551 -0.089,0 -0.90256,0.4146 -1.80787,0.9272 -1.62833,0.9221 -3.38867,1.7572 -4.10596,1.9477 -0.25198,0.067 0.17088,-0.2468 1.32199,-0.9811 3.9425,-2.5147 6.09096,-4.4239 6.49465,-5.7714 0.19037,-0.6355 0.10177,-1.0842 -0.54293,-2.7497 -0.25187,-0.6506 -0.50012,-1.3051 -0.55169,-1.4544 l -0.0938,-0.2716 16.93186,-9.7756 c 9.65096,-5.5719 16.95553,-9.7346 16.9869,-9.6802 0.12591,0.218 -0.51464,2.5233 -0.93866,3.3781 -0.85235,1.7182 -2.21267,3.2522 -3.94819,4.4522 -1.89758,1.3121 -4.75494,2.0863 -7.053,1.911 l -0.58343,-0.044 -0.24681,0.8117 c -0.31084,1.0223 -1.54668,2.8454 -2.72482,4.0195 -3.57192,3.5599 -8.01364,5.4996 -12.11738,5.2918 -1.26606,-0.064 -1.26058,-0.058 0.96369,1.0109 4.00046,1.9231 5.26222,2.2506 7.28714,1.8917 1.74415,-0.3091 2.91781,-1.0811 4.83184,-3.1785 1.5121,-1.657 1.61215,-1.6842 1.44675,-0.3942 -0.24578,1.917 -0.84839,3.544 -1.73447,4.683 l -0.46623,0.5993 1.38304,0.1262 c 3.31322,0.3023 6.72567,-0.081 9.61245,-1.0791 l 1.27648,-0.4414 m 12.20151,-21.1182 -0.36616,-1.7642 c -0.40988,-1.9748 -1.01157,-3.9726 -1.75084,-5.8133 -0.69283,-1.7251 -0.75685,-1.8733 -1.03861,-2.4036 l -0.2501,-0.4708 m -58.3576,33.6928 0.74992,1.34 c 1.15703,2.0675 1.59193,3.4068 1.32703,4.0867 -0.0512,0.1315 -0.62689,1.063 -1.27932,2.07 -0.65243,1.0071 -1.32028,2.0783 -1.48412,2.3805 -0.1974,0.3641 -0.32472,0.5012 -0.37741,0.4063 -0.16172,-0.2913 -0.19346,-1.3784 -0.0804,-2.7542 0.14285,-1.7381 -0.0129,-2.3954 -1.03171,-4.3552 l -0.76682,-1.4751 m 75.71572,91.03695 -1.41012,-0.09 c -1.80748,-0.115 -2.35839,-0.222 -3.58984,-0.6968 -1.94749,-0.7511 -3.95199,-2.3504 -5.12613,-4.09 l -0.52012,-0.7707 -0.78741,-0.083 c -4.01738,-0.4227 -5.79832,-1.3329 -7.81145,-3.992 -0.497,-0.6565 -1.7293,-2.6918 -2.24002,-3.6996 l -0.32068,-0.63295 -1.09878,1.09865 c -0.88131,0.8811 -1.3132,1.2047 -2.18222,1.6352 -0.59589,0.2952 -1.33473,0.565 -1.64186,0.5996 l -0.55842,0.063 -0.0729,-1.8003 c -0.0671,-1.65695 -0.36432,-3.36755 -0.68153,-3.92225 -0.0714,-0.1248 -0.31209,0.081 -0.88223,0.7535 -0.96482,1.1385 -2.07213,2.07545 -3.79102,3.20775 -7.63582,5.0297 -20.62453,6.7965 -30.20783,4.1091 -2.51893,-0.7064 -4.98186,-1.7668 -5.08824,-2.1906 -0.17278,-0.6884 0.66091,-1.2247 2.81413,-1.8102 3.32751,-0.9047 5.70966,-2.14225 8.66664,-4.50215 3.09759,-2.4721 5.79836,-5.645 10.33666,-12.1436 2.28258,-3.2685 3.73815,-5.1006 4.60772,-5.7998 0.86204,-0.693 4.07453,-2.2688 5.39261,-2.6451 1.43086,-0.4086 4.01137,-0.4101 5.65927,0 0.61354,0.1514 1.13739,0.2534 1.1641,0.2267 0.0267,-0.027 -0.12188,-0.9589 -0.3302,-2.0716 -1.10106,-5.881 -1.29601,-10.4267 -0.56775,-13.2386 0.43592,-1.6832 1.30726,-3.019 2.36815,-3.6306 0.28152,-0.1623 1.24511,-0.5906 2.14132,-0.9519 3.56436,-1.4367 6.42416,-2.9455 9.21276,-4.8604 0.86174,-0.5917 2.06238,-1.4096 2.6681,-1.8175 1.2524,-0.8434 2.48004,-1.3995 2.61333,-1.1838 0.0468,0.076 0.0922,0.9889 0.10091,2.0293 0.0156,1.8712 0.17263,3.8132 0.36622,4.5297 0.068,0.2517 0.12837,-0.2715 0.18868,-1.6355 0.20657,-4.6716 0.78578,-7.4869 1.75092,-8.5102 0.45516,-0.4826 0.88801,-0.6302 2.65269,-0.9046 0.68939,-0.1072 1.38035,-0.2195 1.53546,-0.2495 l 0.28203,-0.055 0,-19.5512 c 0,-11.144 -0.0473,-19.5512 -0.11009,-19.5512 -0.25182,0 -1.92794,1.7073 -2.45619,2.5019 -1.06186,1.5973 -1.7102,3.5424 -1.88169,5.6454 -0.18753,2.2994 0.5707,5.161 1.87157,7.0636 l 0.33025,0.483 -0.57955,0.6196 c -0.72994,0.7803 -1.69082,2.7621 -2.1186,4.3695 -1.29695,4.8733 -0.75597,9.6898 1.47586,13.1399 0.68855,1.0643 0.68083,1.0625 -1.35729,-0.3292 -3.66567,-2.503 -4.58021,-3.4319 -5.28188,-5.365 -0.60438,-1.665 -0.52257,-3.0674 0.33679,-5.7737 0.6789,-2.138 0.65248,-2.2383 -0.38202,-1.45 -1.53724,1.1713 -2.64497,2.5067 -3.18831,3.8435 l -0.28588,0.7034 -0.80083,-1.1346 c -1.91848,-2.7182 -3.29295,-5.8649 -3.87173,-8.8641 l -0.25594,-1.3263 m 12.18812,-21.1258 1.71091,-0.565 c 1.91519,-0.6325 3.94616,-1.1103 5.90993,-1.3904 1.84039,-0.2626 2.00073,-0.2812 2.60089,-0.3024 l 0.53271,-0.019 m -7.33261,93.1974 c -2.19053,1.0672 -7.1438,2.6017 -10.1215,3.1356 -0.25852,0.046 -0.47004,0.1277 -0.47004,0.1808 0,0.1756 2.04927,0.7504 3.13031,0.8781 1.39985,0.1654 2.78694,0.1586 4.46255,-0.022 2.29451,-0.2473 2.02436,-0.3822 2.4297,1.2131 0.41491,1.6328 1.10197,3.5109 1.77687,4.857 0.26788,0.5343 0.50249,0.97145 0.52135,0.97145 0.0189,0 -0.0719,-0.69095 -0.20163,-1.53545 -0.29948,-1.9491 -0.33427,-6.9681 -0.0625,-9.0248 0.12058,-0.9127 0.13538,-1.3439 0.0459,-1.3364 -0.0727,0.01 -0.75259,0.3132 -1.51092,0.6827 z m -26.90037,-8.4161 c -3.02425,1.0531 -5.48968,2.5495 -7.4438,4.5181 -1.40235,1.4127 -2.11084,2.4102 -3.2494,4.5745 -0.87091,1.6556 -1.35962,2.3783 -3.43862,5.085 -1.81555,2.3637 -2.9112,3.6957 -4.26117,5.18 l -1.06318,1.16915 0.49106,-0.081 c 7.35586,-1.21565 12.60368,-3.40185 20.38733,-8.49325 l 2.09746,-1.372 -0.30268,-0.5202 c -0.84441,-1.4513 -1.21134,-3.1407 -1.58306,-7.2888 -0.14828,-1.6545 -0.30665,-3.0489 -0.35197,-3.0986 -0.0453,-0.05 -0.6222,0.098 -1.28197,0.3273 z m 21.2599,-7.606 c 0.78926,0.5847 1.43633,1.3766 1.86064,2.2772 0.33877,0.719 0.39045,0.9645 0.38575,1.8329 -0.006,1.165 -0.19161,1.6795 -0.87881,2.4401 -0.91244,1.01 -2.10535,1.4081 -4.18781,1.3975 -2.04474,-0.01 -3.52445,-0.5111 -4.41119,-1.4926 -0.60707,-0.6719 -0.77005,-1.2332 -0.70158,-2.416 0.0681,-1.1755 0.57762,-2.3341 1.40757,-3.2002 l 0.52864,-0.5518 -0.41105,0 c -1.06579,0 -3.29831,0.6761 -4.38768,1.3288 -1.56477,0.9375 -2.57326,2.3172 -2.5918,3.5459 -0.0175,1.1622 1.03459,2.7998 2.54601,3.9628 2.45453,1.8887 5.55225,2.791 9.13387,2.6604 2.79563,-0.1019 4.92464,-0.7498 6.92449,-2.1072 0.92763,-0.6296 2.38914,-2.0543 2.95882,-2.8844 l 0.3951,-0.5757 -0.85493,-1.8685 c -0.85999,-1.8796 -1.62767,-3.326 -1.96346,-3.6994 -0.31756,-0.3531 -2.67482,-0.8022 -4.93772,-0.9407 l -1.31623,-0.081 z m 12.97308,-16.2949 -1.53546,0.079 c -0.84451,0.043 -2.49506,0.1156 -3.6679,0.1608 l -2.13243,0.082 -0.62513,-0.3306 c -0.34382,-0.1819 -0.75642,-0.4251 -0.91691,-0.5404 l -0.29179,-0.2096 0.0892,0.4918 c 0.14336,0.79 0.54013,1.7531 0.868,2.1069 l 0.30375,0.3277 3.95432,0 3.95431,0 m 0,55.05815 -1.41012,-0.09 c -1.80748,-0.115 -2.35839,-0.2219 -3.58984,-0.6968 -1.94749,-0.751 -3.95199,-2.3504 -5.12613,-4.09 l -0.52012,-0.7706 -0.78741,-0.083 c -4.01738,-0.4227 -5.79832,-1.3328 -7.81145,-3.992 -0.497,-0.6565 -1.7293,-2.6917 -2.24002,-3.6996 l -0.32068,-0.63285 -1.09878,1.09855 c -0.88131,0.8811 -1.3132,1.2047 -2.18222,1.6352 -0.59589,0.2952 -1.33473,0.5651 -1.64186,0.5997 l -0.55842,0.063 -0.0729,-1.8003 c -0.0671,-1.65685 -0.36432,-3.36755 -0.68153,-3.92215 -0.0714,-0.1249 -0.31209,0.081 -0.88223,0.7534 -0.96482,1.1386 -2.07213,2.07555 -3.79102,3.20775 -7.63582,5.0297 -20.62453,6.7966 -30.20783,4.1091 -2.51893,-0.7064 -4.98186,-1.7667 -5.08824,-2.1906 -0.17278,-0.6884 0.66091,-1.2246 2.81413,-1.8101 3.32751,-0.9048 5.70966,-2.14225 8.66664,-4.50215 3.09759,-2.4722 5.79836,-5.645 10.33666,-12.1436 2.28258,-3.2686 3.73815,-5.1007 4.60772,-5.7998 0.86204,-0.6931 4.07453,-2.2689 5.39261,-2.6452 1.43086,-0.4085 4.01137,-0.41 5.65927,0 0.61354,0.1514 1.13739,0.2535 1.1641,0.2268 0.0267,-0.027 -0.12188,-0.959 -0.3302,-2.0717 -1.10106,-5.8809 -1.29601,-10.4267 -0.56775,-13.2386 0.43592,-1.6832 1.30726,-3.019 2.36815,-3.6305 0.28152,-0.1623 1.24511,-0.5907 2.14132,-0.9519 3.56436,-1.4367 6.42416,-2.9455 9.21276,-4.8604 0.86174,-0.5918 2.06238,-1.4096 2.6681,-1.8176 1.2524,-0.8433 2.48004,-1.3995 2.61333,-1.1838 0.0468,0.076 0.0922,0.989 0.10091,2.0293 0.0156,1.8712 0.17263,3.8132 0.36622,4.5297 0.068,0.2517 0.12837,-0.2714 0.18868,-1.6354 0.20657,-4.6717 0.78578,-7.4869 1.75092,-8.5103 0.45516,-0.4826 0.88801,-0.6302 2.65269,-0.9046 0.68939,-0.1072 1.38035,-0.2195 1.53546,-0.2495 l 0.28203,-0.055 0,-19.5512 c 0,-11.144 -0.0473,-19.5513 -0.11009,-19.5513 -0.25182,0 -1.92794,1.7074 -2.45619,2.502 -1.06186,1.5973 -1.7102,3.5423 -1.88169,5.6454 -0.18753,2.2994 0.5707,5.161 1.87157,7.0635 l 0.33025,0.483 -0.57955,0.6196 c -0.72994,0.7804 -1.69082,2.7622 -2.1186,4.3695 -1.29695,4.8733 -0.75597,9.6899 1.47586,13.1399 0.68855,1.0644 0.68083,1.0625 -1.35729,-0.3291 -3.66567,-2.503 -4.58021,-3.4319 -5.28188,-5.365 -0.60438,-1.665 -0.52257,-3.0675 0.33679,-5.7738 0.6789,-2.138 0.65248,-2.2382 -0.38202,-1.45 -1.53724,1.1713 -2.64497,2.5067 -3.18831,3.8436 l -0.28588,0.7034 -0.80083,-1.1347 c -1.91848,-2.7181 -3.29295,-5.8649 -3.87173,-8.8641 l -0.25594,-1.3262 m 12.18812,-21.1259 1.71091,-0.565 c 1.91519,-0.6324 3.94616,-1.1103 5.90993,-1.3904 1.84039,-0.2625 2.00073,-0.2812 2.60089,-0.3023 l 0.53271,-0.019 m 0,67.3855 -1.53546,0.021 c -2.36899,0.032 -3.74634,0.3248 -4.20271,0.8941 -0.0882,0.1101 -0.60707,1.0744 -1.153,2.1429 -0.54594,1.0686 -1.13972,2.1826 -1.31951,2.4756 -0.21662,0.353 -0.27164,0.5318 -0.16312,0.5299 0.33314,-0.01 1.29044,-0.5216 2.42535,-1.3074 1.43387,-0.9928 2.08094,-1.1866 4.28764,-1.2841 l 1.66081,-0.073 m 0,47.32255 1.41011,-0.09 c 1.80748,-0.115 2.35841,-0.2219 3.58985,-0.6968 1.94749,-0.7511 3.95198,-2.3504 5.12613,-4.09 l 0.52011,-0.7707 0.78741,-0.083 c 4.01738,-0.4227 5.79833,-1.3329 7.81146,-3.992 0.497,-0.6565 1.7293,-2.6918 2.24002,-3.6996 l 0.32067,-0.63295 1.09878,1.09865 c 0.88132,0.8811 1.31321,1.2047 2.18223,1.6352 0.59589,0.2952 1.33473,0.565 1.64186,0.5996 l 0.55841,0.063 0.0729,-1.8003 c 0.0671,-1.65695 0.36432,-3.36755 0.68152,-3.92215 0.0714,-0.1249 0.3121,0.081 0.88223,0.7534 0.96483,1.1385 2.07214,2.07545 3.79102,3.20775 7.63583,5.0297 20.62453,6.7965 30.20784,4.1091 2.51893,-0.7064 4.98186,-1.7668 5.08824,-2.1906 0.17278,-0.6884 -0.66092,-1.2247 -2.81413,-1.8102 -3.32752,-0.9047 -5.70965,-2.14225 -8.66664,-4.50215 -3.0976,-2.4721 -5.79836,-5.645 -10.33666,-12.1436 -2.28258,-3.2685 -3.73814,-5.1006 -4.60772,-5.7998 -0.86205,-0.693 -4.07454,-2.2688 -5.39261,-2.6451 -1.43087,-0.4086 -4.01138,-0.4101 -5.65928,0 -0.61354,0.1514 -1.13739,0.2534 -1.16409,0.2267 -0.0267,-0.027 0.12188,-0.9589 0.3302,-2.0716 1.10105,-5.881 1.296,-10.4267 0.56775,-13.2386 -0.43592,-1.6832 -1.30726,-3.019 -2.36815,-3.6306 -0.28152,-0.1623 -1.24511,-0.5906 -2.14132,-0.9519 -3.56436,-1.4367 -6.42417,-2.9455 -9.21276,-4.8604 -0.86174,-0.5917 -2.06238,-1.4096 -2.66811,-1.8175 -1.25239,-0.8434 -2.48002,-1.3995 -2.61333,-1.1838 -0.0468,0.076 -0.0922,0.9889 -0.10091,2.0293 -0.0156,1.8712 -0.17262,3.8132 -0.36622,4.5297 -0.068,0.2517 -0.12836,-0.2715 -0.18866,-1.6355 -0.20657,-4.6716 -0.7858,-7.4869 -1.75093,-8.5102 -0.45516,-0.4826 -0.88801,-0.6302 -2.6527,-0.9046 -0.68939,-0.1072 -1.38035,-0.2195 -1.53546,-0.2495 l -0.28202,-0.055 0,-19.5512 c 0,-11.144 0.0473,-19.5512 0.11009,-19.5512 0.25181,0 1.92794,1.7073 2.45619,2.5019 1.06187,1.5973 1.71019,3.5424 1.8817,5.6454 0.18751,2.2994 -0.57071,5.161 -1.87158,7.0636 l -0.33026,0.483 0.57955,0.6196 c 0.72994,0.7803 1.69083,2.7621 2.1186,4.3695 1.29696,4.8733 0.75597,9.6898 -1.47585,13.1399 -0.68855,1.0643 -0.68084,1.0625 1.35729,-0.3292 3.66566,-2.503 4.58021,-3.4319 5.28188,-5.365 0.60437,-1.665 0.52256,-3.0674 -0.3368,-5.7737 -0.6789,-2.138 -0.65247,-2.2383 0.38203,-1.45 1.53724,1.1713 2.64497,2.5067 3.1883,3.8435 l 0.28588,0.7034 0.80084,-1.1346 c 1.91847,-2.7182 3.29295,-5.865 3.87173,-8.8642 l 0.25594,-1.3262 m -12.18811,-21.1258 -1.71093,-0.565 c -1.91519,-0.6325 -3.94616,-1.1103 -5.90993,-1.3904 -1.84038,-0.2626 -2.00072,-0.2812 -2.60088,-0.3024 l -0.53271,-0.019 m 7.3326,93.1974 c 2.19053,1.0672 7.1438,2.6017 10.12151,3.1356 0.25852,0.046 0.47004,0.1277 0.47004,0.1808 0,0.1756 -2.04927,0.7504 -3.13031,0.8781 -1.39985,0.1654 -2.78694,0.1586 -4.46255,-0.022 -2.29452,-0.2473 -2.02435,-0.3822 -2.4297,1.2131 -0.4149,1.6328 -1.10197,3.5109 -1.77687,4.857 -0.26789,0.5343 -0.50248,0.97145 -0.52136,0.97145 -0.0189,0 0.0719,-0.69095 0.20163,-1.53545 0.2995,-1.9491 0.33428,-6.968 0.0626,-9.0248 -0.12059,-0.9127 -0.13538,-1.3439 -0.0459,-1.3364 0.0727,0.01 0.75258,0.3132 1.51091,0.6827 z m 26.90038,-8.4161 c 3.02424,1.0531 5.48968,2.5495 7.4438,4.5181 1.40235,1.4127 2.11084,2.4102 3.24939,4.5745 0.87092,1.6556 1.35962,2.3783 3.43862,5.085 1.81555,2.3637 2.91122,3.6957 4.26117,5.18 l 1.06318,1.16915 -0.49106,-0.081 c -7.35585,-1.21565 -12.60366,-3.40185 -20.38732,-8.49325 l -2.09746,-1.372 0.30267,-0.5202 c 0.84442,-1.4513 1.21134,-3.1407 1.58307,-7.2888 0.14827,-1.6545 0.30666,-3.0489 0.35196,-3.0986 0.0453,-0.05 0.6222,0.098 1.28198,0.3273 z m -21.25991,-7.606 c -0.78925,0.5847 -1.43633,1.3766 -1.86064,2.2772 -0.33877,0.719 -0.39045,0.9645 -0.38574,1.8329 0.006,1.165 0.19161,1.6795 0.8788,2.4401 0.91244,1.01 2.10535,1.4081 4.18781,1.3975 2.04475,-0.01 3.52445,-0.5111 4.4112,-1.4926 0.60706,-0.6719 0.77005,-1.2332 0.70157,-2.416 -0.068,-1.1755 -0.57761,-2.334 -1.40757,-3.2002 l -0.52864,-0.5518 0.41106,0 c 1.06578,0 3.2983,0.6761 4.38768,1.3288 1.56477,0.9375 2.57325,2.3172 2.59179,3.5459 0.0175,1.1622 -1.03459,2.7998 -2.54601,3.9628 -2.45453,1.8887 -5.55223,2.791 -9.13387,2.6604 -2.79562,-0.1019 -4.92462,-0.7498 -6.92448,-2.1072 -0.92763,-0.6296 -2.38914,-2.0543 -2.95883,-2.8844 l -0.39509,-0.5757 0.85493,-1.8685 c 0.85998,-1.8796 1.62766,-3.326 1.96346,-3.6994 0.31755,-0.3531 2.67482,-0.8022 4.93772,-0.9407 l 1.31622,-0.081 z m -12.97307,-16.2949 1.53546,0.079 c 0.8445,0.043 2.49505,0.1156 3.66789,0.1608 l 2.13245,0.082 0.62511,-0.3306 c 0.34382,-0.1819 0.75644,-0.425 0.91692,-0.5404 l 0.29179,-0.2096 -0.0892,0.4918 c -0.14335,0.79 -0.54013,1.7531 -0.86799,2.1069 l -0.30376,0.3277 -3.95431,0 -3.95431,0 m 0,55.05815 1.41011,-0.09 c 1.80748,-0.115 2.35841,-0.2219 3.58985,-0.6968 1.94749,-0.751 3.95198,-2.3504 5.12613,-4.09 l 0.52011,-0.7706 0.78741,-0.083 c 4.01738,-0.4227 5.79833,-1.3328 7.81146,-3.992 0.497,-0.6565 1.7293,-2.6917 2.24002,-3.6996 l 0.32067,-0.63285 1.09878,1.09855 c 0.88132,0.8811 1.31321,1.2048 2.18223,1.6352 0.59589,0.2952 1.33473,0.5651 1.64186,0.5997 l 0.55841,0.063 0.0729,-1.8003 c 0.0671,-1.65685 0.36432,-3.36755 0.68152,-3.92215 0.0714,-0.1249 0.3121,0.081 0.88223,0.7534 0.96483,1.1386 2.07214,2.07555 3.79102,3.20775 7.63583,5.0297 20.62453,6.7966 30.20784,4.1091 2.51893,-0.7064 4.98186,-1.7667 5.08824,-2.1906 0.17278,-0.6884 -0.66092,-1.2246 -2.81413,-1.8101 -3.32752,-0.9048 -5.70965,-2.14225 -8.66664,-4.50215 -3.0976,-2.4722 -5.79836,-5.645 -10.33666,-12.1436 -2.28258,-3.2686 -3.73814,-5.1007 -4.60772,-5.7998 -0.86205,-0.6931 -4.07454,-2.2689 -5.39261,-2.6452 -1.43087,-0.4085 -4.01138,-0.41 -5.65928,0 -0.61354,0.1514 -1.13739,0.2535 -1.16409,0.2268 -0.0267,-0.027 0.12188,-0.959 0.3302,-2.0717 1.10105,-5.8809 1.296,-10.4267 0.56775,-13.2386 -0.43592,-1.6832 -1.30726,-3.019 -2.36815,-3.6305 -0.28152,-0.1623 -1.24511,-0.5907 -2.14132,-0.9519 -3.56436,-1.4367 -6.42417,-2.9455 -9.21276,-4.8604 -0.86174,-0.5918 -2.06238,-1.4096 -2.66811,-1.8176 -1.25239,-0.8433 -2.48002,-1.3995 -2.61333,-1.1838 -0.0468,0.076 -0.0922,0.989 -0.10091,2.0293 -0.0156,1.8712 -0.17262,3.8132 -0.36622,4.5297 -0.068,0.2517 -0.12836,-0.2714 -0.18866,-1.6354 -0.20657,-4.6717 -0.7858,-7.4869 -1.75093,-8.5103 -0.45516,-0.4826 -0.88801,-0.6302 -2.6527,-0.9046 -0.68939,-0.1072 -1.38035,-0.2195 -1.53546,-0.2495 l -0.28202,-0.055 0,-19.5512 c 0,-11.144 0.0473,-19.5513 0.11009,-19.5513 0.25181,0 1.92794,1.7074 2.45619,2.502 1.06187,1.5973 1.71019,3.5423 1.8817,5.6454 0.18751,2.2994 -0.57071,5.161 -1.87158,7.0635 l -0.33026,0.483 0.57955,0.6196 c 0.72994,0.7804 1.69083,2.7622 2.1186,4.3695 1.29696,4.8733 0.75597,9.6899 -1.47585,13.1399 -0.68855,1.0644 -0.68084,1.0625 1.35729,-0.3291 3.66566,-2.503 4.58021,-3.4319 5.28188,-5.365 0.60437,-1.665 0.52256,-3.0675 -0.3368,-5.7738 -0.6789,-2.138 -0.65247,-2.2382 0.38203,-1.45 1.53724,1.1713 2.64497,2.5067 3.1883,3.8436 l 0.28588,0.7034 0.80084,-1.1347 c 1.91847,-2.7181 3.29295,-5.8649 3.87173,-8.8641 l 0.25594,-1.3262 m -12.18811,-21.1259 -1.71093,-0.565 c -1.91519,-0.6324 -3.94616,-1.1103 -5.90993,-1.3904 -1.84038,-0.2625 -2.00072,-0.2812 -2.60088,-0.3023 l -0.53271,-0.019 m 0,67.3855 1.53546,0.021 c 2.36898,0.032 3.74634,0.3248 4.20271,0.8941 0.0882,0.1101 0.60706,1.0744 1.153,2.1429 0.54593,1.0686 1.13971,2.1826 1.3195,2.4756 0.21662,0.353 0.27165,0.5318 0.16313,0.5299 -0.33314,-0.01 -1.29043,-0.5216 -2.42534,-1.3074 -1.43388,-0.9928 -2.08096,-1.1866 -4.28766,-1.2841 l -1.6608,-0.073 m -116.69809,-154.8045 0.78275,-1.1764 c 1.00333,-1.5078 1.3714,-1.9314 2.39839,-2.7604 1.62417,-1.3111 4.01148,-2.2474 6.10511,-2.3944 l 0.92745,-0.065 0.46545,-0.6405 c 2.37478,-3.2678 4.05346,-4.3551 7.36289,-4.7689 0.81704,-0.1022 3.19577,-0.1518 4.32397,-0.09 l 0.70838,0.039 -0.40195,-1.5009 c -0.3224,-1.2038 -0.38673,-1.7396 -0.32503,-2.7074 0.0423,-0.6637 0.17804,-1.4385 0.30162,-1.7218 l 0.2247,-0.515 1.59556,0.837 c 1.4684,0.7703 3.09848,1.3682 3.73741,1.3708 0.14385,7e-4 0.0862,-0.3106 -0.21139,-1.1407 -0.50357,-1.4048 -0.76132,-2.8323 -0.88242,-4.887 -0.53796,-9.1277 4.42628,-21.2596 11.54535,-28.2153 1.87122,-1.8282 4.02096,-3.431 4.44123,-3.3112 0.68257,0.1946 0.73012,1.1847 0.16053,3.3421 -0.8802,3.3341 -0.99959,6.0159 -0.43435,9.7566 0.59213,3.9187 1.98953,7.8441 5.34833,15.0236 1.68934,3.6111 2.54822,5.7877 2.7189,6.8904 0.16921,1.093 -0.0724,4.663 -0.4055,5.9927 -0.36165,1.4434 -1.65059,3.679 -2.82675,4.9027 -0.43792,0.4557 -0.78821,0.8583 -0.77843,0.8948 0.01,0.037 0.89141,0.3739 1.95919,0.7498 5.64357,1.987 9.67779,4.091 11.74886,6.1277 1.23972,1.2191 1.96091,2.6416 1.96006,3.8661 -2.1e-4,0.3249 -0.11105,1.3736 -0.24631,2.3304 -0.53791,3.8052 -0.6612,7.0362 -0.39715,10.4087 0.0816,1.0421 0.18959,2.4909 0.24,3.2194 0.10419,1.5063 -0.028,2.8475 -0.28144,2.8551 -0.089,0 -0.90256,-0.4146 -1.80787,-0.9272 -1.62833,-0.9221 -3.38867,-1.7572 -4.10596,-1.9477 -0.25198,-0.067 0.17088,0.2468 1.32198,0.9811 3.9425,2.5147 6.09098,4.4239 6.49465,5.7714 0.19037,0.6355 0.10178,1.0842 -0.54292,2.7497 -0.25186,0.6506 -0.50012,1.3051 -0.55169,1.4544 l -0.0938,0.2716 16.93186,9.7756 c 9.65096,5.5719 16.95553,9.7346 16.9869,9.6803 0.12591,-0.2181 -0.51464,-2.5234 -0.93866,-3.3782 -0.85235,-1.7182 -2.21267,-3.2522 -3.9482,-4.4522 -1.89756,-1.3121 -4.75493,-2.0863 -7.05299,-1.911 l -0.58343,0.045 -0.24681,-0.8117 c -0.31084,-1.0223 -1.54668,-2.8453 -2.72483,-4.0195 -3.57192,-3.5599 -8.01363,-5.4996 -12.11738,-5.2918 -1.26605,0.064 -1.26058,0.058 0.9637,-1.0109 4.00046,-1.9231 5.26222,-2.2506 7.28714,-1.8917 1.74414,0.3091 2.91781,1.0811 4.83185,3.1785 1.5121,1.657 1.61214,1.6842 1.44674,0.3942 -0.24579,-1.917 -0.84839,-3.544 -1.73446,-4.683 l -0.46624,-0.5993 1.38304,-0.1262 c 3.31322,-0.3023 6.72567,0.081 9.61245,1.0791 l 1.27648,0.4414 m 12.20154,21.1182 -0.36616,1.7642 c -0.40988,1.9748 -1.01156,3.9726 -1.75084,5.8133 -0.69283,1.7251 -0.75686,1.8733 -1.03861,2.4036 l -0.2501,0.4708 m -77.04498,-52.9489 c 0.17099,-2.4307 1.31871,-7.4876 2.34524,-10.3333 0.0891,-0.247 0.1244,-0.4709 0.0784,-0.4975 -0.152,-0.088 -1.67448,1.3996 -2.32562,2.2719 -0.84316,1.1296 -1.53076,2.3343 -2.21212,3.8757 -0.93305,2.1108 -0.68116,1.9443 -2.26536,1.4977 -1.62158,-0.4571 -3.59157,-0.8012 -5.09479,-0.8897 -0.59663,-0.035 -1.09251,-0.051 -1.10194,-0.034 -0.009,0.016 0.63432,0.2832 1.43056,0.5931 1.83771,0.7152 6.20163,3.1945 7.84694,4.4582 0.73017,0.5608 1.09617,0.7892 1.1345,0.708 0.0311,-0.066 0.10501,-0.8084 0.1642,-1.6499 z m 20.73874,-19.0884 c 0.60011,-3.1456 0.53687,-6.0289 -0.19092,-8.7056 -0.52229,-1.9208 -1.03183,-3.0331 -2.33692,-5.1013 -0.99832,-1.582 -1.37982,-2.3666 -2.68443,-5.5204 -1.13928,-2.7542 -1.74492,-4.369 -2.35547,-6.2803 l -0.48084,-1.5053 -0.17524,0.4659 c -2.62518,6.9781 -3.35578,12.616 -2.83828,21.9026 l 0.13944,2.5024 0.60186,0 c 1.67908,-0.01 3.32558,0.5213 7.10378,2.2734 1.50702,0.6989 2.79378,1.2589 2.85949,1.2445 0.0657,-0.014 0.22661,-0.5876 0.35753,-1.2739 z m -4.04295,22.2147 c -0.90101,0.3911 -1.91039,0.5555 -2.90245,0.4727 -0.79204,-0.066 -1.03053,-0.1441 -1.78025,-0.5824 -1.00571,-0.5879 -1.35864,-1.0057 -1.67378,-1.9811 -0.41844,-1.2952 -0.16672,-2.5273 0.88367,-4.3255 1.03137,-1.7656 2.20482,-2.7967 3.4982,-3.0739 0.88546,-0.1898 1.45302,-0.05 2.44311,0.6004 0.984,0.6467 1.73254,1.6673 2.06771,2.8191 l 0.21348,0.7337 0.20553,-0.356 c 0.53288,-0.923 1.06363,-3.1945 1.04309,-4.4642 -0.0295,-1.8239 -0.72015,-3.3871 -1.77494,-4.0175 -0.99771,-0.5963 -2.94196,-0.5039 -4.70487,0.2235 -2.86294,1.1813 -5.19317,3.4129 -6.87091,6.58 -1.30953,2.472 -1.81297,4.6397 -1.6374,7.0503 0.0815,1.1182 0.58458,3.0963 1.01859,4.0047 l 0.301,0.63 2.04566,0.1938 c 2.05777,0.1951 3.69422,0.2534 4.18548,0.1493 0.46459,-0.098 2.03216,-1.9153 3.28356,-3.8058 l 0.72789,-1.0996 z m 7.62519,19.3824 0.69955,-1.3691 c 0.38476,-0.753 1.14735,-2.2186 1.69465,-3.2569 l 0.99511,-1.8878 0.59892,-0.3761 c 0.32941,-0.2068 0.74629,-0.4426 0.92642,-0.5239 l 0.32746,-0.1478 -0.47054,-0.1686 c -0.75586,-0.2709 -1.7883,-0.4088 -2.2586,-0.3018 l -0.43573,0.099 -1.97716,3.4245 -1.97715,3.4246 m -47.68175,-27.5291 0.78276,-1.1763 c 1.00333,-1.5079 1.3714,-1.9315 2.39839,-2.7605 1.62417,-1.3111 4.01148,-2.2473 6.10511,-2.3944 l 0.92744,-0.065 0.46546,-0.6405 c 2.37478,-3.2678 4.05346,-4.355 7.36289,-4.7689 0.81704,-0.1022 3.19577,-0.1517 4.32396,-0.09 l 0.70839,0.039 -0.40195,-1.5008 c -0.3224,-1.2038 -0.38673,-1.7397 -0.32503,-2.7075 0.0423,-0.6637 0.17804,-1.4384 0.30162,-1.7217 l 0.2247,-0.5151 1.59556,0.837 c 1.4684,0.7704 3.09848,1.3683 3.73741,1.3709 0.14385,6e-4 0.0862,-0.3106 -0.21139,-1.1408 -0.50357,-1.4048 -0.76132,-2.8322 -0.88242,-4.8869 -0.53796,-9.1277 4.42628,-21.2597 11.54535,-28.2153 1.87121,-1.8283 4.02096,-3.4311 4.44122,-3.3113 0.68258,0.1946 0.73013,1.1847 0.16054,3.3422 -0.8802,3.3341 -0.99959,6.0158 -0.43435,9.7566 0.59213,3.9186 1.98953,7.844 5.34833,15.0236 1.68933,3.611 2.54822,5.7876 2.7189,6.8903 0.1692,1.0931 -0.0724,4.6631 -0.4055,5.9927 -0.36165,1.4434 -1.65059,3.679 -2.82675,4.9028 -0.43792,0.4556 -0.78821,0.8582 -0.77844,0.8947 0.01,0.037 0.89142,0.3739 1.95919,0.7499 5.64358,1.9869 9.6778,4.0909 11.74887,6.1276 1.23972,1.2191 1.96091,2.6416 1.96006,3.8661 -2.1e-4,0.325 -0.11105,1.3737 -0.24632,2.3304 -0.5379,3.8052 -0.66119,7.0363 -0.39714,10.4087 0.0816,1.0422 0.18959,2.4909 0.24,3.2194 0.10419,1.5063 -0.028,2.8475 -0.28144,2.8551 -0.089,0 -0.90256,-0.4145 -1.80787,-0.9272 -1.62833,-0.9221 -3.38867,-1.7571 -4.10597,-1.9477 -0.25197,-0.067 0.17089,0.2469 1.32199,0.9811 3.9425,2.5147 6.09098,4.424 6.49465,5.7715 0.19037,0.6355 0.10178,1.0841 -0.54293,2.7496 -0.25185,0.6506 -0.50011,1.3051 -0.55168,1.4545 l -0.0938,0.2715 16.93186,9.7756 c 9.65096,5.572 16.95553,9.7346 16.9869,9.6803 0.12591,-0.2181 -0.51464,-2.5233 -0.93866,-3.3781 -0.85235,-1.7183 -2.21267,-3.2523 -3.9482,-4.4523 -1.89757,-1.3121 -4.75493,-2.0863 -7.053,-1.911 l -0.58343,0.045 -0.2468,-0.8117 c -0.31084,-1.0224 -1.54668,-2.8454 -2.72483,-4.0196 -3.57192,-3.5598 -8.01363,-5.4996 -12.11738,-5.2918 -1.26605,0.064 -1.26058,0.058 0.9637,-1.0109 4.00046,-1.923 5.26222,-2.2506 7.28714,-1.8917 1.74414,0.3091 2.91781,1.0812 4.83185,3.1785 1.51209,1.657 1.61214,1.6842 1.44674,0.3942 -0.24579,-1.9169 -0.8484,-3.544 -1.73447,-4.6829 l -0.46623,-0.5993 1.38304,-0.1262 c 3.31322,-0.3024 6.72567,0.081 9.61245,1.079 l 1.27648,0.4415 m 12.20154,21.1181 -0.36616,1.7642 c -0.40988,1.9748 -1.01156,3.9726 -1.75085,5.8134 -0.69282,1.7251 -0.75685,1.8732 -1.0386,2.4036 l -0.2501,0.4707 m -58.35759,-33.6928 0.74992,-1.34 c 1.15701,-2.0675 1.59192,-3.4068 1.32702,-4.0867 -0.0512,-0.1314 -0.6269,-1.0629 -1.27932,-2.07 -0.65243,-1.0071 -1.32028,-2.0783 -1.48413,-2.3805 -0.19739,-0.3641 -0.32471,-0.5012 -0.37739,-0.4062 -0.16172,0.2913 -0.19346,1.3783 -0.0804,2.7541 0.14283,1.7381 -0.0129,2.3954 -1.03172,4.3553 l -0.76682,1.475 m -40.98242,-23.6612 -0.62736,1.266 c -0.80416,1.6229 -0.987,2.1534 -1.19145,3.4573 -0.32333,2.0621 0.0595,4.5977 0.97898,6.4844 l 0.40732,0.8358 -0.32195,0.7233 c -1.64261,3.6905 -1.74487,5.6879 -0.44856,8.7609 0.32003,0.7587 1.46647,2.8435 2.08394,3.7897 l 0.3877,0.5942 -1.50072,0.4023 c -1.20371,0.3227 -1.69993,0.5349 -2.50725,1.0722 -0.55359,0.3685 -1.1567,0.8734 -1.34025,1.1221 l -0.33371,0.4521 1.52267,0.9633 c 1.40132,0.8865 2.73416,1.9992 3.05588,2.5513 0.0725,0.1242 -0.22591,0.2299 -1.09361,0.3873 -1.4684,0.2663 -2.83346,0.7568 -4.67344,1.6793 -8.173792,4.0979 -16.198242,14.4631 -18.662482,24.1062 -0.64772,2.5346 -0.96091,5.1978 -0.64703,5.5018 0.50979,0.4939 1.39104,0.04 2.97469,-1.532 2.4473,-2.4294 4.71005,-3.8736 8.23227,-5.2545 3.689722,-1.4465 7.787902,-2.199 15.684982,-2.88 3.97192,-0.3425 6.28638,-0.687 7.32663,-1.0905 1.03125,-0.4 4.00217,-2.3943 4.9871,-3.3476 1.06923,-1.0349 2.3608,-3.2689 2.83253,-4.8994 0.17564,-0.607 0.34919,-1.1117 0.38567,-1.1215 0.0365,-0.01 0.76952,0.585 1.62898,1.3218 4.54252,3.894 8.38179,6.3357 11.18112,7.111 1.67563,0.464 3.26816,0.3774 4.32821,-0.2356 0.28129,-0.1627 1.13406,-0.783 1.89501,-1.3785 3.02644,-2.3685 5.76296,-4.0908 8.81561,-5.5483 0.94334,-0.4504 2.25198,-1.0813 2.9081,-1.4019 1.3566,-0.6629 2.45203,-1.448 2.33189,-1.6713 -0.0422,-0.078 -0.81032,-0.5743 -1.70695,-1.102 -1.61272,-0.9491 -3.21605,-2.0561 -3.73974,-2.582 -0.18397,-0.1848 0.29924,0.024 1.51065,0.6543 4.14907,2.1569 6.87676,3.0629 8.24557,2.7388 0.64553,-0.1529 0.98978,-0.4539 2.10977,-1.845 0.43753,-0.5434 0.88023,-1.0857 0.98378,-1.205 l 0.18826,-0.217 16.93186,9.7756 c 9.65096,5.572 16.9082,9.8166 16.87681,9.871 -0.1259,0.2181 -2.44257,0.8159 -3.39485,0.8761 -1.91421,0.121 -3.92287,-0.2901 -5.82989,-1.1931 -2.0851,-0.9873 -4.18423,-3.0747 -5.18143,-5.1526 l -0.25316,-0.5275 -0.82636,0.1921 c -1.04078,0.242 -3.2375,0.083 -4.84343,-0.35 -4.86888,-1.3134 -8.7696,-4.1902 -10.64152,-7.848 -0.57751,-1.1285 -0.57975,-1.1209 -0.3936,1.34 0.3348,4.426 0.682,5.6825 2.00526,7.2567 1.13977,1.3559 2.39524,1.9863 5.16864,2.5952 2.191,0.4811 2.26462,0.5541 1.06472,1.0559 -1.78302,0.7456 -3.49337,1.0372 -4.92277,0.8393 l -0.75213,-0.1041 0.58222,1.2609 c 1.39475,3.0205 3.43272,5.7842 5.74071,7.7851 l 1.02056,0.8847 m 24.38962,0.01 1.34475,-1.1992 c 1.50531,-1.3424 2.93461,-2.8624 4.15909,-4.423 1.14756,-1.4625 1.24388,-1.5921 1.56228,-2.1012 l 0.28261,-0.452 m -84.37756,-40.2485 c -2.01953,1.3635 -5.82508,4.8859 -7.77626,7.1977 -0.1694,0.2007 -0.34564,0.3432 -0.39165,0.3167 -0.152,-0.088 0.37479,-2.15 0.80469,-3.15 0.5567,-1.295 1.25619,-2.4929 2.25043,-3.8536 1.36147,-1.8635 1.3432,-1.5621 0.16434,-2.7107 -1.20667,-1.1758 -2.4896,-2.7099 -3.31791,-3.9674 -0.32876,-0.4991 -0.59003,-0.9209 -0.5806,-0.9372 0.009,-0.016 0.56246,0.4077 1.22893,0.9423 1.53823,1.2339 5.86736,3.7735 7.78438,4.5666 0.85076,0.3519 1.23156,0.5547 1.18037,0.6285 -0.0416,0.06 -0.64758,0.4951 -1.34672,0.9671 z m -6.16164,27.5045 c -2.42413,2.0925 -4.9528,3.4794 -7.63471,4.1874 -1.92464,0.5082 -3.14267,0.623 -5.58632,0.5269 -1.86923,-0.074 -2.73945,-0.012 -6.12304,0.4354 -2.95482,0.3904 -4.656152,0.6733 -6.616642,1.1003 l -1.54402,0.3362 0.31581,-0.3847 c 4.730672,-5.7626 9.247892,-9.2142 17.549052,-13.4093 l 2.23691,-1.1305 0.29917,0.5222 c 0.83467,1.457 2.11424,2.6194 5.52072,5.0154 1.35874,0.9557 2.48713,1.79 2.50753,1.8541 0.0204,0.064 -0.3956,0.4901 -0.92446,0.9466 z m 17.21697,-14.6086 c -0.11175,-0.9759 -0.47407,-1.9323 -1.04181,-2.75 -0.45328,-0.6529 -0.64009,-0.8204 -1.39451,-1.2505 -1.01202,-0.577 -1.55026,-0.6738 -2.55259,-0.459 -1.33088,0.2852 -2.27207,1.1193 -3.30414,2.928 -1.01337,1.776 -1.31963,3.3078 -0.91299,4.5665 0.27839,0.8617 0.68297,1.2835 1.74153,1.8156 1.05205,0.5288 2.31017,0.6668 3.47528,0.3811 l 0.74212,-0.1819 -0.20552,0.356 c -0.5329,0.9229 -2.23468,2.5183 -3.34459,3.1354 -1.59427,0.8864 -3.2934,1.0699 -4.36673,0.4716 -1.01524,-0.5659 -1.90738,-2.2958 -2.15886,-4.1863 -0.40842,-3.07 0.35906,-6.2038 2.26296,-9.2403 1.48608,-2.3702 3.11165,-3.89 5.28708,-4.9432 1.00909,-0.4886 2.97372,-1.0419 3.97742,-1.1202 l 0.6961,-0.054 1.19073,1.6747 c 1.19778,1.6846 2.06655,3.0726 2.22201,3.5501 0.14703,0.4516 -0.64266,2.7176 -1.65415,4.7465 l -0.58835,1.1802 z m 20.59826,-3.0876 -0.83591,1.2904 c -0.45975,0.7097 -1.34771,2.1029 -1.97324,3.096 l -1.13734,1.8057 -0.0262,0.7067 c -0.0144,0.3887 -0.0101,0.8676 0.009,1.0643 l 0.0357,0.3575 -0.3813,-0.3232 c -0.61251,-0.5192 -1.24817,-1.3443 -1.39061,-1.8051 l -0.13197,-0.427 1.97716,-3.4245 1.97715,-3.4246 m -47.68174,-27.529 -0.62736,1.266 c -0.80416,1.6229 -0.987,2.1534 -1.19145,3.4573 -0.32333,2.0621 0.0595,4.5977 0.97898,6.4844 l 0.40732,0.8358 -0.32195,0.7233 c -1.64261,3.6905 -1.74487,5.6879 -0.44856,8.7609 0.32003,0.7587 1.46647,2.8435 2.08394,3.7897 l 0.3877,0.5942 -1.50072,0.4023 c -1.20371,0.3227 -1.69993,0.5349 -2.50725,1.0722 -0.55359,0.3685 -1.1567,0.8734 -1.34025,1.1221 l -0.33371,0.4521 1.52267,0.9633 c 1.40132,0.8865 2.73416,1.9992 3.05588,2.5513 0.0725,0.1242 -0.22591,0.2299 -1.09361,0.3873 -1.4684,0.2663 -2.83346,0.7568 -4.67344,1.6793 -8.173792,4.0979 -16.198242,14.4631 -18.662482,24.1062 -0.64772,2.5346 -0.96091,5.1978 -0.64703,5.5018 0.50979,0.4939 1.39104,0.04 2.97469,-1.532 2.4473,-2.4294 4.71005,-3.8736 8.23227,-5.2545 3.689722,-1.4465 7.787902,-2.199 15.684982,-2.88 3.97192,-0.3425 6.28638,-0.687 7.32663,-1.0905 1.03125,-0.4 4.00217,-2.3943 4.9871,-3.3476 1.06923,-1.0349 2.3608,-3.2689 2.83253,-4.8994 0.17564,-0.607 0.34919,-1.1117 0.38567,-1.1215 0.0365,-0.01 0.76952,0.585 1.62898,1.3218 4.54252,3.894 8.38179,6.3357 11.18112,7.111 1.67563,0.464 3.26816,0.3774 4.32821,-0.2356 0.28129,-0.1627 1.13406,-0.783 1.89501,-1.3785 3.02644,-2.3685 5.76296,-4.0908 8.81561,-5.5483 0.94334,-0.4504 2.25198,-1.0813 2.9081,-1.4019 1.3566,-0.6629 2.45202,-1.448 2.33189,-1.6713 -0.0422,-0.078 -0.81032,-0.5743 -1.70695,-1.102 -1.61272,-0.9491 -3.21605,-2.0561 -3.73975,-2.582 -0.18397,-0.1848 0.29925,0.024 1.51066,0.6543 4.14906,2.1569 6.87676,3.0629 8.24557,2.7388 0.64553,-0.1529 0.98978,-0.4539 2.10977,-1.845 0.43753,-0.5434 0.88023,-1.0857 0.98378,-1.205 l 0.18826,-0.217 16.93186,9.7756 c 9.65096,5.572 16.9082,9.8166 16.87681,9.871 -0.1259,0.2181 -2.44257,0.8159 -3.39485,0.8761 -1.91421,0.121 -3.92287,-0.2901 -5.82989,-1.1931 -2.0851,-0.9873 -4.18423,-3.0747 -5.18143,-5.1526 l -0.25316,-0.5275 -0.82636,0.1921 c -1.04078,0.242 -3.2375,0.083 -4.84343,-0.35 -4.86888,-1.3134 -8.76961,-4.1902 -10.64152,-7.848 -0.57751,-1.1285 -0.57975,-1.1209 -0.3936,1.34 0.3348,4.426 0.682,5.6825 2.00526,7.2567 1.13977,1.3559 2.39524,1.9863 5.16864,2.5952 2.191,0.4811 2.26462,0.5541 1.06472,1.0559 -1.78302,0.7456 -3.49337,1.0372 -4.92277,0.8393 l -0.75213,-0.1041 0.58221,1.2609 c 1.39476,3.0205 3.43273,5.7842 5.74072,7.7851 l 1.02056,0.8847 m 24.38962,0.01 1.34475,-1.1992 c 1.50531,-1.3424 2.93461,-2.8624 4.15909,-4.423 1.14756,-1.4625 1.24388,-1.5921 1.56228,-2.1012 l 0.28261,-0.452 m -58.3576,-33.6928 -0.78554,1.3195 c -1.21196,2.0357 -2.15441,3.0821 -2.87569,3.1926 -0.13941,0.021 -1.23395,-0.012 -2.43231,-0.073 -1.19837,-0.061 -2.46,-0.1043 -2.80363,-0.095 -0.41402,0.011 -0.59636,-0.031 -0.54053,-0.1237 0.17143,-0.2857 1.09698,-0.8567 2.34495,-1.4467 1.57671,-0.7454 2.06808,-1.2088 3.25593,-3.0711 l 0.89399,-1.4016 m 192.41381,-23.6612 0.62736,1.266 c 0.80416,1.6229 0.98701,2.1534 1.19145,3.4573 0.32333,2.0621 -0.0595,4.5977 -0.97898,6.4844 l -0.40732,0.8358 0.32195,0.7233 c 1.6426,3.6905 1.74487,5.6879 0.44857,8.7609 -0.32004,0.7587 -1.46647,2.8435 -2.08394,3.7897 l -0.38772,0.5942 1.50073,0.4023 c 1.20371,0.3227 1.69994,0.5349 2.50725,1.0722 0.55359,0.3685 1.1567,0.8734 1.34025,1.1221 l 0.33372,0.4521 -1.52269,0.9633 c -1.40132,0.8865 -2.73415,1.9992 -3.05588,2.5513 -0.0724,0.1242 0.22592,0.2299 1.09361,0.3873 1.4684,0.2663 2.83347,0.7568 4.67345,1.6793 8.17379,4.0979 16.19824,14.463 18.66249,24.1062 0.64771,2.5346 0.9609,5.1978 0.64701,5.5018 -0.50978,0.4939 -1.39104,0.04 -2.97467,-1.532 -2.44731,-2.4294 -4.71005,-3.8736 -8.23228,-5.2545 -3.68972,-1.4465 -7.7879,-2.199 -15.68499,-2.88 -3.97191,-0.3425 -6.28637,-0.687 -7.32663,-1.0905 -1.03124,-0.4 -4.00216,-2.3942 -4.9871,-3.3476 -1.06922,-1.0349 -2.36079,-3.2689 -2.83253,-4.8994 -0.17563,-0.607 -0.34918,-1.1117 -0.38567,-1.1215 -0.0365,-0.01 -0.76952,0.585 -1.62897,1.3218 -4.54252,3.894 -8.3818,6.3357 -11.18113,7.111 -1.67563,0.4641 -3.26816,0.3774 -4.3282,-0.2356 -0.2813,-0.1627 -1.13406,-0.783 -1.89501,-1.3785 -3.02645,-2.3685 -5.76297,-4.0908 -8.81561,-5.5483 -0.94334,-0.4504 -2.25199,-1.0813 -2.9081,-1.4019 -1.35659,-0.6629 -2.45202,-1.448 -2.33189,-1.6713 0.0422,-0.078 0.81032,-0.5743 1.70695,-1.102 1.61271,-0.9491 3.21604,-2.0561 3.73974,-2.582 0.18397,-0.1848 -0.29924,0.024 -1.51065,0.6543 -4.14907,2.1569 -6.87676,3.0629 -8.24557,2.7388 -0.64553,-0.1529 -0.98979,-0.4539 -2.10977,-1.845 -0.43754,-0.5434 -0.88023,-1.0857 -0.98378,-1.205 l -0.18826,-0.217 -16.93186,9.7756 c -9.65096,5.572 -16.90819,9.8166 -16.87682,9.871 0.12591,0.2181 2.44259,0.816 3.39486,0.8761 1.91421,0.121 3.92286,-0.2901 5.82989,-1.1931 2.08509,-0.9873 4.18423,-3.0747 5.18143,-5.1526 l 0.25316,-0.5275 0.82636,0.1921 c 1.04078,0.242 3.2375,0.083 4.84343,-0.35 4.86888,-1.3134 8.7696,-4.1902 10.64152,-7.848 0.57751,-1.1285 0.57975,-1.1209 0.3936,1.34 -0.3348,4.426 -0.68201,5.6825 -2.00526,7.2567 -1.13977,1.3559 -2.39524,1.9863 -5.16864,2.5952 -2.191,0.4811 -2.26462,0.5541 -1.06472,1.0559 1.78302,0.7456 3.49337,1.0372 4.92277,0.8393 l 0.75212,-0.1041 -0.58221,1.2609 c -1.39475,3.0205 -3.43272,5.7842 -5.74071,7.7851 l -1.02056,0.8847 m -24.38962,0.01 -1.34475,-1.1992 c -1.50531,-1.3424 -2.93461,-2.8624 -4.15909,-4.423 -1.14757,-1.4625 -1.24388,-1.5921 -1.56228,-2.1012 l -0.28261,-0.452 m 84.37756,-40.2485 c 2.01953,1.3635 5.82508,4.8859 7.77626,7.1977 0.1694,0.2007 0.34564,0.3432 0.39164,0.3167 0.15201,-0.088 -0.37479,-2.15 -0.80468,-3.15 -0.5567,-1.295 -1.25619,-2.4929 -2.25043,-3.8537 -1.36147,-1.8634 -1.3432,-1.562 -0.16434,-2.7106 1.20667,-1.1758 2.4896,-2.7099 3.31791,-3.9674 0.32875,-0.4991 0.59003,-0.9209 0.58059,-0.9372 -0.009,-0.016 -0.56245,0.4077 -1.22893,0.9423 -1.53822,1.2339 -5.86735,3.7735 -7.78438,4.5666 -0.85075,0.3519 -1.23155,0.5547 -1.18036,0.6285 0.0416,0.06 0.64757,0.4951 1.34672,0.9671 z m 6.16164,27.5045 c 2.42412,2.0925 4.95279,3.4794 7.63471,4.1874 1.92464,0.5082 3.14267,0.623 5.58632,0.5269 1.86924,-0.074 2.73945,-0.012 6.12304,0.4354 2.95483,0.3904 4.65614,0.6734 6.61664,1.1003 l 1.54402,0.3362 -0.31581,-0.3847 c -4.73067,-5.7626 -9.2479,-9.2142 -17.54905,-13.4093 l -2.23691,-1.1305 -0.29918,0.5222 c -0.83466,1.457 -2.11423,2.6194 -5.52071,5.0154 -1.35874,0.9557 -2.48712,1.79 -2.50753,1.8541 -0.0204,0.064 0.3956,0.4901 0.92446,0.9466 z m -17.21697,-14.6086 c 0.11176,-0.9759 0.47406,-1.9322 1.04181,-2.75 0.45328,-0.6529 0.64009,-0.8204 1.39451,-1.2505 1.01202,-0.577 1.55025,-0.6738 2.55258,-0.459 1.33089,0.2852 2.27207,1.1193 3.30415,2.928 1.01337,1.776 1.31963,3.3078 0.91298,4.5665 -0.27839,0.8617 -0.68296,1.2835 -1.74153,1.8156 -1.05204,0.5288 -2.31016,0.6668 -3.47528,0.3811 l -0.74212,-0.1819 0.20553,0.356 c 0.5329,0.9229 2.23468,2.5183 3.34459,3.1354 1.59428,0.8864 3.2934,1.0699 4.36673,0.4716 1.01524,-0.5659 1.90738,-2.2958 2.15886,-4.1863 0.40842,-3.07 -0.35906,-6.2038 -2.26296,-9.2403 -1.48609,-2.3702 -3.11166,-3.89 -5.28708,-4.9432 -1.00908,-0.4886 -2.97372,-1.0419 -3.97742,-1.1202 l -0.6961,-0.054 -1.19073,1.6747 c -1.19777,1.6846 -2.06655,3.0726 -2.22202,3.5501 -0.14702,0.4516 0.64267,2.7176 1.65417,4.7465 l 0.58833,1.1802 z m -20.59826,-3.0876 0.83591,1.2904 c 0.45975,0.7097 1.3477,2.1029 1.97325,3.096 l 1.13733,1.8057 0.0262,0.7067 c 0.0144,0.3887 0.0102,0.8676 -0.01,1.0643 l -0.0357,0.3575 0.3813,-0.3232 c 0.6125,-0.5192 1.24817,-1.3443 1.39061,-1.8051 l 0.13198,-0.427 -1.97716,-3.4245 -1.97716,-3.4246 m 47.68174,-27.529 0.62736,1.266 c 0.80416,1.6229 0.98701,2.1534 1.19146,3.4573 0.32332,2.0621 -0.0595,4.5977 -0.97899,6.4844 l -0.40731,0.8358 0.32194,0.7233 c 1.64261,3.6905 1.74487,5.6879 0.44857,8.7609 -0.32004,0.7587 -1.46647,2.8435 -2.08394,3.7897 l -0.38771,0.5942 1.50072,0.4023 c 1.20372,0.3227 1.69994,0.5349 2.50725,1.0722 0.5536,0.3685 1.1567,0.8734 1.34025,1.1221 l 0.33372,0.4521 -1.52269,0.9633 c -1.40132,0.8865 -2.73415,1.9992 -3.05588,2.5513 -0.0724,0.1242 0.22592,0.2299 1.09361,0.3873 1.4684,0.2663 2.83347,0.7568 4.67346,1.6793 8.17378,4.0979 16.19824,14.463 18.66248,24.1062 0.64771,2.5346 0.9609,5.1978 0.64701,5.5018 -0.50978,0.4939 -1.39104,0.04 -2.97467,-1.532 -2.44731,-2.4294 -4.71005,-3.8736 -8.23228,-5.2545 -3.68972,-1.4465 -7.78789,-2.199 -15.68499,-2.88 -3.97191,-0.3425 -6.28637,-0.687 -7.32662,-1.0905 -1.03124,-0.4 -4.00217,-2.3942 -4.9871,-3.3476 -1.06922,-1.0349 -2.3608,-3.2689 -2.83253,-4.8994 -0.17563,-0.607 -0.34919,-1.1117 -0.38567,-1.1215 -0.0365,-0.01 -0.76953,0.585 -1.62898,1.3218 -4.54252,3.894 -8.3818,6.3357 -11.18112,7.111 -1.67564,0.4641 -3.26817,0.3774 -4.32821,-0.2356 -0.2813,-0.1627 -1.13406,-0.783 -1.89501,-1.3785 -3.02645,-2.3685 -5.76296,-4.0908 -8.81561,-5.5483 -0.94334,-0.4504 -2.25199,-1.0813 -2.9081,-1.4019 -1.35659,-0.6629 -2.45202,-1.448 -2.33189,-1.6713 0.0422,-0.078 0.81032,-0.5743 1.70695,-1.102 1.61271,-0.9491 3.21605,-2.0561 3.73975,-2.582 0.18396,-0.1848 -0.29925,0.024 -1.51066,0.6543 -4.14906,2.1569 -6.87676,3.0629 -8.24557,2.7388 -0.64553,-0.1529 -0.98978,-0.4539 -2.10977,-1.845 -0.43753,-0.5434 -0.88023,-1.0857 -0.98378,-1.205 l -0.18826,-0.217 -16.93186,9.7756 c -9.65096,5.572 -16.90819,9.8166 -16.87682,9.871 0.12591,0.2181 2.44259,0.816 3.39486,0.8761 1.91421,0.121 3.92287,-0.2901 5.82989,-1.1931 2.0851,-0.9873 4.18424,-3.0747 5.18143,-5.1526 l 0.25317,-0.5275 0.82635,0.1921 c 1.04079,0.242 3.2375,0.083 4.84343,-0.35 4.86888,-1.3134 8.76961,-4.1902 10.64152,-7.848 0.57751,-1.1285 0.57975,-1.1209 0.3936,1.34 -0.33479,4.426 -0.682,5.6825 -2.00526,7.2567 -1.13977,1.3559 -2.39524,1.9863 -5.16864,2.5952 -2.191,0.4811 -2.26462,0.5541 -1.06472,1.0559 1.78302,0.7456 3.49337,1.0372 4.92277,0.8393 l 0.75213,-0.1041 -0.58222,1.2609 c -1.39475,3.0205 -3.43272,5.7842 -5.74071,7.7851 l -1.02056,0.8847 m -24.38962,0.01 -1.34475,-1.1992 c -1.50531,-1.3424 -2.9346,-2.8624 -4.15909,-4.423 -1.14756,-1.4625 -1.24387,-1.5921 -1.56227,-2.1012 l -0.28262,-0.452 m 58.3576,-33.6928 0.78554,1.3195 c 1.21196,2.0357 2.15441,3.0821 2.87568,3.1926 0.13941,0.021 1.23396,-0.011 2.43232,-0.073 1.19836,-0.061 2.46,-0.1043 2.80364,-0.095 0.414,0.011 0.59636,-0.031 0.54051,-0.1237 -0.17142,-0.2857 -1.09697,-0.8567 -2.34494,-1.4467 -1.5767,-0.7454 -2.06807,-1.2088 -3.25593,-3.0711 l -0.89399,-1.4016 m 40.98241,-23.6612 -0.78276,-1.1764 c -1.00332,-1.5078 -1.37139,-1.9314 -2.39839,-2.7604 -1.62416,-1.3111 -4.01147,-2.2474 -6.10511,-2.3944 l -0.92744,-0.065 -0.46546,-0.6405 c -2.37477,-3.2678 -4.05345,-4.3551 -7.36288,-4.7689 -0.81705,-0.1022 -3.19578,-0.1518 -4.32397,-0.09 l -0.70838,0.039 0.40195,-1.5009 c 0.3224,-1.2038 0.38672,-1.7396 0.32503,-2.7074 -0.0423,-0.6637 -0.17804,-1.4385 -0.30163,-1.7218 l -0.22469,-0.515 -1.59556,0.837 c -1.46839,0.7703 -3.09849,1.3682 -3.7374,1.3708 -0.14386,7e-4 -0.0862,-0.3106 0.21138,-1.1407 0.50357,-1.4048 0.76131,-2.8323 0.88242,-4.887 0.53796,-9.1277 -4.42629,-21.2596 -11.54536,-28.2153 -1.87122,-1.8282 -4.02095,-3.431 -4.44122,-3.3112 -0.68257,0.1946 -0.73012,1.1847 -0.16055,3.3422 0.88022,3.334 0.9996,6.0158 0.43437,9.7566 -0.59213,3.9186 -1.98955,7.844 -5.34833,15.0235 -1.68933,3.6111 -2.54823,5.7877 -2.71891,6.8904 -0.1692,1.093 0.0724,4.663 0.40552,5.9927 0.36164,1.4434 1.65057,3.679 2.82675,4.9027 0.4379,0.4557 0.7882,0.8583 0.77842,0.8948 -0.01,0.037 -0.89141,0.3739 -1.95919,0.7498 -5.64357,1.987 -9.67779,4.091 -11.74886,6.1277 -1.23971,1.2191 -1.9609,2.6416 -1.96007,3.8661 2.5e-4,0.325 0.11106,1.3736 0.24632,2.3304 0.53792,3.8052 0.6612,7.0362 0.39715,10.4087 -0.0816,1.0421 -0.1896,2.4909 -0.23999,3.2194 -0.1042,1.5063 0.028,2.8475 0.28143,2.8551 0.089,0 0.90256,-0.4146 1.80787,-0.9272 1.62833,-0.9221 3.38867,-1.7571 4.10596,-1.9477 0.25198,-0.067 -0.17088,0.2468 -1.32199,0.9811 -3.94249,2.5147 -6.09097,4.4239 -6.49464,5.7715 -0.19037,0.6354 -0.10178,1.0841 0.54292,2.7496 0.25186,0.6506 0.50012,1.3051 0.55169,1.4544 l 0.0938,0.2716 -16.93186,9.7756 c -9.65096,5.572 -16.95553,9.7346 -16.9869,9.6803 -0.12591,-0.2181 0.51464,-2.5234 0.93866,-3.3781 0.85235,-1.7183 2.21267,-3.2523 3.94819,-4.4523 1.89757,-1.3121 4.75494,-2.0863 7.05301,-1.911 l 0.58342,0.045 0.24681,-0.8117 c 0.31084,-1.0223 1.54668,-2.8453 2.72482,-4.0195 3.57193,-3.5598 8.01364,-5.4996 12.11738,-5.2918 1.26606,0.064 1.26059,0.058 -0.96369,-1.0109 -4.00046,-1.9231 -5.26222,-2.2506 -7.28714,-1.8917 -1.74415,0.3091 -2.91781,1.0811 -4.83185,3.1785 -1.5121,1.657 -1.61214,1.6842 -1.44674,0.3942 0.24578,-1.917 0.8484,-3.544 1.73447,-4.6829 l 0.46623,-0.5993 -1.38304,-0.1263 c -3.31322,-0.3023 -6.72567,0.081 -9.61245,1.0791 l -1.27649,0.4414 m -12.20151,21.1182 0.36617,1.7642 c 0.40988,1.9748 1.01156,3.9726 1.75085,5.8134 0.69282,1.725 0.75685,1.8732 1.0386,2.4036 l 0.2501,0.4707 m 77.04495,-52.9489 c -0.17099,-2.4307 -1.31872,-7.4876 -2.34524,-10.3333 -0.0891,-0.247 -0.1244,-0.4709 -0.0784,-0.4975 0.152,-0.088 1.67449,1.3996 2.32561,2.2719 0.84316,1.1296 1.53076,2.3343 2.21213,3.8757 0.93304,2.1108 0.68115,1.9443 2.26536,1.4977 1.62157,-0.4571 3.59157,-0.8011 5.09478,-0.8897 0.59664,-0.035 1.09251,-0.051 1.10195,-0.034 0.009,0.016 -0.63433,0.2832 -1.43056,0.5931 -1.83771,0.7152 -6.20163,3.1945 -7.84694,4.4582 -0.73017,0.5608 -1.09617,0.7892 -1.1345,0.708 -0.0311,-0.066 -0.10501,-0.8084 -0.1642,-1.6499 z m -20.73773,-19.1017 c -0.60012,-3.1456 -0.53688,-6.0289 0.19091,-8.7055 0.52228,-1.9209 1.03183,-3.0332 2.33692,-5.1014 0.99831,-1.582 1.37984,-2.3665 2.68442,-5.5204 1.13928,-2.7542 1.74494,-4.369 2.35548,-6.2803 l 0.48083,-1.5053 0.17525,0.4659 c 2.62519,6.9782 3.35578,12.616 2.83829,21.9026 l -0.13946,2.5024 -0.60184,0 c -1.67909,-0.01 -3.32558,0.5213 -7.10379,2.2734 -1.50701,0.6989 -2.79379,1.2589 -2.85949,1.2445 -0.0657,-0.014 -0.2266,-0.5876 -0.35752,-1.2739 z m 4.04294,22.2147 c 0.901,0.3911 1.9104,0.5555 2.90245,0.4727 0.79204,-0.066 1.03053,-0.1441 1.78025,-0.5824 1.00571,-0.5879 1.35865,-1.0057 1.67379,-1.9811 0.41843,-1.2952 0.16672,-2.5273 -0.88367,-4.3255 -1.03138,-1.7656 -2.20483,-2.7967 -3.49821,-3.0739 -0.88545,-0.1898 -1.45302,-0.05 -2.44311,0.6004 -0.984,0.6467 -1.73255,1.6673 -2.06771,2.8191 l -0.21348,0.7337 -0.20553,-0.356 c -0.53289,-0.923 -1.06363,-3.1945 -1.04309,-4.4642 0.0295,-1.8239 0.72014,-3.3871 1.77493,-4.0175 0.99772,-0.5963 2.94197,-0.5039 4.70488,0.2235 2.86294,1.1813 5.19318,3.4129 6.8709,6.58 1.30954,2.472 1.81299,4.6397 1.63741,7.0503 -0.0814,1.1182 -0.58458,3.0963 -1.0186,4.0047 l -0.301,0.63 -2.04566,0.1938 c -2.05776,0.1951 -3.69421,0.2534 -4.18547,0.1493 -0.46459,-0.098 -2.03216,-1.9153 -3.28357,-3.8058 l -0.72788,-1.0996 z m -7.62519,19.3824 -0.69955,-1.3691 c -0.38476,-0.753 -1.14735,-2.2186 -1.69466,-3.2569 l -0.9951,-1.8878 -0.59893,-0.3761 c -0.32941,-0.2068 -0.74628,-0.4426 -0.92639,-0.5239 l -0.32747,-0.1479 0.47054,-0.1686 c 0.75587,-0.2708 1.78831,-0.4088 2.25861,-0.3017 l 0.43573,0.099 1.97715,3.4245 1.97716,3.4245 m 47.68174,-27.529 -0.78276,-1.1764 c -1.00332,-1.5078 -1.37139,-1.9314 -2.39839,-2.7604 -1.62416,-1.3111 -4.01147,-2.2474 -6.10511,-2.3944 l -0.92744,-0.065 -0.46546,-0.6405 c -2.37477,-3.2678 -4.05345,-4.3551 -7.36288,-4.7689 -0.81705,-0.1022 -3.19578,-0.1518 -4.32397,-0.09 l -0.70838,0.039 0.40195,-1.5009 c 0.3224,-1.2038 0.38672,-1.7396 0.32503,-2.7074 -0.0423,-0.6637 -0.17804,-1.4385 -0.30163,-1.7218 l -0.22469,-0.515 -1.59556,0.837 c -1.46839,0.7703 -3.09849,1.3682 -3.7374,1.3708 -0.14386,7e-4 -0.0862,-0.3106 0.21138,-1.1407 0.50357,-1.4048 0.76131,-2.8323 0.88242,-4.887 0.53796,-9.1277 -4.42629,-21.2596 -11.54536,-28.2153 -1.87122,-1.8282 -4.02095,-3.431 -4.44122,-3.3112 -0.68257,0.1946 -0.73012,1.1847 -0.16055,3.3422 0.88022,3.334 0.9996,6.0158 0.43437,9.7566 -0.59213,3.9186 -1.98955,7.844 -5.34833,15.0235 -1.68933,3.6111 -2.54823,5.7877 -2.71891,6.8904 -0.1692,1.093 0.0724,4.663 0.40552,5.9927 0.36164,1.4434 1.65057,3.679 2.82675,4.9027 0.4379,0.4557 0.7882,0.8583 0.77842,0.8948 -0.01,0.037 -0.89141,0.3739 -1.95919,0.7498 -5.64357,1.987 -9.67779,4.091 -11.74886,6.1277 -1.23971,1.2191 -1.9609,2.6416 -1.96007,3.8661 2.5e-4,0.325 0.11106,1.3736 0.24632,2.3304 0.53792,3.8052 0.6612,7.0362 0.39715,10.4087 -0.0816,1.0421 -0.1896,2.4909 -0.23999,3.2194 -0.1042,1.5063 0.028,2.8475 0.28143,2.8551 0.089,0 0.90256,-0.4146 1.80787,-0.9272 1.62833,-0.9221 3.38867,-1.7571 4.10596,-1.9477 0.25198,-0.067 -0.17088,0.2468 -1.32199,0.9811 -3.94249,2.5147 -6.09097,4.4239 -6.49464,5.7715 -0.19037,0.6354 -0.10178,1.0841 0.54292,2.7496 0.25186,0.6506 0.50012,1.3051 0.55169,1.4544 l 0.0938,0.2716 -16.93186,9.7756 c -9.65096,5.572 -16.95553,9.7346 -16.9869,9.6803 -0.12591,-0.2181 0.51464,-2.5234 0.93866,-3.3781 0.85235,-1.7183 2.21267,-3.2523 3.94819,-4.4523 1.89757,-1.3121 4.75494,-2.0863 7.05301,-1.911 l 0.58342,0.045 0.24681,-0.8117 c 0.31084,-1.0223 1.54668,-2.8453 2.72482,-4.0195 3.57193,-3.5598 8.01364,-5.4996 12.11738,-5.2918 1.26606,0.064 1.26059,0.058 -0.96369,-1.0109 -4.00046,-1.9231 -5.26222,-2.2506 -7.28714,-1.8917 -1.74415,0.3091 -2.91781,1.0811 -4.83185,3.1785 -1.5121,1.657 -1.61214,1.6842 -1.44674,0.3942 0.24578,-1.917 0.8484,-3.544 1.73447,-4.6829 l 0.46623,-0.5993 -1.38304,-0.1263 c -3.31322,-0.3023 -6.72567,0.081 -9.61245,1.0791 l -1.27649,0.4414 m -12.20151,21.1182 0.36617,1.7642 c 0.40988,1.9748 1.01156,3.9726 1.75085,5.8134 0.69282,1.725 0.75685,1.8732 1.0386,2.4036 l 0.2501,0.4707 m 58.35759,-33.6928 -0.74991,-1.34 c -1.15703,-2.0675 -1.59193,-3.4068 -1.32703,-4.0867 0.0512,-0.1315 0.62689,-1.0629 1.27932,-2.07 0.65243,-1.0071 1.32028,-2.0783 1.48412,-2.3805 0.1974,-0.3641 0.32472,-0.5012 0.37741,-0.4063 0.16172,0.2913 0.19346,1.3784 0.0804,2.7542 -0.14285,1.7381 0.0129,2.3954 1.03171,4.3553 l 0.76682,1.475 m -75.71572,-91.0369 1.41012,0.09 c 1.80748,0.115 2.35839,0.222 3.58983,0.6968 1.9475,0.7511 3.952,2.3504 5.12614,4.0901 l 0.52012,0.7706 0.7874,0.083 c 4.01738,0.4228 5.79833,1.3329 7.81146,3.992 0.497,0.6565 1.7293,2.6918 2.24002,3.6996 l 0.32068,0.6329 1.09877,-1.0986 c 0.88131,-0.8811 1.31321,-1.2047 2.18223,-1.6352 0.5959,-0.2952 1.33473,-0.565 1.64186,-0.5996 l 0.55841,-0.063 0.0729,1.8004 c 0.0671,1.6568 0.36432,3.3674 0.68152,3.9221 0.0714,0.1248 0.3121,-0.081 0.88223,-0.7535 0.96483,-1.1385 2.07214,-2.0754 3.79102,-3.2077 7.63583,-5.0297 20.62453,-6.7965 30.20784,-4.109 2.51893,0.7063 4.98186,1.7667 5.08824,2.1905 0.17278,0.6884 -0.66092,1.2247 -2.81413,1.8102 -3.32752,0.9047 -5.70965,2.1422 -8.66664,4.5021 -3.0976,2.4721 -5.79836,5.645 -10.33665,12.1436 -2.28259,3.2685 -3.73815,5.1006 -4.60773,5.7998 -0.86204,0.693 -4.07454,2.2688 -5.39261,2.6452 -1.43087,0.4085 -4.01138,0.41 -5.65927,0 -0.61355,-0.1514 -1.13739,-0.2535 -1.1641,-0.2268 -0.0267,0.027 0.12188,0.959 0.33021,2.0717 1.10105,5.8809 1.29599,10.4267 0.56774,13.2386 -0.43592,1.6832 -1.30726,3.019 -2.36814,3.6305 -0.28153,0.1623 -1.24512,0.5907 -2.14133,0.9519 -3.56436,1.4368 -6.42417,2.9455 -9.21276,4.8604 -0.86174,0.5918 -2.06239,1.4097 -2.6681,1.8176 -1.2524,0.8433 -2.48004,1.3995 -2.61333,1.1838 -0.0468,-0.076 -0.0922,-0.9889 -0.10092,-2.0293 -0.0156,-1.8712 -0.17262,-3.8132 -0.36622,-4.5297 -0.068,-0.2517 -0.12836,0.2714 -0.18867,1.6354 -0.20657,4.6717 -0.78578,7.4869 -1.75092,8.5103 -0.45516,0.4826 -0.888,0.6302 -2.6527,0.9046 -0.68939,0.1072 -1.38034,0.2195 -1.53546,0.2495 l -0.28202,0.054 0,19.5513 c 0,11.1439 0.0473,19.5512 0.11008,19.5512 0.25182,0 1.92795,-1.7074 2.4562,-2.502 1.06186,-1.5972 1.71019,-3.5423 1.8817,-5.6454 0.18752,-2.2993 -0.57071,-5.161 -1.87158,-7.0635 l -0.33026,-0.483 0.57955,-0.6196 c 0.72994,-0.7804 1.69083,-2.7622 2.11861,-4.3695 1.29695,-4.8733 0.75596,-9.6898 -1.47586,-13.1399 -0.68855,-1.0644 -0.68084,-1.0625 1.35729,0.3291 3.66566,2.503 4.58021,3.4319 5.28188,5.365 0.60437,1.6651 0.52257,3.0675 -0.33679,5.7738 -0.6789,2.138 -0.65248,2.2383 0.38202,1.45 1.53724,-1.1713 2.64497,-2.5067 3.1883,-3.8436 l 0.28589,-0.7034 0.80083,1.1347 c 1.91847,2.7181 3.29295,5.8649 3.87173,8.8641 l 0.25594,1.3262 m -12.18812,21.1259 -1.71091,0.565 c -1.91519,0.6324 -3.94617,1.1103 -5.90994,1.3904 -1.84039,0.2625 -2.00073,0.2812 -2.60088,0.3023 l -0.53271,0.019 m 7.33261,-93.1973 c 2.19053,-1.0673 7.1438,-2.6018 10.1215,-3.1356 0.25852,-0.046 0.47004,-0.1278 0.47004,-0.1809 0,-0.1755 -2.04928,-0.7504 -3.13031,-0.8781 -1.39985,-0.1654 -2.78695,-0.1585 -4.46255,0.022 -2.29452,0.2474 -2.02436,0.3823 -2.4297,-1.213 -0.41491,-1.6329 -1.10197,-3.511 -1.77688,-4.8571 -0.26787,-0.5342 -0.50248,-0.9714 -0.52134,-0.9714 -0.0189,0 0.0719,0.691 0.20163,1.5355 0.29948,1.9491 0.33427,6.968 0.0626,9.0247 -0.12059,0.9128 -0.13539,1.3439 -0.0459,1.3365 0.0727,-0.01 0.7526,-0.3132 1.51093,-0.6827 z m 26.90038,8.4161 c 3.02423,-1.0531 5.48967,-2.5496 7.44379,-4.5182 1.40235,-1.4127 2.11084,-2.4101 3.24939,-4.5744 0.87092,-1.6556 1.35962,-2.3783 3.43862,-5.085 1.81555,-2.3638 2.91122,-3.6957 4.26117,-5.1801 l 1.06318,-1.169 -0.49106,0.081 c -7.35585,1.2156 -12.60366,3.4018 -20.38732,8.4933 l -2.09746,1.372 0.30267,0.5202 c 0.84442,1.4513 1.21134,3.1407 1.58307,7.2887 0.14827,1.6546 0.30666,3.049 0.35197,3.0987 0.0453,0.05 0.62219,-0.098 1.28198,-0.3273 z m -21.25992,7.606 c -0.78925,-0.5847 -1.43633,-1.3767 -1.86064,-2.2772 -0.33876,-0.719 -0.39044,-0.9646 -0.38574,-1.833 0.006,-1.1649 0.19161,-1.6794 0.8788,-2.4401 0.91245,-1.0099 2.10535,-1.408 4.18782,-1.3974 2.04474,0.01 3.52445,0.511 4.41119,1.4926 0.60706,0.6719 0.77005,1.2332 0.70157,2.416 -0.068,1.1755 -0.57761,2.334 -1.40756,3.2002 l -0.52864,0.5517 0.41105,0 c 1.06578,0 3.29831,-0.6761 4.38768,-1.3288 1.56477,-0.9374 2.57326,-2.3172 2.59179,-3.5458 0.0175,-1.1622 -1.03459,-2.7998 -2.54601,-3.9628 -2.45452,-1.8887 -5.55224,-2.791 -9.13387,-2.6604 -2.79562,0.1019 -4.92463,0.7498 -6.92448,2.1071 -0.92764,0.6296 -2.38914,2.0544 -2.95883,2.8845 l -0.39509,0.5756 0.85492,1.8686 c 0.86,1.8796 1.62767,3.326 1.96346,3.6993 0.31757,0.3532 2.67483,0.8023 4.93773,0.9408 l 1.31623,0.08 z m -12.97307,16.2948 1.53546,-0.079 c 0.8445,-0.043 2.49506,-0.1157 3.6679,-0.1609 l 2.13243,-0.082 0.62513,0.3307 c 0.34382,0.1819 0.75643,0.425 0.91691,0.5403 l 0.29179,0.2097 -0.0892,-0.4918 c -0.14336,-0.7901 -0.54013,-1.7531 -0.86799,-2.1069 l -0.30376,-0.3278 -3.95431,0 -3.95431,0 m 0,-55.0581 1.41012,0.09 c 1.80748,0.115 2.35839,0.222 3.58983,0.6968 1.9475,0.7511 3.952,2.3504 5.12614,4.0901 l 0.52012,0.7706 0.7874,0.083 c 4.01738,0.4228 5.79833,1.3329 7.81146,3.992 0.497,0.6565 1.7293,2.6918 2.24002,3.6996 l 0.32068,0.6329 1.09877,-1.0986 c 0.88131,-0.8811 1.31321,-1.2047 2.18223,-1.6352 0.5959,-0.2952 1.33473,-0.565 1.64186,-0.5996 l 0.55841,-0.063 0.0729,1.8004 c 0.0671,1.6568 0.36432,3.3674 0.68152,3.9221 0.0714,0.1248 0.3121,-0.081 0.88223,-0.7535 0.96483,-1.1385 2.07214,-2.0754 3.79102,-3.2077 7.63583,-5.0297 20.62453,-6.7965 30.20784,-4.109 2.51893,0.7063 4.98186,1.7667 5.08824,2.1905 0.17278,0.6884 -0.66092,1.2247 -2.81413,1.8102 -3.32752,0.9047 -5.70965,2.1422 -8.66664,4.5021 -3.0976,2.4721 -5.79836,5.645 -10.33665,12.1436 -2.28259,3.2685 -3.73815,5.1006 -4.60773,5.7998 -0.86204,0.693 -4.07454,2.2688 -5.39261,2.6452 -1.43087,0.4085 -4.01138,0.41 -5.65927,0 -0.61355,-0.1514 -1.13739,-0.2535 -1.1641,-0.2268 -0.0267,0.027 0.12188,0.959 0.33021,2.0717 1.10105,5.8809 1.29599,10.4267 0.56774,13.2386 -0.43592,1.6832 -1.30726,3.019 -2.36814,3.6305 -0.28153,0.1623 -1.24512,0.5907 -2.14133,0.9519 -3.56436,1.4368 -6.42417,2.9455 -9.21276,4.8604 -0.86174,0.5918 -2.06239,1.4097 -2.6681,1.8176 -1.2524,0.8433 -2.48004,1.3995 -2.61333,1.1838 -0.0468,-0.076 -0.0922,-0.9889 -0.10092,-2.0293 -0.0156,-1.8712 -0.17262,-3.8132 -0.36622,-4.5297 -0.068,-0.2517 -0.12836,0.2714 -0.18867,1.6354 -0.20657,4.6717 -0.78578,7.4869 -1.75092,8.5103 -0.45516,0.4826 -0.888,0.6302 -2.6527,0.9046 -0.68939,0.1072 -1.38034,0.2195 -1.53546,0.2495 l -0.28202,0.054 0,19.5513 c 0,11.1439 0.0473,19.5512 0.11008,19.5512 0.25182,0 1.92795,-1.7074 2.4562,-2.502 1.06186,-1.5972 1.71019,-3.5423 1.8817,-5.6454 0.18752,-2.2993 -0.57071,-5.161 -1.87158,-7.0635 l -0.33026,-0.483 0.57955,-0.6196 c 0.72994,-0.7804 1.69083,-2.7622 2.11861,-4.3695 1.29695,-4.8733 0.75596,-9.6898 -1.47586,-13.1399 -0.68855,-1.0644 -0.68084,-1.0625 1.35729,0.3291 3.66566,2.503 4.58021,3.4319 5.28188,5.365 0.60437,1.6651 0.52257,3.0675 -0.33679,5.7738 -0.6789,2.138 -0.65248,2.2383 0.38202,1.45 1.53724,-1.1713 2.64497,-2.5067 3.1883,-3.8436 l 0.28589,-0.7034 0.80083,1.1347 c 1.91847,2.7181 3.29295,5.8649 3.87173,8.8641 l 0.25594,1.3262 m -12.18812,21.1259 -1.71091,0.565 c -1.91519,0.6324 -3.94617,1.1103 -5.90994,1.3904 -1.84039,0.2625 -2.00073,0.2812 -2.60088,0.3023 l -0.53271,0.019 m 0,-67.3855 1.53546,-0.021 c 2.36898,-0.032 3.74634,-0.3248 4.20272,-0.8941 0.0882,-0.1101 0.60705,-1.0744 1.15299,-2.1429 0.54593,-1.0686 1.13971,-2.1826 1.31951,-2.4756 0.21661,-0.353 0.27164,-0.5318 0.16312,-0.5299 -0.33315,0.01 -1.29044,0.5216 -2.42535,1.3074 -1.43387,0.9928 -2.08094,1.1866 -4.28765,1.2841 l -1.6608,0.073 m 0,-47.3224 -1.41012,0.09 c -1.80748,0.115 -2.3584,0.222 -3.58984,0.6968 -1.94749,0.7511 -3.95199,2.3504 -5.12613,4.0901 l -0.52012,0.7706 -0.7874,0.083 c -4.01739,0.4228 -5.79833,1.3329 -7.81146,3.992 -0.497,0.6565 -1.7293,2.6918 -2.24002,3.6996 l -0.32068,0.6329 -1.09877,-1.0986 c -0.88131,-0.8811 -1.31321,-1.2047 -2.18223,-1.6352 -0.5959,-0.2952 -1.33473,-0.565 -1.64186,-0.5996 l -0.55842,-0.063 -0.0729,1.8004 c -0.0671,1.6568 -0.36432,3.3674 -0.68152,3.9221 -0.0714,0.1248 -0.3121,-0.081 -0.88223,-0.7535 -0.96483,-1.1385 -2.07214,-2.0754 -3.79103,-3.2077 -7.63582,-5.0297 -20.62452,-6.7965 -30.20783,-4.109 -2.51893,0.7063 -4.98186,1.7667 -5.08824,2.1905 -0.17278,0.6884 0.66091,1.2247 2.81413,1.8102 3.32751,0.9047 5.70965,2.1422 8.66664,4.5021 3.09759,2.4721 5.79836,5.645 10.33665,12.1436 2.28259,3.2685 3.73815,5.1006 4.60773,5.7998 0.86204,0.693 4.07454,2.2688 5.39261,2.6452 1.43087,0.4085 4.01138,0.41 5.65927,0 0.61355,-0.1514 1.13739,-0.2535 1.1641,-0.2268 0.0267,0.027 -0.12189,0.959 -0.33021,2.0717 -1.10105,5.8809 -1.29599,10.4267 -0.56774,13.2386 0.43592,1.6832 1.30726,3.019 2.36814,3.6305 0.28152,0.1623 1.24512,0.5907 2.14133,0.9519 3.56436,1.4368 6.42416,2.9455 9.21276,4.8604 0.86174,0.5918 2.06239,1.4097 2.6681,1.8176 1.2524,0.8433 2.48004,1.3995 2.61333,1.1838 0.0468,-0.076 0.0922,-0.9889 0.10092,-2.0293 0.0156,-1.8712 0.17262,-3.8132 0.36622,-4.5297 0.068,-0.2517 0.12836,0.2714 0.18867,1.6354 0.20656,4.6717 0.78578,7.4869 1.75092,8.5103 0.45515,0.4826 0.888,0.6302 2.6527,0.9046 0.68939,0.1072 1.38034,0.2195 1.53546,0.2495 l 0.28202,0.054 0,19.5513 c 0,11.1439 -0.0473,19.5512 -0.11009,19.5512 -0.25181,0 -1.92794,-1.7074 -2.45619,-2.502 -1.06186,-1.5972 -1.71019,-3.5423 -1.8817,-5.6454 -0.18752,-2.2993 0.57071,-5.161 1.87158,-7.0635 l 0.33026,-0.483 -0.57956,-0.6196 c -0.72993,-0.7804 -1.69082,-2.7622 -2.1186,-4.3695 -1.29695,-4.8733 -0.75596,-9.6898 1.47586,-13.1399 0.68855,-1.0644 0.68084,-1.0625 -1.35729,0.3291 -3.66566,2.503 -4.58021,3.4319 -5.28188,5.365 -0.60437,1.6651 -0.52257,3.0675 0.33679,5.7738 0.6789,2.138 0.65248,2.2383 -0.38202,1.45 -1.53724,-1.1713 -2.64497,-2.5067 -3.1883,-3.8436 l -0.28589,-0.7034 -0.80083,1.1347 c -1.91847,2.7181 -3.29295,5.8649 -3.87173,8.8641 l -0.25594,1.3262 m 12.18811,21.1259 1.71092,0.565 c 1.91519,0.6324 3.94617,1.1103 5.90994,1.3904 1.84039,0.2625 2.00072,0.2812 2.60088,0.3023 l 0.53271,0.019 m -7.33261,-93.1973 c -2.19053,-1.0673 -7.1438,-2.6018 -10.1215,-3.1356 -0.25852,-0.046 -0.47004,-0.1278 -0.47004,-0.1809 0,-0.1755 2.04927,-0.7504 3.13031,-0.8781 1.39985,-0.1654 2.78695,-0.1585 4.46255,0.022 2.29452,0.2474 2.02436,0.3823 2.4297,-1.213 0.41491,-1.6329 1.10197,-3.511 1.77688,-4.8571 0.26787,-0.5342 0.50248,-0.9714 0.52134,-0.9714 0.0189,0 -0.0719,0.691 -0.20163,1.5355 -0.29948,1.9491 -0.33427,6.968 -0.0626,9.0247 0.12059,0.9128 0.13539,1.3439 0.0459,1.3365 -0.0727,-0.01 -0.75259,-0.3132 -1.51092,-0.6827 z m -26.90038,8.4161 c -3.02423,-1.0531 -5.48968,-2.5496 -7.44379,-4.5182 -1.40235,-1.4127 -2.11084,-2.4101 -3.2494,-4.5744 -0.87091,-1.6556 -1.35961,-2.3783 -3.43861,-5.085 -1.81555,-2.3638 -2.91122,-3.6957 -4.26117,-5.1801 l -1.06319,-1.169 0.49106,0.081 c 7.35586,1.2156 12.60367,3.4018 20.38733,8.4933 l 2.09746,1.372 -0.30267,0.5202 c -0.84442,1.4513 -1.21134,3.1407 -1.58307,7.2887 -0.14828,1.6546 -0.30666,3.049 -0.35197,3.0987 -0.0453,0.05 -0.62219,-0.098 -1.28198,-0.3273 z m 21.25992,7.606 c 0.78925,-0.5847 1.43633,-1.3767 1.86064,-2.2772 0.33876,-0.719 0.39044,-0.9646 0.38574,-1.833 -0.006,-1.1649 -0.19161,-1.6794 -0.8788,-2.4401 -0.91245,-1.0099 -2.10536,-1.408 -4.18782,-1.3974 -2.04474,0.01 -3.52445,0.511 -4.41119,1.4926 -0.60706,0.6719 -0.77005,1.2332 -0.70158,2.416 0.0681,1.1755 0.57762,2.334 1.40757,3.2002 l 0.52864,0.5517 -0.41105,0 c -1.06578,0 -3.29831,-0.6761 -4.38768,-1.3288 -1.56477,-0.9374 -2.57326,-2.3172 -2.59179,-3.5458 -0.0175,-1.1622 1.03458,-2.7998 2.54601,-3.9628 2.45452,-1.8887 5.55224,-2.791 9.13387,-2.6604 2.79562,0.1019 4.92463,0.7498 6.92448,2.1071 0.92764,0.6296 2.38914,2.0544 2.95883,2.8845 l 0.39509,0.5756 -0.85493,1.8686 c -0.85999,1.8796 -1.62766,3.326 -1.96346,3.6993 -0.31756,0.3532 -2.67482,0.8023 -4.93772,0.9408 l -1.31623,0.08 z m 12.97307,16.2948 -1.53546,-0.079 c -0.8445,-0.043 -2.49506,-0.1157 -3.6679,-0.1609 l -2.13244,-0.082 -0.62512,0.3307 c -0.34382,0.1819 -0.75643,0.425 -0.91691,0.5403 l -0.29179,0.2097 0.0892,-0.4918 c 0.14336,-0.7901 0.54012,-1.7531 0.86799,-2.1069 l 0.30376,-0.3278 3.95431,0 3.95431,0 m 0,-55.0581 -1.41012,0.09 c -1.80748,0.115 -2.3584,0.222 -3.58984,0.6968 -1.94749,0.7511 -3.95199,2.3504 -5.12613,4.0901 l -0.52012,0.7706 -0.7874,0.083 c -4.01739,0.4228 -5.79833,1.3329 -7.81146,3.992 -0.497,0.6565 -1.7293,2.6918 -2.24002,3.6996 l -0.32068,0.6329 -1.09877,-1.0986 c -0.88131,-0.8811 -1.31321,-1.2047 -2.18223,-1.6352 -0.5959,-0.2952 -1.33473,-0.565 -1.64186,-0.5996 l -0.55842,-0.063 -0.0729,1.8004 c -0.0671,1.6568 -0.36432,3.3674 -0.68152,3.9221 -0.0714,0.1248 -0.3121,-0.081 -0.88223,-0.7535 -0.96483,-1.1385 -2.07214,-2.0754 -3.79103,-3.2077 -7.63582,-5.0297 -20.62452,-6.7965 -30.20783,-4.109 -2.51893,0.7063 -4.98186,1.7667 -5.08824,2.1905 -0.17278,0.6884 0.66091,1.2247 2.81413,1.8102 3.32751,0.9047 5.70965,2.1422 8.66664,4.5021 3.09759,2.4721 5.79836,5.645 10.33665,12.1436 2.28259,3.2685 3.73815,5.1006 4.60773,5.7998 0.86204,0.693 4.07454,2.2688 5.39261,2.6452 1.43087,0.4085 4.01138,0.41 5.65927,0 0.61355,-0.1514 1.13739,-0.2535 1.1641,-0.2268 0.0267,0.027 -0.12189,0.959 -0.33021,2.0717 -1.10105,5.8809 -1.29599,10.4267 -0.56774,13.2386 0.43592,1.6832 1.30726,3.019 2.36814,3.6305 0.28152,0.1623 1.24512,0.5907 2.14133,0.9519 3.56436,1.4368 6.42416,2.9455 9.21276,4.8604 0.86174,0.5918 2.06239,1.4097 2.6681,1.8176 1.2524,0.8433 2.48004,1.3995 2.61333,1.1838 0.0468,-0.076 0.0922,-0.9889 0.10092,-2.0293 0.0156,-1.8712 0.17262,-3.8132 0.36622,-4.5297 0.068,-0.2517 0.12836,0.2714 0.18867,1.6354 0.20656,4.6717 0.78578,7.4869 1.75092,8.5103 0.45515,0.4826 0.888,0.6302 2.6527,0.9046 0.68939,0.1072 1.38034,0.2195 1.53546,0.2495 l 0.28202,0.054 0,19.5513 c 0,11.1439 -0.0473,19.5512 -0.11009,19.5512 -0.25181,0 -1.92794,-1.7074 -2.45619,-2.502 -1.06186,-1.5972 -1.71019,-3.5423 -1.8817,-5.6454 -0.18752,-2.2993 0.57071,-5.161 1.87158,-7.0635 l 0.33026,-0.483 -0.57956,-0.6196 c -0.72993,-0.7804 -1.69082,-2.7622 -2.1186,-4.3695 -1.29695,-4.8733 -0.75596,-9.6898 1.47586,-13.1399 0.68855,-1.0644 0.68084,-1.0625 -1.35729,0.3291 -3.66566,2.503 -4.58021,3.4319 -5.28188,5.365 -0.60437,1.6651 -0.52257,3.0675 0.33679,5.7738 0.6789,2.138 0.65248,2.2383 -0.38202,1.45 -1.53724,-1.1713 -2.64497,-2.5067 -3.1883,-3.8436 l -0.28589,-0.7034 -0.80083,1.1347 c -1.91847,2.7181 -3.29295,5.8649 -3.87173,8.8641 l -0.25594,1.3262 m 12.18811,21.1259 1.71092,0.565 c 1.91519,0.6324 3.94617,1.1103 5.90994,1.3904 1.84039,0.2625 2.00072,0.2812 2.60088,0.3023 l 0.53271,0.019 m 0,-67.3855 -1.53546,-0.021 c -2.36898,-0.032 -3.74634,-0.3248 -4.20272,-0.8941 -0.0882,-0.1101 -0.60705,-1.0744 -1.15299,-2.1429 -0.54593,-1.0686 -1.13972,-2.1826 -1.31951,-2.4756 -0.21661,-0.353 -0.27164,-0.5318 -0.16312,-0.5299 0.33314,0.01 1.29043,0.5216 2.42534,1.3074 1.43388,0.9928 2.08095,1.1866 4.28766,1.2841 l 1.6608,0.073"
     inkscape:connector-curvature="0" />
</svg>
