<?xml version="1.0" encoding="UTF-8" standalone="no"?>
<!-- Created with Inkscape (http://www.inkscape.org/) -->

<svg
   xmlns:dc="http://purl.org/dc/elements/1.1/"
   xmlns:cc="http://creativecommons.org/ns#"
   xmlns:rdf="http://www.w3.org/1999/02/22-rdf-syntax-ns#"
   xmlns:svg="http://www.w3.org/2000/svg"
   xmlns="http://www.w3.org/2000/svg"
   xmlns:sodipodi="http://sodipodi.sourceforge.net/DTD/sodipodi-0.dtd"
   xmlns:inkscape="http://www.inkscape.org/namespaces/inkscape"
   id="svg2"
   version="1.1"
   inkscape:version="0.91 r"
   xml:space="preserve"
   width="765"
   height="990"
   viewBox="0 0 765 990"
   sodipodi:docname="snowflake-stormtrooper.svg"><metadata
     id="metadata8"><rdf:RDF><cc:Work
         rdf:about=""><dc:format>image/svg+xml</dc:format><dc:type
           rdf:resource="http://purl.org/dc/dcmitype/StillImage" /><dc:title /></cc:Work></rdf:RDF></metadata><defs
     id="defs6"><clipPath
       clipPathUnits="userSpaceOnUse"
       id="clipPath20"><path
         d="M 0,792 612,792 612,0 0,0 0,792 Z"
         id="path22"
         inkscape:connector-curvature="0" /></clipPath><clipPath
       clipPathUnits="userSpaceOnUse"
       id="clipPath130"><path
         d="M 0,792 612,792 612,0 0,0 0,792 Z"
         id="path132"
         inkscape:connector-curvature="0" /></clipPath><clipPath
       clipPathUnits="userSpaceOnUse"
       id="clipPath146"><path
         d="M 0,792 612,792 612,0 0,0 0,792 Z"
         id="path148"
         inkscape:connector-curvature="0" /></clipPath></defs><sodipodi:namedview
     pagecolor="#ffffff"
     bordercolor="#666666"
     borderopacity="1"
     objecttolerance="10"
     gridtolerance="10"
     guidetolerance="10"
     inkscape:pageopacity="0"
     inkscape:pageshadow="2"
     inkscape:window-width="1600"
     inkscape:window-height="843"
     id="namedview4"
     showgrid="false"
     inkscape:snap-bbox="false"
     inkscape:object-nodes="true"
     inkscape:snap-center="true"
     showguides="true"
     inkscape:guide-bbox="true"
     inkscape:object-paths="true"
     inkscape:zoom="2.2579103"
     inkscape:cx="191.64185"
     inkscape:cy="315.34528"
     inkscape:window-x="0"
     inkscape:window-y="0"
     inkscape:window-maximized="1"
     inkscape:current-layer="g10"><inkscape:grid
       type="xygrid"
       id="grid4335" /><sodipodi:guide
       position="389.76378,513.77953"
       orientation="0,1"
       id="guide4341" /><sodipodi:guide
       position="372.04724,478.34646"
       orientation="1,0"
       id="guide4343" /></sodipodi:namedview><g
     id="g10"
     inkscape:groupmode="layer"
     inkscape:label="snowflake-stormtrooper"
     transform="matrix(1.25,0,0,-1.25,0,990)"><path
       inkscape:connector-curvature="0"
       d="m 104.44362,321.98825 c -0.2201,-0.82141 0.98159,-1.70018 1.6493,-2.05545 0.66783,-0.35475 8.21517,-3.16907 11.12996,-1.48622 2.91514,1.68305 1.47089,8.99261 -0.0297,8.86704 -3.09543,-0.16814 -12.20002,-3.27433 -12.7496,-5.32536 m 20.98106,-29.20825 c 0.92549,-1.60301 2.97542,-2.15228 4.57842,-1.22679 1.60334,0.92571 2.15262,2.97562 1.22713,4.57862 -0.92569,1.60335 -2.97562,2.15262 -4.57896,1.22693 -1.603,-0.92549 -2.15227,-2.97542 -1.22659,-4.57876 m 5.99142,9.63102 c 0.26482,-0.38307 0.79826,2.45608 0.49941,4.46266 -1.25117,1.34902 -3.0682,0.24562 -3.0682,0.24562 0,0 -0.38051,-3.09036 -0.50749,-4.66751 0.80632,0.40933 2.81126,0.34263 3.07628,-0.0408 m 0.87623,6.59091 c 0.26481,-0.38307 0.79861,2.45628 0.49957,4.46322 -1.25098,1.34867 -3.06801,0.24526 -3.06801,0.24526 0,0 -0.3805,-3.09036 -0.50749,-4.6675 0.80598,0.40913 2.81126,0.34263 3.07593,-0.041 m -22.57191,36.50144 c 3.50255,-2.31238 9.0344,-10.42011 11.0767,-13.4209 1.19041,-0.31868 5.05457,-1.64853 6.64312,-3.59554 1.58835,-1.94668 2.05854,-6.78399 2.19753,-8.09705 1.64831,-0.44165 7.43549,-2.28676 8.27349,-3.73824 0.83781,-1.45112 1.44484,-7.06121 -0.62153,-11.65993 1.46106,-1.32398 2.35991,-9.70637 -4.01795,-17.02701 l 2.01105,-3.48326 c 0,0 4.62141,3.05551 5.97937,3.4522 1.35776,0.39701 2.28489,-0.61195 2.28489,-0.61195 m -4.1e-4,-7.83993 c 0,0 -3.27459,2.81043 -4.28397,3.30142 2.25108,-2.79292 4.28434,-6.33954 4.28434,-6.33954 m -11.42929,5.01078 c 0.29071,1.08602 -1.95639,4.25977 -2.10301,4.5137 -2.34562,-1.35425 -5.57556,-4.02207 -7.46515,-0.7492 l -2.36792,-1.36712 -2.36792,-1.36711 c 1.88959,-3.27287 -2.03578,-4.73618 -4.3814,-6.09043 0.1466,-0.25392 1.7716,-3.78684 2.85747,-4.0781 1.4251,-0.72519 7.8927,-0.86171 10.26028,0.50521 2.36757,1.36692 5.48312,7.03628 5.56765,8.63305 z m -10.88583,24.21308 c -6.63643,1.23822 -10.12961,1.38895 -11.74201,0.45803 l -1.62599,-0.93878 -1.62598,-0.93876 c -1.61241,-0.93091 -3.22847,-4.03146 -5.47435,-10.39788 -1.189742,2.06069 -0.51232,12.36004 4.75403,15.40057 5.26634,3.04053 14.52456,-1.52248 15.7143,-3.58318 z m -11.51145,39.83586 c -3.50276,2.31271 -15.569481,0.29964 -22.872132,-3.91654 C 79.54571,337.37065 71.768994,327.92709 72.02048,323.73726 m 23.003091,-7.18772 c 0.821388,-0.22009 0.981591,-1.70018 0.955417,-2.45605 -0.0267,-0.75575 -1.363081,-8.6991 -4.277875,-10.38195 -2.915141,-1.68305 -8.523277,3.22248 -7.664264,4.45919 1.693335,2.59667 8.93568,8.92838 10.986713,8.3788 m 14.804548,-32.77425 c 0.92549,-1.603 0.37622,-3.65293 -1.22678,-4.57842 -1.60335,-0.92569 -3.65327,-0.37641 -4.57877,1.22658 -0.92569,1.60335 -0.37641,3.65327 1.22693,4.57897 1.603,0.92548 3.65293,0.37621 4.57862,-1.22713 m -11.336413,-0.37321 c 0.199339,-0.42088 -2.52616,0.53673 -4.114498,1.79882 -0.542682,1.75806 1.321395,2.77995 1.321395,2.77995 0,0 2.866589,-1.21565 4.29593,-1.89425 -0.75766,-0.49364 -1.70236,-2.2633 -1.502818,-2.68452 m -6.14602,2.53661 c 0.199334,-0.42087 -2.526509,0.53653 -4.115053,1.79898 -0.542485,1.7577 1.321602,2.7796 1.321602,2.7796 0,0 2.866584,-1.21565 4.295925,-1.89426 -0.757312,-0.49343 -1.702354,-2.2633 -1.502476,-2.68432 m 23.094156,-0.6832 c -0.46431,-0.26809 -2.19893,-0.85297 -3.41651,-0.1148 -2.32179,1.40714 -2.38034,11.70697 -0.10369,13.02141 2.27666,1.31442 11.16734,-3.88621 11.22503,-6.6005 0.0305,-1.42353 -1.34335,-2.63332 -1.80767,-2.90139 l -2.94858,-1.70237 z m -34.319318,29.88021 c 0,0 0.661881,-2.01759 1.164645,-2.8884 3.530787,3.47082 13.835859,9.41998 15.506779,10.38469 1.670919,0.9647 11.975594,6.91458 16.746794,8.23692 -0.50276,0.87082 -1.91911,2.45282 -1.91911,2.45282 0,0 -9.68929,-3.27194 -16.755079,-7.35138 C 88.798759,321.8909 81.120522,315.13569 81.120522,315.13569 Z M 55.925864,248.83054 c 0.601309,-0.6013 1.963198,0 2.604725,0.40061 0.641129,0.40099 6.852085,5.53001 6.852087,8.89573 -2e-6,3.36611 -7.052388,5.77013 -7.693911,4.40784 -1.402111,-2.7648 -3.264352,-12.20271 -1.762896,-13.70417 m 35.785612,3.56601 c 1.850986,0 3.351632,1.50066 3.351642,3.35164 -1e-5,1.85138 -1.500657,3.35204 -3.351639,3.35204 -1.851384,0 -3.352039,-1.50066 -3.352035,-3.35204 10e-7,-1.85098 1.500653,-3.35164 3.352032,-3.35164 m -5.344995,10.00423 c 0.464154,0.0378 -1.727904,1.91935 -3.615082,2.66385 -1.793866,-0.40906 -1.746807,-2.53434 -1.746807,-2.53434 0,0 2.486075,-1.87471 3.788439,-2.77325 0.04866,0.90297 1.108895,2.60593 1.573446,2.64374 m -5.269782,4.0543 c 0.464154,0.0378 -1.727905,1.91976 -3.615485,2.66425 -1.793463,-0.40906 -1.7464,-2.53434 -1.7464,-2.53434 0,0 2.486067,-1.87471 3.788431,-2.77325 0.04867,0.90256 1.108895,2.60594 1.573451,2.64334 m -42.897125,-1.29715 c 3.753842,1.87713 13.541273,2.61398 17.161182,2.88225 0.871192,0.8716 3.954955,3.55315 6.435397,3.95536 2.480037,0.40221 6.904372,-1.60925 8.111009,-2.1454 1.206631,1.20664 5.698137,5.29593 7.374154,5.29592 1.675617,10e-6 6.837607,-2.27932 9.787029,-6.36821 1.877125,0.60331 9.585916,-2.80946 12.736849,-11.99316 l 4.022118,-10e-6 c 0,0 -0.33544,5.53002 0,6.90437 0.33504,1.37436 1.66952,1.66771 1.66952,1.66771 0,0 -0.41311,1.30229 0.6096,2.27963 1.02251,0.97769 5.97937,3.45219 5.97937,3.45219 l -2.01106,3.48326 c -9.52879,-1.86306 -16.338736,3.10657 -16.754811,5.03386 -5.015792,0.50983 -9.570749,3.84057 -10.408555,5.29171 -0.838011,1.45146 0.457666,7.38586 0.899329,9.03416 -1.067641,0.77691 -5.021786,3.60276 -5.91348,5.95164 -0.891894,2.34924 -0.111488,6.36062 0.207741,7.55089 -1.577623,3.26907 -5.8332,12.11366 -6.084484,16.30315 m 35.26746,-64.35508 c 3.5443,0.55304 7.62955,0.53556 7.62955,0.53556 0,0 -2.05767,3.52916 -3.35086,6.87512 -0.0795,-1.11966 0.71977,-5.35606 0.71977,-5.35606 0,0 -4.06853,-1.42596 -4.99846,-2.05462 z m -2.42171,-6.85209 c -0.79518,0.79478 -4.66728,0.43559 -4.960485,0.4356 0,-2.70849 0.695425,-6.83962 -3.083753,-6.83962 l -9e-6,-2.73423 9e-6,-2.73424 c 3.779168,-1e-5 3.083753,-4.13113 3.083753,-6.83962 0.293215,0 4.165305,-0.35918 4.960475,0.4356 1.34058,0.87159 4.69262,6.40442 4.69261,9.13826 0,2.73384 -3.35203,8.26666 -4.6926,9.13825 z m -26.412062,2.67914 c -4.390548,-5.12821 -6.267672,-8.07803 -6.267673,-9.93987 l -3e-6,-1.87752 2e-6,-1.87753 c -2e-6,-1.86184 1.877123,-4.81167 6.267671,-9.93988 -2.379483,1e-5 -10.960283,5.73636 -10.96028,11.81741 10e-7,6.08103 8.580791,11.81738 10.960283,11.81739 z m -40.254596,9.94871 c -3.75425,-1.87712 -8.044244,-13.33374 -8.04424,-21.7661 2e-6,-8.43238 4.28999,-19.889 8.044239,-21.76611 m 17.726293,16.32739 c 0.601306,0.6013 1.963198,0 2.604724,-0.4006 0.641133,-0.40099 6.852086,-5.53002 6.852087,-8.89573 -2e-6,-3.36611 -7.052388,-5.77013 -7.69391,-4.40785 -1.402113,2.76481 -3.264359,12.20271 -1.762898,13.70417 m 35.785614,-3.56601 c 1.850981,0 3.351632,-1.50065 3.351632,-3.35163 0,-1.85139 -1.50065,-3.35204 -3.351631,-3.35204 -1.851389,0 -3.352036,1.50066 -3.352033,3.35204 -6e-6,1.85098 1.500651,3.35163 3.352032,3.35163 m -5.344999,-10.00422 c 0.464155,-0.0378 -1.727902,-1.91935 -3.615081,-2.66386 -1.793864,0.40906 -1.746804,2.53435 -1.746804,2.53435 0,0 2.486072,1.8747 3.788439,2.77324 0.04866,-0.90295 1.108895,-2.60592 1.573446,-2.64373 m -5.269785,-4.0543 c 0.46416,-0.0378 -1.727894,-1.91976 -3.615481,-2.66425 -1.793464,0.40905 -1.746403,2.53434 -1.746403,2.53434 0,0 2.486072,1.8747 3.78843,2.77324 0.04868,-0.90255 1.108904,-2.60592 1.573454,-2.64333 m -42.89712,1.29714 c 3.753844,-1.87713 13.541275,-2.61398 17.161184,-2.88225 0.871187,-0.8716 3.954952,-3.55314 6.435392,-3.95536 2.480042,-0.40221 6.904371,1.60925 8.111013,2.1454 1.206629,-1.20663 5.698135,-5.29593 7.374155,-5.29592 1.67561,0 6.837599,2.27933 9.787023,6.36822 1.877121,-0.60332 9.585924,2.80945 12.736857,11.99316 l 4.022109,0 c 0,0 -0.33543,-5.53001 0,-6.90438 0.33504,-1.37436 1.67241,-1.6728 1.67241,-1.6728 m 6.78937,3.92031 c 0,0 -4.0712,1.43067 -5.0011,2.05933 3.54428,-0.55305 7.63236,-0.54058 7.63236,-0.54058 m 21.73675,12.54983 -12.30045,3.98109 12.29766,3.97617 -2.70527,12.63812 9.59795,-8.66195 M 93.235495,239.98705 c -10e-7,-0.53615 -0.360781,-2.33082 -1.608846,-3.01619 -2.379491,-1.30719 -11.328708,3.79205 -11.328709,6.42092 10e-7,2.62885 8.949219,7.7281 11.328702,6.42092 1.248067,-0.68539 1.608853,-2.48006 1.608857,-3.0162 l -5e-6,-3.40473 z M 50.198799,225.20576 c 0,0 2.078231,-0.4356 3.083763,-0.4356 -1.240427,4.79315 -1.240024,16.6922 -1.240023,18.62161 0,1.92941 -3.99e-4,13.82846 1.240022,18.62162 -1.005531,0 -3.08376,-0.43559 -3.08376,-0.43559 0,0 -2.011062,-10.02715 -2.011067,-18.18603 3e-6,-8.15887 2.011065,-18.18601 2.011065,-18.18601 z m 44.824616,-54.97167 c 0.821406,0.2201 0.9816,1.70017 0.955435,2.45606 -0.0267,0.75573 -1.363091,8.69908 -4.277883,10.38194 -2.915143,1.68305 -8.523278,-3.22249 -7.664268,-4.4592 1.693334,-2.59666 8.935678,-8.92836 10.986716,-8.37879 m 14.804545,32.77426 c 0.92548,1.60299 0.3762,3.65292 -1.22678,4.57841 -1.60335,0.9257 -3.65328,0.37642 -4.57877,-1.22659 -0.92568,-1.60334 -0.37641,-3.65326 1.22694,-4.57895 1.60298,-0.92549 3.65291,-0.37622 4.57861,1.22713 m -11.336411,0.3732 c 0.199313,0.42089 -2.526159,-0.53673 -4.114499,-1.79882 -0.542693,-1.75806 1.321396,-2.77995 1.321396,-2.77995 0,0 2.86659,1.21565 4.295921,1.89425 -0.757641,0.49366 -1.702351,2.2633 -1.502818,2.68452 m -6.146012,-2.53662 c 0.199308,0.42089 -2.526513,-0.53653 -4.115058,-1.79897 -0.542485,-1.75771 1.321597,-2.7796 1.321597,-2.7796 0,0 2.866593,1.21565 4.295935,1.89425 -0.757297,0.49346 -1.702356,2.2633 -1.502474,2.68432 M 72.020316,163.04638 c 0.251293,4.18948 4.506874,13.03407 6.084495,16.30315 -0.319227,1.19026 -1.099634,5.20165 -0.207742,7.55088 0.891693,2.34889 4.845844,5.17474 5.913481,5.95164 -0.441666,1.6483 -1.737343,7.58271 -0.899333,9.03418 0.837808,1.45112 5.39277,4.78187 10.408558,5.2917 0.416072,1.9273 7.226015,6.89692 16.754805,5.03385 l 2.01107,3.48326 c 0,0 -4.95686,2.47451 -5.97937,3.45219 -1.0227,0.97733 -0.61249,2.28473 -0.61249,2.28473 m 6.78977,3.91962 c 0,0 -0.7966,-4.24109 -0.71713,-5.36074 1.29321,3.34596 3.34805,6.88011 3.34805,6.88011 m 1.37518,-12.40343 c -1.08588,-0.29126 -2.71087,-3.82418 -2.85748,-4.07811 2.34563,-1.35424 6.271,-2.81755 4.3814,-6.09042 l 2.36791,-1.36712 2.36793,-1.36712 c 1.8896,3.27288 5.11954,0.60505 7.46516,-0.74919 0.1466,0.25393 2.39371,3.42769 2.10301,4.5137 -0.0845,1.59677 -3.20009,7.26614 -5.56767,8.63306 -2.36756,1.36691 -8.83515,1.23037 -10.26026,0.5052 z m -15.52623,-21.53396 c 2.24588,-6.36642 3.86195,-9.46696 5.47434,-10.39788 l 1.62599,-0.93876 1.62599,-0.93876 c 1.6124,-0.93093 5.10558,-0.7802 11.742,0.45802 -1.18974,-2.06071 -10.44795,-6.62371 -15.7143,-3.58318 -5.26633,3.04052 -5.943775,13.33987 -4.75402,15.40056 z M 72.020295,163.04643 c -0.251491,-4.18983 7.525222,-13.63339 14.827874,-17.84957 7.302659,-4.21619 19.369381,-6.22925 22.872131,-3.91654 m -5.2768,23.51511 c -0.22009,0.8214 0.9816,1.70018 1.6493,2.05546 0.66785,0.35474 8.21517,3.16908 11.12997,1.48622 2.91513,-1.68305 1.47088,-8.99261 -0.0297,-8.86704 -3.09544,0.16813 -12.20002,3.27433 -12.74961,5.32536 m 20.98106,29.20825 c 0.9255,1.60299 2.97542,2.15228 4.57843,1.22678 1.60334,-0.92568 2.15262,-2.97562 1.22713,-4.57861 -0.92569,-1.60335 -2.97563,-2.15263 -4.57897,-1.22693 -1.60299,0.92549 -2.15227,2.97541 -1.22659,4.57876 m 5.99142,-9.63101 c 0.26485,0.38305 0.79826,-2.45608 0.49942,-4.46268 -1.25118,-1.34901 -3.0682,-0.24561 -3.0682,-0.24561 0,0 -0.38052,3.09036 -0.50749,4.66751 0.80634,-0.40931 2.81125,-0.34263 3.07627,0.0408 m 0.87624,-6.59091 c 0.26483,0.38304 0.7986,-2.4563 0.49956,-4.46324 -1.25097,-1.34866 -3.06801,-0.24526 -3.06801,-0.24526 0,0 -0.3805,3.09036 -0.50748,4.6675 0.80599,-0.4091 2.81125,-0.34262 3.07593,0.041 m -10.95541,20.34173 c 0.46432,-0.26808 1.83816,-1.47785 1.80768,-2.90139 -0.0577,-2.71429 -8.94837,-7.91493 -11.22503,-6.60049 -2.27666,1.31442 -2.21812,11.6143 0.10368,13.02139 1.21758,0.73817 2.9522,0.15329 3.41652,-0.11478 l 2.94858,-1.70236 z m -8.71736,-44.66152 c 0,0 1.41635,1.582 1.91912,2.45282 -4.77122,1.32234 -15.075899,7.27221 -16.746809,8.23692 -1.67092,0.9647 -11.97599,6.91388 -15.506779,10.38469 -0.502763,-0.87082 -1.164645,-2.8884 -1.164645,-2.8884 0,0 7.678233,-6.75521 14.744019,-10.83464 7.065794,-4.07944 16.755094,-7.35139 16.755094,-7.35139 z m 70.01927,11.33336 c 0.22009,0.8214 -0.9816,1.70018 -1.6493,2.05546 -0.66782,0.35474 -8.21518,3.16907 -11.12996,1.48622 -2.91514,-1.68306 -1.47089,-8.99262 0.0296,-8.86705 3.09545,0.16814 12.20005,3.27434 12.74961,5.32537 m -20.98106,29.20825 c -0.92549,1.603 -2.97542,2.15227 -4.57842,1.22678 -1.60335,-0.92569 -2.15262,-2.97563 -1.22713,-4.57861 0.9257,-1.60335 2.97562,-2.15264 4.57897,-1.22693 1.60299,0.92549 2.15227,2.97541 1.22658,4.57876 m -5.99141,-9.63101 c -0.26482,0.38306 -0.79826,-2.45609 -0.49943,-4.46268 1.25119,-1.34902 3.06821,-0.24561 3.06821,-0.24561 0,0 0.38052,3.09036 0.50749,4.66751 -0.80632,-0.40934 -2.81125,-0.34264 -3.07627,0.0408 m -0.87623,-6.59092 c -0.26483,0.38307 -0.79861,-2.45629 -0.49958,-4.46323 1.25099,-1.34865 3.06801,-0.24526 3.06801,-0.24526 0,0 0.38051,3.09035 0.50749,4.6675 -0.80597,-0.40913 -2.81125,-0.34263 -3.07592,0.041 m 22.5719,-36.50144 c -3.50256,2.31237 -9.0344,10.42011 -11.07669,13.4209 -1.19041,0.31867 -5.05459,1.64852 -6.64313,3.59553 -1.58835,1.94669 -2.05853,6.784 -2.19753,8.09705 -1.64831,0.44165 -7.43547,2.28677 -8.2735,3.73824 -0.8378,1.45113 -1.44483,7.06121 0.62154,11.65993 -1.46105,1.32398 -2.3599,9.70637 4.01796,17.02701 l -2.01106,3.48327 c 0,0 -4.62141,-3.05552 -5.97936,-3.45219 -1.35775,-0.39703 -2.27904,0.61199 -2.27904,0.61199 0,0 -0.92127,-1.00891 -2.27902,-0.61188 -1.35796,0.39667 -5.97937,3.45219 -5.97937,3.45219 l -2.01107,-3.48327 c 6.37787,-7.32064 5.47903,-15.70304 4.01797,-17.02702 2.06637,-4.59871 1.45934,-10.2088 0.62153,-11.65993 -0.83801,-1.45147 -6.62519,-3.29658 -8.2735,-3.73824 -0.13899,-1.31304 -0.60918,-6.15036 -2.19752,-8.09704 -1.58855,-1.94702 -5.45271,-3.27686 -6.64313,-3.59553 -2.04229,-3.00079 -7.57415,-11.10854 -11.0767,-13.42089 m 38.0994,62.72005 c -2.25109,2.79293 -4.27858,6.3396 -4.27858,6.3396 0,0 -2.02752,-3.54655 -4.27859,-6.33949 1.00939,0.491 4.27858,3.30137 4.27858,3.30137 0,0 3.2692,-2.81047 4.27859,-3.30148 z m 7.14494,1.32878 c -0.29071,-1.08603 1.9564,-4.25977 2.103,-4.5137 2.34563,1.35425 5.57557,4.02206 7.46516,0.74919 l 2.36792,1.36712 2.36792,1.36711 c -1.88958,3.27287 2.03578,4.73618 4.3814,6.09043 -0.14659,0.25394 -1.77159,3.78686 -2.85747,4.07812 -1.4251,0.72518 -7.8927,0.86169 -10.26027,-0.50522 -2.36757,-1.36692 -5.48313,-7.03628 -5.56766,-8.63305 z m 10.88583,-24.21309 c 6.63643,-1.23822 10.12961,-1.38894 11.74202,-0.45802 l 1.62598,0.93876 1.62598,0.93876 c 1.61241,0.93092 3.22847,4.03147 5.47435,10.3979 1.18974,-2.0607 0.51232,-12.36006 -4.75403,-15.40059 -5.26633,-3.04052 -14.52455,1.52251 -15.7143,3.58319 z m 11.51145,-39.83586 c 3.50277,-2.31271 15.56948,-0.29965 22.87213,3.91654 7.30266,4.2162 15.07937,13.65974 14.82789,17.84958 m -23.00308,7.18771 c -0.82141,0.2201 -0.9816,1.70018 -0.95544,2.45606 0.0267,0.75574 1.36308,8.69909 4.27788,10.38194 2.91514,1.68307 8.52328,-3.22246 7.66426,-4.45919 -1.69334,-2.59668 -8.93568,-8.92838 -10.9867,-8.37881 m -14.80456,32.77426 c -0.92549,1.603 -0.37622,3.65293 1.22678,4.57842 1.60335,0.92569 3.65328,0.37642 4.57877,-1.22658 0.92569,-1.60334 0.37641,-3.65328 -1.22693,-4.57896 -1.603,-0.9255 -3.65293,-0.37622 -4.57862,1.22712 m 11.33641,0.37321 c -0.19934,0.42087 2.52616,-0.53673 4.11451,-1.79883 0.54268,-1.75806 -1.3214,-2.77995 -1.3214,-2.77995 0,0 -2.86659,1.21565 -4.29593,1.89427 0.75766,0.49361 1.70235,2.26329 1.50281,2.68452 m 6.14601,-2.53662 c -0.19933,0.42087 2.52651,-0.53653 4.11506,-1.79897 0.54249,-1.75771 -1.32161,-2.77961 -1.32161,-2.77961 0,0 -2.86658,1.21566 -4.29592,1.89426 0.75731,0.49343 1.70236,2.2633 1.50248,2.68431 m 20.32522,-37.79856 c -0.25129,4.18948 -4.50686,13.03407 -6.08449,16.30314 0.31922,1.19027 1.09964,5.20166 0.20774,7.5509 -0.8917,2.34887 -4.84583,5.17473 -5.91348,5.95164 0.44166,1.64829 1.73734,7.58269 0.89933,9.03417 -0.83781,1.45112 -5.39277,4.78187 -10.40855,5.29169 -0.41607,1.92731 -7.22603,6.89693 -16.75481,5.03386 l -2.01106,3.48326 c 0,0 4.95685,2.4745 5.97936,3.45219 1.0227,0.97733 0.61248,2.28473 0.61248,2.28473 m -6.78977,3.91962 c 0,0 0.79661,-4.24109 0.71713,-5.36074 -1.2932,3.34596 -3.34804,6.88012 -3.34804,6.88012 m -21.73683,12.54966 2.70249,-12.64306 -9.5923,8.66202 -9.59229,-8.6619 2.70249,12.64304 m 34.99126,-37.89251 c 0.46431,0.26808 2.19894,0.85297 3.41651,0.11479 2.32178,-1.40714 2.38034,-11.70697 0.10367,-13.02141 -2.27665,-1.31442 -11.16732,3.88621 -11.22501,6.6005 -0.0305,1.42354 1.34335,2.63333 1.80767,2.9014 l 2.94857,1.70236 z m 34.31932,-29.88022 c 0,0 -0.66188,2.0176 -1.16464,2.88841 -3.53079,-3.47082 -13.83587,-9.41999 -15.50679,-10.3847 -1.67092,-0.9647 -11.97559,-6.91458 -16.7468,-8.23691 0.50276,-0.87082 1.91912,-2.45282 1.91912,-2.45282 0,0 9.6893,3.27194 16.75509,7.35138 7.06578,4.07943 14.74402,10.83464 14.74402,10.83464 z m 25.19455,66.30512 c -0.60131,0.6013 -1.9632,0 -2.60472,-0.40062 -0.64113,-0.40099 -6.85208,-5.53 -6.85208,-8.89571 -1e-5,-3.36611 7.05238,-5.77013 7.6939,-4.40785 1.40212,2.7648 3.26436,12.20271 1.76289,13.70417 m -35.78561,-3.56601 c -1.85097,0 -3.35163,-1.50066 -3.35163,-3.35164 0,-1.85138 1.50066,-3.35204 3.35164,-3.35203 1.85137,-1e-5 3.35203,1.50066 3.35203,3.35202 0,1.85099 -1.50066,3.35164 -3.35204,3.35165 m 5.34499,-10.00423 c -0.46414,-0.0378 1.72791,-1.91935 3.61509,-2.66385 1.79387,0.40905 1.7468,2.53435 1.7468,2.53435 0,0 -2.48606,1.8747 -3.78843,2.77324 -0.0487,-0.90296 -1.1089,-2.60593 -1.57346,-2.64374 m 5.26979,-4.05429 c -0.46415,-0.0378 1.7279,-1.91976 3.61549,-2.66426 1.79346,0.40905 1.7464,2.53435 1.7464,2.53435 0,0 -2.48608,1.87469 -3.78843,2.77325 -0.0487,-0.90258 -1.10891,-2.60594 -1.57345,-2.64335 m 42.89714,1.29713 c -3.75385,-1.87712 -13.54128,-2.61398 -17.16119,-2.88225 -0.8712,-0.87159 -3.95495,-3.55314 -6.43539,-3.95536 -2.48004,-0.40221 -6.90438,1.60925 -8.11102,2.14541 -1.20663,-1.20665 -5.69812,-5.29593 -7.37415,-5.29593 -1.67561,0 -6.8376,2.27934 -9.78703,6.36822 -1.87712,-0.60332 -9.58591,2.80945 -12.73685,11.99317 l -4.02212,0 c 0,0 0.33545,-5.53002 0,-6.90438 -0.33504,-1.37436 -1.6724,-1.6728 -1.6724,-1.6728 m -6.78937,3.9203 c 0,0 4.0712,1.43068 5.00111,2.05933 -3.54429,-0.55304 -7.63238,-0.54057 -7.63238,-0.54057 m 10.0541,7.39266 c 0.79517,-0.79478 4.66727,-0.4356 4.96048,-0.43559 0,2.70849 -0.69542,6.83961 3.08376,6.83961 l -1e-5,2.73424 1e-5,2.73423 c -3.77918,0 -3.08376,4.13113 -3.08376,6.83963 -0.29321,-1e-5 -4.16531,0.35916 -4.96048,-0.4356 -1.34057,-0.87159 -4.6926,-6.40443 -4.69261,-9.13826 0,-2.73384 3.35204,-8.26668 4.69261,-9.13826 z m 26.41206,-2.67914 c 4.39055,5.12821 6.26767,8.07803 6.26767,9.93987 l 0,1.87753 0,1.87752 c 0,1.86185 -1.87712,4.81167 -6.26767,9.93987 2.37949,0 10.96029,-5.73634 10.96028,-11.81739 1e-5,-6.08105 -8.58079,-11.81739 -10.96028,-11.8174 z m 40.2546,-9.94871 c 3.75425,1.87713 8.04424,13.33373 8.04424,21.7661 0,8.43238 -4.29,19.88899 -8.04425,21.76612 m -17.72629,-16.3274 c -0.6013,-0.60131 -1.9632,0 -2.60472,0.40061 -0.64114,0.40099 -6.85209,5.53 -6.85209,8.89571 1e-5,3.36612 7.05239,5.77015 7.69391,4.40785 1.40212,-2.76481 3.26437,-12.20272 1.7629,-13.70417 m -35.78561,3.56601 c -1.85098,1e-5 -3.35163,1.50066 -3.35164,3.35164 10e-6,1.85138 1.50066,3.35203 3.35164,3.35203 1.85139,0 3.35203,-1.50065 3.35203,-3.35204 0,-1.85098 -1.50064,-3.35162 -3.35203,-3.35163 m 5.34499,10.00422 c -0.46414,0.0378 1.72791,1.91936 3.61508,2.66385 1.79387,-0.40905 1.74681,-2.53433 1.74681,-2.53433 0,0 -2.48607,-1.87472 -3.78843,-2.77325 -0.0487,0.90296 -1.1089,2.60592 -1.57346,2.64373 m 5.26979,4.0543 c -0.46416,0.0378 1.7279,1.91976 3.61548,2.66426 1.79346,-0.40906 1.7464,-2.53434 1.7464,-2.53434 0,0 -2.48606,-1.87472 -3.78843,-2.77325 -0.0487,0.90256 -1.1089,2.60593 -1.57345,2.64333 m -12.13876,-19.65852 c 0,0.53615 0.36078,2.33082 1.60884,3.01619 2.3795,1.30719 11.32872,-3.79206 11.32871,-6.42091 1e-5,-2.62887 -8.94922,-7.7281 -11.32871,-6.42091 -1.24805,0.68538 -1.60884,2.48004 -1.60884,3.01618 l 0,3.40473 z m 43.03669,14.7813 c 0,0 -2.07823,0.43559 -3.08376,0.43559 1.24042,-4.79315 1.24002,-16.6922 1.24002,-18.62161 0,-1.92941 4.1e-4,-13.82846 -1.24002,-18.62161 1.00553,-1e-5 3.08376,0.43559 3.08376,0.43559 0,0 2.01106,10.02714 2.01106,18.18602 0,8.15887 -2.01106,18.18602 -2.01106,18.18602 z m -44.82462,54.97179 c -0.8214,-0.2201 -0.98159,-1.70017 -0.95543,-2.45606 0.0267,-0.75574 1.36309,-8.69908 4.27788,-10.38194 2.91515,-1.68306 8.52328,3.22248 7.66427,4.4592 -1.69334,2.59667 -8.93569,8.92838 -10.98672,8.3788 M 177.25429,283.7753 c -0.92549,-1.603 -0.37622,-3.65292 1.22679,-4.57842 1.60334,-0.92569 3.65327,-0.37642 4.57876,1.22659 0.9257,1.60334 0.37642,3.65327 -1.22693,4.57896 -1.603,0.9255 -3.65292,0.37622 -4.57862,-1.22713 m 11.33641,-0.37321 c -0.19931,-0.42088 2.52617,0.53673 4.11451,1.79884 0.54269,1.75805 -1.3214,2.77993 -1.3214,2.77993 0,0 -2.86658,-1.21564 -4.29592,-1.89425 0.75764,-0.49365 1.70235,-2.26329 1.50281,-2.68452 m 6.14601,2.53662 c -0.19931,-0.42089 2.52651,0.53653 4.11506,1.79897 0.54248,1.75771 -1.32159,2.77961 -1.32159,2.77961 0,0 -2.86659,-1.21565 -4.29593,-1.89426 0.75729,-0.49346 1.70235,-2.2633 1.50246,-2.68432 m 20.32522,37.79857 c -0.25129,-4.18949 -4.50687,-13.03408 -6.08448,-16.30315 0.31922,-1.19027 1.09963,-5.20166 0.20773,-7.55089 -0.89168,-2.34888 -4.84584,-5.17473 -5.91347,-5.95164 0.44166,-1.6483 1.73733,-7.5827 0.89933,-9.03417 -0.83781,-1.45112 -5.39277,-4.78188 -10.40856,-5.2917 -0.41607,-1.9273 -7.22602,-6.89693 -16.75482,-5.03386 l -2.01105,-3.48326 c 0,0 4.95686,-2.4745 5.97936,-3.45219 1.02272,-0.97732 0.60952,-2.27969 0.60952,-2.27969 0,0 1.33438,-0.29339 1.66943,-1.66775 0.33545,-1.37436 -1e-5,-6.90437 -1e-5,-6.90437 l 4.02213,-10e-6 c 3.15092,9.18371 10.85973,12.59648 12.73684,11.99318 2.94943,4.08888 8.11141,6.36821 9.78703,6.36821 1.67602,0 6.16752,-4.0893 7.37416,-5.29592 1.20664,0.53614 5.63097,2.54761 8.111,2.14539 2.48045,-0.40221 5.56421,-3.08376 6.43541,-3.95535 3.6199,-0.26828 13.40733,-1.00513 17.16117,-2.88225 m -73.36687,1.63502 c -1.2932,-3.34598 -3.35096,-6.87517 -3.35096,-6.87517 0,0 4.08517,0.0174 7.62946,-0.53562 -0.92992,0.62864 -4.99836,2.05468 -4.99836,2.05468 0,0 0.79934,4.23645 0.71986,5.35611 z m -4.72322,5.5233 c 1.08588,0.29126 2.71088,3.82418 2.85748,4.07811 -2.34563,1.35425 -6.27099,2.81755 -4.3814,6.09043 l -2.36792,1.36711 -2.36792,1.36712 c -1.8896,-3.27286 -5.11953,-0.60505 -7.46516,0.74919 -0.14661,-0.25392 -2.39371,-3.42767 -2.103,-4.5137 0.0845,-1.59676 3.20009,-7.26612 5.56765,-8.63304 2.36757,-1.36692 8.83516,-1.23039 10.26027,-0.50522 z m 15.52623,21.53395 c -2.24588,6.36643 -3.86194,9.46698 -5.47433,10.3979 l -1.626,0.93876 -1.62598,0.93877 c -1.6124,0.93092 -5.10559,0.78019 -11.74201,-0.45803 1.18974,2.06069 10.44796,6.6237 15.7143,3.58319 5.26634,-3.04052 5.94377,-13.33989 4.75402,-15.40059 z m 28.74314,29.88715 c 0.25149,4.18984 -7.52523,13.63338 -14.82788,17.84957 -7.30266,4.21619 -19.36937,6.22925 -22.87213,3.91654 m 5.2768,-23.51512 c 0.22009,-0.8214 -0.9816,-1.70017 -1.6493,-2.05545 -0.66784,-0.35474 -8.21516,-3.16907 -11.12996,-1.48622 -2.91514,1.68306 -1.47089,8.99261 0.0296,8.86704 3.09545,-0.16814 12.20004,-3.27434 12.74961,-5.32537 M 161.6576,292.78002 c -0.92549,-1.60299 -2.97542,-2.15227 -4.57842,-1.22678 -1.60334,0.92569 -2.15261,2.97562 -1.22712,4.57862 0.92569,1.60334 2.97561,2.15262 4.57896,1.22693 1.603,-0.92549 2.15227,-2.97541 1.22658,-4.57877 m -5.99141,9.63102 c -0.26484,-0.38305 -0.79826,2.45609 -0.49942,4.46268 1.25118,1.349 3.06821,0.2456 3.06821,0.2456 0,0 0.3805,-3.09034 0.50749,-4.6675 -0.80635,0.40931 -2.81125,0.34264 -3.07628,-0.0408 m -0.87623,6.59092 c -0.26484,-0.38306 -0.79861,2.45628 -0.49957,4.46323 1.25098,1.34865 3.06801,0.24526 3.06801,0.24526 0,0 0.3805,-3.09036 0.50749,-4.66752 -0.80601,0.40911 -2.81126,0.34263 -3.07593,-0.041 m 22.57191,36.50144 c -3.50256,-2.31236 -9.03441,-10.4201 -11.07669,-13.4209 -1.19042,-0.31867 -5.05459,-1.64851 -6.64314,-3.59553 -1.58834,-1.94667 -2.05853,-6.78399 -2.19753,-8.09705 -1.6483,-0.44166 -7.43547,-2.28677 -8.27348,-3.73824 -0.83781,-1.45112 -1.44485,-7.06121 0.62152,-11.65992 -1.46104,-1.32398 -2.3599,-9.70637 4.01796,-17.02702 l -2.01106,-3.48326 c 0,0 -4.62142,3.05551 -5.97936,3.45219 -1.35775,0.39702 -2.28489,-0.61195 -2.28489,-0.61195 m 4.7e-4,-7.8399 c 0,0 3.27459,2.81041 4.28397,3.30142 -2.25109,-2.79294 -4.28433,-6.33956 -4.28433,-6.33956 m 9e-5,-25.09948 9.59796,8.66195 -2.70538,-12.63817 12.29758,-3.97623 -12.30045,-3.98108 m 15.32025,49.24955 c -0.46433,0.26808 -1.83816,1.47786 -1.80768,2.9014 0.0577,2.7143 8.94838,7.91492 11.22503,6.6005 2.27666,-1.31443 2.21813,-11.61431 -0.10368,-13.0214 -1.21758,-0.73818 -2.95221,-0.15329 -3.41652,0.11478 l -2.94858,1.70236 z m 8.71736,44.66153 c 0,0 -1.41635,-1.58201 -1.91912,-2.45282 4.77122,-1.32234 15.0759,-7.27222 16.74681,-8.23693 1.67092,-0.9647 11.97599,-6.91387 15.50678,-10.38469 0.50276,0.87082 1.16465,2.88842 1.16465,2.88842 0,0 -7.67824,6.75519 -14.74403,10.83463 -7.06579,4.07944 -16.75509,7.35139 -16.75509,7.35139 z"
       style="fill:none;fill-opacity:1;fill-rule:nonzero;stroke:#00ff00;stroke-width:0.56692914;stroke-miterlimit:4;stroke-dasharray:none;stroke-opacity:1"
       id="path4373" /></g></svg>