<?xml version="1.0" encoding="UTF-8" standalone="no"?>
<!-- Created with Inkscape (http://www.inkscape.org/) -->

<svg
   xmlns:dc="http://purl.org/dc/elements/1.1/"
   xmlns:cc="http://creativecommons.org/ns#"
   xmlns:rdf="http://www.w3.org/1999/02/22-rdf-syntax-ns#"
   xmlns:svg="http://www.w3.org/2000/svg"
   xmlns="http://www.w3.org/2000/svg"
   xmlns:sodipodi="http://sodipodi.sourceforge.net/DTD/sodipodi-0.dtd"
   xmlns:inkscape="http://www.inkscape.org/namespaces/inkscape"
   id="svg7988"
   version="1.1"
   inkscape:version="0.91 r"
   width="500"
   height="1331"
   viewBox="0 0 500 1331"
   sodipodi:docname="snowflake-Death_Trooper-000.svg">
  <metadata
     id="metadata7994">
    <rdf:RDF>
      <cc:Work
         rdf:about="">
        <dc:format>image/svg+xml</dc:format>
        <dc:type
           rdf:resource="http://purl.org/dc/dcmitype/StillImage" />
        <dc:title />
      </cc:Work>
    </rdf:RDF>
  </metadata>
  <defs
     id="defs7992" />
  <sodipodi:namedview
     pagecolor="#ffffff"
     bordercolor="#666666"
     borderopacity="1"
     objecttolerance="10"
     gridtolerance="10"
     guidetolerance="10"
     inkscape:pageopacity="0"
     inkscape:pageshadow="2"
     inkscape:window-width="1600"
     inkscape:window-height="843"
     id="namedview7990"
     showgrid="false"
     inkscape:zoom="2.2056642"
     inkscape:cx="176.09616"
     inkscape:cy="839.07526"
     inkscape:window-x="0"
     inkscape:window-y="0"
     inkscape:window-maximized="1"
     inkscape:current-layer="svg7988"
     showguides="true"
     inkscape:guide-bbox="true"
     inkscape:object-nodes="true"
     inkscape:snap-center="true">
    <sodipodi:guide
       position="421.44342,70.57665"
       orientation="0,1"
       id="guide4133" />
    <sodipodi:guide
       position="421.44342,70.57665"
       orientation="1,0"
       id="guide4135" />
  </sodipodi:namedview>
  <path
     id="path4164"
     style="fill:none;stroke:#00ff00;stroke-opacity:1;stroke-width:0.70866142;stroke-miterlimit:4;stroke-dasharray:none"
     d="m 210.37159,533.45924 c 1.06367,1.422 2.92517,3.1248 4.24108,3.8796 1.70607,0.9785 3.95616,1.3491 5.76804,0.9498 1.10674,-0.2438 2.68371,-0.9727 3.47292,-1.6053 0.28311,-0.2269 0.54888,-0.4253 0.5906,-0.4408 0.0417,-0.015 1.49001,5.2314 3.21841,11.6599 1.72838,6.4286 3.22144,11.8086 3.31788,11.9557 0.12897,0.1967 0.35604,0.3097 0.85771,0.4267 0.61861,0.1444 8.18062,2.3426 11.23608,3.2663 l 1.24711,0.377 1.44657,2.8213 1.44656,2.8212 3.07133,1.7732 3.07132,1.7732 0.40517,-0.7017 c 0.32765,-0.5675 0.37194,-0.7357 0.23151,-0.8791 -0.0955,-0.097 -1.26632,-1.0774 -2.60181,-2.1776 l -2.42817,-2.0003 -0.64903,-3.025 c -0.44224,-2.061 -0.71927,-3.042 -0.86946,-3.0787 -0.12124,-0.03 -2.8137,-0.9356 -5.98325,-2.0134 -3.8779,-1.3186 -5.87647,-2.057 -6.11029,-2.2576 -0.27982,-0.24 -0.66331,-1.4776 -1.96908,-6.3543 -0.89189,-3.3309 -1.58638,-6.0611 -1.54335,-6.0673 0.043,-0.01 4.34792,0.4391 9.56638,0.9893 5.21848,0.5502 9.53323,0.9761 9.58836,0.9464 0.17169,-0.092 0.0836,-1.9669 -0.0939,-1.9972 -0.0924,-0.016 -4.75431,-1.2929 -10.35982,-2.838 l -10.19185,-2.8093 -0.33163,-0.9393 c -2.30962,-6.5412 -3.46836,-9.7676 -3.51857,-9.7971 -0.0336,-0.02 -0.92565,0.1974 -1.98248,0.4825 l -1.92151,0.5183 -0.22159,1.1228 c -0.3167,1.6046 -1.22076,3.2105 -2.14077,3.8027 -0.78882,0.5078 -2.14214,0.744 -3.22542,0.5629 -1.07941,-0.1804 -2.37633,-0.9244 -3.15837,-1.812 l -0.5754,-0.6531 -0.82344,0.1479 c -0.45289,0.081 -1.19847,0.2539 -1.65683,0.3835 l -0.83338,0.2357 z m 8.55625,-16.8115 -1.39357,2.4138 -1.39356,2.4137 -0.7154,0 c -2.5674,0.017 -4.64439,2.4677 -4.31163,5.088 0.33488,2.637 3.01921,4.4637 5.55938,3.783 2.86372,-0.7673 4.29367,-4.0094 2.86292,-6.4911 l -0.40934,-0.709 1.37905,-2.3976 1.37906,-2.3977 m 7.45237,4.3026 -0.40238,0.697 -0.40238,0.6969 0.65083,1.8094 0.65083,1.8095 2.98561,1.7266 2.98562,1.7266 1.02443,-1.7743 1.02443,-1.7744 m 4.96825,2.8684 -1.09273,1.8927 -1.09274,1.8926 8.74226,5.0474 8.74226,5.0473 1.63076,-0.2715 c 0.89691,-0.1493 1.70242,-0.3053 1.79002,-0.3466 0.0876,-0.041 0.38286,-0.4605 0.65619,-0.9317 l 0.49695,-0.8565 m 12.7755,7.3759 -2.05674,3.5624 -2.05673,3.5623 -0.2021,-0.4012 c -2.34524,-4.6551 -3.3601,-6.6 -3.4337,-6.5802 -0.20341,0.055 -15.64307,8.9587 -15.62849,9.0131 0.009,0.032 1.2791,-0.065 2.82314,-0.2166 1.54403,-0.1516 2.84054,-0.2351 2.88113,-0.1856 0.0406,0.05 0.72317,3.8541 1.51681,8.4545 l 1.44301,8.3643 2.11015,1.2183 2.11013,1.2183 7.37595,-12.7755 7.37593,-12.7754 m 33.00334,19.0544 -0.29061,0.5026 c -1.5035,2.5993 -4.97882,6.7118 -7.72554,9.142 -9.83311,8.7 -21.91544,10.7962 -34.96467,6.0662 -3.66395,-1.328 -4.2384,-1.6191 -13.36245,-6.769 -8.31793,-4.695 -8.72794,-4.913 -9.73076,-5.1741 -1.99904,-0.5205 -2.91644,-0.4768 -6.90689,0.329 -3.37023,0.6806 -6.04893,0.725 -8.06182,0.1336 -1.08262,-0.3181 -3.58851,-1.7194 -4.62918,-2.5887 -2.33705,-1.9523 -3.33086,-3.6628 -6.35455,-10.9372 -0.90778,-2.1839 -1.86431,-4.4816 -2.12561,-5.1058 l -0.47512,-1.1351 -0.77387,-0.042 c -1.05847,-0.058 -2.03825,-0.3855 -2.3973,-0.8018 -0.27762,-0.3218 -1.01578,-1.9991 -3.40909,-7.7462 -0.67248,-1.6149 -1.2701,-3.0208 -1.32805,-3.1244 -0.0737,-0.1317 -0.671,-0.041 -1.98892,0.3033 l -1.88352,0.4915 m -13.87732,-24.6118 c 1.09546,-1.1013 4.07401,-4.3639 4.05358,-4.4401 -0.0145,-0.054 -2.866,-2.3002 -6.33669,-4.9914 l -6.31036,-4.8932 m 3.90054,-6.7561 -0.0107,1.0548 c -0.0196,1.9372 -0.3515,1.5215 3.31771,4.156 1.77588,1.2751 5.09954,3.6268 7.3859,5.226 2.28637,1.5991 4.16327,2.9202 4.17092,2.9357 0.007,0.016 -0.21226,0.7476 -0.48869,1.6268 -1.07931,3.4331 -1.60044,7.0008 -1.23826,8.4774 l 0.17737,0.723 1.40859,0.9271 c 0.77475,0.5099 1.44992,0.916 1.50042,0.9025 0.0505,-0.014 0.22955,-0.6387 0.3979,-1.3893 0.37135,-1.6557 1.15853,-4.0522 1.97832,-6.0227 0.51222,-1.2312 2.32255,-4.9878 2.83938,-5.8919 l 0.15248,-0.2669 m 19.85989,-10.2785 c 1.76327,0.2102 4.16871,0.9709 5.48032,1.7331 1.70047,0.9883 3.14643,2.7516 3.70664,4.5204 0.34219,1.0804 0.4994,2.8105 0.34621,3.8102 -0.055,0.3587 -0.0939,0.688 -0.0865,0.7319 0.007,0.044 5.27556,-1.3253 11.70701,-3.0427 6.43144,-1.7174 11.83723,-3.1144 12.01286,-3.1045 0.23476,0.013 0.44617,0.1535 0.79838,0.5295 0.43432,0.4635 6.11907,5.9133 8.44675,8.0975 l 0.95006,0.8916 3.16653,-0.1579 3.16653,-0.1578 3.07132,1.7732 3.07133,1.7732 -0.40517,0.7018 c -0.32765,0.5675 -0.45116,0.69 -0.64553,0.64 -0.13221,-0.034 -1.56626,-0.5579 -3.18679,-1.1644 l -2.94642,-1.1027 -2.94416,0.9504 c -2.00604,0.6475 -2.99414,0.8981 -3.10099,0.7864 -0.0863,-0.09 -2.21711,-1.9689 -4.73525,-4.175 -3.0809,-2.699 -4.7197,-4.0606 -5.01032,-4.1628 -0.34779,-0.1223 -1.61128,0.1643 -6.4875,1.4718 -3.33058,0.8931 -6.04233,1.6568 -6.02611,1.6971 0.0162,0.04 2.55418,3.5459 5.63991,7.7901 3.08572,4.2442 5.61195,7.768 5.61382,7.8306 0.006,0.1948 -1.66163,1.0558 -1.7766,0.9173 -0.0599,-0.072 -3.49682,-3.471 -7.6377,-7.5529 l -7.52885,-7.4217 -0.97923,0.1824 c -6.81969,1.2704 -10.19321,1.8801 -10.2439,1.8514 -0.0338,-0.019 -0.29187,-0.9003 -0.57337,-1.9582 l -0.51183,-1.9232 0.86152,-0.7533 c 1.23128,-1.0765 2.17003,-2.6624 2.22288,-3.7553 0.0453,-0.937 -0.42679,-2.2271 -1.1252,-3.0748 -0.69592,-0.8446 -1.98877,-1.5957 -3.14845,-1.8292 l -0.85327,-0.1717 -0.28369,-0.7871 c -0.15604,-0.4329 -0.37936,-1.1648 -0.49628,-1.6266 l -0.21258,-0.8396 z m -10.28105,15.8157 1.39357,-2.4137 1.39357,-2.4138 -0.35368,-0.6218 c -1.26926,-2.2318 -0.18517,-5.256 2.25047,-6.278 2.45119,-1.0285 5.37526,0.3829 6.0559,2.9231 0.76733,2.8637 -1.32546,5.7231 -4.18998,5.7249 l -0.81869,0 -1.38693,2.3931 -1.38691,2.3931 m 7.45237,4.3026 0.40238,-0.6969 0.40238,-0.6969 1.89245,-0.3411 1.89243,-0.3411 2.98811,1.7223 2.98811,1.7223 -1.02443,1.7744 -1.02444,1.7743 m 4.96825,2.8685 1.09273,-1.8927 1.09273,-1.8927 8.74226,5.0474 8.74226,5.0473 0.58025,1.548 c 0.31916,0.8515 0.58682,1.627 0.59484,1.7235 0.008,0.097 -0.20743,0.5619 -0.47875,1.0342 l -0.49334,0.8586 m 12.77548,7.376 2.05674,-3.5624 2.05672,-3.5623 -0.4485,0.025 c -5.2041,0.2966 -7.39581,0.3901 -7.41554,0.3165 -0.0545,-0.2034 -0.063,-18.0267 -0.009,-18.0413 0.0324,-0.01 0.58321,1.1403 1.22394,2.5533 0.64071,1.4129 1.21666,2.5775 1.2799,2.5879 0.0632,0.01 3.6993,-1.3008 8.08018,-2.9137 l 7.96523,-2.9325 2.11014,1.2183 2.11016,1.2183 -7.37593,12.7755 -7.37593,12.7755 m 33.00334,19.0545 0.2899,-0.5029 c 1.49931,-2.6018 3.3232,-7.6677 4.05444,-11.2616 2.61784,-12.8657 -1.60792,-24.3774 -12.2288,-33.3134 -2.98213,-2.509 -3.52138,-2.861 -12.5434,-8.1877 -8.22493,-4.856 -8.61873,-5.1021 -9.34627,-5.84 -1.45026,-1.471 -1.87113,-2.2873 -3.16851,-6.1461 -1.09574,-3.259 -2.39666,-5.601 -3.91523,-7.0485 -0.81676,-0.7785 -3.28331,-2.248 -4.55651,-2.7146 -2.85921,-1.0478 -4.83747,-1.0533 -12.64912,-0.035 -2.34524,0.3059 -4.8133,0.6263 -5.48459,0.7121 l -1.22053,0.1561 -0.42355,-0.6491 c -0.57931,-0.8877 -1.35297,-1.5724 -1.89298,-1.6752 -0.41752,-0.08 -2.23916,0.1198 -8.41297,0.9207 -1.73475,0.2251 -3.25117,0.4105 -3.36982,0.4121 -0.15094,0 -0.3707,-0.5608 -0.7318,-1.8741 l -0.51608,-1.8769 m -28.25312,0.2878 c -0.40604,1.4993 -1.74223,5.7101 -1.81846,5.7305 -0.0541,0.015 -3.42504,-1.3319 -7.49106,-2.992 l -7.39277,-3.0184 m -3.90066,6.756 0.90814,-0.5366 c 1.66783,-0.9856 1.14187,-1.0651 5.25805,0.7952 1.99219,0.9004 5.69064,2.603 8.21872,3.7834 2.52812,1.1805 4.61066,2.1454 4.62789,2.1443 0.0173,0 0.54127,-0.5576 1.1645,-1.2366 2.43347,-2.6513 5.26268,-4.8865 6.72252,-5.3111 l 0.71485,-0.2079 1.50717,0.7563 c 0.82893,0.416 1.51823,0.7977 1.53177,0.8482 0.0135,0.051 -0.43836,0.5181 -1.0042,1.0392 -1.24822,1.1495 -2.93001,3.0294 -4.22666,4.7247 -0.81014,1.0591 -3.15827,4.5052 -3.68287,5.4049 l -0.15484,0.2655 m -86.35643,-10.2833 c -1.76327,0.2102 -4.16872,0.9709 -5.48032,1.7331 -1.70047,0.9883 -3.14644,2.7516 -3.70664,4.5204 -0.34219,1.0804 -0.4994,2.8105 -0.34622,3.8103 0.055,0.3586 0.0939,0.6879 0.0865,0.7318 -0.007,0.044 -5.27557,-1.3253 -11.70701,-3.0427 -6.431447,-1.7174 -11.837237,-3.1144 -12.012867,-3.1045 -0.23476,0.013 -0.44616,0.1535 -0.79837,0.5295 -0.43432,0.4635 -6.11908,5.9133 -8.44674,8.0976 l -0.95008,0.8915 -3.16652,-0.1579 -3.16652,-0.1578 -3.07134,1.7732 -3.07132,1.7732 0.40517,0.7018 c 0.32764,0.5675 0.45118,0.69 0.64554,0.64 0.1322,-0.034 1.56626,-0.5579 3.18678,-1.1644 l 2.94642,-1.1027 2.94416,0.9504 c 2.00605,0.6475 2.99413,0.8981 3.10099,0.7864 0.0863,-0.09 2.21711,-1.9689 4.73525,-4.175 3.0809,-2.699 4.7197,-4.0606 5.01032,-4.1628 0.34779,-0.1223 1.61127,0.1643 6.4875,1.4718 3.33058,0.8931 6.042317,1.6568 6.026097,1.6971 -0.0162,0.04 -2.55418,3.5459 -5.639897,7.7901 -3.08572,4.2442 -5.61194,7.768 -5.61382,7.8306 -0.006,0.1948 1.66163,1.0558 1.7766,0.9173 0.0599,-0.072 3.49682,-3.471 7.637697,-7.5529 l 7.52884,-7.4217 0.97922,0.1824 c 6.81971,1.2704 10.19323,1.8801 10.24391,1.8514 0.0338,-0.019 0.29187,-0.9003 0.57337,-1.9581 l 0.51183,-1.9233 -0.86151,-0.7533 c -1.23129,-1.0765 -2.17003,-2.6624 -2.22289,-3.7553 -0.0453,-0.937 0.42679,-2.2271 1.1252,-3.0748 0.69593,-0.8446 1.98878,-1.5957 3.14846,-1.8292 l 0.85325,-0.1717 0.2837,-0.7871 c 0.15605,-0.4329 0.37937,-1.1648 0.49628,-1.6266 l 0.21259,-0.8396 z m 10.28106,15.8157 -1.39357,-2.4137 -1.39357,-2.4138 0.35367,-0.6218 c 1.26926,-2.2318 0.18518,-5.256 -2.25046,-6.278 -2.4512,-1.0285 -5.37527,0.3829 -6.0559,2.9231 -0.76733,2.8637 1.32545,5.7231 4.18998,5.7249 l 0.81867,0 1.38695,2.3931 1.38689,2.3931 m -7.45236,4.3026 -0.40238,-0.6969 -0.40238,-0.6969 -1.89243,-0.3411 -1.89245,-0.3411 -2.98811,1.7223 -2.98811,1.7223 1.02443,1.7744 1.02444,1.7743 m -4.96825,2.8685 -1.09273,-1.8927 -1.09273,-1.8927 -8.742257,5.0474 -8.74225,5.0473 -0.58025,1.5481 c -0.31915,0.8514 -0.58683,1.6269 -0.59485,1.7234 -0.008,0.097 0.20743,0.5619 0.47877,1.0342 l 0.49333,0.8586 m -12.77548,7.376 -2.05673,-3.5624 -2.05672,-3.5623 0.44848,0.025 c 5.2041,0.2966 7.39582,0.3901 7.41555,0.3165 0.0545,-0.2034 0.063,-18.0267 0.009,-18.0413 -0.0324,-0.01 -0.58322,1.1403 -1.22394,2.5533 -0.64071,1.4129 -1.21666,2.5775 -1.27989,2.5879 -0.0632,0.01 -3.69931,-1.3008 -8.08018,-2.9137 l -7.96523,-2.9325 -2.11015,1.2183 -2.11015,1.2183 7.37593,12.7755 7.37593,12.7755 m -33.00334,19.0545 -0.2899,-0.503 c -1.49931,-2.6017 -3.3232,-7.6676 -4.05446,-11.2615 -2.61784,-12.8657 1.60793,-24.3774 12.22882,-33.3134 2.98212,-2.509 3.52136,-2.861 12.54338,-8.1877 8.22493,-4.856 8.61875,-5.1021 9.34628,-5.84 1.45027,-1.471 1.87112,-2.2873 3.16851,-6.1461 1.09575,-3.259 2.39666,-5.601 3.91524,-7.0485 0.81676,-0.7785 3.2833,-2.248 4.55649,-2.7146 2.85923,-1.0478 4.83748,-1.0533 12.64912,-0.035 2.34525,0.3059 4.81332,0.6263 5.4846,0.7121 l 1.220517,0.1561 0.42356,-0.6491 c 0.57931,-0.8877 1.35297,-1.5724 1.89297,-1.6752 0.41752,-0.08 2.23917,0.1198 8.41298,0.9207 1.73475,0.2251 3.25116,0.4105 3.36981,0.4121 0.15095,0 0.37071,-0.5608 0.73181,-1.8741 l 0.51608,-1.8769 m 28.25312,0.2878 c 0.40603,1.4993 1.74222,5.7101 1.81845,5.7305 0.0541,0.015 3.42504,-1.3319 7.49107,-2.992 l 7.39277,-3.0184 m 3.90064,6.756 -0.90813,-0.5366 c -1.66782,-0.9856 -1.14186,-1.0652 -5.25803,0.7952 -1.99221,0.9004 -5.69064,2.603 -8.21874,3.7834 -2.5281,1.1805 -4.61065,2.1454 -4.62789,2.1443 -0.0172,0 -0.54126,-0.5576 -1.16449,-1.2366 -2.43347,-2.6513 -5.26268,-4.8865 -6.72252,-5.3111 l -0.71485,-0.2079 -1.50717,0.7563 c -0.82894,0.416 -1.51824,0.7977 -1.53176,0.8482 -0.0135,0.051 0.43835,0.5181 1.00419,1.0392 1.24823,1.1495 2.93001,3.0294 4.22666,4.7247 0.81015,1.0591 3.15828,4.5052 3.68287,5.4049 l 0.15484,0.2655 m -1.02852,22.3384 c -1.06365,1.422 -2.92517,3.1248 -4.24108,3.8796 -1.70605,0.9785 -3.95616,1.3491 -5.76803,0.9498 -1.10676,-0.2438 -2.68372,-0.9727 -3.47292,-1.6053 -0.28311,-0.2269 -0.54889,-0.4253 -0.59061,-0.4408 -0.0417,-0.015 -1.49,5.2314 -3.2184,11.66 -1.7284,6.4285 -3.22144,11.8085 -3.31789,11.9556 -0.12891,0.1967 -0.35604,0.3097 -0.8577,0.4267 -0.61863,0.1444 -8.18063,2.3426 -11.23609,3.2663 l -1.24712,0.377 -1.44656,2.8213 -1.44656,2.8212 -3.07132,1.7732 -3.071337,1.7732 -0.40517,-0.7017 c -0.32764,-0.5675 -0.37193,-0.7357 -0.23151,-0.8791 0.0955,-0.097 1.26634,-1.0774 2.601817,-2.1776 l 2.42817,-2.0003 0.64903,-3.025 c 0.44223,-2.061 0.71928,-3.042 0.86947,-3.0787 0.12123,-0.03 2.81369,-0.9356 5.98323,-2.0134 3.87791,-1.3186 5.87648,-2.057 6.11031,-2.2576 0.2798,-0.24 0.6633,-1.4776 1.96907,-6.3543 0.89189,-3.3309 1.58639,-6.0611 1.54335,-6.0673 -0.043,-0.01 -4.34791,0.4391 -9.56638,0.9893 -5.21847,0.5502 -9.53323,0.9761 -9.58836,0.9464 -0.17168,-0.092 -0.0836,-1.9669 0.0939,-1.9972 0.0924,-0.016 4.7543,-1.2929 10.35982,-2.838 l 10.19183,-2.8093 0.33164,-0.9393 c 2.30962,-6.5412 3.46836,-9.7676 3.51857,-9.7971 0.0336,-0.02 0.92565,0.1974 1.98248,0.4825 l 1.92151,0.5183 0.2216,1.1228 c 0.31668,1.6046 1.22075,3.2105 2.14075,3.8027 0.78883,0.5078 2.14215,0.744 3.22543,0.5629 1.07941,-0.1803 2.37633,-0.9244 3.15837,-1.812 l 0.57539,-0.6531 0.82346,0.1479 c 0.45289,0.081 1.19846,0.2539 1.65682,0.3835 l 0.83337,0.2357 z m -8.55626,-16.8115 1.39357,2.4138 1.39358,2.4137 0.71538,0 c 2.56741,0.017 4.6444,2.4677 4.31164,5.088 -0.33488,2.637 -3.01921,4.4637 -5.55939,3.783 -2.8637,-0.7673 -4.29365,-4.0094 -2.86291,-6.4911 l 0.40891,-0.7092 -1.37904,-2.3977 -1.37906,-2.3977 m -7.45237,4.3027 0.40238,0.6969 0.40237,0.6969 -0.65083,1.8095 -0.65083,1.8094 -2.98561,1.7267 -2.98561,1.7266 -1.02444,-1.7744 -1.02443,-1.7744 m -4.96824,2.8685 1.09273,1.8926 1.09273,1.8927 -8.74225,5.0473 -8.742257,5.0474 -1.63076,-0.2715 c -0.89693,-0.1493 -1.70243,-0.3053 -1.79001,-0.3466 -0.0876,-0.041 -0.38287,-0.4606 -0.6562,-0.9317 l -0.49695,-0.8566 m -12.77549,7.376 2.05672,3.5623 2.05672,3.5624 0.20212,-0.4012 c 2.34524,-4.6552 3.3601,-6.6 3.4337,-6.5803 0.20341,0.055 15.643057,8.9588 15.628487,9.0132 -0.009,0.032 -1.279107,-0.065 -2.823137,-0.2167 -1.54403,-0.1516 -2.84054,-0.2351 -2.88115,-0.1855 -0.0406,0.05 -0.72315,3.8541 -1.5168,8.4545 l -1.44299,8.3643 -2.11015,1.2183 -2.11016,1.2183 -7.37593,-12.7755 -7.37593,-12.7755 m -33.00334,19.0545 0.29061,0.5025 c 1.5035,2.5993 4.97882,6.7119 7.72554,9.142 9.83311,8.7 21.91545,10.7963 34.96467,6.0663 3.66395,-1.3281 4.2384,-1.6191 13.36244,-6.7691 8.317927,-4.6949 8.727937,-4.9129 9.730757,-5.174 1.99905,-0.5205 2.91645,-0.4768 6.90689,0.329 3.37023,0.6805 6.04894,0.7249 8.06182,0.1335 1.08262,-0.318 3.58852,-1.7194 4.62918,-2.5887 2.33705,-1.9522 3.33088,-3.6628 6.35456,-10.9371 0.90777,-2.184 1.86431,-4.4816 2.12561,-5.1059 l 0.4751,-1.135 0.77387,-0.042 c 1.05848,-0.058 2.03826,-0.3855 2.39732,-0.8017 0.27762,-0.3219 1.01577,-1.9991 3.40907,-7.7463 0.6725,-1.6148 1.27012,-3.0208 1.32807,-3.1243 0.0737,-0.1318 0.67099,-0.041 1.9889,0.3032 l 1.88354,0.4916 m 13.87732,-24.6118 c -1.09546,-1.1013 -4.07401,-4.3639 -4.05359,-4.4401 0.0145,-0.054 2.86601,-2.3002 6.3367,-4.9915 l 6.31036,-4.8931 m -3.90056,-6.7561 0.0107,1.0548 c 0.0196,1.9372 0.35151,1.5215 -3.3177,4.156 -1.77588,1.2751 -5.09954,3.6268 -7.3859,5.2259 -2.28637,1.5992 -4.16328,2.9203 -4.17092,2.9358 -0.008,0.015 0.21227,0.7475 0.48869,1.6267 1.07932,3.4331 1.60044,7.0009 1.23826,8.4774 l -0.17737,0.7231 -1.4086,0.9271 c -0.77473,0.5098 -1.44991,0.9159 -1.50041,0.9024 -0.0505,-0.014 -0.22956,-0.6387 -0.39789,-1.3892 -0.37136,-1.6558 -1.15855,-4.0522 -1.97833,-6.0228 -0.51221,-1.2312 -2.32255,-4.9877 -2.83938,-5.8919 l -0.15249,-0.2668 m 14.41594,31.2584 c -0.69962,1.6322 -1.24355,4.0957 -1.23924,5.6127 0.006,1.9667 0.80973,4.1007 2.0614,5.4702 0.76455,0.8365 2.18431,1.8378 3.12669,2.205 0.33807,0.1317 0.64275,0.2627 0.67706,0.291 0.0343,0.028 -3.78555,3.9061 -8.4886,8.6172 -4.70305,4.7111 -8.61579,8.6942 -8.69497,8.8512 -0.10584,0.21 -0.0901,0.4632 0.0593,0.9562 0.18431,0.6079 2.06155,8.2559 2.78933,11.3639 l 0.29706,1.2685 -1.71997,2.6634 -1.71996,2.6633 0,3.5465 0,3.5465 0.81034,0 c 0.65529,0 0.82312,-0.046 0.87706,-0.2391 0.0367,-0.1314 0.29991,-1.6354 0.58495,-3.342 l 0.51825,-3.103 2.29513,-2.0746 c 1.56383,-1.4135 2.27486,-2.1439 2.23154,-2.2923 -0.035,-0.1198 -0.59659,-2.9046 -1.248,-6.1883 -0.79699,-4.0177 -1.15677,-6.1177 -1.09998,-6.4205 0.068,-0.3624 0.94797,-1.3132 4.51843,-4.8824 2.4387,-2.4379 4.45595,-4.4045 4.48276,-4.3703 0.0268,0.034 1.79373,3.985 3.92647,8.7794 2.13275,4.7944 3.92129,8.7441 3.97455,8.777 0.16582,0.1025 1.74518,-0.9111 1.68271,-1.0799 -0.0325,-0.088 -1.25751,-4.7638 -2.72215,-10.3909 l -2.66298,-10.2311 0.64759,-0.7568 c 4.51007,-5.2708 6.72486,-7.8875 6.72534,-7.9458 0,-0.039 -0.63379,-0.7029 -1.40912,-1.4756 l -1.40968,-1.4049 -1.08311,0.3695 c -1.54798,0.528 -3.39079,0.548 -4.36365,0.047 -0.83413,-0.4293 -1.71534,-1.4832 -2.10021,-2.5118 -0.38349,-1.025 -0.38758,-2.5202 -0.01,-3.6413 l 0.27787,-0.8248 -0.53976,-0.6392 c -0.29686,-0.3516 -0.81911,-0.911 -1.16055,-1.2431 l -0.62079,-0.6039 z m 18.83731,-0.9958 -2.78715,0 -2.78714,0 -0.36171,-0.6172 c -1.29814,-2.2151 -4.45922,-2.7884 -6.56211,-1.19 -2.1163,1.6085 -2.35605,4.8465 -0.49651,6.7061 2.09638,2.0963 5.61912,1.7137 7.0529,-0.7662 l 0.40977,-0.7088 2.76597,0 2.76598,0 m 0,8.6053 -0.80476,0 -0.80477,0 -1.2416,1.4683 -1.24161,1.4684 -0.002,3.4489 -0.002,3.4489 2.04887,0 2.04887,0 m 0,5.7369 -2.18546,0 -2.18546,0 0,10.0947 0,10.0946 1.05049,1.2766 c 0.57779,0.7021 1.11561,1.3217 1.19518,1.3769 0.0796,0.055 0.5903,0.1013 1.13496,0.1024 l 0.99029,0 m 0,14.7518 -4.11345,0 -4.11345,0 0.24637,-0.3756 c 2.85886,-4.3586 4.03573,-6.2099 3.98185,-6.2638 -0.1489,-0.1489 -15.58006,-9.0679 -15.61988,-9.0281 -0.0238,0.024 0.69588,1.0752 1.5992,2.3366 0.90331,1.2613 1.62388,2.3424 1.60125,2.4024 -0.0226,0.06 -2.97615,2.5533 -6.56338,5.5408 l -6.52223,5.4318 0,2.4366 0,2.4366 14.75186,0 14.75186,0 m 0,38.109 -0.58051,0 c -3.00281,0 -8.30201,-0.9559 -11.77998,-2.1195 -12.45097,-4.1657 -20.30752,-13.5812 -22.73587,-27.2472 -0.68182,-3.8371 -0.71704,-4.4801 -0.81906,-14.9567 -0.093,-9.551 -0.1092,-10.0151 -0.38449,-11.0142 -0.54877,-1.9914 -1.0453,-2.7641 -3.73838,-5.817 -2.27448,-2.5784 -3.65227,-4.8761 -4.14657,-6.9149 -0.26586,-1.0967 -0.30521,-3.9675 -0.0727,-5.3034 0.52217,-3.0001 1.50661,-4.716 6.29458,-10.9718 1.43746,-1.8781 2.94899,-3.8553 3.35897,-4.3937 l 0.74542,-0.979 -0.35032,-0.6913 c -0.47916,-0.9456 -0.68528,-1.958 -0.50433,-2.477 0.13991,-0.4014 1.22339,-1.8793 5.0039,-6.8255 1.06225,-1.3898 1.98105,-2.6104 2.04175,-2.7123 0.0772,-0.1297 -0.30028,-0.6014 -1.25709,-1.5708 l -1.36746,-1.3854 m 14.3758,-24.3241 c 1.50148,0.398 5.81622,1.3462 5.87203,1.2904 0.0396,-0.04 0.55904,-3.6321 1.15438,-7.9834 l 1.08241,-7.9115 m 7.80119,-10e-5 -0.91883,0.5181 c -1.68746,0.9516 -1.49336,0.4563 -1.94033,4.9512 -0.21633,2.1755 -0.59111,6.2298 -0.83284,9.0094 -0.24174,2.7796 -0.44736,5.0656 -0.45697,5.08 -0.01,0.014 -0.75353,0.1899 -1.65319,0.3902 -3.51278,0.7818 -6.86312,2.1143 -7.96076,3.1663 l -0.5375,0.5151 -0.0986,1.6834 c -0.0542,0.9259 -0.0683,1.7137 -0.0313,1.7507 0.037,0.037 0.6679,-0.1206 1.40208,-0.3501 1.61959,-0.5062 4.08856,-1.0227 6.205,-1.2981 1.32234,-0.172 5.4808,-0.4825 6.52224,-0.4869 l 0.30733,0 m 18.8309,12.0593 c 0.69962,1.6322 1.24356,4.0957 1.23924,5.6127 -0.006,1.9667 -0.80973,4.1007 -2.0614,5.4702 -0.76455,0.8365 -2.18431,1.8378 -3.12669,2.205 -0.33807,0.1317 -0.64275,0.2627 -0.67706,0.291 -0.0343,0.028 3.78555,3.9061 8.4886,8.6172 4.70305,4.7111 8.61579,8.6942 8.69497,8.8512 0.10585,0.21 0.0901,0.4632 -0.0593,0.9562 -0.1843,0.6079 -2.06155,8.2559 -2.78933,11.3639 l -0.29706,1.2685 1.71997,2.6634 1.71996,2.6633 0,3.5465 0,3.5465 -0.81034,0 c -0.65529,0 -0.82312,-0.046 -0.87706,-0.2391 -0.0367,-0.1314 -0.29991,-1.6354 -0.58495,-3.342 l -0.51825,-3.103 -2.29513,-2.0746 c -1.56382,-1.4135 -2.27486,-2.1439 -2.23154,-2.2923 0.035,-0.1198 0.59659,-2.9046 1.248,-6.1883 0.79699,-4.0177 1.15678,-6.1177 1.09998,-6.4205 -0.068,-0.3624 -0.94797,-1.3132 -4.51843,-4.8824 -2.4387,-2.4379 -4.45595,-4.4045 -4.48276,-4.3703 -0.0268,0.034 -1.79373,3.985 -3.92647,8.7794 -2.13275,4.7944 -3.92129,8.7441 -3.97454,8.777 -0.16583,0.1025 -1.74519,-0.9111 -1.68271,-1.0799 0.0325,-0.088 1.2575,-4.7638 2.72214,-10.3909 l 2.66298,-10.2311 -0.64759,-0.7568 c -4.51007,-5.2708 -6.72486,-7.8875 -6.72533,-7.9458 0,-0.039 0.63378,-0.7029 1.40911,-1.4756 l 1.40968,-1.4049 1.08311,0.3695 c 1.54798,0.528 3.39079,0.548 4.36365,0.047 0.83413,-0.4293 1.71534,-1.4832 2.10021,-2.5118 0.38349,-1.025 0.38758,-2.5202 0.01,-3.6413 l -0.27787,-0.8248 0.53976,-0.6392 c 0.29687,-0.3516 0.81911,-0.911 1.16055,-1.2431 l 0.62079,-0.6039 z m -18.83731,-0.9958 2.78715,0 2.78715,0 0.3617,-0.6172 c 1.29814,-2.2151 4.45922,-2.7884 6.56211,-1.19 2.1163,1.6085 2.35605,4.8465 0.49651,6.7061 -2.09638,2.0963 -5.61912,1.7137 -7.05289,-0.7662 l -0.40978,-0.7088 -2.76597,0 -2.76598,0 m 0,8.6053 0.80476,0 0.80477,0 1.2416,1.4683 1.24161,1.4684 0.002,3.4489 0.002,3.4489 -2.04887,0 -2.04887,0 m 0,5.7369 2.18546,0 2.18546,0 0,10.0947 0,10.0946 -1.05049,1.2766 c -0.57778,0.7021 -1.11561,1.3217 -1.19518,1.3769 -0.0796,0.055 -0.5903,0.1013 -1.13496,0.1024 l -0.99029,0 m 0,14.7518 4.11345,0 4.11345,0 -0.24637,-0.3756 c -2.85886,-4.3586 -4.03573,-6.2099 -3.98184,-6.2638 0.14889,-0.1489 15.58005,-9.0679 15.61987,-9.0281 0.0238,0.024 -0.69588,1.0752 -1.5992,2.3366 -0.90331,1.2613 -1.62388,2.3424 -1.60125,2.4024 0.0226,0.06 2.97615,2.5533 6.56338,5.5408 l 6.52224,5.4318 0,2.4366 0,2.4366 -14.75187,0 -14.75186,0 m 0,38.109 0.58051,0 c 3.00281,0 8.30201,-0.9559 11.77998,-2.1195 12.45097,-4.1657 20.30752,-13.5812 22.73587,-27.2472 0.68182,-3.8371 0.71703,-4.4801 0.81905,-14.9567 0.093,-9.551 0.10921,-10.0151 0.3845,-11.0142 0.54877,-1.9914 1.04531,-2.7641 3.73837,-5.817 2.27449,-2.5784 3.65228,-4.8761 4.14659,-6.9149 0.26586,-1.0967 0.30521,-3.9675 0.0727,-5.3034 -0.52218,-3.0001 -1.50662,-4.716 -6.29458,-10.9718 -1.43746,-1.8781 -2.949,-3.8553 -3.35898,-4.3937 l -0.74542,-0.979 0.35032,-0.6913 c 0.47916,-0.9456 0.68528,-1.958 0.50434,-2.477 -0.13991,-0.4014 -1.2234,-1.8793 -5.0039,-6.8255 -1.06226,-1.3898 -1.98106,-2.6104 -2.04176,-2.7123 -0.0772,-0.1297 0.30029,-0.6014 1.25709,-1.5708 l 1.36746,-1.3854 m -14.3758,-24.3241 c -1.50148,0.398 -5.81622,1.3462 -5.87203,1.2904 -0.0396,-0.04 -0.55904,-3.6321 -1.15438,-7.9834 l -1.08241,-7.9115 m -7.80118,-1e-4 0.91882,0.5181 c 1.68746,0.9516 1.49336,0.4563 1.94033,4.9512 0.21634,2.1755 0.59112,6.2298 0.83284,9.0094 0.24174,2.7796 0.44736,5.0656 0.45697,5.08 0.01,0.014 0.75353,0.1899 1.65319,0.3902 3.51279,0.7818 6.86313,2.1143 7.96076,3.1663 l 0.5375,0.5151 0.0986,1.6834 c 0.0542,0.9259 0.0683,1.7137 0.0313,1.7507 -0.037,0.037 -0.6679,-0.1206 -1.40208,-0.3501 -1.61959,-0.5062 -4.08856,-1.0227 -6.205,-1.2981 -1.32234,-0.172 -5.4808,-0.4825 -6.52224,-0.4869 l -0.30733,0 m -34.27215,-79.9291 c -1.06366,-1.4219 -2.92517,-3.1248 -4.24108,-3.8795 -1.70606,-0.9786 -3.95616,-1.3491 -5.76803,-0.9499 -1.10675,0.2438 -2.68372,0.9728 -3.47292,1.6053 -0.28311,0.2269 -0.54889,0.4253 -0.59061,0.4408 -0.0417,0.015 -1.49001,-5.2314 -3.2184,-11.6599 -1.72839,-6.4285 -3.22144,-11.8086 -3.31788,-11.9557 -0.12897,-0.1966 -0.35604,-0.3096 -0.85771,-0.4267 -0.61862,-0.1444 -8.18063,-2.3426 -11.23608,-3.2663 l -1.24712,-0.377 -1.44657,-2.8212 -1.44656,-2.8212 -3.07133,-1.7733 -3.071317,-1.7732 -0.40517,0.7018 c -0.32765,0.5674 -0.37194,0.7357 -0.23151,0.879 0.0955,0.098 1.26633,1.0775 2.601807,2.1776 l 2.42817,2.0004 0.64903,3.0249 c 0.44224,2.061 0.71928,3.042 0.86947,3.0787 0.12123,0.03 2.81369,0.9356 5.98324,2.0134 3.8779,1.3186 5.87648,2.057 6.1103,2.2576 0.27981,0.2401 0.6633,1.4776 1.96907,6.3543 0.89189,3.3309 1.58638,6.0612 1.54335,6.0673 -0.043,0.01 -4.34791,-0.4391 -9.56638,-0.9893 -5.21847,-0.5502 -9.53323,-0.9761 -9.58836,-0.9464 -0.17169,0.092 -0.0836,1.9669 0.0939,1.9972 0.0924,0.016 4.75432,1.2929 10.35982,2.838 l 10.19185,2.8093 0.33163,0.9393 c 2.30962,6.5412 3.46836,9.7676 3.51857,9.7972 0.0336,0.02 0.92565,-0.1974 1.98248,-0.4825 l 1.92152,-0.5184 0.22158,-1.1228 c 0.3167,-1.6046 1.22076,-3.2105 2.14078,-3.8027 0.78882,-0.5077 2.14213,-0.7439 3.22541,-0.5629 1.07941,0.1804 2.37634,0.9244 3.15837,1.812 l 0.5754,0.6531 0.82344,-0.1479 c 0.4529,-0.081 1.19847,-0.2538 1.65683,-0.3835 l 0.83338,-0.2356 z m -8.55625,16.8115 1.39357,-2.4137 1.39357,-2.4138 0.71539,0 c 2.5674,-0.017 4.64439,-2.4676 4.31164,-5.088 -0.33489,-2.637 -3.01922,-4.4636 -5.55939,-3.783 -2.86372,0.7673 -4.29366,4.0095 -2.86292,6.4911 l 0.40934,0.709 -1.37904,2.3977 -1.37907,2.3976 m -7.45236,-4.3026 0.40238,-0.6969 0.40238,-0.697 -0.65084,-1.8094 -0.65083,-1.8095 -2.9856,-1.7266 -2.98562,-1.7266 -1.02444,1.7744 -1.02443,1.7743 m -4.96824,-2.8684 1.09273,-1.8927 1.09273,-1.8926 -8.74226,-5.0474 -8.742257,-5.0473 -1.63076,0.2715 c -0.89692,0.1493 -1.70242,0.3053 -1.79001,0.3466 -0.0876,0.041 -0.38287,0.4606 -0.6562,0.9317 l -0.49695,0.8565 m -12.77549,-7.3759 2.05673,-3.5623 2.05672,-3.5624 0.20211,0.4012 c 2.34525,4.6551 3.3601,6.6 3.4337,6.5803 0.20341,-0.055 15.643067,-8.9588 15.628487,-9.0132 -0.009,-0.033 -1.279087,0.065 -2.823127,0.2166 -1.54403,0.1517 -2.84055,0.2352 -2.88115,0.1856 -0.0406,-0.05 -0.72316,-3.8541 -1.5168,-8.4545 l -1.443,-8.3643 -2.11016,-1.2183 -2.11014,-1.2183 -7.37593,12.7755 -7.37593,12.7755 m -33.00334,-19.0545 0.29061,-0.5026 c 1.50349,-2.5993 4.97881,-6.7118 7.72552,-9.142 9.83313,-8.6999 21.91546,-10.7962 34.96468,-6.0662 3.66395,1.3281 4.2384,1.6191 13.36245,6.769 8.317927,4.695 8.727937,4.913 9.730757,5.1741 1.99904,0.5205 2.91644,0.4768 6.90689,-0.329 3.37023,-0.6805 6.04894,-0.7249 8.06182,-0.1336 1.08262,0.3181 3.58852,1.7194 4.62919,2.5888 2.33705,1.9522 3.33086,3.6627 6.35454,10.9371 0.90778,2.184 1.86432,4.4816 2.12561,5.1059 l 0.47512,1.135 0.77387,0.042 c 1.05847,0.058 2.03825,0.3855 2.3973,0.8017 0.27762,0.3218 1.01578,1.9991 3.40908,7.7462 0.67249,1.6149 1.27012,3.0209 1.32806,3.1244 0.0737,0.1318 0.671,0.041 1.98891,-0.3033 l 1.88353,-0.4915 m 13.87733,24.6118 c -1.09546,1.1013 -4.07401,4.3639 -4.05358,4.4401 0.0145,0.054 2.86599,2.3002 6.33668,4.9915 l 6.31036,4.8931 m -3.90054,6.7561 0.0107,-1.0548 c 0.0196,-1.9372 0.3515,-1.5215 -3.3177,-4.156 -1.77589,-1.2751 -5.09955,-3.6268 -7.38591,-5.2259 -2.28637,-1.5992 -4.16328,-2.9203 -4.17093,-2.9358 -0.007,-0.016 0.21227,-0.7475 0.48871,-1.6268 1.0793,-3.433 1.60043,-7.0008 1.23824,-8.4774 l -0.17736,-0.723 -1.4086,-0.9271 c -0.77474,-0.5099 -1.44991,-0.916 -1.50041,-0.9025 -0.0505,0.014 -0.22955,0.6388 -0.3979,1.3893 -0.37136,1.6558 -1.15854,4.0522 -1.97833,6.0227 -0.51221,1.2312 -2.32253,4.9878 -2.83938,5.892 l -0.15247,0.2668 m -19.85995,10.2785 c -1.76327,-0.2102 -4.16871,-0.9709 -5.48032,-1.7331 -1.70047,-0.9882 -3.14643,-2.7516 -3.70664,-4.5203 -0.34219,-1.0804 -0.4994,-2.8106 -0.34621,-3.8103 0.0549,-0.3587 0.0939,-0.688 0.0864,-0.7319 -0.007,-0.044 -5.27555,1.3253 -11.707,3.0427 -6.431447,1.7175 -11.837237,3.1145 -12.012857,3.1045 -0.23477,-0.013 -0.44618,-0.1535 -0.79839,-0.5294 -0.43432,-0.4636 -6.11907,-5.9134 -8.44674,-8.0976 l -0.95007,-0.8915 -3.16652,0.1578 -3.16653,0.1578 -3.07133,-1.7732 -3.07132,-1.7732 0.40517,-0.7018 c 0.32764,-0.5675 0.45116,-0.69 0.64553,-0.64 0.1322,0.034 1.56626,0.5579 3.18679,1.1644 l 2.94641,1.1027 2.94417,-0.9504 c 2.00604,-0.6475 2.99413,-0.8981 3.10098,-0.7864 0.0863,0.09 2.21712,1.969 4.73525,4.175 3.08091,2.699 4.7197,4.0606 5.01033,4.1628 0.34778,0.1223 1.61126,-0.1643 6.4875,-1.4718 3.33058,-0.8931 6.042317,-1.6568 6.026097,-1.6971 -0.0162,-0.04 -2.55418,-3.5459 -5.639897,-7.7901 -3.08573,-4.2442 -5.61195,-7.768 -5.61382,-7.8305 -0.006,-0.1949 1.66163,-1.0559 1.7766,-0.9173 0.0599,0.072 3.49682,3.4709 7.637687,7.5528 l 7.52885,7.4218 0.97923,-0.1824 c 6.81969,-1.2705 10.19321,-1.8802 10.2439,-1.8515 0.0338,0.019 0.29187,0.9004 0.57337,1.9582 l 0.51183,1.9232 -0.86152,0.7533 c -1.23128,1.0766 -2.17002,2.6625 -2.22288,3.7553 -0.0453,0.937 0.42679,2.2271 1.1252,3.0748 0.69592,0.8446 1.98877,1.5957 3.14846,1.8292 l 0.85326,0.1718 0.2837,0.787 c 0.15603,0.4329 0.37936,1.1649 0.49628,1.6266 l 0.21258,0.8396 z m 10.28105,-15.8157 -1.39357,2.4138 -1.39356,2.4137 0.35367,0.6219 c 1.26926,2.2317 0.18518,5.2559 -2.25047,6.2779 -2.45119,1.0285 -5.37526,-0.3829 -6.0559,-2.923 -0.76733,-2.8638 1.32547,-5.7232 4.18998,-5.7249 l 0.81869,0 1.38693,-2.3932 1.38691,-2.3931 m -7.45237,-4.3026 -0.40238,0.6969 -0.40238,0.697 -1.89244,0.341 -1.89244,0.3411 -2.98811,-1.7223 -2.98811,-1.7223 1.02443,-1.7743 1.02444,-1.7744 m -4.96825,-2.8684 -1.09273,1.8926 -1.09273,1.8927 -8.742247,-5.0473 -8.74226,-5.0474 -0.58026,-1.548 c -0.31915,-0.8514 -0.58683,-1.627 -0.59484,-1.7235 -0.008,-0.097 0.20743,-0.5619 0.47876,-1.0341 l 0.49334,-0.8587 m -12.77549,-7.3759 -2.05673,3.5623 -2.05672,3.5624 0.44849,-0.026 c 5.2041,-0.2965 7.39582,-0.3901 7.41554,-0.3165 0.0545,0.2034 0.063,18.0267 0.009,18.0413 -0.0325,0.01 -0.58323,-1.1403 -1.22394,-2.5532 -0.64072,-1.413 -1.21667,-2.5776 -1.2799,-2.588 -0.0632,-0.01 -3.69931,1.3008 -8.08018,2.9137 l -7.96523,2.9325 -2.11015,-1.2183 -2.11015,-1.2183 7.37593,-12.7755 7.37593,-12.7755 m -33.00334,-19.0545 -0.28991,0.503 c -1.4993,2.6017 -3.32319,7.6677 -4.05444,11.2615 -2.61784,12.8657 1.60792,24.3774 12.22881,33.3134 2.98212,2.509 3.52137,2.861 12.54339,8.1877 8.22492,4.8561 8.61874,5.1021 9.34627,5.8401 1.45027,1.4709 1.87112,2.2873 3.16851,6.146 1.09574,3.259 2.39666,5.601 3.91523,7.0485 0.81677,0.7786 3.28331,2.2481 4.5565,2.7147 2.85922,1.0478 4.83749,1.0532 12.64913,0.035 2.34524,-0.3058 4.81331,-0.6263 5.4846,-0.7121 l 1.220517,-0.1561 0.42355,0.6491 c 0.57931,0.8877 1.35298,1.5724 1.89298,1.6752 0.41752,0.079 2.23917,-0.1198 8.41297,-0.9207 1.73475,-0.2251 3.25117,-0.4105 3.36982,-0.4121 0.15094,0 0.3707,0.5608 0.7318,1.8741 l 0.51608,1.877 m 28.25313,-0.2878 c 0.40603,-1.4994 1.74222,-5.7102 1.81845,-5.7306 0.0541,-0.015 3.42504,1.3319 7.49106,2.992 l 7.39277,3.0184 m 3.90065,-6.756 -0.90813,0.5366 c -1.66782,0.9856 -1.14186,1.0652 -5.25804,-0.7952 -1.9922,-0.9004 -5.69064,-2.6029 -8.21874,-3.7834 -2.5281,-1.1805 -4.61064,-2.1454 -4.62789,-2.1443 -0.0172,0 -0.54126,0.5576 -1.16449,1.2367 -2.43347,2.6512 -5.26268,4.8864 -6.72252,5.311 l -0.71485,0.2079 -1.50716,-0.7563 c -0.82894,-0.416 -1.51824,-0.7977 -1.53177,-0.8482 -0.0135,-0.05 0.43835,-0.5181 1.00419,-1.0392 1.24823,-1.1495 2.93001,-3.0294 4.22666,-4.7246 0.81015,-1.0592 3.15827,-4.5053 3.68287,-5.405 l 0.15484,-0.2654 m 86.35643,10.2832 c 1.76327,-0.2102 4.16871,-0.9709 5.48032,-1.7331 1.70047,-0.9882 3.14643,-2.7516 3.70664,-4.5203 0.34219,-1.0804 0.4994,-2.8106 0.34621,-3.8103 -0.055,-0.3587 -0.0939,-0.688 -0.0865,-0.7319 0.007,-0.044 5.27556,1.3253 11.70701,3.0427 6.43144,1.7175 11.83723,3.1145 12.01286,3.1045 0.23476,-0.013 0.44617,-0.1535 0.79838,-0.5294 0.43432,-0.4636 6.11907,-5.9134 8.44674,-8.0976 l 0.95007,-0.8915 3.16653,0.1578 3.16652,0.1578 3.07133,-1.7732 3.07133,-1.7732 -0.40517,-0.7018 c -0.32765,-0.5675 -0.45118,-0.69 -0.64555,-0.64 -0.13219,0.034 -1.56625,0.5579 -3.18677,1.1644 l -2.94642,1.1027 -2.94416,-0.9504 c -2.00605,-0.6475 -2.99414,-0.8981 -3.10099,-0.7864 -0.0863,0.09 -2.21711,1.969 -4.73525,4.175 -3.0809,2.699 -4.7197,4.0606 -5.01032,4.1628 -0.34779,0.1223 -1.61128,-0.1643 -6.4875,-1.4718 -3.33058,-0.8931 -6.04233,-1.6568 -6.02611,-1.6971 0.0162,-0.04 2.55418,-3.5459 5.63991,-7.7901 3.08572,-4.2442 5.61193,-7.768 5.61382,-7.8305 0.006,-0.1949 -1.66163,-1.0559 -1.7766,-0.9173 -0.0599,0.072 -3.49682,3.4709 -7.6377,7.5528 l -7.52885,7.4218 -0.97923,-0.1824 c -6.81969,-1.2705 -10.19321,-1.8802 -10.2439,-1.8515 -0.0338,0.019 -0.29187,0.9004 -0.57337,1.9582 l -0.51183,1.9232 0.86152,0.7533 c 1.23128,1.0766 2.17003,2.6625 2.22288,3.7553 0.0453,0.937 -0.42679,2.2271 -1.1252,3.0748 -0.69592,0.8446 -1.98877,1.5957 -3.14845,1.8292 l -0.85327,0.1718 -0.28369,0.787 c -0.15604,0.4329 -0.37936,1.1649 -0.49628,1.6266 l -0.21259,0.8396 z m -10.28105,-15.8157 1.39357,2.4138 1.39357,2.4137 -0.35367,0.6219 c -1.26927,2.2317 -0.18518,5.2559 2.25046,6.2779 2.45119,1.0285 5.37526,-0.3829 6.0559,-2.923 0.76733,-2.8638 -1.32546,-5.7232 -4.18998,-5.7249 l -0.81868,0 -1.38694,-2.3932 -1.3869,-2.3931 m 7.45236,-4.3026 0.40238,0.6969 0.40238,0.697 1.89244,0.341 1.89244,0.3411 2.98811,-1.7223 2.98811,-1.7223 -1.02443,-1.7744 -1.02444,-1.7743 m 4.96825,-2.8684 1.09273,1.8926 1.09273,1.8927 8.74226,-5.0474 8.74226,-5.0473 0.58025,-1.548 c 0.31915,-0.8514 0.58682,-1.627 0.59484,-1.7235 0.008,-0.097 -0.20743,-0.5619 -0.47876,-1.0341 l -0.49333,-0.8587 m 12.77548,-7.3759 2.05672,3.5623 2.05673,3.5624 -0.44849,-0.026 c -5.2041,-0.2965 -7.39581,-0.3901 -7.41554,-0.3165 -0.0545,0.2034 -0.063,18.0267 -0.009,18.0413 0.0324,0.01 0.58321,-1.1403 1.22394,-2.5532 0.64071,-1.413 1.21666,-2.5776 1.27988,-2.588 0.0632,-0.01 3.69932,1.3008 8.08019,2.9137 l 7.96522,2.9325 2.11016,-1.2183 2.11015,-1.2183 -7.37593,-12.7755 -7.37594,-12.7755 m 33.00335,-19.0545 0.2899,0.503 c 1.49931,2.6017 3.3232,7.6677 4.05445,11.2615 2.61784,12.8657 -1.60792,24.3774 -12.22881,33.3134 -2.98212,2.509 -3.52137,2.861 -12.54339,8.1877 -8.22493,4.8561 -8.61875,5.1021 -9.34627,5.8401 -1.45027,1.4709 -1.87113,2.2873 -3.16851,6.146 -1.09575,3.259 -2.39666,5.601 -3.91524,7.0485 -0.81676,0.7786 -3.2833,2.2481 -4.5565,2.7147 -2.85922,1.0478 -4.83747,1.0532 -12.64912,0.035 -2.34524,-0.3058 -4.81331,-0.6263 -5.4846,-0.7121 l -1.22052,-0.1561 -0.42355,0.6491 c -0.57931,0.8877 -1.35298,1.5724 -1.89298,1.6752 -0.41753,0.079 -2.23917,-0.1198 -8.41297,-0.9207 -1.73475,-0.2251 -3.25117,-0.4105 -3.36982,-0.4121 -0.15094,0 -0.37071,0.5608 -0.73181,1.8741 l -0.51607,1.877 m -28.25313,-0.2878 c -0.40603,-1.4994 -1.74222,-5.7102 -1.81845,-5.7306 -0.0541,-0.015 -3.42505,1.3319 -7.49106,2.992 l -7.39278,3.0184 m -3.90064,-6.756 0.90813,0.5366 c 1.66782,0.9856 1.14186,1.0652 5.25804,-0.7952 1.9922,-0.9004 5.69064,-2.6029 8.21874,-3.7834 2.52809,-1.1805 4.61064,-2.1454 4.62788,-2.1443 0.0172,0 0.54127,0.5576 1.1645,1.2367 2.43347,2.6512 5.26268,4.8864 6.72252,5.311 l 0.71485,0.2079 1.50716,-0.7563 c 0.82894,-0.416 1.51824,-0.7977 1.53177,-0.8482 0.0135,-0.05 -0.43836,-0.5181 -1.0042,-1.0392 -1.24822,-1.1495 -2.93001,-3.0294 -4.22666,-4.7246 -0.81014,-1.0592 -3.15827,-4.5053 -3.68286,-5.405 l -0.15485,-0.2654 m 1.02852,-22.3385 c 1.06366,-1.422 2.92517,-3.1248 4.24108,-3.8795 1.70606,-0.9786 3.95616,-1.3491 5.76804,-0.9499 1.10675,0.2438 2.68371,0.9728 3.47291,1.6053 0.28311,0.2269 0.54889,0.4253 0.59061,0.4408 0.0417,0.015 1.49001,-5.2314 3.2184,-11.6599 1.7284,-6.4285 3.22144,-11.8086 3.31789,-11.9557 0.12891,-0.1967 0.35603,-0.3096 0.8577,-0.4267 0.61862,-0.1444 8.18063,-2.3426 11.23609,-3.2663 l 1.24712,-0.377 1.44656,-2.8212 1.44656,-2.8213 3.07133,-1.7732 3.07132,-1.7732 0.40517,0.7018 c 0.32764,0.5674 0.37194,0.7357 0.23152,0.879 -0.0955,0.098 -1.26634,1.0775 -2.60183,2.1776 l -2.42816,2.0004 -0.64903,3.0249 c -0.44223,2.061 -0.71927,3.042 -0.86947,3.0787 -0.12123,0.03 -2.81369,0.9356 -5.98324,2.0134 -3.8779,1.3186 -5.87647,2.057 -6.1103,2.2576 -0.27981,0.2401 -0.66329,1.4776 -1.96908,6.3543 -0.89187,3.3309 -1.58637,6.0612 -1.54333,6.0673 0.043,0.01 4.34791,-0.4391 9.56638,-0.9893 5.21846,-0.5502 9.53322,-0.9761 9.58835,-0.9464 0.17168,0.092 0.0836,1.9669 -0.0939,1.9972 -0.0924,0.016 -4.75431,1.2929 -10.35983,2.838 l -10.19183,2.8093 -0.33164,0.9393 c -2.30962,6.5412 -3.46836,9.7676 -3.51857,9.7972 -0.0336,0.02 -0.92565,-0.1974 -1.98248,-0.4825 l -1.92151,-0.5184 -0.22159,-1.1228 c -0.3167,-1.6046 -1.22076,-3.2105 -2.14077,-3.8027 -0.78882,-0.5077 -2.14214,-0.7439 -3.22542,-0.5629 -1.07942,0.1804 -2.37634,0.9244 -3.15837,1.812 l -0.57539,0.6531 -0.82345,-0.1479 c -0.4529,-0.081 -1.19847,-0.2538 -1.65683,-0.3835 l -0.83337,-0.2356 z m 8.55626,16.8115 -1.39357,-2.4137 -1.39358,-2.4138 -0.71539,0 c -2.5674,-0.017 -4.64439,-2.4676 -4.31163,-5.088 0.33488,-2.637 3.01921,-4.4636 5.55939,-3.783 2.86371,0.7673 4.29366,4.0095 2.86291,6.4911 l -0.40891,0.7092 1.37904,2.3977 1.37907,2.3977 m 7.45236,-4.3026 -0.40238,-0.697 -0.40237,-0.6969 0.65082,-1.8095 0.65083,-1.8094 2.98561,-1.7266 2.98562,-1.7267 1.02443,1.7744 1.02444,1.7744 m 4.96824,-2.8685 -1.09273,-1.8926 -1.09273,-1.8927 8.74226,-5.0473 8.74225,-5.0474 1.63076,0.2715 c 0.89693,0.1493 1.70244,0.3053 1.79002,0.3466 0.0876,0.041 0.38287,0.4606 0.6562,0.9317 l 0.49694,0.8566 m 12.7755,-7.3759 -2.05672,-3.5624 -2.05673,-3.5624 -0.20211,0.4012 c -2.34525,4.6552 -3.36011,6.6 -3.4337,6.5803 -0.20341,-0.055 -15.64308,-8.9588 -15.6285,-9.0132 0.009,-0.032 1.27911,0.065 2.82314,0.2167 1.54403,0.1516 2.84054,0.2351 2.88115,0.1855 0.0406,-0.05 0.72316,-3.854 1.51681,-8.4544 l 1.44299,-8.3644 2.11014,-1.2183 2.11016,-1.2183 7.37593,12.7755 7.37593,12.7755 m 33.00335,-19.0545 -0.29062,-0.5025 c -1.5035,-2.5993 -4.97882,-6.7118 -7.72553,-9.142 -9.83311,-8.7 -21.91545,-10.7962 -34.96467,-6.0663 -3.66396,1.3281 -4.2384,1.6191 -13.36244,6.7691 -8.31794,4.6949 -8.72795,4.913 -9.73077,5.1741 -1.99905,0.5204 -2.91644,0.4767 -6.90689,-0.3291 -3.37023,-0.6805 -6.04894,-0.7249 -8.06182,-0.1335 -1.08262,0.318 -3.58852,1.7194 -4.62919,2.5887 -2.33704,1.9523 -3.33086,3.6628 -6.35455,10.9372 -0.90778,2.1839 -1.8643,4.4815 -2.12561,5.1058 l -0.47511,1.135 -0.77387,0.042 c -1.05847,0.058 -2.03826,0.3855 -2.39731,0.8018 -0.27762,0.3218 -1.01578,1.9991 -3.40908,7.7462 -0.67248,1.6148 -1.27011,3.0208 -1.32806,3.1244 -0.0737,0.1317 -0.67099,0.041 -1.9889,-0.3033 l -1.88353,-0.4916 m -13.87733,24.6119 c 1.09546,1.1013 4.07401,4.3638 4.05359,4.4401 -0.0145,0.054 -2.86601,2.3002 -6.3367,4.9914 l -6.31035,4.8932 m 3.90054,6.756 -0.0107,-1.0548 c -0.0196,-1.9371 -0.35151,-1.5214 3.3177,-4.156 1.77587,-1.2751 5.09953,-3.6267 7.3859,-5.2259 2.28637,-1.5992 4.16328,-2.9202 4.17093,-2.9357 0.008,-0.015 -0.21228,-0.7476 -0.4887,-1.6268 -1.07932,-3.4331 -1.60045,-7.0009 -1.23825,-8.4774 l 0.17736,-0.7231 1.4086,-0.927 c 0.77473,-0.5099 1.44992,-0.916 1.50041,-0.9025 0.0505,0.014 0.22955,0.6387 0.3979,1.3893 0.37136,1.6557 1.15854,4.0521 1.97833,6.0227 0.5122,1.2312 2.32253,4.9878 2.83937,5.8919 l 0.15249,0.2668 m -14.41589,-31.2584 c 0.69961,-1.6321 1.24354,-4.0957 1.23924,-5.6127 -0.006,-1.9667 -0.80973,-4.1006 -2.0614,-5.4702 -0.76456,-0.8365 -2.18432,-1.8377 -3.1267,-2.2049 -0.33807,-0.1318 -0.64274,-0.2628 -0.67706,-0.2911 -0.0343,-0.028 3.78555,-3.9061 8.4886,-8.6172 4.70306,-4.7111 8.61579,-8.6941 8.69498,-8.8512 0.10584,-0.21 0.0901,-0.4632 -0.0593,-0.9562 -0.18431,-0.6079 -2.06156,-8.2559 -2.78934,-11.3638 l -0.29706,-1.2686 1.71997,-2.6634 1.71996,-2.6633 0,-3.5465 0,-3.5464 -0.81034,0 c -0.65529,0 -0.82311,0.046 -0.87705,0.239 -0.0367,0.1315 -0.29992,1.6354 -0.58496,3.342 l -0.51825,3.1031 -2.29513,2.0745 c -1.56382,1.4135 -2.27487,2.1439 -2.23153,2.2923 0.035,0.1198 0.59658,2.9046 1.24799,6.1884 0.797,4.0176 1.15678,6.1177 1.09998,6.4204 -0.068,0.3624 -0.94797,1.3133 -4.51842,4.8825 -2.43871,2.4378 -4.45595,4.4044 -4.48277,4.3702 -0.0268,-0.034 -1.79373,-3.9849 -3.92647,-8.7794 -2.13274,-4.7944 -3.92129,-8.744 -3.97454,-8.777 -0.16583,-0.1024 -1.74519,0.9111 -1.68271,1.08 0.0325,0.088 1.25749,4.7638 2.72214,10.3908 l 2.66298,10.2311 -0.64759,0.7568 c -4.51007,5.2708 -6.72486,7.8875 -6.72533,7.9458 -2.7e-4,0.039 0.63378,0.7029 1.40911,1.4756 l 1.40968,1.4049 1.08311,-0.3695 c 1.54798,-0.528 3.39079,-0.548 4.36364,-0.047 0.83415,0.4293 1.71535,1.4832 2.10022,2.5119 0.3835,1.0249 0.38757,2.5202 0.01,3.6412 l -0.27787,0.8248 0.53976,0.6392 c 0.29686,0.3516 0.8191,0.911 1.16054,1.2431 l 0.6208,0.6039 z m -18.83731,0.9958 2.78714,0 2.78714,0 0.36172,0.6172 c 1.29813,2.2151 4.45921,2.7884 6.5621,1.19 2.11631,-1.6085 2.35605,-4.8465 0.49651,-6.706 -2.09638,-2.0964 -5.61912,-1.7137 -7.05289,0.7661 l -0.40978,0.7088 -2.76597,0 -2.76597,0 m 0,-8.6053 0.80476,0 0.80475,0 1.24161,-1.4683 1.24161,-1.4684 0.002,-3.4489 0.002,-3.449 -2.04887,0 -2.04887,0 m 0,-5.7368 2.18546,0 2.18547,0 0,-10.0947 0,-10.0947 -1.05051,-1.2765 c -0.57777,-0.7021 -1.1156,-1.3217 -1.19517,-1.3769 -0.0796,-0.055 -0.5903,-0.1013 -1.13496,-0.1024 l -0.99029,0 m 0,-14.7519 4.11345,0 4.11345,0 -0.24638,0.3756 c -2.85885,4.3586 -4.03572,6.21 -3.98184,6.2639 0.1489,0.1489 15.58006,9.0679 15.61989,9.028 0.0238,-0.024 -0.69589,-1.0752 -1.5992,-2.3365 -0.90332,-1.2614 -1.62388,-2.3425 -1.60125,-2.4024 0.0226,-0.06 2.97614,-2.5533 6.56337,-5.5408 l 6.52224,-5.4319 0,-2.4366 0,-2.4366 -14.75186,0 -14.75187,0 m 0,-38.109 0.58052,5e-4 c 3.0028,0 8.30201,0.9558 11.77997,2.1195 12.45097,4.1657 20.30753,13.5812 22.73587,27.2471 0.68182,3.8371 0.71704,4.4801 0.81905,14.9568 0.093,9.551 0.10921,10.0151 0.3845,11.0141 0.54877,1.9915 1.04531,2.7641 3.73838,5.817 2.27449,2.5785 3.65228,4.8761 4.14658,6.915 0.26586,1.0966 0.30521,3.9674 0.0727,5.3034 -0.52217,3 -1.50662,4.7159 -6.29458,10.9717 -1.43746,1.8782 -2.949,3.8554 -3.35898,4.3938 l -0.74542,0.979 0.35032,0.6913 c 0.47916,0.9456 0.68528,1.9579 0.50433,2.477 -0.1399,0.4013 -1.22339,1.8792 -5.00389,6.8255 -1.06226,1.3898 -1.98105,2.6103 -2.04175,2.7123 -0.0772,0.1297 0.30028,0.6014 1.25709,1.5708 l 1.36746,1.3854 m -14.37581,24.324 c -1.50148,-0.398 -5.81622,-1.3462 -5.87203,-1.2904 -0.0396,0.039 -0.55904,3.6321 -1.15437,7.9834 l -1.08242,7.9115 m -7.80119,10e-5 0.91883,-0.5181 c 1.68746,-0.9516 1.49337,-0.4564 1.94034,-4.9513 0.21633,-2.1755 0.5911,-6.2297 0.83284,-9.0093 0.24173,-2.7796 0.44736,-5.0656 0.45696,-5.08 0.01,-0.014 0.75353,-0.1899 1.65319,-0.3902 3.51278,-0.7818 6.86312,-2.1144 7.96077,-3.1663 l 0.53749,-0.5151 0.0986,-1.6834 c 0.0542,-0.9259 0.0683,-1.7137 0.0314,-1.7507 -0.037,-0.037 -0.66791,0.1206 -1.40209,0.3501 -1.61959,0.5062 -4.08856,1.0227 -6.205,1.298 -1.32234,0.1721 -5.4808,0.4826 -6.52223,0.487 l -0.30733,0 m -18.831,-12.0597 c -0.69961,-1.6321 -1.24354,-4.0957 -1.23923,-5.6127 0.006,-1.9667 0.80973,-4.1006 2.06139,-5.4702 0.76456,-0.8365 2.18432,-1.8377 3.1267,-2.2049 0.33807,-0.1318 0.64275,-0.2628 0.67707,-0.2911 0.0343,-0.028 -3.78555,-3.9061 -8.48861,-8.6172 -4.70305,-4.7111 -8.61579,-8.6941 -8.69497,-8.8512 -0.10585,-0.21 -0.0901,-0.4632 0.0593,-0.9562 0.1843,-0.6079 2.06155,-8.2559 2.78934,-11.3638 l 0.29705,-1.2686 -1.71996,-2.6634 -1.71997,-2.6633 0,-3.5465 0,-3.5464 0.81035,0 c 0.65528,0 0.8231,0.046 0.87704,0.239 0.0367,0.1315 0.29992,1.6354 0.58496,3.342 l 0.51826,3.1031 2.29513,2.0745 c 1.56381,1.4135 2.27486,2.1439 2.23152,2.2923 -0.035,0.1198 -0.59658,2.9046 -1.24799,6.1884 -0.797,4.0176 -1.15678,6.1177 -1.09997,6.4204 0.068,0.3624 0.94796,1.3133 4.51842,4.8825 2.4387,2.4378 4.45594,4.4044 4.48276,4.3702 0.0268,-0.034 1.79373,-3.9849 3.92648,-8.7794 2.13274,-4.7944 3.92128,-8.744 3.97453,-8.777 0.16583,-0.1024 1.74519,0.9111 1.68271,1.08 -0.0325,0.088 -1.25749,4.7638 -2.72213,10.3908 l -2.66299,10.2311 0.64759,0.7568 c 4.51008,5.2708 6.72486,7.8875 6.72533,7.9458 2.8e-4,0.039 -0.63378,0.7029 -1.40911,1.4756 l -1.40968,1.4049 -1.08311,-0.3695 c -1.54797,-0.528 -3.39078,-0.548 -4.36364,-0.047 -0.83414,0.4293 -1.71535,1.4832 -2.10022,2.5119 -0.3835,1.0249 -0.38757,2.5202 -0.01,3.6412 l 0.27787,0.8248 -0.53975,0.6392 c -0.29687,0.3516 -0.81911,0.911 -1.16055,1.2431 l -0.62079,0.6039 z m 18.83732,0.9958 -2.78715,0 -2.78714,0 -0.36171,0.6172 c -1.29814,2.2151 -4.45922,2.7884 -6.56211,1.19 -2.11631,-1.6085 -2.35604,-4.8465 -0.49651,-6.706 2.09639,-2.0964 5.61912,-1.7137 7.0529,0.7661 l 0.40977,0.7088 2.76597,0 2.76598,0 m 0,-8.6053 -0.80476,0 -0.80476,0 -1.24161,-1.4683 -1.24161,-1.4684 -0.002,-3.4489 -0.002,-3.449 2.04887,0 2.04887,0 m 0,-5.7368 -2.18546,0 -2.18546,0 0,-10.0947 0,-10.0947 1.0505,-1.2765 c 0.57777,-0.7021 1.1156,-1.3217 1.19517,-1.3769 0.0796,-0.055 0.5903,-0.1013 1.13496,-0.1024 l 0.99029,0 m 0,-14.7519 -4.11345,0 -4.11345,0 0.24638,0.3756 c 2.85885,4.3586 4.03572,6.21 3.98184,6.2639 -0.1489,0.1489 -15.58006,9.0679 -15.61988,9.028 -0.0238,-0.024 0.69588,-1.0752 1.5992,-2.3365 0.90331,-1.2614 1.62387,-2.3425 1.60125,-2.4024 -0.0226,-0.06 -2.97615,-2.5533 -6.56338,-5.5408 l -6.52223,-5.4319 0,-2.4366 0,-2.4366 14.75186,0 14.75186,0 m 0,-38.109 -0.58051,5e-4 c -3.00281,0 -8.30202,0.9558 -11.77998,2.1195 -12.45096,4.1657 -20.30753,13.5812 -22.73586,27.2471 -0.68183,3.8371 -0.71704,4.4801 -0.81906,14.9568 -0.093,9.551 -0.10921,10.0151 -0.3845,11.0141 -0.54877,1.9915 -1.04531,2.7641 -3.73837,5.817 -2.27449,2.5785 -3.65228,4.8761 -4.14659,6.915 -0.26586,1.0966 -0.30521,3.9674 -0.0727,5.3034 0.52218,3 1.50662,4.7159 6.29458,10.9717 1.43746,1.8782 2.949,3.8554 3.35898,4.3938 l 0.74542,0.979 -0.35032,0.6913 c -0.47916,0.9456 -0.68528,1.9579 -0.50433,2.477 0.13991,0.4013 1.22339,1.8792 5.00389,6.8255 1.06227,1.3898 1.98106,2.6103 2.04176,2.7123 0.0772,0.1297 -0.30029,0.6014 -1.2571,1.5708 l -1.36745,1.3854 m 14.3758,24.324 c 1.50148,-0.398 5.81623,-1.3462 5.87203,-1.2904 0.0396,0.039 0.55904,3.6321 1.15438,7.9834 l 1.08241,7.9115 m 7.80119,1e-4 -0.91883,-0.5181 c -1.68746,-0.9516 -1.49337,-0.4564 -1.94033,-4.9513 -0.21633,-2.1755 -0.59111,-6.2297 -0.83284,-9.0093 -0.24173,-2.7796 -0.44737,-5.0656 -0.45696,-5.08 -0.01,-0.014 -0.75354,-0.1899 -1.6532,-0.3902 -3.51278,-0.7818 -6.86312,-2.1144 -7.96076,-3.1663 l -0.5375,-0.5151 -0.0986,-1.6834 c -0.0542,-0.9259 -0.0683,-1.7137 -0.0314,-1.7507 0.037,-0.037 0.6679,0.1206 1.40208,0.3501 1.61959,0.5062 4.08856,1.0227 6.205,1.298 1.32234,0.1721 5.4808,0.4826 6.52224,0.487 l 0.30733,0"
     inkscape:connector-curvature="0" />
</svg>
