<?xml version="1.0" encoding="UTF-8" standalone="no"?>
<!-- Created with Inkscape (http://www.inkscape.org/) -->

<svg
   xmlns:dc="http://purl.org/dc/elements/1.1/"
   xmlns:cc="http://creativecommons.org/ns#"
   xmlns:rdf="http://www.w3.org/1999/02/22-rdf-syntax-ns#"
   xmlns:svg="http://www.w3.org/2000/svg"
   xmlns="http://www.w3.org/2000/svg"
   xmlns:sodipodi="http://sodipodi.sourceforge.net/DTD/sodipodi-0.dtd"
   xmlns:inkscape="http://www.inkscape.org/namespaces/inkscape"
   id="svg5788"
   version="1.1"
   inkscape:version="0.91 r"
   width="1232"
   height="1270"
   viewBox="0 0 1232 1270"
   sodipodi:docname="snowflake-B-wing-000.svg">
  <metadata
     id="metadata5794">
    <rdf:RDF>
      <cc:Work
         rdf:about="">
        <dc:format>image/svg+xml</dc:format>
        <dc:type
           rdf:resource="http://purl.org/dc/dcmitype/StillImage" />
        <dc:title />
      </cc:Work>
    </rdf:RDF>
  </metadata>
  <defs
     id="defs5792" />
  <sodipodi:namedview
     pagecolor="#ffffff"
     bordercolor="#666666"
     borderopacity="1"
     objecttolerance="10"
     gridtolerance="10"
     guidetolerance="10"
     inkscape:pageopacity="0"
     inkscape:pageshadow="2"
     inkscape:window-width="1600"
     inkscape:window-height="843"
     id="namedview5790"
     showgrid="false"
     inkscape:zoom="1.7361753"
     inkscape:cx="214.35592"
     inkscape:cy="1028.1352"
     inkscape:window-x="0"
     inkscape:window-y="0"
     inkscape:window-maximized="1"
     inkscape:current-layer="svg5788"
     showguides="true"
     inkscape:guide-bbox="true"
     inkscape:object-nodes="true"
     inkscape:snap-center="true">
    <sodipodi:guide
       position="636.7215,-146.93573"
       orientation="0,1"
       id="guide3333" />
    <sodipodi:guide
       position="636.7215,-146.93573"
       orientation="1,0"
       id="guide3335" />
  </sodipodi:namedview>
  <path
     id="path3349"
     style="fill:none;stroke:#00ff00;stroke-opacity:1;stroke-width:0.70866142;stroke-miterlimit:4;stroke-dasharray:none"
     d="m 250.35413,241.86081 -2.86201,2.8641 -4e-5,0 -2.862,2.8641 -0.57939,-0.291 c -1.6635,-0.8355 -3.77479,-0.3275 -4.74854,1.1426 -0.61383,0.9267 -0.83948,1.8329 -0.66475,2.6697 0.078,0.3734 0.28938,0.902 0.46978,1.1746 l 0.32799,0.4956 m -2.79263,2.7804 -0.75858,-0.8009 c -1.74595,-1.8434 -3.29934,-4.2398 -4.34692,-6.7059 -0.51796,-1.2194 -0.61966,-1.3763 -0.89191,-1.3763 -0.41085,0 -0.9812,0.8583 -1.38055,2.0776 -0.27318,0.8341 -0.30205,1.1282 -0.29348,2.9895 0.0136,2.9541 0.38684,4.797 1.38489,6.838 0.2407,0.4923 0.63953,1.1309 0.88627,1.4191 l 0.44862,0.5242 m -62.47018,62.4701 -1.97126,-1.9629 -1.97127,-1.963 -2.90893,0 c -1.5999,0 -2.90892,0.037 -2.90892,0.086 0,0.05 1.52052,1.6116 3.37893,3.4709 l 3.37887,3.3806 m -2.38055,2.3707 -3.87734,-3.8756 -3.87734,-3.8756 -1.69006,1.6866 -1.69008,1.6865 3.87971,3.8815 3.87972,3.8815 m -2.56946,2.4366 c -0.068,0 -1.83998,-1.717 -3.93772,-3.8156 l -3.81395,-3.8157 -1.7845,1.7813 -1.7845,1.7813 3.87936,3.8812 3.87935,3.8811 m -3.37986,3.373 -3.06494,-3.063 c -1.68606,-1.6843 -3.07116,-3.0353 -3.07879,-3.0015 -0.008,0.034 -0.19611,1.1032 -0.41888,2.3763 l -0.40503,2.3146 2.07588,2.0963 2.07589,2.0963 m -11.25875,11.2518 -0.80862,-0.403 c -0.71551,-0.3565 -0.92444,-0.4021 -1.81417,-0.3957 -1.25026,0.01 -1.91807,0.3017 -2.78678,1.2221 -0.90946,0.9635 -1.31961,1.895 -1.38085,3.1362 -0.0462,0.9366 -0.0206,1.072 0.33373,1.7651 l 0.38379,0.7507 m -3.38179,3.3781 -0.25058,-0.3128 c -0.34702,-0.4332 -0.98243,-1.6844 -1.24931,-2.4601 -0.47505,-1.3808 -0.42433,-2.658 0.13669,-3.4423 l 0.23947,-0.3348 -0.34097,-0.07 c -1.25952,-0.2592 -6.13057,-0.8239 -7.10797,-0.8239 -2.07173,0 -2.47555,0.3474 -3.9968,3.4386 -1.12707,2.2903 -1.74263,3.9879 -2.20106,6.0701 -0.38047,1.7281 -0.41153,4.6028 -0.0642,5.9429 0.29933,1.155 1.18848,2.9768 1.82324,3.7358 0.27964,0.3344 0.50843,0.6448 0.50843,0.6898 m -3.6066,3.4701 c -0.21971,-0.1358 -1.24711,-1.7467 -1.51995,-2.3832 -0.84436,-1.9698 -1.16465,-3.7193 -1.16964,-6.3883 -0.004,-2.3332 0.23336,-4.1086 0.85256,-6.3679 1.25357,-4.5739 3.34262,-8.1661 6.50473,-11.1851 4.64521,-4.4351 10.29878,-5.9488 16.43239,-4.3998 l 1.4525,0.3669 2.31571,-2.4067 c 1.27365,-1.3236 2.79334,-2.9007 3.37711,-3.5046 l 1.06139,-1.098 -0.79312,-1.6014 -0.79311,-1.6013 2.14727,-7.1222 2.14729,-7.1221 0.7868,-0.7893 0.78679,-0.7893 -0.31782,-0.6422 c -0.42805,-0.8649 -0.44112,-2.1554 -0.0298,-2.9466 0.63662,-1.2248 2.91377,-2.013 4.22849,-1.4636 0.57546,0.2404 0.55986,0.2464 0.40688,-0.156 -0.19311,-0.5079 -0.15345,-1.8904 0.0725,-2.5299 0.10862,-0.3074 0.33365,-0.7912 0.50005,-1.0752 0.90655,-1.5469 3.40708,-2.2763 4.72873,-1.3794 0.36206,0.2457 0.65513,0.3027 1.95434,0.3802 0.84062,0.05 2.82014,0.05 4.39891,0 l 2.87048,-0.091 0,-0.9643 0,-0.9642 -2.84473,-0.3969 c -2.17061,-0.3028 -2.89349,-0.4483 -3.0505,-0.6139 -0.11318,-0.1194 -6.75199,-8.7468 -14.75293,-19.172 -8.00096,-10.4252 -14.58129,-18.9948 -14.62298,-19.0435 -0.0417,-0.049 -0.89172,0.2168 -1.88897,0.59 -0.99724,0.3732 -1.94207,0.6805 -2.09965,0.6829 -0.98933,0.015 -3.8423,-2.3978 -4.1149,-3.4797 -0.11256,-0.4468 0.24254,-2.1091 0.63247,-2.9608 l 0.31586,-0.6899 -0.61466,-0.8121 c -0.66699,-0.8812 -0.93727,-1.626 -0.82999,-2.2871 0.23749,-1.4635 1.93768,-3.269 3.08355,-3.2746 0.51296,0 1.51757,0.5394 2.26153,1.2199 l 0.6976,0.6381 0.46061,-0.4606 0.46061,-0.4606 3.28153,3.2815 3.28154,3.2816 -0.87397,0.8876 -0.87397,0.8876 3.01321,2.9612 c 1.65725,1.6287 9.3207,9.1974 17.02988,16.8195 l 14.01668,13.8582 0.71729,2.5318 c 0.51698,1.8248 0.79884,2.6159 1.0093,2.8331 l 0.29198,0.3014 2.5422,-2.3797 c 1.39823,-1.3085 7.63079,-7.1423 13.85016,-12.9638 l 11.30795,-10.5844 0.45285,0.19 c 0.24907,0.1046 0.84696,0.2997 1.32865,0.4338 l 0.8758,0.2436 1.00092,-0.6839 c 1.33396,-0.9115 4.06628,-3.2093 5.65814,-4.7583 l 1.28797,-1.2533 -2.5e-4,-1.4388 -2.5e-4,-1.4388 6.2133,-5.1923 c 3.4173,-2.8557 6.30695,-5.2592 6.42141,-5.341 0.11448,-0.082 1.30145,-0.302 2.63774,-0.4895 1.33627,-0.1874 2.45445,-0.3612 2.48483,-0.3861 0.0304,-0.025 -0.24974,-0.3541 -0.62246,-0.7315 l -0.67769,-0.6862 1.46413,-1.4689 1.46415,-1.469 -0.13555,-1.5639 c -0.18554,-2.1411 -0.0694,-8.202 0.17569,-9.1651 0.31048,-1.2203 1.08014,-2.1516 4.02622,-4.8717 l 1.87115,-1.7277 m 19.02656,0 -2.86413,2.862 3e-5,1e-4 -2.86413,2.862 0.29101,0.5794 c 0.83552,1.6635 0.32752,3.7748 -1.14256,4.7485 -0.92671,0.6138 -1.83294,0.8395 -2.66967,0.6647 -0.37347,-0.078 -0.90207,-0.2893 -1.17464,-0.4697 l -0.49563,-0.328 m -2.78042,2.7926 0.80092,0.7586 c 1.84342,1.7459 4.23985,3.2993 6.70596,4.3469 1.21935,0.518 1.37626,0.6197 1.37626,0.8919 0,0.4109 -0.85832,0.9812 -2.07764,1.3806 -0.8341,0.2731 -1.12819,0.302 -2.98951,0.2935 -2.9541,-0.014 -4.79696,-0.3869 -6.83796,-1.3849 -0.49226,-0.2407 -1.13087,-0.6396 -1.41913,-0.8863 l -0.52412,-0.4486 m -62.47018,62.4701 1.96295,1.9713 1.96295,1.9713 0.004,2.9089 c 0.002,1.5999 -0.0365,2.9089 -0.0861,2.9089 -0.0496,0 -1.61153,-1.5205 -3.47086,-3.3789 l -3.38064,-3.3789 m -2.37064,2.3806 3.87557,3.8773 3.87556,3.8773 -1.68653,1.6901 -1.68654,1.6901 -3.88148,-3.8797 -3.88149,-3.8797 m -2.43665,2.5694 c -1e-5,0.068 1.71702,1.84 3.81561,3.9377 l 3.81572,3.814 -1.78132,1.7845 -1.78131,1.7845 -3.88112,-3.8794 -3.88113,-3.8793 m -3.37296,3.3798 3.06299,3.065 c 1.68429,1.686 3.03529,3.0711 3.00141,3.0788 -0.0339,0.01 -1.10318,0.1961 -2.37622,0.4189 l -2.31463,0.405 -2.09628,-2.0759 -2.09628,-2.0759 m -11.25185,11.2588 0.40297,0.8086 c 0.35656,0.7155 0.40214,0.9244 0.39579,1.8142 -0.009,1.2502 -0.30179,1.918 -1.22215,2.7867 -0.96353,0.9095 -1.89504,1.3196 -3.13615,1.3809 -0.93662,0.046 -1.07206,0.021 -1.76515,-0.3337 l -0.7507,-0.3838 m -3.37807,3.3818 0.31279,0.2505 c 0.43318,0.3471 1.68441,0.9825 2.46011,1.2493 1.38076,0.4751 2.65795,0.4244 3.4423,-0.1366 l 0.33481,-0.2395 0.0702,0.341 c 0.25923,1.2595 0.82399,6.1305 0.82399,7.1079 0,2.0718 -0.34743,2.4756 -3.43868,3.9968 -2.29029,1.1271 -3.98784,1.7426 -6.07004,2.2011 -1.72813,0.3805 -4.60278,0.4115 -5.94296,0.064 -1.15495,-0.2993 -2.9768,-1.1885 -3.73578,-1.8232 -0.33436,-0.2797 -0.64478,-0.5085 -0.68981,-0.5085 m -3.47007,3.6066 c 0.13578,0.2197 1.74672,1.2471 2.38324,1.52 1.9698,0.8443 3.71922,1.1646 6.38823,1.1696 2.33321,0 4.10864,-0.2333 6.36791,-0.8525 4.5739,-1.2536 8.16612,-3.3427 11.18517,-6.5048 4.43505,-4.6452 5.94877,-10.2988 4.3997,-16.4324 l -0.36683,-1.4525 2.40664,-2.3157 c 1.32366,-1.2736 2.90075,-2.7933 3.50465,-3.3771 l 1.09801,-1.0614 1.60137,0.7931 1.60137,0.7932 7.12213,-2.1473 7.12215,-2.1473 0.78927,-0.7868 0.78927,-0.7868 0.64219,0.3178 c 0.86495,0.4281 2.15538,0.4411 2.94662,0.03 1.22476,-0.6367 2.01296,-2.9138 1.46364,-4.2285 -0.24045,-0.5755 -0.24643,-0.5599 0.15597,-0.4069 0.50788,0.1931 1.89036,0.1535 2.5299,-0.073 0.3074,-0.1087 0.79123,-0.3337 1.07517,-0.5001 1.54691,-0.9065 2.27635,-3.4071 1.37945,-4.7287 -0.2457,-0.3621 -0.30273,-0.6552 -0.38026,-1.9544 -0.0502,-0.8406 -0.0503,-2.8201 -2.5e-4,-4.3989 l 0.0909,-2.8705 0.96427,0 0.96426,0 0.39685,2.8448 c 0.30279,2.1706 0.44828,2.8935 0.61394,3.0505 0.11938,0.1132 8.7468,6.752 19.172,14.7529 10.42519,8.001 18.99476,14.5813 19.04348,14.623 0.0487,0.042 -0.21679,0.8917 -0.59002,1.8889 -0.37321,0.9973 -0.6805,1.9421 -0.68287,2.0997 -0.0148,0.9893 2.39774,3.8423 3.4797,4.1149 0.44671,0.1125 2.10908,-0.2425 2.96078,-0.6325 l 0.68992,-0.3158 0.81206,0.6146 c 0.88122,0.667 1.62601,0.9373 2.28711,0.83 1.46346,-0.2375 3.26899,-1.9377 3.27459,-3.0835 0.002,-0.513 -0.5394,-1.5176 -1.21992,-2.2616 l -0.63809,-0.6976 0.46061,-0.4606 0.46062,-0.4606 -3.28155,-3.2815 -3.28154,-3.2816 -0.8876,0.874 -0.88758,0.874 -2.96122,-3.0132 c -1.62868,-1.6573 -9.19746,-9.3207 -16.81949,-17.0299 l -13.85827,-14.0167 -2.53179,-0.7173 c -1.82474,-0.517 -2.61592,-0.7988 -2.83309,-1.0093 l -0.30134,-0.2919 2.37964,-2.5422 c 1.30881,-1.3983 7.14262,-7.6308 12.96404,-13.8502 l 10.58441,-11.308 -0.19001,-0.4528 c -0.10451,-0.2491 -0.29968,-0.847 -0.43372,-1.3287 l -0.24369,-0.8758 0.68394,-1.0009 c 0.91151,-1.3339 3.20931,-4.0663 4.75831,-5.6581 l 1.25331,-1.288 1.43881,0 1.43882,0 5.19227,-6.2133 c 2.85574,-3.4173 5.25916,-6.3069 5.34093,-6.4214 0.0818,-0.1145 0.30207,-1.3014 0.48952,-2.6377 0.18746,-1.3363 0.36124,-2.4545 0.38616,-2.4848 0.0249,-0.03 0.3541,0.2497 0.73152,0.6224 l 0.68619,0.6777 1.46892,-1.4641 1.46892,-1.4642 1.56393,0.1356 c 2.14105,0.1855 8.202,0.069 9.16513,-0.1757 1.22031,-0.3105 2.15159,-1.0802 4.8717,-4.0262 l 1.72765,-1.8712 m 0.002,-19.0284 2.86413,2.862 -3e-5,1e-4 2.86413,2.862 -0.29101,0.5793 c -0.83552,1.6636 -0.32753,3.7748 1.14255,4.7486 0.92671,0.6138 1.83294,0.8395 2.66968,0.6647 0.37346,-0.078 0.90206,-0.2893 1.17464,-0.4697 l 0.49563,-0.328 m 2.78042,2.7926 -0.80092,0.7586 c -1.84343,1.7459 -4.23986,3.2993 -6.70596,4.3469 -1.21935,0.518 -1.37627,0.6197 -1.37626,0.8919 0,0.4109 0.85831,0.9812 2.07764,1.3805 0.8341,0.2732 1.1282,0.3021 2.98951,0.2935 2.95409,-0.014 4.79696,-0.3868 6.83796,-1.3849 0.49225,-0.2407 1.13087,-0.6395 1.41912,-0.8862 l 0.52412,-0.4486 m 62.47019,62.4701 -1.96295,1.9713 -1.96296,1.9713 -0.004,2.9089 c -0.002,1.5999 0.0365,2.9089 0.0861,2.9089 0.0496,0 1.61152,-1.5205 3.47086,-3.3789 l 3.38064,-3.3789 m 2.37064,2.3806 -3.87557,3.8773 -3.87557,3.8773 1.68653,1.6901 1.68654,1.6901 3.88149,-3.8797 3.88148,-3.8798 m 2.43667,2.5695 c 0,0.068 -1.71703,1.84 -3.81562,3.9377 l -3.81573,3.814 1.78133,1.7845 1.78131,1.7845 3.88112,-3.8794 3.88113,-3.8793 m 3.37296,3.3798 -3.06299,3.065 c -1.6843,1.686 -3.0353,3.0711 -3.00142,3.0788 0.0339,0.01 1.10319,0.1961 2.37622,0.4188 l 2.31464,0.4051 2.09628,-2.0759 2.09627,-2.0759 m 11.25185,11.2588 -0.40297,0.8086 c -0.35655,0.7155 -0.40213,0.9244 -0.39579,1.8141 0.009,1.2503 0.30179,1.9181 1.22215,2.7868 0.96353,0.9095 1.89504,1.3196 3.13615,1.3809 0.93663,0.046 1.07206,0.021 1.76516,-0.3338 l 0.75069,-0.3837 m 3.37808,3.3817 -0.31279,0.2506 c -0.43319,0.347 -1.68442,0.9824 -2.46012,1.2493 -1.38074,0.4751 -2.65794,0.4244 -3.4423,-0.1367 l -0.33481,-0.2394 -0.0702,0.3409 c -0.25924,1.2596 -0.824,6.1306 -0.824,7.108 0,2.0717 0.34744,2.4756 3.43868,3.9968 2.29029,1.1271 3.98785,1.7426 6.07004,2.2011 1.72814,0.3804 4.60279,0.4115 5.94297,0.064 1.15495,-0.2994 2.9768,-1.1885 3.73577,-1.8233 0.33437,-0.2796 0.64478,-0.5084 0.68981,-0.5084 m 3.47008,3.6066 c -0.13578,0.2197 -1.74672,1.2471 -2.38325,1.52 -1.96979,0.8443 -3.71921,1.1646 -6.38822,1.1696 -2.33321,0 -4.10865,-0.2334 -6.36791,-0.8526 -4.5739,-1.2535 -8.16612,-3.3426 -11.18517,-6.5047 -4.43506,-4.6452 -5.94877,-10.2988 -4.39971,-16.4324 l 0.36683,-1.4525 -2.40663,-2.3157 c -1.32367,-1.2736 -2.90075,-2.7933 -3.50466,-3.3771 l -1.09799,-1.0614 -1.60139,0.7931 -1.60135,0.7931 -7.12215,-2.1472 -7.12214,-2.1473 -0.78928,-0.7868 -0.78927,-0.7868 -0.64219,0.3178 c -0.86494,0.4281 -2.15538,0.4411 -2.94662,0.03 -1.22476,-0.6366 -2.01296,-2.9137 -1.46363,-4.2285 0.24043,-0.5754 0.24641,-0.5598 -0.15598,-0.4068 -0.50787,0.1931 -1.89035,0.1534 -2.5299,-0.073 -0.30739,-0.1086 -0.79122,-0.3336 -1.07517,-0.5 -1.54691,-0.9066 -2.27634,-3.4071 -1.37946,-4.7287 0.24572,-0.3621 0.30274,-0.6552 0.38028,-1.9544 0.0502,-0.8406 0.0503,-2.8201 0,-4.3989 l -0.091,-2.8705 -0.96426,0 -0.96428,0 -0.39684,2.8448 c -0.30279,2.1706 -0.44828,2.8935 -0.61395,3.0505 -0.11937,0.1132 -8.74679,6.7519 -19.17198,14.7529 -10.4252,8.001 -18.99477,14.5813 -19.04349,14.623 -0.0487,0.042 0.21679,0.8917 0.59001,1.8889 0.37322,0.9973 0.68051,1.9421 0.68288,2.0997 0.0148,0.9893 -2.39774,3.8423 -3.4797,4.1149 -0.44673,0.1125 -2.10908,-0.2426 -2.96078,-0.6325 l -0.68992,-0.3158 -0.81207,0.6146 c -0.88122,0.667 -1.62601,0.9373 -2.2871,0.83 -1.46347,-0.2375 -3.26899,-1.9377 -3.27459,-3.0835 -0.002,-0.513 0.5394,-1.5176 1.21991,-2.2616 l 0.63809,-0.6976 -0.4606,-0.4606 -0.46062,-0.4606 3.28155,-3.2815 3.28154,-3.2816 0.8876,0.874 0.88758,0.874 2.96122,-3.0132 c 1.62868,-1.6573 9.19745,-9.3207 16.8195,-17.0299 l 13.85826,-14.0167 2.53179,-0.7173 c 1.82473,-0.517 2.61592,-0.7988 2.83308,-1.0093 l 0.30136,-0.292 -2.37965,-2.5422 c -1.30879,-1.3982 -7.14261,-7.6307 -12.96404,-13.8501 l -10.58441,-11.308 0.19002,-0.4528 c 0.10451,-0.2491 0.29967,-0.847 0.43371,-1.3287 l 0.24369,-0.8758 -0.68393,-1.0009 c -0.91151,-1.3339 -3.20932,-4.0663 -4.75833,-5.6581 l -1.25329,-1.288 -1.43883,0 -1.43881,0 -5.19227,-6.2133 c -2.85574,-3.4173 -5.25915,-6.3069 -5.34094,-6.4214 -0.0818,-0.1145 -0.30206,-1.3015 -0.48952,-2.6377 -0.18745,-1.3363 -0.36123,-2.4545 -0.38615,-2.4849 -0.0249,-0.03 -0.35411,0.2498 -0.73152,0.6225 l -0.68618,0.6777 -1.46892,-1.4642 -1.46892,-1.4641 -1.56394,0.1355 c -2.14105,0.1856 -8.202,0.069 -9.16513,-0.1756 -1.2203,-0.3105 -2.15159,-1.0802 -4.87171,-4.0263 l -1.72763,-1.8711 m 0,-19.0266 2.86201,2.8642 2e-5,-1e-4 2.86201,2.8642 0.57939,-0.2911 c 1.66351,-0.8355 3.77479,-0.3275 4.74854,1.1426 0.61383,0.9267 0.83948,1.8329 0.66474,2.6697 -0.078,0.3734 -0.28937,0.902 -0.46976,1.1746 l -0.328,0.4956 m 2.79263,2.7805 0.75858,-0.8009 c 1.74595,-1.8435 3.29933,-4.2399 4.34692,-6.706 0.51796,-1.2194 0.61966,-1.3763 0.89191,-1.3763 0.41086,0 0.98119,0.8583 1.38054,2.0777 0.27319,0.8341 0.30207,1.1282 0.29349,2.9895 -0.0136,2.9541 -0.38684,4.7969 -1.38488,6.8379 -0.24071,0.4923 -0.63953,1.1309 -0.88628,1.4192 l -0.44862,0.5241 m 62.47019,62.4702 1.97126,-1.963 1.97126,-1.9629 2.90893,0 c 1.59989,0 2.90892,0.036 2.90892,0.086 0,0.05 -1.52052,1.6115 -3.37893,3.4708 l -3.37887,3.3807 m 2.38054,2.3706 3.87734,-3.8756 3.87735,-3.8755 1.69006,1.6865 1.69008,1.6865 -3.87971,3.8815 -3.87973,3.8815 m 2.56948,2.4367 c 0.068,0 1.83997,-1.7171 3.93771,-3.8156 l 3.81395,-3.8158 1.7845,1.7814 1.7845,1.7813 -3.87936,3.8811 -3.87935,3.8811 m 3.37985,3.373 3.06495,-3.063 c 1.68606,-1.6843 3.07116,-3.0353 3.07878,-3.0014 0.008,0.034 0.19612,1.1032 0.41888,2.3762 l 0.40504,2.3146 -2.07588,2.0963 -2.07589,2.0963 m 11.25876,11.2518 0.80861,-0.4029 c 0.71552,-0.3566 0.92445,-0.4022 1.81417,-0.3958 1.25027,0.01 1.91807,0.3018 2.78678,1.2221 0.90946,0.9636 1.3196,1.8951 1.38086,3.1362 0.0462,0.9366 0.0206,1.072 -0.33373,1.7651 l -0.38381,0.7507 m 3.3818,3.3781 0.25059,-0.3128 c 0.347,-0.4332 0.98243,-1.6844 1.2493,-2.4601 0.47506,-1.3808 0.42433,-2.6579 -0.13669,-3.4423 l -0.23947,-0.3348 0.34096,-0.07 c 1.25953,-0.2593 6.13058,-0.824 7.10798,-0.824 2.07172,0 2.47556,0.3474 3.99679,3.4387 1.12708,2.2902 1.74264,3.9878 2.20107,6.07 0.38046,1.7281 0.41153,4.6028 0.0642,5.943 -0.29933,1.1549 -1.18848,2.9768 -1.82325,3.7357 -0.27963,0.3344 -0.50842,0.6448 -0.50842,0.6899 m 3.60662,3.47 c 0.21968,-0.1358 1.24709,-1.7467 1.51993,-2.3832 0.84436,-1.9698 1.16465,-3.7192 1.16963,-6.3882 0.004,-2.3332 -0.23335,-4.1087 -0.85255,-6.3679 -1.25357,-4.5739 -3.34262,-8.1662 -6.50472,-11.1852 -4.64522,-4.4351 -10.2988,-5.9488 -16.4324,-4.3997 l -1.4525,0.3668 -2.31571,-2.4066 c -1.27365,-1.3237 -2.79334,-2.9008 -3.37712,-3.5047 l -1.06137,-1.098 0.79312,-1.6014 0.7931,-1.6013 -2.14727,-7.1222 -2.1473,-7.1221 -0.7868,-0.7893 -0.78678,-0.7893 0.31782,-0.6421 c 0.42804,-0.865 0.44113,-2.1554 0.0298,-2.9467 -0.63662,-1.2247 -2.91376,-2.0129 -4.22849,-1.4636 -0.57545,0.2404 -0.55985,0.2464 -0.40686,-0.156 0.1931,-0.5079 0.15345,-1.8903 -0.0725,-2.5299 -0.10863,-0.3074 -0.33365,-0.7912 -0.50005,-1.0751 -0.90654,-1.547 -3.40708,-2.2764 -4.72874,-1.3795 -0.36206,0.2457 -0.65511,0.3027 -1.95433,0.3803 -0.84062,0.05 -2.82013,0.05 -4.3989,0 l -2.8705,-0.091 0,-0.9642 0,-0.9643 2.84474,-0.3969 c 2.1706,-0.3028 2.89349,-0.4482 3.0505,-0.6139 0.11319,-0.1194 6.75198,-8.7468 14.75294,-19.172 8.00094,-10.4252 14.58127,-18.9948 14.62297,-19.0435 0.0417,-0.049 0.89172,0.2168 1.88896,0.59 0.99724,0.3732 1.94209,0.6805 2.09966,0.6829 0.98933,0.015 3.8423,-2.3977 4.11491,-3.4797 0.11254,-0.4467 -0.24255,-2.1091 -0.63248,-2.9608 l -0.31585,-0.6899 0.61465,-0.8121 c 0.667,-0.8812 0.93727,-1.626 0.82999,-2.2871 -0.23748,-1.4634 -1.93768,-3.269 -3.08355,-3.2746 -0.51296,0 -1.51757,0.5394 -2.26154,1.22 l -0.69759,0.638 -0.46061,-0.4606 -0.46061,-0.4606 -3.28153,3.2816 -3.28154,3.2815 0.87398,0.8876 0.87396,0.8876 -3.0132,2.9612 c -1.65726,1.6287 -9.32072,9.1975 -17.02989,16.8195 l -14.01668,13.8583 -0.71729,2.5318 c -0.51698,1.8247 -0.79885,2.6159 -1.00931,2.833 l -0.29196,0.3014 -2.54221,-2.3796 c -1.39822,-1.3088 -7.63078,-7.1427 -13.85015,-12.9641 l -11.30796,-10.5844 -0.45284,0.19 c -0.24907,0.1045 -0.84697,0.2997 -1.32866,0.4337 l -0.8758,0.2437 -1.00092,-0.6839 c -1.33395,-0.9115 -4.06627,-3.2093 -5.65813,-4.7583 l -1.28797,-1.2533 2.5e-4,-1.4388 2.5e-4,-1.4389 -6.2133,-5.1922 c -3.41731,-2.8558 -6.30694,-5.2592 -6.42141,-5.341 -0.11448,-0.082 -1.30145,-0.302 -2.63774,-0.4895 -1.33627,-0.1874 -2.45446,-0.3612 -2.48483,-0.3861 -0.0304,-0.025 0.24973,-0.3542 0.62246,-0.7316 l 0.6777,-0.6862 -1.46414,-1.4689 -1.46414,-1.4689 0.13553,-1.5639 c 0.18554,-2.1411 0.0694,-8.202 -0.17568,-9.1652 -0.31047,-1.2203 -1.08014,-2.1516 -4.02622,-4.8717 l -1.87114,-1.7276 m -19.02842,0 2.86201,-2.8641 4e-5,0 2.862,-2.8641 0.57939,0.291 c 1.6635,0.8355 3.77479,0.3275 4.74854,-1.1426 0.61383,-0.9267 0.83948,-1.8329 0.66475,-2.6696 -0.078,-0.3735 -0.28938,-0.9021 -0.46978,-1.1747 l -0.32799,-0.4956 m 2.79263,-2.7804 0.75858,0.8009 c 1.74595,1.8434 3.29933,4.2399 4.34692,6.706 0.51796,1.2193 0.61966,1.3762 0.89191,1.3762 0.41085,0 0.98119,-0.8583 1.38055,-2.0776 0.27318,-0.8341 0.30205,-1.1282 0.29349,-2.9895 -0.0136,-2.9541 -0.38685,-4.797 -1.3849,-6.838 -0.2407,-0.4922 -0.63953,-1.1309 -0.88627,-1.4191 l -0.44862,-0.5241 m 62.47019,-62.4702 1.97126,1.9629 1.97127,1.963 2.90892,0 c 1.59991,0 2.90893,-0.036 2.90893,-0.086 0,-0.05 -1.52052,-1.6116 -3.37892,-3.4709 l -3.37888,-3.3806 m 2.38055,-2.3707 3.87733,3.8756 3.87734,3.8756 1.69007,-1.6866 1.69008,-1.6865 -3.87971,-3.8815 -3.87973,-3.8815 m 2.56947,-2.4366 c 0.068,0 1.83998,1.717 3.93772,3.8156 l 3.81395,3.8157 1.7845,-1.7813 1.78449,-1.7813 -3.87935,-3.8811 -3.87936,-3.8812 m 3.37986,-3.3729 3.06494,3.063 c 1.68606,1.6843 3.07116,3.0353 3.07879,3.0014 0.008,-0.034 0.19612,-1.1032 0.41889,-2.3763 l 0.40503,-2.3146 -2.07588,-2.0963 -2.07589,-2.0962 m 11.25875,-11.2519 0.80863,0.403 c 0.7155,0.3565 0.92443,0.4021 1.81416,0.3958 1.25026,-0.01 1.91807,-0.3018 2.78678,-1.2222 0.90946,-0.9635 1.3196,-1.895 1.38085,-3.1361 0.0462,-0.9367 0.0206,-1.0721 -0.33373,-1.7652 l -0.38379,-0.7507 m 3.38179,-3.3781 0.25058,0.3128 c 0.34702,0.4332 0.98242,1.6845 1.24931,2.4602 0.47505,1.3807 0.42434,2.6579 -0.13669,3.4422 l -0.23947,0.3349 0.34096,0.07 c 1.25952,0.2592 6.13058,0.824 7.10798,0.824 2.07172,0 2.47555,-0.3475 3.99679,-3.4387 1.12707,-2.2903 1.74264,-3.9879 2.20106,-6.0701 0.38047,-1.7281 0.41154,-4.6027 0.0642,-5.9429 -0.29934,-1.155 -1.18848,-2.9768 -1.82325,-3.7358 -0.27963,-0.3344 -0.50843,-0.6448 -0.50843,-0.6898 m 3.60661,-3.4701 c 0.21971,0.1358 1.2471,1.7467 1.51995,2.3833 0.84435,1.9698 1.16466,3.7192 1.16964,6.3882 0.004,2.3332 -0.23337,4.1086 -0.85256,6.3679 -1.25358,4.5739 -3.34262,8.1661 -6.50474,11.1852 -4.64521,4.435 -10.29878,5.9487 -16.43238,4.3997 l -1.4525,-0.3669 -2.31571,2.4067 c -1.27365,1.3236 -2.79334,2.9007 -3.37711,3.5046 l -1.06139,1.098 0.79313,1.6014 0.7931,1.6014 -2.14727,7.1221 -2.1473,7.1222 -0.78679,0.7892 -0.7868,0.7893 0.31783,0.6422 c 0.42804,0.8649 0.44112,2.1554 0.0298,2.9466 -0.63663,1.2248 -2.91377,2.013 -4.2285,1.4636 -0.57545,-0.2404 -0.55985,-0.2464 -0.40687,0.156 0.1931,0.5079 0.15345,1.8904 -0.0725,2.5299 -0.10863,0.3074 -0.33365,0.7912 -0.50005,1.0752 -0.90656,1.5469 -3.40708,2.2763 -4.72874,1.3794 -0.36206,-0.2457 -0.65513,-0.3027 -1.95433,-0.3802 -0.84062,-0.05 -2.82014,-0.05 -4.39891,-3e-4 l -2.87049,0.091 0,0.9643 0,0.9642 2.84474,0.3969 c 2.1706,0.3028 2.89349,0.4482 3.0505,0.6139 0.11318,0.1194 6.75198,8.7468 14.75293,19.172 8.00094,10.4252 14.58128,18.9948 14.62297,19.0435 0.0417,0.049 0.89172,-0.2168 1.88897,-0.59 0.99725,-0.3733 1.94207,-0.6805 2.09966,-0.6829 0.98932,-0.015 3.8423,2.3977 4.1149,3.4797 0.11255,0.4467 -0.24255,2.1091 -0.63248,2.9608 l -0.31585,0.6899 0.61466,0.8121 c 0.66699,0.8812 0.93726,1.626 0.82998,2.2871 -0.23749,1.4634 -1.93767,3.269 -3.08355,3.2745 -0.51296,0 -1.51757,-0.5393 -2.26152,-1.2199 l -0.69761,-0.638 -0.46061,0.4606 -0.46061,0.4606 -3.28154,-3.2816 -3.28153,-3.2815 0.87397,-0.8876 0.87397,-0.8876 -3.0132,-2.9612 c -1.65726,-1.6287 -9.32071,-9.1975 -17.02989,-16.8195 l -14.01667,-13.8583 -0.71729,-2.5318 c -0.51698,-1.8247 -0.79885,-2.6159 -1.0093,-2.8331 l -0.29198,-0.3013 -2.5422,2.3796 c -1.39823,1.3088 -7.63079,7.1427 -13.85017,12.9641 l -11.30794,10.5844 -0.45285,-0.19 c -0.24907,-0.1045 -0.84697,-0.2997 -1.32865,-0.4337 l -0.87581,-0.2437 -1.00091,0.6839 c -1.33396,0.9115 -4.06628,3.2093 -5.65814,4.7583 l -1.28797,1.2533 2.5e-4,1.4388 2.5e-4,1.4389 -6.2133,5.1922 c -3.41731,2.8558 -6.30696,5.2592 -6.42142,5.341 -0.11448,0.082 -1.30145,0.302 -2.63774,0.4895 -1.33627,0.1874 -2.45445,0.3612 -2.48483,0.3861 -0.0304,0.025 0.24974,0.3542 0.62246,0.7316 l 0.67769,0.6862 -1.46413,1.4689 -1.46415,1.4689 0.13555,1.5639 c 0.18553,2.1411 0.0694,8.202 -0.17569,9.1652 -0.31048,1.2203 -1.08014,2.1516 -4.02622,4.8717 l -1.87115,1.7276 m -19.02656,0 2.86413,-2.862 -3e-5,0 2.86413,-2.862 -0.29101,-0.5794 c -0.83552,-1.6635 -0.32752,-3.7748 1.14256,-4.7486 0.92671,-0.6138 1.83294,-0.8395 2.66967,-0.6647 0.37347,0.078 0.90207,0.2894 1.17464,0.4698 l 0.49563,0.328 m 2.78043,-2.7927 -0.80093,-0.7586 c -1.84342,-1.7459 -4.23985,-3.2993 -6.70596,-4.3469 -1.21935,-0.5179 -1.37626,-0.6196 -1.37626,-0.8919 0,-0.4108 0.85832,-0.9812 2.07764,-1.3805 0.8341,-0.2732 1.12819,-0.3021 2.98951,-0.2935 2.9541,0.014 4.79696,0.3868 6.83796,1.3849 0.49226,0.2407 1.13087,0.6395 1.41913,0.8862 l 0.52412,0.4487 m 62.47019,-62.4702 -1.96296,-1.9713 -1.96294,-1.9713 -0.004,-2.9089 c -0.002,-1.5999 0.0365,-2.9089 0.0861,-2.9089 0.0497,0 1.61154,1.5205 3.47087,3.3789 l 3.38064,3.3789 m 2.37064,-2.3806 -3.87557,-3.8773 -3.87557,-3.8773 1.68654,-1.6901 1.68653,-1.6901 3.88149,3.8797 3.88149,3.8798 m 2.43665,-2.5695 c 0,-0.068 -1.71703,-1.84 -3.81561,-3.9377 l -3.81572,-3.814 1.78132,-1.7845 1.78131,-1.7845 3.88113,3.8794 3.88112,3.8793 m 3.37296,-3.3798 -3.063,-3.065 c -1.68428,-1.686 -3.03529,-3.0711 -3.0014,-3.0787 0.0339,-0.01 1.10317,-0.1962 2.37621,-0.4189 l 2.31464,-0.4051 2.09628,2.0759 2.09627,2.0759 m 11.25185,-11.2587 -0.40297,-0.8087 c -0.35656,-0.7155 -0.40214,-0.9244 -0.39578,-1.8141 0.009,-1.2503 0.30179,-1.9181 1.22214,-2.7868 0.96354,-0.9095 1.89504,-1.3196 3.13616,-1.3809 0.93662,-0.046 1.07206,-0.021 1.76514,0.3338 l 0.7507,0.3838 m 3.37808,-3.3818 -0.31279,-0.2506 c -0.43318,-0.347 -1.68442,-0.9824 -2.46012,-1.2493 -1.38075,-0.4751 -2.65794,-0.4244 -3.44229,0.1367 l -0.33481,0.2394 -0.0702,-0.3409 c -0.25924,-1.2596 -0.82401,-6.1306 -0.82401,-7.108 0,-2.0717 0.34744,-2.4756 3.43868,-3.9968 2.29029,-1.1271 3.98785,-1.7426 6.07005,-2.2011 1.72812,-0.3804 4.60277,-0.4115 5.94295,-0.064 1.15495,0.2993 2.97681,1.1885 3.73578,1.8233 0.33437,0.2796 0.64478,0.5084 0.68981,0.5084 m 3.47008,-3.6066 c -0.13578,-0.2197 -1.74672,-1.2471 -2.38324,-1.52 -1.96981,-0.8443 -3.71922,-1.1646 -6.38823,-1.1696 -2.33322,0 -4.10865,0.2334 -6.36791,0.8526 -4.5739,1.2535 -8.16612,3.3426 -11.18517,6.5047 -4.43506,4.6452 -5.94877,10.2988 -4.39971,16.4324 l 0.36684,1.4525 -2.40665,2.3157 c -1.32365,1.2736 -2.90074,2.7933 -3.50464,3.3771 l -1.09801,1.0614 -1.60137,-0.7931 -1.60137,-0.7931 -7.12214,2.1472 -7.12214,2.1473 -0.78927,0.7868 -0.78928,0.7868 -0.64219,-0.3178 c -0.86494,-0.4281 -2.15538,-0.4411 -2.94661,-0.03 -1.22477,0.6366 -2.01296,2.9137 -1.46364,4.2285 0.24044,0.5754 0.24642,0.5598 -0.15598,0.4068 -0.50787,-0.1931 -1.89036,-0.1534 -2.52989,0.073 -0.3074,0.1086 -0.79123,0.3336 -1.07518,0.5 -1.54691,0.9066 -2.27634,3.4071 -1.37945,4.7287 0.24571,0.3621 0.30274,0.6552 0.38027,1.9544 0.0502,0.8406 0.0503,2.8201 0,4.3989 l -0.091,2.8705 -0.96426,0 -0.96427,0 -0.39685,-2.8448 c -0.30278,-2.1706 -0.44828,-2.8934 -0.61394,-3.0505 -0.11938,-0.1131 -8.7468,-6.7519 -19.172,-14.7529 -10.42519,-8.0009 -18.99476,-14.5813 -19.04348,-14.623 -0.0487,-0.042 0.21679,-0.8917 0.59001,-1.8889 0.37322,-0.9973 0.68051,-1.9421 0.68287,-2.0997 0.0148,-0.9893 -2.39774,-3.8423 -3.47969,-4.1149 -0.44672,-0.1125 -2.10908,0.2426 -2.96079,0.6325 l -0.68991,0.3158 -0.81207,-0.6146 c -0.88122,-0.667 -1.62601,-0.9373 -2.2871,-0.83 -1.46347,0.2375 -3.26899,1.9377 -3.27459,3.0835 -0.002,0.513 0.5394,1.5176 1.21991,2.2616 l 0.63809,0.6976 -0.46061,0.4606 -0.46061,0.4606 3.28155,3.2815 3.28154,3.2816 0.88759,-0.874 0.88759,-0.874 2.96122,3.0132 c 1.62868,1.6573 9.19745,9.3207 16.81949,17.0299 l 13.85827,14.0167 2.53179,0.7173 c 1.82474,0.517 2.61593,0.7988 2.83309,1.0093 l 0.30134,0.292 -2.37964,2.5422 c -1.3088,1.3982 -7.14261,7.6307 -12.96403,13.8501 l -10.58442,11.308 0.19002,0.4528 c 0.10451,0.2491 0.29968,0.847 0.43372,1.3287 l 0.24369,0.8758 -0.68394,1.0009 c -0.91151,1.3339 -3.20932,4.0663 -4.75832,5.6581 l -1.25331,1.288 -1.43881,0 -1.43882,0 -5.19227,6.2133 c -2.85574,3.4173 -5.25917,6.307 -5.34094,6.4214 -0.0818,0.1145 -0.30206,1.3015 -0.48952,2.6378 -0.18746,1.3362 -0.36123,2.4544 -0.38615,2.4848 -0.0249,0.03 -0.35411,-0.2497 -0.73152,-0.6225 l -0.6862,-0.6777 -1.46891,1.4642 -1.46892,1.4641 -1.56393,-0.1355 c -2.14105,-0.1856 -8.202,-0.069 -9.16513,0.1757 -1.22031,0.3104 -2.1516,1.0801 -4.87171,4.0262 l -1.72764,1.8711 m -0.002,19.0284 -2.86409,-2.862 3e-5,-1e-4 -2.86409,-2.862 0.29102,-0.5794 c 0.83552,-1.6635 0.32752,-3.7748 -1.14256,-4.7485 -0.92671,-0.6139 -1.83294,-0.8395 -2.66968,-0.6648 -0.37346,0.078 -0.90206,0.2894 -1.17464,0.4698 l -0.49563,0.328 m -2.78041,-2.7926 0.80093,-0.7586 c 1.84342,-1.746 4.23984,-3.2994 6.70595,-4.347 1.21935,-0.5179 1.37627,-0.6196 1.37627,-0.8919 0,-0.4108 -0.85832,-0.9812 -2.07764,-1.3805 -0.83411,-0.2732 -1.1282,-0.3021 -2.98952,-0.2935 -2.95409,0.014 -4.79696,0.3869 -6.83795,1.3849 -0.49226,0.2407 -1.13087,0.6395 -1.41913,0.8863 l -0.52412,0.4486 m -62.46969,-62.4694 1.96294,-1.9713 1.96294,-1.9713 0.004,-2.9089 c 0.002,-1.5999 -0.0365,-2.9089 -0.0861,-2.9089 -0.0497,0 -1.61155,1.5205 -3.47087,3.3789 l -3.38056,3.3789 m -2.37063,-2.3805 3.87566,-3.8772 3.87566,-3.8773 -1.68657,-1.69 -1.68656,-1.6901 -3.88131,3.8799 -3.88132,3.8799 m -2.43665,-2.5695 c 0,-0.068 1.71702,-1.84 3.81561,-3.9377 l 3.81563,-3.814 -1.78131,-1.7845 -1.78132,-1.7845 -3.88094,3.8795 -3.88095,3.8795 m -3.37293,-3.3798 3.06301,-3.065 c 1.68465,-1.6857 3.03528,-3.0711 3.0014,-3.0788 -0.0339,-0.01 -1.10318,-0.1961 -2.37622,-0.4188 l -2.31463,-0.4051 -2.09627,2.0759 -2.09628,2.0759 m -11.25182,-11.2588 0.40297,-0.8086 c 0.35656,-0.7155 0.40214,-0.9244 0.39579,-1.8142 -0.009,-1.2502 -0.30179,-1.918 -1.22214,-2.7868 -0.96353,-0.9094 -1.89505,-1.3196 -3.13616,-1.3808 -0.93662,-0.046 -1.07206,-0.021 -1.76515,0.3337 l -0.75069,0.3838 m -3.3781,-3.3818 0.31278,-0.2505 c 0.43319,-0.3471 1.68443,-0.9825 2.46013,-1.2493 1.38075,-0.4751 2.65794,-0.4244 3.44229,0.1366 l 0.33481,0.2395 0.0702,-0.341 c 0.25923,-1.2595 0.824,-6.1305 0.824,-7.1079 0,-2.0718 -0.34744,-2.4756 -3.43869,-3.9968 -2.29028,-1.1271 -3.98784,-1.7427 -6.07004,-2.2011 -1.72813,-0.3805 -4.60279,-0.4115 -5.94296,-0.064 -1.15495,0.2993 -2.9768,1.1885 -3.73578,1.8232 -0.33436,0.2797 -0.64477,0.5085 -0.68981,0.5085 m -3.47007,-3.6066 c 0.13578,-0.2197 1.74672,-1.2471 2.38324,-1.52 1.96981,-0.8443 3.71922,-1.1646 6.38823,-1.1696 2.33321,0 4.10865,0.2333 6.36791,0.8525 4.57391,1.2536 8.16612,3.3427 11.18516,6.5048 4.43506,4.6452 5.94878,10.2987 4.39972,16.4324 l -0.36683,1.4525 2.40663,2.3157 c 1.32366,1.2736 2.90075,2.7933 3.50465,3.3771 l 1.09801,1.0614 1.60137,-0.7932 1.60136,-0.7931 7.12215,2.1473 7.12214,2.1473 0.78931,0.7868 0.78932,0.7867 0.6422,-0.3178 c 0.86493,-0.4281 2.15537,-0.4411 2.94661,-0.03 1.22476,0.6367 2.01297,2.9138 1.46364,4.2285 -0.24044,0.5755 -0.24642,0.5599 0.15597,0.4069 0.50788,-0.1931 1.89035,-0.1534 2.5299,0.073 0.3074,0.1086 0.79123,0.3336 1.07517,0.5 1.54691,0.9066 2.27635,3.4071 1.37945,4.7287 -0.2457,0.3621 -0.30272,0.6552 -0.38027,1.9544 -0.0502,0.8406 -0.0503,2.8201 -2.5e-4,4.3989 l 0.091,2.8705 0.96426,0 0.96426,0 0.39685,-2.8448 c 0.3028,-2.1706 0.44829,-2.8935 0.61394,-3.0505 0.1194,-0.1131 8.74681,-6.752 19.172,-14.7529 10.4252,-8.001 18.99476,-14.5813 19.04348,-14.623 0.0487,-0.042 -0.21678,-0.8917 -0.59,-1.8889 -0.37322,-0.9973 -0.68052,-1.9421 -0.68288,-2.0997 -0.0148,-0.9893 2.39774,-3.8423 3.47969,-4.1149 0.44673,-0.1126 2.10908,0.2425 2.96079,0.6325 l 0.68992,0.3158 0.81207,-0.6146 c 0.88121,-0.667 1.626,-0.9373 2.2871,-0.83 1.46346,0.2375 3.26899,1.9377 3.27458,3.0835 0.002,0.513 -0.5394,1.5176 -1.2199,2.2616 l -0.6381,0.6976 0.46061,0.4606 0.46061,0.4606 -3.28154,3.2815 -3.28154,3.2816 -0.88759,-0.874 -0.8876,-0.874 -2.96122,3.0132 c -1.62867,1.6573 -9.19744,9.3207 -16.81949,17.0299 l -13.85827,14.0167 -2.53178,0.7173 c -1.82474,0.517 -2.61592,0.7988 -2.83309,1.0093 l -0.30131,0.292 2.37964,2.5422 c 1.3088,1.3982 7.14262,7.6308 12.96404,13.8501 l 10.58441,11.308 -0.19001,0.4528 c -0.10451,0.2491 -0.29969,0.847 -0.43372,1.3287 l -0.2437,0.8758 0.68394,1.0009 c 0.91151,1.334 3.20932,4.0663 4.75833,5.6582 l 1.25329,1.2879 1.43883,0 1.43882,0 5.19226,6.2133 c 2.85574,3.4173 5.25916,6.307 5.34094,6.4214 0.0818,0.1145 0.30206,1.3015 0.48952,2.6378 0.18746,1.3363 0.36123,2.4544 0.38615,2.4848 0.0249,0.03 0.35411,-0.2497 0.73153,-0.6224 l 0.68618,-0.6777 1.46893,1.4641 1.46894,1.4641 1.56393,-0.1355 c 2.14105,-0.1856 8.202,-0.069 9.16513,0.1757 1.22031,0.3104 2.1516,1.0801 4.87171,4.0262 l 1.72764,1.8711 m 0,19.0266 -2.86206,-2.8641 -2e-5,0 -2.86206,-2.8641 -0.57939,0.2911 c -1.6635,0.8355 -3.77479,0.3275 -4.74853,-1.1426 -0.61384,-0.9267 -0.83949,-1.8329 -0.66475,-2.6697 0.078,-0.3734 0.28937,-0.902 0.46977,-1.1746 l 0.328,-0.4957 m -2.79264,-2.7804 -0.75859,0.801 c -1.74594,1.8434 -3.29933,4.2398 -4.34691,6.7059 -0.51797,1.2194 -0.61966,1.3763 -0.89191,1.3763 -0.41086,0 -0.9812,-0.8583 -1.38055,-2.0777 -0.27318,-0.8341 -0.30206,-1.1282 -0.29349,-2.9895 0.0136,-2.9541 0.38685,-4.7969 1.38489,-6.8379 0.2407,-0.4923 0.63953,-1.1309 0.88628,-1.4192 l 0.44862,-0.5241 m -62.4702,-62.4702 -1.97127,1.963 -1.97128,1.9629 -2.90892,0 c -1.5999,0 -2.90892,-0.037 -2.90892,-0.086 0,-0.05 1.52052,-1.6115 3.37892,-3.4708 l 3.37896,-3.3806 m -2.38054,-2.3706 -3.87725,3.8756 -3.87725,3.8757 -1.69005,-1.6866 -1.69004,-1.6865 3.87989,-3.8814 3.8799,-3.8813 m -2.56948,-2.4366 c -0.068,0 -1.83997,1.717 -3.93771,3.8156 l -3.81404,3.8156 -1.78449,-1.7813 -1.7845,-1.7813 3.87953,-3.881 3.87953,-3.8809 m -3.37989,-3.3729 -3.06492,3.063 c -1.68571,1.6846 -3.07116,3.0353 -3.07878,3.0014 -0.008,-0.034 -0.19612,-1.1032 -0.41889,-2.3762 l -0.40503,-2.3147 2.07588,-2.0962 2.07589,-2.0963 m -11.25878,-11.2518 -0.80863,0.4029 c -0.71551,0.3566 -0.92444,0.4022 -1.81417,0.3958 -1.25026,-0.01 -1.91807,-0.3018 -2.78677,-1.2221 -0.90946,-0.9635 -1.31961,-1.8951 -1.38086,-3.1362 -0.0462,-0.9366 -0.0206,-1.072 0.33373,-1.7651 l 0.3838,-0.7507 m -3.38179,-3.3781 -0.25057,0.3128 c -0.34702,0.4332 -0.98243,1.6844 -1.24931,2.4601 -0.47504,1.3807 -0.42433,2.6579 0.13669,3.4423 l 0.23947,0.3348 -0.34096,0.07 c -1.25952,0.2592 -6.13058,0.824 -7.10798,0.824 -2.07172,0 -2.47555,-0.3474 -3.99679,-3.4387 -1.12708,-2.2903 -1.74263,-3.9878 -2.20106,-6.07 -0.38048,-1.7282 -0.41154,-4.6028 -0.0642,-5.943 0.29933,-1.1549 1.18848,-2.9768 1.82325,-3.7358 0.27963,-0.3343 0.50842,-0.6447 0.50842,-0.6898 m -3.6066,-3.47 c -0.2197,0.1357 -1.24711,1.7467 -1.51995,2.3832 -0.84436,1.9698 -1.16466,3.7192 -1.16963,6.3882 -0.004,2.3332 0.23336,4.1087 0.85255,6.3679 1.25357,4.5739 3.34262,8.1661 6.50473,11.1852 4.64522,4.4351 10.29878,5.9488 16.43239,4.3997 l 1.45249,-0.3668 2.31572,2.4066 c 1.27365,1.3237 2.79334,2.9008 3.37711,3.5047 l 1.06139,1.098 -0.79312,1.6013 -0.79311,1.6014 2.14728,7.1221 2.14729,7.1222 0.78675,0.7893 0.78675,0.7893 -0.31782,0.6422 c -0.42806,0.865 -0.44112,2.1554 -0.0298,2.9466 0.63663,1.2248 2.91377,2.013 4.22849,1.4637 0.57547,-0.2405 0.55987,-0.2465 0.40688,0.1559 -0.1931,0.5079 -0.15346,1.8904 0.0725,2.5299 0.10862,0.3074 0.33364,0.7913 0.50005,1.0752 0.90654,1.5469 3.40707,2.2764 4.72873,1.3795 0.36206,-0.2457 0.65513,-0.3028 1.95434,-0.3803 0.84062,-0.05 2.82012,-0.05 4.3989,-3e-4 l 2.87049,0.091 0,0.9643 0,0.9642 -2.84473,0.3969 c -2.17061,0.3028 -2.8935,0.4483 -3.0505,0.6139 -0.11318,0.1194 -6.752,8.7468 -14.75294,19.172 -8.00095,10.4252 -14.58129,18.9948 -14.62298,19.0435 -0.0417,0.049 -0.89172,-0.2168 -1.88896,-0.59 -0.99724,-0.3732 -1.94209,-0.6805 -2.09966,-0.6829 -0.98933,-0.015 -3.8423,2.3978 -4.1149,3.4797 -0.11256,0.4467 0.24255,2.1091 0.63248,2.9608 l 0.31585,0.6899 -0.61466,0.8121 c -0.66699,0.8812 -0.93727,1.626 -0.82999,2.2871 0.23749,1.4635 1.93768,3.269 3.08355,3.2746 0.51296,0 1.51757,-0.5394 2.26153,-1.2199 l 0.6976,-0.6381 0.46061,0.4606 0.46061,0.4606 3.28154,-3.2815 3.28154,-3.2816 -0.87397,-0.8876 -0.87398,-0.8876 3.01321,-2.9612 c 1.65726,-1.6287 9.32071,-9.1974 17.02988,-16.8195 l 14.01668,-13.8583 0.71729,-2.5317 c 0.51699,-1.8248 0.79885,-2.616 1.00931,-2.8331 l 0.29201,-0.3013 2.5422,2.3796 c 1.39822,1.3083 7.63079,7.1421 13.85016,12.9635 l 11.30794,10.5845 0.45285,-0.1901 c 0.24907,-0.1045 0.84697,-0.2996 1.32866,-0.4337 l 0.8758,-0.2437 1.00092,0.684 c 1.33395,0.9115 4.06628,3.2093 5.65814,4.7583 l 1.28797,1.2533 -2.5e-4,1.4388 -2.6e-4,1.4388 6.2133,5.1923 c 3.41732,2.8557 6.30696,5.2592 6.42143,5.3409 0.11447,0.082 1.30144,0.3021 2.63773,0.4896 1.33627,0.1874 2.45445,0.3612 2.48483,0.3861 0.0304,0.025 -0.24973,0.3541 -0.62246,0.7315 l -0.6777,0.6862 1.46413,1.4689 1.46413,1.469 -0.13554,1.5639 c -0.18554,2.1411 -0.0694,8.202 0.17568,9.1651 0.31048,1.2203 1.08014,2.1516 4.02622,4.8718 l 1.87115,1.7276"
     inkscape:connector-curvature="0"
     inkscape:transform-center-x="487.38778"
     inkscape:transform-center-y="875.49286" />
</svg>
