<?xml version="1.0" encoding="UTF-8" standalone="no"?>
<!-- Created with Inkscape (http://www.inkscape.org/) -->

<svg
   xmlns:dc="http://purl.org/dc/elements/1.1/"
   xmlns:cc="http://creativecommons.org/ns#"
   xmlns:rdf="http://www.w3.org/1999/02/22-rdf-syntax-ns#"
   xmlns:svg="http://www.w3.org/2000/svg"
   xmlns="http://www.w3.org/2000/svg"
   xmlns:sodipodi="http://sodipodi.sourceforge.net/DTD/sodipodi-0.dtd"
   xmlns:inkscape="http://www.inkscape.org/namespaces/inkscape"
   id="svg10188"
   version="1.1"
   inkscape:version="0.91 r"
   width="522"
   height="1320"
   viewBox="0 0 522 1320"
   sodipodi:docname="snowflake-Jabba_The_Hutt-000.svg">
  <metadata
     id="metadata10194">
    <rdf:RDF>
      <cc:Work
         rdf:about="">
        <dc:format>image/svg+xml</dc:format>
        <dc:type
           rdf:resource="http://purl.org/dc/dcmitype/StillImage" />
        <dc:title />
      </cc:Work>
    </rdf:RDF>
  </metadata>
  <defs
     id="defs10192" />
  <sodipodi:namedview
     pagecolor="#ffffff"
     bordercolor="#666666"
     borderopacity="1"
     objecttolerance="10"
     gridtolerance="10"
     guidetolerance="10"
     inkscape:pageopacity="0"
     inkscape:pageshadow="2"
     inkscape:window-width="1600"
     inkscape:window-height="843"
     id="namedview10190"
     showgrid="false"
     inkscape:zoom="2.1861377"
     inkscape:cx="175.53645"
     inkscape:cy="615.16096"
     inkscape:window-x="0"
     inkscape:window-y="0"
     inkscape:window-maximized="1"
     inkscape:current-layer="svg10188"
     showguides="true"
     inkscape:guide-bbox="true"
     inkscape:snap-center="true">
    <sodipodi:guide
       position="451.9572,73.992993"
       orientation="0,1"
       id="guide4133" />
    <sodipodi:guide
       position="451.9572,73.992993"
       orientation="1,0"
       id="guide4135" />
  </sodipodi:namedview>
  <path
     id="path4161"
     style="fill:none;stroke:#00ff00;stroke-opacity:1;stroke-width:0.70866142;stroke-miterlimit:4;stroke-dasharray:none"
     d="m 266.40621,769.38409 c 0.0528,0.197 0.53698,0.443 1.24704,0.6336 0.65503,0.1758 1.58766,0.8608 2.18887,1.6077 l 0.2661,0.3306 -0.76285,0.3485 c -1.54191,0.7045 -3.25775,2.0669 -5.85119,4.646 -1.5126,1.5042 -1.73932,1.8503 -1.3566,2.0713 0.1723,0.099 0.51208,-0.01 1.11203,-0.3504 1.82855,-1.0448 3.72493,-1.2046 5.62294,-0.4738 1.12897,0.4347 2.00649,1.1413 2.50416,2.0164 0.52421,0.9217 0.82607,2.5935 0.72525,4.0168 l -0.0904,1.2766 0.59762,-0.3782 c 0.84713,-0.5362 1.75449,-2.1118 2.28347,-3.9652 0.46803,-1.6398 0.73005,-1.9701 1.48583,-1.8729 0.43639,0.056 0.62565,0.1572 1.03822,0.5551 0.40521,0.3907 0.57772,0.7594 0.87633,1.8728 0.43429,1.6195 0.75328,4.1992 0.81489,6.59 0.0306,1.1903 0.11382,1.7341 0.27987,1.83 0.21676,0.1251 0.29117,0.038 0.90187,-1.0507 1.75509,-3.13 1.71768,-8.2349 -0.0927,-12.6488 -1.56445,-3.8142 -3.54256,-5.8052 -7.08934,-7.1354 -2.40984,-0.9038 -5.38484,-1.4308 -5.98229,-1.0597 -0.29825,0.1853 -0.77315,0.9379 -0.71909,1.1397 z m -11.29355,19.0623 c -0.92443,3.0415 -1.57932,8.0082 -1.45919,11.0667 0.0663,1.687 0.55132,3.1302 1.17261,3.4889 1.08379,0.6257 3.13101,-0.5051 6.29719,-3.4782 1.28493,-1.2067 3.40642,-3.4522 4.47085,-4.7324 l 0.34618,-0.4164 -1.05525,0.2828 c -1.40866,0.3775 -2.10864,0.2114 -4.18708,-0.9931 -1.83107,-1.0611 -2.62927,-1.8309 -3.27428,-3.1577 -0.43689,-0.8987 -0.86735,-2.3385 -1.09505,-3.6626 l -0.13991,-0.8136 -0.37767,0.6801 c -0.2077,0.3741 -0.52198,1.1551 -0.6984,1.7355 z m -12.56039,-0.7183 c -1.08749,4.0898 -0.0793,8.2059 2.66754,10.8907 0.4476,0.4375 0.8606,0.8225 0.91778,0.8555 0.0572,0.033 0.0481,-0.4374 -0.0202,-1.0454 -0.14617,-1.3017 0.0335,-4.0533 0.3863,-5.9147 1.45017,-7.6522 4.73167,-12.2108 11.00501,-15.288 1.61614,-0.7928 2.07209,-1.1471 2.00223,-1.5562 -0.20973,-1.2283 -4.82232,-0.6401 -7.06222,0.9006 -1.01861,0.7006 -2.16015,1.8197 -3.14786,3.0859 -0.35988,0.4614 -1.16478,1.3257 -1.78866,1.9207 -3.92666,3.745 -4.5138,4.4731 -4.95994,6.1509 z m -1.83852,-18.7685 -0.2742,0.66 0.69838,-0.4934 c 1.0141,-0.7165 2.70652,-1.3286 6.08946,-2.2024 2.28974,-0.5915 3.64138,-0.8317 5.78221,-1.0273 3.88142,-0.3549 4.5668,-0.5008 5.59992,-1.1921 0.76075,-0.509 0.93287,-0.6986 1.44195,-1.5878 0.63209,-1.1041 0.87246,-2.2543 0.6288,-3.009 -0.28752,-0.8905 -2.41037,-2.346 -3.57496,-2.4511 -1.28663,-0.1161 -2.06718,0.3295 -3.58641,2.0476 -1.06489,1.2043 -1.03694,1.1889 -5.8145,3.1896 -2.96798,1.2429 -3.85519,1.7588 -4.82602,2.8066 -0.77544,0.8369 -1.7977,2.3761 -2.16463,3.2593 z m -30.3823,-44.0799 -0.92063,1.412 c -1.13402,1.7392 -1.66563,2.2836 -3.53739,3.6228 -1.90006,1.3593 -2.24283,1.8228 -2.28365,3.088 -0.0169,0.5233 0.0657,1.9002 0.18349,3.0599 0.11782,1.1597 0.26933,3.2941 0.3367,4.7431 0.0674,1.4489 0.18678,2.799 0.26536,3.0002 0.25246,0.6462 2.84004,2.8993 5.48059,4.7722 0.96927,0.6874 1.53318,0.9974 2.51107,1.3804 1.71253,0.6708 3.79391,1.2278 5.63019,1.5068 1.47709,0.2245 3.41302,0.2624 3.52465,0.069 0.0795,-0.1377 -1.3409,-2.2056 -1.97377,-2.8734 -0.5072,-0.5353 -0.62564,-0.5992 -1.81128,-0.9773 -1.50713,-0.4806 -2.74573,-1.1615 -3.09,-1.6987 -0.14063,-0.2195 -0.24174,-0.7935 -0.23508,-1.3349 0.0214,-1.7407 -0.28831,-2.385 -2.00995,-4.1813 -0.86183,-0.8992 -1.17556,-1.761 -1.0537,-2.8942 0.0993,-0.9238 0.28776,-1.1347 2.72346,-3.0486 2.45386,-1.9281 2.9649,-2.4494 3.78071,-3.8566 l 0.62863,-1.0844 m 21.56306,12.4495 -0.53032,1.1411 c -0.78004,1.6784 -2.03105,3.7735 -2.6992,4.5202 -0.99472,1.1118 -2.87566,2.7422 -4.00595,3.4724 -1.48046,0.9565 -2.41733,1.319 -3.8898,1.5055 -2.48366,0.3144 -2.97019,0.7751 -4.1068,3.8886 -0.83584,2.2896 -1.54914,3.5943 -3.12794,5.721 -1.38269,1.8626 -2.03098,2.6191 -2.6276,3.0662 -1.0484,0.7857 -1.13027,2.2667 -0.26894,4.865 0.50997,1.5383 1.05218,2.7691 1.20224,2.7289 0.0457,-0.012 0.15719,-0.2751 0.24791,-0.5841 0.34372,-1.1715 2.03165,-4.1721 3.11665,-5.5406 3.03489,-3.8277 8.55061,-8.4722 12.70473,-10.6979 1.12528,-0.6029 2.61203,-1.2598 7.52237,-3.3236 1.43876,-0.6047 2.99797,-1.3377 3.4649,-1.6288 0.79654,-0.4967 0.90705,-0.6216 1.78934,-2.0223 l 0.94036,-1.4929 m 63.64057,36.7429 -0.42924,0.5747 c -1.20264,1.6103 -4.73645,4.1623 -8.08575,5.8394 -1.98645,0.9947 -2.42273,1.1255 -5.0386,1.5112 -2.88793,0.4257 -3.57264,0.7446 -4.29854,2.002 -0.21255,0.3681 -0.61639,0.9375 -0.8974,1.2653 -0.56674,0.661 -1.65332,1.425 -1.85832,1.3067 -0.0726,-0.042 -0.19306,-0.4936 -0.26771,-1.0037 -0.22675,-1.5497 -1.32,-5.1232 -1.62041,-5.2967 -0.0478,-0.028 -0.18403,0.7373 -0.30276,1.6996 -0.28231,2.2882 -0.82916,5.5555 -1.22541,7.3216 -0.27513,1.2261 -0.39903,1.534 -0.95224,2.3656 -1.49184,2.2428 -5.57631,4.9974 -7.82143,5.2748 -0.5178,0.064 -1.2139,0.1203 -1.54685,0.1252 -1.65755,0.024 -4.32465,-0.6009 -6.12263,-1.435 l -0.86811,-0.4027 -0.69311,0.5713 c -2.43216,2.0046 -6.81389,3.6514 -10.30924,3.8745 -5.30019,0.3384 -9.26252,-1.1481 -12.68268,-4.7579 l -1.01823,-1.0747 -1.60297,-0.094 c -4.34159,-0.2542 -7.37346,0.4369 -10.09421,2.3009 l -1.13382,0.7769 m -7.5486,-13.1589 c -0.14492,-0.4604 3.46281,-4.2485 5.78911,-6.0786 1.32829,-1.0449 1.52501,-1.2946 1.41667,-1.7981 -0.11367,-0.5282 -0.64232,-0.7353 -1.74548,-0.6839 -0.55208,0.026 -1.63642,0.047 -2.40967,0.047 -3.25638,-10e-5 -5.81557,0.3905 -6.87618,1.0496 m -35.09614,-74.487 -0.18461,0.5136 c -0.24286,0.6758 -0.24309,0.7512 -0.008,2.6899 0.11067,0.9139 0.16256,2.3321 0.11531,3.1515 -0.055,0.9533 -0.014,1.5303 0.11375,1.602 0.11357,0.064 0.74667,-0.1775 1.46858,-0.5595 1.38751,-0.7342 1.87602,-0.84 3.43525,-0.7439 1.72632,0.1064 1.87436,0.065 2.55298,-0.7092 0.33266,-0.3797 0.81246,-0.9901 0.91307,-1.0912 m 80.38641,34.3782 c 0.19693,-0.053 0.65209,0.2436 1.1722,0.7632 0.47979,0.4793 1.53935,0.9445 2.48675,1.0917 l 0.41934,0.065 -0.0796,-0.8349 c -0.16082,-1.6876 0.16113,-3.8548 1.0979,-7.3903 0.54637,-2.062 0.73278,-2.4314 1.1155,-2.2105 0.1723,0.099 0.24946,0.4473 0.25256,1.1383 0.009,2.1059 0.81925,3.8282 2.40118,5.1065 0.94096,0.7603 1.99165,1.167 2.9983,1.1605 1.06035,-0.01 2.65914,-0.5814 3.84131,-1.3804 l 1.06038,-0.7166 -0.0288,0.7067 c -0.0408,1.0017 -0.95159,2.5753 -2.29222,3.9601 -1.18607,1.2252 -1.3411,1.6173 -0.87909,2.2232 0.26676,0.3499 0.44903,0.4632 0.99983,0.6216 0.54102,0.1556 0.94653,0.1206 2.06012,-0.1775 1.61961,-0.4336 4.0132,-1.4472 6.11449,-2.5893 1.04621,-0.5686 1.55873,-0.7685 1.72478,-0.6726 0.21676,0.1252 0.17888,0.233 -0.45896,1.3064 -1.83311,3.0849 -6.2728,5.605 -11.00052,6.2441 -4.08551,0.5523 -6.79877,-0.1653 -9.72414,-2.5718 -1.98763,-1.6351 -3.93152,-3.9481 -3.90887,-4.651 0.0113,-0.3509 0.42571,-1.1385 0.62747,-1.1926 z m 10.86165,-19.3116 c 2.17177,-2.3214 6.14567,-5.3719 8.85443,-6.7971 1.49413,-0.7861 2.98648,-1.0876 3.60777,-0.7289 1.08379,0.6257 1.12813,2.9641 0.13637,7.1926 -0.40249,1.7161 -1.28646,4.6762 -1.86292,6.2381 l -0.1875,0.5079 -0.28275,-1.0552 c -0.37745,-1.4087 -0.87121,-1.9318 -2.95355,-3.1296 -1.8345,-1.0552 -2.90026,-1.3615 -4.37186,-1.2567 -0.99672,0.071 -2.45882,0.4181 -3.71942,0.8829 l -0.77448,0.2856 0.40015,-0.6671 c 0.2201,-0.3669 0.73928,-1.0295 1.15376,-1.4725 z m -6.90223,-10.5185 c 2.99807,-2.9867 7.06681,-4.1716 10.76539,-3.1352 0.60269,0.1689 1.14257,0.334 1.19975,0.3671 0.0572,0.033 -0.35479,0.2603 -0.91546,0.5052 -1.20041,0.5243 -3.49351,2.0557 -4.92914,3.2919 -5.90184,5.0819 -8.20897,10.2031 -7.73728,17.1746 0.12151,1.796 0.0426,2.3681 -0.34658,2.5121 -1.16858,0.4325 -2.96548,-3.8562 -2.75119,-6.5664 0.0974,-1.2324 0.49584,-2.7806 1.09857,-4.2691 0.21962,-0.5423 0.56569,-1.6715 0.76905,-2.5093 1.27993,-5.2731 1.61692,-6.1457 2.84689,-7.3709 z m -17.1733,7.792 0.43444,-0.5674 -0.0781,0.8515 c -0.11342,1.2365 0.20269,3.0082 1.13739,6.3748 0.63264,2.2787 1.10049,3.5694 2.00143,5.5212 1.63344,3.5388 1.84978,4.2053 1.76763,5.4457 -0.0605,0.9134 -0.13858,1.1572 -0.65413,2.0427 -0.6401,1.0994 -1.51604,1.8827 -2.29141,2.049 -0.91499,0.1963 -3.23692,-0.9144 -3.91023,-1.8704 -0.74387,-1.0562 -0.74821,-1.955 -0.0199,-4.1297 0.51048,-1.5244 0.51118,-1.4925 -0.14498,-6.6303 -0.40762,-3.1918 -0.4044,-4.2181 0.0176,-5.5828 0.33705,-1.09 1.15892,-2.7449 1.74032,-3.5043 z m -53.36549,-4.2718 0.76249,-1.5033 c 0.93923,-1.8517 1.14493,-2.5843 1.36876,-4.8749 0.2272,-2.3252 0.45723,-2.8538 1.53251,-3.5217 0.44472,-0.2763 1.6785,-0.8933 2.74172,-1.3711 1.06323,-0.4778 2.98739,-1.4138 4.27592,-2.0799 1.28853,-0.6661 2.51745,-1.2378 2.73093,-1.2703 0.68588,-0.1045 3.93095,1.0099 6.87314,2.3602 1.08,0.4957 1.63043,0.8291 2.45107,1.4845 1.43712,1.1477 2.96021,2.6717 4.12,4.1225 0.93292,1.1669 1.93371,2.8245 1.82208,3.0179 -0.0795,0.1377 -2.58057,-0.059 -3.47537,-0.2726 -0.71711,-0.1717 -0.83167,-0.2423 -1.75195,-1.08 -1.16981,-1.0649 -2.37881,-1.7971 -3.01614,-1.8267 -0.26041,-0.012 -0.80804,0.1874 -1.27361,0.4639 -1.49676,0.8889 -2.20961,0.9428 -4.62609,0.35 -1.20967,-0.2968 -2.11283,-0.1376 -3.0333,0.5345 -0.75034,0.548 -0.83879,0.8166 -1.27839,3.8829 -0.44287,3.0892 -0.63882,3.7924 -1.4496,5.2025 l -0.62477,1.0866 m 21.56306,12.4495 0.72307,-1.0299 c 1.06358,-1.5147 2.2524,-3.6456 2.56504,-4.5977 0.46546,-1.4173 0.93697,-3.8615 1.00421,-5.2054 0.0881,-1.7604 -0.0663,-2.753 -0.64115,-4.1214 -0.96952,-2.3081 -0.81382,-2.9598 1.31427,-5.5009 1.56496,-1.8687 2.33816,-3.1388 3.39058,-5.5694 0.92171,-2.1287 1.25271,-3.0684 1.34162,-3.8087 0.15624,-1.3008 1.39783,-2.1121 4.0787,-2.6654 1.58723,-0.3275 2.92418,-0.4733 2.96439,-0.3232 0.0123,0.046 -0.15965,0.2736 -0.38185,0.5067 -0.84265,0.8834 -2.59734,3.8455 -3.23995,5.4694 -1.79746,4.5421 -3.06183,11.6411 -2.9123,16.3516 0.0405,1.2759 0.21499,2.8919 0.88282,8.1763 0.19568,1.5484 0.34052,3.2652 0.32186,3.8151 -0.0318,0.9382 -0.0847,1.0963 -0.85663,2.5608 l -0.82273,1.5608 m 63.64057,36.7429 0.28311,-0.6591 c 0.79322,-1.8467 1.23645,-6.183 1.01416,-9.9221 -0.13183,-2.2177 -0.23666,-2.6609 -1.21059,-5.1192 -1.07523,-2.7139 -1.1414,-3.4663 -0.41548,-4.7236 0.21254,-0.3682 0.50372,-1.0026 0.64706,-1.4099 0.28908,-0.8213 0.40748,-2.1443 0.20249,-2.2627 -0.0726,-0.042 -0.52399,0.08 -1.00308,0.2701 -1.45547,0.5784 -5.09685,1.4184 -5.39725,1.245 -0.0478,-0.028 0.54646,-0.528 1.32054,-1.112 1.84047,-1.3886 4.39662,-3.4959 5.72792,-4.722 0.92434,-0.8514 1.12895,-1.1126 1.5726,-2.0075 1.19636,-2.4134 1.53968,-7.3279 0.6574,-9.411 -0.20347,-0.4804 -0.50274,-1.1114 -0.66501,-1.4022 -0.80786,-1.4475 -2.68276,-3.4448 -4.30403,-4.5849 l -0.78281,-0.5504 0.14818,-0.8859 c 0.51995,-3.1086 -0.24475,-7.7267 -1.79919,-10.8653 -2.35706,-4.7593 -5.62555,-7.4476 -10.46184,-8.6046 l -1.43985,-0.3444 -0.88276,-1.3413 c -2.39098,-3.6328 -3.30841,-6.604 -3.05445,-9.8923 l 0.10583,-1.3704 m -15.1702,0.042 c -0.47116,0.1047 -1.94791,5.1231 -2.36965,8.0528 -0.24081,1.6728 -0.35869,1.968 -0.84886,2.1259 -0.5143,0.1657 -0.958,-0.1886 -1.46502,-1.1697 -0.25373,-0.4909 -0.77767,-1.4405 -1.16432,-2.1102 -1.62826,-2.82 -2.56955,-5.2317 -2.52913,-6.4797 m -82.05571,6.8493 0.35254,-0.4167 c 0.46383,-0.5482 0.52895,-0.5861 2.32535,-1.3521 0.84677,-0.3611 2.10089,-1.0253 2.78696,-1.4759 0.7981,-0.5243 1.31827,-0.7773 1.44419,-0.7025 0.11198,0.066 0.21967,0.7354 0.24979,1.5516 0.0579,1.5687 0.21054,2.0447 1.07338,3.3469 0.95531,1.4418 0.99373,1.5906 0.66228,2.5656 -0.16247,0.4779 -0.45122,1.1986 -0.48848,1.3363 m -122.236601,34.3057 c -0.19694,-0.053 -0.65209,0.2436 -1.1722,0.7632 -0.4798,0.4793 -1.53935,0.9445 -2.48675,1.0917 l -0.41934,0.065 0.0796,-0.8349 c 0.16082,-1.6876 -0.16113,-3.8548 -1.09791,-7.3903 -0.54637,-2.062 -0.73277,-2.4314 -1.11549,-2.2105 -0.1723,0.099 -0.24946,0.4473 -0.25256,1.1383 -0.009,2.1059 -0.81926,3.8282 -2.40118,5.1065 -0.94096,0.7603 -1.99165,1.167 -2.9983,1.1605 -1.06035,-0.01 -2.65914,-0.5814 -3.84132,-1.3804 l -1.06037,-0.7166 0.0288,0.7067 c 0.0408,1.0017 0.95159,2.5753 2.29222,3.9601 1.18607,1.2252 1.3411,1.6173 0.87909,2.2232 -0.26676,0.3499 -0.44903,0.4632 -0.99983,0.6216 -0.54101,0.1556 -0.94653,0.1206 -2.06012,-0.1775 -1.61961,-0.4336 -4.0132,-1.4472 -6.1145,-2.5893 -1.04621,-0.5686 -1.55872,-0.7685 -1.72477,-0.6726 -0.21676,0.1252 -0.17888,0.233 0.45896,1.3064 1.83311,3.0849 6.2728,5.605 11.00052,6.2441 4.0855,0.5523 6.79877,-0.1653 9.72414,-2.5718 1.98763,-1.6351 3.9315,-3.9481 3.90887,-4.651 -0.0113,-0.3509 -0.42571,-1.1385 -0.62749,-1.1926 z m -10.86165,-19.3116 c -2.17179,-2.3214 -6.14567,-5.3719 -8.85443,-6.7971 -1.49413,-0.7861 -2.98648,-1.0876 -3.60778,-0.7289 -1.08379,0.6257 -1.12812,2.964 -0.13636,7.1926 0.40248,1.7161 1.28648,4.6762 1.86292,6.2381 l 0.18748,0.5079 0.28277,-1.0552 c 0.37743,-1.4087 0.87121,-1.9318 2.95355,-3.1296 1.8345,-1.0552 2.90026,-1.3615 4.37186,-1.2567 0.99672,0.071 2.45882,0.4181 3.71942,0.8829 l 0.77448,0.2856 -0.40016,-0.6671 c -0.22009,-0.3669 -0.73928,-1.0295 -1.15375,-1.4725 z m 6.90222,-10.5185 c -2.99807,-2.9867 -7.0668,-4.1716 -10.76538,-3.1352 -0.60269,0.1689 -1.14257,0.3341 -1.19975,0.3671 -0.0572,0.033 0.35479,0.2603 0.91545,0.5052 1.2004,0.5243 3.49352,2.0557 4.92915,3.2919 5.90184,5.0819 8.20897,10.2031 7.73728,17.1746 -0.12151,1.796 -0.0426,2.3681 0.34658,2.5121 1.16858,0.4325 2.96548,-3.8562 2.75119,-6.5664 -0.0975,-1.2324 -0.49584,-2.7806 -1.09857,-4.2691 -0.21963,-0.5423 -0.56569,-1.6715 -0.76906,-2.5093 -1.27992,-5.2731 -1.61691,-6.1457 -2.84689,-7.3709 z m 17.17331,7.792 -0.43444,-0.5674 0.0781,0.8515 c 0.11342,1.2365 -0.20269,3.0082 -1.13739,6.3748 -0.63264,2.2787 -1.10049,3.5694 -2.00143,5.5212 -1.63344,3.5388 -1.84978,4.2053 -1.76763,5.4457 0.0605,0.9134 0.13858,1.1572 0.65413,2.0427 0.6401,1.0995 1.51604,1.8827 2.29141,2.049 0.91499,0.1963 3.23692,-0.9144 3.91023,-1.8704 0.74387,-1.0562 0.74821,-1.955 0.0199,-4.1297 -0.51048,-1.5244 -0.51118,-1.4925 0.14498,-6.6303 0.40762,-3.1918 0.40439,-4.2181 -0.0176,-5.5828 -0.33706,-1.09 -1.15892,-2.7449 -1.74032,-3.5043 z m 53.365491,-4.2718 -0.7625,-1.5033 c -0.93922,-1.8517 -1.14492,-2.5843 -1.36875,-4.8749 -0.22722,-2.3252 -0.45724,-2.8538 -1.5325,-3.5217 -0.44474,-0.2763 -1.6785,-0.8932 -2.74174,-1.3711 -1.06322,-0.4778 -2.98738,-1.4138 -4.27591,-2.0799 -1.28853,-0.6661 -2.51746,-1.2378 -2.73093,-1.2703 -0.68588,-0.1045 -3.93096,1.0099 -6.87315,2.3602 -1.07999,0.4957 -1.63042,0.8291 -2.45106,1.4845 -1.43712,1.1477 -2.96021,2.6717 -4.12,4.1225 -0.93291,1.1669 -1.93371,2.8245 -1.82208,3.0179 0.0795,0.1377 2.58057,-0.059 3.47536,-0.2726 0.71712,-0.1717 0.83168,-0.2423 1.75196,-1.08 1.16981,-1.0649 2.37881,-1.7971 3.01613,-1.8267 0.26042,-0.012 0.80805,0.1874 1.27362,0.4639 1.49675,0.8889 2.20961,0.9428 4.62609,0.35 1.20966,-0.2968 2.11283,-0.1376 3.03329,0.5345 0.75035,0.548 0.83879,0.8166 1.27839,3.8829 0.44289,3.0892 0.63883,3.7924 1.44961,5.2025 l 0.62476,1.0866 m -21.56305,12.4495 -0.72308,-1.0299 c -1.06357,-1.5147 -2.2524,-3.6456 -2.56504,-4.5977 -0.46545,-1.4173 -0.93697,-3.8615 -1.00421,-5.2054 -0.0881,-1.7604 0.0663,-2.753 0.64115,-4.1214 0.96952,-2.3081 0.81383,-2.9598 -1.31427,-5.5009 -1.56495,-1.8687 -2.33816,-3.1388 -3.39057,-5.5694 -0.92171,-2.1287 -1.25271,-3.0684 -1.34162,-3.8087 -0.15624,-1.3008 -1.397831,-2.1121 -4.078711,-2.6654 -1.58722,-0.3275 -2.92417,-0.4733 -2.96438,-0.3232 -0.0123,0.046 0.15965,0.2736 0.38185,0.5067 0.84265,0.8834 2.59734,3.8455 3.23994,5.4694 1.79748,4.5421 3.061841,11.6411 2.912311,16.3516 -0.0405,1.2759 -0.215,2.8919 -0.882821,8.1763 -0.19569,1.5484 -0.34052,3.2652 -0.32187,3.8151 0.0318,0.9382 0.0847,1.0963 0.856651,2.5608 l 0.82272,1.5608 m -63.640571,36.7429 -0.28311,-0.6591 c -0.79322,-1.8466 -1.23645,-6.183 -1.01416,-9.9221 0.13183,-2.2177 0.23665,-2.6609 1.21059,-5.1192 1.07522,-2.7139 1.14142,-3.4663 0.41548,-4.7236 -0.21254,-0.3682 -0.50372,-1.0026 -0.64708,-1.4099 -0.28907,-0.8212 -0.40747,-2.1443 -0.20247,-2.2627 0.0726,-0.042 0.52399,0.08 1.00308,0.2701 1.45547,0.5784 5.09684,1.4184 5.39725,1.245 0.0478,-0.028 -0.54646,-0.528 -1.32054,-1.112 -1.84046,-1.3886 -4.39662,-3.4958 -5.72792,-4.722 -0.92434,-0.8514 -1.12897,-1.1126 -1.5726,-2.0075 -1.19638,-2.4134 -1.53968,-7.3279 -0.65741,-9.411 0.20348,-0.4804 0.50275,-1.1114 0.66502,-1.4022 0.80784,-1.4475 2.68274,-3.4448 4.30403,-4.5849 l 0.78281,-0.5504 -0.14819,-0.8859 c -0.51995,-3.1086 0.24476,-7.7267 1.7992,-10.8653 2.35706,-4.7593 5.62555,-7.4476 10.46183,-8.6046 l 1.43984,-0.3444 0.88278,-1.3413 c 2.39098,-3.6328 3.30841,-6.604 3.05445,-9.8923 l -0.10583,-1.3704 m 15.17018,0.042 c 0.47118,0.1047 1.94793,5.1231 2.36967,8.0528 0.24081,1.6728 0.35869,1.968 0.84885,2.1259 0.51431,0.1657 0.95801,-0.1886 1.46503,-1.1697 0.25373,-0.4909 0.77767,-1.4405 1.16432,-2.1102 1.62826,-2.82 2.56955,-5.2317 2.52913,-6.4797 m 82.055721,6.8493 -0.35257,-0.4167 c -0.46381,-0.5482 -0.52893,-0.5861 -2.32535,-1.3521 -0.84676,-0.3611 -2.10088,-1.0253 -2.78694,-1.4759 -0.7981,-0.5243 -1.31827,-0.7773 -1.44421,-0.7025 -0.11197,0.066 -0.21965,0.7354 -0.24977,1.5516 -0.0579,1.5687 -0.21055,2.0447 -1.07339,3.3469 -0.95532,1.4419 -0.99372,1.5906 -0.66228,2.5656 0.16248,0.4779 0.45122,1.1986 0.48848,1.3363 m -69.965611,52.4276 c -0.0528,0.197 -0.53698,0.443 -1.24704,0.6336 -0.65503,0.1758 -1.58766,0.8608 -2.18887,1.6077 l -0.26609,0.3306 0.76282,0.3485 c 1.54193,0.7045 3.25777,2.0669 5.85122,4.646 1.51259,1.5042 1.73931,1.8503 1.35658,2.0713 -0.17229,0.099 -0.51208,-0.01 -1.11202,-0.3504 -1.82853,-1.0449 -3.72494,-1.2046 -5.62294,-0.4738 -1.12897,0.4347 -2.0065,1.1413 -2.50417,2.0164 -0.52421,0.9217 -0.82606,2.5935 -0.72523,4.0168 l 0.0904,1.2766 -0.59762,-0.3782 c -0.84713,-0.5362 -1.75449,-2.1118 -2.28348,-3.9652 -0.46802,-1.6398 -0.73004,-1.9701 -1.48582,-1.8729 -0.43639,0.056 -0.62565,0.1572 -1.03822,0.5551 -0.40523,0.3907 -0.57772,0.7594 -0.87633,1.8728 -0.43429,1.6195 -0.75328,4.1992 -0.81488,6.59 -0.0307,1.1903 -0.11383,1.7341 -0.27988,1.83 -0.21676,0.1251 -0.29117,0.038 -0.90187,-1.0507 -1.75509,-3.13 -1.71768,-8.2349 0.0927,-12.6488 1.56446,-3.8142 3.54256,-5.8052 7.08934,-7.1354 2.40983,-0.9038 5.38484,-1.4308 5.98229,-1.0597 0.29825,0.1853 0.77315,0.938 0.71909,1.1397 z m 11.29355,19.0623 c 0.92444,3.0415 1.57932,8.0082 1.45918,11.0667 -0.0663,1.687 -0.55131,3.1302 -1.17261,3.4889 -1.08379,0.6257 -3.13101,-0.5051 -6.29718,-3.4782 -1.28493,-1.2066 -3.40643,-3.4522 -4.47085,-4.7324 l -0.34617,-0.4164 1.05524,0.2828 c 1.40866,0.3774 2.10864,0.2114 4.18707,-0.9931 1.83107,-1.0611 2.62926,-1.8309 3.27429,-3.1577 0.43687,-0.8987 0.86734,-2.3385 1.09505,-3.6626 l 0.13991,-0.8136 0.37766,0.6802 c 0.20771,0.374 0.522,1.155 0.69841,1.7354 z m 12.560391,-0.7183 c 1.08748,4.0898 0.0793,8.2059 -2.66755,10.8907 -0.4476,0.4375 -0.8606,0.8225 -0.91777,0.8555 -0.0572,0.033 -0.0481,-0.4374 0.0202,-1.0454 0.14617,-1.3017 -0.0335,-4.0533 -0.3863,-5.9147 -1.45017,-7.6522 -4.731661,-12.2108 -11.005001,-15.288 -1.61614,-0.7928 -2.07209,-1.1471 -2.00224,-1.5562 0.20974,-1.2283 4.82233,-0.6401 7.06224,0.9006 1.0186,0.7006 2.160131,1.8197 3.147841,3.0859 0.35988,0.4614 1.16478,1.3257 1.78866,1.9207 3.92667,3.745 4.5138,4.4731 4.95995,6.1509 z m 1.83852,-18.7685 0.2742,0.66 -0.69838,-0.4934 c -1.01412,-0.7165 -2.70651,-1.3286 -6.08946,-2.2024 -2.28974,-0.5915 -3.64137,-0.8316 -5.782211,-1.0273 -3.88142,-0.3549 -4.5668,-0.5008 -5.59992,-1.1921 -0.76075,-0.509 -0.93287,-0.6986 -1.44195,-1.5878 -0.63209,-1.1041 -0.87246,-2.2543 -0.6288,-3.009 0.28752,-0.8905 2.41037,-2.346 3.57496,-2.4511 1.28662,-0.1161 2.06718,0.3295 3.58641,2.0476 1.06489,1.2043 1.03694,1.1889 5.814491,3.1896 2.96799,1.2429 3.8552,1.7588 4.82601,2.8066 0.77546,0.8369 1.79773,2.3761 2.16465,3.2593 z m 30.3823,-44.0799 0.92063,1.4119 c 1.134,1.7393 1.66561,2.2837 3.53738,3.6229 1.90008,1.3593 2.24285,1.8228 2.28366,3.088 0.0169,0.5233 -0.0657,1.9003 -0.18351,3.0599 -0.1178,1.1597 -0.26931,3.2941 -0.33668,4.7431 -0.0674,1.4489 -0.18678,2.799 -0.26536,3.0002 -0.25246,0.6462 -2.84005,2.8993 -5.48059,4.7722 -0.96927,0.6874 -1.53318,0.9974 -2.51108,1.3804 -1.71252,0.6708 -3.7939,1.2278 -5.63018,1.5068 -1.47708,0.2245 -3.41302,0.2624 -3.52465,0.069 -0.0795,-0.1377 1.3409,-2.2056 1.97377,-2.8734 0.5072,-0.5352 0.62563,-0.5991 1.81128,-0.9773 1.50711,-0.4806 2.74572,-1.1615 3.08998,-1.6987 0.14068,-0.2195 0.24175,-0.7935 0.23509,-1.3349 -0.0214,-1.7407 0.28831,-2.385 2.00994,-4.1813 0.86185,-0.8992 1.17558,-1.761 1.05373,-2.8942 -0.0994,-0.9238 -0.28777,-1.1347 -2.72347,-3.0486 -2.45386,-1.9281 -2.9649,-2.4494 -3.78072,-3.8566 l -0.62863,-1.0844 m -21.56305,12.4495 0.5303,1.1411 c 0.78006,1.6784 2.03107,3.7735 2.69922,4.5202 0.99472,1.1118 2.87567,2.7422 4.00594,3.4724 1.48047,0.9565 2.41733,1.319 3.8898,1.5055 2.48366,0.3144 2.9702,0.7751 4.1068,3.8886 0.83585,2.2896 1.54915,3.5943 3.12794,5.721 1.38269,1.8626 2.03098,2.6191 2.62759,3.0662 1.04841,0.7857 1.13027,2.2667 0.26894,4.865 -0.50995,1.5383 -1.05216,2.7691 -1.20224,2.7289 -0.0457,-0.012 -0.15716,-0.2751 -0.24788,-0.5841 -0.34374,-1.1714 -2.03167,-4.1721 -3.11666,-5.5406 -3.0349,-3.8277 -8.55061,-8.4722 -12.70474,-10.6979 -1.12527,-0.6029 -2.61201,-1.2598 -7.52236,-3.3236 -1.43876,-0.6047 -2.99797,-1.3377 -3.4649,-1.6288 -0.79654,-0.4967 -0.90706,-0.6216 -1.78934,-2.0223 l -0.94036,-1.4929 m -63.640581,36.7429 0.42925,0.5747 c 1.20264,1.6103 4.73645,4.1623 8.08575,5.8394 1.98645,0.9947 2.42273,1.1255 5.0386,1.5112 2.88793,0.4257 3.57262,0.7446 4.29854,2.002 0.21255,0.3681 0.61638,0.9375 0.89742,1.2653 0.56672,0.661 1.65331,1.425 1.8583,1.3067 0.0726,-0.042 0.19306,-0.4936 0.26771,-1.0037 0.22675,-1.5497 1.32001,-5.1233 1.62041,-5.2967 0.0478,-0.028 0.18403,0.7373 0.30276,1.6996 0.2823,2.2882 0.82916,5.5555 1.2254,7.3216 0.27513,1.2261 0.39904,1.534 0.95225,2.3656 1.49184,2.2428 5.57631,4.9974 7.82143,5.2748 0.5178,0.064 1.21389,0.1203 1.54685,0.1252 1.65755,0.024 4.32466,-0.6009 6.12263,-1.435 l 0.8681,-0.4027 0.69312,0.5713 c 2.43217,2.0046 6.81387,3.6514 10.30924,3.8745 5.30019,0.3384 9.26251,-1.1481 12.682681,-4.7579 l 1.01823,-1.0747 1.60296,-0.094 c 4.34158,-0.2542 7.37346,0.4369 10.09422,2.3009 l 1.13381,0.7768 m 7.54861,-13.1588 c 0.14491,-0.4604 -3.46281,-4.2485 -5.78912,-6.0786 -1.32828,-1.0449 -1.52501,-1.2946 -1.41666,-1.7981 0.11366,-0.5282 0.64231,-0.7353 1.74548,-0.6839 0.55206,0.026 1.63641,0.047 2.40968,0.047 3.25637,-10e-5 5.81555,0.3905 6.87618,1.0496 m 35.09613,-74.487 0.1846,0.5136 c 0.24287,0.6758 0.2431,0.7512 0.008,2.6899 -0.11065,0.9139 -0.16254,2.3321 -0.11531,3.1515 0.055,0.9533 0.014,1.5303 -0.11373,1.602 -0.11358,0.064 -0.74667,-0.1775 -1.46859,-0.5595 -1.3875,-0.7342 -1.87602,-0.84 -3.43524,-0.7439 -1.72633,0.1064 -1.87437,0.065 -2.553,-0.7092 -0.33264,-0.3797 -0.81245,-0.9901 -0.91307,-1.0912 m 10.48337,98.9232 c -0.14417,0.1441 -0.11511,0.6865 0.0748,1.3967 0.17523,0.6552 0.0483,1.8054 -0.29789,2.6995 l -0.15323,0.3957 -0.68328,-0.4863 c -1.3811,-0.9831 -3.4189,-1.7879 -6.94911,-2.7444 -2.05897,-0.5578 -2.47209,-0.5811 -2.47209,-0.1392 0,0.199 0.26261,0.4397 0.85947,0.7879 1.81911,1.0611 2.90568,2.6236 3.22176,4.6327 0.18801,1.1951 0.0148,2.3083 -0.49413,3.1769 -0.53615,0.9148 -1.83308,2.0122 -3.11608,2.6365 l -1.15081,0.56 0.62638,0.3284 c 0.88792,0.4655 2.70608,0.4635 4.57569,-0.01 1.6541,-0.4146 2.07115,-0.3528 2.36492,0.3503 0.16963,0.4059 0.17662,0.6204 0.0384,1.1766 -0.13578,0.5463 -0.36879,0.8801 -1.18377,1.6954 -1.18532,1.1858 -3.25992,2.7519 -5.29961,4.0007 -1.01555,0.6217 -1.4449,0.9656 -1.4449,1.1574 0,0.2502 0.11229,0.2713 1.36083,0.2557 3.58819,-0.045 7.99048,-2.6299 10.90781,-6.4047 2.52105,-3.262 3.25622,-5.9706 2.6348,-9.7073 -0.42222,-2.5388 -1.45334,-5.3788 -2.07342,-5.7106 -0.30955,-0.1657 -1.19886,-0.2006 -1.34656,-0.053 z m -22.15519,-0.2494 c -3.09623,0.7202 -7.725,2.6364 -10.31363,4.2697 -1.42786,0.9008 -2.43516,2.0425 -2.43516,2.7599 0,1.2515 2.00288,2.459 6.16081,3.7144 1.68743,0.5095 4.6929,1.224 6.33379,1.5057 l 0.53366,0.092 -0.77251,-0.7725 c -1.03119,-1.0312 -1.23742,-1.7204 -1.23351,-4.1226 0.003,-2.1163 0.27099,-3.1925 1.09757,-4.4145 0.55985,-0.8277 1.59149,-1.9204 2.62437,-2.7797 l 0.63458,-0.5279 -0.77782,0.013 c -0.4278,0.01 -1.26127,0.1254 -1.85216,0.2628 z m -5.65817,-11.2367 c -4.08556,1.103 -7.14611,4.0342 -8.09785,7.7555 -0.15509,0.6063 -0.28197,1.1565 -0.28197,1.2225 0,0.066 0.40287,-0.177 0.89528,-0.5402 1.05424,-0.7774 3.52706,-1.9976 5.31544,-2.6228 7.35201,-2.5702 12.94065,-2.0076 18.74227,1.8866 1.49463,1.0033 2.02951,1.221 2.34883,0.9559 0.95885,-0.7957 -1.85684,-4.4963 -4.31104,-5.6657 -1.11605,-0.5319 -2.65597,-0.9609 -4.24642,-1.1832 -0.57949,-0.081 -1.73046,-0.3459 -2.5577,-0.5887 -5.20659,-1.5281 -6.13074,-1.6725 -7.80684,-1.2199 z m 15.33478,-10.9765 -0.70863,0.092 0.77647,0.3581 c 1.12752,0.52 2.50382,1.6796 4.95207,4.1724 1.6571,1.6873 2.54088,2.7378 3.78078,4.4939 2.24798,3.184 2.71702,3.7046 3.8323,4.2537 0.82123,0.4043 1.07144,0.4586 2.09607,0.4548 1.2722,0 2.38849,-0.3715 2.92021,-0.9599 0.62747,-0.6943 0.82655,-3.2604 0.33527,-4.3216 -0.54276,-1.1723 -1.31897,-1.6254 -3.56645,-2.0821 -1.57538,-0.3201 -1.54814,-0.3035 -5.66952,-3.4407 -2.56037,-1.9489 -3.45081,-2.4593 -4.84362,-2.7761 -1.11249,-0.2531 -2.95663,-0.3688 -3.90495,-0.245 z m 22.98319,-48.3518 -1.68312,-0.091 c -2.07324,-0.1125 -2.81055,-0.3007 -4.90614,-1.2521 -2.12728,-0.9658 -2.70007,-1.0309 -3.81618,-0.4337 -0.46161,0.247 -1.61279,1.007 -2.55821,1.6889 -0.94541,0.6819 -2.71807,1.8803 -3.93923,2.6631 -1.22116,0.7828 -2.33068,1.5613 -2.46557,1.7299 -0.43343,0.5418 -1.0909,3.9092 -1.39256,7.1324 -0.11072,1.1832 -0.0972,1.8266 0.06,2.8649 0.27539,1.8185 0.83369,3.8995 1.51018,5.6293 0.54417,1.3914 1.47931,3.0869 1.70257,3.0869 0.15905,0 1.23967,-2.264 1.5016,-3.146 0.20991,-0.7069 0.20603,-0.8414 -0.0593,-2.0572 -0.33731,-1.5456 -0.36692,-2.9587 -0.0738,-3.5254 0.11975,-0.2316 0.56629,-0.6061 1.03852,-0.8711 1.51818,-0.8518 1.92132,-1.4421 2.61615,-3.8313 0.34784,-1.196 0.93725,-1.8985 1.97959,-2.3596 0.84968,-0.3759 1.12655,-0.3182 4.00186,0.8343 2.89672,1.161 3.60372,1.343 5.23032,1.3459 l 1.25339,0 m 0,24.8988 -1.25339,0.1113 c -1.84362,0.1637 -4.28345,0.1278 -5.26424,-0.077 -1.46018,-0.3056 -3.81264,-1.1194 -5.01016,-1.7331 -1.56853,-0.8039 -2.35098,-1.434 -3.24865,-2.6159 -1.51414,-1.9937 -2.15638,-2.1847 -5.42107,-1.6123 -2.4008,0.4209 -3.88729,0.4555 -6.51851,0.1516 -2.30441,-0.2661 -3.2837,-0.4493 -3.96923,-0.7424 -1.20463,-0.5151 -2.5281,0.1544 -4.34763,2.1995 -1.07728,1.2108 -1.87201,2.2958 -1.76216,2.4056 0.0334,0.034 0.31683,0 0.62976,-0.077 1.18637,-0.288 4.62899,-0.3266 6.35659,-0.071 4.83236,0.7144 11.61245,3.169 15.61705,5.6537 1.08476,0.673 2.39703,1.6321 6.63954,4.8527 1.24307,0.9437 2.65744,1.9275 3.14304,2.1863 0.82836,0.4415 0.99177,0.4748 2.64598,0.5385 l 1.76308,0.068 m 0,73.4858 -0.71235,-0.084 c -1.99586,-0.2363 -5.97289,-2.0207 -9.09991,-4.0827 -1.85462,-1.223 -2.18608,-1.5354 -3.82801,-3.608 -1.8127,-2.2881 -2.43122,-2.7217 -3.88306,-2.7217 -0.42509,0 -1.12012,-0.065 -1.54448,-0.1445 -0.8558,-0.1603 -2.06079,-0.7193 -2.06079,-0.956 0,-0.084 0.33092,-0.414 0.73538,-0.7337 1.22871,-0.9712 3.77683,-3.7048 3.77683,-4.0516 0,-0.055 -0.73049,0.2092 -1.62331,0.5876 -2.12276,0.8996 -5.22577,2.0597 -6.95331,2.5995 -1.19948,0.3748 -1.528,0.4214 -2.52485,0.3582 -2.68822,-0.1706 -7.11599,-2.3306 -8.47883,-4.1362 -0.31432,-0.4164 -0.71115,-0.9911 -0.88184,-1.277 -0.8497,-1.4234 -1.6419,-4.0457 -1.8186,-6.0198 l -0.0853,-0.9532 -0.84129,-0.3146 c -2.95212,-1.104 -6.56913,-4.0753 -8.51006,-6.9908 -2.94312,-4.421 -3.63695,-8.5957 -2.22084,-13.3626 l 0.42162,-1.4191 -0.7202,-1.4352 c -1.9506,-3.887 -4.06505,-6.1671 -7.03976,-7.5914 l -1.23965,-0.5935 m 7.62159,-13.1167 c 0.32626,-0.3557 5.41073,0.8747 8.15877,1.9743 1.56909,0.6278 1.88371,0.6733 2.26553,0.3278 0.40062,-0.3626 0.31568,-0.924 -0.28046,-1.8536 -0.29834,-0.4652 -0.85875,-1.3938 -1.24536,-2.0634 -1.6281,-2.8202 -3.246,-4.8412 -4.34705,-5.4302 m 46.95959,-67.6377 -0.53716,0.097 c -0.70669,0.1276 -0.77204,0.165 -2.33369,1.3377 -0.73609,0.5528 -1.93833,1.3068 -2.67163,1.6757 -0.85305,0.429 -1.33226,0.753 -1.33046,0.8994 0.002,0.1303 0.52701,0.558 1.2188,0.9921 1.32963,0.8345 1.66549,1.2047 2.36186,2.6031 0.771,1.5482 0.88066,1.6559 1.89072,1.8563 0.49511,0.098 1.26366,0.2086 1.40154,0.2452 m 10.42081,86.8058 c 0.14417,0.1441 0.11511,0.6865 -0.0748,1.3967 -0.17523,0.6552 -0.0483,1.8054 0.2979,2.6995 l 0.15322,0.3957 0.68328,-0.4863 c 1.3811,-0.9831 3.4189,-1.7879 6.94911,-2.7444 2.05897,-0.5578 2.47209,-0.5811 2.47209,-0.1392 0,0.199 -0.26261,0.4397 -0.85947,0.7879 -1.81911,1.0611 -2.90568,2.6236 -3.22176,4.6327 -0.18801,1.1951 -0.0148,2.3083 0.49413,3.1769 0.53614,0.9148 1.83308,2.0122 3.11608,2.6365 l 1.15081,0.56 -0.62639,0.3284 c -0.8879,0.4655 -2.70607,0.4635 -4.57568,-0.01 -1.65409,-0.4146 -2.07115,-0.3528 -2.36492,0.3503 -0.16963,0.4059 -0.17662,0.6204 -0.0384,1.1766 0.13578,0.5463 0.36879,0.8801 1.18377,1.6954 1.18532,1.1858 3.25992,2.7519 5.29961,4.0007 1.01555,0.6217 1.4449,0.9656 1.4449,1.1574 0,0.2502 -0.11229,0.2713 -1.36083,0.2557 -3.58821,-0.045 -7.99048,-2.6299 -10.90781,-6.4047 -2.52105,-3.262 -3.25621,-5.9706 -2.6348,-9.7073 0.42221,-2.5388 1.45333,-5.3788 2.07342,-5.7106 0.30955,-0.1657 1.19886,-0.2006 1.34656,-0.053 z m 22.1552,-0.2494 c 3.09622,0.7202 7.72499,2.6364 10.31362,4.2697 1.42786,0.9008 2.43516,2.0425 2.43516,2.7599 0,1.2515 -2.00289,2.459 -6.16081,3.7144 -1.68743,0.5095 -4.6929,1.224 -6.33379,1.5057 l -0.53366,0.092 0.7725,-0.7725 c 1.0312,-1.0312 1.23742,-1.7204 1.23352,-4.1226 -0.003,-2.1163 -0.27101,-3.1925 -1.09759,-4.4145 -0.55984,-0.8277 -1.59147,-1.9204 -2.62435,-2.7797 l -0.63458,-0.5279 0.77782,0.013 c 0.4278,0.01 1.26127,0.1254 1.85216,0.2628 z m 5.65816,-11.2367 c 4.08556,1.103 7.14611,4.0342 8.09785,7.7555 0.15508,0.6063 0.28197,1.1565 0.28197,1.2225 0,0.066 -0.40287,-0.177 -0.89528,-0.5402 -1.05424,-0.7774 -3.52706,-1.9976 -5.31544,-2.6228 -7.35202,-2.5702 -12.94064,-2.0076 -18.74229,1.8866 -1.49463,1.0033 -2.02949,1.221 -2.34882,0.9559 -0.95884,-0.7957 1.85685,-4.4963 4.31105,-5.6657 1.11605,-0.5319 2.65597,-0.9609 4.24642,-1.1832 0.57949,-0.081 1.73047,-0.3459 2.5577,-0.5887 5.2066,-1.5281 6.13073,-1.6725 7.80684,-1.2199 z m -15.33478,-10.9765 0.70863,0.092 -0.77647,0.3581 c -1.12752,0.52 -2.50382,1.6796 -4.95209,4.1724 -1.65708,1.6873 -2.54086,2.7378 -3.78076,4.4939 -2.24799,3.184 -2.71702,3.7046 -3.83231,4.2537 -0.82122,0.4043 -1.07143,0.4586 -2.09606,0.4548 -1.2722,0 -2.3885,-0.3715 -2.92023,-0.9599 -0.62745,-0.6943 -0.82653,-3.2604 -0.33525,-4.3216 0.54276,-1.1723 1.31897,-1.6254 3.56645,-2.0821 1.57538,-0.3201 1.54814,-0.3035 5.66952,-3.4407 2.56037,-1.9489 3.45081,-2.4593 4.8436,-2.7761 1.1125,-0.2531 2.95665,-0.3688 3.90497,-0.245 z m -22.98319,-48.3518 1.68312,-0.091 c 2.07323,-0.1125 2.81054,-0.3007 4.90614,-1.2521 2.12728,-0.9658 2.70007,-1.0309 3.81618,-0.4337 0.46159,0.247 1.61279,1.007 2.55821,1.6889 0.94541,0.6819 2.71807,1.8803 3.93923,2.6631 1.22116,0.7828 2.33066,1.5613 2.46557,1.7299 0.43342,0.5418 1.0909,3.9092 1.39256,7.1324 0.11072,1.1832 0.0972,1.8266 -0.06,2.8649 -0.27541,1.8185 -0.83369,3.8995 -1.51018,5.6293 -0.54417,1.3914 -1.47931,3.0869 -1.70257,3.0869 -0.15905,0 -1.23967,-2.264 -1.5016,-3.146 -0.20992,-0.7069 -0.20604,-0.8414 0.0593,-2.0572 0.33731,-1.5456 0.3669,-2.9587 0.0738,-3.5254 -0.11974,-0.2316 -0.56628,-0.6061 -1.03853,-0.8711 -1.51816,-0.8518 -1.9213,-1.4421 -2.61615,-3.8313 -0.34782,-1.196 -0.93725,-1.8985 -1.97957,-2.3596 -0.8497,-0.3759 -1.12656,-0.3182 -4.00186,0.8343 -2.89674,1.161 -3.60372,1.343 -5.23032,1.3459 l -1.25339,0 m 0,24.8988 1.25339,0.1113 c 1.84362,0.1637 4.28345,0.1278 5.26424,-0.077 1.46018,-0.3056 3.81264,-1.1194 5.01016,-1.7331 1.56853,-0.8039 2.35098,-1.434 3.24865,-2.6159 1.51414,-1.9937 2.15636,-2.1847 5.42107,-1.6123 2.4008,0.4209 3.88729,0.4555 6.51851,0.1516 2.30441,-0.2661 3.2837,-0.4493 3.96923,-0.7424 1.20463,-0.5151 2.52808,0.1544 4.34763,2.1995 1.07727,1.2108 1.87201,2.2958 1.76215,2.4056 -0.0334,0.034 -0.31682,0 -0.62975,-0.077 -1.18637,-0.288 -4.62899,-0.3266 -6.35659,-0.071 -4.83236,0.7144 -11.61245,3.169 -15.61705,5.6537 -1.08476,0.673 -2.39703,1.6321 -6.63954,4.8527 -1.24307,0.9437 -2.65746,1.9275 -3.14304,2.1863 -0.82836,0.4415 -0.99179,0.4748 -2.64598,0.5385 l -1.76308,0.068 m 0,73.4858 0.71235,-0.084 c 1.99586,-0.2363 5.97289,-2.0207 9.09991,-4.0827 1.85462,-1.223 2.18608,-1.5354 3.82801,-3.608 1.81269,-2.2881 2.43122,-2.7217 3.88306,-2.7217 0.42509,0 1.1201,-0.065 1.54448,-0.1445 0.85579,-0.1603 2.06079,-0.7193 2.06079,-0.956 0,-0.084 -0.33092,-0.414 -0.73537,-0.7337 -1.22872,-0.9712 -3.77684,-3.7048 -3.77684,-4.0516 0,-0.055 0.73049,0.2092 1.62331,0.5876 2.12276,0.8996 5.22575,2.0597 6.95331,2.5995 1.19948,0.3748 1.528,0.4214 2.52485,0.3582 2.6882,-0.1706 7.11599,-2.3306 8.47883,-4.1362 0.31433,-0.4164 0.71115,-0.9911 0.88184,-1.277 0.8497,-1.4234 1.64191,-4.0457 1.81859,-6.0198 l 0.0853,-0.9532 0.84129,-0.3146 c 2.95212,-1.104 6.56913,-4.0753 8.51006,-6.9908 2.94312,-4.4209 3.63695,-8.5956 2.22083,-13.3625 l -0.42161,-1.4192 0.72019,-1.4351 c 1.95061,-3.8871 4.06505,-6.1672 7.03977,-7.5914 l 1.23965,-0.5935 m -7.62159,-13.1167 c -0.32625,-0.3557 -5.41073,0.8746 -8.15877,1.9742 -1.56909,0.6279 -1.8837,0.6734 -2.26553,0.3278 -0.40063,-0.3625 -0.31569,-0.9239 0.28047,-1.8535 0.29833,-0.4653 0.85874,-1.3938 1.24535,-2.0635 1.6281,-2.8201 3.24599,-4.8411 4.34704,-5.4301 m -46.95958,-67.6377 0.53716,0.097 c 0.70669,0.1275 0.77204,0.165 2.33369,1.3377 0.73609,0.5528 1.93833,1.3068 2.67163,1.6756 0.85305,0.4291 1.33225,0.753 1.33046,0.8995 -0.002,0.1302 -0.52701,0.5579 -1.2188,0.9921 -1.32963,0.8345 -1.66549,1.2047 -2.36186,2.6031 -0.771,1.5482 -0.88066,1.6559 -1.89072,1.8563 -0.49511,0.098 -1.26366,0.2086 -1.40153,0.2451 m -90.827871,-88.7072 c -0.0528,-0.197 -0.53699,-0.4429 -1.24705,-0.6336 -0.65504,-0.1758 -1.58767,-0.8608 -2.18887,-1.6077 l -0.2661,-0.3306 0.76283,-0.3485 c 1.54193,-0.7045 3.25777,-2.0669 5.85121,-4.646 1.5126,-1.5041 1.73931,-1.8503 1.35659,-2.0712 -0.17229,-0.099 -0.51208,0.01 -1.11202,0.3504 -1.82855,1.0448 -3.72494,1.2046 -5.62295,0.4737 -1.12896,-0.4347 -2.00649,-1.1413 -2.50416,-2.0163 -0.52421,-0.9218 -0.82606,-2.5936 -0.72524,-4.0169 l 0.0904,-1.2766 -0.59762,0.3782 c -0.84714,0.5362 -1.75449,2.1118 -2.28348,3.9652 -0.46802,1.6398 -0.73004,1.9701 -1.48582,1.873 -0.43639,-0.056 -0.62565,-0.1573 -1.03822,-0.5551 -0.40522,-0.3908 -0.57772,-0.7595 -0.87633,-1.8729 -0.43429,-1.6194 -0.75329,-4.1991 -0.81489,-6.59 -0.0307,-1.1903 -0.11383,-1.7341 -0.27987,-1.83 -0.21676,-0.1251 -0.29118,-0.038 -0.90187,1.0507 -1.75509,3.13 -1.71768,8.2349 0.0927,12.6488 1.56446,3.8143 3.54256,5.8052 7.08935,7.1354 2.40984,0.9038 5.38484,1.4308 5.98228,1.0597 0.29825,-0.1852 0.77315,-0.9379 0.71909,-1.1397 z m 11.29354,-19.0623 c 0.92443,-3.0415 1.57932,-8.0082 1.45919,-11.0667 -0.0663,-1.687 -0.55132,-3.1302 -1.17262,-3.4889 -1.08379,-0.6257 -3.131,0.5051 -6.29718,3.4783 -1.28494,1.2066 -3.40642,3.4522 -4.47086,4.7323 l -0.34618,0.4164 1.05526,-0.2828 c 1.40865,-0.3774 2.10863,-0.2114 4.18708,0.9931 1.83107,1.0611 2.62926,1.8309 3.27427,3.1578 0.43689,0.8987 0.86735,2.3384 1.09506,3.6626 l 0.1399,0.8135 0.37767,-0.6801 c 0.2077,-0.3741 0.52199,-1.1551 0.69841,-1.7355 z m 12.560391,0.7183 c 1.08748,-4.0898 0.0793,-8.2059 -2.66755,-10.8907 -0.4476,-0.4375 -0.8606,-0.8225 -0.91777,-0.8555 -0.0572,-0.033 -0.0481,0.4374 0.0202,1.0454 0.14616,1.3017 -0.0335,4.0534 -0.3863,5.9147 -1.45017,7.6522 -4.731671,12.2108 -11.005011,15.288 -1.61614,0.7928 -2.07209,1.1472 -2.00224,1.5562 0.20973,1.2283 4.82233,0.6401 7.06223,-0.9006 1.01861,-0.7006 2.160141,-1.8197 3.147861,-3.0859 0.35988,-0.4614 1.16477,-1.3257 1.78865,-1.9207 3.92667,-3.745 4.51381,-4.4731 4.95995,-6.1509 z m 1.83852,18.7685 0.27419,-0.6599 -0.69837,0.4934 c -1.01411,0.7164 -2.70652,1.3285 -6.08947,2.2024 -2.28974,0.5914 -3.64137,0.8316 -5.782201,1.0273 -3.88142,0.3548 -4.5668,0.5007 -5.59993,1.192 -0.76074,0.5091 -0.93286,0.6986 -1.44194,1.5878 -0.6321,1.1041 -0.87246,2.2543 -0.62881,3.009 0.28753,0.8905 2.41037,2.346 3.57497,2.4511 1.28662,0.1161 2.06718,-0.3295 3.5864,-2.0476 1.06489,-1.2042 1.03695,-1.1889 5.814501,-3.1896 2.96798,-1.2429 3.85519,-1.7588 4.82602,-2.8066 0.77545,-0.8369 1.79771,-2.3761 2.16464,-3.2593 z m 30.3823,44.08 0.92063,-1.412 c 1.13401,-1.7393 1.66562,-2.2837 3.53738,-3.6228 1.90007,-1.3594 2.24284,-1.8229 2.28366,-3.0881 0.0169,-0.5233 -0.0657,-1.9002 -0.1835,-3.0599 -0.11781,-1.1597 -0.26933,-3.2941 -0.33669,-4.743 -0.0674,-1.449 -0.18678,-2.7991 -0.26536,-3.0002 -0.25245,-0.6463 -2.84005,-2.8994 -5.48059,-4.7722 -0.96927,-0.6875 -1.53319,-0.9975 -2.51108,-1.3805 -1.71252,-0.6707 -3.7939,-1.2278 -5.63018,-1.5068 -1.47709,-0.2244 -3.41302,-0.2623 -3.52466,-0.069 -0.0795,0.1377 1.3409,2.2056 1.97377,2.8735 0.5072,0.5352 0.62564,0.5991 1.81128,0.9772 1.50713,0.4806 2.74573,1.1616 3.09,1.6987 0.14063,0.2195 0.24175,0.7935 0.23509,1.3349 -0.0214,1.7407 0.28831,2.385 2.00994,4.1813 0.86184,0.8993 1.17557,1.761 1.0537,2.8942 -0.0993,0.9238 -0.28775,1.1347 -2.72346,3.0486 -2.45385,1.9281 -2.96489,2.4494 -3.78071,3.8566 l -0.62863,1.0844 m -21.56306,-12.4494 0.53032,-1.1412 c 0.78004,-1.6784 2.03105,-3.7734 2.6992,-4.5202 0.99472,-1.1118 2.87567,-2.7422 4.00596,-3.4724 1.48046,-0.9564 2.41732,-1.319 3.88979,-1.5054 2.48366,-0.3145 2.9702,-0.7752 4.1068,-3.8887 0.83585,-2.2896 1.54915,-3.5942 3.12794,-5.721 1.3827,-1.8626 2.03098,-2.6191 2.6276,-3.0662 1.0484,-0.7857 1.13027,-2.2667 0.26894,-4.865 -0.50996,-1.5383 -1.05218,-2.769 -1.20224,-2.7288 -0.0457,0.012 -0.15718,0.2751 -0.2479,0.584 -0.34373,1.1715 -2.03165,4.1721 -3.11666,5.5406 -3.03488,3.8277 -8.55061,8.4722 -12.70473,10.6979 -1.12527,0.6029 -2.61202,1.2598 -7.52236,3.3236 -1.43876,0.6048 -2.99797,1.3377 -3.46491,1.6289 -0.79653,0.4966 -0.90705,0.6215 -1.78933,2.0222 l -0.94037,1.4929 m -63.640571,-36.7429 0.42925,-0.5747 c 1.20263,-1.6103 4.73644,-4.1623 8.08575,-5.8394 1.98645,-0.9946 2.42273,-1.1255 5.0386,-1.5111 2.88792,-0.4258 3.57263,-0.7447 4.29854,-2.0021 0.21255,-0.3681 0.61638,-0.9375 0.89741,-1.2653 0.56672,-0.6609 1.65331,-1.425 1.8583,-1.3067 0.0726,0.042 0.19307,0.4936 0.26771,1.0038 0.22676,1.5497 1.32001,5.1232 1.62041,5.2966 0.0478,0.028 0.18403,-0.7372 0.30277,-1.6996 0.2823,-2.2882 0.82915,-5.5555 1.22541,-7.3215 0.27512,-1.2262 0.39902,-1.534 0.95224,-2.3657 1.49183,-2.2428 5.57631,-4.9974 7.82142,-5.2748 0.51781,-0.064 1.2139,-0.1203 1.54686,-0.1252 1.65754,-0.024 4.32465,0.6009 6.12263,1.435 l 0.8681,0.4027 0.69311,-0.5713 c 2.43217,-2.0046 6.81389,-3.6514 10.30924,-3.8745 5.30019,-0.3384 9.26252,1.1481 12.682691,4.7579 l 1.01823,1.0747 1.60296,0.094 c 4.34159,0.2543 7.37346,-0.4368 10.09422,-2.3009 l 1.13382,-0.7768 m 7.54859,13.1588 c 0.14492,0.4604 -3.46281,4.2485 -5.78911,6.0786 -1.32828,1.045 -1.525,1.2946 -1.41666,1.7981 0.11367,0.5282 0.64232,0.7354 1.74548,0.6839 0.55207,-0.026 1.63642,-0.047 2.40967,-0.047 3.25637,1e-4 5.81556,-0.3905 6.87618,-1.0496 m 35.09613,74.4871 0.18461,-0.5137 c 0.24287,-0.6758 0.2431,-0.7511 0.008,-2.6899 -0.11066,-0.9139 -0.16255,-2.3321 -0.11531,-3.1515 0.055,-0.9533 0.014,-1.5303 -0.11374,-1.602 -0.11356,-0.064 -0.74667,0.1775 -1.46857,0.5595 -1.38752,0.7342 -1.87603,0.84 -3.43526,0.7439 -1.72632,-0.1064 -1.87436,-0.065 -2.55299,0.7092 -0.33264,0.3797 -0.81245,0.9901 -0.91306,1.0912 m -80.386421,-34.3782 c -0.19694,0.053 -0.6521,-0.2435 -1.1722,-0.7632 -0.4798,-0.4793 -1.53935,-0.9445 -2.48676,-1.0917 l -0.41933,-0.065 0.0796,0.8349 c 0.16083,1.6876 -0.16112,3.8548 -1.0979,7.3903 -0.54637,2.062 -0.73278,2.4314 -1.11549,2.2105 -0.1723,-0.099 -0.24947,-0.4473 -0.25256,-1.1383 -0.009,-2.1059 -0.81926,-3.8282 -2.40119,-5.1065 -0.94095,-0.7603 -1.99164,-1.167 -2.9983,-1.1604 -1.06035,0.01 -2.65913,0.5814 -3.84131,1.3803 l -1.06037,0.7166 0.0288,-0.7066 c 0.0408,-1.0018 0.95159,-2.5754 2.29221,-3.9602 1.18608,-1.2252 1.34111,-1.6173 0.8791,-2.2232 -0.26677,-0.3499 -0.44903,-0.4632 -0.99984,-0.6216 -0.54101,-0.1555 -0.94653,-0.1206 -2.06011,0.1775 -1.61961,0.4336 -4.0132,1.4472 -6.1145,2.5893 -1.04621,0.5686 -1.55873,0.7685 -1.72477,0.6726 -0.21676,-0.1251 -0.17888,-0.2329 0.45895,-1.3064 1.83311,-3.0849 6.2728,-5.605 11.00053,-6.2441 4.08551,-0.5523 6.79877,0.1654 9.72414,2.5719 1.98762,1.635 3.9315,3.948 3.90886,4.6509 -0.0113,0.3509 -0.4257,1.1386 -0.62747,1.1926 z m -10.86165,19.3117 c -2.17178,2.3213 -6.14567,5.3718 -8.85444,6.797 -1.49412,0.7861 -2.98647,1.0876 -3.60777,0.7289 -1.08379,-0.6257 -1.12813,-2.964 -0.13637,-7.1926 0.40249,-1.7161 1.28648,-4.6761 1.86293,-6.2381 l 0.18749,-0.5079 0.28275,1.0552 c 0.37745,1.4087 0.87121,1.9319 2.95355,3.1296 1.83451,1.0552 2.90026,1.3615 4.37187,1.2567 0.99671,-0.071 2.45882,-0.4181 3.71942,-0.8829 l 0.77447,-0.2856 -0.40015,0.6671 c -0.2201,0.3669 -0.73927,1.0296 -1.15375,1.4726 z m 6.90222,10.5185 c -2.99806,2.9866 -7.06681,4.1715 -10.76539,3.1351 -0.60268,-0.1688 -1.14257,-0.334 -1.19974,-0.367 -0.0572,-0.033 0.35478,-0.2604 0.91545,-0.5053 1.20041,-0.5243 3.49352,-2.0557 4.92915,-3.2919 5.90184,-5.0819 8.20896,-10.2031 7.73727,-17.1746 -0.12151,-1.796 -0.0426,-2.368 0.34658,-2.5121 1.16859,-0.4325 2.96549,3.8562 2.7512,6.5664 -0.0975,1.2324 -0.49584,2.7806 -1.09858,4.2691 -0.21961,0.5423 -0.56569,1.6715 -0.76904,2.5094 -1.27993,5.273 -1.61693,6.1456 -2.8469,7.3709 z m 17.17331,-7.7921 -0.43445,0.5674 0.0781,-0.8515 c 0.11342,-1.2365 -0.20269,-3.0082 -1.13739,-6.3748 -0.63265,-2.2787 -1.1005,-3.5693 -2.00143,-5.5212 -1.63343,-3.5388 -1.84978,-4.2053 -1.76763,-5.4457 0.0605,-0.9134 0.13857,-1.1572 0.65412,-2.0427 0.64011,-1.0994 1.51605,-1.8827 2.29143,-2.049 0.91498,-0.1963 3.23691,0.9144 3.91022,1.8704 0.74387,1.0562 0.74821,1.955 0.0199,4.1297 -0.51047,1.5244 -0.51117,1.4925 0.14498,6.6303 0.40763,3.1918 0.40439,4.2182 -0.0176,5.5828 -0.33705,1.09 -1.15893,2.7449 -1.74032,3.5043 z m 53.365491,4.2719 -0.76249,1.5032 c -0.93923,1.8517 -1.14493,2.5843 -1.36876,4.8749 -0.22721,2.3252 -0.45724,2.8538 -1.53252,3.5217 -0.44471,0.2763 -1.67849,0.8933 -2.74171,1.3711 -1.06323,0.4778 -2.9874,1.4138 -4.27592,2.0799 -1.28853,0.6662 -2.51745,1.2378 -2.73093,1.2703 -0.68588,0.1045 -3.93095,-1.0099 -6.87314,-2.3602 -1.08,-0.4957 -1.63044,-0.8291 -2.45107,-1.4844 -1.43712,-1.1478 -2.96021,-2.6718 -4.12,-4.1225 -0.93292,-1.167 -1.93371,-2.8246 -1.82208,-3.018 0.0795,-0.1377 2.58056,0.059 3.47536,0.2726 0.71712,0.1717 0.83168,0.2423 1.75196,1.08 1.1698,1.0649 2.3788,1.7971 3.01613,1.8267 0.26042,0.012 0.80804,-0.1874 1.27362,-0.4639 1.49675,-0.8889 2.20961,-0.9428 4.62609,-0.35 1.20966,0.2968 2.11283,0.1376 3.0333,-0.5345 0.75033,-0.5479 0.83878,-0.8166 1.27838,-3.8829 0.44288,-3.0892 0.63882,-3.7924 1.4496,-5.2025 l 0.62478,-1.0866 m -21.56306,-12.4494 -0.72308,1.0298 c -1.06357,1.5148 -2.2524,3.6457 -2.56504,4.5977 -0.46545,1.4173 -0.93697,3.8615 -1.00421,5.2054 -0.0881,1.7604 0.0664,2.753 0.64115,4.1214 0.96953,2.3082 0.81382,2.9598 -1.31427,5.5009 -1.56496,1.8687 -2.33815,3.1388 -3.39057,5.5694 -0.92171,2.1288 -1.25272,3.0685 -1.34163,3.8087 -0.15623,1.3008 -1.397821,2.1122 -4.078691,2.6654 -1.58723,0.3275 -2.92419,0.4733 -2.9644,0.3232 -0.0123,-0.046 0.15965,-0.2736 0.38186,-0.5067 0.84264,-0.8834 2.59734,-3.8455 3.23994,-5.4693 1.79747,-4.5422 3.061841,-11.6412 2.912301,-16.3516 -0.0405,-1.276 -0.21498,-2.892 -0.882811,-8.1764 -0.19568,-1.5484 -0.34052,-3.2652 -0.32187,-3.8151 0.0318,-0.9382 0.0847,-1.0963 0.856641,-2.5607 l 0.82272,-1.5609 m -63.640561,-36.7429 -0.28311,0.6591 c -0.79322,1.8467 -1.23645,6.1831 -1.01417,9.9222 0.13184,2.2176 0.23666,2.6609 1.2106,5.1191 1.07523,2.7139 1.14141,3.4663 0.41548,4.7237 -0.21254,0.3681 -0.50373,1.0025 -0.64707,1.4098 -0.28907,0.8213 -0.40747,2.1443 -0.20249,2.2627 0.0726,0.042 0.52399,-0.08 1.00309,-0.27 1.45546,-0.5785 5.09684,-1.4185 5.39724,-1.245 0.0478,0.028 -0.54646,0.5279 -1.32054,1.112 -1.84046,1.3885 -4.3966,3.4958 -5.72791,4.722 -0.92435,0.8513 -1.12896,1.1125 -1.57261,2.0075 -1.19636,2.4133 -1.53967,7.3279 -0.6574,9.4109 0.20348,0.4804 0.50275,1.1114 0.66502,1.4022 0.80785,1.4476 2.68275,3.4448 4.30403,4.5849 l 0.7828,0.5504 -0.14817,0.8859 c -0.51996,3.1087 0.24474,7.7267 1.79918,10.8654 2.35706,4.7592 5.62556,7.4475 10.46184,8.6045 l 1.43985,0.3445 0.88277,1.3412 c 2.39097,3.6328 3.3084,6.6041 3.05445,9.8923 l -0.10583,1.3704 m 15.17019,-0.042 c 0.47116,-0.1047 1.94792,-5.1231 2.36966,-8.0528 0.2408,-1.6728 0.35868,-1.968 0.84886,-2.1259 0.5143,-0.1657 0.95799,0.1886 1.46501,1.1697 0.25373,0.491 0.77768,1.4406 1.16432,2.1102 1.62827,2.8201 2.56956,5.2317 2.52914,6.4797 m 82.055701,-6.8493 -0.35254,0.4167 c -0.46382,0.5482 -0.52894,0.5861 -2.32535,1.3522 -0.84676,0.3611 -2.10088,1.0252 -2.78695,1.4758 -0.7981,0.5243 -1.31827,0.7773 -1.4442,0.7025 -0.11198,-0.066 -0.21966,-0.7353 -0.24979,-1.5515 -0.0579,-1.5688 -0.21053,-2.0447 -1.07337,-3.347 -0.95532,-1.4418 -0.99373,-1.5906 -0.66229,-2.5656 0.16247,-0.4779 0.45122,-1.1986 0.48849,-1.3363 m 122.2366,-34.3057 c 0.19694,0.053 0.65209,-0.2435 1.1722,-0.7632 0.47979,-0.4793 1.53935,-0.9445 2.48675,-1.0917 l 0.41934,-0.065 -0.0796,0.8349 c -0.16082,1.6876 0.16113,3.8548 1.09791,7.3903 0.54636,2.062 0.73277,2.4314 1.11549,2.2105 0.1723,-0.099 0.24946,-0.4473 0.25256,-1.1383 0.009,-2.1059 0.81925,-3.8282 2.40118,-5.1065 0.94096,-0.7603 1.99165,-1.167 2.9983,-1.1604 1.06035,0.01 2.65914,0.5814 3.84132,1.3803 l 1.06037,0.7166 -0.0288,-0.7066 c -0.0408,-1.0018 -0.95159,-2.5753 -2.29222,-3.9602 -1.18607,-1.2252 -1.3411,-1.6173 -0.87909,-2.2232 0.26676,-0.3499 0.44903,-0.4632 0.99983,-0.6216 0.54101,-0.1555 0.94653,-0.1206 2.06012,0.1775 1.61961,0.4336 4.0132,1.4472 6.1145,2.5893 1.0462,0.5686 1.55872,0.7685 1.72477,0.6726 0.21676,-0.1251 0.17888,-0.2329 -0.45896,-1.3064 -1.83311,-3.0849 -6.2728,-5.605 -11.00052,-6.2441 -4.0855,-0.5523 -6.79877,0.1653 -9.72414,2.5719 -1.98763,1.6351 -3.9315,3.948 -3.90887,4.6509 0.0113,0.3509 0.42571,1.1386 0.62749,1.1926 z m 10.86165,19.3117 c 2.17179,2.3213 6.14567,5.3718 8.85443,6.797 1.49413,0.7861 2.98648,1.0876 3.60777,0.7289 1.08379,-0.6257 1.12813,-2.964 0.13637,-7.1926 -0.40249,-1.7161 -1.28648,-4.6761 -1.86292,-6.2381 l -0.18748,-0.5079 -0.28277,1.0552 c -0.37743,1.4087 -0.87121,1.9319 -2.95355,3.1296 -1.8345,1.0552 -2.90026,1.3615 -4.37186,1.2567 -0.99672,-0.071 -2.45882,-0.4181 -3.71942,-0.8829 l -0.77448,-0.2856 0.40015,0.6671 c 0.2201,0.3669 0.73929,1.0296 1.15376,1.4726 z m -6.90223,10.5185 c 2.99807,2.9866 7.06681,4.1715 10.76539,3.1351 0.60269,-0.1688 1.14257,-0.334 1.19975,-0.367 0.0572,-0.033 -0.35479,-0.2604 -0.91545,-0.5053 -1.2004,-0.5243 -3.49352,-2.0557 -4.92915,-3.2919 -5.90184,-5.0819 -8.20897,-10.2031 -7.73728,-17.1746 0.12151,-1.796 0.0426,-2.368 -0.34658,-2.5121 -1.16858,-0.4325 -2.96548,3.8562 -2.75119,6.5664 0.0974,1.2324 0.49584,2.7806 1.09857,4.2691 0.21962,0.5423 0.56569,1.6715 0.76905,2.5094 1.27993,5.273 1.61692,6.1456 2.84689,7.3709 z m -17.1733,-7.7921 0.43444,0.5674 -0.0781,-0.8515 c -0.11342,-1.2365 0.20269,-3.0082 1.13739,-6.3748 0.63264,-2.2787 1.10049,-3.5694 2.00143,-5.5212 1.63344,-3.5388 1.84978,-4.2053 1.76763,-5.4457 -0.0605,-0.9134 -0.13858,-1.1572 -0.65413,-2.0427 -0.6401,-1.0994 -1.51604,-1.8827 -2.29141,-2.049 -0.91499,-0.1963 -3.23692,0.9144 -3.91023,1.8704 -0.74387,1.0562 -0.74821,1.955 -0.0199,4.1297 0.51048,1.5244 0.51118,1.4925 -0.14498,6.6303 -0.40762,3.1918 -0.4044,4.2182 0.0176,5.5828 0.33705,1.09 1.15892,2.7449 1.74032,3.5043 z m -53.36549,4.2719 0.76249,1.5032 c 0.93923,1.8517 1.14493,2.5843 1.36875,4.8749 0.22722,2.3252 0.45724,2.8538 1.53252,3.5217 0.44472,0.2763 1.67849,0.8933 2.74172,1.3711 1.06323,0.4778 2.98739,1.4138 4.27592,2.0799 1.28853,0.6662 2.51745,1.2378 2.73093,1.2703 0.68588,0.1045 3.93095,-1.0099 6.87314,-2.3602 1.08,-0.4957 1.63043,-0.8291 2.45107,-1.4844 1.43712,-1.1478 2.96021,-2.6718 4.12,-4.1225 0.93292,-1.167 1.93371,-2.8246 1.82208,-3.018 -0.0795,-0.1377 -2.58057,0.059 -3.47537,0.2726 -0.71711,0.1717 -0.83167,0.2423 -1.75195,1.08 -1.16981,1.0649 -2.37881,1.7971 -3.01613,1.8267 -0.26042,0.012 -0.80804,-0.1874 -1.27362,-0.4639 -1.49676,-0.8889 -2.20961,-0.9428 -4.62609,-0.35 -1.20967,0.2968 -2.11283,0.1376 -3.03329,-0.5345 -0.75035,-0.548 -0.8388,-0.8166 -1.2784,-3.8829 -0.44287,-3.0892 -0.63882,-3.7924 -1.44961,-5.2025 l -0.62476,-1.0866 m 21.56306,-12.4494 0.72307,1.0298 c 1.06358,1.5148 2.2524,3.6457 2.56505,4.5977 0.46545,1.4173 0.93696,3.8615 1.0042,5.2054 0.0881,1.7604 -0.0663,2.753 -0.64114,4.1214 -0.96953,2.3082 -0.81383,2.9598 1.31426,5.5009 1.56496,1.8687 2.33816,3.1388 3.39058,5.5694 0.92171,2.1288 1.25271,3.0685 1.34162,3.8087 0.15624,1.3008 1.39783,2.1122 4.0787,2.6654 1.58723,0.3275 2.92418,0.4733 2.96439,0.3232 0.0123,-0.046 -0.15965,-0.2736 -0.38185,-0.5067 -0.84265,-0.8834 -2.59734,-3.8455 -3.23995,-5.4694 -1.79746,-4.5421 -3.06183,-11.6411 -2.9123,-16.3515 0.0405,-1.276 0.21499,-2.892 0.88282,-8.1764 0.19568,-1.5484 0.34052,-3.2652 0.32186,-3.8151 -0.0318,-0.9382 -0.0847,-1.0963 -0.85663,-2.5607 l -0.82273,-1.5609 m 63.64057,-36.7429 0.28311,0.6591 c 0.79322,1.8467 1.23645,6.1831 1.01416,9.9222 -0.13183,2.2176 -0.23666,2.6609 -1.21059,5.1191 -1.07523,2.7139 -1.14142,3.4663 -0.41548,4.7237 0.21254,0.3681 0.50372,1.0025 0.64708,1.4098 0.28906,0.8213 0.40747,2.1443 0.20247,2.2627 -0.0726,0.042 -0.52399,-0.08 -1.00308,-0.27 -1.45547,-0.5785 -5.09684,-1.4185 -5.39725,-1.2451 -0.0478,0.028 0.54646,0.528 1.32054,1.1121 1.84046,1.3885 4.39662,3.4958 5.72792,4.722 0.92434,0.8513 1.12897,1.1125 1.5726,2.0075 1.19638,2.4133 1.53968,7.3279 0.6574,9.4109 -0.20347,0.4804 -0.50274,1.1114 -0.66501,1.4022 -0.80784,1.4476 -2.68274,3.4448 -4.30403,4.5849 l -0.78281,0.5504 0.14819,0.8859 c 0.51995,3.1086 -0.24476,7.7267 -1.7992,10.8653 -2.35706,4.7593 -5.62555,7.4476 -10.46184,8.6046 l -1.43984,0.3445 -0.88277,1.3412 c -2.39098,3.6328 -3.30841,6.6041 -3.05445,9.8923 l 0.10583,1.3704 m -15.17018,-0.042 c -0.47118,-0.1047 -1.94793,-5.1231 -2.36967,-8.0528 -0.24081,-1.6728 -0.35869,-1.968 -0.84886,-2.1259 -0.5143,-0.1657 -0.958,0.1886 -1.46502,1.1697 -0.25373,0.491 -0.77767,1.4406 -1.16432,2.1102 -1.62826,2.8201 -2.56955,5.2317 -2.52913,6.4797 m -82.05572,-6.8493 0.35256,0.4167 c 0.46382,0.5482 0.52894,0.5861 2.32535,1.3521 0.84676,0.3611 2.10088,1.0253 2.78695,1.4759 0.7981,0.5243 1.31826,0.7773 1.4442,0.7025 0.11198,-0.066 0.21966,-0.7354 0.24978,-1.5515 0.0579,-1.5688 0.21054,-2.0447 1.07339,-3.347 0.95531,-1.4418 0.99372,-1.5906 0.66227,-2.5656 -0.16247,-0.4779 -0.45121,-1.1986 -0.48847,-1.3363 m 69.96561,-52.4276 c 0.0528,-0.197 0.53698,-0.443 1.24704,-0.6336 0.65503,-0.1758 1.58766,-0.8608 2.18887,-1.6077 l 0.26609,-0.3306 -0.76282,-0.3485 c -1.54193,-0.7045 -3.25777,-2.0669 -5.85122,-4.6459 -1.51259,-1.5042 -1.73931,-1.8504 -1.35659,-2.0713 0.1723,-0.099 0.51209,0.01 1.11203,0.3504 1.82853,1.0448 3.72493,1.2046 5.62294,0.4737 1.12897,-0.4347 2.0065,-1.1413 2.50416,-2.0163 0.52422,-0.9218 0.82607,-2.5936 0.72524,-4.0169 l -0.0904,-1.2766 0.59762,0.3782 c 0.84713,0.5362 1.75449,2.1118 2.28347,3.9652 0.46803,1.6398 0.73005,1.9701 1.48583,1.873 0.43639,-0.056 0.62565,-0.1573 1.03822,-0.5551 0.40522,-0.3908 0.57772,-0.7595 0.87633,-1.8729 0.43429,-1.6194 0.75328,-4.1991 0.81487,-6.59 0.0307,-1.1903 0.11384,-1.7341 0.27989,-1.83 0.21676,-0.1251 0.29117,-0.038 0.90187,1.0507 1.75509,3.13 1.71768,8.2349 -0.0927,12.6488 -1.56446,3.8143 -3.54256,5.8052 -7.08934,7.1354 -2.40984,0.9038 -5.38484,1.4308 -5.98229,1.0597 -0.29825,-0.1852 -0.77315,-0.9379 -0.71909,-1.1397 z m -11.29324,-19.0612 c -0.92444,-3.0415 -1.57932,-8.0082 -1.45919,-11.0667 0.0663,-1.687 0.55132,-3.1302 1.17261,-3.4889 1.08379,-0.6257 3.13102,0.5051 6.29719,3.4782 1.28493,1.2067 3.40643,3.4522 4.47085,4.7324 l 0.34617,0.4164 -1.05524,-0.2828 c -1.40866,-0.3774 -2.10864,-0.2114 -4.18708,0.9931 -1.83107,1.0611 -2.62925,1.8309 -3.27428,3.1578 -0.43687,0.8987 -0.86734,2.3384 -1.09505,3.6626 l -0.13991,0.8135 -0.37767,-0.6801 c -0.2077,-0.3741 -0.52199,-1.155 -0.6984,-1.7355 z m -12.56039,0.7183 c -1.08749,-4.0898 -0.0793,-8.2059 2.66755,-10.8907 0.44759,-0.4375 0.86059,-0.8225 0.91776,-0.8555 0.0572,-0.033 0.0481,0.4374 -0.0202,1.0454 -0.14616,1.3017 0.0335,4.0534 0.3863,5.9147 1.45017,7.6522 4.73167,12.2108 11.00501,15.288 1.61614,0.7928 2.07209,1.1472 2.00224,1.5562 -0.20974,1.2283 -4.82233,0.6401 -7.06224,-0.9006 -1.0186,-0.7006 -2.16013,-1.8197 -3.14784,-3.0859 -0.35989,-0.4614 -1.16479,-1.3257 -1.78866,-1.9207 -3.92667,-3.745 -4.5138,-4.4731 -4.95995,-6.1509 z m -1.83852,18.7685 -0.2742,-0.6599 0.69838,0.4934 c 1.01411,0.7164 2.70651,1.3285 6.08947,2.2024 2.28973,0.5914 3.64136,0.8316 5.78219,1.0273 3.88143,0.3548 4.56681,0.5007 5.59993,1.192 0.76075,0.5091 0.93287,0.6986 1.44195,1.5878 0.63209,1.1041 0.87246,2.2543 0.6288,3.009 -0.28752,0.8905 -2.41037,2.346 -3.57496,2.4511 -1.28663,0.1161 -2.06718,-0.3295 -3.5864,-2.0476 -1.0649,-1.2042 -1.03696,-1.1889 -5.8145,-3.1896 -2.96798,-1.2428 -3.8552,-1.7588 -4.82602,-2.8066 -0.77545,-0.8369 -1.79771,-2.3761 -2.16464,-3.2593 z m -30.3823,44.08 -0.92063,-1.412 c -1.13401,-1.7393 -1.66562,-2.2837 -3.53738,-3.6228 -1.90008,-1.3594 -2.24285,-1.8229 -2.28367,-3.0881 -0.0169,-0.5233 0.0657,-1.9002 0.18351,-3.0599 0.11781,-1.1597 0.26932,-3.2941 0.33669,-4.743 0.0674,-1.449 0.18678,-2.7991 0.26536,-3.0002 0.25245,-0.6463 2.84005,-2.8994 5.48059,-4.7722 0.96927,-0.6875 1.53318,-0.9975 2.51108,-1.3805 1.71252,-0.6707 3.7939,-1.2278 5.63018,-1.5068 1.47708,-0.2244 3.41302,-0.2623 3.52465,-0.069 0.0795,0.1377 -1.3409,2.2056 -1.97377,2.8735 -0.5072,0.5352 -0.62564,0.5991 -1.81128,0.9772 -1.50712,0.4806 -2.74572,1.1616 -3.08999,1.6987 -0.14067,0.2195 -0.24175,0.7935 -0.23509,1.3349 0.0214,1.7407 -0.28831,2.385 -2.00994,4.1813 -0.86184,0.8993 -1.17558,1.761 -1.05371,2.8942 0.0993,0.9238 0.28776,1.1347 2.72346,3.0486 2.45386,1.9281 2.9649,2.4494 3.78072,3.8566 l 0.62863,1.0844 m 21.56305,-12.4494 -0.53031,-1.1412 c -0.78005,-1.6784 -2.03106,-3.7734 -2.69921,-4.5202 -0.99472,-1.1118 -2.87567,-2.7422 -4.00595,-3.4724 -1.48045,-0.9564 -2.41733,-1.319 -3.8898,-1.5054 -2.48366,-0.3145 -2.97019,-0.7752 -4.1068,-3.8887 -0.83584,-2.2896 -1.54914,-3.5942 -3.12794,-5.721 -1.38269,-1.8626 -2.03098,-2.6191 -2.62759,-3.0662 -1.0484,-0.7857 -1.13027,-2.2667 -0.26894,-4.865 0.50995,-1.5383 1.05217,-2.769 1.20224,-2.7288 0.0457,0.012 0.15717,0.2751 0.24789,0.584 0.34374,1.1715 2.03166,4.1721 3.11666,5.5406 3.03489,3.8277 8.55062,8.4722 12.70474,10.6979 1.12527,0.6029 2.61201,1.2598 7.52235,3.3236 1.43877,0.6048 2.99798,1.3377 3.46491,1.6289 0.79654,0.4966 0.90706,0.6215 1.78934,2.0222 l 0.94036,1.4929 m 63.64057,-36.7429 -0.42924,-0.5747 c -1.20264,-1.6103 -4.73645,-4.1623 -8.08575,-5.8394 -1.98645,-0.9946 -2.42273,-1.1255 -5.0386,-1.5111 -2.88793,-0.4258 -3.57262,-0.7447 -4.29854,-2.0021 -0.21255,-0.3681 -0.61639,-0.9375 -0.89742,-1.2653 -0.56672,-0.6609 -1.65331,-1.425 -1.8583,-1.3067 -0.0726,0.042 -0.19306,0.4936 -0.26771,1.0038 -0.22675,1.5497 -1.32001,5.1232 -1.62041,5.2966 -0.0478,0.028 -0.18403,-0.7372 -0.30276,-1.6996 -0.2823,-2.2882 -0.82916,-5.5555 -1.22541,-7.3215 -0.27513,-1.2262 -0.39903,-1.534 -0.95224,-2.3657 -1.49184,-2.2428 -5.57631,-4.9974 -7.82143,-5.2748 -0.5178,-0.064 -1.2139,-0.1203 -1.54685,-0.1252 -1.65755,-0.024 -4.32466,0.6009 -6.12263,1.435 l -0.86811,0.4027 -0.69311,-0.5713 c -2.43217,-2.0046 -6.81387,-3.6514 -10.30924,-3.8745 -5.30019,-0.3384 -9.26252,1.1481 -12.68268,4.7579 l -1.01824,1.0747 -1.60295,0.094 c -4.34159,0.2543 -7.37346,-0.4368 -10.09422,-2.3009 l -1.13382,-0.7768 m -7.5486,13.1588 c -0.14492,0.4604 3.46281,4.2485 5.78911,6.0786 1.32828,1.0449 1.52502,1.2946 1.41667,1.7981 -0.11367,0.5282 -0.64231,0.7354 -1.74548,0.6839 -0.55207,-0.026 -1.63642,-0.047 -2.40968,-0.047 -3.25636,1e-4 -5.81555,-0.3905 -6.87617,-1.0496 m -35.09613,74.4871 -0.18461,-0.5137 c -0.24287,-0.6758 -0.2431,-0.7511 -0.008,-2.6899 0.11066,-0.9139 0.16255,-2.3321 0.11532,-3.1515 -0.055,-0.9533 -0.014,-1.5303 0.11373,-1.602 0.11358,-0.064 0.74667,0.1775 1.46859,0.5595 1.38751,0.7342 1.87602,0.84 3.43524,0.7439 1.72633,-0.1064 1.87438,-0.065 2.553,0.7092 0.33264,0.3797 0.81245,0.9901 0.91306,1.0912 m -10.48333,-98.9231 c 0.14418,-0.1442 0.11511,-0.6866 -0.0748,-1.3968 -0.17523,-0.6552 -0.0483,-1.8054 0.29789,-2.6995 l 0.15324,-0.3957 0.68326,0.4864 c 1.38111,0.983 3.4189,1.7878 6.94912,2.7443 2.05897,0.5578 2.47208,0.5811 2.47208,0.1392 0,-0.199 -0.26261,-0.4397 -0.85946,-0.7879 -1.81911,-1.0611 -2.90568,-2.6236 -3.22176,-4.6327 -0.18801,-1.1951 -0.0149,-2.3083 0.49414,-3.1768 0.53613,-0.9149 1.83307,-2.0122 3.11607,-2.6365 l 1.15081,-0.56 -0.62639,-0.3285 c -0.8879,-0.4655 -2.70607,-0.4635 -4.57569,0.01 -1.65409,0.4145 -2.07114,0.3528 -2.36491,-0.3503 -0.16963,-0.406 -0.17662,-0.6205 -0.0384,-1.1767 0.13578,-0.5463 0.3688,-0.88 1.18378,-1.6953 1.18532,-1.1859 3.25992,-2.752 5.29961,-4.0007 1.01555,-0.6218 1.4449,-0.9657 1.4449,-1.1574 0,-0.2503 -0.11229,-0.2714 -1.36083,-0.2557 -3.5882,0.045 -7.99048,2.6299 -10.90782,6.4047 -2.52104,3.262 -3.25621,5.9705 -2.63479,9.7072 0.42222,2.5389 1.45333,5.3788 2.07342,5.7107 0.30955,0.1656 1.19885,0.2006 1.34656,0.053 z m 22.15519,0.2493 c 3.09623,-0.7201 7.725,-2.6364 10.31363,-4.2696 1.42786,-0.9009 2.43516,-2.0426 2.43516,-2.76 0,-1.2514 -2.00289,-2.459 -6.16081,-3.7144 -1.68743,-0.5095 -4.69291,-1.224 -6.33379,-1.5057 l -0.53366,-0.092 0.7725,0.7725 c 1.0312,1.0312 1.23742,1.7204 1.23352,4.1226 -0.003,2.1164 -0.271,3.1925 -1.09758,4.4145 -0.55984,0.8277 -1.59148,1.9204 -2.62437,2.7797 l -0.63457,0.5279 0.77782,-0.013 c 0.4278,-0.01 1.26127,-0.1254 1.85215,-0.2629 z m 5.65817,11.2368 c 4.08555,-1.1031 7.14611,-4.0343 8.09785,-7.7556 0.15508,-0.6063 0.28197,-1.1565 0.28197,-1.2225 0,-0.066 -0.40287,0.1771 -0.89528,0.5402 -1.05424,0.7774 -3.52706,1.9976 -5.31545,2.6228 -7.35201,2.5702 -12.94063,2.0076 -18.74227,-1.8866 -1.49463,-1.0033 -2.0295,-1.2209 -2.34883,-0.9559 -0.95885,0.7958 1.85685,4.4963 4.31105,5.6658 1.11605,0.5318 2.65597,0.9608 4.24642,1.1831 0.5795,0.081 1.73046,0.3459 2.5577,0.5887 5.20659,1.5281 6.13073,1.6725 7.80684,1.22 z m -15.33478,10.9764 0.70864,-0.092 -0.77648,-0.3581 c -1.12753,-0.52 -2.50383,-1.6796 -4.95208,-4.1724 -1.65709,-1.6873 -2.54087,-2.7377 -3.78077,-4.4939 -2.24799,-3.184 -2.71703,-3.7046 -3.8323,-4.2537 -0.82124,-0.4043 -1.07144,-0.4585 -2.09607,-0.4548 -1.2722,0 -2.3885,0.3716 -2.92022,0.9599 -0.62747,0.6943 -0.82655,3.2605 -0.33527,4.3216 0.54277,1.1723 1.31898,1.6254 3.56646,2.0821 1.57537,0.3201 1.54813,0.3036 5.66952,3.4407 2.56036,1.9489 3.45081,2.4593 4.84361,2.7762 1.1125,0.2531 2.95663,0.3688 3.90496,0.2449 z m -22.98319,48.3519 1.68312,0.091 c 2.07323,0.1125 2.81054,0.3007 4.90614,1.2521 2.12728,0.9658 2.70008,1.0309 3.81617,0.4337 0.46161,-0.247 1.6128,-1.007 2.55822,-1.6889 0.94541,-0.6819 2.71807,-1.8803 3.93923,-2.6631 1.22116,-0.7828 2.33067,-1.5613 2.46557,-1.7299 0.43342,-0.5417 1.0909,-3.9092 1.39255,-7.1324 0.11073,-1.1832 0.0973,-1.8265 -0.06,-2.8649 -0.2754,-1.8185 -0.83369,-3.8995 -1.51018,-5.6293 -0.54417,-1.3914 -1.47932,-3.0869 -1.70258,-3.0869 -0.15904,0 -1.23966,2.264 -1.50159,3.146 -0.20992,0.7069 -0.20604,0.8414 0.0593,2.0573 0.33731,1.5455 0.36692,2.9586 0.0739,3.5253 -0.11975,0.2316 -0.56628,0.6061 -1.03852,0.8711 -1.51817,0.8518 -1.92131,1.4422 -2.61615,3.8313 -0.34783,1.196 -0.93725,1.8986 -1.97958,2.3596 -0.84969,0.3759 -1.12656,0.3182 -4.00186,-0.8343 -2.89673,-1.161 -3.60372,-1.3429 -5.23032,-1.3458 l -1.25339,0 m 0,-24.8988 1.25339,-0.1113 c 1.84361,-0.1637 4.28345,-0.1278 5.26424,0.077 1.46018,0.3056 3.81264,1.1193 5.01016,1.7331 1.56853,0.8039 2.35098,1.4339 3.24865,2.6159 1.51413,1.9937 2.15637,2.1847 5.42107,1.6123 2.4008,-0.421 3.88729,-0.4555 6.51851,-0.1516 2.30441,0.2661 3.2837,0.4493 3.96922,0.7424 1.20464,0.5151 2.5281,-0.1545 4.34764,-2.1995 1.07727,-1.2109 1.87201,-2.2958 1.76215,-2.4057 -0.0334,-0.033 -0.31682,0 -0.62975,0.077 -1.18637,0.288 -4.62899,0.3266 -6.3566,0.071 -4.83236,-0.7145 -11.61245,-3.169 -15.61704,-5.6537 -1.08476,-0.6731 -2.39703,-1.6322 -6.63954,-4.8527 -1.24308,-0.9437 -2.65745,-1.9275 -3.14304,-2.1863 -0.82836,-0.4415 -0.99178,-0.4748 -2.64598,-0.5385 l -1.76308,-0.068 m 0,-73.4858 0.71235,0.084 c 1.99585,0.2364 5.97289,2.0208 9.09991,4.0828 1.85462,1.223 2.18608,1.5354 3.82801,3.608 1.81269,2.2881 2.43121,2.7216 3.88306,2.7216 0.42509,0 1.12011,0.065 1.54448,0.1446 0.85579,0.1603 2.06079,0.7193 2.06079,0.956 0,0.084 -0.33092,0.4139 -0.73538,0.7337 -1.2287,0.9712 -3.77683,3.7047 -3.77683,4.0516 0,0.055 0.73049,-0.2093 1.6233,-0.5876 2.12276,-0.8996 5.22577,-2.0597 6.95333,-2.5995 1.19947,-0.3749 1.52799,-0.4215 2.52484,-0.3582 2.68821,0.1706 7.11599,2.3305 8.47883,4.1361 0.31432,0.4165 0.71115,0.9911 0.88183,1.2771 0.84971,1.4234 1.64192,4.0457 1.8186,6.0198 l 0.0853,0.9531 0.84129,0.3147 c 2.95212,1.104 6.56913,4.0753 8.51005,6.9908 2.94313,4.4209 3.63696,8.5956 2.22084,13.3625 l -0.42161,1.4191 0.72019,1.4352 c 1.95061,3.887 4.06505,6.1672 7.03977,7.5914 l 1.23965,0.5935 m -7.62159,13.1167 c -0.32625,0.3557 -5.41073,-0.8746 -8.15878,-1.9742 -1.56908,-0.6279 -1.88369,-0.6734 -2.26553,-0.3279 -0.40062,0.3626 -0.31568,0.924 0.28047,1.8536 0.29834,0.4652 0.85875,1.3938 1.24536,2.0635 1.6281,2.8201 3.24599,4.8411 4.34704,5.4301 m -46.95958,67.6377 0.53716,-0.097 c 0.70669,-0.1276 0.77204,-0.165 2.33369,-1.3377 0.73609,-0.5528 1.93833,-1.3068 2.67162,-1.6756 0.85306,-0.4291 1.33226,-0.7531 1.33047,-0.8995 -0.002,-0.1302 -0.52701,-0.5579 -1.2188,-0.9921 -1.32962,-0.8345 -1.66549,-1.2047 -2.36187,-2.6031 -0.771,-1.5482 -0.88065,-1.6559 -1.89071,-1.8563 -0.49511,-0.098 -1.26367,-0.2086 -1.40154,-0.2452 m -10.42082,-86.8057 c -0.14417,-0.1442 -0.11511,-0.6866 0.0749,-1.3968 0.17524,-0.6552 0.0483,-1.8054 -0.29789,-2.6995 l -0.15323,-0.3957 -0.68327,0.4864 c -1.3811,0.983 -3.4189,1.7878 -6.94911,2.7443 -2.05897,0.5578 -2.47209,0.5811 -2.47209,0.1392 0,-0.199 0.26262,-0.4397 0.85947,-0.7879 1.8191,-1.0611 2.90568,-2.6236 3.22176,-4.6327 0.18801,-1.1951 0.0148,-2.3083 -0.49414,-3.1768 -0.53614,-0.9149 -1.83308,-2.0122 -3.11607,-2.6365 l -1.15081,-0.56 0.62638,-0.3285 c 0.88791,-0.4655 2.70608,-0.4635 4.57569,0.01 1.6541,0.4145 2.07115,0.3528 2.36492,-0.3503 0.16962,-0.406 0.17662,-0.6205 0.0384,-1.1767 -0.13579,-0.5463 -0.36881,-0.88 -1.18378,-1.6953 -1.18533,-1.1859 -3.25992,-2.752 -5.29962,-4.0007 -1.01554,-0.6218 -1.44489,-0.9657 -1.44489,-1.1574 0,-0.2503 0.11229,-0.2714 1.36082,-0.2557 3.58821,0.045 7.99048,2.6299 10.90782,6.4047 2.52105,3.262 3.25622,5.9705 2.6348,9.7072 -0.42222,2.5389 -1.45334,5.3788 -2.07342,5.7107 -0.30956,0.1656 -1.19886,0.2006 -1.34657,0.053 z m -22.15519,0.2493 c -3.09622,-0.7201 -7.72499,-2.6364 -10.31362,-4.2696 -1.42786,-0.9009 -2.43516,-2.0426 -2.43516,-2.76 0,-1.2514 2.00288,-2.459 6.16081,-3.7144 1.68742,-0.5095 4.69291,-1.224 6.33378,-1.5057 l 0.53366,-0.092 -0.77249,0.7725 c -1.03121,1.0312 -1.23742,1.7204 -1.23352,4.1226 0.003,2.1164 0.271,3.1925 1.09758,4.4145 0.55984,0.8277 1.59148,1.9204 2.62436,2.7797 l 0.63458,0.5279 -0.77782,-0.013 c -0.4278,-0.01 -1.26127,-0.1254 -1.85216,-0.2629 z m -5.65817,11.2368 c -4.08555,-1.1031 -7.1461,-4.0343 -8.09784,-7.7556 -0.15509,-0.6063 -0.28198,-1.1565 -0.28198,-1.2225 0,-0.066 0.40288,0.1771 0.89528,0.5402 1.05424,0.7774 3.52707,1.9976 5.31545,2.6228 7.35201,2.5702 12.94064,2.0076 18.74228,-1.8866 1.49463,-1.0033 2.0295,-1.2209 2.34883,-0.9559 0.95885,0.7958 -1.85685,4.4963 -4.31105,5.6658 -1.11605,0.5318 -2.65598,0.9608 -4.24642,1.1831 -0.5795,0.081 -1.73047,0.3459 -2.55771,0.5887 -5.20659,1.5281 -6.13072,1.6725 -7.80684,1.22 z m 15.33478,10.9764 -0.70863,-0.092 0.77648,-0.3581 c 1.12753,-0.52 2.50382,-1.6796 4.95208,-4.1724 1.65708,-1.6873 2.54087,-2.7377 3.78076,-4.4939 2.24799,-3.184 2.71703,-3.7046 3.83231,-4.2537 0.82123,-0.4043 1.07143,-0.4585 2.09607,-0.4548 1.2722,0 2.3885,0.3716 2.92022,0.9599 0.62746,0.6943 0.82654,3.2605 0.33526,4.3216 -0.54276,1.1723 -1.31898,1.6254 -3.56646,2.0821 -1.57537,0.3201 -1.54812,0.3036 -5.66951,3.4407 -2.56036,1.9489 -3.45081,2.4593 -4.84361,2.7762 -1.1125,0.2531 -2.95664,0.3688 -3.90497,0.2449 z m 22.9832,48.3519 -1.68313,0.091 c -2.07323,0.1125 -2.81054,0.3007 -4.90613,1.2521 -2.12729,0.9658 -2.70008,1.0309 -3.81618,0.4337 -0.4616,-0.247 -1.6128,-1.007 -2.55821,-1.6889 -0.94542,-0.6819 -2.71807,-1.8803 -3.93923,-2.6631 -1.22116,-0.7828 -2.33067,-1.5613 -2.46558,-1.7299 -0.43342,-0.5417 -1.09089,-3.9092 -1.39254,-7.1324 -0.11073,-1.1832 -0.0972,-1.8265 0.06,-2.8649 0.2754,-1.8185 0.83369,-3.8995 1.51018,-5.6293 0.54416,-1.3914 1.47931,-3.0869 1.70257,-3.0869 0.15905,0 1.23967,2.264 1.5016,3.146 0.20991,0.7069 0.20603,0.8414 -0.0593,2.0573 -0.33732,1.5455 -0.36692,2.9586 -0.0739,3.5253 0.11975,0.2316 0.56629,0.6061 1.03853,0.8711 1.51817,0.8518 1.9213,1.4422 2.61615,3.8313 0.34783,1.196 0.93725,1.8986 1.97958,2.3596 0.84969,0.3759 1.12655,0.3182 4.00186,-0.8343 2.89673,-1.161 3.60371,-1.3429 5.23032,-1.3458 l 1.25339,0 m 0,-24.8988 -1.25339,-0.1113 c -1.84362,-0.1637 -4.28345,-0.1278 -5.26425,0.077 -1.46017,0.3056 -3.81263,1.1193 -5.01015,1.7331 -1.56853,0.8039 -2.35098,1.4339 -3.24866,2.6159 -1.51413,1.9937 -2.15636,2.1847 -5.42106,1.6123 -2.4008,-0.421 -3.8873,-0.4555 -6.51852,-0.1516 -2.3044,0.2661 -3.28369,0.4493 -3.96921,0.7424 -1.20464,0.5151 -2.5281,-0.1545 -4.34764,-2.1995 -1.07728,-1.2109 -1.87202,-2.2958 -1.76216,-2.4057 0.0334,-0.033 0.31683,0 0.62976,0.077 1.18637,0.288 4.62899,0.3266 6.35659,0.071 4.83236,-0.7145 11.61245,-3.169 15.61704,-5.6537 1.08477,-0.6731 2.39703,-1.6322 6.63954,-4.8527 1.24309,-0.9437 2.65746,-1.9275 3.14305,-2.1863 0.82835,-0.4415 0.99178,-0.4748 2.64597,-0.5385 l 1.76309,-0.068 m 0,-73.4858 -0.71235,0.084 c -1.99586,0.2364 -5.97289,2.0208 -9.09992,4.0828 -1.85461,1.223 -2.18607,1.5354 -3.828,3.608 -1.8127,2.2881 -2.43122,2.7216 -3.88306,2.7216 -0.42509,0 -1.12011,0.065 -1.54448,0.1446 -0.8558,0.1603 -2.06079,0.7193 -2.06079,0.956 0,0.084 0.33092,0.4139 0.73538,0.7337 1.2287,0.9712 3.77683,3.7047 3.77683,4.0516 0,0.055 -0.73049,-0.2093 -1.62331,-0.5876 -2.12276,-0.8996 -5.22576,-2.0597 -6.95332,-2.5995 -1.19947,-0.3749 -1.52799,-0.4215 -2.52484,-0.3582 -2.68821,0.1706 -7.11599,2.3305 -8.47883,4.1361 -0.31433,0.4165 -0.71115,0.9911 -0.88184,1.2771 -0.8497,1.4234 -1.64191,4.0457 -1.8186,6.0198 l -0.0853,0.9531 -0.84128,0.3147 c -2.95212,1.104 -6.56913,4.0753 -8.51006,6.9908 -2.94312,4.4209 -3.63696,8.5956 -2.22083,13.3625 l 0.4216,1.4191 -0.72018,1.4352 c -1.95061,3.887 -4.06506,6.1672 -7.03977,7.5914 l -1.23965,0.5935 m 7.62159,13.1167 c 0.32625,0.3557 5.41073,-0.8746 8.15877,-1.9742 1.56909,-0.6279 1.8837,-0.6734 2.26553,-0.3279 0.40063,0.3626 0.31568,0.924 -0.28047,1.8536 -0.29833,0.4652 -0.85874,1.3938 -1.24535,2.0635 -1.6281,2.8201 -3.246,4.8411 -4.34704,5.4301 m 46.95958,67.6377 -0.53717,-0.097 c -0.70668,-0.1276 -0.77203,-0.165 -2.33368,-1.3377 -0.7361,-0.5528 -1.93833,-1.3068 -2.67163,-1.6756 -0.85306,-0.4291 -1.33226,-0.7531 -1.33046,-0.8995 0.002,-0.1302 0.52701,-0.5579 1.2188,-0.9921 1.32962,-0.8345 1.66549,-1.2047 2.36186,-2.6031 0.77101,-1.5482 0.88065,-1.6559 1.89072,-1.8563 0.49511,-0.098 1.26366,-0.2086 1.40154,-0.2452"
     inkscape:connector-curvature="0" />
</svg>
