<?xml version="1.0" encoding="UTF-8" standalone="no"?>
<!-- Created with Inkscape (http://www.inkscape.org/) -->

<svg
   xmlns:dc="http://purl.org/dc/elements/1.1/"
   xmlns:cc="http://creativecommons.org/ns#"
   xmlns:rdf="http://www.w3.org/1999/02/22-rdf-syntax-ns#"
   xmlns:svg="http://www.w3.org/2000/svg"
   xmlns="http://www.w3.org/2000/svg"
   xmlns:sodipodi="http://sodipodi.sourceforge.net/DTD/sodipodi-0.dtd"
   xmlns:inkscape="http://www.inkscape.org/namespaces/inkscape"
   id="svg4138"
   version="1.1"
   inkscape:version="0.91 r"
   width="1242"
   height="1254"
   viewBox="0 0 1242 1254"
   sodipodi:docname="snowflake-AT-AT-000.svg">
  <metadata
     id="metadata4144">
    <rdf:RDF>
      <cc:Work
         rdf:about="">
        <dc:format>image/svg+xml</dc:format>
        <dc:type
           rdf:resource="http://purl.org/dc/dcmitype/StillImage" />
        <dc:title />
      </cc:Work>
    </rdf:RDF>
  </metadata>
  <defs
     id="defs4142" />
  <sodipodi:namedview
     pagecolor="#ffffff"
     bordercolor="#666666"
     borderopacity="1"
     objecttolerance="10"
     gridtolerance="10"
     guidetolerance="10"
     inkscape:pageopacity="0"
     inkscape:pageshadow="2"
     inkscape:window-width="1600"
     inkscape:window-height="843"
     id="namedview4140"
     showgrid="false"
     inkscape:zoom="2.4553425"
     inkscape:cx="213.41257"
     inkscape:cy="1017.804"
     inkscape:window-x="0"
     inkscape:window-y="0"
     inkscape:window-maximized="1"
     inkscape:current-layer="svg4138"
     showguides="true"
     inkscape:guide-bbox="true"
     inkscape:snap-center="true">
    <sodipodi:guide
       position="1200.6863,75.992804"
       orientation="1,0"
       id="guide4133" />
    <sodipodi:guide
       position="1200.6863,75.992804"
       orientation="0,1"
       id="guide4135" />
  </sodipodi:namedview>
  <path
     id="path4166"
     style="fill:none;stroke:#00ff00;stroke-opacity:1;stroke-width:0.70866142;stroke-miterlimit:4;stroke-dasharray:none"
     d="m 235.31386,258.22531 -0.97844,0.9784 -0.97844,0.9785 1.92769,1.9304 1.92771,1.9303 -1.09867,1.1033 -1.09867,1.1032 4.7982,8.5461 4.79821,8.546 -1.01247,1.0283 -1.01248,1.0283 4.18979,4.5532 c 2.30437,2.5042 4.36819,4.7383 4.58625,4.9645 l 0.39648,0.4115 0.422,-0.4091 0.42201,-0.409 0.55996,0.2932 c 2.70906,1.4187 6.01342,4.3053 8.11618,7.0902 0.90879,1.2036 2.12226,3.1855 2.12226,3.4661 0,0.098 -0.15917,0.3428 -0.3537,0.5435 l -0.35371,0.365 5.75704,5.7561 5.75704,5.7561 1.91443,-1.9145 1.91444,-1.9144 -0.36655,-0.9505 c -0.97613,-2.5311 -0.70256,-5.2039 0.78481,-7.6679 0.30845,-0.511 0.82347,-1.2238 1.14449,-1.584 l 0.58364,-0.6548 m 10.29325,10.2912 -1.84321,1.8459 -1.8432,1.8459 1.84197,3.5584 c 1.01308,1.9571 1.84271,3.6123 1.84362,3.6783 10e-4,0.066 -0.95997,1.0805 -2.1353,2.2545 l -2.13696,2.1345 -1.07027,-1.0653 -1.07027,-1.0653 -1.15587,1.1558 -1.15587,1.1559 1.7787,1.7817 c 0.97829,0.9799 1.83262,1.7817 1.89852,1.7817 0.0659,0 2.81902,-2.6988 6.11806,-5.9974 l 5.99825,-5.9974 m 5.22216,5.2262 -4.5679,4.5691 -4.56792,4.569 -0.24085,-0.7398 c -0.48211,-1.4808 -1.00588,-1.8672 -2.53117,-1.8672 -0.57126,0 -1.20139,0.081 -1.58524,0.2044 -0.82618,0.2652 -1.64961,1.0655 -1.92355,1.8694 -0.23905,0.7016 -0.25709,1.8306 -0.0376,2.3536 0.53831,1.2826 3.21372,2.6904 5.12375,2.6961 l 0.59333,0 5.84876,-5.8479 5.84875,-5.8479 m 4.63287,4.6283 -6.7073,6.7104 -6.70729,6.7104 4.18338,1.618 4.18339,1.6179 5.43287,-5.4174 5.43289,-5.4175 m 6.88775,6.8847 -2.37495,2.377 c -1.30622,1.3074 -2.37495,2.417 -2.37495,2.4658 0,0.086 2.48155,1.2983 2.98585,1.4584 0.20986,0.067 0.57856,-0.2468 2.22738,-1.8935 l 1.97589,-1.9734 m 1.65461,1.6674 -3.02736,3.0274 -3.02736,3.0273 -2.84924,-1.2472 -2.84925,-1.2472 -3.71722,3.7172 -3.71721,3.7172 7.83701,4.2984 c 4.31035,2.3642 7.88,4.2985 7.93254,4.2985 0.0525,0 2.67419,-2.5782 5.82587,-5.7294 l 5.73034,-5.7294 m 10.56917,10.5671 -5.07621,5.0773 -5.07624,5.0773 -7.13581,0 -7.13581,0 -13.1632,-7.7248 -13.16318,-7.7247 -0.85933,0.8536 c -0.53639,0.5328 -0.9238,0.8288 -1.03091,0.7877 -0.0944,-0.036 -1.66205,-1.0385 -3.48373,-2.2272 -3.22049,-2.1016 -3.32203,-2.1574 -3.66843,-2.0174 -1.59599,0.645 -2.95387,0.6448 -4.2633,0 -0.92468,-0.4557 -1.8289,-1.2716 -2.18676,-1.973 -0.72608,-1.4233 -0.52127,-3.324 0.55696,-5.1692 l 0.45883,-0.7852 -2.84209,-2.8337 c -4.38698,-4.374 -9.1463,-9.5712 -10.53241,-11.5013 l -0.36998,-0.5152 0.57634,-0.6932 c 0.83096,-0.9994 2.87143,-3.7348 3.01555,-4.0425 0.10997,-0.2349 -0.041,-0.4406 -1.46751,-1.9995 -0.87454,-0.9558 -1.69151,-1.8715 -1.81548,-2.0348 l -0.22539,-0.2971 1.62021,-1.6233 1.62022,-1.6233 -6.03419,-6.0334 -6.03419,-6.0333 -0.83375,0.6524 c -0.8268,0.6469 -0.83813,0.6514 -1.35773,0.5361 -0.8121,-0.1803 -2.35477,-0.9742 -3.38734,-1.7433 -2.40622,-1.7921 -5.3538,-5.5225 -6.45637,-8.171 l -0.37799,-0.9079 0.43878,-0.4494 c 0.24132,-0.2471 0.41932,-0.5042 0.39556,-0.5713 -0.0561,-0.1586 -4.68351,-5.4359 -5.14965,-5.873 -1.35011,-1.2658 -4.25435,-2.1529 -7.54089,-2.3033 -1.81727,-0.083 -3.25053,0.092 -4.68938,0.572 -1.48312,0.495 -2.40181,1.0823 -5.286,3.3792 -2.81659,2.2431 -4.17797,4.0425 -4.95198,6.5452 -0.31225,1.0097 -0.32348,1.1406 -0.32441,3.7773 -0.001,2.8831 0.093,3.7807 0.60343,5.7596 0.42692,1.6552 1.00571,2.7546 1.95377,3.7111 l 0.79455,0.8016 1.46703,0.01 c 0.80686,0.01 1.54718,0.024 1.64516,0.043 0.098,0.019 1.88819,0.07 3.97827,0.1147 5.07133,0.1081 5.51948,0.1973 6.88775,1.3711 0.89061,0.7641 3.76549,2.8162 6.41274,4.5774 2.04453,1.3603 4.48678,2.7951 9.57422,5.625 l 2.80521,1.5604 2.67188,0 2.67189,0 0.0803,0.605 c 0.0962,0.7255 9e-5,1.4427 -0.26915,2.0076 l -0.1981,0.4156 -3.20541,0.059 -3.20539,0.059 -3.71108,2.8882 c -2.04109,1.5885 -3.71108,2.9186 -3.71108,2.9557 0,0.037 0.86581,1.7167 1.924,3.7323 1.74991,3.3333 1.95138,3.6653 2.22665,3.669 0.62116,0.01 4.98255,0.4502 5.08806,0.5154 0.17467,0.1079 0.26294,1.0691 0.13931,1.5168 -0.23126,0.8376 0.59838,0.7362 -10.65755,1.3026 l -10.2455,0.5154 -0.0718,0.4491 c -0.0628,0.3929 -0.1707,0.5147 -0.86457,0.976 -0.93027,0.6184 -1.98282,1.6893 -2.09338,2.1298 l -0.0778,0.3098 -1.80902,0 -1.80902,0 -0.15079,0.5048 c -0.19658,0.658 -0.5504,1.3464 -0.84177,1.6378 -0.22298,0.2229 -0.42355,0.2325 -4.85388,0.2325 l -4.62129,0 -0.0754,-0.9203 c -0.0415,-0.5062 -0.098,-1.0304 -0.12547,-1.1649 -0.0275,-0.1345 -0.60832,-1.0965 -1.29069,-2.1376 l -1.24067,-1.893 m -0.0192,-5.0471 1.3063,0 -1e-4,0 1.3063,0 0,-5.7438 0,-5.7438 -0.47354,-0.3134 c -0.26045,-0.1723 -0.84829,-0.6669 -1.3063,-1.0989 l -0.83275,-0.7856 m 0,-37.9513 0.47405,-0.5998 c 0.72143,-0.9127 1.89682,-1.7327 3.86048,-2.6933 2.89974,-1.4185 5.43791,-2.1526 8.37219,-2.4213 3.02074,-0.2767 6.02842,-0.087 8.49095,0.5356 0.30694,0.078 0.18494,-0.089 -0.88131,-1.2061 -0.68065,-0.7129 -1.79687,-1.9374 -2.48045,-2.7212 -0.6836,-0.7838 -1.28973,-1.4765 -1.34694,-1.5394 -0.0637,-0.07 -0.47196,0.2513 -1.05348,0.8295 l -0.94947,0.9439 -3.42284,-3.4213 -3.42282,-3.4213 -1.85217,1.5489 -1.85215,1.5489 -1.96802,-1.5578 -1.96802,-1.5579 m 0,-13.8008 3.3651,-3.3636 3.36511,-3.3635 2.17141,0.6771 2.17141,0.6771 3.282,-3.2804 3.28202,-3.2804 m -39.53253,4.2759 0.97846,0.9785 0.97844,0.9784 -1.92769,1.9304 -1.92771,1.9304 1.09867,1.1032 1.09867,1.1033 -4.79821,8.546 -4.7982,8.5461 1.01247,1.0282 1.01247,1.0283 -4.18978,4.5532 c -2.30437,2.5042 -4.3682,4.7383 -4.58625,4.9646 l -0.39648,0.4114 -0.422,-0.409 -0.42202,-0.409 -0.55995,0.2932 c -2.70906,1.4186 -6.01342,4.3052 -8.11618,7.0901 -0.90879,1.2036 -2.12227,3.1855 -2.12227,3.4661 0,0.098 0.15918,0.3428 0.35371,0.5436 l 0.35371,0.3649 -5.75704,5.7561 -5.75704,5.7561 -1.91442,-1.9144 -1.91445,-1.9145 0.36655,-0.9504 c 0.97613,-2.5312 0.70257,-5.204 -0.78482,-7.668 -0.30845,-0.511 -0.82347,-1.2237 -1.14447,-1.5839 l -0.58365,-0.6548 m -10.29325,10.2912 1.84321,1.8459 1.8432,1.8459 -1.84197,3.5583 c -1.01308,1.9571 -1.84271,3.6124 -1.84362,3.6784 -0.001,0.066 0.95997,1.0805 2.1353,2.2544 l 2.13696,2.1345 1.07027,-1.0653 1.07027,-1.0653 1.15587,1.1559 1.15587,1.1559 -1.7787,1.7816 c -0.97829,0.98 -1.83262,1.7817 -1.89852,1.7817 -0.0659,0 -2.81902,-2.6988 -6.11806,-5.9974 l -5.99825,-5.9974 m -5.22217,5.2262 4.56791,4.5691 4.56792,4.5691 0.24084,-0.7398 c 0.48212,-1.4809 1.00589,-1.8673 2.53118,-1.8673 0.57126,0 1.20139,0.081 1.58524,0.2045 0.82617,0.2651 1.64961,1.0654 1.92354,1.8694 0.23907,0.7015 0.2571,1.8305 0.0376,2.3535 -0.5383,1.2827 -3.21371,2.6905 -5.12374,2.6961 l -0.59334,0 -5.84875,-5.8479 -5.84875,-5.8478 m -4.63287,4.6283 6.7073,6.7104 6.7073,6.7104 -4.18339,1.6179 -4.1834,1.618 -5.43287,-5.4175 -5.43288,-5.4175 m -6.88774,6.8847 2.37494,2.3771 c 1.30622,1.3074 2.37494,2.417 2.37494,2.4658 0,0.086 -2.48154,1.2983 -2.98585,1.4583 -0.20986,0.067 -0.57854,-0.2468 -2.22737,-1.8935 l -1.97589,-1.9733 m -1.65461,1.6674 3.02736,3.0273 3.02736,3.0274 2.84924,-1.2472 2.84924,-1.2473 3.71723,3.7172 3.71722,3.7172 -7.83701,4.2985 c -4.31036,2.3641 -7.88,4.2985 -7.93255,4.2985 -0.0525,0 -2.67419,-2.5783 -5.825882,-5.7295 l -5.73033,-5.7294 m -10.569171,10.5672 5.076219,5.0772 5.07623,5.0773 7.135813,0 7.135811,0 13.1632,-7.7247 13.16318,-7.7248 0.85932,0.8536 c 0.5364,0.5328 0.92381,0.8289 1.03091,0.7878 0.0944,-0.036 1.66206,-1.0385 3.48374,-2.2273 3.22049,-2.1015 3.32203,-2.1574 3.66842,-2.0174 1.596,0.645 2.95388,0.6449 4.26331,0 0.92468,-0.4557 1.8289,-1.2715 2.18676,-1.973 0.72607,-1.4232 0.52127,-3.324 -0.55696,-5.1691 l -0.45883,-0.7852 2.84209,-2.8338 c 4.38698,-4.374 9.14629,-9.5711 10.53241,-11.5013 l 0.36998,-0.5152 -0.57634,-0.6931 c -0.83097,-0.9995 -2.87143,-3.7349 -3.01555,-4.0426 -0.10997,-0.2348 0.041,-0.4405 1.46751,-1.9995 0.87454,-0.9558 1.69151,-1.8714 1.81548,-2.0348 l 0.2254,-0.2971 -1.62022,-1.6233 -1.62021,-1.6233 6.03418,-6.0333 6.03419,-6.0333 0.83375,0.6523 c 0.82679,0.647 0.83812,0.6514 1.35773,0.5361 0.8121,-0.1803 2.35477,-0.9742 3.38733,-1.7432 2.40621,-1.7922 5.35381,-5.5226 6.45638,-8.171 l 0.37797,-0.908 -0.43876,-0.4493 c -0.24132,-0.2472 -0.41932,-0.5043 -0.39556,-0.5714 0.0561,-0.1586 4.68351,-5.4359 5.14963,-5.8729 1.35012,-1.2659 4.25437,-2.153 7.54091,-2.3034 1.81727,-0.083 3.25053,0.092 4.68938,0.572 1.48312,0.4951 2.40181,1.0824 5.286,3.3793 2.81659,2.243 4.17797,4.0424 4.95197,6.5452 0.31226,1.0097 0.32349,1.1405 0.32442,3.7772 0.001,2.8831 -0.0931,3.7808 -0.60343,5.7596 -0.42692,1.6553 -1.00571,2.7547 -1.95377,3.7111 l -0.79455,0.8016 -1.46703,0.01 c -0.80686,0 -1.54719,0.024 -1.64516,0.043 -0.098,0.019 -1.88819,0.07 -3.97827,0.1147 -5.07133,0.108 -5.51948,0.1972 -6.88776,1.3711 -0.8906,0.764 -3.76549,2.8161 -6.41274,4.5774 -2.04453,1.3602 -4.48677,2.7951 -9.57421,5.6249 l -2.80521,1.5604 -2.67189,0 -2.67188,0 -0.0803,0.6051 c -0.0962,0.7254 -8e-5,1.4426 0.26916,2.0075 l 0.1981,0.4157 3.20539,0.059 3.2054,0.059 3.71108,2.8882 c 2.04109,1.5886 3.71107,2.9186 3.71107,2.9557 0,0.037 -0.86579,1.7167 -1.92399,3.7324 -1.7499,3.3332 -1.95137,3.6652 -2.22664,3.6689 -0.62116,0.01 -4.98255,0.4502 -5.08806,0.5154 -0.17468,0.108 -0.26295,1.0691 -0.13931,1.5169 0.23126,0.8376 -0.59838,0.7362 10.65755,1.3025 l 10.2455,0.5155 0.0718,0.449 c 0.0628,0.393 0.1707,0.5147 0.86457,0.976 0.93027,0.6185 1.98282,1.6893 2.09338,2.1299 l 0.0778,0.3098 1.80902,0 1.80902,0 0.15078,0.5047 c 0.19659,0.658 0.55041,1.3464 0.84178,1.6378 0.22298,0.223 0.42355,0.2326 4.85388,0.2326 l 4.62129,0 0.0754,-0.9204 c 0.0415,-0.5062 0.098,-1.0304 0.12547,-1.1649 0.0275,-0.1345 0.60832,-1.0964 1.29068,-2.1376 l 1.24068,-1.893 m 0.0192,-5.047 -1.3063,0 9e-5,0 -1.30629,0 0,-5.7439 0,-5.7438 0.47354,-0.3133 c 0.26045,-0.1724 0.84829,-0.6669 1.3063,-1.099 l 0.83275,-0.7856 m 0,-37.9513 -0.47405,-0.5997 c -0.72144,-0.9127 -1.89682,-1.7327 -3.86048,-2.6934 -2.89974,-1.4185 -5.43791,-2.1526 -8.37219,-2.4213 -3.02074,-0.2767 -6.02842,-0.087 -8.49095,0.5356 -0.30694,0.078 -0.18495,-0.089 0.8813,-1.2061 0.68066,-0.7128 1.79688,-1.9374 2.48046,-2.7211 0.6836,-0.7838 1.28972,-1.4766 1.34694,-1.5395 0.0637,-0.07 0.47195,0.2514 1.05348,0.8295 l 0.94947,0.9439 3.42283,-3.4213 3.42283,-3.4213 1.85216,1.5489 1.85216,1.549 1.96802,-1.5579 1.96802,-1.5579 m 0,-13.8008 -3.36511,-3.3635 -3.36511,-3.3636 -2.1714,0.6771 -2.17141,0.6772 -3.28201,-3.2805 -3.28201,-3.2804 m 39.65865,-39.6546 0.97846,0.9785 0.97845,0.9784 1.93037,-1.9277 1.93036,-1.9277 1.10325,1.0987 1.10326,1.0987 8.54604,-4.7983 8.54605,-4.7982 1.02828,1.0125 1.0283,1.0125 4.55316,-4.1898 c 2.50425,-2.3044 4.73832,-4.3682 4.96459,-4.5862 l 0.41143,-0.3965 -0.40903,-0.422 -0.40903,-0.422 0.29323,-0.56 c 1.41862,-2.7091 4.30525,-6.0134 7.09014,-8.1162 1.20361,-0.9088 3.18547,-2.1222 3.46612,-2.1222 0.0982,0 0.3428,0.1591 0.54352,0.3537 l 0.36493,0.3537 5.75611,-5.7571 5.75613,-5.757 -1.91444,-1.9144 -1.91444,-1.9145 -0.95049,0.3666 c -2.53117,0.9761 -5.20396,0.7025 -7.66796,-0.7848 -0.51099,-0.3085 -1.22375,-0.8235 -1.58392,-1.1445 l -0.65483,-0.5837 m 10.29121,-10.2932 1.84591,1.8432 1.84591,1.8432 3.55835,-1.842 c 1.95709,-1.0131 3.61235,-1.8427 3.67834,-1.8436 0.066,0 1.08051,0.96 2.25447,2.1353 l 2.13449,2.137 -1.06531,1.0702 -1.06531,1.0703 1.15588,1.1559 1.15587,1.1558 1.78167,-1.7787 c 0.97993,-0.9782 1.78169,-1.8326 1.78169,-1.8985 0,-0.066 -2.69883,-2.819 -5.9974,-6.118 l -5.99739,-5.9983 m 5.22621,-5.2221 4.56908,4.5679 4.56906,4.5679 -0.7398,0.2408 c -1.48088,0.4821 -1.86727,1.0059 -1.86727,2.5312 0,0.5713 0.0813,1.2014 0.20447,1.5852 0.26517,0.8262 1.06542,1.6496 1.86937,1.9236 0.70159,0.239 1.83059,0.2571 2.35357,0.038 1.28266,-0.5383 2.69044,-3.2137 2.6961,-5.1238 l 0.002,-0.5933 -5.84786,-5.8487 -5.84786,-5.8488 m 4.6283,-4.6329 6.71038,6.7073 6.7104,6.7073 1.61796,-4.1834 1.61796,-4.1833 -5.41747,-5.4329 -5.41749,-5.4329 m 6.88469,-6.8878 2.37706,2.375 c 1.30739,1.3062 2.41699,2.3749 2.46581,2.3749 0.0863,0 1.29828,-2.4815 1.45833,-2.9858 0.0666,-0.2099 -0.24682,-0.5786 -1.8935,-2.2274 l -1.97333,-1.9759 m 1.66739,-1.6546 3.02736,3.0274 3.02735,3.0273 -1.24722,2.8493 -1.24723,2.8492 3.71718,3.7172 3.71718,3.7173 4.29849,-7.8371 c 2.36415,-4.3103 4.29847,-7.88 4.29847,-7.9325 0,-0.053 -2.57824,-2.6742 -5.72943,-5.8259 l -5.72941,-5.7303 m 10.56717,-10.5692 5.07725,5.0762 5.07727,5.0763 0,7.1358 0,7.1358 -7.72474,13.1632 -7.72474,13.1632 0.85359,0.8593 c 0.53282,0.5364 0.82885,0.9238 0.78775,1.0309 -0.0362,0.094 -1.03847,1.6621 -2.22723,3.4837 -2.10156,3.2205 -2.1574,3.3221 -2.01741,3.6685 0.645,1.596 0.64485,2.9538 0,4.2633 -0.45571,0.9247 -1.27154,1.8289 -1.973,2.1867 -1.42324,0.7261 -3.32403,0.5213 -5.16917,-0.5569 l -0.78518,-0.4589 -2.83373,2.8421 c -4.37405,4.387 -9.57118,9.1463 -11.50132,10.5324 l -0.51519,0.37 -0.69317,-0.5763 c -0.99943,-0.831 -3.73482,-2.8714 -4.04256,-3.0156 -0.23483,-0.1099 -0.44054,0.041 -1.9995,1.4675 -0.95576,0.8746 -1.87142,1.6916 -2.0348,1.8155 l -0.29706,0.2254 -1.62332,-1.6202 -1.62333,-1.6202 -6.03331,6.0342 -6.03332,6.0342 0.65237,0.8337 c 0.64693,0.8268 0.6514,0.8381 0.53606,1.3577 -0.18028,0.8121 -0.97419,2.3548 -1.74322,3.3874 -1.79213,2.4062 -5.52252,5.3538 -8.17102,6.4564 l -0.90794,0.3779 -0.44934,-0.4387 c -0.24713,-0.2414 -0.50426,-0.4194 -0.57138,-0.3956 -0.15857,0.056 -5.43589,4.6835 -5.87293,5.1497 -1.26585,1.3501 -2.15294,4.2543 -2.30332,7.5408 -0.0831,1.8173 0.0916,3.2506 0.57195,4.6894 0.49507,1.4831 1.08238,2.4018 3.37928,5.286 2.24307,2.8166 4.04245,4.178 6.5452,4.952 1.0097,0.3123 1.14052,0.3235 3.77727,0.3244 2.88305,0 3.78074,-0.093 5.75959,-0.6034 1.65525,-0.4269 2.75463,-1.0057 3.71108,-1.9538 l 0.80159,-0.7945 0.009,-1.4671 c 0.005,-0.8068 0.0243,-1.5472 0.0428,-1.6451 0.0186,-0.098 0.0702,-1.8882 0.11471,-3.9783 0.10802,-5.0713 0.19723,-5.5195 1.37108,-6.8877 0.76405,-0.8907 2.81614,-3.7655 4.5774,-6.4128 1.36025,-2.0445 2.7951,-4.4868 5.62498,-9.5742 l 1.56039,-2.8052 0,-2.6719 0,-2.6719 0.60504,-0.08 c 0.72547,-0.096 1.44267,0 2.00756,0.2692 l 0.41564,0.1981 0.0594,3.2054 0.0594,3.2054 2.88822,3.7111 c 1.58852,2.0411 2.91858,3.7111 2.95569,3.7111 0.0371,0 1.71667,-0.8658 3.73234,-1.924 3.33326,-1.7499 3.66524,-1.9514 3.66896,-2.2267 0.008,-0.6211 0.45017,-4.9825 0.51538,-5.088 0.10795,-0.1747 1.06909,-0.263 1.51686,-0.1394 0.83758,0.2313 0.73619,-0.5983 1.30253,10.6576 l 0.51549,10.2455 0.44901,0.072 c 0.39298,0.063 0.51474,0.1707 0.97602,0.8646 0.61845,0.9302 1.68933,1.9828 2.12984,2.0933 l 0.30982,0.078 0,1.809 0,1.809 0.50471,0.1508 c 0.65802,0.1966 1.34643,0.5504 1.6378,0.8418 0.22298,0.223 0.23258,0.4235 0.23258,4.8539 l 0,4.6213 -0.92034,0.075 c -0.5062,0.041 -1.03041,0.098 -1.16493,0.1255 -0.13451,0.028 -1.09642,0.6083 -2.13758,1.2907 l -1.893,1.2406 m -5.04707,0.019 0,-1.3063 0,1e-4 0,-1.3063 -5.7438,0 -5.74383,0 -0.31336,0.4735 c -0.17236,0.2605 -0.66689,0.8483 -1.09896,1.3063 l -0.78558,0.8328 m -37.95133,0 -0.59973,-0.4741 c -0.91268,-0.7214 -1.7327,-1.8968 -2.69332,-3.8605 -1.41853,-2.8997 -2.1526,-5.4379 -2.42135,-8.3721 -0.27668,-3.0208 -0.0869,-6.0285 0.53563,-8.491 0.0776,-0.3069 -0.0893,-0.1849 -1.20608,0.8813 -0.71287,0.6807 -1.93741,1.7969 -2.72119,2.4805 -0.78378,0.6836 -1.47653,1.2897 -1.53945,1.3469 -0.0701,0.064 0.25138,0.472 0.8295,1.0535 l 0.9439,0.9495 -3.42131,3.4228 -3.42129,3.4228 1.54894,1.8522 1.54892,1.8521 -1.55786,1.9681 -1.55787,1.968 m -13.80081,0 -3.36356,-3.3651 -3.36355,-3.3651 0.67714,-2.1714 0.67713,-2.1715 -3.28043,-3.282 -3.28044,-3.282 m 4.27594,39.5325 0.97846,-0.9784 0.97845,-0.9784 1.93037,1.9276 1.93036,1.9278 1.10325,-1.0987 1.10326,-1.0987 8.54604,4.7982 8.54605,4.7982 1.02828,-1.0124 1.0283,-1.0125 4.55316,4.1898 c 2.50425,2.3043 4.73832,4.3682 4.96459,4.5862 l 0.41142,0.3965 -0.40902,0.422 -0.40903,0.422 0.29323,0.56 c 1.41862,2.709 4.30525,6.0134 7.09014,8.1161 1.20361,0.9088 3.18547,2.1223 3.46612,2.1223 0.0982,0 0.3428,-0.1592 0.54352,-0.3537 l 0.36493,-0.3537 5.75611,5.757 5.75613,5.7571 -1.91444,1.9144 -1.91445,1.9144 -0.95048,-0.3665 c -2.53117,-0.9761 -5.20396,-0.7026 -7.66797,0.7848 -0.51098,0.3085 -1.22374,0.8235 -1.58391,1.1445 l -0.65483,0.5836 m 10.29121,10.2933 1.84591,-1.8432 1.84591,-1.8432 3.55835,1.8419 c 1.95709,1.0131 3.61235,1.8428 3.67834,1.8437 0.066,0 1.08051,-0.96 2.25447,-2.1353 l 2.13449,-2.137 -1.06531,-1.0703 -1.06531,-1.0702 1.15587,-1.1559 1.15588,-1.1559 1.78167,1.7787 c 0.97993,0.9783 1.78169,1.8326 1.78169,1.8985 0,0.066 -2.69883,2.8191 -5.9974,6.1181 l -5.99739,5.9983 m 5.22621,5.2221 4.56908,-4.5679 4.56906,-4.5679 -0.7398,-0.2408 c -1.48088,-0.4822 -1.86727,-1.0059 -1.86727,-2.5312 0,-0.5713 0.0813,-1.2014 0.20447,-1.5853 0.26516,-0.8261 1.06542,-1.6496 1.86937,-1.9235 0.70159,-0.2391 1.83059,-0.2571 2.35357,-0.038 1.28266,0.5383 2.69044,3.2137 2.6961,5.1237 l 0.002,0.5934 -5.84786,5.8487 -5.84786,5.8488 m 4.6283,4.6328 6.71038,-6.7073 6.7104,-6.7073 1.61796,4.1834 1.61796,4.1834 -5.41747,5.4329 -5.41749,5.4329 m 6.88469,6.8877 2.37706,-2.3749 c 1.30739,-1.3062 2.41699,-2.375 2.46581,-2.375 0.0863,0 1.29827,2.4816 1.45833,2.9859 0.0666,0.2098 -0.24682,0.5785 -1.8935,2.2274 l -1.97333,1.9758 m 1.66739,1.6547 3.02736,-3.0274 3.02735,-3.0274 -1.24722,-2.8492 -1.24723,-2.8492 3.71718,-3.7173 3.71718,-3.7172 4.29849,7.837 c 2.36415,4.3104 4.29847,7.88 4.29847,7.9326 0,0.053 -2.57824,2.6742 -5.72943,5.8258 l -5.72941,5.7304 m 10.56717,10.5691 5.07725,-5.0762 5.07727,-5.0762 0,-7.1358 0,-7.1358 -7.72474,-13.1632 -7.72474,-13.1632 0.85359,-0.8593 c 0.53282,-0.5364 0.82885,-0.9238 0.78775,-1.0309 -0.0362,-0.094 -1.03847,-1.6621 -2.22723,-3.4838 -2.10156,-3.2205 -2.1574,-3.322 -2.01741,-3.6684 0.645,-1.596 0.64485,-2.9539 0,-4.2633 -0.45571,-0.9247 -1.27154,-1.8289 -1.973,-2.1868 -1.42324,-0.726 -3.32403,-0.5212 -5.16917,0.557 l -0.78518,0.4588 -2.83373,-2.8421 c -4.37405,-4.3869 -9.57118,-9.1463 -11.50132,-10.5324 l -0.51519,-0.37 -0.69317,0.5764 c -0.99943,0.831 -3.73482,2.8714 -4.04256,3.0155 -0.23483,0.11 -0.44054,-0.041 -1.99951,-1.4675 -0.95575,-0.8745 -1.87141,-1.6915 -2.03479,-1.8155 l -0.29706,-0.2254 -1.62332,1.6203 -1.62333,1.6202 -6.03331,-6.0342 -6.03332,-6.0342 0.65237,-0.8337 c 0.64693,-0.8268 0.6514,-0.8382 0.53606,-1.3578 -0.18028,-0.8121 -0.97419,-2.3547 -1.74322,-3.3873 -1.79213,-2.4062 -5.52252,-5.3538 -8.17102,-6.4564 l -0.90794,-0.378 -0.44934,0.4388 c -0.24713,0.2413 -0.50426,0.4193 -0.57138,0.3956 -0.15857,-0.056 -5.43589,-4.6835 -5.87293,-5.1497 -1.26585,-1.3501 -2.15294,-4.2543 -2.30332,-7.5409 -0.0832,-1.8172 0.0917,-3.2505 0.57195,-4.6894 0.49507,-1.4831 1.08238,-2.4018 3.37928,-5.286 2.24307,-2.8165 4.04245,-4.1779 6.5452,-4.9519 1.0097,-0.3123 1.14052,-0.3235 3.77727,-0.3244 2.88305,0 3.78074,0.093 5.75959,0.6034 1.65525,0.4269 2.75463,1.0057 3.71108,1.9538 l 0.80159,0.7945 0.009,1.467 c 0.005,0.8069 0.0243,1.5472 0.0428,1.6452 0.0186,0.098 0.0702,1.8882 0.11471,3.9783 0.10802,5.0713 0.19722,5.5194 1.37108,6.8877 0.76405,0.8906 2.81614,3.7655 4.5774,6.4128 1.36025,2.0445 2.7951,4.4867 5.62498,9.5742 l 1.56039,2.8052 0,2.6719 0,2.6719 0.60504,0.08 c 0.72547,0.096 1.44267,10e-5 2.00756,-0.2691 l 0.41564,-0.1981 0.0594,-3.2054 0.0594,-3.2054 2.88822,-3.7111 c 1.58852,-2.0411 2.91858,-3.7111 2.95569,-3.7111 0.0371,0 1.71667,0.8658 3.73234,1.924 3.33326,1.7499 3.66524,1.9514 3.66896,2.2267 0.008,0.6211 0.45017,4.9825 0.51538,5.088 0.10795,0.1747 1.06909,0.263 1.51686,0.1393 0.83758,-0.2312 0.73619,0.5984 1.30253,-10.6575 l 0.51549,-10.2455 0.44901,-0.072 c 0.39298,-0.063 0.51474,-0.1707 0.97601,-0.8646 0.61845,-0.9303 1.68933,-1.9828 2.12985,-2.0934 l 0.30982,-0.078 0,-1.809 0,-1.8091 0.50471,-0.1508 c 0.65802,-0.1965 1.34643,-0.5504 1.6378,-0.8417 0.22297,-0.223 0.23258,-0.4236 0.23258,-4.8539 l 0,-4.6213 -0.92035,-0.075 c -0.50619,-0.041 -1.0304,-0.098 -1.16492,-0.1255 -0.13451,-0.027 -1.09642,-0.6083 -2.13758,-1.2907 l -1.893,-1.2407 m -5.04707,-0.019 0,1.3063 0,-1e-4 0,1.3063 -5.74381,0 -5.74382,0 -0.31337,-0.4736 c -0.17236,-0.2604 -0.66688,-0.8482 -1.09895,-1.3063 l -0.78558,-0.8327 m -37.95133,0 -0.59973,0.474 c -0.91268,0.7215 -1.7327,1.8969 -2.69332,3.8605 -1.41853,2.8998 -2.1526,5.4379 -2.42135,8.3722 -0.27668,3.0207 -0.0869,6.0284 0.53563,8.491 0.0776,0.3069 -0.0893,0.1849 -1.20608,-0.8813 -0.71288,-0.6807 -1.93741,-1.7969 -2.72119,-2.4805 -0.78378,-0.6836 -1.47653,-1.2897 -1.53945,-1.3469 -0.0701,-0.064 0.25138,-0.472 0.8295,-1.0535 l 0.9439,-0.9495 -3.42131,-3.4228 -3.42129,-3.4228 1.54894,-1.8522 1.54892,-1.8522 -1.55787,-1.968 -1.55786,-1.968 m -13.80082,0 -3.36355,3.3651 -3.36355,3.3651 0.67714,2.1714 0.67713,2.1714 -3.28043,3.282 -3.28044,3.282 m -39.65458,-39.6586 0.97844,-0.9785 0.97844,-0.9784 -1.92769,-1.9304 -1.92771,-1.9303 1.09867,-1.1033 1.09867,-1.1033 -4.79821,-8.546 -4.7982,-8.546 1.01247,-1.0283 1.01247,-1.0283 -4.18978,-4.5532 c -2.30437,-2.5042 -4.3682,-4.7383 -4.58625,-4.9646 l -0.39648,-0.4114 -0.422,0.409 -0.42201,0.4091 -0.55996,-0.2933 c -2.70906,-1.4186 -6.01342,-4.3052 -8.11618,-7.0901 -0.90879,-1.2036 -2.12226,-3.1855 -2.12226,-3.4661 0,-0.098 0.15917,-0.3428 0.3537,-0.5436 l 0.35371,-0.3649 -5.75704,-5.7561 -5.75703,-5.7561 -1.91443,1.9144 -1.91444,1.9145 0.36654,0.9504 c 0.97613,2.5312 0.70257,5.204 -0.78481,7.668 -0.30845,0.511 -0.82347,1.2238 -1.14448,1.5839 l -0.58365,0.6549 m -10.29325,-10.2913 1.84321,-1.8459 1.8432,-1.8459 -1.84197,-3.5583 c -1.01308,-1.9571 -1.84271,-3.6124 -1.84362,-3.6784 -0.001,-0.066 0.95997,-1.0805 2.1353,-2.2544 l 2.13696,-2.1345 1.07027,1.0653 1.07027,1.0653 1.15587,-1.1559 1.15587,-1.1559 -1.7787,-1.7816 c -0.97829,-0.98 -1.83262,-1.7817 -1.89852,-1.7817 -0.0659,0 -2.81901,2.6988 -6.11806,5.9974 l -5.99825,5.9974 m -5.22216,-5.2262 4.5679,-4.5691 4.56792,-4.5691 0.24086,0.7398 c 0.4821,1.4809 1.00587,1.8673 2.53116,1.8673 0.57126,0 1.20139,-0.081 1.58524,-0.2045 0.82618,-0.2651 1.64961,-1.0654 1.92355,-1.8693 0.23906,-0.7016 0.2571,-1.8306 0.0376,-2.3536 -0.53831,-1.2827 -3.21372,-2.6905 -5.12375,-2.6961 l -0.59332,0 -5.84877,5.8479 -5.84875,5.8479 m -4.63287,-4.6284 6.7073,-6.7103 6.7073,-6.7104 -4.18339,-1.618 -4.18339,-1.618 -5.43287,5.4175 -5.43289,5.4175 m -6.88774,-6.8847 2.37494,-2.377 c 1.30622,-1.3074 2.37495,-2.417 2.37495,-2.4659 0,-0.086 -2.48155,-1.2982 -2.98584,-1.4583 -0.20987,-0.067 -0.57856,0.2468 -2.22738,1.8935 l -1.9759,1.9733 m -1.65461,-1.6673 3.02736,-3.0274 3.02736,-3.0274 2.84924,1.2473 2.84925,1.2472 3.71722,-3.7172 3.71722,-3.7172 -7.83701,-4.2984 c -4.31036,-2.3642 -7.88,-4.2985 -7.93255,-4.2985 -0.0525,0 -2.67419,2.5782 -5.825869,5.7294 l -5.730342,5.7294 m -10.569171,-10.5671 5.076219,-5.077304 5.07623,-5.0773 7.135813,0 7.13581,0 13.1632,7.724804 13.16318,7.7247 0.85933,-0.8536 c 0.53639,-0.5328 0.92381,-0.8288 1.03091,-0.7877 0.0944,0.036 1.66205,1.0384 3.48373,2.2272 3.22049,2.1016 3.32203,2.1574 3.66844,2.0174 1.59598,-0.645 2.95386,-0.6448 4.26329,5e-4 0.92468,0.4557 1.8289,1.2715 2.18676,1.973 0.72609,1.4232 0.52127,3.324 -0.55696,5.1692 l -0.45883,0.7851 2.84209,2.8338 c 4.38698,4.374 9.1463,9.5711 10.53242,11.5013 l 0.36998,0.5152 -0.57634,0.6932 c -0.83096,0.9994 -2.87144,3.7348 -3.01556,4.0425 -0.10997,0.2348 0.041,0.4405 1.46751,1.9995 0.87454,0.9558 1.69151,1.8714 1.81548,2.0348 l 0.2254,0.2971 -1.62022,1.6233 -1.62021,1.6233 6.03418,6.0333 6.03419,6.0333 0.83375,-0.6523 c 0.8268,-0.647 0.83813,-0.6514 1.35773,-0.5361 0.8121,0.1803 2.35477,0.9742 3.38734,1.7432 2.40622,1.7922 5.3538,5.5226 6.45637,8.1711 l 0.37799,0.9079 -0.43878,0.4493 c -0.24132,0.2472 -0.41932,0.5043 -0.39556,0.5714 0.0561,0.1586 4.68351,5.4359 5.14965,5.8729 1.3501,1.2659 4.25435,2.153 7.54089,2.3034 1.81727,0.083 3.25053,-0.092 4.68938,-0.572 1.48312,-0.4951 2.40181,-1.0824 5.286,-3.3793 2.81659,-2.243 4.17797,-4.0424 4.95197,-6.5452 0.31226,-1.0097 0.32349,-1.1405 0.32442,-3.7772 0.001,-2.8831 -0.0931,-3.7808 -0.60343,-5.7596 -0.42692,-1.6553 -1.00571,-2.7547 -1.95377,-3.7111 l -0.79455,-0.8016 -1.46703,-0.01 c -0.80686,0 -1.54719,-0.024 -1.64516,-0.043 -0.098,-0.019 -1.88819,-0.07 -3.97827,-0.1147 -5.07133,-0.1081 -5.51948,-0.1973 -6.88775,-1.3711 -0.89061,-0.7641 -3.76549,-2.8162 -6.41274,-4.5774 -2.04454,-1.3603 -4.48678,-2.7951 -9.57422,-5.625 l -2.80521,-1.5604 -2.67188,0 -2.67189,0 -0.0803,-0.605 c -0.0962,-0.7255 -8e-5,-1.4427 0.26916,-2.0076 l 0.1981,-0.4156 3.2054,-0.059 3.2054,-0.059 3.71108,-2.8882 c 2.04109,-1.5885 3.71107,-2.9186 3.71107,-2.9557 0,-0.037 -0.8658,-1.7167 -1.924,-3.7323 -1.7499,-3.3333 -1.95137,-3.6653 -2.22664,-3.669 -0.62116,-0.01 -4.98255,-0.4502 -5.08806,-0.5154 -0.17468,-0.1079 -0.26295,-1.0691 -0.13931,-1.5168 0.23126,-0.8376 -0.59838,-0.7362 10.65755,-1.3025 l 10.2455,-0.5155 0.0718,-0.449 c 0.0628,-0.393 0.1707,-0.5148 0.86457,-0.9761 0.93027,-0.6184 1.98282,-1.6893 2.09338,-2.1298 l 0.0778,-0.3098 1.80902,0 1.80902,0 0.15078,-0.5047 c 0.19659,-0.6581 0.55041,-1.3465 0.84178,-1.6378 0.22298,-0.223 0.42355,-0.2326 4.85388,-0.2326 l 4.62129,0 0.0754,0.9203 c 0.0415,0.5062 0.098,1.0304 0.12547,1.1649 0.0275,0.1346 0.60832,1.0965 1.29068,2.1376 l 1.24068,1.893 m 0.0192,5.0471 -1.3063,0 9e-5,0 -1.30629,0 0,5.7438 0,5.7438 0.47354,0.3134 c 0.26045,0.1723 0.84829,0.6669 1.3063,1.0989 l 0.83275,0.7856 m 0,37.9514 -0.47405,0.5997 c -0.72144,0.9127 -1.89682,1.7327 -3.86048,2.6933 -2.89974,1.4185 -5.43791,2.1526 -8.37219,2.4214 -3.02074,0.2766 -6.02842,0.087 -8.49095,-0.5357 -0.30694,-0.078 -0.18495,0.089 0.8813,1.2061 0.68066,0.7129 1.79688,1.9374 2.48046,2.7212 0.6836,0.7838 1.28972,1.4765 1.34694,1.5394 0.0637,0.07 0.47195,-0.2513 1.05348,-0.8295 l 0.94947,-0.9439 3.42283,3.4213 3.42283,3.4213 1.85216,-1.5489 1.85216,-1.5489 1.96802,1.5578 1.96802,1.5579 m 0,13.8008 -3.36511,3.3636 -3.36511,3.3635 -2.1714,-0.6771 -2.17141,-0.6771 -3.28201,3.2804 -3.28201,3.2804 m 39.53252,-4.2759 -0.97845,-0.9785 -0.97844,-0.9784 1.92769,-1.9304 1.92771,-1.9303 -1.09867,-1.1033 -1.09867,-1.1033 4.7982,-8.546 4.79821,-8.546 -1.01247,-1.0283 -1.01248,-1.0283 4.18979,-4.5532 c 2.30437,-2.5042 4.36819,-4.7383 4.58625,-4.9646 l 0.39648,-0.4114 0.422,0.409 0.42202,0.4091 0.55995,-0.2933 c 2.70906,-1.4186 6.01342,-4.3052 8.11618,-7.0901 0.90879,-1.2036 2.12227,-3.1855 2.12227,-3.4661 0,-0.098 -0.15918,-0.3428 -0.35371,-0.5436 l -0.35371,-0.3649 5.75704,-5.7561 5.75704,-5.7561 1.91443,1.9144 1.91444,1.9145 -0.36655,0.9504 c -0.97613,2.5312 -0.70256,5.204 0.78482,7.668 0.30846,0.511 0.82347,1.2238 1.14448,1.5839 l 0.58364,0.6549 m 10.29325,-10.2913 -1.84321,-1.8459 -1.8432,-1.8459 1.84197,-3.5583 c 1.01308,-1.9571 1.84271,-3.6124 1.84362,-3.6784 0.001,-0.066 -0.95997,-1.0805 -2.1353,-2.2544 l -2.13696,-2.1345 -1.07027,1.0653 -1.07027,1.0653 -1.15587,-1.1559 -1.15587,-1.1559 1.7787,-1.7816 c 0.97829,-0.98 1.83262,-1.7817 1.89852,-1.7817 0.0659,0 2.81902,2.6988 6.11806,5.9974 l 5.99825,5.9974 m 5.22217,-5.2262 -4.56791,-4.5691 -4.56792,-4.5691 -0.24084,0.7398 c -0.48212,1.4809 -1.00589,1.8673 -2.53118,1.8673 -0.57126,0 -1.20139,-0.081 -1.58524,-0.2045 -0.82617,-0.2651 -1.64961,-1.0654 -1.92354,-1.8693 -0.23906,-0.7016 -0.2571,-1.8306 -0.0376,-2.3536 0.5383,-1.2827 3.21371,-2.6905 5.12374,-2.6961 l 0.59334,0 5.84875,5.8479 5.84875,5.8479 m 4.63287,-4.6284 -6.7073,-6.7103 -6.70729,-6.7104 4.18338,-1.618 4.1834,-1.618 5.43287,5.4175 5.43288,5.4175 m 6.88775,-6.8847 -2.37495,-2.377 c -1.30622,-1.3074 -2.37494,-2.417 -2.37494,-2.4659 0,-0.086 2.48154,-1.2982 2.98585,-1.4583 0.20986,-0.067 0.57855,0.2468 2.22737,1.8935 l 1.97589,1.9733 m 1.65461,-1.6673 -3.02736,-3.0274 -3.02736,-3.0274 -2.84924,1.2473 -2.84924,1.2472 -3.71723,-3.7172 -3.71721,-3.7172 7.83701,-4.2984 c 4.31035,-2.3642 7.88,-4.2985 7.93254,-4.2985 0.0525,0 2.67419,2.5782 5.82588,5.7294 l 5.73033,5.7294 m 10.56917,-10.5671 -5.07621,-5.077304 -5.07624,-5.0773 -7.13581,0 -7.13581,0 -13.1632,7.724804 -13.16318,7.7247 -0.85932,-0.8536 c -0.5364,-0.5328 -0.92381,-0.8288 -1.03091,-0.7877 -0.0944,0.036 -1.66206,1.0384 -3.48374,2.2272 -3.22049,2.1016 -3.32203,2.1574 -3.66842,2.0174 -1.596,-0.645 -2.95388,-0.6448 -4.26331,5e-4 -0.92468,0.4557 -1.8289,1.2715 -2.18676,1.973 -0.72607,1.4232 -0.52127,3.324 0.55696,5.1692 l 0.45883,0.7851 -2.84209,2.8338 c -4.38698,4.374 -9.14629,9.5711 -10.53241,11.5013 l -0.36998,0.5152 0.57634,0.6932 c 0.83097,0.9994 2.87143,3.7348 3.01555,4.0425 0.10997,0.2348 -0.041,0.4405 -1.46751,1.9995 -0.87454,0.9558 -1.69151,1.8714 -1.81548,2.0348 l -0.22539,0.2971 1.62021,1.6233 1.62022,1.6233 -6.03419,6.0333 -6.03419,6.0333 -0.83375,-0.6523 c -0.82679,-0.647 -0.83812,-0.6514 -1.35773,-0.5361 -0.8121,0.1803 -2.35477,0.9742 -3.38733,1.7432 -2.40621,1.7922 -5.35381,5.5226 -6.45638,8.1711 l -0.37797,0.9079 0.43876,0.4493 c 0.24132,0.2472 0.41932,0.5043 0.39556,0.5714 -0.0561,0.1586 -4.68351,5.4359 -5.14964,5.8729 -1.35012,1.2659 -4.25436,2.153 -7.5409,2.3034 -1.81727,0.083 -3.25053,-0.092 -4.68938,-0.572 -1.48312,-0.4951 -2.40181,-1.0824 -5.286,-3.3793 -2.81659,-2.243 -4.17797,-4.0424 -4.95198,-6.5452 -0.31225,-1.0097 -0.32348,-1.1405 -0.32441,-3.7772 -0.001,-2.8831 0.093,-3.7808 0.60343,-5.7596 0.42692,-1.6553 1.00571,-2.7547 1.95377,-3.7111 l 0.79455,-0.8016 1.46703,-0.01 c 0.80686,0 1.54718,-0.024 1.64516,-0.043 0.098,-0.019 1.88819,-0.07 3.97827,-0.1147 5.07133,-0.1081 5.51948,-0.1973 6.88776,-1.3711 0.8906,-0.7641 3.76549,-2.8162 6.41274,-4.5774 2.04452,-1.3603 4.48677,-2.7951 9.57421,-5.625 l 2.80521,-1.5604 2.67189,0 2.67188,0 0.0803,-0.605 c 0.0962,-0.7255 9e-5,-1.4427 -0.26915,-2.0076 l -0.1981,-0.4156 -3.20539,-0.059 -3.2054,-0.059 -3.71108,-2.8882 c -2.04109,-1.5885 -3.71107,-2.9186 -3.71107,-2.9557 0,-0.037 0.86579,-1.7167 1.92398,-3.7323 1.74991,-3.3333 1.95138,-3.6653 2.22665,-3.669 0.62116,-0.01 4.98255,-0.4502 5.08806,-0.5154 0.17467,-0.1079 0.26294,-1.0691 0.13931,-1.5168 -0.23126,-0.8376 0.59838,-0.7362 -10.65755,-1.3025 l -10.2455,-0.5155 -0.0718,-0.449 c -0.0628,-0.393 -0.1707,-0.5148 -0.86457,-0.9761 -0.93027,-0.6184 -1.98282,-1.6893 -2.09338,-2.1298 l -0.0778,-0.3098 -1.80902,0 -1.80902,0 -0.15079,-0.5047 c -0.19658,-0.6581 -0.5504,-1.3465 -0.84177,-1.6378 -0.22298,-0.223 -0.42355,-0.2326 -4.85388,-0.2326 l -4.62129,0 -0.0754,0.9203 c -0.0415,0.5062 -0.098,1.0304 -0.12547,1.1649 -0.0275,0.1346 -0.60832,1.0965 -1.29069,2.1376 l -1.24067,1.893 m -0.0192,5.0471 1.3063,0 -1e-4,0 1.3063,0 0,5.7438 0,5.7438 -0.47354,0.3134 c -0.26045,0.1723 -0.84829,0.6669 -1.3063,1.0989 l -0.83275,0.7856 m 0,37.9514 0.47405,0.5997 c 0.72143,0.9127 1.89682,1.7327 3.86048,2.6933 2.89974,1.4185 5.43791,2.1526 8.37219,2.4214 3.02074,0.2766 6.02842,0.087 8.49095,-0.5357 0.30694,-0.078 0.18494,0.089 -0.88131,1.2061 -0.68065,0.7129 -1.79687,1.9374 -2.48045,2.7212 -0.6836,0.7838 -1.28973,1.4765 -1.34694,1.5394 -0.0637,0.07 -0.47196,-0.2513 -1.05348,-0.8295 l -0.94947,-0.9439 -3.42284,3.4213 -3.42282,3.4213 -1.85217,-1.5489 -1.85215,-1.5489 -1.96802,1.5578 -1.96802,1.5579 m 0,13.8008 3.3651,3.3636 3.36511,3.3635 2.17141,-0.6771 2.17141,-0.6771 3.282,3.2804 3.28202,3.2804 m -39.65866,39.6537 -0.97845,-0.9784 -0.97845,-0.9784 -1.93036,1.9276 -1.93037,1.9278 -1.10325,-1.0987 -1.10326,-1.0987 -8.54604,4.7982 -8.54604,4.7982 -1.02829,-1.0124 -1.02829,-1.0125 -4.55317,4.1898 c -2.50424,2.3043 -4.73831,4.3682 -4.96459,4.5862 l -0.41142,0.3965 0.40903,0.422 0.40903,0.422 -0.29323,0.56 c -1.41863,2.709 -4.30526,6.0134 -7.09015,8.1161 -1.20361,0.9088 -3.18547,2.1223 -3.46612,2.1223 -0.0982,0 -0.3428,-0.1592 -0.54351,-0.3537 l -0.36493,-0.3537 -5.75612,5.757 -5.75612,5.7571 1.91444,1.9144 1.91443,1.9144 0.9505,-0.3665 c 2.53117,-0.9761 5.20396,-0.7026 7.66796,0.7848 0.51099,0.3085 1.22374,0.8235 1.58391,1.1445 l 0.65484,0.5836 m -10.29122,10.2933 -1.84591,-1.8432 -1.84591,-1.8432 -3.55834,1.8419 c -1.9571,1.0131 -3.61235,1.8428 -3.67834,1.8437 -0.066,0 -1.08051,-0.96 -2.25448,-2.1353 l -2.13449,-2.137 1.06532,-1.0703 1.06531,-1.0702 -1.15588,-1.1559 -1.15587,-1.1559 -1.78168,1.7787 c -0.97992,0.9783 -1.78168,1.8326 -1.78168,1.8985 0,0.066 2.69883,2.8191 5.99739,6.1181 l 5.99739,5.9983 m -5.22621,5.2221 -4.56907,-4.5679 -4.56907,-4.5679 0.7398,-0.2409 c 1.48089,-0.4821 1.86728,-1.0058 1.86728,-2.5311 0,-0.5713 -0.0813,-1.2014 -0.20448,-1.5853 -0.26516,-0.8261 -1.06541,-1.6496 -1.86937,-1.9235 -0.70159,-0.2391 -1.83058,-0.2571 -2.35357,-0.038 -1.28265,0.5383 -2.69044,3.2137 -2.69609,5.1237 l -0.002,0.5933 5.84786,5.8488 5.84786,5.8488 m -4.6283,4.6328 -6.71039,-6.7073 -6.71039,-6.7073 -1.61796,4.1834 -1.61796,4.1834 5.41747,5.4329 5.41748,5.4329 m -6.88468,6.8877 -2.37706,-2.3749 c -1.30739,-1.3062 -2.417004,-2.375 -2.465817,-2.375 -0.08625,0 -1.29827,2.4816 -1.458327,2.9859 -0.06661,0.2098 0.246818,0.5785 1.893504,2.2274 l 1.97332,1.9758 m -1.66738,1.6547 -3.027362,-3.0274 -3.027359,-3.0274 1.247229,-2.8492 1.247229,-2.8493 -3.717184,-3.7172 -3.717186,-3.7172 -4.298474,7.837 c -2.364161,4.3104 -4.298474,7.88 -4.298474,7.9326 0,0.053 2.57824,2.6742 5.729422,5.8258 l 5.729423,5.7304 m -10.567175,10.5691 -5.077259,-5.0762 -5.077259,-5.0762 0,-7.1358 0,-7.1358 7.724737,-13.1632 7.724738,-13.1632 -0.853589,-0.8593 c -0.532815,-0.5364 -0.828846,-0.9238 -0.787746,-1.0309 0.03621,-0.094 1.038465,-1.6621 2.227227,-3.4838 2.101563,-3.2205 2.1574,-3.322 2.017406,-3.6684 -0.644997,-1.596 -0.64484,-2.9539 4.75e-4,-4.2633 0.455708,-0.9247 1.27155,-1.8289 1.973007,-2.1868 1.423231,-0.7261 3.32403,-0.5212 5.169168,0.557 l 0.785181,0.4588 2.833725,-2.8421 c 4.37404,-4.3869 9.57119,-9.1463 11.50132,-10.5324 l 0.5152,-0.37 0.69317,0.5764 c 0.99942,0.8309 3.73481,2.8714 4.04255,3.0155 0.23483,0.11 0.44055,-0.041 1.99951,-1.4675 0.95575,-0.8745 1.87141,-1.6915 2.03479,-1.8155 l 0.29706,-0.2254 1.62332,1.6203 1.62333,1.6202 6.03331,-6.0342 6.03331,-6.0342 -0.65236,-0.8337 c -0.64693,-0.8269 -0.6514,-0.8382 -0.53605,-1.3578 0.18028,-0.8121 0.97418,-2.3547 1.74322,-3.3873 1.79212,-2.4062 5.52251,-5.3538 8.17102,-6.4564 l 0.90793,-0.378 0.44934,0.4388 c 0.24714,0.2413 0.50425,0.4193 0.57138,0.3956 0.15857,-0.056 5.43589,-4.6835 5.87293,-5.1497 1.26585,-1.3501 2.15294,-4.2543 2.30333,-7.5409 0.0832,-1.8172 -0.0917,-3.2505 -0.57196,-4.6894 -0.49507,-1.4831 -1.08238,-2.4018 -3.37928,-5.286 -2.24307,-2.8165 -4.04245,-4.1779 -6.54519,-4.9519 -1.00971,-0.3123 -1.14053,-0.3235 -3.77728,-0.3244 -2.88305,0 -3.78073,0.093 -5.75959,0.6034 -1.65525,0.4269 -2.75462,1.0057 -3.71108,1.9538 l -0.80159,0.7945 -0.009,1.467 c -0.005,0.8069 -0.0243,1.5472 -0.0428,1.6452 -0.0186,0.098 -0.0702,1.8882 -0.1147,3.9783 -0.10802,5.0713 -0.19723,5.5194 -1.37109,6.8877 -0.76405,0.8906 -2.81614,3.7655 -4.57739,6.4128 -1.36026,2.0445 -2.79511,4.4867 -5.625,9.5742 l -1.56038,2.8052 0,2.6719 0,2.6719 -0.60504,0.08 c -0.72547,0.096 -1.44267,10e-5 -2.00755,-0.2691 l -0.41564,-0.1981 -0.0594,-3.2054 -0.0594,-3.2054 -2.88822,-3.7111 c -1.58852,-2.0411 -2.91858,-3.7111 -2.95569,-3.7111 -0.0371,0 -1.71667,0.8658 -3.73234,1.924 -3.33327,1.7499 -3.66525,1.9514 -3.66897,2.2267 -0.008,0.6211 -0.45016,4.9825 -0.51537,5.088 -0.10796,0.1747 -1.069095,0.263 -1.516866,0.1393 -0.837578,-0.2312 -0.736182,0.5984 -1.30252,-10.6575 l -0.515498,-10.2455 -0.449001,-0.072 c -0.392991,-0.063 -0.514742,-0.1707 -0.976028,-0.8646 -0.618445,-0.9303 -1.689323,-1.9828 -2.129842,-2.0934 l -0.30982,-0.078 0,-1.809 0,-1.8091 -0.504707,-0.1508 c -0.658022,-0.1965 -1.346432,-0.5504 -1.6378,-0.8417 -0.222971,-0.223 -0.232582,-0.4236 -0.232582,-4.8539 l 0,-4.6213 0.920347,-0.075 c 0.506191,-0.041 1.030405,-0.098 1.16492,-0.1255 0.134516,-0.027 1.096427,-0.6083 2.137581,-1.2907 l 1.893006,-1.2407 m 5.04707,-0.019 0,1.3063 0,-1e-4 0,1.3063 5.74381,0 5.74381,0 0.31337,-0.4736 c 0.17236,-0.2604 0.66689,-0.8482 1.09896,-1.3063 l 0.78558,-0.8327 m 37.95133,0 0.59973,0.474 c 0.91267,0.7215 1.7327,1.8969 2.69331,3.8605 1.41853,2.8998 2.15261,5.4379 2.42136,8.3722 0.27667,3.0207 0.0869,6.0284 -0.53563,8.491 -0.0776,0.3069 0.0893,0.1849 1.20608,-0.8813 0.71287,-0.6807 1.93741,-1.7969 2.72119,-2.4805 0.78378,-0.6836 1.47654,-1.2897 1.53945,-1.3469 0.0701,-0.064 -0.25138,-0.472 -0.8295,-1.0535 l -0.9439,-0.9495 3.4213,-3.4228 3.4213,-3.4228 -1.54893,-1.8522 -1.54894,-1.8522 1.55787,-1.968 1.55787,-1.968 m 13.80081,0 3.36356,3.3651 3.36355,3.3651 -0.67714,2.1714 -0.67714,2.1714 3.28044,3.282 3.28044,3.282 m -4.27595,-39.5325 -0.97845,0.9785 -0.97845,0.9784 -1.93036,-1.9277 -1.93037,-1.9277 -1.10325,1.0987 -1.10326,1.0986 -8.54604,-4.7982 -8.54604,-4.7982 -1.02829,1.0125 -1.02829,1.0125 -4.55318,-4.1898 c -2.50424,-2.3044 -4.73831,-4.3682 -4.96459,-4.5863 l -0.41142,-0.3964 0.40903,-0.422 0.40903,-0.422 -0.29323,-0.56 c -1.41862,-2.7091 -4.30525,-6.0134 -7.09015,-8.1162 -1.20361,-0.9088 -3.18547,-2.1222 -3.46612,-2.1222 -0.0982,0 -0.34279,0.1591 -0.54351,0.3537 l -0.36493,0.3537 -5.75612,-5.7571 -5.75611,-5.757 1.91443,-1.9144 1.91444,-1.9145 0.95049,0.3666 c 2.53117,0.9761 5.20396,0.7025 7.66797,-0.7848 0.51098,-0.3085 1.22374,-0.8235 1.5839,-1.1445 l 0.65484,-0.5837 m -10.29121,-10.2932 -1.84591,1.8432 -1.84591,1.8432 -3.55835,-1.842 c -1.95709,-1.0131 -3.61235,-1.8427 -3.67834,-1.8436 -0.066,-9e-4 -1.08051,0.96 -2.25448,2.1353 l -2.13448,2.137 1.06531,1.0702 1.06531,1.0703 -1.15587,1.1559 -1.15588,1.1558 -1.78168,-1.7787 c -0.97992,-0.9783 -1.78167,-1.8326 -1.78167,-1.8985 0,-0.066 2.69882,-2.819 5.99739,-6.118 l 5.99739,-5.9983 m -5.22622,-5.2222 -4.56906,4.568 -4.56907,4.5679 0.73979,0.2408 c 1.48089,0.4821 1.86728,1.0059 1.86728,2.5312 0,0.5713 -0.0813,1.2014 -0.20448,1.5852 -0.26516,0.8262 -1.06541,1.6496 -1.86936,1.9236 -0.70159,0.239 -1.83059,0.2571 -2.35357,0.038 -1.28266,-0.5383 -2.69045,-3.2137 -2.6961,-5.1238 l -0.002,-0.5933 5.84786,-5.8487 5.84786,-5.8488 m -4.6283,-4.6329 -6.71039,6.7073 -6.71039,6.7073 -1.61796,-4.1834 -1.61796,-4.1834 5.41748,-5.4328 5.41747,-5.4329 m -6.88468,-6.8878 -2.37706,2.375 c -1.30738,1.3062 -2.417001,2.3749 -2.465814,2.3749 -0.08625,0 -1.29827,-2.4815 -1.458327,-2.9858 -0.06661,-0.2099 0.246818,-0.5786 1.893501,-2.2274 l 1.97333,-1.9759 m -1.66739,-1.6546 -3.027359,3.0274 -3.027359,3.0273 1.247229,2.8493 1.247229,2.8492 -3.717184,3.7172 -3.717186,3.7173 -4.298474,-7.8371 c -2.364161,-4.3103 -4.298474,-7.88 -4.298474,-7.9325 0,-0.052 2.57824,-2.6742 5.729422,-5.8259 l 5.729423,-5.7303 m -10.567175,-10.5692 -5.077259,5.0762 -5.077259,5.0763 0,7.1358 0,7.1358 7.724737,13.1632 7.724738,13.1632 -0.853589,0.8593 c -0.532815,0.5364 -0.828846,0.9238 -0.787746,1.0309 0.03621,0.094 1.038465,1.6621 2.227227,3.4837 2.101563,3.2205 2.1574,3.3221 2.017406,3.6685 -0.644997,1.596 -0.64484,2.9538 4.75e-4,4.2633 0.455708,0.9246 1.27155,1.8289 1.973007,2.1867 1.423231,0.7261 3.32403,0.5213 5.169168,-0.5569 l 0.785181,-0.4589 2.833722,2.8421 c 4.37405,4.387 9.57119,9.1463 11.50133,10.5324 l 0.51519,0.37 0.69317,-0.5763 c 0.99942,-0.831 3.73481,-2.8715 4.04255,-3.0156 0.23483,-0.1099 0.44055,0.041 1.99951,1.4675 0.95576,0.8746 1.87142,1.6915 2.0348,1.8155 l 0.29705,0.2254 1.62333,-1.6202 1.62332,-1.6202 6.03331,6.0342 6.03332,6.0342 -0.65237,0.8337 c -0.64692,0.8268 -0.6514,0.8381 -0.53605,1.3577 0.18028,0.8122 0.97418,2.3548 1.74322,3.3874 1.79213,2.4062 5.52251,5.3538 8.17102,6.4564 l 0.90794,0.3779 0.44933,-0.4387 c 0.24714,-0.2414 0.50426,-0.4194 0.57138,-0.3956 0.15857,0.056 5.43589,4.6835 5.87293,5.1496 1.26586,1.3502 2.15294,4.2544 2.30333,7.5409 0.0831,1.8173 -0.0917,3.2506 -0.57195,4.6894 -0.49508,1.4831 -1.08238,2.4018 -3.37929,5.286 -2.24307,2.8166 -4.04245,4.178 -6.54519,4.952 -1.0097,0.3123 -1.14053,0.3235 -3.77728,0.3244 -2.88305,0 -3.78073,-0.093 -5.75959,-0.6034 -1.65525,-0.4269 -2.75462,-1.0057 -3.71108,-1.9538 l -0.80159,-0.7945 -0.009,-1.4671 c -0.005,-0.8068 -0.0243,-1.5472 -0.0428,-1.6451 -0.0186,-0.098 -0.0702,-1.8882 -0.1147,-3.9783 -0.10802,-5.0713 -0.19723,-5.5195 -1.37109,-6.8878 -0.76405,-0.8906 -2.81614,-3.7654 -4.57739,-6.4127 -1.36025,-2.0445 -2.79511,-4.4868 -5.62499,-9.5742 l -1.56038,-2.8052 0,-2.6719 0,-2.6719 -0.60505,-0.08 c -0.72547,-0.096 -1.44266,-1e-4 -2.00755,0.2691 l -0.41564,0.1981 -0.0594,3.2054 -0.0594,3.2054 -2.88822,3.7111 c -1.58852,2.0411 -2.91858,3.7111 -2.95569,3.7111 -0.0371,0 -1.71666,-0.8658 -3.73234,-1.924 -3.33327,-1.7499 -3.66524,-1.9514 -3.66896,-2.2267 -0.008,-0.6211 -0.45017,-4.9825 -0.51538,-5.088 -0.10795,-0.1747 -1.069092,-0.263 -1.516863,-0.1394 -0.837578,0.2313 -0.736182,-0.5983 -1.30252,10.6576 l -0.515498,10.2455 -0.449001,0.072 c -0.392991,0.063 -0.514742,0.1707 -0.976028,0.8646 -0.618445,0.9302 -1.689323,1.9828 -2.129842,2.0933 l -0.30982,0.078 0,1.809 0,1.809 -0.504707,0.1508 c -0.658022,0.1966 -1.346432,0.5504 -1.6378,0.8418 -0.222971,0.223 -0.232582,0.4235 -0.232582,4.8539 l 0,4.6213 0.920347,0.075 c 0.506191,0.041 1.030405,0.098 1.16492,0.1255 0.134516,0.028 1.096427,0.6083 2.137581,1.2907 l 1.893006,1.2406 m 5.047067,0.019 0,-1.3063 0,1e-4 0,-1.3063 5.74381,0 5.74381,0 0.31338,0.4735 c 0.17235,0.2605 0.66688,0.8483 1.09895,1.3063 l 0.78558,0.8328 m 37.95133,0 0.59973,-0.4741 c 0.91267,-0.7214 1.7327,-1.8968 2.69331,-3.8605 1.41854,-2.8997 2.15261,-5.4379 2.42136,-8.3721 0.27667,-3.0208 0.0869,-6.0285 -0.53562,-8.491 -0.0776,-0.3069 0.0893,-0.1849 1.20607,0.8813 0.71288,0.6807 1.93742,1.7969 2.72119,2.4805 0.78378,0.6836 1.47654,1.2897 1.53945,1.3469 0.0701,0.064 -0.25138,0.472 -0.8295,1.0535 l -0.9439,0.9495 3.4213,3.4228 3.4213,3.4228 -1.54893,1.8522 -1.54894,1.8521 1.55787,1.9681 1.55787,1.968 m 13.80081,0 3.36356,-3.3651 3.36355,-3.3651 -0.67714,-2.1714 -0.67714,-2.1715 3.28044,-3.282 3.28044,-3.282 m -87.13098,-48.9839 c -4.84659,-1.3561 -8.95293,-2.501 -9.125206,-2.5442 -0.23045,-0.058 -0.293116,-0.131 -0.237126,-0.2769 0.211852,-0.5521 0.320104,-2.088 0.196586,-2.7892 -0.318806,-1.8099 -1.883916,-3.0532 -3.927889,-3.1203 l -0.776496,-0.026 -1.015762,-2.0051 c -3.530139,-6.9687 -4.589293,-11.6717 -2.833077,-12.5798 1.280109,-0.662 4.079595,1.0354 6.529014,3.9588 2.303592,2.7493 5.455446,8.337 6.234376,11.0525 0.39653,1.3824 0.37637,2.6832 -0.0523,3.3768 l -0.26383,0.4269 0.74787,0.2279 c 0.41133,0.1253 2.81321,0.8303 5.33752,1.5666 l 4.58964,1.3387 1.9405,1.9432 c 1.29433,1.2961 1.86186,1.9385 1.70434,1.9292 -0.12988,-0.01 -4.20154,-1.1235 -9.04813,-2.4796 z m 9.73196,37.4371 c -0.0769,-1.0287 -0.27487,-2.6453 -0.43986,-3.5923 -0.16499,-0.9471 -0.30044,-1.7914 -0.30099,-1.8761 -0.001,-0.2315 0.91098,0.4384 1.6205,1.1897 1.16669,1.2353 1.82237,3.0487 1.82237,5.0399 l 0,1.1092 -1.28107,0 -1.28108,0 -0.13987,-1.8704 z m -11.19225,7.339 -2.31571,-0.8094 -0.0324,-2.0921 c -0.0253,-1.6328 7.1e-4,-2.0915 0.11875,-2.0894 0.0831,0 1.19326,0.3394 2.4669,0.751 l 2.31571,0.7482 0.0324,2.1585 c 0.0253,1.6882 -6e-4,2.1568 -0.11876,2.1506 -0.0831,0 -1.19319,-0.3722 -2.46683,-0.8174 z m 0,7.493 -2.31571,-1.0325 -0.0324,-2.1644 c -0.0178,-1.1905 0.001,-2.1645 0.0428,-2.1645 0.19746,0 4.6379,1.2413 4.75469,1.3291 0.20707,0.1558 0.22748,5.0868 0.021,5.0742 -0.0851,-0.01 -1.19674,-0.474 -2.47038,-1.0419 z m 8.78783,-1.5999 c 0,-2.6736 -0.0172,-2.9191 -0.20782,-2.9737 -0.1143,-0.033 -0.88243,-0.096 -1.70696,-0.1402 -0.82452,-0.044 -1.56257,-0.1198 -1.6401,-0.1677 -0.0911,-0.056 0.51953,-0.7236 1.72651,-1.8867 l 1.86747,-1.7995 1.55395,0 c 0.85467,0 2.10641,-0.036 2.78164,-0.077 l 1.2277,-0.075 1.71353,1.71 1.71352,1.7099 -1.57555,0.059 -1.57554,0.059 -0.0316,3.236 c -0.0174,1.7799 -0.0501,3.2361 -0.0726,3.2361 -0.0226,0 -0.39462,-0.1603 -0.82677,-0.3563 -1.25615,-0.5695 -2.72538,-0.4709 -4.79043,0.3215 -0.12742,0.049 -0.15691,-0.4875 -0.15691,-2.854 z m 55.78364,1.3734 -4.00791,-4.0092 1.39597,-1.3855 1.39597,-1.3855 3.20637,3.0311 c 1.76351,1.6672 3.62388,3.436 4.13416,3.9308 l 0.92779,0.8997 -1.4604,1.4639 c -0.80322,0.8052 -1.48822,1.4639 -1.52222,1.4639 -0.034,0 -1.86537,-1.8041 -4.06973,-4.0092 z m -70.79702,9.373 c -0.17918,-0.8749 -0.79974,-4.7893 -0.76343,-4.8155 0.36188,-0.2618 4.66113,-2.0771 4.76644,-2.0126 0.0794,0.049 0.99114,0.8072 2.02611,1.6856 1.59578,1.3545 1.85009,1.615 1.67329,1.7139 -0.11467,0.064 -1.88003,0.9331 -3.92302,1.931 l -3.71454,1.8143 -0.0649,-0.3167 z m -4.286708,2.1924 c -0.262628,-0.1613 -0.601427,-0.5137 -0.752888,-0.7832 -0.235237,-0.4185 -0.263845,-0.5887 -0.196234,-1.1673 0.04353,-0.3725 0.104083,-2.2467 0.134557,-4.1648 l 0.05541,-3.4873 0.365979,0.073 c 0.201289,0.04 0.626496,0.073 0.944906,0.073 l 0.578928,0 0,2.7172 0,2.7173 0.506386,0.1275 c 0.881828,0.222 1.634529,1.176 1.628587,2.0641 -0.0039,0.583 -0.390847,1.3249 -0.889381,1.7051 -0.636672,0.4857 -1.697807,0.5414 -2.376247,0.125 z m 20.401858,0.3352 c -1.43302,-0.7141 -1.95118,-2.4365 -1.1492,-3.82 0.52926,-0.913 1.33493,-1.3596 2.44473,-1.3552 1.9759,0.01 3.27338,2.0795 2.42681,3.8747 -0.33367,0.7076 -0.66203,1.0301 -1.38023,1.3557 -0.75182,0.3408 -1.58685,0.3212 -2.34211,-0.055 z"
     inkscape:connector-curvature="0" />
</svg>
