<?xml version="1.0" encoding="UTF-8" standalone="no"?>
<!-- Created with Inkscape (http://www.inkscape.org/) -->

<svg
   xmlns:dc="http://purl.org/dc/elements/1.1/"
   xmlns:cc="http://creativecommons.org/ns#"
   xmlns:rdf="http://www.w3.org/1999/02/22-rdf-syntax-ns#"
   xmlns:svg="http://www.w3.org/2000/svg"
   xmlns="http://www.w3.org/2000/svg"
   xmlns:sodipodi="http://sodipodi.sourceforge.net/DTD/sodipodi-0.dtd"
   xmlns:inkscape="http://www.inkscape.org/namespaces/inkscape"
   id="svg11838"
   version="1.1"
   inkscape:version="0.91 r"
   width="533"
   height="1353"
   viewBox="0 0 533 1353"
   sodipodi:docname="snowflake-Luke_Skywalker-000.svg">
  <metadata
     id="metadata11844">
    <rdf:RDF>
      <cc:Work
         rdf:about="">
        <dc:format>image/svg+xml</dc:format>
        <dc:type
           rdf:resource="http://purl.org/dc/dcmitype/StillImage" />
        <dc:title />
      </cc:Work>
    </rdf:RDF>
  </metadata>
  <defs
     id="defs11842" />
  <sodipodi:namedview
     pagecolor="#ffffff"
     bordercolor="#666666"
     borderopacity="1"
     objecttolerance="10"
     gridtolerance="10"
     guidetolerance="10"
     inkscape:pageopacity="0"
     inkscape:pageshadow="2"
     inkscape:window-width="1600"
     inkscape:window-height="843"
     id="namedview11840"
     showgrid="false"
     inkscape:zoom="2.2441796"
     inkscape:cx="205.17878"
     inkscape:cy="620.85934"
     inkscape:window-x="0"
     inkscape:window-y="0"
     inkscape:window-maximized="1"
     inkscape:current-layer="svg11838"
     inkscape:object-nodes="true"
     inkscape:snap-center="true"
     showguides="true"
     inkscape:guide-bbox="true">
    <sodipodi:guide
       position="449.5,85.5324"
       orientation="0,1"
       id="guide4141" />
    <sodipodi:guide
       position="449.5,85.5324"
       orientation="1,0"
       id="guide4143" />
  </sodipodi:namedview>
  <path
     id="path4166"
     style="fill:none;stroke:#00ff00;stroke-width:0.70866144;stroke-miterlimit:4;stroke-dasharray:none;stroke-opacity:1"
     d="m 225.74726,829.64982 c -1.12992,0.95184 -2.09201,2.59173 -2.11758,3.60942 -0.0161,0.63846 0.25228,1.70563 0.56512,2.24753 0.29948,0.51867 0.24722,0.61505 -0.59715,1.10101 -0.7626,0.43891 -1.88964,0.86574 -2.73305,1.03497 -0.64584,0.12953 -0.6609,0.13856 -0.55052,0.32979 0.42115,0.72951 3.04268,1.64566 4.37178,1.52791 1.56648,-0.13882 4.03793,-1.03658 5.60843,-2.03728 1.0266,-0.65411 1.18579,-0.85023 0.72546,-0.89373 -0.69103,-0.0653 -1.59329,-0.3665 -2.02192,-0.67508 -0.4401,-0.31637 -0.46868,-0.36348 -0.6336,-1.03012 -0.2218,-0.89591 -0.20153,-1.54999 0.0631,-2.03473 0.25026,-0.4585 0.93009,-0.88166 1.54304,-0.9604 0.64717,-0.0832 1.68126,0.17896 2.06848,0.52444 0.37582,0.33518 0.91851,1.43567 0.93321,1.89231 0.0172,0.53405 0.15223,0.30995 0.59016,-0.97923 0.49252,-1.44998 1.02304,-3.85918 1.09687,-4.98115 0.0553,-0.84071 -0.13487,-1.10525 -0.87072,-1.21114 -0.53237,-0.0766 -0.77272,0.0707 -1.006,0.6163 -0.22958,0.53693 -0.76472,1.36511 -0.95045,1.47109 -0.0745,0.0424 -0.34614,-0.0243 -0.60363,-0.1485 -0.74589,-0.35992 -2.01775,-0.57895 -2.91923,-0.5033 -0.92932,0.078 -1.7844,0.4451 -2.56173,1.09991 z m 2.53181,-15.96066 c -0.0783,0.13019 -0.18939,0.373 -0.24661,0.53976 -0.091,0.26474 -0.19389,0.33632 -0.81145,0.56482 -0.47041,0.17402 -0.80489,0.36383 -0.99884,0.5668 l -0.29156,0.30514 0.40637,0.66483 c 0.45332,0.74153 1.74399,1.98383 2.2715,2.18633 l 0.33413,0.12851 -0.04,-0.73878 c -0.0975,-1.80341 -0.34767,-4.539 -0.41126,-4.49845 -0.0383,0.0243 -0.13397,0.15106 -0.21235,0.28133 z m -3.71739,-12.84577 -0.76864,0.54235 c -1.75589,1.23901 -2.91154,2.41727 -3.97594,4.05372 -0.8122,1.24864 -0.96239,1.84533 -0.96407,3.82757 -9.1e-4,1.19703 0.25581,3.40781 0.43108,3.71144 0.27288,0.4726 0.61984,-0.11763 0.74671,-1.27029 0.11056,-1.00473 0.66838,-2.07387 1.53658,-2.94514 0.71045,-0.71294 2.80553,-2.18843 4.51108,-3.17702 l 0.91512,-0.53039 m 17.79547,30.82268 -0.69236,-0.17164 c -1.61984,-0.40158 -2.31931,-0.27252 -5.41148,0.99841 -3.72578,1.53142 -5.31448,2.31053 -7.65339,3.75323 -2.43528,1.5022 -3.03025,1.95842 -4.93445,3.78382 -0.79074,0.75799 -1.91749,1.74384 -2.50395,2.19083 -1.26414,0.96353 -1.22481,0.96313 -2.3647,0.0228 -3.63546,-2.99891 -5.79127,-4.03987 -8.04578,-3.88497 -1.07902,0.074 -2.47121,0.55456 -2.12675,0.734 0.1003,0.0473 0.73406,0.36893 1.41333,0.70602 1.44101,0.71544 3.73906,2.23158 5.0831,3.3528 1.7081,1.42534 3.69221,3.84313 5.33848,6.50524 0.63772,1.03112 1.18303,1.83105 1.21184,1.7775 0.0286,-0.0532 0.0882,-0.63608 0.13198,-1.29443 0.15196,-2.28632 1.07102,-5.74999 1.80903,-6.81759 0.46567,-0.67367 1.30768,-1.17978 5.18115,-3.1145 3.31135,-1.65397 4.32518,-2.23924 5.76218,-3.32641 1.48591,-1.12417 2.89004,-1.93648 3.67009,-2.12318 0.3356,-0.0803 0.89912,-0.0921 1.25236,-0.0263 1.30313,0.24299 3.52461,1.39785 5.658,2.94124 l 1.18379,0.85636 m 14.02444,24.29106 -2.01586,1.16249 c -4.75126,2.73997 -9.26258,4.73939 -12.12472,5.3737 -3.35614,0.74383 -5.50295,0.20382 -11.18053,-2.81216 -2.4396,-1.29588 -2.99587,-1.41736 -6.74006,-1.47183 -5.38673,-0.0785 -6.69741,-0.25993 -8.56525,-1.18549 -1.70304,-0.84393 -2.92932,-1.91331 -4.92208,-4.29207 -2.65201,-3.16563 -5.4464,-5.43062 -8.55731,-6.93603 -4.11992,-1.99371 -4.98136,-2.44103 -6.10974,-3.17271 -1.61091,-1.04448 -2.37346,-1.64527 -3.24148,-2.55362 -1.56704,-1.63986 -2.1926,-2.91042 -2.31653,-4.70533 -0.0647,-0.93714 -9.2e-4,-1.34482 0.4719,-3.01076 0.8466,-2.98369 1.77013,-5.16693 2.93678,-6.94246 1.32023,-2.0093 0.98179,-3.46112 -0.76721,-3.2909 -0.97722,0.095 -2.12292,0.54751 -3.12698,1.23489 -0.89807,0.61486 -2.14479,1.76777 -2.48423,2.29743 -0.23622,0.36854 -0.56673,0.58693 -0.74404,0.49152 -0.22091,-0.11698 -0.20317,-0.94932 0.0494,-2.42679 0.41105,-2.40493 1.0939,-4.2737 2.14251,-5.86364 0.54499,-0.8264 1.45277,-1.91146 1.73577,-2.07484 0.12938,-0.0748 0.044,-0.15445 -0.39268,-0.36657 -1.08232,-0.52566 -1.8407,-1.32881 -1.86137,-1.97127 -0.0157,-0.48912 3.04647,-6.36131 4.35414,-8.34958 1.65082,-2.51008 4.12879,-4.25657 5.2273,-3.68431 0.18616,0.0969 0.60293,0.66528 1.30554,1.77999 0.56771,0.90056 1.21323,1.89038 1.43461,2.19941 l 0.40244,0.56197 0.14832,-1.22894 c 0.25737,-2.13321 1.38142,-5.82883 2.19974,-7.23224 0.0921,-0.15782 0.0607,-0.2037 -0.2509,-0.36704 -0.19591,-0.10255 -0.70402,-0.40647 -1.12604,-0.68073 l -0.76994,-0.49413 -2.14968,-3.72324 c -2.50069,-4.33142 -2.13042,-3.93388 -4.52245,-4.85485 -1.75946,-0.67734 -3.38079,-1.20273 -6.87423,-2.22723 l -2.49592,-0.73206 m 14.232,-26.65707 -0.41418,3.55862 c -0.84132,7.22853 -1.5167,14.0911 -1.6627,16.89571 -0.0922,1.76987 0.064,4.20569 0.32996,5.14748 0.15825,0.56041 0.54824,1.25894 2.29817,4.11707 3.16631,5.17124 4.63378,7.4974 4.70385,7.45617 0.0346,-0.0202 0.29215,-0.3921 0.57213,-0.82605 1.00391,-1.5557 1.81939,-3.55276 2.72542,-6.67439 0.52368,-1.80435 0.68221,-2.10619 1.5148,-2.88414 0.48558,-0.45372 2.77642,-2.08671 3.60229,-2.56783 m 29.06412,23.28541 c 1.38931,-0.50264 3.29049,-0.51587 4.18468,-0.0292 0.56115,0.30497 1.35096,1.07128 1.66381,1.61319 0.29948,0.51867 0.40906,0.52157 1.25209,0.0334 0.76139,-0.44098 1.69453,-1.20362 2.26278,-1.84942 0.43517,-0.49453 0.45053,-0.50308 0.56093,-0.31184 0.42119,0.72942 -0.0962,3.45788 -0.8627,4.54998 -0.90349,1.28722 -2.91667,2.97867 -4.56855,3.83844 -1.07979,0.56198 -1.32924,0.60182 -1.13668,0.18136 0.28899,-0.63108 0.47917,-1.56302 0.42626,-2.08858 -0.0544,-0.53929 -0.0805,-0.58761 -0.57525,-1.06377 -0.66501,-0.64 -1.24164,-0.94948 -1.79371,-0.96277 -0.52219,-0.0125 -1.22851,0.36464 -1.60327,0.85618 -0.39561,0.51886 -0.68559,1.54548 -0.58003,2.05353 0.10244,0.49304 0.7841,1.51334 1.17218,1.75437 0.4538,0.28206 0.19234,0.28679 -1.14312,0.0215 -1.50197,-0.29848 -3.85363,-1.04362 -4.86224,-1.54066 -0.75593,-0.37206 -0.88972,-0.66947 -0.61352,-1.35965 0.19984,-0.49932 0.44752,-0.6338 1.03679,-0.56305 0.5797,0.0697 1.56456,0.0203 1.74919,-0.0876 0.0743,-0.0437 0.15202,-0.31194 0.17322,-0.59702 0.0615,-0.82595 0.50747,-2.03695 1.02368,-2.7798 0.53219,-0.76583 1.27769,-1.32281 2.23346,-1.66856 z m -15.08829,-5.78771 c 0.15205,-0.003 0.41781,0.0225 0.59084,0.0562 0.27492,0.0532 0.38819,2.5e-4 0.8948,-0.42032 0.38594,-0.32043 0.71755,-0.51516 0.99032,-0.58165 l 0.41007,-0.0999 0.37254,0.68435 c 0.41552,0.76341 0.84604,2.50228 0.75767,3.06037 l -0.056,0.35364 -0.61972,-0.40424 c -1.51301,-0.98615 -3.75711,-2.57056 -3.69014,-2.60536 0.0404,-0.021 0.19783,-0.0405 0.34973,-0.0432 z m -9.26599,-9.64228 0.85402,-0.39447 c 1.9509,-0.90109 3.54909,-1.31279 5.49861,-1.41643 1.48738,-0.0791 2.07929,0.0892 3.79679,1.07889 1.03663,0.59849 2.82329,1.92545 2.99858,2.22909 0.27287,0.47259 -0.41174,0.478 -1.47341,0.0115 -0.92539,-0.40668 -2.13024,-0.45815 -3.31885,-0.14191 -0.97269,0.25882 -3.29799,1.33543 -5.00688,2.31819 l -0.91693,0.52733 m 17.79546,30.82269 0.1975,-0.68539 c 0.46217,-1.60365 0.92366,-2.14485 3.57051,-4.18732 3.18912,-2.46092 4.65816,-3.44717 7.07707,-4.75143 2.5185,-1.3579 3.21112,-1.64501 5.74401,-2.38139 1.05183,-0.3058 2.46901,-0.78866 3.14933,-1.07306 1.46648,-0.61303 1.44651,-0.57919 1.20209,-2.03656 -0.77942,-4.64788 -0.60302,-7.03535 0.65831,-8.91031 0.60372,-0.89741 1.71593,-1.86285 1.6991,-1.47487 -0.005,0.11056 -0.0477,0.82022 -0.0953,1.57706 -0.10088,1.60558 0.0627,4.35391 0.36204,6.07845 0.38036,2.19193 1.48214,5.11914 2.96449,7.87586 0.57417,1.0679 0.99422,1.94009 0.93343,1.93824 -0.061,-0.002 -0.59518,-0.24123 -1.18698,-0.53289 -2.05605,-1.01153 -5.51517,-1.94749 -6.80868,-1.84213 -0.81627,0.0664 -1.67559,0.54255 -5.28788,2.92972 -3.08803,2.04074 -4.10183,2.62615 -5.76181,3.32705 -1.71653,0.72471 -3.12204,1.53454 -3.67375,2.11674 -0.2374,0.2505 -0.52939,0.73262 -0.64897,1.0714 -0.44116,1.25008 -0.55184,3.75136 -0.28193,6.37065 l 0.1498,1.4533 m 14.02444,24.29107 2.0147,-1.16452 c 4.74849,-2.74475 8.73571,-5.65195 10.71608,-7.81345 2.32222,-2.53461 2.92802,-4.66382 3.15491,-11.08871 0.0975,-2.76072 0.27047,-3.30323 2.09533,-6.57303 2.62544,-4.70425 3.12366,-5.93002 3.25599,-8.01046 0.12061,-1.8968 -0.19231,-3.49346 -1.25596,-6.40868 -1.41555,-3.87948 -1.97991,-7.43197 -1.7282,-10.8788 0.33336,-4.56482 0.37669,-5.53457 0.30723,-6.87753 -0.0991,-1.91736 -0.23805,-2.87816 -0.59071,-4.08404 -0.63664,-2.17704 -1.42424,-3.35412 -2.91672,-4.35882 -0.77915,-0.52478 -1.16464,-0.67241 -2.8433,-1.09675 -3.00726,-0.75868 -5.35976,-1.05045 -7.48073,-0.92791 -2.40028,0.13871 -3.48833,-0.88031 -2.46646,-2.30986 0.57096,-0.79875 1.53565,-1.5647 2.63298,-2.09058 0.98146,-0.47034 2.60337,-0.97359 3.23171,-1.00271 0.43737,-0.0203 0.79167,-0.19732 0.79771,-0.39859 0.007,-0.24982 -0.72052,-0.65061 -2.12631,-1.17062 -2.28829,-0.84651 -4.2481,-1.18947 -6.14939,-1.07635 -0.98817,0.0589 -2.38175,0.30244 -2.66475,0.46582 -0.12934,0.0747 -0.15568,-0.0392 -0.12108,-0.52333 0.0859,-1.20018 -0.23045,-2.25854 -0.77648,-2.59764 -0.41581,-0.25801 -7.03231,-0.54236 -9.40807,-0.40406 -2.99919,0.17468 -5.75068,1.44735 -5.8043,2.68486 -0.009,0.20965 0.27466,0.85476 0.88871,2.02061 0.4961,0.94197 1.0305,1.99587 1.18747,2.34213 l 0.28544,0.62952 -1.13839,-0.48606 c -1.97618,-0.84372 -5.73872,-1.71802 -7.3632,-1.71106 -0.18277,7.5e-4 -0.20662,-0.0496 -0.19243,-0.40083 0.009,-0.22089 -0.003,-0.81295 -0.0267,-1.31553 l -0.0431,-0.91381 -2.14964,-3.72333 c -2.50069,-4.33141 -2.34163,-3.81191 -1.94316,-6.34399 0.29312,-1.86243 0.64884,-3.52924 1.50827,-7.06691 l 0.61402,-2.52754 m -30.20177,-1.00325 3.28895,1.42064 c 6.68083,2.88563 12.96159,5.73206 15.46352,7.00788 1.5788,0.80513 3.61023,2.15825 4.29283,2.85949 0.40617,0.41731 0.81619,1.1043 2.41638,4.04885 2.89532,5.32773 4.17612,7.76164 4.10537,7.80175 -0.0351,0.0198 -0.48566,0.0569 -1.00148,0.0825 -1.84923,0.0916 -3.98643,-0.20078 -7.14287,-0.97697 -1.82454,-0.44862 -2.16518,-0.46227 -3.25519,-0.13017 -0.63569,0.19364 -3.19529,1.36105 -4.02493,1.83578 M 101.00891,731.00051 c -0.25934,-1.45449 -1.198482,-3.10757 -2.067064,-3.6386 -0.544705,-0.33349 -1.603265,-0.63434 -2.228936,-0.63439 -0.598972,6e-5 -0.656275,-0.0934 -0.654986,-1.06759 9.14e-4,-0.87987 0.195087,-2.06932 0.470237,-2.88434 0.210717,-0.62412 0.210434,-0.64171 -0.01042,-0.64169 -0.842299,-6e-5 -2.946481,1.81216 -3.509049,3.02211 -0.663027,1.42604 -1.121274,4.01524 -1.039908,5.87571 0.0532,1.2161 0.143424,1.45205 0.411277,1.07506 0.402034,-0.56581 1.114022,-1.19649 1.595636,-1.41344 0.494218,-0.22255 0.54912,-0.2241 1.208862,-0.0337 0.886775,0.25593 1.443098,0.60056 1.730642,1.07202 0.271931,0.44598 0.298466,1.24625 0.06014,1.81656 -0.251539,0.60203 -0.995617,1.36648 -1.488379,1.52909 -0.478202,0.15781 -1.702636,0.0776 -2.105428,-0.13795 -0.471166,-0.25197 -0.344533,-0.0232 0.553011,1.00069 1.00947,1.1515 2.830609,2.81552 3.765351,3.44048 0.700185,0.46864 1.024648,0.43579 1.484254,-0.1485 0.332515,-0.42272 0.325139,-0.70446 -0.0308,-1.17941 -0.350175,-0.4672 -0.799854,-1.34479 -0.798748,-1.55863 6.67e-4,-0.0862 0.194127,-0.28761 0.43042,-0.44852 0.684537,-0.46625 1.510308,-1.45795 1.895528,-2.27643 0.39714,-0.84381 0.50674,-1.76792 0.32829,-2.76852 z m 12.55644,10.17299 c -0.0734,-0.13317 -0.2284,-0.35056 -0.34413,-0.48355 -0.18351,-0.2115 -0.19431,-0.33605 -0.0834,-0.98508 0.0845,-0.49445 0.0874,-0.87899 0.008,-1.14847 l -0.11849,-0.4051 -0.77893,0.0196 c -0.86887,0.0219 -2.59006,0.51846 -3.02918,0.87403 l -0.27826,0.22534 0.65994,0.33457 c 1.61054,0.81723 4.10473,1.96847 4.10138,1.89308 -0.002,-0.0455 -0.0638,-0.19158 -0.13741,-0.32451 z m 12.98347,3.20345 -0.0854,-0.93684 c -0.19507,-2.14006 -0.63762,-3.72999 -1.52262,-5.47014 -0.67525,-1.32764 -1.1169,-1.75614 -2.83273,-2.74868 -1.03663,-0.59849 -3.07915,-1.48232 -3.42975,-1.4823 -0.54572,-2e-5 -0.2081,0.59557 0.72671,1.28177 0.81488,0.59808 1.46189,1.61578 1.78232,2.80326 0.26219,0.97178 0.49249,3.52387 0.49582,5.49518 l 0.002,1.05775 m -35.590968,2e-5 0.494807,-0.51374 c 1.157725,-1.20207 1.395677,-1.87232 1.84109,-5.1858 0.536615,-3.99224 0.65625,-5.75767 0.576311,-8.50464 -0.08327,-2.86004 -0.180923,-3.60342 -0.809652,-6.16515 -0.26108,-1.06382 -0.551508,-2.53256 -0.64537,-3.26394 -0.202336,-1.57652 -0.221663,-1.5423 1.162667,-2.05932 4.414887,-1.64894 6.39429,-2.99544 7.38739,-5.02527 0.475328,-0.97154 0.755313,-2.41747 0.427724,-2.2089 -0.09333,0.0595 -0.686493,0.4514 -1.31814,0.87103 -1.340079,0.89024 -3.801923,2.12253 -5.445109,2.72569 -2.088455,0.76657 -5.174386,1.276 -8.302939,1.37061 -1.2119,0.0367 -2.17728,0.10903 -2.145289,0.16075 0.03176,0.0521 0.506508,0.39482 1.054992,0.76151 1.904032,1.27481 4.444162,3.80252 4.999679,4.97543 0.350551,0.74015 0.367928,1.72236 0.106719,6.04429 -0.223314,3.69469 -0.223384,4.86537 -4.01e-4,6.6534 0.230636,1.84891 0.232063,3.47103 0.0037,4.23992 -0.09824,0.33085 -0.369771,0.82477 -0.603377,1.09774 -0.862015,1.00708 -2.972856,2.35358 -5.376174,3.42947 l -1.333498,0.59693 m -28.0489,10e-6 0.0012,-2.32704 c 0.0027,-5.48469 0.526877,-10.39134 1.408604,-13.18713 1.033925,-3.27841 2.574975,-4.86764 8.025648,-8.27659 2.342094,-1.46482 2.725444,-1.88584 4.644751,-5.10111 2.761278,-4.62582 3.573718,-5.67018 5.309265,-6.825 1.582363,-1.05286 3.121585,-1.58019 6.178063,-2.11665 4.067504,-0.71384 7.42622,-2.00133 10.285405,-3.94274 3.786577,-2.5711 4.604734,-3.09351 5.802507,-3.70484 1.710024,-0.87286 2.611583,-1.23291 3.832233,-1.53044 2.203692,-0.53718 3.616878,-0.44364 5.233222,0.34655 0.84405,0.41236 1.16463,0.6724 2.37145,1.91399 2.16066,2.22502 3.5896,4.11646 4.54396,6.01454 1.08001,2.14805 2.50654,2.58082 3.23362,0.98109 0.40626,-0.89384 0.58726,-2.11227 0.49401,-3.32552 -0.0834,-1.08514 -0.45853,-2.74138 -0.74748,-3.30009 -0.20109,-0.38894 -0.22495,-0.78427 -0.0537,-0.89013 0.2126,-0.13142 0.92371,0.29867 2.07695,1.25611 1.87724,1.55847 3.15416,3.08424 4.00684,4.78736 0.44312,0.88521 0.92895,2.21388 0.92895,2.54065 0,0.14935 0.1118,0.11521 0.51377,-0.1568 0.99643,-0.67449 2.07117,-0.9297 2.63786,-0.62637 0.43135,0.23109 3.98585,5.81898 5.05395,7.94559 1.34832,2.68472 1.6219,5.70393 0.57701,6.3691 -0.17704,0.11269 -0.87758,0.18951 -2.19426,0.24066 -1.06382,0.0413 -2.24373,0.1055 -2.62208,0.14269 l -0.6879,0.0675 0.99012,0.74284 c 1.71879,1.28956 4.35722,4.11087 5.16343,5.52119 0.0907,0.15864 0.1463,0.15412 0.44335,-0.0337 0.1868,-0.11823 0.70552,-0.40389 1.15264,-0.63464 l 0.81294,-0.41956 4.29931,-2e-5 c 5.00148,-4e-5 4.47203,0.12196 6.46564,-1.48917 1.46637,-1.18505 2.73198,-2.32653 5.36599,-4.83965 l 1.8819,-1.79552 m 15.96973,25.65387 -2.87479,-2.13799 c -5.83945,-4.34296 -11.4449,-8.35904 -13.80076,-9.88787 -1.48667,-0.96472 -3.67422,-2.04742 -4.62281,-2.28796 -0.56448,-0.14309 -1.36444,-0.15468 -4.71458,-0.0682 -6.06162,0.15644 -8.80983,0.2642 -8.8092,0.34551 2.8e-4,0.0403 0.19352,0.44906 0.42927,0.90856 0.84533,1.64727 2.1671,3.35197 4.41752,5.69742 1.30078,1.35579 1.48293,1.64397 1.74033,2.754 0.15014,0.64735 0.41894,3.44773 0.42268,4.4035 m -34.69791,13.52758 c -0.25936,1.45446 -1.198508,3.1076 -2.067072,3.63859 -0.544887,0.33314 -1.603246,0.63433 -2.228972,0.63435 -0.598917,-10e-6 -0.656247,0.0934 -0.654931,1.06765 9.14e-4,0.87989 0.19506,2.06934 0.470209,2.88437 0.210736,0.62408 0.210462,0.64164 -0.01033,0.64166 -0.842349,3e-5 -2.94653,-1.81221 -3.509105,-3.02212 -0.663007,-1.42601 -1.121243,-4.01523 -1.039877,-5.87568 0.05318,-1.21611 0.143432,-1.45204 0.41126,-1.07513 0.402022,0.56585 1.114057,1.19658 1.595653,1.41342 0.494031,0.22295 0.549113,0.22414 1.208868,0.0337 0.886767,-0.25588 1.44308,-0.60047 1.730597,-1.07197 0.27195,-0.44598 0.298494,-1.24631 0.06024,-1.81652 -0.251576,-0.60205 -0.995627,-1.36652 -1.488421,-1.52913 -0.478174,-0.15787 -1.70259,-0.0776 -2.105388,0.13797 -0.471096,0.25216 -0.344545,0.0231 0.552958,-1.0007 1.00946,-1.15153 2.830609,-2.81558 3.765369,-3.4405 0.700395,-0.46828 1.02462,-0.43582 1.484226,0.1485 0.332571,0.42274 0.325194,0.7045 -0.0308,1.17945 -0.350166,0.46721 -0.799818,1.34475 -0.79873,1.55858 5.02e-4,0.0857 0.194136,0.28761 0.430411,0.44851 0.684665,0.46601 1.510275,1.45795 1.895515,2.27649 0.39714,0.84378 0.50672,1.76788 0.3283,2.76846 z m 12.55641,-10.17295 c -0.0736,0.13294 -0.22837,0.3506 -0.34418,0.48354 -0.18372,0.21109 -0.19405,0.33611 -0.0834,0.98506 0.0845,0.4944 0.0874,0.87898 0.008,1.14842 l -0.11848,0.40507 -0.77894,-0.0195 c -0.86885,-0.0218 -2.59003,-0.51841 -3.02917,-0.87402 l -0.27835,-0.22508 0.65979,-0.33478 c 1.61052,-0.81717 4.10473,-1.96841 4.10141,-1.89306 -0.002,0.0453 -0.0638,0.19155 -0.13747,0.32456 z m 12.98346,-3.20353 -0.0854,0.93692 c -0.19502,2.14007 -0.63761,3.73002 -1.5226,5.47005 -0.67525,1.3277 -1.1169,1.75612 -2.83275,2.74869 -1.03618,0.5994 -3.07914,1.48237 -3.42974,1.48239 -0.54572,-2e-5 -0.20804,-0.5956 0.72676,-1.28182 0.81481,-0.59811 1.46182,-1.61577 1.78225,-2.80328 0.26219,-0.97174 0.49249,-3.52388 0.49585,-5.49523 l 0.002,-1.05772 m -35.590954,2e-5 0.494823,0.51377 c 1.157694,1.20204 1.395668,1.87234 1.841088,5.18569 0.536634,3.99234 0.656262,5.75775 0.576256,8.50472 -0.08325,2.86005 -0.180857,3.60343 -0.80961,6.16521 -0.261082,1.06378 -0.551467,2.53251 -0.645352,3.26388 -0.202355,1.57656 -0.221676,1.54229 1.162639,2.05929 4.414871,1.64894 6.394267,2.99544 7.387425,5.02528 0.475337,0.97157 0.755304,2.41749 0.427651,2.2089 -0.09113,-0.0632 -0.686521,-0.45125 -1.318085,-0.87098 -1.340094,-0.89022 -3.802129,-2.12233 -5.445144,-2.72569 -2.088433,-0.76657 -5.174366,-1.27598 -8.302951,-1.37063 -1.211896,-0.0367 -2.177256,-0.10901 -2.145281,-0.16074 0.03175,-0.0514 0.506746,-0.39443 1.055013,-0.76151 1.904038,-1.27475 4.444115,-3.80253 4.999686,-4.97546 0.350577,-0.74013 0.367886,-1.72237 0.106668,-6.04426 -0.223293,-3.69469 -0.223357,-4.86534 -3.36e-4,-6.6534 0.230605,-1.84891 0.232023,-3.47108 0.0037,-4.23999 -0.09822,-0.33081 -0.369783,-0.8247 -0.603387,-1.09774 -0.862001,-1.00705 -2.972872,-2.35346 -5.37618,-3.42934 l -1.333515,-0.59702 m -28.048899,10e-6 0.0012,2.32703 c 0.0027,5.4847 0.526843,10.39133 1.408589,13.18717 1.033907,3.27843 2.574963,4.86762 8.025674,8.27655 2.342053,1.4648 2.725404,1.88582 4.644719,5.10106 2.761284,4.62594 3.573758,5.67025 5.30923,6.82505 1.582384,1.05291 3.121639,1.58021 6.178097,2.11662 4.067509,0.7139 7.426233,2.00141 10.285422,3.94284 3.786569,2.5711 4.604678,3.09347 5.802529,3.70483 1.709978,0.87284 2.611562,1.23284 3.832229,1.53039 2.203673,0.53716 3.616814,0.44366 5.233206,-0.34648 0.84395,-0.41253 1.16505,-0.6717 2.37145,-1.91406 2.16065,-2.22502 3.58961,-4.11646 4.54395,-6.01456 1.08001,-2.148 2.50652,-2.58081 3.23361,-0.98103 0.40629,0.89382 0.5873,2.11227 0.49404,3.3255 -0.0834,1.08518 -0.45854,2.74132 -0.74751,3.30011 -0.20107,0.38885 -0.22493,0.78427 -0.0537,0.89012 0.21177,0.13282 0.92372,-0.29871 2.07698,-1.25618 1.87718,-1.55845 3.15416,-3.08419 4.00679,-4.78729 0.44319,-0.88518 0.92898,-2.21386 0.92899,-2.54064 4e-5,-0.14942 0.11176,-0.11532 0.51377,0.15678 0.99642,0.6745 2.07114,0.9297 2.63786,0.62636 0.43148,-0.23092 3.98582,-5.81898 5.05391,-7.94557 1.34836,-2.68471 1.62189,-5.70394 0.57704,-6.36913 -0.17702,-0.11276 -0.87761,-0.18952 -2.19428,-0.24065 -1.06381,-0.0413 -2.24375,-0.1055 -2.62206,-0.14269 l -0.68791,-0.0675 0.99009,-0.74284 c 1.71878,-1.28957 4.35726,-4.11083 5.1635,-5.52123 0.0906,-0.15869 0.14604,-0.15442 0.4433,0.0338 0.18676,0.11838 0.70402,0.40646 1.15256,0.63481 l 0.81288,0.41972 4.29928,6e-5 c 5.00147,-5e-5 4.47205,-0.12194 6.46564,1.48913 1.46633,1.18507 2.73201,2.32649 5.36596,4.83966 l 1.88193,1.79548 m 15.96972,-25.65381 -2.87478,2.13802 c -5.83944,4.34285 -11.44491,8.35903 -13.80075,9.88778 -1.48668,0.96477 -3.67423,2.04745 -4.62283,2.28799 -0.56448,0.14315 -1.36442,0.15468 -4.71458,0.0683 -6.06158,-0.15649 -8.80982,-0.26427 -8.80917,-0.34559 1.9e-4,-0.04 0.1935,-0.44905 0.42932,-0.9085 0.84533,-1.64725 2.16708,-3.35201 4.41749,-5.69746 1.30077,-1.3557 1.4829,-1.64392 1.74034,-2.75392 0.15015,-0.64739 0.41892,-3.44782 0.42265,-4.40361 m -0.80649,71.80595 c -1.38931,-0.50258 -3.2905,-0.51585 -4.1847,-0.0291 -0.56094,0.30529 -1.35097,1.07129 -1.6638,1.61313 -0.29945,0.51866 -0.40907,0.52166 -1.25208,0.0334 -0.76198,-0.43994 -1.69454,-1.20359 -2.2628,-1.84937 -0.43517,-0.49453 -0.45053,-0.50308 -0.56077,-0.31215 -0.42115,0.72947 0.0962,3.45782 0.86274,4.55002 0.90348,1.28716 2.91668,2.97858 4.56854,3.83835 1.07972,0.56216 1.32923,0.60183 1.13671,0.18142 -0.28902,-0.63105 -0.47922,-1.56307 -0.42625,-2.08861 0.0544,-0.53931 0.0804,-0.58757 0.57522,-1.06375 0.66502,-0.64006 1.24163,-0.94951 1.79374,-0.96279 0.52217,-0.0125 1.2285,0.36467 1.60329,0.856 0.39565,0.51889 0.68564,1.54546 0.58006,2.05361 -0.10241,0.49299 -0.7841,1.51331 -1.17219,1.75428 -0.45388,0.28193 -0.19233,0.28687 1.14315,0.0215 1.50195,-0.29839 3.8536,-1.04357 4.86223,-1.54066 0.7557,-0.37239 0.88971,-0.66938 0.61352,-1.35964 -0.19985,-0.49936 -0.44754,-0.63382 -1.03695,-0.56279 -0.57971,0.0697 -1.56455,0.0203 -1.74918,-0.0877 -0.0742,-0.0429 -0.15198,-0.31193 -0.17322,-0.59703 -0.0615,-0.82585 -0.50748,-2.03683 -1.02369,-2.77974 -0.53218,-0.76585 -1.27765,-1.3228 -2.23344,-1.6686 z m 15.08826,-5.78766 c -0.15171,-0.003 -0.41781,0.0225 -0.59082,0.0563 -0.2747,0.0536 -0.38816,1.8e-4 -0.89471,-0.42051 -0.38613,-0.32003 -0.71734,-0.51548 -0.99,-0.58213 l -0.41005,-0.1 -0.37254,0.68437 c -0.41553,0.76343 -0.84607,2.50228 -0.75767,3.06037 l 0.056,0.35361 0.61982,-0.40399 c 1.51302,-0.98617 3.7571,-2.57059 3.69016,-2.60544 -0.0394,-0.0228 -0.19789,-0.0404 -0.34974,-0.0433 z m 9.26603,-9.64225 -0.85386,-0.39482 c -1.95092,-0.90112 -3.54911,-1.31278 -5.49857,-1.41641 -1.48736,-0.0791 -2.07931,0.0892 -3.7968,1.0789 -1.0371,0.5976 -2.8233,1.92539 -2.99861,2.22905 -0.27285,0.47259 0.41173,0.47793 1.47341,0.0115 0.92539,-0.40655 2.13028,-0.45807 3.31887,-0.14179 0.97268,0.25878 3.298,1.33542 5.00689,2.31815 l 0.91605,0.52887 m -17.7955,30.8227 -0.1975,-0.68545 c -0.46217,-1.60357 -0.92369,-2.14477 -3.57049,-4.18723 -3.18912,-2.46089 -4.65819,-3.44723 -7.07708,-4.75142 -2.51846,-1.35799 -3.21114,-1.64507 -5.74402,-2.38149 -1.05184,-0.30574 -2.46904,-0.78863 -3.14935,-1.07302 -1.4665,-0.613 -1.44648,-0.57918 -1.20212,-2.03648 0.77943,-4.64788 0.60303,-7.03532 -0.65828,-8.91041 -0.60374,-0.8974 -1.71596,-1.86283 -1.69907,-1.47481 0.005,0.11054 0.0476,0.82025 0.0952,1.57704 0.10091,1.60568 -0.0627,4.35387 -0.36202,6.07848 -0.38037,2.19191 -1.48217,5.11913 -2.96447,7.87585 -0.57418,1.06783 -0.99424,1.94009 -0.93343,1.93825 0.0608,-0.002 0.59495,-0.24165 1.18696,-0.53291 2.05605,-1.01158 5.51519,-1.94746 6.80871,-1.84216 0.81624,0.0665 1.6756,0.54259 5.28787,2.92978 3.08803,2.04073 4.1018,2.62613 5.76197,3.32668 1.71654,0.72475 3.12204,1.53463 3.67194,2.12 0.23733,0.25047 0.52936,0.73266 0.64891,1.07146 0.44116,1.25 0.55184,3.75128 0.28192,6.37056 l -0.14976,1.45335 m -14.02446,24.29108 -2.0153,-1.16353 c -4.74985,-2.74233 -8.73571,-5.65193 -10.71608,-7.81351 -2.32222,-2.53456 -2.92802,-4.66372 -3.15493,-11.08865 -0.0975,-2.7607 -0.27042,-3.3032 -2.09526,-6.57304 -2.62548,-4.70426 -3.123688,-5.9301 -3.256016,-8.0104 -0.120629,-1.89686 0.192308,-3.49358 1.255966,-6.40873 1.41556,-3.87953 1.97988,-7.43201 1.72815,-10.87883 -0.33333,-4.56482 -0.37664,-5.53456 -0.30724,-6.87756 0.0991,-1.91734 0.2381,-2.8781 0.59077,-4.08405 0.63661,-2.17696 1.42425,-3.35407 2.91667,-4.35879 0.77924,-0.52461 1.16423,-0.67312 2.84332,-1.0967 3.00725,-0.75866 5.35973,-1.05046 7.48074,-0.92791 2.40026,0.13867 3.48832,-0.8803 2.46647,-2.30988 -0.57097,-0.79881 -1.53567,-1.56476 -2.63299,-2.09063 -0.98134,-0.47054 -2.60336,-0.97353 -3.23172,-1.00268 -0.43733,-0.0203 -0.79167,-0.19732 -0.79784,-0.39836 -0.007,-0.24982 0.72051,-0.65056 2.12632,-1.1706 2.2883,-0.84645 4.24806,-1.18946 6.14939,-1.07636 0.98815,0.0588 2.38171,0.30241 2.66472,0.4658 0.1294,0.0747 0.15575,-0.0391 0.1211,-0.52335 -0.0859,-1.20015 0.23048,-2.25851 0.77649,-2.59765 0.41569,-0.25818 7.03233,-0.54233 9.40809,-0.40398 2.99916,0.17464 5.75069,1.44734 5.80425,2.68487 0.009,0.20961 -0.27464,0.85479 -0.88866,2.02057 -0.49615,0.94199 -1.03049,1.99588 -1.18748,2.3421 l -0.28546,0.62953 1.1384,-0.48602 c 1.97619,-0.84374 5.7387,-1.71804 7.36318,-1.71107 0.18265,9.2e-4 0.20682,-0.0494 0.19244,-0.40078 -0.009,-0.22095 0.003,-0.81297 0.0268,-1.31561 l 0.043,-0.91385 2.14964,-3.72327 c 2.50072,-4.33138 2.3416,-3.81192 1.94314,-6.34394 -0.29306,-1.86247 -0.6488,-3.52925 -1.50821,-7.06695 l -0.61405,-2.52751 m 30.20177,-1.00328 -3.28898,1.42063 c -6.68079,2.88566 -12.96158,5.73207 -15.46351,7.00792 -1.5788,0.80509 -3.61023,2.15828 -4.29279,2.85945 -0.40622,0.41732 -0.81624,1.10434 -2.41644,4.04883 -2.89531,5.32769 -4.17611,7.76168 -4.10538,7.80178 0.0348,0.0201 0.48566,0.0569 1.00148,0.0824 1.84923,0.0916 3.98644,-0.20071 7.14289,-0.97688 1.82451,-0.44865 2.16518,-0.46233 3.25517,-0.13023 0.63574,0.19362 3.19532,1.3611 4.02493,1.83575 m -5.63382,36.81327 c 1.12988,0.95188 2.09197,2.59171 2.11755,3.60949 0.0161,0.63844 -0.25228,1.70563 -0.56512,2.24747 -0.29944,0.51865 -0.24723,0.61509 0.59714,1.101 0.76199,0.43993 1.88961,0.86573 2.733,1.03497 0.64587,0.1296 0.66094,0.13862 0.55071,0.32956 -0.42116,0.72945 -3.04266,1.6456 -4.37179,1.52786 -1.56645,-0.13886 -4.03788,-1.03664 -5.60839,-2.03731 -1.02669,-0.65398 -1.18581,-0.85023 -0.72546,-0.8937 0.69101,-0.0653 1.59326,-0.36652 2.02189,-0.67518 0.4399,-0.31671 0.46864,-0.36344 0.63363,-1.03002 0.22179,-0.89596 0.20148,-1.55004 -0.0631,-2.03482 -0.25024,-0.45848 -0.93007,-0.88159 -1.54297,-0.9605 -0.64719,-0.0832 -1.68123,0.17895 -2.0685,0.52446 -0.37574,0.33519 -0.91852,1.43571 -0.93316,1.89229 -0.0172,0.53405 -0.15227,0.30999 -0.59014,-0.97927 -0.49256,-1.44993 -1.02306,-3.85911 -1.09688,-4.98116 -0.0553,-0.84063 0.13485,-1.1052 0.87073,-1.21114 0.53237,-0.0766 0.77267,0.0707 1.00587,0.61663 0.22954,0.53687 0.76466,1.36511 0.95048,1.47102 0.0742,0.0429 0.34613,-0.0243 0.60363,-0.14851 0.74598,-0.35964 2.01771,-0.57891 2.91919,-0.50331 0.92933,0.078 1.78441,0.44507 2.56178,1.09992 z m -2.53188,-15.96066 c 0.0786,0.12981 0.18939,0.3731 0.24669,0.53981 0.0909,0.26466 0.19392,0.33624 0.81153,0.56458 0.47021,0.17437 0.80508,0.36349 0.99912,0.56629 l 0.29161,0.30514 -0.40643,0.66482 c -0.45337,0.74157 -1.74398,1.98386 -2.2715,2.18634 l -0.33424,0.12832 0.04,-0.73877 c 0.0975,-1.80341 0.34765,-4.53905 0.4113,-4.49849 0.0394,0.0228 0.1339,0.15118 0.21237,0.28123 z m 3.71742,-12.84574 0.76885,0.54206 c 1.75585,1.23897 2.91146,2.41722 3.97593,4.05369 0.81215,1.24856 0.96243,1.84533 0.96405,3.82758 9.1e-4,1.19695 -0.25579,3.40774 -0.43111,3.7114 -0.27284,0.47258 -0.61978,-0.11761 -0.74664,-1.27028 -0.11061,-1.0047 -0.66844,-2.07391 -1.53664,-2.94511 -0.71045,-0.713 -2.80552,-2.18845 -4.51103,-3.17704 l -0.91604,-0.52887 m -17.79549,30.8227 0.69236,-0.17169 c 1.61983,-0.40154 2.31927,-0.27245 5.4115,0.99852 3.72576,1.53141 5.31448,2.3105 7.65339,3.75322 2.43529,1.50206 3.03025,1.95839 4.93444,3.78372 0.7907,0.75806 1.9175,1.74393 2.50394,2.19091 1.26412,0.96352 1.22482,0.96311 2.36471,0.0229 3.63546,-2.99895 5.79125,-4.03991 8.04577,-3.88512 1.07904,0.0741 2.47124,0.55464 2.12677,0.73403 -0.0981,0.0511 -0.73417,0.3689 -1.41336,0.70609 -1.44101,0.71544 -3.73919,2.23126 -5.0831,3.35275 -1.70808,1.42537 -3.69222,3.84316 -5.33847,6.50524 -0.63767,1.03116 -1.18303,1.83108 -1.21185,1.7775 -0.0288,-0.0536 -0.0882,-0.63607 -0.13197,-1.29441 -0.15197,-2.28636 -1.07104,-5.75002 -1.80899,-6.81758 -0.4657,-0.67364 -1.3077,-1.17983 -5.1812,-3.11455 -3.31135,-1.65395 -4.32521,-2.2392 -5.76196,-3.32667 -1.48593,-1.12419 -2.89008,-1.93646 -3.67195,-2.12 -0.3356,-0.0802 -0.89918,-0.0921 -1.25238,-0.0262 -1.30311,0.24295 -3.52462,1.39774 -5.65801,2.94115 l -1.18377,0.85636 m -14.02446,24.29108 2.0153,1.16353 c 4.74985,2.74234 9.26256,4.73938 12.12472,5.37364 3.35611,0.74382 5.50293,0.20389 11.18054,-2.81208 2.43958,-1.29591 2.99585,-1.41741 6.74004,-1.47196 5.38675,-0.0784 6.69746,-0.25986 8.56522,-1.18541 1.70304,-0.84397 2.92938,-1.91333 4.92213,-4.29206 2.652,-3.16568 5.44639,-5.43063 8.55727,-6.93605 4.11992,-1.99372 4.98139,-2.44109 6.10977,-3.1727 1.61089,-1.04451 2.37346,-1.64524 3.24151,-2.55364 1.567,-1.6398 2.19257,-2.91047 2.31648,-4.70531 0.0647,-0.93714 8.2e-4,-1.34481 -0.47188,-3.01073 -0.84662,-2.98369 -1.77016,-5.1669 -2.93678,-6.94246 -1.32023,-2.00937 -0.98181,-3.46113 0.76719,-3.29097 0.97726,0.0951 2.12293,0.54755 3.12703,1.23491 0.89816,0.6146 2.14477,1.76781 2.48419,2.29741 0.23625,0.3686 0.56673,0.58695 0.74392,0.49177 0.22008,-0.11842 0.20314,-0.94926 -0.0494,-2.42674 -0.4111,-2.40494 -1.09393,-4.27365 -2.14254,-5.86371 -0.54501,-0.82635 -1.45276,-1.91142 -1.73576,-2.0748 -0.12939,-0.0747 -0.044,-0.15447 0.3927,-0.36656 1.0823,-0.52569 1.84068,-1.32885 1.86138,-1.97129 0.0157,-0.48908 -3.04649,-6.36134 -4.35418,-8.34963 -1.65083,-2.51003 -4.12879,-4.25657 -5.22731,-3.6842 -0.18609,0.0969 -0.60294,0.66524 -1.30552,1.7799 -0.56771,0.90067 -1.21324,1.89037 -1.43459,2.19943 l -0.40246,0.56198 -0.14829,-1.2289 c -0.2574,-2.13329 -1.38148,-5.82887 -2.19976,-7.23222 -0.0922,-0.1577 -0.0607,-0.2038 0.25088,-0.36706 0.19585,-0.10266 0.70255,-0.40908 1.12598,-0.68095 l 0.76986,-0.49425 2.14963,-3.72327 c 2.50073,-4.33138 2.13042,-3.93385 4.52245,-4.85478 1.75947,-0.67744 3.38083,-1.20274 6.87426,-2.22733 l 2.49591,-0.73197 m -14.23201,-26.65714 0.41418,3.55866 c 0.84134,7.22857 1.51669,14.09109 1.66273,16.89575 0.0922,1.76982 -0.064,4.20568 -0.32996,5.1474 -0.15831,0.56044 -0.54828,1.25904 -2.29818,4.11711 -3.16626,5.17125 -4.63376,7.49745 -4.70384,7.45624 -0.0348,-0.0201 -0.29215,-0.39211 -0.57215,-0.82608 -1.00392,-1.5557 -1.8194,-3.55272 -2.72544,-6.67437 -0.52372,-1.80439 -0.68222,-2.10627 -1.51482,-2.88417 -0.48554,-0.45374 -2.7764,-2.08668 -3.60225,-2.56782 M 157.9579,658.9949 c 1.12992,-0.95185 2.09201,-2.59174 2.11758,-3.60943 0.0161,-0.63847 -0.25228,-1.70563 -0.56512,-2.24753 -0.29948,-0.51867 -0.24721,-0.61505 0.59715,-1.10101 0.76259,-0.43891 1.88959,-0.86566 2.733,-1.0349 0.64589,-0.1296 0.66095,-0.13863 0.55056,-0.32987 -0.42114,-0.7295 -3.04267,-1.64565 -4.37178,-1.5279 -1.56651,0.1389 -4.03792,1.03658 -5.60842,2.03728 -1.02665,0.65419 -1.18579,0.85024 -0.72547,0.89373 0.69105,0.0653 1.59329,0.3665 2.02188,0.67517 0.4401,0.31636 0.46867,0.36346 0.63365,1.03004 0.2218,0.8959 0.20148,1.55005 -0.0631,2.03481 -0.25021,0.45841 -0.93004,0.88157 -1.54301,0.96031 -0.64722,0.0833 -1.68125,-0.17897 -2.06846,-0.52444 -0.37582,-0.33518 -0.91852,-1.43567 -0.93322,-1.8923 -0.0173,-0.534 -0.15223,-0.30997 -0.59016,0.97922 -0.49256,1.45006 -1.02304,3.85918 -1.09687,4.98115 -0.0553,0.8407 0.13487,1.10525 0.87068,1.21121 0.53242,0.0766 0.7727,-0.0707 1.00605,-0.61636 0.22952,-0.53686 0.76471,-1.36513 0.95044,-1.4711 0.0746,-0.0425 0.34614,0.0243 0.60363,0.14849 0.74589,0.35993 2.01776,0.57897 2.9192,0.50339 0.92931,-0.078 1.78438,-0.44511 2.56176,-1.09998 z m -2.53186,15.96073 c 0.0783,-0.13027 0.18944,-0.37308 0.24667,-0.53984 0.0909,-0.26466 0.19387,-0.33632 0.81144,-0.56482 0.47041,-0.17401 0.80489,-0.36383 0.99884,-0.5668 l 0.29156,-0.30514 -0.40637,-0.66483 c -0.45332,-0.74154 -1.74399,-1.98382 -2.2715,-2.18632 l -0.33412,-0.12853 0.04,0.7388 c 0.0975,1.8034 0.34762,4.53906 0.41126,4.49844 0.0383,-0.0243 0.13397,-0.15105 0.2123,-0.28124 z m 3.71744,12.84568 0.76864,-0.54233 c 1.75588,-1.23902 2.91149,-2.41721 3.97594,-4.05373 0.81215,-1.24855 0.96239,-1.84533 0.96407,-3.82757 9.1e-4,-1.19696 -0.25581,-3.4078 -0.43114,-3.71136 -0.27282,-0.47268 -0.61978,0.11755 -0.74665,1.27022 -0.11058,1.00471 -0.66844,2.07394 -1.53659,2.94511 -0.7105,0.71302 -2.80553,2.18845 -4.51108,3.17704 l -0.91512,0.53039 m -17.79548,-30.82268 0.69231,0.17172 c 1.61985,0.40157 2.31932,0.27251 5.41153,-0.9985 3.72578,-1.53143 5.31449,-2.31052 7.65339,-3.75322 2.43524,-1.50213 3.03026,-1.95843 4.93441,-3.78375 0.79078,-0.75807 1.91753,-1.74392 2.50399,-2.19091 1.26411,-0.96344 1.22481,-0.96312 2.36471,-0.0228 3.63545,2.99893 5.79127,4.03988 8.04573,3.88507 1.07907,-0.0741 2.47125,-0.55464 2.1268,-0.7341 -0.1003,-0.0474 -0.73407,-0.36892 -1.41334,-0.70601 -1.441,-0.71544 -3.73905,-2.23157 -5.08314,-3.35271 -1.70804,-1.42543 -3.69216,-3.84321 -5.33848,-6.50525 -0.63767,-1.0312 -1.18299,-1.83113 -1.2118,-1.77758 -0.0291,0.0539 -0.0882,0.63608 -0.13198,1.29443 -0.152,2.2864 -1.07107,5.75006 -1.80902,6.81759 -0.46567,0.67367 -1.30768,1.17978 -5.1812,3.11458 -3.31134,1.65397 -4.32518,2.23924 -5.76213,3.32634 -1.48591,1.12416 -2.89003,1.93647 -3.6701,2.12318 -0.3356,0.0803 -0.89917,0.0922 -1.25237,0.0263 -1.30312,-0.24299 -3.52464,-1.39777 -5.65803,-2.94116 l -1.18375,-0.85643 m -14.02443,-24.29106 2.01586,-1.16249 c 4.75126,-2.73998 9.26258,-4.7394 12.12472,-5.3737 3.35611,-0.74375 5.50295,-0.20383 11.18053,2.81215 2.43959,1.29588 2.99588,1.41736 6.74002,1.47192 5.38678,0.0784 6.69744,0.25984 8.56528,1.1854 1.70299,0.84401 2.92932,1.91331 4.92209,4.29208 2.652,3.16562 5.44639,5.4306 8.5573,6.93602 4.11993,1.99371 4.98133,2.44111 6.10974,3.17272 1.61091,1.04447 2.37346,1.64526 3.24148,2.55361 1.56704,1.63986 2.19258,2.91051 2.31654,4.70533 0.0646,0.93722 9.2e-4,1.34482 -0.4719,3.01077 -0.8466,2.98369 -1.77014,5.16692 -2.93677,6.94246 -1.32028,2.00938 -0.98181,3.46111 0.76715,3.29097 0.97727,-0.0951 2.12296,-0.54759 3.12702,-1.23497 0.89804,-0.61477 2.14479,-1.76777 2.4842,-2.29734 0.23625,-0.36863 0.56677,-0.58701 0.74408,-0.49161 0.2209,0.11698 0.20315,0.94931 -0.0494,2.4268 -0.41106,2.40491 -1.09392,4.27368 -2.14258,5.86371 -0.54494,0.82633 -1.45271,1.91139 -1.7357,2.07476 -0.12939,0.0748 -0.044,0.15446 0.39267,0.36657 1.08232,0.52566 1.84069,1.3288 1.86137,1.97127 0.0157,0.48912 -3.04648,6.36131 -4.35419,8.34966 -1.65077,2.51 -4.12879,4.25657 -5.22726,3.68422 -0.18614,-0.0969 -0.60293,-0.66526 -1.30553,-1.77997 -0.56771,-0.90057 -1.21329,-1.89031 -1.43461,-2.19943 l -0.40244,-0.56197 -0.14832,1.22895 c -0.25742,2.13329 -1.38148,5.82891 -2.19974,7.23226 -0.092,0.15783 -0.0607,0.20368 0.2509,0.36702 0.1959,0.10255 0.70401,0.40647 1.12603,0.68073 l 0.76994,0.49413 2.14963,3.72333 c 2.50074,4.33133 2.13048,3.9338 4.5225,4.85476 1.75943,0.67742 3.3808,1.20274 6.87421,2.22731 l 2.49594,0.73198 m -14.23203,26.65717 0.41418,-3.55864 c 0.84136,-7.22861 1.51668,-14.09111 1.66274,-16.89579 0.0922,-1.76988 -0.064,-4.20569 -0.32996,-5.14747 -0.1583,-0.56034 -0.54824,-1.25895 -2.29817,-4.11708 -3.16631,-5.17124 -4.63378,-7.49739 -4.70386,-7.45617 -0.0346,0.0202 -0.29214,0.39211 -0.57213,0.82605 -1.00391,1.5557 -1.81938,3.55277 -2.72541,6.6744 -0.52372,1.80442 -0.68226,2.10627 -1.51484,2.88421 -0.48554,0.45365 -2.77639,2.08663 -3.60226,2.56775 m -29.06411,-23.28541 c -1.38931,0.50265 -3.29049,0.51588 -4.18467,0.0292 -0.56115,-0.30498 -1.35097,-1.07129 -1.66386,-1.61312 -0.29943,-0.51874 -0.40901,-0.52164 -1.25205,-0.0335 -0.76138,0.44099 -1.69453,1.20361 -2.26278,1.84941 -0.43517,0.49454 -0.45053,0.50309 -0.56097,0.31193 -0.42115,-0.72951 0.0962,-3.45788 0.86274,-4.55006 0.90348,-1.28722 2.91668,-2.97867 4.56856,-3.83845 1.07978,-0.56197 1.32918,-0.60173 1.13667,-0.18134 -0.28898,0.63107 -0.47921,1.5631 -0.42625,2.08858 0.0544,0.53928 0.0805,0.5876 0.57523,1.06375 0.66503,0.64001 1.24165,0.94949 1.79373,0.96278 0.52218,0.0125 1.2285,-0.36465 1.60321,-0.8561 0.39566,-0.51895 0.68565,-1.54557 0.58008,-2.0536 -0.10243,-0.49304 -0.78415,-1.51327 -1.17223,-1.75431 -0.45378,-0.28205 -0.19229,-0.28686 1.14318,-0.0215 1.50197,0.29848 3.85362,1.04361 4.86223,1.54066 0.75594,0.37205 0.88973,0.66946 0.61352,1.35964 -0.19989,0.4994 -0.44757,0.63389 -1.03679,0.56306 -0.57974,-0.0696 -1.56456,-0.0203 -1.74924,0.0877 -0.0738,0.043 -0.15197,0.31186 -0.17317,0.59695 -0.0615,0.82595 -0.50747,2.03694 -1.02368,2.7798 -0.53219,0.76583 -1.27769,1.32279 -2.23346,1.66854 z m 15.08829,5.78771 c -0.15204,0.003 -0.41785,-0.0225 -0.59084,-0.0562 -0.27492,-0.0532 -0.38818,-2.5e-4 -0.89479,0.42032 -0.38595,0.32042 -0.71757,0.51516 -0.99032,0.58165 l -0.41008,0.0999 -0.37254,-0.68434 c -0.41556,-0.76332 -0.84603,-2.50228 -0.75766,-3.06037 l 0.0559,-0.35355 0.61972,0.40423 c 1.51301,0.98615 3.75711,2.57055 3.69014,2.60535 -0.0404,0.021 -0.19783,0.0405 -0.34973,0.0432 z m 9.26599,9.64229 -0.85402,0.39446 c -1.95093,0.90118 -3.54913,1.31287 -5.4986,1.41643 -1.48739,0.0791 -2.0793,-0.0892 -3.79679,-1.07888 -1.03663,-0.59849 -2.82331,-1.92546 -2.99859,-2.2291 -0.27287,-0.47259 0.41169,-0.47791 1.47336,-0.0114 0.92544,0.40659 2.1303,0.45807 3.3189,0.14182 0.97269,-0.25882 3.29799,-1.33542 5.00688,-2.31819 l 0.91693,-0.52733 m -17.79545,-30.82268 -0.19756,0.68545 c -0.46212,1.60358 -0.92361,2.14479 -3.57045,4.18726 -3.18912,2.46092 -4.65817,3.44716 -7.07708,4.75142 -2.5185,1.3579 -3.21116,1.64511 -5.74401,2.3814 -1.05182,0.30581 -2.46905,0.78874 -3.14938,1.07314 -1.46643,0.61295 -1.44645,0.5791 -1.20204,2.03648 0.77941,4.64788 0.60302,7.03535 -0.6583,8.91031 -0.60376,0.8975 -1.71599,1.86292 -1.69911,1.47486 0.005,-0.11056 0.0477,-0.82022 0.0952,-1.57697 0.10093,-1.60566 -0.0627,-4.35391 -0.36199,-6.07853 -0.3804,-2.19186 -1.4822,-5.11907 -2.96449,-7.87586 -0.57417,-1.0679 -0.99422,-1.9401 -0.93343,-1.93825 0.061,0.002 0.59517,0.24124 1.18698,0.53289 2.056,1.01162 5.51516,1.9475 6.80869,1.84214 0.81622,-0.0664 1.67558,-0.54255 5.28786,-2.92973 3.08805,-2.04073 4.10184,-2.62614 5.76178,-3.32695 1.71656,-0.72481 3.12207,-1.53464 3.67379,-2.11683 0.2374,-0.25051 0.52939,-0.73262 0.64897,-1.0714 0.44115,-1.25007 0.55185,-3.75136 0.28188,-6.37056 l -0.14974,-1.45339 m -14.02445,-24.29107 -2.0147,1.16452 c -4.74849,2.74475 -8.73571,5.65195 -10.71609,7.81345 -2.3222,2.53462 -2.928,4.66382 -3.1549,11.08871 -0.0975,2.76072 -0.27046,3.30323 -2.09532,6.57303 -2.62544,4.70425 -3.1237,5.93011 -3.255991,8.01046 -0.12061,1.8968 0.192308,3.49346 1.255961,6.40868 1.41555,3.87949 1.97985,7.43205 1.72815,10.87888 -0.33336,4.56482 -0.37666,5.53449 -0.30724,6.87753 0.0991,1.91728 0.23811,2.87809 0.59073,4.08404 0.63666,2.17696 1.42427,3.35404 2.91671,4.35882 0.77916,0.52478 1.16465,0.67241 2.84335,1.09667 3.00725,0.75867 5.35975,1.05045 7.48073,0.92792 2.40026,-0.13872 3.48831,0.8803 2.46645,2.30984 -0.57101,0.79883 -1.53568,1.5648 -2.63298,2.09059 -0.98146,0.47034 -2.60337,0.97359 -3.2317,1.00271 -0.43737,0.0203 -0.79172,0.19739 -0.79772,0.39859 -0.007,0.24981 0.72052,0.65061 2.12631,1.17062 2.28829,0.84651 4.24806,1.18955 6.14939,1.07635 0.98813,-0.0588 2.38171,-0.30236 2.6647,-0.46575 0.12939,-0.0748 0.15568,0.0392 0.12108,0.52334 -0.0858,1.2001 0.2305,2.25846 0.77649,2.59764 0.4158,0.25801 7.03235,0.54229 9.40811,0.40398 2.99915,-0.1746 5.75068,-1.44736 5.8043,-2.68486 0.009,-0.20965 -0.27465,-0.85476 -0.88871,-2.02061 -0.49614,-0.94189 -1.0305,-1.99587 -1.18747,-2.34213 l -0.28544,-0.62952 1.13839,0.48605 c 1.97617,0.84373 5.73868,1.71811 7.3632,1.71107 0.18272,-6.8e-4 0.20662,0.0496 0.19244,0.40084 -0.009,0.22096 0.003,0.81294 0.0267,1.31553 l 0.043,0.91388 2.14968,3.72325 c 2.5007,4.33141 2.3416,3.81199 1.94316,6.34398 -0.29311,1.86244 -0.64884,3.52924 -1.50827,7.06692 l -0.61402,2.52753 m 30.20178,1.00326 -3.289,-1.42057 c -6.68078,-2.8857 -12.96159,-5.73205 -15.46348,-7.00796 -1.57879,-0.80513 -3.61022,-2.15824 -4.29283,-2.85949 -0.40621,-0.41722 -0.81618,-1.10428 -2.41638,-4.04884 -2.89536,-5.32765 -4.1761,-7.76163 -4.10536,-7.80174 0.035,-0.0199 0.48565,-0.0569 1.00143,-0.0825 1.84922,-0.0916 3.98647,0.20069 7.14291,0.97689 1.82449,0.44869 2.16518,0.46227 3.25516,0.13026 0.63572,-0.19373 3.19533,-1.36114 4.02492,-1.83579 m 119.10436,61.83658 c 0.25936,1.45449 1.19849,3.10757 2.06708,3.63861 0.54469,0.33348 1.60325,0.63433 2.22892,0.63438 0.59898,-6e-5 0.65628,0.0934 0.65499,1.06758 -9.2e-4,0.87988 -0.19509,2.06933 -0.47024,2.88435 -0.21071,0.62412 -0.21042,0.64171 0.0103,0.64177 0.84235,-2e-5 2.94653,-1.81224 3.5091,-3.02219 0.66302,-1.42605 1.12127,-4.01524 1.03987,-5.87563 -0.0532,-1.21618 -0.14344,-1.45206 -0.41124,-1.07515 -0.40203,0.56582 -1.11407,1.19658 -1.59564,1.41345 -0.49422,0.22255 -0.54912,0.2241 -1.20886,0.0337 -0.88678,-0.25593 -1.4431,-0.60056 -1.73064,-1.07202 -0.27193,-0.44599 -0.29847,-1.24625 -0.0602,-1.81648 0.25159,-0.60212 0.99567,-1.36657 1.48842,-1.52917 0.47821,-0.15781 1.7026,-0.0775 2.10539,0.13803 0.47117,0.25197 0.34458,0.0231 -0.55296,-1.00077 -1.00948,-1.1515 -2.83062,-2.81552 -3.76536,-3.44048 -0.70018,-0.46864 -1.02465,-0.43579 -1.48425,0.1485 -0.33256,0.4228 -0.32519,0.70454 0.0308,1.1794 0.35013,0.46729 0.79986,1.3448 0.79871,1.55872 -2.2e-4,0.0854 -0.19409,0.28753 -0.43038,0.44843 -0.68454,0.46626 -1.51031,1.45796 -1.89553,2.27644 -0.39714,0.84381 -0.50674,1.76792 -0.32829,2.76852 z M 270.1396,747.47122 c 0.0734,0.13316 0.22836,0.35064 0.34413,0.48355 0.18351,0.21149 0.19431,0.33605 0.0834,0.98508 -0.0845,0.49445 -0.0874,0.87899 -0.008,1.14846 l 0.11849,0.40511 0.77893,-0.0196 c 0.86883,-0.0217 2.59006,-0.51845 3.02918,-0.87403 l 0.27822,-0.22525 -0.65994,-0.33458 c -1.61054,-0.81722 -4.10473,-1.96846 -4.10139,-1.89307 0.002,0.0455 0.0638,0.19158 0.13741,0.32452 z m -12.98347,-3.20345 0.0854,0.93684 c 0.19504,2.14015 0.63759,3.73007 1.52264,5.47014 0.67524,1.32763 1.11689,1.75614 2.83273,2.74867 1.03664,0.59851 3.07915,1.48233 3.42975,1.48231 0.54571,1e-5 0.20804,-0.59549 -0.72676,-1.2817 -0.81484,-0.59816 -1.46184,-1.61585 -1.78227,-2.80333 -0.2622,-0.97179 -0.49249,-3.52386 -0.49583,-5.49518 l -0.002,-1.05776 m 35.59096,-10e-6 -0.49485,0.51381 c -1.15768,1.20199 -1.39563,1.87225 -1.84104,5.18572 -0.53666,3.99233 -0.6563,5.75776 -0.57632,8.50465 0.0833,2.86004 0.18088,3.6035 0.80961,6.16523 0.26113,1.06373 0.55151,2.53256 0.64537,3.26393 0.20238,1.57645 0.22171,1.54222 -1.16262,2.05924 -4.41489,1.64895 -6.39429,2.99545 -7.38744,5.02536 -0.47532,0.97154 -0.75531,2.41746 -0.42768,2.20882 0.0933,-0.0595 0.68651,-0.4514 1.3181,-0.87095 1.34009,-0.89024 3.80197,-2.12262 5.44515,-2.72577 2.08841,-0.7665 5.17435,-1.27592 8.30295,-1.37061 1.21185,-0.0367 2.17728,-0.10903 2.14529,-0.16075 -0.0317,-0.0521 -0.50652,-0.39482 -1.055,-0.76151 -1.90408,-1.27473 -4.44416,-3.80252 -4.99967,-4.97543 -0.3506,-0.74007 -0.36793,-1.72236 -0.10672,-6.04429 0.22331,-3.69469 0.22338,-4.86536 3.4e-4,-6.65332 -0.23058,-1.849 -0.23201,-3.47112 -0.004,-4.24001 0.0982,-0.33084 0.36977,-0.82477 0.60338,-1.09773 0.86202,-1.00709 2.97286,-2.35359 5.37613,-3.42939 l 1.33354,-0.59701 m 28.04891,-10e-6 -9.2e-4,2.32704 c -0.003,5.48469 -0.52687,10.39134 -1.4086,13.18713 -1.03392,3.2784 -2.57497,4.86764 -8.02565,8.27658 -2.34209,1.46483 -2.72544,1.88585 -4.64474,5.10113 -2.76132,4.6259 -3.57377,5.67025 -5.30927,6.82499 -1.58237,1.05286 -3.12159,1.58019 -6.17806,2.11665 -4.06751,0.71384 -7.42627,2.00141 -10.28546,3.94281 -3.78657,2.57111 -4.60469,3.09344 -5.8025,3.70485 -1.70999,0.87278 -2.61154,1.23283 -3.83224,1.53044 -2.20365,0.5371 -3.61683,0.44356 -5.23321,-0.34655 -0.84405,-0.41237 -1.16464,-0.67239 -2.37141,-1.91407 -2.16067,-2.22502 -3.5896,-4.11646 -4.54397,-6.01454 -1.08001,-2.14806 -2.50653,-2.58082 -3.23362,-0.98109 -0.40631,0.89392 -0.5873,2.11234 -0.49401,3.32552 0.0834,1.08514 0.45853,2.74138 0.74748,3.30009 0.20109,0.38893 0.22491,0.78435 0.0537,0.89013 -0.2126,0.13141 -0.9237,-0.29867 -2.07695,-1.25612 -1.87724,-1.55847 -3.1542,-3.08415 -4.00684,-4.78735 -0.44317,-0.88513 -0.929,-2.21381 -0.929,-2.54057 5e-5,-0.14943 -0.11179,-0.11522 -0.51376,0.1568 -0.99639,0.6744 -2.07113,0.92962 -2.63786,0.62637 -0.43135,-0.23109 -3.98581,-5.81906 -5.05391,-7.94567 -1.34837,-2.68465 -1.6219,-5.70393 -0.57701,-6.36911 0.17704,-0.11268 0.87759,-0.18951 2.19426,-0.24066 1.06378,-0.0413 2.24374,-0.1055 2.62209,-0.14269 l 0.68789,-0.0675 -0.99012,-0.74284 c -1.71878,-1.28956 -4.35726,-4.11079 -5.16343,-5.52119 -0.0907,-0.15865 -0.1463,-0.15413 -0.44335,0.0337 -0.18684,0.11831 -0.70552,0.40389 -1.15264,0.63464 l -0.81297,0.41963 -4.29928,-5e-5 c -5.00147,4e-5 -4.47207,-0.12188 -6.46563,1.48917 -1.46637,1.18506 -2.732,2.32652 -5.366,4.83965 l -1.8819,1.79552 m -15.96973,-25.65387 2.87474,2.13807 c 5.8395,4.34288 11.44495,8.35896 13.80081,9.88779 1.48667,0.96471 3.67422,2.04742 4.62282,2.28795 0.56443,0.14317 1.36443,0.1547 4.71458,0.0682 6.06157,-0.15636 8.80983,-0.2642 8.80919,-0.34552 -3.6e-4,-0.0403 -0.19351,-0.44906 -0.42932,-0.90849 -0.84532,-1.64726 -2.16704,-3.35204 -4.41747,-5.6975 -1.30082,-1.3557 -1.48292,-1.64395 -1.74037,-2.75391 -0.1501,-0.64743 -0.41889,-3.4478 -0.42264,-4.40358 m 34.69781,-13.52762 c 0.25936,-1.45445 1.19851,-3.1076 2.06708,-3.63858 0.54489,-0.33315 1.60324,-0.63434 2.22897,-0.63436 0.59892,10e-6 0.65625,-0.0934 0.65493,-1.06765 -9.2e-4,-0.87988 -0.19511,-2.06926 -0.47026,-2.8843 -0.21068,-0.62414 -0.2104,-0.64171 0.0104,-0.64173 0.84235,-3e-5 2.94654,1.81221 3.50907,3.0222 0.663,1.42601 1.12129,4.01515 1.03992,5.8756 -0.0532,1.21619 -0.14343,1.45205 -0.41126,1.07513 -0.40201,-0.56583 -1.11406,-1.19658 -1.59565,-1.41341 -0.49404,-0.22296 -0.54912,-0.22415 -1.20888,-0.0337 -0.88675,0.25588 -1.44312,0.60055 -1.73064,1.07205 -0.2719,0.4459 -0.29845,1.24624 -0.0601,1.81644 0.25154,0.60214 0.99563,1.36654 1.48842,1.52914 0.47818,0.15786 1.70259,0.0776 2.10538,-0.13798 0.47105,-0.25208 0.34456,-0.0231 -0.55295,1.00071 -1.00951,1.1516 -2.83061,2.81557 -3.76537,3.44049 -0.7004,0.46828 -1.02461,0.43582 -1.48427,-0.14842 -0.33252,-0.42281 -0.3252,-0.7045 0.0308,-1.17945 0.35017,-0.4672 0.79987,-1.34482 0.79878,-1.55866 -5.1e-4,-0.0857 -0.19414,-0.2876 -0.43041,-0.44851 -0.68467,-0.466 -1.51028,-1.45794 -1.89556,-2.2764 -0.39714,-0.84378 -0.50671,-1.76788 -0.32826,-2.76855 z m -12.55646,10.17302 c 0.0737,-0.13301 0.22838,-0.35059 0.34418,-0.48352 0.18373,-0.2111 0.19432,-0.33607 0.0835,-0.98515 -0.0845,-0.49439 -0.0874,-0.87897 -0.008,-1.14842 l 0.11848,-0.40507 0.77894,0.0195 c 0.86885,0.0218 2.59003,0.51843 3.02916,0.87401 l 0.27836,0.2251 -0.65979,0.33477 c -1.61057,0.81725 -4.10477,1.96849 -4.1014,1.89307 0.002,-0.0453 0.0638,-0.19155 0.13741,-0.32449 z m -12.98342,3.20345 0.0854,-0.93683 c 0.19508,-2.14016 0.63762,-3.73002 1.52266,-5.47013 0.67521,-1.32761 1.11691,-1.75611 2.83275,-2.74868 1.03612,-0.59933 3.07914,-1.48237 3.42969,-1.48231 0.54578,-7e-5 0.20809,0.59551 -0.72671,1.28173 -0.81482,0.59811 -1.46187,1.61585 -1.78225,2.80329 -0.26224,0.97182 -0.49249,3.52387 -0.49585,5.49522 l -0.002,1.05771 m 35.59097,-10e-6 -0.49487,-0.5137 c -1.1577,-1.20203 -1.39568,-1.87232 -1.84105,-5.18576 -0.53663,-3.99233 -0.65626,-5.75774 -0.5763,-8.50465 0.0833,-2.86004 0.18091,-3.60349 0.80961,-6.16519 0.26112,-1.06387 0.55152,-2.53259 0.6454,-3.26398 0.20231,-1.57647 0.22167,-1.54228 -1.16264,-2.05928 -4.41488,-1.64894 -6.39427,-2.99544 -7.38743,-5.02528 -0.47533,-0.97156 -0.7553,-2.41748 -0.42766,-2.2089 0.0911,0.0632 0.68653,0.45126 1.3181,0.87098 1.34008,0.89022 3.80213,2.12233 5.4451,2.72576 2.08847,0.7665 5.17441,1.27592 8.303,1.37057 1.21184,0.0367 2.17725,0.10901 2.14523,0.16082 -0.0322,0.0521 -0.5067,0.39435 -1.05497,0.76142 -1.90408,1.27484 -4.44417,3.80261 -4.99968,4.97546 -0.35058,0.74012 -0.36789,1.72237 -0.10672,6.04435 0.2233,3.69469 0.22336,4.86534 3.8e-4,6.65331 -0.2306,1.84892 -0.23202,3.47108 -0.004,4.23999 0.0982,0.33081 0.36973,0.82479 0.60339,1.09774 0.862,1.00704 2.97281,2.35354 5.37613,3.42942 l 1.33356,0.59694 m 28.0489,-10e-6 -9.2e-4,-2.32703 c -0.003,-5.4847 -0.52684,-10.39132 -1.40859,-13.18717 -1.03395,-3.27834 -2.57496,-4.86761 -8.02567,-8.27654 -2.34205,-1.4648 -2.7254,-1.88583 -4.64472,-5.10107 -2.76133,-4.62586 -3.57376,-5.67025 -5.30923,-6.82505 -1.58243,-1.05284 -3.12164,-1.58021 -6.1781,-2.11661 -4.06751,-0.7139 -7.42624,-2.00142 -10.28542,-3.94284 -3.7866,-2.57102 -4.60472,-3.09339 -5.80252,-3.70483 -1.70999,-0.87285 -2.61157,-1.23284 -3.83224,-1.5304 -2.20368,-0.53717 -3.61685,-0.44357 -5.2332,0.34648 -0.84399,0.4126 -1.16506,0.6717 -2.37145,1.91407 -2.16065,2.22501 -3.58961,4.11644 -4.54396,6.01455 -1.08,2.14799 -2.50651,2.58082 -3.23364,0.98111 -0.40626,-0.8939 -0.58726,-2.11233 -0.494,-3.32558 0.0834,-1.0851 0.45854,-2.74132 0.74746,-3.30003 0.20112,-0.38893 0.22498,-0.78435 0.0537,-0.8902 -0.21176,-0.13282 -0.92371,0.29871 -2.07697,1.25618 -1.87718,1.55845 -3.15416,3.0842 -4.00684,4.78738 -0.44314,0.88509 -0.92895,2.21378 -0.92895,2.54054 -3e-5,0.14943 -0.11175,0.11533 -0.51377,-0.15678 -0.99641,-0.67449 -2.07113,-0.92968 -2.63786,-0.62634 -0.43147,0.2309 -3.98582,5.81897 -5.05394,7.94565 -1.34832,2.68462 -1.6219,5.70392 -0.577,6.36905 0.17701,0.11276 0.87761,0.18952 2.19424,0.24072 1.06381,0.0413 2.24374,0.10549 2.62209,0.14261 l 0.68791,0.0675 -0.99014,0.74292 c -1.71877,1.28957 -4.35724,4.11084 -5.16344,5.52115 -0.0908,0.15861 -0.14605,0.15443 -0.44332,-0.0337 -0.18675,-0.11838 -0.704,-0.40646 -1.15254,-0.63481 l -0.81289,-0.41972 -4.29931,2e-5 c -5.00142,-4e-5 -4.47201,0.12186 -6.46561,-1.48921 -1.46636,-1.18499 -2.73199,-2.32649 -5.36599,-4.83958 l -1.8819,-1.79556 m -15.96975,25.65388 2.87476,-2.13802 c 5.83949,-4.34293 11.44492,-8.35903 13.80081,-9.88787 1.48667,-0.96476 3.67423,-2.04744 4.62283,-2.28797 0.56442,-0.14308 1.36441,-0.15469 4.71453,-0.0682 6.06163,0.1564 8.80987,0.26419 8.80921,0.3455 -1.9e-4,0.04 -0.19351,0.44904 -0.42924,0.90854 -0.84532,1.64726 -2.16708,3.35202 -4.41748,5.69747 -1.30082,1.35577 -1.48296,1.64399 -1.74039,2.75401 -0.1501,0.6473 -0.41888,3.44773 -0.42261,4.40351 m 0.80648,-71.80595 c 1.3893,0.50257 3.29049,0.51585 4.18465,0.0292 0.56098,-0.30538 1.35097,-1.0713 1.66385,-1.61322 0.29945,-0.51866 0.40902,-0.52157 1.25207,-0.0334 0.76198,0.43992 1.69455,1.20358 2.26281,1.84935 0.43512,0.49462 0.45048,0.50316 0.56076,0.31215 0.42115,-0.72945 -0.0962,-3.4579 -0.86274,-4.55002 -0.90342,-1.28723 -2.91663,-2.97865 -4.5685,-3.83842 -1.07972,-0.56216 -1.32922,-0.60183 -1.1367,-0.18142 0.28897,0.63112 0.47922,1.56307 0.42623,2.08861 -0.0544,0.53931 -0.0805,0.58764 -0.5752,1.06374 -0.66503,0.64006 -1.24164,0.9495 -1.79376,0.96279 -0.52217,0.0125 -1.22851,-0.36467 -1.6033,-0.856 -0.39563,-0.51888 -0.68563,-1.54546 -0.58008,-2.05353 0.10243,-0.49307 0.7841,-1.5133 1.17223,-1.75436 0.45388,-0.28193 0.19228,-0.28679 -1.14316,-0.0215 -1.50199,0.29848 -3.85365,1.04364 -4.86222,1.54066 -0.75575,0.37247 -0.88977,0.66947 -0.61353,1.35963 0.19985,0.49936 0.4475,0.6339 1.03696,0.56281 0.57965,-0.0696 1.5645,-0.0203 1.74917,0.0877 0.074,0.0432 0.15199,0.31194 0.17321,0.59702 0.0615,0.82593 0.50744,2.03691 1.0237,2.77975 0.53218,0.76585 1.27766,1.3228 2.23345,1.6686 z m -15.08826,5.78766 c 0.15171,0.003 0.41776,-0.0225 0.59083,-0.0562 0.27468,-0.0536 0.38815,-1.9e-4 0.8947,0.42052 0.38565,0.32081 0.71733,0.51548 0.98999,0.58212 l 0.4101,0.0999 0.3725,-0.6843 c 0.41553,-0.76342 0.84607,-2.50227 0.75768,-3.06035 l -0.056,-0.35361 -0.61983,0.40396 c -1.51301,0.9862 -3.75709,2.5706 -3.69014,2.60546 0.0394,0.0228 0.19788,0.0404 0.34979,0.0432 z m -9.26603,9.64224 0.85386,0.39482 c 1.95091,0.90113 3.54906,1.31287 5.49857,1.41641 1.48736,0.0791 2.07931,-0.0892 3.7968,-1.07889 1.03709,-0.5976 2.8233,-1.9254 2.99861,-2.22905 0.27285,-0.47258 -0.41173,-0.47794 -1.47341,-0.0115 -0.92545,0.40664 -2.13028,0.45808 -3.31892,0.14187 -0.97264,-0.25885 -3.29795,-1.3355 -5.00685,-2.31823 l -0.91604,-0.52887 m 17.7955,-30.8227 0.19753,0.68538 c 0.46213,1.60365 0.92365,2.14484 3.57045,4.1873 3.18913,2.46091 4.65819,3.44724 7.07708,4.75142 2.51846,1.35799 3.21115,1.64509 5.74402,2.38149 1.05185,0.30575 2.46904,0.78863 3.14935,1.07302 1.4665,0.61301 1.44649,0.57918 1.20213,2.0365 -0.77943,4.64786 -0.60303,7.03531 0.65827,8.91039 0.60374,0.8974 1.71596,1.86284 1.69908,1.47481 -0.005,-0.11052 -0.0476,-0.82024 -0.0952,-1.57704 -0.10091,-1.60567 0.0627,-4.35387 0.36202,-6.07847 0.38036,-2.19192 1.48217,-5.11913 2.96446,-7.87586 0.57418,-1.06783 0.99425,-1.94009 0.93343,-1.93825 -0.0608,0.002 -0.59494,0.24166 -1.18697,0.53292 -2.05603,1.01158 -5.51518,1.94746 -6.80869,1.84216 -0.81624,-0.0665 -1.67561,-0.5426 -5.28788,-2.92978 -3.08803,-2.04073 -4.1018,-2.62614 -5.76178,-3.32699 -1.71654,-0.72476 -3.12205,-1.53464 -3.67194,-2.12 -0.23739,-0.25042 -0.5294,-0.73258 -0.64897,-1.07139 -0.4411,-1.25008 -0.55178,-3.75136 -0.2819,-6.37056 l 0.1498,-1.45343 m 14.02442,-24.291 2.01529,1.16353 c 4.74985,2.74232 8.73571,5.65192 10.71613,7.81342 2.32221,2.53457 2.92797,4.66381 3.15488,11.08875 0.0975,2.76061 0.27047,3.30312 2.0953,6.57294 2.62544,4.70435 3.12369,5.93011 3.25598,8.01049 0.12067,1.89678 -0.19226,3.4935 -1.25593,6.40864 -1.41555,3.87954 -1.97986,7.43202 -1.72815,10.87884 0.33335,4.56482 0.37665,5.53456 0.30724,6.87756 -0.0991,1.91733 -0.23809,2.8781 -0.59076,4.08405 -0.63665,2.17705 -1.42426,3.35407 -2.91672,4.35886 -0.77924,0.52462 -1.1642,0.67304 -2.84332,1.09671 -3.00726,0.75866 -5.35974,1.05045 -7.48073,0.9279 -2.40023,-0.13874 -3.48829,0.88023 -2.46643,2.30981 0.57097,0.79881 1.53566,1.56475 2.63298,2.09063 0.98135,0.47053 2.60336,0.97353 3.23172,1.00268 0.43734,0.0203 0.79167,0.19733 0.79784,0.39836 0.007,0.24982 -0.72055,0.65064 -2.12631,1.1706 -2.28835,0.84652 -4.24811,1.18953 -6.1494,1.07636 -0.98814,-0.0588 -2.38171,-0.30242 -2.66471,-0.46581 -0.1294,-0.0747 -0.15575,0.0392 -0.1211,0.52336 0.0859,1.20015 -0.23048,2.25851 -0.7765,2.59765 -0.41568,0.25818 -7.03233,0.54232 -9.40808,0.40399 -2.99916,-0.17465 -5.75069,-1.44736 -5.80431,-2.68481 -0.009,-0.20968 0.27465,-0.85478 0.88872,-2.02064 0.49611,-0.94191 1.03049,-1.99588 1.18747,-2.3421 l 0.28546,-0.62953 -1.13839,0.48602 c -1.97619,0.84374 -5.73869,1.71804 -7.36316,1.71107 -0.18267,-9.2e-4 -0.20684,0.0494 -0.1925,0.40087 0.009,0.22094 -0.003,0.8129 -0.0267,1.31553 l -0.0431,0.91384 -2.14963,3.72327 c -2.50072,4.33138 -2.34165,3.812 -1.94318,6.34402 0.2931,1.86239 0.64885,3.52918 1.50824,7.06688 l 0.61406,2.5275 m -30.20176,1.0033 3.28893,-1.42057 c 6.68084,-2.88574 12.96162,-5.73214 15.4635,-7.00792 1.57884,-0.80517 3.61023,-2.15827 4.29285,-2.85952 0.40616,-0.41726 0.81618,-1.10427 2.41644,-4.04884 2.89531,-5.32768 4.1761,-7.76167 4.10533,-7.80169 -0.035,-0.0198 -0.48566,-0.057 -1.00143,-0.0825 -1.84924,-0.0916 -3.98644,0.20072 -7.14289,0.97689 -1.82456,0.44872 -2.16519,0.46231 -3.25517,0.13021 -0.63573,-0.19361 -3.19532,-1.36109 -4.02493,-1.83574 m 5.63364,-36.81294 c -1.1299,-0.95189 -2.09198,-2.59173 -2.1176,-3.60942 -0.016,-0.63852 0.25228,-1.70563 0.56516,-2.24756 0.29945,-0.51865 0.24719,-0.615 -0.59714,-1.101 -0.76199,-0.43992 -1.8896,-0.86572 -2.73299,-1.03496 -0.64591,-0.12953 -0.661,-0.13856 -0.55072,-0.32957 0.42115,-0.72945 3.04271,-1.64567 4.37179,-1.52785 1.5665,0.13878 4.03792,1.03655 5.60844,2.03722 1.0267,0.65399 1.18581,0.85024 0.72547,0.89371 -0.69107,0.0654 -1.59327,0.36652 -2.02191,0.67517 -0.43989,0.31672 -0.46868,0.36353 -0.63363,1.03002 -0.22179,0.89596 -0.20148,1.55004 0.0631,2.03483 0.25024,0.45847 0.93006,0.88158 1.54296,0.96049 0.64719,0.0832 1.68123,-0.17896 2.06846,-0.52439 0.37578,-0.33525 0.91851,-1.43571 0.9332,-1.89236 0.0172,-0.53405 0.15223,-0.30991 0.59015,0.97928 0.49251,1.45 1.02301,3.85918 1.09687,4.98115 0.0553,0.84073 -0.13489,1.10528 -0.87073,1.21114 -0.53237,0.0766 -0.77271,-0.0706 -1.00587,-0.61663 -0.22958,-0.53679 -0.7647,-1.36503 -0.95047,-1.47102 -0.0745,-0.0425 -0.34614,0.0243 -0.60365,0.14851 -0.74602,0.35971 -2.01774,0.579 -2.91918,0.50331 -0.92932,-0.078 -1.78441,-0.44508 -2.56177,-1.09991 z m 2.53188,15.96065 c -0.0786,-0.12982 -0.18944,-0.37303 -0.2467,-0.53981 -0.0909,-0.26466 -0.19391,-0.33624 -0.81152,-0.56458 -0.47066,-0.17358 -0.80509,-0.36349 -0.99913,-0.5663 l -0.29156,-0.30522 0.40638,-0.66474 c 0.45337,-0.74156 1.744,-1.98386 2.27151,-2.18634 l 0.33423,-0.12831 -0.0399,0.73877 c -0.0976,1.8034 -0.34766,4.53904 -0.41131,4.4985 -0.0394,-0.0228 -0.13391,-0.1512 -0.21232,-0.28132 z m -3.71742,12.84574 -0.76885,-0.54206 c -1.75586,-1.23898 -2.91152,-2.41715 -3.97594,-4.05369 -0.81215,-1.24856 -0.96244,-1.84533 -0.96404,-3.82758 -9.2e-4,-1.19695 0.25579,-3.40774 0.43111,-3.71139 0.27285,-0.47259 0.61977,0.11759 0.74664,1.27026 0.11057,1.00479 0.66843,2.07392 1.53659,2.9452 0.7105,0.71291 2.80556,2.18836 4.51107,3.17695 l 0.91604,0.52887 m 17.79549,-30.82269 -0.69232,0.17161 c -1.61986,0.40162 -2.31932,0.27252 -5.41154,-0.99844 -3.72575,-1.53142 -5.31448,-2.3105 -7.65339,-3.75322 -2.43528,-1.50206 -3.03024,-1.9584 -4.93443,-3.78373 -0.79071,-0.75805 -1.9175,-1.74393 -2.50394,-2.19091 -1.26413,-0.96352 -1.22483,-0.9631 -2.36471,-0.0229 -3.63547,2.99893 -5.79126,4.03989 -8.04578,3.8851 -1.07904,-0.0741 -2.47124,-0.55464 -2.12677,-0.73403 0.0981,-0.0511 0.73417,-0.36889 1.41335,-0.70608 1.44103,-0.71544 3.73921,-2.23126 5.08312,-3.35276 1.70808,-1.42536 3.69221,-3.84316 5.33846,-6.50523 0.63767,-1.03117 1.18304,-1.83108 1.21186,-1.7775 0.0288,0.0536 0.0882,0.63607 0.13196,1.2944 0.15196,2.28638 1.07105,5.75002 1.809,6.81759 0.46569,0.67364 1.3077,1.17983 5.18119,3.11454 3.31135,1.65396 4.3252,2.2392 5.76216,3.32636 1.48592,1.12419 2.89006,1.93645 3.67194,2.11999 0.33556,0.0803 0.89913,0.0922 1.25234,0.0263 1.30314,-0.24304 3.52466,-1.39782 5.65801,-2.94115 l 1.1838,-0.85646 m 14.02442,-24.29099 -2.0153,-1.16353 c -4.74984,-2.74233 -9.26256,-4.73938 -12.12468,-5.37372 -3.35611,-0.74383 -5.50297,-0.2038 -11.18058,2.81215 -2.43953,1.29584 -2.99582,1.41733 -6.73999,1.47189 -5.3868,0.0785 -6.69745,0.25987 -8.56527,1.18549 -1.70299,0.84388 -2.92932,1.91325 -4.92209,4.29199 -2.65199,3.16567 -5.44637,5.43063 -8.55727,6.93604 -4.11992,1.99371 -4.98138,2.44109 -6.10976,3.1727 -1.6109,1.04451 -2.37347,1.64524 -3.24151,2.55364 -1.56705,1.63988 -2.19258,2.91047 -2.31653,4.70539 -0.0647,0.93715 -7.8e-4,1.34474 0.47188,3.01073 0.84662,2.98369 1.77016,5.1669 2.93679,6.94246 1.32027,2.00929 0.98185,3.46105 -0.76716,3.29089 -0.97725,-0.0951 -2.12293,-0.54755 -3.12702,-1.23492 -0.89816,-0.61459 -2.14478,-1.76781 -2.48419,-2.29741 -0.23625,-0.36859 -0.56674,-0.58694 -0.74391,-0.49176 -0.2201,0.11843 -0.2032,0.94933 0.0494,2.42673 0.41106,2.40503 1.09389,4.27375 2.14254,5.86372 0.54501,0.82635 1.45276,1.91142 1.73576,2.07481 0.12939,0.0747 0.044,0.15446 -0.39269,0.36654 -1.08231,0.5257 -1.84068,1.32886 -1.86139,1.97129 -0.0157,0.4891 3.04651,6.36135 4.35418,8.34965 1.65084,2.51001 4.1288,4.25657 5.22727,3.68427 0.18612,-0.097 0.60293,-0.66525 1.30557,-1.77997 0.56767,-0.90061 1.21324,-1.89037 1.43458,-2.19944 l 0.40246,-0.56198 0.14828,1.22889 c 0.25742,2.13331 1.38149,5.82887 2.19977,7.23223 0.0922,0.1577 0.0607,0.2038 -0.25092,0.36714 -0.19585,0.10265 -0.7025,0.40902 -1.12594,0.68088 l -0.76986,0.49424 -2.14963,3.72327 c -2.50072,4.33138 -2.13046,3.93393 -4.5225,4.85485 -1.75942,0.67737 -3.38078,1.20267 -6.87421,2.22726 l -2.49591,0.73197 m 14.23201,26.65714 -0.41421,-3.55857 c -0.84131,-7.22865 -1.51664,-14.09117 -1.66273,-16.89576 -0.0921,-1.7699 0.064,-4.20568 0.33,-5.14747 0.15826,-0.56037 0.54823,-1.25897 2.29817,-4.11711 3.16626,-5.17126 4.63376,-7.49745 4.7038,-7.45617 0.0346,0.0205 0.29214,0.39211 0.57219,0.82599 1.00392,1.55571 1.81939,3.55272 2.72542,6.67437 0.52369,1.80448 0.68224,2.10626 1.51482,2.88418 0.48555,0.45374 2.77641,2.08667 3.60226,2.56781"
     inkscape:connector-curvature="0" />
</svg>
