<?xml version="1.0" encoding="UTF-8" standalone="no"?>
<!-- Created with Inkscape (http://www.inkscape.org/) -->

<svg
   xmlns:dc="http://purl.org/dc/elements/1.1/"
   xmlns:cc="http://creativecommons.org/ns#"
   xmlns:rdf="http://www.w3.org/1999/02/22-rdf-syntax-ns#"
   xmlns:svg="http://www.w3.org/2000/svg"
   xmlns="http://www.w3.org/2000/svg"
   xmlns:xlink="http://www.w3.org/1999/xlink"
   xmlns:sodipodi="http://sodipodi.sourceforge.net/DTD/sodipodi-0.dtd"
   xmlns:inkscape="http://www.inkscape.org/namespaces/inkscape"
   id="svg14038"
   version="1.1"
   inkscape:version="0.91 r"
   width="1248"
   height="1303"
   viewBox="0 0 1248 1303"
   sodipodi:docname="snowflake-Rancor-000.svg">
  <metadata
     id="metadata14044">
    <rdf:RDF>
      <cc:Work
         rdf:about="">
        <dc:format>image/svg+xml</dc:format>
        <dc:type
           rdf:resource="http://purl.org/dc/dcmitype/StillImage" />
        <dc:title />
      </cc:Work>
    </rdf:RDF>
  </metadata>
  <defs
     id="defs14042" />
  <sodipodi:namedview
     pagecolor="#ffffff"
     bordercolor="#666666"
     borderopacity="1"
     objecttolerance="10"
     gridtolerance="10"
     guidetolerance="10"
     inkscape:pageopacity="0"
     inkscape:pageshadow="2"
     inkscape:window-width="1600"
     inkscape:window-height="843"
     id="namedview14040"
     showgrid="false"
     inkscape:zoom="2.3275179"
     inkscape:cx="390.47264"
     inkscape:cy="509.68283"
     inkscape:window-x="0"
     inkscape:window-y="0"
     inkscape:window-maximized="1"
     inkscape:current-layer="svg14038"
     inkscape:object-nodes="true"
     inkscape:snap-center="true"
     showguides="true"
     inkscape:guide-bbox="true">
    <sodipodi:guide
       position="1163.4054,139.5634"
       orientation="0,1"
       id="guide4133" />
    <sodipodi:guide
       position="1163.4054,139.5634"
       orientation="1,0"
       id="guide4135" />
    <sodipodi:guide
       position="451.59049,506.09871"
       orientation="0,1"
       id="guide3688" />
    <sodipodi:guide
       position="451.59049,506.09871"
       orientation="1,0"
       id="guide3690" />
  </sodipodi:namedview>
  <g
     id="g3888">
    <path
       inkscape:transform-center-y="-70.58269"
       inkscape:transform-center-x="70.588635"
       inkscape:connector-curvature="0"
       d="m 359.23514,694.0715 c -0.56333,-1.5816 -1.63662,-3.1746 -3.15999,-4.69 -0.67932,-0.6759 -1.40774,-1.2777 -1.74006,-1.4377 -0.76679,-0.3691 -1.38509,-0.3172 -1.72849,0.1451 -0.39138,0.5271 -0.35028,2.0218 0.0909,3.3068 0.38671,1.1263 2.0208,4.5635 2.16957,4.5635 0.0552,0 0.10044,-0.1262 0.10044,-0.2803 0,-0.4702 0.61327,-1.5515 1.02087,-1.8001 0.76239,-0.4649 1.6085,-0.2465 2.85131,0.7359 0.7109,0.5619 0.76337,0.4898 0.39544,-0.5432 z m 9.35771,-2.8583 c -0.23316,-1.1454 -0.94988,-2.297 -2.25313,-3.6204 -0.67559,-0.6861 -1.29291,-1.2473 -1.37175,-1.2473 -0.0942,0 -0.14334,0.252 -0.14334,0.7347 0,0.4042 -0.11256,2.2378 -0.25013,4.0749 -0.13757,1.837 -0.23341,3.601 -0.21296,3.9199 l 0.0372,0.58 0.791,0.037 c 1.01433,0.048 1.69589,-0.1465 2.28699,-0.6525 0.88224,-0.7551 1.38825,-2.49 1.11615,-3.8266 z m 18.26742,-1.2177 c -0.32006,-1.038 -0.89358,-1.6433 -3.19564,-3.3724 -6.78275,-5.0949 -6.85948,-5.1664 -7.95609,-7.4057 -0.44324,-0.9052 -0.67221,-1.2268 -1.08372,-1.5224 l -0.52175,-0.3746 0.17616,-0.5682 c 0.39693,-1.28 -0.10295,-2.5972 -1.53572,-4.0465 -1.09778,-1.1105 -1.79506,-1.489 -3.24749,-1.7631 -2.82703,-0.5333 -4.51708,-0.9837 -7.5122,-2.0018 l -3.24551,-1.1032 -0.42705,0.2026 c -0.57745,0.274 -0.61882,0.3823 -0.28375,0.7426 0.68018,0.7313 3.19059,1.9434 6.52678,3.1514 2.08068,0.7533 3.15003,1.2595 4.35662,2.0624 1.99102,1.3247 2.30259,1.9782 2.30258,4.8295 l 0,1.9119 0.60847,0.143 c 0.33466,0.079 1.05997,0.3049 1.61182,0.5028 1.30227,0.4671 1.82174,0.9381 3.89488,3.5315 1.82161,2.2786 2.2727,2.6775 5.12089,4.528 1.61255,1.0478 1.83167,1.2299 1.89674,1.5768 0.13794,0.7352 -0.34055,6.1866 -0.71661,8.164 -0.0891,0.4685 -0.14493,0.8697 -0.12409,0.8916 0.0764,0.08 1.01455,-1.4065 1.51101,-2.3944 1.14854,-2.2854 2.1813,-6.5908 1.84367,-7.6858 z m 55.55214,66.1127 c -2.06448,-1.87153 -5.33802,-1.45293 -7.95761,-2.07032 -1.39241,0.10769 0.17703,2.91576 0.38941,4.03002 0.51567,1.58103 2.63155,1.97278 3.86046,2.90638 1.94451,0.93247 4.36877,-3.26843 3.70774,-4.86608 z m -0.0692,31.4865 c 1.50502,-1.54458 2.62254,-0.76988 4.00685,0.1256 1.04306,-1.25733 1.20959,-3.1185 2.92909,-3.7018 -0.22654,-1.36268 -2.44106,-2.55926 -1.2703,-3.93483 1.69221,-2.82841 0.89379,-6.2849 0.70939,-9.3843 0.46274,-1.69543 -3.77174,-4.71987 -3.08315,-2.11757 2.35422,2.66933 1.23396,6.5289 0.53425,9.61959 -1.07597,1.29306 -2.51512,1.33481 -1.3655,-0.57166 0.2811,-3.48529 -1.55001,-6.70481 -3.82599,-9.21409 -0.67806,-2.11083 -5.22058,-1.48315 -1.89672,0.11286 1.90209,1.96602 4.06745,4.67728 3.27295,7.60368 0.27833,2.16152 -2.87422,4.1295 -2.55247,0.91432 -0.44222,-3.09115 -3.36746,-5.43568 -6.37723,-5.6293 -3.39234,1.70317 3.35483,2.31108 3.38058,4.74517 0.78066,1.22135 0.0759,4.85618 -1.4872,2.76904 -0.33942,-0.60157 -1.03558,0.15434 -1.52008,0.17819 m -8.02026,-8.0203 c 0.8197,-1.90779 1.6811,-3.79857 2.44879,-5.728 -1.39853,-0.89499 -3.83657,-1.24805 -3.28545,-3.40337 0.93412,-3.05262 -3.34811,-4.80875 -2.18539,-7.51563 1.21058,-3.27814 -3.38469,-4.45051 -5.09467,-6.53797 -2.84657,-1.55013 -3.16848,-4.90002 -3.6386,-7.77067 -0.0269,-3.43298 -3.56562,-3.08812 -6.00718,-2.69489 -2.49962,0.0142 -5.05295,-0.14839 -7.41287,-1.03437 0.57257,1.4512 -0.6397,4.87368 1.18513,5.23725 2.45372,-0.48509 1.22153,1.71017 1.98901,2.60432 2.4596,-0.28401 3.73872,1.32331 2.69941,3.61233 1.96152,0.47233 4.21302,1.03904 3.52991,3.57336 0.0795,1.30012 0.1825,2.60052 0.19335,3.90354 m -22.19161,-22.2988 c 1.79617,-2.56751 3.01596,-5.50005 4.99725,-7.94798 1.16447,-1.26298 0.38698,-2.95672 -0.0144,-4.36442 -0.45391,-1.60483 -1.08611,-3.18867 -1.41435,-4.81499 -0.002,-2.65839 0.25734,-5.33263 10e-4,-7.97921 -0.87672,-1.15012 -2.6573,-1.18074 -3.95983,-1.69163 -0.79066,-0.30539 -2.15161,-0.43657 -0.74942,0.29642 1.26381,0.96777 3.24656,1.76776 3.28632,3.60862 0.51634,3.26925 0.0548,6.79426 -1.95227,9.51128 -1.78415,2.73726 -4.7615,4.55387 -7.98625,4.99186 -0.2424,0.0497 -0.48479,0.0994 -0.72719,0.14905 m -5.13637,-5.129 c -0.067,-1.49388 -0.0859,-3.00553 -0.46176,-4.4587 0.91918,-0.33458 1.92578,-0.17675 2.88314,-0.1062 -1.44546,-1.94476 -3.01427,-3.81335 -4.23118,-5.91375 0.36801,-0.62517 1.85171,-0.21574 2.63366,-0.30635 0.73775,-0.21914 2.61357,0.96098 2.06341,-0.46725 -0.28278,-1.53585 -0.68502,-3.07594 -0.59222,-4.64665 -0.59481,-0.12692 -1.22991,0.36603 -1.83753,0.53133 -0.34178,0.0697 -0.60893,-0.40003 -0.92122,-0.54355 -0.54155,-0.40302 -1.0831,-0.80605 -1.62465,-1.20908 -0.49778,1.37689 -0.83546,2.83022 -1.52333,4.1246 -1.13728,-0.48666 -2.10734,-1.38042 -2.84959,-2.36291 -0.81008,-0.77438 -0.21694,-2.35239 -1.242,-2.84515 -1.44527,0.19005 -0.86257,1.90897 -0.92061,2.90387 0.0136,1.30366 0.1876,2.61831 0.0595,3.91583 -0.95785,0.53252 -1.78031,-0.88638 -2.49327,-1.42194 -0.84879,-0.92547 -1.89588,-1.87033 -2.12248,-3.1602 -0.29384,-1.05043 -2.00973,-0.49171 -2.84529,-0.39852 -0.0812,0.0319 -0.16234,0.0638 -0.24351,0.0956 m -25.6335,-25.63348 1.18884,-0.9484 c 1.45844,-1.1635 4.84093,-3.4401 6.72585,-4.5268 3.86031,-2.2257 7.65901,-3.7108 10.0154,-3.9156 0.45517,-0.039 0.78375,-0.1156 0.73015,-0.1691 -0.2435,-0.2435 -1.63176,-0.4749 -2.84584,-0.4749 -1.63153,0 -3.61968,0.3305 -6.65556,1.1063 -5.65925,1.4463 -10.36876,3.2205 -12.37866,4.6635 l -0.60809,0.4366 m -15.16441,-15.3693 c 5.48496,0.53382 10.97286,3.04992 15.92162,-1.4406 3.46913,0.50083 7.80993,7.51764 9.48912,0.4774 4.87283,-3.97352 7.59118,6.5409 13.6662,3.93566 5.20628,5.43943 8.69861,-5.44959 12.99357,-1.57331 3.26381,0.60064 4.67072,-5.09447 6.26978,0.16015 4.46594,1.78396 8.02305,-1.93738 10.77123,2.73254 4.82788,6.62327 7.49989,-4.63598 13.77627,-1.89388 2.93849,-0.83377 7.79285,1.90181 9.2228,-1.68464 3.44521,-5.8182 11.07457,-2.3195 16.30874,-3.55022 4.02641,3.78116 7.60525,7.9521 13.16361,9.5524 3.03512,5.89875 5.6301,12.31621 5.38051,19.0591 -2.91278,-5.34092 -5.19897,-13.68739 -12.20919,-14.1712 4.8919,5.71474 8.82756,12.76022 8.12338,20.53694 0.0767,2.89167 -0.0763,9.10221 -1.43717,2.88024 -0.95133,-6.25612 -5.67735,-10.44727 -9.36874,-14.47616 0.4117,-4.89652 -11.3126,-10.25961 -6.61226,-2.40708 -1.14614,5.14248 7.65729,6.83695 7.66687,7.73624 -7.18983,4.16365 -13.74414,-2.68992 -15.44165,-9.23948 -2.8624,-2.19515 -0.66984,-10.746 -5.26368,-5.3399 -2.95684,6.8158 -14.91172,4.75707 -14.13503,12.88334 1.24485,5.3406 2.11136,9.74574 -1.60099,14.13 -0.36043,8.90503 13.4278,5.92949 14.19058,14.57564 -0.75933,6.83163 8.22824,3.47892 10.84758,8.59705 4.44145,6.29786 14.772,8.89266 10.75324,18.27047 -1.7293,6.89099 5.91688,12.29624 10.69559,7.4623 3.24953,4.83506 9.61817,2.52238 6.48231,-3.44896 -2.72331,-5.81465 4.16236,-14.31862 -4.57531,-15.80614 -2.1723,0.18451 -6.56746,9.99884 0.50589,8.76078 4.85475,6.44727 -6.72936,7.68881 -5.79781,1.06586 -1.10411,-4.36522 -1.57192,-8.94699 0.59414,-13.0556 0.47294,-2.45895 -6.9367,-6.91323 -0.95924,-10.04524 4.34598,-1.27953 5.48409,6.30162 10.66573,2.85163 4.19428,-1.62045 5.77784,0.65804 8.04534,3.64587 m 0,13.0906 c -0.96417,0.10783 -2.15403,-0.20557 -2.98792,0.14543 -0.99228,1.57307 -2.41179,3.15599 -2.05898,5.13844 0.0713,2.63221 -0.21113,5.34747 0.5796,7.89213 1.50113,-0.10005 2.98748,-0.32743 4.46725,-0.5926 M 348.75958,704.5491 c -1.58163,-0.5633 -3.17461,-1.6366 -4.69009,-3.16 -0.67588,-0.6793 -1.27761,-1.4077 -1.43762,-1.7401 -0.36918,-0.7667 -0.31728,-1.3851 0.14511,-1.7284 0.52701,-0.3914 2.02175,-0.3503 3.30678,0.091 1.12632,0.3867 4.56347,2.0208 4.56347,2.1695 0,0.055 -0.12615,0.1005 -0.28033,0.1005 -0.47016,0 -1.55151,0.6132 -1.80005,1.0208 -0.4649,0.7624 -0.24654,1.6085 0.73584,2.8513 0.56194,0.7109 0.48988,0.7634 -0.54311,0.3955 z m -2.85836,9.3577 c -1.14537,-0.2332 -2.297,-0.9499 -3.62036,-2.2531 -0.68608,-0.6756 -1.24735,-1.2929 -1.24735,-1.3718 0,-0.094 0.25206,-0.1433 0.73476,-0.1433 0.40412,0 2.23779,-0.1126 4.07483,-0.2502 1.83703,-0.1375 3.60103,-0.2334 3.91998,-0.2129 l 0.57992,0.037 0.0374,0.791 c 0.0479,1.0143 -0.14655,1.6959 -0.65251,2.2869 -0.75516,0.8823 -2.48999,1.3883 -3.82663,1.1162 z m -1.21772,18.2674 c -1.03796,-0.32 -1.64321,-0.8936 -3.37242,-3.1956 -5.09488,-6.7828 -5.1663,-6.8595 -7.40569,-7.9561 -0.90513,-0.4432 -1.22679,-0.6722 -1.52231,-1.0837 l -0.37469,-0.5218 -0.56811,0.1762 c -1.28008,0.3969 -2.59725,-0.103 -4.04657,-1.5357 -1.1105,-1.0978 -1.48902,-1.7951 -1.76304,-3.2475 -0.53334,-2.8271 -0.9837,-4.5171 -2.00183,-7.5122 l -1.10324,-3.2455 0.20265,-0.4271 c 0.27402,-0.5774 0.38229,-0.6188 0.74257,-0.2837 0.73134,0.6801 1.94346,3.1906 3.15137,6.5267 0.75333,2.0807 1.25956,3.1501 2.06239,4.3567 1.32478,1.991 1.97827,2.3025 4.8296,2.3025 l 1.91185,0 0.14297,0.6085 c 0.0786,0.3347 0.30493,1.06 0.50288,1.6118 0.4671,1.3023 0.9381,1.8218 3.53141,3.8949 2.27866,1.8216 2.67753,2.2727 4.52808,5.1209 1.04772,1.6126 1.22987,1.8317 1.57672,1.8967 0.73529,0.138 6.1866,-0.3405 8.164,-0.7166 0.46852,-0.089 0.86976,-0.1449 0.89165,-0.1241 0.0802,0.076 -1.40652,1.0146 -2.3944,1.511 -2.2854,1.1486 -6.59082,2.1814 -7.68584,1.8437 z m 66.11274,55.5522 c -1.87147,-2.06454 -1.45294,-5.338 -2.07032,-7.9576 0.10765,-1.39282 2.91581,0.17659 4.03006,0.3891 1.58098,0.51575 1.9728,2.63153 2.90637,3.86046 0.93253,1.9448 -3.26895,4.36843 -4.86611,3.70804 z m 31.48644,-0.069 c -1.5444,1.50506 -0.76984,2.62258 0.12562,4.0069 -1.25729,1.04311 -3.11847,1.20953 -3.70178,2.9291 -1.36262,-0.22668 -2.55929,-2.44098 -3.93486,-1.27032 -2.82841,1.6922 -6.28489,0.89384 -9.38429,0.70939 -1.69538,0.46266 -4.71987,-3.77174 -2.11755,-3.08317 2.66932,2.35426 6.52891,1.23391 9.61961,0.53427 1.29303,-1.07602 1.33475,-2.51482 -0.57163,-1.36552 -3.48528,0.28084 -6.70484,-1.55008 -9.21411,-3.82613 -2.1108,-0.67807 -1.48321,-5.22056 0.11282,-1.89669 1.96603,1.90221 4.67726,4.06709 7.60373,3.27346 2.16146,0.27834 4.12945,-2.87426 0.91433,-2.55248 -3.09115,-0.44221 -5.43569,-3.36743 -5.6293,-6.37721 1.70304,-3.39247 2.31102,3.35481 4.74512,3.38055 1.22133,0.78063 4.85614,0.0759 2.76906,-1.48721 -0.6016,-0.33936 0.15431,-1.03557 0.17818,-1.52004 m -8.02026,-8.0203 c -1.90782,0.81969 -3.79861,1.6811 -5.72805,2.4488 -0.89494,-1.39857 -1.24806,-3.83636 -3.4033,-3.28565 -3.05263,0.93381 -4.80885,-3.34798 -7.51572,-2.18545 -3.27804,1.21022 -4.45049,-3.38494 -6.53794,-5.09495 -1.55013,-2.84656 -4.90003,-3.16844 -7.77066,-3.63859 -3.43293,-0.0271 -3.08818,-3.56555 -2.6949,-6.00717 0.0142,-2.49962 -0.14835,-5.05297 -1.03435,-7.41289 1.45116,0.57258 4.87364,-0.63961 5.23723,1.18469 -0.48493,2.4536 1.70967,1.22159 2.60448,1.98911 -0.28426,2.4597 1.32308,3.73887 3.61218,2.6996 0.47202,1.96169 1.03926,4.21285 3.57335,3.52983 1.30012,0.0795 2.60052,0.18248 3.90355,0.19337 m -22.29876,-22.1916 c -2.56755,1.79613 -5.50009,3.01595 -7.94803,4.99726 -1.26298,1.16442 -2.95674,0.38702 -4.36442,-0.0145 -1.60482,-0.45396 -3.1887,-1.08608 -4.81501,-1.41436 -2.65838,-10e-4 -5.33262,0.25744 -7.9792,10e-4 -1.15012,-0.87664 -1.18075,-2.65722 -1.69164,-3.9597 -0.30532,-0.79063 -0.4367,-2.15155 0.29641,-0.74944 0.96789,1.26372 1.76776,3.24658 3.60865,3.28632 3.26923,0.51622 6.79426,0.0548 9.51129,-1.95228 2.73731,-1.78412 4.55384,-4.76151 4.99183,-7.98626 0.0497,-0.24239 0.0994,-0.48479 0.14906,-0.72718 m -5.12897,-5.13616 c -1.49389,-0.067 -3.00555,-0.0859 -4.45872,-0.4618 -0.33453,0.91919 -0.17653,1.9257 -0.1067,2.8831 -1.94484,-1.44536 -3.81337,-3.01426 -5.91379,-4.23113 -0.62521,0.36798 -0.21591,1.85169 -0.30702,2.63365 -0.21986,0.73775 0.95917,2.61358 -0.46864,2.06343 -1.53586,-0.28272 -3.07593,-0.68514 -4.64664,-0.59216 -0.12695,-0.59484 0.36595,-1.22997 0.53133,-1.83758 0.0697,-0.34177 -0.40003,-0.60893 -0.54354,-0.92121 -0.40304,-0.54157 -0.80608,-1.08313 -1.20912,-1.6247 1.37688,-0.49779 2.83018,-0.8355 4.12459,-1.5233 -0.48662,-1.1373 -1.3804,-2.10737 -2.36288,-2.84962 -0.77436,-0.81026 -2.35263,-0.21653 -2.84515,-1.24194 0.19006,-1.4453 1.90892,-0.86265 2.90385,-0.92064 1.30367,0.0137 2.61826,0.18736 3.91583,0.0597 0.53253,-0.95753 -0.88644,-1.78013 -1.42191,-2.493 -0.92551,-0.84877 -1.87036,-1.89584 -3.16022,-2.1225 -1.04989,-0.29068 -0.49317,-2.01049 -0.39854,-2.84521 0.0319,-0.0812 0.0638,-0.16239 0.0957,-0.24359 m -25.6335,-25.6335 -0.94842,1.1889 c -1.16349,1.4584 -3.44009,4.8409 -4.52687,6.7258 -2.22569,3.8603 -3.71079,7.659 -3.91552,10.0154 -0.0395,0.4552 -0.11566,0.7838 -0.16915,0.7302 -0.24324,-0.2438 -0.47487,-1.6318 -0.47488,-2.8459 0,-1.6315 0.33048,-3.6196 1.10631,-6.6555 1.44626,-5.6593 3.22049,-10.3688 4.66348,-12.3787 l 0.43657,-0.6081 m -15.37054,-15.1635 c 0.53404,5.48492 3.04964,10.97279 -1.44058,15.9216 0.50054,3.46908 7.5181,7.80998 0.47776,9.48909 -3.97356,4.87281 6.54099,7.5912 3.93562,13.66622 5.43968,5.20632 -5.44975,8.69868 -1.57322,12.99362 0.60058,3.26372 -5.09449,4.67073 0.16014,6.26967 1.78427,4.46578 -1.93785,8.02314 2.732,10.77128 6.62325,4.8279 -4.63603,7.49989 -1.89364,13.7763 -0.83405,2.93848 1.90197,7.79279 -1.6845,9.22277 -5.81841,3.44527 -2.319,11.07459 -3.55025,16.30875 3.78114,4.02641 7.95217,7.60521 9.55238,13.1636 5.89881,3.03491 12.31623,5.63047 19.05916,5.3803 -5.34101,-2.91265 -13.68731,-5.19897 -14.17125,-12.2091 5.71481,4.89174 12.76023,8.82759 20.53696,8.12325 2.89161,0.0766 9.10224,-0.0762 2.88027,-1.43709 -6.25614,-0.9513 -10.44733,-5.67736 -14.47618,-9.36877 -4.89659,0.41173 -10.25964,-11.31263 -2.40709,-6.6122 5.14247,-1.14647 6.83695,7.65705 7.73624,7.66663 4.16361,-7.18973 -2.68994,-13.74423 -9.23948,-15.4416 -2.1956,-2.86196 -10.74714,-0.67105 -5.33988,-5.26376 6.81582,-2.9568 4.7571,-14.91181 12.88334,-14.13496 5.34055,1.24514 9.74576,2.1111 14.13,-1.60104 8.90502,-0.36041 5.92949,13.42776 14.57561,14.1906 6.83163,-0.75936 3.47896,8.22821 8.59708,10.84759 6.29786,4.44143 8.89268,14.772 18.27047,10.75319 6.891,-1.72931 12.29627,5.91701 7.46228,10.69565 4.8351,3.24949 2.52241,9.61821 -3.44895,6.48229 -5.81471,-2.72323 -14.31858,4.16233 -15.80617,-4.57528 0.18356,-2.17248 10.0012,-6.56742 8.75797,0.50586 6.44724,4.85474 7.68881,-6.72937 1.06587,-5.79782 -4.36521,-1.10392 -8.94699,-1.57228 -13.05562,0.59385 -2.45894,0.47305 -6.91307,-6.93608 -10.04518,-0.95909 -1.27967,4.3462 6.30216,5.48368 2.85158,10.66575 -1.62048,4.19428 0.65807,5.77783 3.64588,8.04535 m 13.09065,0 0,-1.4456 0,-1.4456 1.04524,-0.6955 c 0.57488,-0.3825 1.40999,-0.8683 1.85581,-1.0795 l 0.81058,-0.384 3.2857,0.01 c 3.16658,0.01 4.93062,0.1409 5.78865,0.44 l 0.39002,0.136 -0.0834,0.9862 c -0.0459,0.5425 -0.17928,1.5476 -0.29648,2.2337 l -0.21309,1.2473"
       style="fill:none;fill-opacity:1;stroke:#00ff00;stroke-width:0.70866144;stroke-miterlimit:4;stroke-dasharray:none;stroke-opacity:1"
       id="path3824" />
    <use
       height="100%"
       width="100%"
       transform="matrix(0,1,-1,0,1248.4918,345.3108)"
       id="use3882"
       inkscape:transform-center-y="-70.588635"
       inkscape:transform-center-x="-70.58271"
       xlink:href="#path3824"
       y="0"
       x="0" />
    <use
       x="0"
       y="0"
       xlink:href="#path3824"
       inkscape:transform-center-x="-70.588635"
       inkscape:transform-center-y="70.58271"
       id="use3884"
       transform="matrix(-1,0,0,-1,903.18098,1593.8026)"
       width="100%"
       height="100%" />
    <use
       height="100%"
       width="100%"
       transform="matrix(0,-1,1,0,-345.31082,1248.4918)"
       id="use3886"
       inkscape:transform-center-y="70.588655"
       inkscape:transform-center-x="70.58271"
       xlink:href="#path3824"
       y="0"
       x="0" />
  </g>
</svg>
