<?xml version="1.0" encoding="UTF-8" standalone="no"?>
<!-- Created with Inkscape (http://www.inkscape.org/) -->

<svg
   xmlns:dc="http://purl.org/dc/elements/1.1/"
   xmlns:cc="http://creativecommons.org/ns#"
   xmlns:rdf="http://www.w3.org/1999/02/22-rdf-syntax-ns#"
   xmlns:svg="http://www.w3.org/2000/svg"
   xmlns="http://www.w3.org/2000/svg"
   xmlns:sodipodi="http://sodipodi.sourceforge.net/DTD/sodipodi-0.dtd"
   xmlns:inkscape="http://www.inkscape.org/namespaces/inkscape"
   id="svg2"
   version="1.1"
   inkscape:version="0.91 r"
   width="1227"
   height="1259"
   viewBox="0 0 1227 1259"
   sodipodi:docname="snowflake-AT-ACT-000.svg">
  <metadata
     id="metadata8">
    <rdf:RDF>
      <cc:Work
         rdf:about="">
        <dc:format>image/svg+xml</dc:format>
        <dc:type
           rdf:resource="http://purl.org/dc/dcmitype/StillImage" />
        <dc:title />
      </cc:Work>
    </rdf:RDF>
  </metadata>
  <defs
     id="defs6" />
  <sodipodi:namedview
     pagecolor="#ffffff"
     bordercolor="#666666"
     borderopacity="1"
     objecttolerance="10"
     gridtolerance="10"
     guidetolerance="10"
     inkscape:pageopacity="0"
     inkscape:pageshadow="2"
     inkscape:window-width="1600"
     inkscape:window-height="843"
     id="namedview4"
     showgrid="false"
     inkscape:zoom="0.25559307"
     inkscape:cx="759.75815"
     inkscape:cy="171.69405"
     inkscape:window-x="0"
     inkscape:window-y="0"
     inkscape:window-maximized="1"
     inkscape:current-layer="svg2"
     showguides="true"
     inkscape:guide-bbox="true"
     inkscape:snap-center="true"
     inkscape:object-nodes="true"
     inkscape:object-paths="true">
    <sodipodi:guide
       position="1203.4421,105.12827"
       orientation="0,1"
       id="guide4133" />
    <sodipodi:guide
       position="1171.54,105.12827"
       orientation="1,0"
       id="guide4135" />
  </sodipodi:namedview>
  <path
     id="path4186"
     style="fill:none;stroke:#00ff00;stroke-opacity:1;stroke-width:0.70866142;stroke-miterlimit:4;stroke-dasharray:none"
     d="m 183.51064,156.70771 c -0.29968,-0.372 -0.58766,-0.6763 -0.63994,-0.6763 -0.14284,0 -8.37488,6.5005 -8.38231,6.6191 -0.004,0.057 0.24914,0.4279 0.56151,0.8255 l 0.56794,0.7229 0.81851,-0.641 c 3.81942,-2.9914 7.63447,-6.0436 7.62759,-6.1024 -0.005,-0.039 -0.2536,-0.3759 -0.5533,-0.7478 z m 16.23839,18.443 c -3.62366,-3.7526 -4.51316,-4.6118 -4.77912,-4.6162 -0.2286,0 -0.53972,-0.2162 -1.03573,-0.707 -0.38992,-0.3858 -0.74885,-0.7015 -0.79761,-0.7015 -0.0488,0 -0.0887,0.2389 -0.0887,0.5309 0,0.7956 -0.31546,1.7039 -0.74399,2.1422 -0.42734,0.4371 -1.28453,0.7946 -2.79762,1.1668 -0.61934,0.1523 -1.00036,0.305 -0.96842,0.388 0.029,0.075 0.8404,2.1564 1.80321,4.6247 0.96281,2.4683 1.78591,4.5801 1.82909,4.6929 0.0661,0.1726 0.19505,0.1168 0.81624,-0.3532 0.69568,-0.5265 1.88176,-1.2622 2.03886,-1.2647 0.0394,-6e-4 0.0464,0.3023 0.0157,0.6732 -0.0599,0.7229 0.0733,1.4257 0.48414,2.5528 l 0.25754,0.7067 0.44059,-0.3868 c 0.58344,-0.5123 1.61165,-0.9728 2.22667,-0.9974 0.41306,-0.016 0.5691,0.051 0.93499,0.4059 0.51458,0.4987 1.22577,1.8561 1.34632,2.5697 0.0464,0.2747 0.12103,0.4992 0.16579,0.499 0.0448,-2e-4 0.26882,-0.4775 0.49787,-1.0605 0.33415,-0.8505 0.49109,-1.0995 0.79404,-1.2598 1.27437,-0.6743 1.39823,-1.5569 0.39096,-2.7861 -0.22715,-0.2772 -0.66659,-0.6385 -0.97655,-0.803 -0.30995,-0.1644 -0.54563,-0.3543 -0.52372,-0.4221 0.0923,-0.2852 1.09428,-0.6856 2.0779,-0.8302 l 1.04385,-0.1536 -4.45232,-4.6107 z m 11.2107,-1.7373 c -0.90209,-1.0315 -7.74054,-8.1096 -9.71917,-10.0598 -0.57959,-0.5712 -1.08694,-1.0055 -1.12747,-0.9649 -0.0405,0.041 -0.42507,0.556 -0.85454,1.1455 l -0.78086,1.072 4.00839,4.5652 c 2.20463,2.5109 4.53157,5.1601 5.171,5.8871 0.63943,0.7269 1.22417,1.3199 1.29943,1.3178 0.0752,0 0.2426,-0.084 0.37188,-0.1818 0.12927,-0.098 0.35059,-0.1543 0.49181,-0.1255 0.14122,0.029 0.56972,0.086 0.9522,0.1277 l 0.69545,0.075 0.19596,-0.8617 c 0.1078,-0.4738 0.19598,-0.8855 0.19598,-0.9147 0,-0.029 -0.40504,-0.5162 -0.90006,-1.0823 z m 1.02345,71.5295 c -1.22402,-0.8702 -2.24088,-1.5618 -2.25971,-1.5369 -0.0188,0.025 -0.22047,0.3099 -0.44813,0.6334 -0.24488,0.3479 -0.48055,0.5625 -0.57705,0.5254 -0.0897,-0.034 -0.49097,-0.2852 -0.89166,-0.5573 -0.40069,-0.2721 -0.77146,-0.4947 -0.82392,-0.4947 -0.0525,0 -0.41207,0.3133 -0.79911,0.6963 l -0.70372,0.6964 -1.14881,-0.8635 -1.14883,-0.8635 -2.42366,-0.09 c -1.33302,-0.05 -2.42367,-0.06 -2.42367,-0.024 0,0.037 0.85896,0.7965 1.90879,1.6882 1.33946,1.1377 1.89092,1.6805 1.84887,1.8198 -0.0848,0.2811 -0.30836,1.286 -0.31195,1.4025 -0.002,0.053 0.36768,0.2636 0.82074,0.4669 0.63669,0.2857 1.24398,0.4255 2.67424,0.6157 l 1.85048,0.2461 2.19166,1.0394 c 1.41712,0.672 2.61177,1.34 3.38047,1.8902 0.65384,0.468 1.19603,0.8413 1.20484,0.8296 0.009,-0.012 -0.0283,-0.3256 -0.0825,-0.6975 -0.15584,-1.0697 -0.12381,-2.6806 0.0746,-3.7501 0.10036,-0.541 0.21196,-1.2326 0.24801,-1.5369 l 0.0656,-0.5533 -2.2255,-1.5822 z m 0.39444,21.0373 0.71062,-0.8463 c 1.23561,-1.4716 1.97849,-3.179 2.01128,-4.6226 l 0.0185,-0.8156 -1.16189,-0.234 -1.16191,-0.234 -1.41455,-1.3508 c -1.53391,-1.4648 -1.6369,-1.5342 -3.05438,-2.0583 -0.52433,-0.1939 -1.26992,-0.4978 -1.65688,-0.6753 -0.96672,-0.4437 -3.39958,-0.8454 -4.79206,-0.7913 l -1.08317,0.042 m -20.83983,-21.2906 c 0.48393,-0.3793 1.54755,-0.7984 2.19599,-0.8653 1.27231,-0.1313 2.6906,0.6178 3.59059,1.8965 0.27478,0.3904 0.69974,0.8189 0.94438,0.9522 0.37254,0.2029 0.43458,0.2934 0.38187,0.557 -0.0526,0.2629 0.004,0.3469 0.34663,0.511 l 0.40956,0.1964 -0.46108,0.2223 c -0.43106,0.2078 -0.56188,0.4038 -0.38655,0.5791 0.041,0.041 0.34416,-0.1386 0.67372,-0.3991 0.77168,-0.61 1.68219,-0.9182 2.41571,-0.8176 0.30405,0.042 2.08186,0.7464 3.95069,1.566 1.86883,0.8197 4.36613,1.8494 5.54956,2.2883 1.95738,0.726 2.28273,0.8098 3.60274,0.9287 1.41304,0.1273 1.45806,0.1237 1.71846,-0.1367 l 0.2674,-0.2674 -0.38851,-0.3885 -0.38852,-0.3885 0.51436,-0.409 c 0.4927,-0.3917 0.55906,-0.409 1.57643,-0.4101 l 1.06206,0 1.48965,1.0657 c 1.42438,1.019 1.48059,1.0757 1.28309,1.2939 -0.12311,0.1361 -0.16053,0.2693 -0.0926,0.3298 0.0626,0.056 1.04933,0.8045 2.19264,1.6638 1.2742,0.9576 2.11082,1.5103 2.16165,1.4281 0.22111,-0.3578 0.77188,-6.8595 0.98863,-11.6707 0.14687,-3.26 0.10268,-3.7297 -0.4557,-4.8441 -0.26925,-0.5373 -0.6977,-0.8783 -0.93103,-0.7409 -0.12124,0.071 -0.12622,0.097 0.15789,-0.8095 0.54922,-1.7522 0.79136,-4.9183 0.47959,-6.2709 -0.14255,-0.6184 -1.0354,-1.8118 -1.9624,-2.623 l -0.59819,-0.5234 0.67344,-1.291 c 1.82026,-3.4896 2.30338,-4.7845 2.31648,-6.2092 0.007,-0.7809 -0.0428,-1.0719 -0.24271,-1.4121 -0.38058,-0.6478 -1.17396,-1.1907 -1.98958,-1.3612 -1.75551,-0.3672 -4.64583,0.699 -6.54398,2.4138 -1.20311,1.0869 -2.75935,3.5857 -3.13757,5.0378 -0.25813,0.991 -0.81924,1.8693 -1.94724,3.0482 l -0.96001,1.0032 -0.25249,-0.6592 c -0.32472,-0.8478 -1.02551,-1.5426 -2.02987,-2.0126 -0.68528,-0.3207 -0.89548,-0.364 -1.5009,-0.3091 -1.26775,0.115 -2.68766,1.0202 -5.3498,3.4105 -1.97226,1.7708 -3.29566,2.6924 -5.30148,3.6916 -0.94771,0.4722 -1.78704,0.8584 -1.86519,0.8584 -0.10214,0 -0.12297,-0.3203 -0.0741,-1.1394 0.0586,-0.9819 0.0386,-1.1638 -0.14419,-1.3155 -0.18663,-0.1549 -0.27716,-0.1416 -0.75261,0.1107 -0.77458,0.4109 -4.2659,3.9791 -7.2813,7.4417 l -0.52877,0.6072 m -13.65971,-13.6597 0.8421,0.1771 c 0.54359,0.1143 1.26756,0.158 2.04232,0.1231 1.07705,-0.048 1.28524,-0.098 2.02873,-0.485 3.10944,-1.6178 3.1203,-1.6224 3.79715,-1.6288 0.36204,0 0.6583,-0.043 0.65836,-0.089 7e-5,-0.046 -0.2535,-0.4604 -0.56346,-0.9222 l -0.56358,-0.8395 0.75632,-0.7118 c 0.44392,-0.4177 0.91168,-0.7428 1.13243,-0.7869 l 0.3761,-0.075 -0.2922,-0.2272 c -0.9685,-0.7528 -3.47632,-0.7653 -4.60928,-0.023 -0.39255,0.2573 -0.49622,0.1276 -0.60511,-0.7569 -0.14694,-1.1935 0.42745,-3.0158 1.15937,-3.6781 0.14226,-0.1288 0.25865,-0.3267 0.25865,-0.4399 0,-0.3563 0.73248,-1.3297 1.3308,-1.7686 0.31623,-0.2319 0.84134,-0.4992 1.1669,-0.594 l 0.59191,-0.1724 -2.92803,-2.6525 c -1.61041,-1.4589 -5.61031,-5.0382 -8.88865,-7.9541 l -5.96064,-5.3015 -0.69453,0.6872 -0.69452,0.6873 -3.24259,-2.9183 c -1.78343,-1.6051 -3.47079,-3.1368 -3.74969,-3.4037 l -0.50708,-0.4852 -0.98628,1.2597 -0.98627,1.2596 0.23763,0.5544 c 1.05962,2.472 1.01118,5.6195 -0.12076,7.8462 -0.40452,0.7957 -0.88302,1.5202 -1.41229,2.1383 l -0.34762,0.406 m -11.16975,-11.2586 c 0,-0.05 0.44704,-0.5758 0.99344,-1.1685 0.54639,-0.5928 1.13538,-1.3176 1.30886,-1.6108 0.30337,-0.5127 0.31165,-0.5785 0.21654,-1.7214 -0.13665,-1.642 -0.11856,-2.0069 0.12336,-2.49 0.11559,-0.2308 1.04739,-1.263 2.0707,-2.2938 l 1.86054,-1.8743 -0.91802,-0.9241 -0.918,-0.9242 -4.45914,4.4579 -4.45915,4.4578 m -10.63398,-10.6339 3.29397,-3.2957 3.29395,-3.2957 -0.83519,-0.8229 -0.8352,-0.823 -3.28945,3.2877 -3.28944,3.2878 m -4.73325,-4.7334 3.13531,-3.1392 c 1.72442,-1.7265 3.22494,-3.1906 3.33451,-3.2536 0.14329,-0.082 1.32897,0.2626 4.22515,1.229 l 4.02599,1.3434 1.15576,1.1652 c 1.27855,1.289 2.61458,2.2496 3.6865,2.6507 1.10541,0.4135 2.94745,0.5709 4.72514,0.4037 0.82506,-0.078 1.52595,-0.167 1.55752,-0.1985 0.10582,-0.1059 -1.08296,-2.2694 -1.67717,-3.0525 -0.80429,-1.0599 -1.95833,-2.1747 -2.73915,-2.646 -1.02322,-0.6177 -1.89186,-0.8063 -3.84723,-0.8356 -1.59248,-0.024 -1.80419,-0.055 -2.82793,-0.4214 -1.49682,-0.5351 -4.39329,-1.4475 -6.67383,-2.1022 l -1.87864,-0.5394 -3.90078,3.8994 -3.90077,3.8993 m -11.186221,-11.1882 3.502709,-3.5044 c 1.926482,-1.9273 3.548442,-3.5043 3.604342,-3.5043 0.0559,0 0.63239,0.3701 1.28105,0.8223 l 1.17941,0.8223 0.65627,-0.7051 c 0.36096,-0.3878 0.65628,-0.7484 0.65628,-0.8013 0,-0.071 -3.6518,-2.3722 -4.47114,-2.8173 -0.0585,-0.032 -1.91238,1.7477 -4.119811,3.9543 l -4.013507,4.0122 m -5.406949,-5.4112 4.381186,-4.3812 4.381186,-4.3811 7.520785,3.5274 c 4.13645,1.9401 7.59974,3.5577 7.69621,3.5947 0.0965,0.037 1.13909,-0.3048 2.31695,-0.7596 l 2.14154,-0.827 2.44062,1.5941 c 1.34234,0.8768 6.70096,4.3754 11.90804,7.7746 5.20707,3.3992 9.63605,6.3072 9.84217,6.4621 0.32468,0.244 0.71861,1.148 2.94851,6.7665 l 2.57376,6.4849 6.08856,5.7234 c 3.34871,3.1478 6.11385,5.7428 6.14476,5.7666 0.0309,0.024 -0.0774,0.2877 -0.24063,0.5866 -0.16325,0.2988 -0.27153,0.5653 -0.24062,0.5921 0.0309,0.027 3.86916,3.353 8.52945,7.3914 l 8.47325,7.3427 0.50921,-1.5155 c 0.28007,-0.8334 0.57606,-1.6377 0.65776,-1.7872 l 0.14854,-0.2717 0.44664,0.3031 c 0.51144,0.347 1.50857,0.6711 2.06204,0.6701 0.5274,0 1.25568,-0.219 1.47972,-0.4431 0.49504,-0.495 0.0662,-1.7252 -1.00461,-2.8818 -0.80175,-0.866 -1.25682,-1.1635 -2.11599,-1.3834 l -0.64567,-0.1652 0.65567,-0.4512 c 1.32807,-0.9138 3.33157,-1.2924 4.77446,-0.9023 0.37183,0.1005 0.68697,0.1719 0.70029,0.1586 0.0133,-0.013 0.11381,-0.458 0.22331,-0.9881 0.28444,-1.377 0.94257,-2.7791 1.30453,-2.7791 0.0548,0 0.41078,0.4724 0.79105,1.0499 0.77438,1.1759 1.89813,2.4468 2.38,2.6917 0.50698,0.2576 0.8716,0.3447 0.8716,0.208 0,-0.2946 -6.04254,-14.4501 -6.27102,-14.6908 -0.0552,-0.058 -1.04334,-0.205 -2.1959,-0.3263 l -2.09554,-0.2207 -2.27976,-1.1866 c -1.73673,-0.904 -2.29398,-1.2509 -2.33941,-1.4565 -0.0328,-0.1484 -0.28191,-2.1787 -0.55358,-4.5117 -0.27166,-2.3331 -0.52548,-4.4427 -0.56403,-4.688 l -0.0701,-0.4461 3.38465,-2.6085 3.38463,-2.6086 -0.26061,-0.3525 c -0.14332,-0.1938 -0.32097,-0.3159 -0.39474,-0.2713 -0.0738,0.045 -1.56303,1.1837 -3.30946,2.5311 -1.74643,1.3474 -3.21887,2.4014 -3.27209,2.3423 -0.16639,-0.185 -3.61123,-6.7404 -3.61011,-6.87 0.001,-0.068 0.56104,-1.0506 1.24545,-2.1844 1.20071,-1.989 1.25074,-2.1008 1.42534,-3.1855 0.0995,-0.6182 0.23041,-1.1568 0.29088,-1.1968 0.0604,-0.04 2.39678,-1.9263 5.19182,-4.1917 2.79503,-2.2654 5.10588,-4.1163 5.13519,-4.113 0.0293,0 2.04124,1.0545 4.47093,2.3361 l 4.41763,2.3302 3.00576,2.5439 c 1.65317,1.3991 3.38456,2.7889 3.84754,3.0884 l 0.84178,0.5446 2.46271,3.8584 2.4627,3.8584 -0.0576,1.1066 -0.0576,1.1066 4.1521,4.5492 c 2.28365,2.5021 5.28914,5.7907 6.67887,7.3079 l 2.52678,2.7586 0.26484,-1.5905 c 0.24634,-1.4794 0.47585,-2.2668 0.66069,-2.2668 0.0424,0 0.60386,0.547 1.2477,1.2155 1.13216,1.1756 2.11258,1.8583 2.66863,1.8583 0.12622,0 0.26639,0.037 0.31146,0.082 m 0.082,96.5315 -2.35251,1.2566 -2.35249,1.2566 m 42.75744,-113.7581 c 0.2997,-0.372 0.58766,-0.6763 0.63994,-0.6763 0.14284,0 8.37488,6.5005 8.38231,6.6191 0.004,0.057 -0.24914,0.4279 -0.5615,0.8255 l -0.56794,0.7229 -0.81852,-0.641 c -3.81941,-2.9914 -7.63446,-6.0436 -7.62757,-6.1024 0.005,-0.039 0.25359,-0.3759 0.55328,-0.7478 z m -16.23837,18.443 c 3.62366,-3.7526 4.51314,-4.6118 4.7791,-4.6162 0.22862,0 0.53974,-0.2162 1.03573,-0.707 0.38994,-0.3858 0.74886,-0.7015 0.79761,-0.7015 0.0488,0 0.0887,0.2389 0.0887,0.5309 0,0.7956 0.31548,1.7039 0.74399,2.1422 0.42734,0.4371 1.28455,0.7946 2.79762,1.1668 0.61936,0.1523 1.00037,0.305 0.96843,0.388 -0.029,0.075 -0.84041,2.1564 -1.80322,4.6247 -0.96281,2.4683 -1.7859,4.5801 -1.82909,4.6929 -0.0661,0.1726 -0.19505,0.1168 -0.81623,-0.3532 -0.69568,-0.5265 -1.88176,-1.2622 -2.03886,-1.2647 -0.0394,-6e-4 -0.0464,0.3023 -0.0157,0.6732 0.06,0.7229 -0.0733,1.4257 -0.48413,2.5528 l -0.25755,0.7067 -0.4406,-0.3868 c -0.58343,-0.5123 -1.61164,-0.9728 -2.22667,-0.9974 -0.41305,-0.016 -0.56909,0.051 -0.93497,0.4059 -0.51459,0.4987 -1.22579,1.8561 -1.34633,2.5697 -0.0464,0.2747 -0.12102,0.4992 -0.1658,0.499 -0.0448,-2e-4 -0.26882,-0.4775 -0.49787,-1.0605 -0.33413,-0.8505 -0.49107,-1.0995 -0.79403,-1.2598 -1.27437,-0.6743 -1.39824,-1.5569 -0.39097,-2.7861 0.22715,-0.2772 0.6666,-0.6385 0.97655,-0.803 0.30995,-0.1644 0.54563,-0.3543 0.52373,-0.4221 -0.0923,-0.2852 -1.09427,-0.6856 -2.07791,-0.8302 l -1.04385,-0.1536 4.45234,-4.6107 z m -11.21072,-1.7373 c 0.9021,-1.0315 7.74054,-8.1096 9.71918,-10.0598 0.57958,-0.5712 1.08695,-1.0055 1.12747,-0.9649 0.0405,0.041 0.42506,0.556 0.85454,1.1455 l 0.78087,1.072 -4.00841,4.5652 c -2.20463,2.5109 -4.53157,5.1601 -5.171,5.8871 -0.63943,0.7269 -1.22417,1.3199 -1.29943,1.3178 -0.0752,0 -0.2426,-0.084 -0.37188,-0.1818 -0.12927,-0.098 -0.35058,-0.1543 -0.49181,-0.1255 -0.14122,0.029 -0.56972,0.086 -0.9522,0.1277 l -0.69545,0.075 -0.19596,-0.8617 c -0.10779,-0.4738 -0.19598,-0.8855 -0.19598,-0.9147 0,-0.029 0.40504,-0.5162 0.90006,-1.0823 z m -1.02345,71.5295 c 1.22402,-0.8702 2.24088,-1.5618 2.25971,-1.5369 0.0188,0.025 0.22047,0.3099 0.44813,0.6334 0.24488,0.3479 0.48055,0.5625 0.57705,0.5254 0.0897,-0.034 0.49097,-0.2852 0.89166,-0.5573 0.40069,-0.2721 0.77146,-0.4947 0.82393,-0.4947 0.0525,0 0.41206,0.3133 0.79911,0.6963 l 0.70371,0.6964 1.14881,-0.8635 1.14883,-0.8635 2.42367,-0.09 c 1.33301,-0.05 2.42366,-0.06 2.42366,-0.024 0,0.037 -0.85896,0.7965 -1.90878,1.6882 -1.33946,1.1377 -1.89093,1.6805 -1.84888,1.8198 0.0848,0.2811 0.30836,1.286 0.31196,1.4025 0.002,0.053 -0.36768,0.2636 -0.82075,0.4669 -0.63669,0.2857 -1.24398,0.4255 -2.67424,0.6157 l -1.85048,0.2461 -2.19166,1.0394 c -1.41712,0.672 -2.61177,1.34 -3.38047,1.8902 -0.65384,0.468 -1.19602,0.8413 -1.20484,0.8296 -0.009,-0.012 0.0283,-0.3256 0.0825,-0.6975 0.15584,-1.0697 0.12381,-2.6806 -0.0746,-3.7501 -0.10035,-0.541 -0.21196,-1.2326 -0.24801,-1.5369 l -0.0656,-0.5533 2.2255,-1.5822 z m -0.39444,21.0373 -0.71062,-0.8463 c -1.23561,-1.4716 -1.97849,-3.179 -2.01128,-4.6226 l -0.0185,-0.8156 1.1619,-0.234 1.16191,-0.234 1.41454,-1.3508 c 1.53391,-1.4648 1.6369,-1.5342 3.05438,-2.0583 0.52434,-0.1939 1.26993,-0.4978 1.65688,-0.6753 0.96673,-0.4437 3.39958,-0.8454 4.79208,-0.7913 l 1.08317,0.042 m 20.83981,-21.2906 c -0.48393,-0.3793 -1.54754,-0.7984 -2.19597,-0.8653 -1.27232,-0.1313 -2.6906,0.6178 -3.59061,1.8965 -0.27476,0.3904 -0.69974,0.8189 -0.94438,0.9522 -0.37254,0.2029 -0.43458,0.2934 -0.38187,0.557 0.0526,0.2629 -0.004,0.3469 -0.34662,0.511 l -0.40957,0.1964 0.46108,0.2223 c 0.43106,0.2078 0.56188,0.4038 0.38656,0.5791 -0.041,0.041 -0.34417,-0.1386 -0.67373,-0.3991 -0.77168,-0.61 -1.68219,-0.9182 -2.4157,-0.8176 -0.30406,0.042 -2.08186,0.7464 -3.95069,1.566 -1.86883,0.8197 -4.36614,1.8494 -5.54957,2.2883 -1.95737,0.726 -2.28271,0.8098 -3.60274,0.9287 -1.41304,0.1273 -1.45806,0.1237 -1.71846,-0.1367 l -0.2674,-0.2674 0.38851,-0.3885 0.38852,-0.3885 -0.51436,-0.409 c -0.4927,-0.3917 -0.55906,-0.409 -1.57642,-0.4101 l -1.06206,0 -1.48966,1.0657 c -1.42438,1.019 -1.48059,1.0757 -1.28309,1.2939 0.12311,0.1361 0.16053,0.2693 0.0926,0.3298 -0.0626,0.056 -1.04933,0.8045 -2.19264,1.6638 -1.2742,0.9576 -2.11082,1.5103 -2.16165,1.4281 -0.22111,-0.3578 -0.77188,-6.8595 -0.98863,-11.6707 -0.14687,-3.26 -0.10268,-3.7297 0.4557,-4.8441 0.26926,-0.5373 0.6977,-0.8783 0.93103,-0.7409 0.12124,0.071 0.12622,0.097 -0.15789,-0.8095 -0.54922,-1.7522 -0.79136,-4.9183 -0.47959,-6.2709 0.14255,-0.6184 1.0354,-1.8118 1.9624,-2.623 l 0.59819,-0.5234 -0.67344,-1.291 c -1.82026,-3.4896 -2.30338,-4.7845 -2.31648,-6.2092 -0.007,-0.7809 0.0428,-1.0719 0.24271,-1.4121 0.38058,-0.6478 1.17396,-1.1907 1.98958,-1.3612 1.75551,-0.3672 4.64584,0.699 6.54398,2.4138 1.20311,1.0869 2.75935,3.5857 3.13757,5.0378 0.25813,0.991 0.81924,1.8693 1.94724,3.0482 l 0.96001,1.0032 0.25249,-0.6592 c 0.32472,-0.8478 1.02551,-1.5426 2.02988,-2.0126 0.68527,-0.3207 0.89547,-0.364 1.50089,-0.3091 1.26775,0.115 2.68766,1.0202 5.3498,3.4105 1.97226,1.7708 3.29566,2.6924 5.30148,3.6916 0.94771,0.4722 1.78704,0.8584 1.86519,0.8584 0.10214,0 0.12297,-0.3203 0.0741,-1.1394 -0.0586,-0.9819 -0.0386,-1.1638 0.14419,-1.3155 0.18664,-0.1549 0.27716,-0.1416 0.75262,0.1107 0.77459,0.4109 4.26591,3.9791 7.28129,7.4417 l 0.52877,0.6072 m 13.65972,-13.6597 -0.84211,0.1771 c -0.54357,0.1143 -1.26755,0.158 -2.04231,0.1231 -1.07705,-0.048 -1.28525,-0.098 -2.02874,-0.485 -3.10944,-1.6178 -3.12029,-1.6224 -3.79715,-1.6288 -0.36203,0 -0.6583,-0.043 -0.65836,-0.089 -6e-5,-0.046 0.2535,-0.4604 0.56346,-0.9222 l 0.56358,-0.8395 -0.75632,-0.7118 c -0.44392,-0.4177 -0.91166,-0.7428 -1.13241,-0.7869 l -0.3761,-0.075 0.29218,-0.2272 c 0.96852,-0.7528 3.47632,-0.7653 4.60929,-0.023 0.39255,0.2573 0.49622,0.1276 0.60512,-0.7569 0.14694,-1.1935 -0.42746,-3.0158 -1.15938,-3.6781 -0.14226,-0.1288 -0.25866,-0.3267 -0.25866,-0.4399 0,-0.3563 -0.73248,-1.3297 -1.3308,-1.7686 -0.31623,-0.2319 -0.84133,-0.4992 -1.16689,-0.594 l -0.59192,-0.1724 2.92804,-2.6525 c 1.61042,-1.4589 5.61031,-5.0382 8.88866,-7.9541 l 5.96062,-5.3015 0.69452,0.6872 0.69453,0.6873 3.2426,-2.9183 c 1.78343,-1.6051 3.47078,-3.1368 3.74967,-3.4037 l 0.5071,-0.4852 0.98627,1.2597 0.98628,1.2596 -0.23764,0.5544 c -1.05962,2.472 -1.01118,5.6195 0.12075,7.8462 0.40454,0.7957 0.88303,1.5202 1.41229,2.1383 l 0.34763,0.406 m 11.16975,-11.2586 c 0,-0.05 -0.44705,-0.5758 -0.99344,-1.1685 -0.54639,-0.5928 -1.13537,-1.3176 -1.30886,-1.6108 -0.30336,-0.5127 -0.31164,-0.5785 -0.21653,-1.7214 0.13663,-1.642 0.11855,-2.0069 -0.12338,-2.49 -0.11557,-0.2308 -1.04739,-1.263 -2.07068,-2.2938 l -1.86054,-1.8743 0.91801,-0.9241 0.91801,-0.9242 4.45914,4.4579 4.45914,4.4578 m 10.63398,-10.6339 -3.29396,-3.2957 -3.29397,-3.2957 0.8352,-0.8229 0.83521,-0.823 3.28943,3.2877 3.28945,3.2878 m 4.73325,-4.7334 -3.13531,-3.1392 c -1.72442,-1.7265 -3.22494,-3.1906 -3.3345,-3.2536 -0.14329,-0.082 -1.32897,0.2626 -4.22517,1.229 l -4.02597,1.3434 -1.15577,1.1652 c -1.27854,1.289 -2.61458,2.2496 -3.68649,2.6507 -1.10543,0.4135 -2.94746,0.5709 -4.72514,0.4037 -0.82508,-0.078 -1.52596,-0.167 -1.55753,-0.1985 -0.10582,-0.1059 1.08296,-2.2694 1.67718,-3.0525 0.80427,-1.0599 1.95831,-2.1747 2.73914,-2.646 1.02322,-0.6177 1.89187,-0.8063 3.84723,-0.8356 1.59248,-0.024 1.80419,-0.055 2.82792,-0.4214 1.49683,-0.5351 4.3933,-1.4475 6.67384,-2.1022 l 1.87865,-0.5394 3.90076,3.8994 3.90077,3.8993 m 11.18623,-11.1882 -3.5027,-3.5044 c -1.92649,-1.9273 -3.54844,-3.5043 -3.60435,-3.5043 -0.0559,0 -0.63238,0.37 -1.28105,0.8223 l -1.17941,0.8223 -0.65627,-0.7051 c -0.36096,-0.3878 -0.65628,-0.7484 -0.65628,-0.8013 0,-0.071 3.65181,-2.3722 4.47115,-2.8173 0.0585,-0.032 1.91238,1.7477 4.1198,3.9543 l 4.01351,4.0122 m 5.40696,-5.4112 -4.38119,-4.3812 -4.38118,-4.3811 -7.52081,3.5274 c -4.13643,1.9401 -7.59972,3.5577 -7.69619,3.5947 -0.0965,0.037 -1.1391,-0.3048 -2.31695,-0.7596 l -2.14154,-0.827 -2.44063,1.5941 c -1.34235,0.8768 -6.70096,4.3754 -11.90804,7.7746 -5.20708,3.3992 -9.63605,6.3072 -9.84216,6.4621 -0.3247,0.244 -0.71863,1.148 -2.94852,6.7665 l -2.57376,6.4849 -6.08855,5.7234 c -3.34871,3.1478 -6.11385,5.7428 -6.14476,5.7666 -0.0309,0.024 0.0774,0.2877 0.24062,0.5866 0.16326,0.2988 0.27154,0.5653 0.24063,0.5921 -0.0309,0.027 -3.86916,3.353 -8.52945,7.3914 l -8.47324,7.3427 -0.50923,-1.5155 c -0.28006,-0.8334 -0.57606,-1.6377 -0.65775,-1.7872 l -0.14854,-0.2717 -0.44665,0.3031 c -0.51143,0.347 -1.50855,0.6711 -2.06204,0.6701 -0.5274,0 -1.25566,-0.219 -1.47971,-0.4431 -0.49503,-0.495 -0.0662,-1.7252 1.0046,-2.8818 0.80175,-0.866 1.25682,-1.1635 2.116,-1.3834 l 0.64567,-0.1652 -0.65568,-0.4512 c -1.32806,-0.9138 -3.33156,-1.2924 -4.77444,-0.9023 -0.37185,0.1005 -0.68698,0.1719 -0.70031,0.1586 -0.0133,-0.013 -0.1138,-0.458 -0.22331,-0.9881 -0.28442,-1.377 -0.94257,-2.7791 -1.30452,-2.7791 -0.0548,0 -0.41077,0.4724 -0.79105,1.0499 -0.77438,1.1759 -1.89814,2.4468 -2.37999,2.6917 -0.50699,0.2576 -0.87162,0.3447 -0.87162,0.208 0,-0.2946 6.04255,-14.4501 6.27102,-14.6908 0.0552,-0.058 1.04336,-0.205 2.1959,-0.3263 l 2.09554,-0.2207 2.27978,-1.1866 c 1.73671,-0.904 2.29396,-1.2509 2.3394,-1.4565 0.0328,-0.1484 0.2819,-2.1787 0.55357,-4.5117 0.27166,-2.3331 0.52549,-4.4427 0.56405,-4.688 l 0.0701,-0.4461 -3.38463,-2.6085 -3.38465,-2.6086 0.26061,-0.3525 c 0.14334,-0.1938 0.32097,-0.3159 0.39475,-0.2713 0.0738,0.045 1.56304,1.1837 3.30947,2.5311 1.74641,1.3474 3.21885,2.4014 3.27207,2.3423 0.1664,-0.185 3.61123,-6.7404 3.61011,-6.87 0,-0.068 -0.56103,-1.0506 -1.24545,-2.1844 -1.2007,-1.989 -1.25073,-2.1008 -1.42532,-3.1855 -0.0995,-0.6182 -0.23043,-1.1568 -0.29088,-1.1968 -0.0605,-0.04 -2.3968,-1.9263 -5.19183,-4.1917 -2.79504,-2.2654 -5.10588,-4.1163 -5.1352,-4.113 -0.0293,0 -2.04124,1.0545 -4.47093,2.3361 l -4.41762,2.3302 -3.00577,2.5439 c -1.65317,1.3991 -3.38456,2.7889 -3.84753,3.0884 l -0.84177,0.5446 -2.46272,3.8584 -2.46271,3.8584 0.0576,1.1066 0.0576,1.1066 -4.15209,4.5492 c -2.28366,2.5021 -5.28915,5.7907 -6.67888,7.3079 l -2.52678,2.7586 -0.26484,-1.5905 c -0.24634,-1.4794 -0.47584,-2.2668 -0.66069,-2.2668 -0.0424,0 -0.60386,0.547 -1.2477,1.2155 -1.13216,1.1756 -2.11258,1.8583 -2.66863,1.8583 -0.12622,0 -0.26639,0.037 -0.31146,0.082 m -0.082,96.5315 2.3525,1.2566 2.35249,1.2566 m 113.7627,-33.3522 c 0.37194,-0.2997 0.67625,-0.5876 0.67625,-0.6399 0,-0.1429 -6.50046,-8.3749 -6.61914,-8.3823 -0.0564,0 -0.4279,0.2491 -0.82549,0.5615 l -0.7229,0.5679 0.64107,0.8185 c 2.99141,3.8195 6.04359,7.6345 6.10235,7.6276 0.0394,0 0.37593,-0.2536 0.74786,-0.5533 z m -18.44301,16.2384 c 3.7526,-3.6237 4.61176,-4.5131 4.61618,-4.7791 0.004,-0.2286 0.21615,-0.5397 0.70698,-1.0357 0.38585,-0.39 0.70156,-0.7489 0.70156,-0.7977 0,-0.049 -0.23893,-0.089 -0.53097,-0.089 -0.79554,0 -1.70385,-0.3155 -2.14216,-0.744 -0.43709,-0.4273 -0.7946,-1.2845 -1.16679,-2.7976 -0.15234,-0.6194 -0.30502,-1.0004 -0.38804,-0.9684 -0.0753,0.029 -2.15639,0.8404 -4.62468,1.8032 -2.46829,0.9628 -4.58008,1.7859 -4.69286,1.8291 -0.17268,0.066 -0.11688,0.195 0.35318,0.8162 0.52644,0.6957 1.26215,1.8818 1.26469,2.0389 0.001,0.039 -0.30231,0.046 -0.67321,0.016 -0.72289,-0.06 -1.42567,0.073 -2.55285,0.4842 l -0.70666,0.2575 0.38685,0.4406 c 0.51226,0.5834 0.9728,1.6117 0.99732,2.2267 0.0165,0.413 -0.0513,0.5691 -0.40588,0.935 -0.49872,0.5146 -1.85613,1.2257 -2.56965,1.3463 -0.27471,0.046 -0.49929,0.121 -0.49904,0.1658 0,0.045 0.47746,0.2688 1.0605,0.4978 0.85054,0.3342 1.09953,0.4911 1.25982,0.7941 0.67426,1.2744 1.55685,1.3982 2.78609,0.3909 0.2772,-0.2271 0.63854,-0.6665 0.80296,-0.9765 0.16444,-0.3099 0.35438,-0.5456 0.4221,-0.5237 0.28523,0.092 0.6856,1.0943 0.83028,2.0779 l 0.15353,1.0438 4.61075,-4.4523 z m 1.73726,11.2107 c 1.03152,-0.9021 8.10963,-7.7405 10.0598,-9.7192 0.57124,-0.5795 1.00548,-1.0869 0.96495,-1.1274 -0.0405,-0.041 -0.55603,-0.4251 -1.14558,-0.8546 l -1.07191,-0.7808 -4.56528,4.0084 c -2.51089,2.2046 -5.16006,4.5315 -5.88702,5.171 -0.72696,0.6394 -1.31999,1.2241 -1.31784,1.2994 0.002,0.075 0.0839,0.2426 0.18179,0.3719 0.0978,0.1292 0.1543,0.3506 0.12551,0.4918 -0.0288,0.1412 -0.0863,0.5697 -0.12773,0.9522 l -0.0753,0.6954 0.86162,0.196 c 0.47389,0.1078 0.88551,0.196 0.91473,0.196 0.0292,0 0.51625,-0.4051 1.0823,-0.9001 z m -71.5295,1.0235 c 0.8702,-1.2241 1.56182,-2.2409 1.53692,-2.2597 -0.0249,-0.019 -0.30992,-0.2205 -0.63336,-0.4482 -0.34791,-0.2449 -0.5625,-0.4805 -0.52547,-0.577 0.0344,-0.09 0.28523,-0.491 0.55733,-0.8917 0.27211,-0.4007 0.49474,-0.7714 0.49474,-0.8239 0,-0.053 -0.31336,-0.4121 -0.69637,-0.7991 l -0.69636,-0.7037 0.8635,-1.1488 0.86351,-1.1489 0.0904,-2.4236 c 0.0497,-1.3331 0.0603,-2.4237 0.0235,-2.4237 -0.0368,0 -0.79645,0.8589 -1.68815,1.9088 -1.13767,1.3394 -1.68046,1.8909 -1.81978,1.8488 -0.2811,-0.085 -1.28605,-0.3083 -1.40248,-0.3119 -0.0536,0 -0.26368,0.3677 -0.46696,0.8207 -0.28565,0.6367 -0.42548,1.244 -0.6157,2.6743 l -0.24611,1.8505 -1.03936,2.1916 c -0.67207,1.4171 -1.34005,2.6118 -1.8902,3.3805 -0.46796,0.6538 -0.84129,1.196 -0.82961,1.2048 0.0117,0.01 0.32556,-0.028 0.69749,-0.082 1.0697,-0.1558 2.68062,-0.1238 3.75008,0.075 0.541,0.1004 1.23261,0.212 1.53692,0.248 l 0.55329,0.066 1.5822,-2.2255 z m -21.03731,0.3944 0.84633,0.7106 c 1.4716,1.2356 3.179,1.9785 4.62257,2.0113 l 0.81565,0.019 0.23397,-1.1619 0.23397,-1.1619 1.35081,-1.4145 c 1.46481,-1.5339 1.53421,-1.6369 2.05831,-3.0544 0.19388,-0.5243 0.49778,-1.2699 0.67535,-1.6569 0.44363,-0.9667 0.84532,-3.3996 0.79122,-4.792 l -0.0421,-1.0832 m 21.29067,-20.8398 c 0.37924,0.4839 0.79833,1.5475 0.86525,2.1959 0.13131,1.2724 -0.61782,2.6906 -1.89652,3.5906 -0.3904,0.2748 -0.81886,0.6998 -0.95214,0.9444 -0.20294,0.3726 -0.29344,0.4346 -0.557,0.3819 -0.26294,-0.053 -0.34696,0 -0.51104,0.3466 l -0.19639,0.4096 -0.22227,-0.4611 c -0.20783,-0.4311 -0.40382,-0.5619 -0.57914,-0.3865 -0.041,0.041 0.13862,0.3441 0.39912,0.6737 0.60999,0.7717 0.91815,1.6822 0.81761,2.4157 -0.0417,0.304 -0.74639,2.0818 -1.56604,3.9507 -0.81964,1.8688 -1.84938,4.3661 -2.28828,5.5495 -0.72597,1.9574 -0.80985,2.2828 -0.92873,3.6028 -0.12727,1.413 -0.12369,1.458 0.13671,1.7184 l 0.2674,0.2674 0.38852,-0.3885 0.38851,-0.3885 0.40897,0.5144 c 0.39175,0.4927 0.40901,0.559 0.41016,1.5764 l 0.001,1.062 -1.06569,1.4897 c -1.019,1.4244 -1.07568,1.4806 -1.29391,1.2831 -0.13605,-0.1231 -0.26923,-0.1605 -0.32973,-0.093 -0.0558,0.063 -0.80452,1.0494 -1.66379,2.1927 -0.95765,1.2742 -1.51037,2.1108 -1.42812,2.1616 0.35776,0.2212 6.85949,0.7719 11.67064,0.9887 3.26004,0.1468 3.72977,0.1027 4.8441,-0.4557 0.53736,-0.2693 0.87833,-0.6977 0.74095,-0.9311 -0.0714,-0.1212 -0.097,-0.1262 0.80948,0.1579 1.75223,0.5493 4.91835,0.7914 6.27091,0.4796 0.61841,-0.1425 1.81181,-1.0354 2.62298,-1.9624 l 0.52341,-0.5982 1.29101,0.6735 c 3.48957,1.8202 4.78451,2.3034 6.20915,2.3165 0.78098,0.01 1.07192,-0.043 1.41216,-0.2428 0.64784,-0.3805 1.19065,-1.1739 1.36123,-1.9895 0.36715,-1.7555 -0.69901,-4.6459 -2.41386,-6.544 -1.08693,-1.2031 -3.58569,-2.7594 -5.03777,-3.1376 -0.99101,-0.2581 -1.86936,-0.8192 -3.04819,-1.9472 l -1.00326,-0.96 0.65921,-0.2525 c 0.84779,-0.3248 1.54261,-1.0255 2.01262,-2.0299 0.32067,-0.6853 0.36396,-0.8955 0.30906,-1.5009 -0.11496,-1.2677 -1.02013,-2.6877 -3.4104,-5.3498 -1.77086,-1.9723 -2.6924,-3.2957 -3.69168,-5.3015 -0.47213,-0.9477 -0.85842,-1.787 -0.85842,-1.8652 0,-0.1021 0.3203,-0.1229 1.13942,-0.074 0.98189,0.059 1.16378,0.039 1.31551,-0.1441 0.1549,-0.1867 0.14158,-0.2772 -0.11064,-0.7527 -0.41091,-0.7745 -3.97917,-4.2659 -7.44172,-7.2813 l -0.60719,-0.5287 m 13.65971,-13.6597 -0.17714,0.8421 c -0.11434,0.5435 -0.158,1.2675 -0.12316,2.0423 0.0485,1.077 0.0982,1.2852 0.48505,2.0287 1.61779,3.1095 1.62245,3.1203 1.62879,3.7972 0.003,0.362 0.0433,0.6583 0.0887,0.6583 0.0454,1e-4 0.4604,-0.2535 0.92215,-0.5634 l 0.83956,-0.5636 0.71172,0.7563 c 0.41774,0.4439 0.74278,0.9117 0.78694,1.1324 l 0.0752,0.3761 0.22713,-0.2922 c 0.75283,-0.9685 0.76535,-3.4763 0.023,-4.6092 -0.2572,-0.3926 -0.12752,-0.4963 0.75697,-0.6052 1.19347,-0.1469 3.01575,0.4275 3.67812,1.1594 0.12875,0.1423 0.32668,0.2587 0.43984,0.2587 0.3563,0 1.32975,0.7324 1.76859,1.3308 0.23195,0.3162 0.49928,0.8413 0.59407,1.1669 l 0.17236,0.5919 2.65252,-2.9281 c 1.45889,-1.6104 5.03823,-5.6103 7.95407,-8.8886 l 5.30155,-5.9606 -0.68728,-0.6946 -0.68729,-0.6945 2.91837,-3.2426 c 1.60511,-1.7834 3.13674,-3.4708 3.40362,-3.7497 l 0.48525,-0.5071 -1.25966,-0.9862 -1.25965,-0.9863 -0.5544,0.2376 c -2.47199,1.0596 -5.6195,1.0112 -7.84615,-0.1207 -0.79576,-0.4046 -1.52026,-0.8831 -2.13838,-1.4123 l -0.40598,-0.3476 m 11.25856,-11.1698 c 0.05,0 0.57582,0.447 1.16857,0.9934 0.59275,0.5464 1.31761,1.1354 1.6108,1.3089 0.51271,0.3034 0.5785,0.3117 1.72135,0.2165 1.64202,-0.1366 2.00696,-0.1185 2.49002,0.1234 0.23078,0.1156 1.26301,1.0474 2.29384,2.0707 l 1.87424,1.8605 0.92418,-0.918 0.92418,-0.918 -4.45789,-4.4591 -4.45788,-4.4592 m 10.63398,-10.6339 3.29566,3.2939 3.29566,3.294 0.82299,-0.8352 0.82299,-0.8352 -3.28775,-3.2895 -3.28775,-3.2894 m 4.7334,-4.7333 3.13916,3.1354 c 1.72654,1.7244 3.19064,3.2249 3.25357,3.3345 0.0823,0.1433 -0.26258,1.3289 -1.22898,4.2251 l -1.34338,4.026 -1.1652,1.1558 c -1.28896,1.2785 -2.2496,2.6145 -2.65066,3.6865 -0.41359,1.1054 -0.57098,2.9474 -0.40374,4.7251 0.0776,0.8251 0.16697,1.526 0.19853,1.5575 0.10583,0.1058 2.2694,-1.0829 3.05246,-1.6771 1.05989,-0.8043 2.1747,-1.9584 2.64602,-2.7392 0.61764,-1.0232 0.8063,-1.8919 0.83556,-3.8472 0.0238,-1.5925 0.0554,-1.8042 0.42138,-2.828 0.53513,-1.4968 1.44751,-4.3932 2.10225,-6.6738 l 0.53936,-1.8786 -3.89934,-3.9008 -3.89934,-3.9008 m 11.18825,-11.1862 3.50432,3.5027 c 1.92738,1.9265 3.50433,3.5485 3.50433,3.6044 0,0.056 -0.37004,0.6323 -0.82229,1.281 l -0.8223,1.1794 0.70508,0.6563 c 0.38778,0.3609 0.74839,0.6563 0.80136,0.6563 0.0712,0 2.3722,-3.6518 2.81729,-4.4712 0.0318,-0.058 -1.74771,-1.9124 -3.95438,-4.1198 l -4.01212,-4.0135 m 5.41114,-5.4069 4.38118,4.3811 4.38119,4.3812 -3.52742,7.5208 c -1.94008,4.1365 -3.55771,7.5998 -3.59473,7.6962 -0.037,0.096 0.30483,1.1391 0.75966,2.317 l 0.82696,2.1415 -1.59413,2.4406 c -0.87677,1.3424 -4.37534,6.701 -7.77458,11.9081 -3.39924,5.207 -6.30716,9.636 -6.46206,9.8421 -0.244,0.3247 -1.14802,0.7187 -6.76654,2.9486 l -6.48491,2.5737 -5.72336,6.0886 c -3.14785,3.3487 -5.74282,6.1138 -5.76661,6.1447 -0.0238,0.031 -0.28775,-0.077 -0.5866,-0.2406 -0.29885,-0.1632 -0.5653,-0.2715 -0.59212,-0.2406 -0.0268,0.031 -3.35296,3.8691 -7.39141,8.5294 l -7.34266,8.4733 1.51543,0.5092 c 0.83349,0.2801 1.63772,0.5761 1.7872,0.6578 l 0.27176,0.1485 -0.30309,0.4466 c -0.34707,0.5115 -0.6711,1.5086 -0.6701,2.0621 10e-4,0.5274 0.21902,1.2556 0.44307,1.4797 0.49503,0.495 1.72524,0.066 2.88182,-1.0046 0.86598,-0.8018 1.16349,-1.2568 1.38337,-2.116 l 0.16524,-0.6457 0.45115,0.6557 c 0.91379,1.3281 1.29244,3.3316 0.90233,4.7744 -0.10053,0.3719 -0.17189,0.687 -0.15856,0.7003 0.0133,0.013 0.45795,0.1138 0.98806,0.2233 1.37703,0.2845 2.77911,0.9426 2.77911,1.3046 0,0.055 -0.47245,0.4108 -1.04988,0.791 -1.1759,0.7744 -2.44683,1.8982 -2.69171,2.38 -0.25766,0.507 -0.34468,0.8716 -0.20806,0.8716 0.2946,0 14.45019,-6.0425 14.69082,-6.271 0.0581,-0.055 0.20499,-1.0433 0.32634,-2.1959 l 0.22064,-2.0955 1.18665,-2.2798 c 0.90398,-1.7367 1.25091,-2.294 1.45648,-2.3394 0.14841,-0.033 2.17869,-0.2819 4.51173,-0.5536 2.33304,-0.2716 4.44262,-0.5255 4.68798,-0.564 l 0.44607,-0.07 2.60856,3.3846 2.60855,3.3847 0.35249,-0.2606 c 0.19388,-0.1434 0.31595,-0.321 0.27129,-0.3948 -0.0447,-0.074 -1.18364,-1.563 -2.53103,-3.3095 -1.34741,-1.7464 -2.40144,-3.2188 -2.3423,-3.272 0.18493,-0.1664 6.74038,-3.6113 6.86997,-3.6101 0.0676,0 1.05059,0.561 2.18435,1.2454 1.98906,1.2007 2.10086,1.2507 3.18552,1.4253 0.61825,0.1 1.15684,0.2305 1.19685,0.2909 0.04,0.061 1.92629,2.3968 4.1917,5.1918 2.26542,2.7951 4.11626,5.1059 4.11299,5.1352 -0.003,0.029 -1.05452,2.0413 -2.33612,4.471 l -2.33016,4.4176 -2.54392,3.0058 c -1.39915,1.6531 -2.78895,3.3845 -3.08844,3.8475 l -0.54455,0.8418 -3.85841,2.4627 -3.85841,2.4627 -1.10658,-0.058 -1.10658,-0.058 -4.54928,4.1521 c -2.5021,2.2837 -5.79064,5.2892 -7.30787,6.6789 l -2.75858,2.5268 1.59052,0.2648 c 1.4794,0.2464 2.26678,0.4759 2.26678,0.6607 0,0.042 -0.54698,0.6039 -1.21551,1.2477 -1.1756,1.1322 -1.85832,2.1126 -1.85832,2.6686 0,0.1263 -0.0369,0.2664 -0.082,0.3115 m -96.53148,0.082 -1.25662,-2.3525 -1.25662,-2.3525 m 113.75814,42.7574 c 0.37194,0.2997 0.67625,0.5877 0.67625,0.64 0,0.1428 -6.50046,8.3748 -6.61914,8.3823 -0.0564,0 -0.4279,-0.2492 -0.82549,-0.5615 l -0.7229,-0.568 0.64107,-0.8185 c 2.99141,-3.8194 6.04359,-7.6344 6.10235,-7.6275 0.0394,0 0.37593,0.2535 0.74786,0.5532 z m -18.44301,-16.2383 c 3.7526,3.6236 4.61176,4.5131 4.61618,4.7791 0.004,0.2286 0.21615,0.5397 0.70698,1.0357 0.38585,0.3899 0.70156,0.7489 0.70156,0.7976 0,0.049 -0.23893,0.089 -0.53097,0.089 -0.79554,0 -1.70385,0.3154 -2.14216,0.7439 -0.43709,0.4274 -0.7946,1.2846 -1.16679,2.7977 -0.15234,0.6193 -0.30502,1.0003 -0.38804,0.9684 -0.0753,-0.029 -2.15639,-0.8404 -4.62468,-1.8032 -2.46829,-0.9628 -4.58008,-1.7859 -4.69286,-1.8291 -0.17268,-0.066 -0.11688,-0.1951 0.35318,-0.8162 0.52644,-0.6957 1.26215,-1.8818 1.26469,-2.0389 10e-4,-0.039 -0.30231,-0.046 -0.67321,-0.016 -0.72289,0.06 -1.42567,-0.073 -2.55285,-0.4841 l -0.70666,-0.2576 0.38685,-0.4406 c 0.51226,-0.5834 0.9728,-1.6116 0.99732,-2.2266 0.0165,-0.4131 -0.0513,-0.5691 -0.40588,-0.935 -0.49872,-0.5146 -1.85613,-1.2258 -2.56965,-1.3463 -0.27471,-0.046 -0.49929,-0.1211 -0.49904,-0.1658 0,-0.045 0.47746,-0.2688 1.0605,-0.4979 0.85054,-0.3341 1.09953,-0.4911 1.25982,-0.794 0.67426,-1.2744 1.55685,-1.3983 2.78609,-0.391 0.2772,0.2271 0.63854,0.6666 0.80296,0.9765 0.16444,0.31 0.35438,0.5457 0.4221,0.5238 0.28523,-0.092 0.6856,-1.0943 0.83028,-2.0779 l 0.15353,-1.0439 4.61075,4.4524 z m 1.73726,-11.2108 c 1.03152,0.9021 8.10963,7.7406 10.0598,9.7192 0.57124,0.5796 1.00548,1.087 0.96495,1.1275 -0.0405,0.041 -0.55603,0.4251 -1.14558,0.8545 l -1.07191,0.7809 -4.56528,-4.0084 c -2.51089,-2.2046 -5.16006,-4.5316 -5.88702,-5.171 -0.72696,-0.6394 -1.31999,-1.2242 -1.31784,-1.2994 0.002,-0.075 0.0839,-0.2426 0.18179,-0.3719 0.0978,-0.1293 0.1543,-0.3506 0.12551,-0.4918 -0.0288,-0.1413 -0.0863,-0.5697 -0.12773,-0.9522 l -0.0753,-0.6955 0.86162,-0.1959 c 0.47389,-0.1078 0.88551,-0.196 0.91473,-0.196 0.0292,0 0.51625,0.405 1.0823,0.9 z m -71.5295,-1.0234 c 0.8702,1.224 1.56182,2.2409 1.53692,2.2597 -0.0249,0.019 -0.30992,0.2205 -0.63336,0.4481 -0.34791,0.2449 -0.5625,0.4806 -0.52547,0.5771 0.0344,0.09 0.28523,0.491 0.55733,0.8916 0.27211,0.4007 0.49474,0.7715 0.49474,0.824 0,0.052 -0.31336,0.412 -0.69637,0.7991 l -0.69636,0.7037 0.8635,1.1488 0.86351,1.1488 0.0904,2.4237 c 0.0497,1.333 0.0603,2.4237 0.0235,2.4237 -0.0368,0 -0.79645,-0.859 -1.68815,-1.9088 -1.13767,-1.3395 -1.68046,-1.8909 -1.81978,-1.8489 -0.2811,0.085 -1.28605,0.3084 -1.40248,0.312 -0.0536,0 -0.26368,-0.3677 -0.46696,-0.8208 -0.28565,-0.6367 -0.42548,-1.244 -0.6157,-2.6742 l -0.24611,-1.8505 -1.03936,-2.1917 c -0.67207,-1.4171 -1.34005,-2.6117 -1.8902,-3.3804 -0.46796,-0.6539 -0.84129,-1.1961 -0.82961,-1.2049 0.0117,-0.01 0.32556,0.028 0.69749,0.082 1.0697,0.1559 2.68062,0.1238 3.75008,-0.075 0.541,-0.1004 1.23261,-0.212 1.53692,-0.2481 l 0.55329,-0.066 1.5822,2.2255 z m -21.03731,-0.3944 0.84633,-0.7107 c 1.4716,-1.2356 3.179,-1.9785 4.62257,-2.0113 l 0.81565,-0.019 0.23397,1.1619 0.23397,1.1619 1.35081,1.4146 c 1.46481,1.5339 1.53421,1.6369 2.05831,3.0544 0.19388,0.5243 0.49778,1.2699 0.67535,1.6568 0.44363,0.9668 0.84532,3.3996 0.79122,4.7921 l -0.0421,1.0832 m 21.29067,20.8398 c 0.37924,-0.4839 0.79833,-1.5475 0.86525,-2.196 0.13131,-1.2723 -0.61782,-2.6906 -1.89652,-3.5906 -0.3904,-0.2748 -0.81886,-0.6997 -0.95214,-0.9444 -0.20294,-0.3725 -0.29344,-0.4345 -0.557,-0.3818 -0.26294,0.053 -0.34696,0 -0.51104,-0.3467 l -0.19639,-0.4095 -0.22227,0.461 c -0.20783,0.4311 -0.40382,0.5619 -0.57914,0.3866 -0.041,-0.041 0.13862,-0.3442 0.39912,-0.6737 0.60999,-0.7717 0.91815,-1.6822 0.81761,-2.4157 -0.0417,-0.3041 -0.74639,-2.0819 -1.56604,-3.9507 -0.81964,-1.8688 -1.84938,-4.3661 -2.28828,-5.5496 -0.72597,-1.9573 -0.80985,-2.2827 -0.92873,-3.6027 -0.12727,-1.4131 -0.12369,-1.4581 0.13671,-1.7185 l 0.2674,-0.2674 0.38852,0.3885 0.38851,0.3886 0.40897,-0.5144 c 0.39175,-0.4927 0.40901,-0.5591 0.41016,-1.5764 l 0.001,-1.0621 -1.06569,-1.4896 c -1.019,-1.4244 -1.07568,-1.4806 -1.29391,-1.2831 -0.13605,0.1231 -0.26923,0.1605 -0.32973,0.093 -0.0558,-0.063 -0.80452,-1.0493 -1.66379,-2.1926 -0.95765,-1.2742 -1.51037,-2.1109 -1.42812,-2.1617 0.35776,-0.2211 6.85949,-0.7719 11.67064,-0.9886 3.26004,-0.1469 3.72977,-0.1027 4.8441,0.4557 0.53736,0.2692 0.87833,0.6977 0.74095,0.931 -0.0714,0.1213 -0.097,0.1262 0.80948,-0.1579 1.75223,-0.5492 4.91835,-0.7913 6.27091,-0.4796 0.61841,0.1426 1.81181,1.0354 2.62298,1.9624 l 0.52341,0.5982 1.29101,-0.6734 c 3.48957,-1.8203 4.78451,-2.3034 6.20915,-2.3165 0.78098,-0.01 1.07192,0.043 1.41216,0.2427 0.64784,0.3806 1.19065,1.174 1.36123,1.9896 0.36715,1.7555 -0.69901,4.6458 -2.41386,6.544 -1.08693,1.2031 -3.58569,2.7593 -5.03777,3.1375 -0.99101,0.2582 -1.86936,0.8193 -3.04819,1.9473 l -1.00326,0.96 0.65921,0.2525 c 0.84779,0.3247 1.54261,1.0255 2.01262,2.0299 0.32067,0.6852 0.36396,0.8954 0.30906,1.5009 -0.11496,1.2677 -1.02013,2.6876 -3.4104,5.3498 -1.77086,1.9722 -2.6924,3.2956 -3.69168,5.3014 -0.47213,0.9477 -0.85842,1.7871 -0.85842,1.8652 0,0.1022 0.3203,0.123 1.13942,0.074 0.98189,-0.059 1.16378,-0.039 1.31551,0.1442 0.1549,0.1866 0.14158,0.2772 -0.11064,0.7526 -0.41091,0.7746 -3.97917,4.2659 -7.44172,7.2813 l -0.60719,0.5288 m 13.65971,13.6597 -0.17714,-0.8421 c -0.11434,-0.5436 -0.158,-1.2676 -0.12316,-2.0423 0.0485,-1.0771 0.0982,-1.2853 0.48505,-2.0288 1.61779,-3.1094 1.62245,-3.1203 1.62879,-3.7971 0.003,-0.362 0.0433,-0.6583 0.0887,-0.6584 0.0454,0 0.4604,0.2535 0.92215,0.5635 l 0.83956,0.5636 0.71172,-0.7563 c 0.41774,-0.444 0.74278,-0.9117 0.78694,-1.1325 l 0.0752,-0.3761 0.22713,0.2922 c 0.75283,0.9685 0.76535,3.4763 0.023,4.6093 -0.2572,0.3926 -0.12752,0.4962 0.75697,0.6051 1.19347,0.147 3.01575,-0.4274 3.67812,-1.1593 0.12875,-0.1423 0.32668,-0.2587 0.43984,-0.2587 0.3563,0 1.32975,-0.7325 1.76859,-1.3308 0.23195,-0.3162 0.49928,-0.8413 0.59407,-1.1669 l 0.17236,-0.5919 2.65252,2.928 c 1.45889,1.6104 5.03823,5.6103 7.95407,8.8887 l 5.30155,5.9606 -0.68728,0.6945 -0.68729,0.6946 2.91837,3.2426 c 1.60511,1.7834 3.13674,3.4707 3.40362,3.7496 l 0.48525,0.5071 -1.25966,0.9863 -1.25965,0.9863 -0.5544,-0.2377 c -2.47199,-1.0596 -5.6195,-1.0111 -7.84615,0.1208 -0.79576,0.4045 -1.52026,0.883 -2.13838,1.4123 l -0.40598,0.3476 m 11.25856,11.1698 c 0.05,0 0.57582,-0.4471 1.16857,-0.9935 0.59275,-0.5464 1.31761,-1.1354 1.6108,-1.3088 0.51271,-0.3034 0.5785,-0.3117 1.72135,-0.2166 1.64202,0.1367 2.00696,0.1186 2.49002,-0.1234 0.23078,-0.1155 1.26301,-1.0473 2.29384,-2.0706 l 1.87424,-1.8606 0.92418,0.918 0.92418,0.918 -4.45789,4.4592 -4.45788,4.4591 m 10.63398,10.634 3.29566,-3.294 3.29566,-3.2939 0.82299,0.8352 0.82299,0.8352 -3.28775,3.2894 -3.28775,3.2895 m 4.7334,4.7332 3.13916,-3.1353 c 1.72654,-1.7244 3.19064,-3.2249 3.25357,-3.3345 0.0823,-0.1433 -0.26258,-1.329 -1.22898,-4.2252 l -1.34338,-4.0259 -1.1652,-1.1558 c -1.28896,-1.2785 -2.2496,-2.6146 -2.65066,-3.6865 -0.41359,-1.1054 -0.57098,-2.9475 -0.40374,-4.7251 0.0776,-0.8251 0.16697,-1.526 0.19853,-1.5576 0.10583,-0.1058 2.2694,1.083 3.05246,1.6772 1.05989,0.8043 2.1747,1.9583 2.64602,2.7392 0.61764,1.0232 0.8063,1.8918 0.83556,3.8472 0.0238,1.5925 0.0554,1.8042 0.42138,2.8279 0.53513,1.4968 1.44751,4.3933 2.10225,6.6738 l 0.53936,1.8787 -3.89934,3.9008 -3.89934,3.9007 m 11.18825,11.1863 3.50433,-3.5027 c 1.92737,-1.9265 3.50432,-3.5485 3.50432,-3.6044 0,-0.056 -0.37003,-0.6324 -0.82229,-1.2811 l -0.82228,-1.1794 0.70506,-0.6562 c 0.38778,-0.361 0.7484,-0.6563 0.80136,-0.6563 0.0712,0 2.3722,3.6518 2.81731,4.4711 0.0317,0.059 -1.74773,1.9124 -3.9544,4.1198 l -4.01211,4.0135 m 5.41114,5.407 4.38117,-4.3812 4.38119,-4.3812 -3.52742,-7.5208 c -1.94008,-4.1364 -3.55771,-7.5997 -3.59473,-7.6962 -0.037,-0.096 0.30483,-1.1391 0.75966,-2.3169 l 0.82696,-2.1415 -1.59413,-2.4407 c -0.87677,-1.3423 -4.37534,-6.7009 -7.77458,-11.908 -3.39924,-5.2071 -6.30716,-9.6361 -6.46206,-9.8422 -0.244,-0.3247 -1.14802,-0.7186 -6.76654,-2.9485 l -6.48491,-2.5738 -5.72336,-6.0885 c -3.14785,-3.3487 -5.74282,-6.1139 -5.76661,-6.1448 -0.0238,-0.031 -0.28775,0.077 -0.5866,0.2407 -0.29885,0.1632 -0.5653,0.2715 -0.59212,0.2406 -0.0268,-0.031 -3.35296,-3.8692 -7.39141,-8.5295 l -7.34266,-8.4732 1.51543,-0.5092 c 0.83349,-0.2801 1.63772,-0.5761 1.7872,-0.6578 l 0.27176,-0.1485 -0.30309,-0.4467 c -0.34707,-0.5114 -0.6711,-1.5085 -0.6701,-2.062 0.001,-0.5274 0.21902,-1.2557 0.44307,-1.4797 0.49503,-0.4951 1.72524,-0.066 2.88182,1.0046 0.86598,0.8017 1.16349,1.2568 1.38337,2.116 l 0.16524,0.6456 0.45115,-0.6556 c 0.91379,-1.3281 1.29244,-3.3316 0.90233,-4.7745 -0.10053,-0.3718 -0.17189,-0.687 -0.15856,-0.7003 0.0133,-0.013 0.45795,-0.1138 0.98806,-0.2233 1.37703,-0.2844 2.77911,-0.9426 2.77911,-1.3045 0,-0.055 -0.47245,-0.4108 -1.04988,-0.7911 -1.1759,-0.7743 -2.44683,-1.8981 -2.69171,-2.38 -0.25766,-0.5069 -0.34468,-0.8716 -0.20806,-0.8716 0.2946,0 14.45019,6.0426 14.69082,6.271 0.0581,0.055 0.20499,1.0434 0.32634,2.1959 l 0.22064,2.0956 1.18665,2.2798 c 0.90398,1.7367 1.25091,2.2939 1.45648,2.3394 0.14841,0.033 2.17869,0.2819 4.51173,0.5535 2.33304,0.2717 4.44262,0.5255 4.68798,0.5641 l 0.44607,0.07 2.60856,-3.3847 2.60855,-3.3846 0.35249,0.2606 c 0.19388,0.1433 0.31595,0.321 0.27129,0.3948 -0.0447,0.074 -1.18364,1.563 -2.53103,3.3094 -1.34741,1.7464 -2.40144,3.2189 -2.3423,3.2721 0.18493,0.1664 6.74038,3.6112 6.86997,3.6101 0.0676,0 1.05059,-0.561 2.18435,-1.2454 1.98906,-1.2007 2.10087,-1.2508 3.18552,-1.4254 0.61825,-0.1 1.15684,-0.2304 1.19686,-0.2909 0.04,-0.06 1.92628,-2.3967 4.19169,-5.1918 2.26542,-2.795 4.11626,-5.1059 4.11299,-5.1352 -0.003,-0.029 -1.05452,-2.0412 -2.33612,-4.4709 l -2.33016,-4.4176 -2.5439,-3.0058 c -1.39915,-1.6532 -2.78896,-3.3846 -3.08846,-3.8475 l -0.54455,-0.8418 -3.85841,-2.4627 -3.85841,-2.4627 -1.10658,0.058 -1.10658,0.058 -4.54928,-4.1521 c -2.5021,-2.2836 -5.79064,-5.2891 -7.30787,-6.6789 l -2.75858,-2.5267 1.59052,-0.2649 c 1.4794,-0.2463 2.26678,-0.4758 2.26678,-0.6607 0,-0.042 -0.54698,-0.6038 -1.21551,-1.2477 -1.1756,-1.1321 -1.85832,-2.1126 -1.85832,-2.6686 0,-0.1262 -0.0369,-0.2664 -0.082,-0.3115 m -96.53148,-0.082 -1.25662,2.3525 -1.25662,2.3525 m 33.35747,113.7581 c 0.29968,0.3719 0.58767,0.6762 0.63995,0.6762 0.14283,0 8.37487,-6.5004 8.38231,-6.6191 0.004,-0.056 -0.24914,-0.4279 -0.56152,-0.8255 l -0.56793,-0.7229 -0.81852,0.6411 c -3.81942,2.9914 -7.63447,6.0436 -7.62758,6.1023 0.005,0.039 0.25359,0.376 0.55329,0.7479 z m -16.23838,-18.443 c 3.62365,3.7526 4.51315,4.6118 4.77911,4.6162 0.22861,0 0.53973,0.2161 1.03573,0.7069 0.38993,0.3859 0.74885,0.7016 0.79762,0.7016 0.0488,0 0.0886,-0.2389 0.0886,-0.531 0,-0.7955 0.31547,-1.7038 0.744,-2.1421 0.42733,-0.4371 1.28453,-0.7946 2.79762,-1.1668 0.61934,-0.1523 1.00036,-0.305 0.96841,-0.3881 -0.029,-0.075 -0.8404,-2.1563 -1.80321,-4.6246 -0.96281,-2.4683 -1.78591,-4.5801 -1.82909,-4.6929 -0.0661,-0.1727 -0.19505,-0.1169 -0.81624,0.3532 -0.69568,0.5264 -1.88176,1.2621 -2.03886,1.2647 -0.0394,0 -0.0464,-0.3023 -0.0157,-0.6732 0.0599,-0.7229 -0.0733,-1.4257 -0.48414,-2.5529 l -0.25754,-0.7066 -0.44059,0.3868 c -0.58344,0.5123 -1.61165,0.9728 -2.22668,0.9973 -0.41306,0.017 -0.5691,-0.051 -0.93498,-0.4058 -0.51459,-0.4988 -1.22578,-1.8562 -1.34633,-2.5697 -0.0464,-0.2747 -0.12102,-0.4993 -0.16579,-0.499 -0.0448,0 -0.26882,0.4774 -0.49786,1.0605 -0.33416,0.8505 -0.49109,1.0995 -0.79405,1.2598 -1.27436,0.6742 -1.39823,1.5568 -0.39096,2.7861 0.22715,0.2772 0.6666,0.6385 0.97655,0.8029 0.30995,0.1645 0.54563,0.3544 0.52372,0.4221 -0.0923,0.2853 -1.09427,0.6856 -2.0779,0.8303 l -1.04385,0.1535 4.45233,4.6108 z m -11.21071,1.7373 c 0.9021,1.0315 7.74054,8.1096 9.71917,10.0598 0.57959,0.5712 1.08695,1.0054 1.12747,0.9649 0.0405,-0.041 0.42508,-0.556 0.85454,-1.1456 l 0.78086,-1.0719 -4.00839,-4.5653 c -2.20462,-2.5109 -4.53157,-5.16 -5.171,-5.887 -0.63943,-0.727 -1.22417,-1.32 -1.29943,-1.3178 -0.0752,0 -0.2426,0.084 -0.37187,0.1818 -0.12928,0.098 -0.35059,0.1543 -0.49182,0.1255 -0.14122,-0.029 -0.56971,-0.086 -0.9522,-0.1278 l -0.69545,-0.075 -0.19596,0.8616 c -0.10779,0.4739 -0.19597,0.8855 -0.19597,0.9147 0,0.029 0.40503,0.5163 0.90005,1.0824 z m -1.02345,-71.5296 c 1.22402,0.8703 2.24089,1.5619 2.25971,1.537 0.0188,-0.025 0.22047,-0.3099 0.44813,-0.6334 0.24488,-0.3479 0.48055,-0.5625 0.57706,-0.5255 0.0897,0.035 0.49096,0.2853 0.89165,0.5574 0.4007,0.2721 0.77146,0.4947 0.82393,0.4947 0.0525,0 0.41206,-0.3134 0.79911,-0.6964 l 0.70371,-0.6963 1.14881,0.8635 1.14883,0.8635 2.42366,0.09 c 1.33302,0.05 2.42367,0.06 2.42367,0.024 0,-0.037 -0.85895,-0.7964 -1.90879,-1.6881 -1.33946,-1.1377 -1.89091,-1.6805 -1.84886,-1.8198 0.0848,-0.2811 0.30835,-1.2861 0.31194,-1.4025 0.002,-0.053 -0.36768,-0.2637 -0.82074,-0.4669 -0.63669,-0.2857 -1.24398,-0.4255 -2.67423,-0.6157 l -1.85049,-0.2462 -2.19166,-1.0393 c -1.41712,-0.6721 -2.61177,-1.3401 -3.38046,-1.8902 -0.65385,-0.468 -1.19603,-0.8413 -1.20485,-0.8296 -0.009,0.012 0.0283,0.3255 0.0825,0.6975 0.15584,1.0697 0.12381,2.6806 -0.0746,3.75 -0.10035,0.541 -0.21196,1.2326 -0.24801,1.537 l -0.0655,0.5532 2.22549,1.5822 z m -0.39444,-21.0373 -0.71062,0.8464 c -1.2356,1.4716 -1.97849,3.179 -2.01128,4.6225 l -0.0185,0.8157 1.1619,0.234 1.16191,0.2339 1.41454,1.3508 c 1.53392,1.4648 1.6369,1.5343 3.05438,2.0584 0.52434,0.1938 1.26993,0.4977 1.65689,0.6753 0.96672,0.4436 3.39957,0.8453 4.79205,0.7912 l 1.08318,-0.042 m 20.83982,21.2907 c -0.48393,0.3792 -1.54755,0.7983 -2.19598,0.8653 -1.27231,0.1313 -2.69061,-0.6179 -3.5906,-1.8966 -0.27478,-0.3904 -0.69974,-0.8188 -0.94438,-0.9521 -0.37254,-0.203 -0.43458,-0.2934 -0.38187,-0.557 0.0526,-0.2629 -0.004,-0.347 -0.34663,-0.5111 l -0.40956,-0.1963 0.46108,-0.2223 c 0.43106,-0.2078 0.56188,-0.4038 0.38655,-0.5792 -0.041,-0.041 -0.34416,0.1387 -0.67372,0.3992 -0.77168,0.61 -1.68219,0.9181 -2.4157,0.8176 -0.30405,-0.042 -2.08186,-0.7464 -3.95069,-1.5661 -1.86883,-0.8196 -4.36614,-1.8493 -5.54957,-2.2883 -1.95738,-0.7259 -2.28272,-0.8098 -3.60274,-0.9287 -1.41304,-0.1272 -1.45805,-0.1237 -1.71846,0.1367 l -0.2674,0.2674 0.38851,0.3886 0.38852,0.3885 -0.51436,0.4089 c -0.4927,0.3918 -0.55906,0.4091 -1.57642,0.4102 l -1.06206,0 -1.48966,-1.0657 c -1.42437,-1.019 -1.48059,-1.0757 -1.28309,-1.2939 0.12311,-0.136 0.16053,-0.2692 0.0927,-0.3297 -0.0627,-0.056 -1.04934,-0.8045 -2.19264,-1.6638 -1.27421,-0.9576 -2.11083,-1.5104 -2.16166,-1.4281 -0.22111,0.3578 -0.77188,6.8595 -0.98863,11.6706 -0.14687,3.2601 -0.10268,3.7298 0.4557,4.8441 0.26926,0.5374 0.6977,0.8784 0.93103,0.741 0.12124,-0.071 0.12622,-0.097 -0.15789,0.8095 -0.54922,1.7522 -0.79136,4.9183 -0.47959,6.2709 0.14255,0.6184 1.03541,1.8118 1.9624,2.623 l 0.59819,0.5234 -0.67344,1.291 c -1.82026,3.4895 -2.30338,4.7845 -2.31648,6.2091 -0.007,0.781 0.0428,1.0719 0.24271,1.4122 0.38058,0.6478 1.17396,1.1906 1.98959,1.3612 1.7555,0.3672 4.64583,-0.699 6.54397,-2.4139 1.20311,-1.0869 2.75936,-3.5856 3.13757,-5.0377 0.25813,-0.991 0.81924,-1.8694 1.94724,-3.0482 l 0.96001,-1.0033 0.2525,0.6592 c 0.32472,0.8478 1.0255,1.5427 2.02986,2.0127 0.68528,0.3206 0.89548,0.3639 1.5009,0.309 1.26775,-0.1149 2.68767,-1.0201 5.3498,-3.4104 1.97226,-1.7708 3.29566,-2.6924 5.30148,-3.6917 0.94772,-0.4721 1.78704,-0.8584 1.86519,-0.8584 0.10214,0 0.12297,0.3203 0.0741,1.1394 -0.0586,0.9819 -0.0387,1.1638 0.14418,1.3156 0.18663,0.1549 0.27716,0.1415 0.75261,-0.1107 0.77458,-0.4109 4.26591,-3.9792 7.2813,-7.4417 l 0.52878,-0.6072 m 13.6597,13.6597 -0.8421,-0.1771 c -0.54358,-0.1144 -1.26756,-0.158 -2.04231,-0.1232 -1.07706,0.048 -1.28525,0.098 -2.02873,0.4851 -3.10945,1.6177 -3.1203,1.6224 -3.79716,1.6288 -0.36204,0 -0.65829,0.043 -0.65835,0.089 -8e-5,0.045 0.25349,0.4604 0.56345,0.9222 l 0.56359,0.8395 -0.75633,0.7117 c -0.44392,0.4178 -0.91167,0.7428 -1.13242,0.787 l -0.37611,0.075 0.2922,0.2271 c 0.96851,0.7529 3.47633,0.7654 4.60928,0.023 0.39255,-0.2572 0.49623,-0.1275 0.60512,0.757 0.14694,1.1934 -0.42745,3.0157 -1.15938,3.6781 -0.14226,0.1287 -0.25865,0.3267 -0.25865,0.4398 0,0.3563 -0.73248,1.3298 -1.33079,1.7686 -0.31624,0.232 -0.84135,0.4993 -1.16691,0.5941 l -0.59191,0.1724 2.92803,2.6525 c 1.61042,1.4589 5.61031,5.0382 8.88866,7.954 l 5.96063,5.3016 0.69453,-0.6873 0.69452,-0.6873 3.24259,2.9184 c 1.78343,1.6051 3.47079,3.1367 3.74969,3.4036 l 0.50708,0.4853 0.98628,-1.2597 0.98627,-1.2596 -0.23763,-0.5544 c -1.05962,-2.472 -1.01118,-5.6195 0.12075,-7.8462 0.40453,-0.7958 0.88303,-1.5202 1.4123,-2.1384 l 0.34762,-0.4059 m 11.16975,11.2585 c 0,0.05 -0.44704,0.5758 -0.99344,1.1686 -0.54639,0.5927 -1.13538,1.3176 -1.30886,1.6108 -0.30337,0.5127 -0.31165,0.5785 -0.21655,1.7213 0.13666,1.6421 0.11857,2.007 -0.12335,2.49 -0.11559,0.2308 -1.0474,1.2631 -2.0707,2.2939 l -1.86054,1.8742 0.91802,0.9242 0.918,0.9242 4.45914,-4.4579 4.45915,-4.4579 m 10.63398,10.634 -3.29397,3.2957 -3.29396,3.2956 0.8352,0.823 0.8352,0.823 3.28945,-3.2877 3.28944,-3.2878 m 4.73325,4.7334 -3.13531,3.1392 c -1.72442,1.7265 -3.22494,3.1906 -3.33451,3.2535 -0.14329,0.082 -1.32898,-0.2626 -4.22515,-1.229 l -4.02599,-1.3433 -1.15576,-1.1652 c -1.27855,-1.289 -2.61458,-2.2496 -3.6865,-2.6507 -1.10541,-0.4136 -2.94745,-0.571 -4.72514,-0.4037 -0.82506,0.078 -1.52595,0.1669 -1.55752,0.1985 -0.10582,0.1058 1.08296,2.2694 1.67717,3.0525 0.80429,1.0599 1.95833,2.1747 2.73915,2.646 1.02322,0.6176 1.89186,0.8063 3.84723,0.8355 1.59248,0.024 1.80419,0.055 2.82793,0.4214 1.49682,0.5351 4.39329,1.4475 6.67383,2.1023 l 1.87864,0.5393 3.90077,-3.8993 3.90077,-3.8994 m 11.18623,11.1883 -3.50271,3.5043 c -1.92648,1.9274 -3.54845,3.5044 -3.60434,3.5044 -0.0559,0 -0.63239,-0.3701 -1.28105,-0.8223 l -1.17941,-0.8223 -0.65627,0.705 c -0.36096,0.3878 -0.65628,0.7484 -0.65628,0.8014 0,0.071 3.6518,2.3722 4.47114,2.8173 0.0585,0.032 1.91238,-1.7477 4.11981,-3.9544 l 4.01351,-4.0121 m 5.40695,5.4111 -4.38119,4.3812 -4.38119,4.3812 -7.52078,-3.5274 c -4.13645,-1.9401 -7.59974,-3.5577 -7.69621,-3.5947 -0.0965,-0.037 -1.13909,0.3048 -2.31695,0.7596 l -2.14154,0.827 -2.44062,-1.5942 c -1.34235,-0.8767 -6.70096,-4.3753 -11.90804,-7.7745 -5.20707,-3.3993 -9.63605,-6.3072 -9.84217,-6.4621 -0.32468,-0.244 -0.71861,-1.148 -2.94851,-6.7665 l -2.57376,-6.4849 -6.08856,-5.7234 c -3.34871,-3.1479 -6.11385,-5.7428 -6.14476,-5.7666 -0.0309,-0.024 0.0774,-0.2878 0.24063,-0.5866 0.16325,-0.2989 0.27153,-0.5653 0.24062,-0.5921 -0.0309,-0.027 -3.86916,-3.353 -8.52945,-7.3915 l -8.47324,-7.3426 -0.50922,1.5154 c -0.28007,0.8335 -0.57606,1.6377 -0.65776,1.7872 l -0.14854,0.2718 -0.44664,-0.3031 c -0.51144,-0.3471 -1.50857,-0.6711 -2.06204,-0.6701 -0.5274,0 -1.25567,0.219 -1.47972,0.4431 -0.49503,0.495 -0.0662,1.7252 1.00462,2.8818 0.80174,0.866 1.25681,1.1635 2.11599,1.3833 l 0.64566,0.1653 -0.65567,0.4511 c -1.32807,0.9138 -3.33157,1.2925 -4.77445,0.9024 -0.37184,-0.1006 -0.68698,-0.1719 -0.7003,-0.1586 -0.0133,0.013 -0.1138,0.458 -0.22331,0.9881 -0.28444,1.377 -0.94257,2.7791 -1.30453,2.7791 -0.0548,0 -0.41078,-0.4725 -0.79105,-1.0499 -0.77438,-1.1759 -1.89813,-2.4468 -2.37999,-2.6917 -0.50699,-0.2577 -0.87161,-0.3447 -0.87161,-0.2081 0,0.2946 6.04255,14.4502 6.27102,14.6908 0.0552,0.058 1.04335,0.205 2.1959,0.3264 l 2.09554,0.2206 2.27977,1.1867 c 1.73673,0.904 2.29398,1.2509 2.33941,1.4565 0.0328,0.1484 0.2819,2.1786 0.55357,4.5117 0.27167,2.333 0.52548,4.4426 0.56404,4.688 l 0.0701,0.446 -3.38464,2.6086 -3.38464,2.6085 0.26061,0.3525 c 0.14333,0.1939 0.32097,0.316 0.39474,0.2713 0.0738,-0.045 1.56304,-1.1836 3.30947,-2.531 1.74643,-1.3474 3.21887,-2.4014 3.27208,-2.3423 0.16639,0.1849 3.61123,6.7404 3.61011,6.87 -0.001,0.068 -0.56104,1.0506 -1.24545,2.1843 -1.20071,1.9891 -1.25074,2.1009 -1.42533,3.1855 -0.0995,0.6183 -0.23042,1.1569 -0.29089,1.1969 -0.0605,0.04 -2.39678,1.9263 -5.19181,4.1917 -2.79504,2.2654 -5.10589,4.1162 -5.1352,4.113 -0.0293,0 -2.04124,-1.0545 -4.47093,-2.3361 l -4.41763,-2.3302 -3.00576,-2.5439 c -1.65317,-1.3992 -3.38456,-2.789 -3.84754,-3.0885 l -0.84178,-0.5445 -2.4627,-3.8584 -2.46271,-3.8584 0.0576,-1.1066 0.0576,-1.1066 -4.1521,-4.5493 c -2.28365,-2.5021 -5.28915,-5.7906 -6.67888,-7.3078 l -2.52678,-2.7586 -0.26484,1.5905 c -0.24634,1.4794 -0.47584,2.2668 -0.66069,2.2668 -0.0424,0 -0.60386,-0.547 -1.24769,-1.2155 -1.13217,-1.1756 -2.11259,-1.8584 -2.66863,-1.8584 -0.12623,0 -0.2664,-0.037 -0.31147,-0.082 m -0.082,-96.5315 2.3525,-1.2566 2.35249,-1.2566 m -42.75744,113.7581 c -0.29969,0.3719 -0.58766,0.6762 -0.63994,0.6762 -0.14284,0 -8.37488,-6.5004 -8.38232,-6.6191 -0.004,-0.056 0.24915,-0.4279 0.56151,-0.8255 l 0.56794,-0.7229 0.81851,0.6411 c 3.81942,2.9914 7.63447,6.0436 7.62759,6.1023 -0.005,0.039 -0.2536,0.376 -0.55329,0.7479 z m 16.23838,-18.443 c -3.62366,3.7526 -4.51315,4.6118 -4.7791,4.6162 -0.22862,0 -0.53974,0.2161 -1.03574,0.7069 -0.38993,0.3859 -0.74886,0.7016 -0.79761,0.7016 -0.0488,0 -0.0887,-0.2389 -0.0887,-0.531 0,-0.7955 -0.31547,-1.7038 -0.744,-2.1421 -0.42733,-0.4371 -1.28453,-0.7946 -2.79762,-1.1668 -0.61934,-0.1523 -1.00035,-0.305 -0.96842,-0.3881 0.029,-0.075 0.84041,-2.1563 1.80322,-4.6246 0.96281,-2.4683 1.7859,-4.5801 1.82909,-4.6929 0.0661,-0.1727 0.19505,-0.1169 0.81623,0.3532 0.69568,0.5264 1.88176,1.2621 2.03887,1.2647 0.0394,0 0.0464,-0.3023 0.0157,-0.6732 -0.0599,-0.7229 0.0733,-1.4257 0.48413,-2.5529 l 0.25754,-0.7066 0.4406,0.3868 c 0.58343,0.5123 1.61165,0.9728 2.22667,0.9973 0.41306,0.017 0.5691,-0.051 0.93498,-0.4058 0.51459,-0.4988 1.22578,-1.8562 1.34632,-2.5697 0.0464,-0.2747 0.12103,-0.4993 0.16581,-0.499 0.0448,0 0.26881,0.4774 0.49786,1.0605 0.33414,0.8505 0.49108,1.0995 0.79403,1.2598 1.27438,0.6742 1.39824,1.5568 0.39097,2.7861 -0.22714,0.2772 -0.66659,0.6385 -0.97655,0.8029 -0.30995,0.1645 -0.54563,0.3544 -0.52373,0.4221 0.0923,0.2853 1.09428,0.6856 2.07791,0.8303 l 1.04385,0.1535 -4.45233,4.6108 z m 11.21071,1.7373 c -0.90209,1.0315 -7.74054,8.1096 -9.71918,10.0598 -0.57958,0.5712 -1.08694,1.0054 -1.12746,0.9649 -0.0405,-0.041 -0.42507,-0.556 -0.85455,-1.1456 l -0.78086,-1.0719 4.0084,-4.5653 c 2.20463,-2.5109 4.53157,-5.16 5.171,-5.887 0.63943,-0.727 1.22418,-1.32 1.29944,-1.3178 0.0752,0 0.24259,0.084 0.37187,0.1818 0.12927,0.098 0.35059,0.1543 0.49181,0.1255 0.14123,-0.029 0.56972,-0.086 0.9522,-0.1278 l 0.69545,-0.075 0.19596,0.8616 c 0.1078,0.4739 0.19598,0.8855 0.19598,0.9147 0,0.029 -0.40503,0.5163 -0.90006,1.0824 z m 1.02346,-71.5296 c -1.22403,0.8703 -2.24089,1.5619 -2.25972,1.537 -0.0188,-0.025 -0.22046,-0.3099 -0.44812,-0.6334 -0.24489,-0.3479 -0.48056,-0.5625 -0.57706,-0.5255 -0.0897,0.035 -0.49097,0.2853 -0.89166,0.5574 -0.40069,0.2721 -0.77146,0.4947 -0.82392,0.4947 -0.0525,0 -0.41207,-0.3134 -0.79911,-0.6964 l -0.70371,-0.6963 -1.14882,0.8635 -1.14883,0.8635 -2.42367,0.09 c -1.33301,0.05 -2.42366,0.06 -2.42366,0.024 0,-0.037 0.85896,-0.7964 1.90878,-1.6881 1.33946,-1.1377 1.89093,-1.6805 1.84888,-1.8198 -0.0848,-0.2811 -0.30836,-1.2861 -0.31196,-1.4025 -0.002,-0.053 0.36768,-0.2637 0.82075,-0.4669 0.63669,-0.2857 1.24398,-0.4255 2.67424,-0.6157 l 1.85048,-0.2462 2.19166,-1.0393 c 1.41712,-0.6721 2.61178,-1.3401 3.38047,-1.8902 0.65384,-0.468 1.19603,-0.8413 1.20484,-0.8296 0.009,0.012 -0.0283,0.3255 -0.0825,0.6975 -0.15584,1.0697 -0.12381,2.6806 0.0746,3.75 0.10036,0.541 0.21196,1.2326 0.24801,1.537 l 0.0656,0.5532 -2.22549,1.5822 z m 0.39443,-21.0373 0.71062,0.8464 c 1.23561,1.4716 1.97849,3.179 2.01129,4.6225 l 0.0185,0.8157 -1.16189,0.234 -1.16191,0.2339 -1.41454,1.3508 c -1.53392,1.4648 -1.63691,1.5343 -3.05439,2.0584 -0.52433,0.1938 -1.26992,0.4977 -1.65688,0.6753 -0.96672,0.4436 -3.39958,0.8453 -4.79207,0.7912 l -1.08317,-0.042 m -20.83982,21.2907 c 0.48393,0.3792 1.54755,0.7983 2.19598,0.8653 1.27231,0.1313 2.6906,-0.6179 3.5906,-1.8966 0.27477,-0.3904 0.69974,-0.8188 0.94438,-0.9521 0.37254,-0.203 0.43458,-0.2934 0.38187,-0.557 -0.0526,-0.2629 0.004,-0.347 0.34662,-0.5111 l 0.40957,-0.1963 -0.46108,-0.2223 c -0.43106,-0.2078 -0.56188,-0.4038 -0.38656,-0.5792 0.041,-0.041 0.34417,0.1387 0.67373,0.3992 0.77168,0.61 1.68219,0.9181 2.41571,0.8176 0.30404,-0.042 2.08185,-0.7464 3.95069,-1.5661 1.86883,-0.8196 4.36613,-1.8493 5.54956,-2.2883 1.95737,-0.7259 2.28272,-0.8098 3.60274,-0.9287 1.41305,-0.1272 1.45806,-0.1237 1.71846,0.1367 l 0.2674,0.2674 -0.38851,0.3886 -0.38852,0.3885 0.51437,0.4089 c 0.49269,0.3918 0.55905,0.4091 1.57642,0.4102 l 1.06206,0 1.48965,-1.0657 c 1.42438,-1.019 1.48059,-1.0757 1.28309,-1.2939 -0.12311,-0.136 -0.16052,-0.2692 -0.0926,-0.3297 0.0626,-0.056 1.04933,-0.8045 2.19264,-1.6638 1.2742,-0.9576 2.11083,-1.5104 2.16165,-1.4281 0.22111,0.3578 0.77188,6.8595 0.98864,11.6706 0.14686,3.2601 0.10267,3.7298 -0.45571,4.8441 -0.26925,0.5374 -0.6977,0.8784 -0.93102,0.741 -0.12125,-0.071 -0.12623,-0.097 0.15788,0.8095 0.54922,1.7522 0.79136,4.9183 0.47959,6.2709 -0.14255,0.6184 -1.0354,1.8118 -1.9624,2.623 l -0.59819,0.5234 0.67344,1.291 c 1.82027,3.4895 2.30339,4.7845 2.31648,6.2091 0.007,0.781 -0.0428,1.0719 -0.24271,1.4122 -0.38058,0.6478 -1.17396,1.1906 -1.98958,1.3612 -1.75551,0.3672 -4.64583,-0.699 -6.54398,-2.4139 -1.20311,-1.0869 -2.75935,-3.5856 -3.13757,-5.0377 -0.25813,-0.991 -0.81924,-1.8694 -1.94724,-3.0482 l -0.96,-1.0033 -0.2525,0.6592 c -0.32473,0.8478 -1.02551,1.5427 -2.02987,2.0127 -0.68528,0.3206 -0.89548,0.3639 -1.5009,0.309 -1.26775,-0.1149 -2.68766,-1.0201 -5.3498,-3.4104 -1.97226,-1.7708 -3.29566,-2.6924 -5.30148,-3.6917 -0.94771,-0.4721 -1.78705,-0.8584 -1.86519,-0.8584 -0.10214,0 -0.12297,0.3203 -0.0741,1.1394 0.0586,0.9819 0.0387,1.1638 -0.14418,1.3156 -0.18664,0.1549 -0.27717,0.1415 -0.75262,-0.1107 -0.77458,-0.4109 -4.2659,-3.9792 -7.28129,-7.4417 l -0.52878,-0.6072 m -13.65971,13.6597 0.8421,-0.1771 c 0.54359,-0.1144 1.26756,-0.158 2.04232,-0.1232 1.07706,0.048 1.28525,0.098 2.02874,0.4851 3.10944,1.6177 3.12029,1.6224 3.79716,1.6288 0.36202,0 0.65828,0.043 0.65835,0.089 6e-5,0.045 -0.25349,0.4604 -0.56346,0.9222 l -0.56359,0.8395 0.75633,0.7117 c 0.44392,0.4178 0.91167,0.7428 1.13242,0.787 l 0.3761,0.075 -0.29219,0.2271 c -0.96851,0.7529 -3.47632,0.7654 -4.60929,0.023 -0.39255,-0.2572 -0.49621,-0.1275 -0.60511,0.757 -0.14694,1.1934 0.42746,3.0157 1.15938,3.6781 0.14225,0.1287 0.25865,0.3267 0.25865,0.4398 0,0.3563 0.73248,1.3298 1.3308,1.7686 0.31624,0.232 0.84134,0.4993 1.16689,0.5941 l 0.59192,0.1724 -2.92803,2.6525 c -1.61042,1.4589 -5.61032,5.0382 -8.88866,7.954 l -5.96063,5.3016 -0.69453,-0.6873 -0.69453,-0.6873 -3.24259,2.9184 c -1.78343,1.6051 -3.47078,3.1367 -3.74968,3.4036 l -0.50709,0.4853 -0.98627,-1.2597 -0.98628,-1.2596 0.23764,-0.5544 c 1.05962,-2.472 1.01118,-5.6195 -0.12076,-7.8462 -0.40453,-0.7958 -0.88302,-1.5202 -1.41229,-2.1384 l -0.34763,-0.4059 m -11.16975,11.2585 c 0,0.05 0.44705,0.5758 0.99345,1.1686 0.54639,0.5927 1.13538,1.3176 1.30886,1.6108 0.30337,0.5127 0.31164,0.5785 0.21654,1.7213 -0.13664,1.6421 -0.11856,2.007 0.12336,2.49 0.11559,0.2308 1.04739,1.2631 2.07069,2.2939 l 1.86054,1.8742 -0.91801,0.9242 -0.91801,0.9242 -4.45914,-4.4579 -4.45914,-4.4579 m -10.63399,10.634 3.29397,3.2957 3.29396,3.2956 -0.8352,0.823 -0.8352,0.823 -3.28944,-3.2877 -3.28945,-3.2878 m -4.73325,4.7334 3.13532,3.1392 c 1.72442,1.7265 3.22494,3.1906 3.3345,3.2535 0.14329,0.082 1.32898,-0.2626 4.22516,-1.229 l 4.02598,-1.3433 1.15577,-1.1652 c 1.27854,-1.289 2.61458,-2.2496 3.68649,-2.6507 1.10542,-0.4136 2.94746,-0.571 4.72514,-0.4037 0.82507,0.078 1.52596,0.1669 1.55753,0.1985 0.10582,0.1058 -1.08296,2.2694 -1.67717,3.0525 -0.80429,1.0599 -1.95833,2.1747 -2.73915,2.646 -1.02322,0.6176 -1.89187,0.8063 -3.84723,0.8355 -1.59248,0.024 -1.80419,0.055 -2.82793,0.4214 -1.49682,0.5351 -4.3933,1.4475 -6.67383,2.1023 l -1.87865,0.5393 -3.90077,-3.8993 -3.90077,-3.8994 m -11.186223,11.1883 3.502705,3.5043 c 1.926488,1.9274 3.548448,3.5044 3.604348,3.5044 0.0559,0 0.63237,-0.3701 1.28105,-0.8223 l 1.1794,-0.8223 0.65628,0.705 c 0.36095,0.3878 0.65628,0.7484 0.65628,0.8014 0,0.071 -3.65181,2.3722 -4.47115,2.8173 -0.0585,0.032 -1.91238,-1.7477 -4.119805,-3.9544 l -4.013507,-4.0121 m -5.40695,5.4111 4.381183,4.3812 4.381183,4.3812 7.520796,-3.5274 c 4.13644,-1.9401 7.59973,-3.5577 7.6962,-3.5947 0.0965,-0.037 1.1391,0.3048 2.31695,0.7596 l 2.14154,0.827 2.44063,-1.5942 c 1.34234,-0.8767 6.70096,-4.3753 11.90804,-7.7745 5.20707,-3.3993 9.63605,-6.3072 9.84217,-6.4621 0.32469,-0.244 0.71861,-1.148 2.94851,-6.7665 l 2.57376,-6.485 6.08856,-5.7233 c 3.3487,-3.1479 6.11385,-5.7428 6.14476,-5.7666 0.0309,-0.024 -0.0774,-0.2878 -0.24063,-0.5866 -0.16326,-0.2989 -0.27154,-0.5653 -0.24063,-0.5921 0.0309,-0.027 3.86916,-3.353 8.52945,-7.3915 l 8.47325,-7.3426 0.50922,1.5154 c 0.28007,0.8335 0.57606,1.6377 0.65775,1.7872 l 0.14855,0.2718 0.44664,-0.3031 c 0.51143,-0.3471 1.50856,-0.6711 2.06204,-0.6701 0.5274,0 1.25567,0.219 1.47972,0.4431 0.49503,0.495 0.0662,1.7252 -1.00462,2.8818 -0.80174,0.8659 -1.25681,1.1635 -2.11598,1.3833 l -0.64568,0.1653 0.65568,0.4511 c 1.32806,0.9138 3.33157,1.2925 4.77445,0.9024 0.37184,-0.1006 0.68698,-0.1719 0.7003,-0.1586 0.0133,0.013 0.11381,0.458 0.22331,0.9881 0.28443,1.377 0.94257,2.7791 1.30452,2.7791 0.0548,0 0.41078,-0.4725 0.79105,-1.0499 0.77439,-1.1759 1.89814,-2.4468 2.38,-2.6917 0.50699,-0.2577 0.87161,-0.3447 0.87161,-0.2081 0,0.2946 -6.04255,14.4502 -6.27102,14.6908 -0.0552,0.058 -1.04335,0.205 -2.1959,0.3264 l -2.09554,0.2206 -2.27977,1.1867 c -1.73673,0.904 -2.29398,1.2509 -2.33941,1.4565 -0.0328,0.1484 -0.2819,2.1786 -0.55357,4.5117 -0.27166,2.333 -0.52548,4.4426 -0.56404,4.688 l -0.0701,0.446 3.38464,2.6086 3.38464,2.6085 -0.26061,0.3525 c -0.14333,0.1939 -0.32097,0.316 -0.39475,0.2713 -0.0738,-0.045 -1.56303,-1.1836 -3.30946,-2.531 -1.74643,-1.3474 -3.21886,-2.4014 -3.27208,-2.3423 -0.1664,0.1849 -3.61123,6.7404 -3.61011,6.87 6.1e-4,0.068 0.56103,1.0506 1.24545,2.1843 1.20071,1.9891 1.25073,2.1009 1.42533,3.1855 0.0995,0.6183 0.23042,1.1569 0.29088,1.1969 0.0605,0.04 2.39678,1.9263 5.19183,4.1917 2.79504,2.2654 5.10588,4.1162 5.13519,4.113 0.0293,0 2.04124,-1.0545 4.47093,-2.3361 l 4.41762,-2.3302 3.00577,-2.5439 c 1.65317,-1.3992 3.38456,-2.789 3.84754,-3.0885 l 0.84177,-0.5445 2.46272,-3.8584 2.4627,-3.8584 -0.0576,-1.1066 -0.0576,-1.1066 4.1521,-4.5493 c 2.28365,-2.5021 5.28915,-5.7906 6.67888,-7.3078 l 2.52677,-2.7586 0.26485,1.5905 c 0.24633,1.4794 0.47584,2.2668 0.66069,2.2668 0.0424,0 0.60386,-0.547 1.24769,-1.2155 1.13217,-1.1756 2.11258,-1.8584 2.66863,-1.8584 0.12622,0 0.26639,-0.037 0.31146,-0.082 m 0.082,-96.5315 -2.35251,-1.2566 -2.35249,-1.2566 m -113.76306,33.3525 c -0.37193,0.2997 -0.67624,0.5877 -0.67624,0.64 0,0.1428 6.50046,8.3748 6.61913,8.3823 0.0564,0 0.4279,-0.2492 0.82549,-0.5615 l 0.7229,-0.568 -0.64107,-0.8185 c -2.9914,-3.8194 -6.04358,-7.6345 -6.10235,-7.6276 -0.0394,0 -0.37593,0.2536 -0.74786,0.5533 z m 18.44301,-16.2384 c -3.7526,3.6237 -4.61176,4.5132 -4.61617,4.7791 -0.004,0.2286 -0.21616,0.5398 -0.70698,1.0358 -0.38586,0.3899 -0.70157,0.7488 -0.70157,0.7976 0,0.049 0.23894,0.089 0.53098,0.089 0.79553,0 1.70384,0.3155 2.14215,0.744 0.43709,0.4274 0.7946,1.2846 1.16679,2.7976 0.15235,0.6194 0.30502,1.0004 0.38805,0.9685 0.0753,-0.029 2.15639,-0.8404 4.62468,-1.8032 2.46829,-0.9629 4.58007,-1.786 4.69286,-1.8291 0.17267,-0.066 0.11688,-0.1951 -0.35318,-0.8163 -0.52645,-0.6957 -1.26216,-1.8817 -1.26469,-2.0388 -6.2e-4,-0.039 0.30231,-0.046 0.67321,-0.016 0.72289,0.06 1.42566,-0.073 2.55284,-0.4841 l 0.70666,-0.2576 -0.38685,-0.4406 c -0.51226,-0.5834 -0.97279,-1.6116 -0.99732,-2.2266 -0.0165,-0.4131 0.0513,-0.5691 0.40587,-0.935 0.49873,-0.5146 1.85614,-1.2258 2.56966,-1.3464 0.27472,-0.046 0.49929,-0.121 0.49905,-0.1658 -2.5e-4,-0.045 -0.47747,-0.2688 -1.0605,-0.4978 -0.85054,-0.3342 -1.09954,-0.4911 -1.25983,-0.7941 -0.67426,-1.2743 -1.55686,-1.3982 -2.78609,-0.3909 -0.2772,0.2271 -0.63853,0.6666 -0.80296,0.9765 -0.16443,0.31 -0.35438,0.5457 -0.4221,0.5238 -0.28522,-0.092 -0.6856,-1.0943 -0.83028,-2.0779 l -0.15353,-1.0439 -4.61075,4.4523 z m -1.73726,-11.2107 c -1.03151,0.9021 -8.10962,7.7406 -10.0598,9.7192 -0.57124,0.5796 -1.00547,1.0869 -0.96495,1.1275 0.0405,0.041 0.55604,0.425 1.14559,0.8545 l 1.0719,0.7809 4.56528,-4.0084 c 2.5109,-2.2047 5.16006,-4.5316 5.88702,-5.171 0.72697,-0.6395 1.31999,-1.2242 1.31784,-1.2995 -0.002,-0.075 -0.084,-0.2426 -0.18178,-0.3718 -0.0978,-0.1293 -0.15431,-0.3506 -0.12551,-0.4918 0.0288,-0.1413 0.0863,-0.5698 0.12771,-0.9522 l 0.0754,-0.6955 -0.86161,-0.196 c -0.47389,-0.1078 -0.88552,-0.1959 -0.91473,-0.1959 -0.0292,0 -0.51626,0.405 -1.08231,0.9 z m 71.52951,-1.0234 c -0.87021,1.224 -1.56182,2.2409 -1.53692,2.2597 0.0249,0.019 0.30992,0.2204 0.63336,0.4481 0.34791,0.2449 0.5625,0.4806 0.52547,0.5771 -0.0344,0.09 -0.28523,0.4909 -0.55734,0.8916 -0.2721,0.4007 -0.49473,0.7715 -0.49473,0.8239 0,0.053 0.31336,0.4121 0.69637,0.7992 l 0.69636,0.7037 -0.86351,1.1488 -0.86351,1.1488 -0.0904,2.4237 c -0.0497,1.333 -0.0603,2.4236 -0.0235,2.4236 0.0368,0 0.79645,-0.8589 1.68814,-1.9087 1.13768,-1.3395 1.68047,-1.891 1.81979,-1.8489 0.28109,0.085 1.28605,0.3083 1.40248,0.3119 0.0535,0 0.26368,-0.3676 0.46695,-0.8207 0.28567,-0.6367 0.42549,-1.244 0.61571,-2.6742 l 0.2461,-1.8505 1.03937,-2.1917 c 0.67206,-1.4171 1.34005,-2.6118 1.8902,-3.3805 0.46796,-0.6538 0.84128,-1.196 0.8296,-1.2048 -0.0117,-0.01 -0.32555,0.028 -0.69749,0.082 -1.0697,0.1558 -2.68061,0.1238 -3.75007,-0.075 -0.541,-0.1003 -1.23261,-0.2119 -1.53692,-0.248 l -0.55329,-0.066 -1.5822,2.2255 z m 21.03731,-0.3945 -0.84634,-0.7106 c -1.47159,-1.2356 -3.17899,-1.9785 -4.62257,-2.0113 l -0.81564,-0.019 -0.23397,1.1619 -0.23397,1.1619 -1.35082,1.4146 c -1.4648,1.5339 -1.53421,1.6369 -2.05831,3.0543 -0.19387,0.5244 -0.49778,1.27 -0.67534,1.6569 -0.44363,0.9667 -0.84532,3.3996 -0.79122,4.7921 l 0.0421,1.0831 m -21.29066,20.8399 c -0.37925,-0.484 -0.79833,-1.5476 -0.86526,-2.196 -0.13131,-1.2723 0.61782,-2.6906 1.89653,-3.5906 0.39039,-0.2748 0.81885,-0.6997 0.95213,-0.9444 0.20296,-0.3725 0.29345,-0.4346 0.557,-0.3819 0.26294,0.053 0.34697,0 0.51105,-0.3466 l 0.19638,-0.4095 0.22228,0.461 c 0.20782,0.4311 0.40381,0.5619 0.57914,0.3866 0.041,-0.041 -0.13862,-0.3442 -0.39913,-0.6737 -0.60998,-0.7717 -0.91814,-1.6822 -0.8176,-2.4157 0.0417,-0.3041 0.74639,-2.0819 1.56603,-3.9507 0.81964,-1.8689 1.84938,-4.3662 2.28829,-5.5496 0.72597,-1.9574 0.80984,-2.2827 0.92873,-3.6027 0.12726,-1.4131 0.12368,-1.4581 -0.13671,-1.7185 l -0.26741,-0.2674 -0.38851,0.3885 -0.38851,0.3885 -0.40897,-0.5143 c -0.39175,-0.4927 -0.40902,-0.5591 -0.41016,-1.5765 l -0.001,-1.062 1.06569,-1.4897 c 1.019,-1.4243 1.07568,-1.4806 1.29391,-1.2831 0.13604,0.1232 0.26923,0.1606 0.32972,0.093 0.0558,-0.063 0.80453,-1.0493 1.66379,-2.1927 0.95765,-1.2742 1.51037,-2.1108 1.42813,-2.1616 -0.35776,-0.2211 -6.85949,-0.7719 -11.67064,-0.9886 -3.26004,-0.1469 -3.72978,-0.1027 -4.8441,0.4557 -0.53736,0.2692 -0.87833,0.6977 -0.74095,0.931 0.0714,0.1212 0.0969,0.1262 -0.80948,-0.1579 -1.75223,-0.5492 -4.91835,-0.7914 -6.27092,-0.4796 -0.6184,0.1426 -1.8118,1.0354 -2.62297,1.9624 l -0.52342,0.5982 -1.29101,-0.6734 c -3.48957,-1.8203 -4.78451,-2.3034 -6.20915,-2.3165 -0.78097,-0.01 -1.07191,0.043 -1.41216,0.2427 -0.64783,0.3806 -1.19065,1.174 -1.36123,1.9896 -0.36714,1.7555 0.699,4.6458 2.41387,6.544 1.08693,1.2031 3.58569,2.7593 5.03777,3.1375 0.991,0.2582 1.86935,0.8193 3.04818,1.9473 l 1.00327,0.96 -0.65921,0.2525 c -0.84779,0.3247 -1.54262,1.0255 -2.01262,2.0298 -0.32068,0.6853 -0.36396,0.8955 -0.30906,1.5009 0.11495,1.2678 1.02012,2.6877 3.4104,5.3498 1.77086,1.9723 2.6924,3.2957 3.69167,5.3015 0.47214,0.9477 0.85843,1.7871 0.85843,1.8652 0,0.1021 -0.32031,0.123 -1.13943,0.074 -0.98188,-0.059 -1.16377,-0.039 -1.3155,0.1442 -0.1549,0.1866 -0.14159,0.2771 0.11064,0.7526 0.41091,0.7746 3.97916,4.2659 7.44172,7.2813 l 0.60718,0.5288 m -13.65971,13.6597 0.17714,-0.8421 c 0.11435,-0.5436 0.15801,-1.2676 0.12316,-2.0423 -0.0484,-1.0771 -0.0982,-1.2853 -0.48504,-2.0288 -1.6178,-3.1094 -1.62245,-3.1203 -1.62879,-3.7971 -0.003,-0.3621 -0.0433,-0.6583 -0.0888,-0.6584 -0.0454,-10e-5 -0.46039,0.2535 -0.92215,0.5635 l -0.83956,0.5636 -0.71172,-0.7564 c -0.41774,-0.4439 -0.74278,-0.9116 -0.78693,-1.1324 l -0.0752,-0.3761 -0.22713,0.2922 c -0.75284,0.9685 -0.76535,3.4763 -0.023,4.6093 0.25721,0.3925 0.12753,0.4962 -0.75696,0.6051 -1.19347,0.1469 -3.01575,-0.4275 -3.67812,-1.1594 -0.12875,-0.1422 -0.32668,-0.2586 -0.43985,-0.2586 -0.3563,0 -1.32974,-0.7325 -1.76858,-1.3308 -0.23195,-0.3163 -0.49929,-0.8414 -0.59408,-1.1669 l -0.17235,-0.5919 -2.65252,2.928 c -1.45889,1.6104 -5.03822,5.6103 -7.95407,8.8886 l -5.30155,5.9607 0.68728,0.6945 0.68728,0.6945 -2.91837,3.2426 c -1.6051,1.7834 -3.13673,3.4708 -3.40362,3.7497 l -0.48525,0.5071 1.25966,0.9863 1.25967,0.9862 0.55438,-0.2376 c 2.472,-1.0596 5.61951,-1.0112 7.84616,0.1208 0.79576,0.4045 1.52025,0.883 2.13837,1.4123 l 0.40598,0.3476 m -11.25856,11.1697 c -0.05,0 -0.57581,-0.447 -1.16856,-0.9934 -0.59275,-0.5464 -1.31762,-1.1354 -1.61081,-1.3089 -0.5127,-0.3033 -0.5785,-0.3116 -1.72135,-0.2165 -1.64202,0.1366 -2.00695,0.1186 -2.49001,-0.1234 -0.23078,-0.1156 -1.26301,-1.0474 -2.29384,-2.0707 l -1.87425,-1.8605 -0.92417,0.918 -0.92418,0.918 4.45788,4.4592 4.45789,4.4591 m -10.63398,10.634 -3.29566,-3.294 -3.29567,-3.2939 -0.82299,0.8352 -0.82299,0.8352 3.28775,3.2894 3.28776,3.2894 m -4.73341,4.7333 -3.13916,-3.1353 c -1.72653,-1.7244 -3.19064,-3.225 -3.25356,-3.3345 -0.0823,-0.1433 0.26258,-1.329 1.22898,-4.2252 l 1.34338,-4.026 1.16519,-1.1557 c 1.28897,-1.2786 2.24961,-2.6146 2.65066,-3.6865 0.41359,-1.1054 0.57099,-2.9475 0.40374,-4.7252 -0.0776,-0.825 -0.16696,-1.5259 -0.19853,-1.5575 -0.10582,-0.1058 -2.26939,1.083 -3.05245,1.6772 -1.0599,0.8043 -2.1747,1.9583 -2.64602,2.7391 -0.61765,1.0233 -0.80631,1.8919 -0.83557,3.8473 -0.0238,1.5924 -0.0554,1.8042 -0.42137,2.8279 -0.53512,1.4968 -1.44751,4.3933 -2.102251,6.6738 l -0.539359,1.8787 3.89934,3.9007 3.89934,3.9008 m -11.188256,11.1862 -3.50432,-3.5027 c -1.92738,-1.9265 -3.50433,-3.5484 -3.50433,-3.6043 0,-0.056 0.37004,-0.6324 0.822287,-1.2811 l 0.8223,-1.1794 -0.705077,-0.6563 c -0.387782,-0.3609 -0.748392,-0.6562 -0.80136,-0.6562 -0.07117,0 -2.372201,3.6518 -2.817292,4.4711 -0.03176,0.059 1.747708,1.9124 3.954377,4.1198 l 4.012129,4.0135 m -5.411141,5.407 -4.381186,-4.3812 -4.381187,-4.3812 3.527423,-7.5208 c 1.940081,-4.1364 3.557705,-7.5997 3.594727,-7.6962 0.03702,-0.097 -0.304826,-1.1391 -0.759656,-2.3169 l -0.82696,-2.1416 1.594128,-2.4406 c 0.876768,-1.3423 4.375333,-6.701 7.774576,-11.908 3.399245,-5.2071 6.307178,-9.6361 6.462068,-9.8422 0.244,-0.3247 1.14802,-0.7186 6.76654,-2.9485 l 6.48491,-2.5738 5.72336,-6.0885 c 3.14785,-3.3488 5.74282,-6.1139 5.7666,-6.1448 0.0238,-0.031 0.28776,0.077 0.58661,0.2406 0.29884,0.1633 0.5653,0.2716 0.59212,0.2407 0.0268,-0.031 3.35296,-3.8692 7.39142,-8.5295 l 7.34264,-8.4732 -1.51542,-0.5093 c -0.83348,-0.28 -1.63772,-0.576 -1.7872,-0.6577 l -0.27177,-0.1486 0.3031,-0.4466 c 0.34707,-0.5114 0.6711,-1.5086 0.6701,-2.062 -9.9e-4,-0.5274 -0.21903,-1.2557 -0.44307,-1.4798 -0.49503,-0.495 -1.72524,-0.066 -2.88182,1.0047 -0.86598,0.8017 -1.16349,1.2568 -1.38337,2.1159 l -0.16524,0.6457 -0.45115,-0.6557 c -0.91379,-1.328 -1.29244,-3.3315 -0.90233,-4.7744 0.10053,-0.3718 0.17189,-0.687 0.15856,-0.7003 -0.0133,-0.013 -0.45795,-0.1138 -0.98807,-0.2233 -1.37702,-0.2845 -2.7791,-0.9426 -2.7791,-1.3045 0,-0.055 0.47244,-0.4108 1.04988,-0.7911 1.17589,-0.7744 2.44682,-1.8981 2.6917,-2.38 0.25766,-0.507 0.34469,-0.8716 0.20806,-0.8716 -0.29459,0 -14.45017,6.0425 -14.69081,6.271 -0.0581,0.055 -0.20499,1.0434 -0.32634,2.1959 l -0.22064,2.0956 -1.18665,2.2797 c -0.90398,1.7368 -1.25092,2.294 -1.45648,2.3394 -0.14841,0.033 -2.17869,0.2819 -4.51173,0.5536 -2.33304,0.2717 -4.44263,0.5255 -4.68797,0.564 l -0.44609,0.07 -2.60855,-3.3847 -2.60855,-3.3846 -0.3525,0.2606 c -0.19387,0.1433 -0.315942,0.321 -0.27128,0.3947 0.0447,0.074 1.18363,1.5631 2.53104,3.3095 1.3474,1.7464 2.40143,3.2189 2.34229,3.2721 -0.18494,0.1664 -6.740377,3.6112 -6.869971,3.6101 -0.06762,0 -1.050585,-0.5611 -2.184358,-1.2455 -1.989054,-1.2007 -2.100855,-1.2507 -3.185513,-1.4253 -0.618259,-0.1 -1.156844,-0.2304 -1.196853,-0.2909 -0.04002,-0.06 -1.926286,-2.3968 -4.191702,-5.1918 -2.265416,-2.795 -4.116258,-5.1059 -4.112988,-5.1352 0.0033,-0.029 1.054522,-2.0412 2.336115,-4.4709 l 2.330163,-4.4177 2.543917,-3.0057 c 1.399149,-1.6532 2.788952,-3.3846 3.088442,-3.8476 l 0.544548,-0.8417 3.858414,-2.4627 3.858416,-2.4627 1.10658,0.057 1.10658,0.058 4.54928,-4.1521 c 2.5021,-2.2837 5.79064,-5.2891 7.30786,-6.6789 l 2.75859,-2.5268 -1.59053,-0.2648 c -1.47939,-0.2463 -2.26678,-0.4758 -2.26678,-0.6607 0,-0.042 0.54699,-0.6038 1.21552,-1.2477 1.17559,-1.1322 1.85832,-2.1126 1.85832,-2.6686 0,-0.1262 0.0369,-0.2664 0.082,-0.3115 m 96.53147,-0.082 1.25662,2.3526 1.25662,2.3524 m -113.75778,-42.7569 c -0.37193,-0.2997 -0.67624,-0.5877 -0.67624,-0.6399 0,-0.1429 6.50046,-8.3749 6.61913,-8.3824 0.0564,0 0.4279,0.2492 0.82549,0.5616 l 0.7229,0.5679 -0.64107,0.8185 c -2.9914,3.8194 -6.04358,7.6345 -6.10235,7.6276 -0.0394,0 -0.37593,-0.2536 -0.74786,-0.5533 z m 18.44301,16.2384 c -3.7526,-3.6237 -4.61176,-4.5132 -4.61617,-4.7791 -0.004,-0.2286 -0.21616,-0.5398 -0.70698,-1.0358 -0.38586,-0.3899 -0.70157,-0.7488 -0.70157,-0.7976 0,-0.049 0.23894,-0.089 0.53098,-0.089 0.79553,0 1.70384,-0.3155 2.14215,-0.744 0.43709,-0.4273 0.7946,-1.2845 1.16679,-2.7976 0.15235,-0.6194 0.30502,-1.0004 0.38805,-0.9685 0.0753,0.029 2.15639,0.8405 4.62468,1.8033 2.46829,0.9628 4.58007,1.7859 4.69286,1.8291 0.17267,0.066 0.11688,0.195 -0.35318,0.8162 -0.52645,0.6957 -1.26216,1.8817 -1.26469,2.0388 -6.2e-4,0.039 0.30231,0.047 0.67321,0.016 0.72289,-0.06 1.42566,0.073 2.55284,0.4842 l 0.70666,0.2575 -0.38685,0.4406 c -0.51226,0.5834 -0.97279,1.6116 -0.99732,2.2267 -0.0165,0.413 0.0513,0.5691 0.40587,0.9349 0.49873,0.5146 1.85614,1.2258 2.56966,1.3464 0.27472,0.046 0.49929,0.121 0.49905,0.1658 -2.5e-4,0.045 -0.47747,0.2688 -1.0605,0.4978 -0.85054,0.3342 -1.09954,0.4911 -1.25983,0.7941 -0.67426,1.2743 -1.55686,1.3982 -2.78609,0.3909 -0.2772,-0.2271 -0.63853,-0.6666 -0.80296,-0.9765 -0.16443,-0.31 -0.35438,-0.5456 -0.4221,-0.5237 -0.28522,0.092 -0.6856,1.0942 -0.83028,2.0779 l -0.15353,1.0438 -4.61075,-4.4523 z m -1.73726,11.2107 c -1.03151,-0.9021 -8.10962,-7.7405 -10.0598,-9.7192 -0.57124,-0.5796 -1.00547,-1.0869 -0.96495,-1.1275 0.0405,-0.041 0.55604,-0.425 1.14559,-0.8545 l 1.0719,-0.7809 4.56528,4.0084 c 2.5109,2.2047 5.16006,4.5316 5.88702,5.171 0.72697,0.6395 1.31999,1.2242 1.31784,1.2995 -0.002,0.075 -0.084,0.2426 -0.18178,0.3718 -0.0978,0.1293 -0.15431,0.3506 -0.12551,0.4919 0.0288,0.1412 0.0863,0.5697 0.12771,0.9522 l 0.0754,0.6954 -0.86161,0.196 c -0.47389,0.1078 -0.88552,0.196 -0.91473,0.196 -0.0292,0 -0.51626,-0.4051 -1.08231,-0.9001 z m 71.52951,1.0234 c -0.87021,-1.224 -1.56182,-2.2408 -1.53692,-2.2597 0.0249,-0.019 0.30992,-0.2204 0.63336,-0.4481 0.34791,-0.2449 0.5625,-0.4805 0.52547,-0.577 -0.0344,-0.09 -0.28523,-0.491 -0.55734,-0.8917 -0.2721,-0.4007 -0.49473,-0.7715 -0.49473,-0.8239 0,-0.052 0.31336,-0.4121 0.69637,-0.7991 l 0.69636,-0.7038 -0.86351,-1.1488 -0.86351,-1.1488 -0.0904,-2.4237 c -0.0497,-1.333 -0.0603,-2.4236 -0.0235,-2.4236 0.0368,0 0.79645,0.8589 1.68814,1.9088 1.13768,1.3394 1.68047,1.8909 1.81979,1.8488 0.28109,-0.085 1.28605,-0.3083 1.40248,-0.3119 0.0535,0 0.26368,0.3677 0.46695,0.8207 0.28567,0.6367 0.42549,1.244 0.61571,2.6743 l 0.2461,1.8504 1.03937,2.1917 c 0.67206,1.4171 1.34005,2.6118 1.8902,3.3805 0.46796,0.6538 0.84128,1.196 0.8296,1.2048 -0.0117,0.01 -0.32555,-0.028 -0.69749,-0.082 -1.0697,-0.1558 -2.68061,-0.1238 -3.75007,0.075 -0.541,0.1003 -1.23261,0.2119 -1.53692,0.248 l -0.55329,0.066 -1.5822,-2.2255 z m 21.03731,0.3945 -0.84634,0.7106 c -1.47159,1.2356 -3.17899,1.9785 -4.62257,2.0113 l -0.81564,0.019 -0.23397,-1.1619 -0.23397,-1.1619 -1.35082,-1.4145 c -1.4648,-1.5339 -1.53421,-1.6369 -2.05831,-3.0544 -0.19387,-0.5244 -0.49778,-1.2699 -0.67534,-1.6569 -0.44363,-0.9667 -0.84532,-3.3996 -0.79122,-4.7921 l 0.0421,-1.0831 m -21.29066,-20.8399 c -0.37925,0.484 -0.79833,1.5476 -0.86526,2.196 -0.13131,1.2723 0.61782,2.6906 1.89653,3.5906 0.39039,0.2748 0.81885,0.6998 0.95213,0.9444 0.20296,0.3725 0.29345,0.4346 0.557,0.3819 0.26294,-0.053 0.34697,0 0.51105,0.3466 l 0.19638,0.4096 0.22228,-0.4611 c 0.20782,-0.4311 0.40381,-0.5619 0.57914,-0.3866 0.041,0.041 -0.13862,0.3442 -0.39913,0.6738 -0.60998,0.7716 -0.91814,1.6821 -0.8176,2.4157 0.0417,0.304 0.74639,2.0818 1.56603,3.9506 0.81964,1.8689 1.84938,4.3662 2.28829,5.5496 0.72597,1.9574 0.80984,2.2827 0.92873,3.6028 0.12726,1.413 0.12368,1.458 -0.13671,1.7184 l -0.26741,0.2674 -0.38851,-0.3885 -0.38851,-0.3885 -0.40897,0.5143 c -0.39175,0.4927 -0.40902,0.5591 -0.41016,1.5765 l -0.001,1.062 1.06569,1.4897 c 1.019,1.4244 1.07568,1.4806 1.29391,1.2831 0.13604,-0.1231 0.26923,-0.1606 0.32972,-0.093 0.0558,0.063 0.80453,1.0494 1.66379,2.1927 0.95765,1.2742 1.51037,2.1108 1.42813,2.1616 -0.35776,0.2211 -6.85949,0.7719 -11.67064,0.9887 -3.26004,0.1468 -3.72978,0.1026 -4.8441,-0.4557 -0.53736,-0.2693 -0.87833,-0.6977 -0.74095,-0.9311 0.0714,-0.1212 0.0969,-0.1262 -0.80948,0.1579 -1.75223,0.5492 -4.91835,0.7914 -6.27092,0.4796 -0.6184,-0.1425 -1.8118,-1.0354 -2.62297,-1.9624 l -0.52342,-0.5982 -1.29101,0.6735 c -3.48957,1.8202 -4.78451,2.3033 -6.20915,2.3164 -0.78097,0.01 -1.07191,-0.043 -1.41216,-0.2427 -0.64783,-0.3806 -1.19065,-1.1739 -1.36123,-1.9896 -0.36714,-1.7555 0.699,-4.6458 2.41387,-6.5439 1.08693,-1.2031 3.58569,-2.7594 5.03777,-3.1376 0.991,-0.2581 1.86935,-0.8192 3.04818,-1.9472 l 1.00327,-0.9601 -0.65921,-0.2524 c -0.84779,-0.3248 -1.54262,-1.0256 -2.01262,-2.0299 -0.32068,-0.6853 -0.36396,-0.8955 -0.30906,-1.5009 0.11495,-1.2678 1.02012,-2.6877 3.4104,-5.3498 1.77086,-1.9723 2.6924,-3.2957 3.69167,-5.3015 0.47214,-0.9477 0.85843,-1.787 0.85843,-1.8652 0,-0.1021 -0.32031,-0.123 -1.13943,-0.074 -0.98188,0.059 -1.16377,0.039 -1.3155,-0.1442 -0.1549,-0.1866 -0.14159,-0.2771 0.11064,-0.7526 0.41091,-0.7746 3.97916,-4.2659 7.44172,-7.2813 l 0.60718,-0.5288 m -13.65971,-13.6597 0.17714,0.8421 c 0.11435,0.5436 0.15801,1.2676 0.12316,2.0424 -0.0484,1.077 -0.0982,1.2852 -0.48504,2.0287 -1.6178,3.1094 -1.62245,3.1203 -1.62879,3.7971 -0.003,0.3621 -0.0433,0.6583 -0.0888,0.6584 -0.0454,1e-4 -0.46039,-0.2535 -0.92215,-0.5635 l -0.83956,-0.5635 -0.71172,0.7563 c -0.41774,0.4439 -0.74278,0.9117 -0.78693,1.1324 l -0.0752,0.3761 -0.22713,-0.2922 c -0.75284,-0.9685 -0.76535,-3.4763 -0.023,-4.6093 0.25721,-0.3925 0.12753,-0.4962 -0.75696,-0.6051 -1.19347,-0.1469 -3.01575,0.4275 -3.67812,1.1594 -0.12875,0.1422 -0.32668,0.2586 -0.43985,0.2586 -0.3563,0 -1.32974,0.7325 -1.76858,1.3308 -0.23195,0.3163 -0.49929,0.8414 -0.59408,1.1669 l -0.17235,0.5919 -2.65252,-2.928 c -1.45889,-1.6104 -5.03822,-5.6103 -7.95407,-8.8886 l -5.30155,-5.9607 0.68728,-0.6945 0.68728,-0.6945 -2.91837,-3.2426 c -1.6051,-1.7834 -3.13673,-3.4708 -3.40362,-3.7497 l -0.48525,-0.5071 1.25966,-0.9863 1.25967,-0.9862 0.55438,0.2376 c 2.472,1.0596 5.61951,1.0112 7.84616,-0.1208 0.79576,-0.4045 1.52025,-0.883 2.13837,-1.4122 l 0.40598,-0.3477 m -11.25856,-11.1697 c -0.05,0 -0.57581,0.447 -1.16856,0.9934 -0.59275,0.5464 -1.31762,1.1354 -1.61081,1.3089 -0.5127,0.3034 -0.5785,0.3116 -1.72135,0.2165 -1.64202,-0.1366 -2.00695,-0.1185 -2.49001,0.1234 -0.23078,0.1156 -1.26301,1.0474 -2.29384,2.0707 l -1.87425,1.8605 -0.92417,-0.918 -0.92418,-0.918 4.45788,-4.4591 4.45789,-4.4592 m -10.63398,-10.634 -3.29566,3.294 -3.29567,3.294 -0.82299,-0.8352 -0.82299,-0.8352 3.28775,-3.2895 3.28776,-3.2894 m -4.73341,-4.7333 -3.13916,3.1353 c -1.72653,1.7245 -3.19064,3.225 -3.25356,3.3345 -0.0823,0.1433 0.26258,1.329 1.22898,4.2252 l 1.34338,4.026 1.16519,1.1557 c 1.28897,1.2786 2.24961,2.6146 2.65066,3.6865 0.41359,1.1055 0.57099,2.9475 0.40374,4.7252 -0.0776,0.825 -0.16696,1.5259 -0.19853,1.5575 -0.10582,0.1058 -2.26939,-1.083 -3.05245,-1.6772 -1.0599,-0.8043 -2.1747,-1.9583 -2.64602,-2.7391 -0.61765,-1.0232 -0.80631,-1.8919 -0.83557,-3.8472 -0.0238,-1.5925 -0.0554,-1.8042 -0.42137,-2.828 -0.53512,-1.4968 -1.44751,-4.3933 -2.102251,-6.6738 l -0.539359,-1.8787 3.89934,-3.9007 3.89934,-3.9008 m -11.188256,-11.1862 -3.504323,3.5027 c -1.927378,1.9265 -3.504323,3.5484 -3.504323,3.6043 0,0.056 0.37003,0.6324 0.822289,1.2811 l 0.82229,1.1794 -0.705069,0.6563 c -0.387788,0.3609 -0.7484,0.6562 -0.801361,0.6562 -0.07117,0 -2.372203,-3.6518 -2.817299,-4.4711 -0.03176,-0.058 1.74771,-1.9124 3.954379,-4.1198 l 4.012127,-4.0135 m -5.411143,-5.407 -4.381184,4.3812 -4.381183,4.3812 3.527423,7.5208 c 1.940082,4.1364 3.557711,7.5997 3.594729,7.6962 0.03702,0.097 -0.304826,1.1391 -0.759656,2.3169 l -0.826965,2.1416 1.594131,2.4406 c 0.876772,1.3424 4.375331,6.701 7.774576,11.9081 3.399245,5.207 6.307178,9.636 6.462068,9.8421 0.244,0.3247 1.14802,0.7186 6.76654,2.9485 l 6.48491,2.5738 5.72336,6.0886 c 3.14785,3.3487 5.74282,6.1138 5.7666,6.1447 0.0238,0.031 0.28776,-0.077 0.58661,-0.2406 0.29884,-0.1633 0.5653,-0.2716 0.59212,-0.2406 0.0268,0.031 3.35296,3.8691 7.39142,8.5294 l 7.34264,8.4733 -1.51542,0.5092 c -0.83348,0.28 -1.63772,0.576 -1.7872,0.6577 l -0.27177,0.1486 0.3031,0.4466 c 0.34707,0.5114 0.6711,1.5086 0.6701,2.0621 -9.9e-4,0.5274 -0.21903,1.2556 -0.44307,1.4797 -0.49503,0.495 -1.72524,0.066 -2.88182,-1.0046 -0.86598,-0.8018 -1.16349,-1.2569 -1.38337,-2.116 l -0.16524,-0.6457 -0.45115,0.6557 c -0.91379,1.328 -1.29244,3.3315 -0.90233,4.7744 0.10053,0.3719 0.17189,0.687 0.15856,0.7003 -0.0133,0.013 -0.45795,0.1138 -0.98807,0.2233 -1.37702,0.2845 -2.7791,0.9426 -2.7791,1.3046 0,0.055 0.47244,0.4107 1.04988,0.791 1.17589,0.7744 2.44682,1.8981 2.6917,2.38 0.25766,0.507 0.34469,0.8716 0.20806,0.8716 -0.29459,0 -14.45017,-6.0425 -14.69081,-6.271 -0.0581,-0.055 -0.20499,-1.0434 -0.32634,-2.1959 l -0.22064,-2.0956 -1.18665,-2.2797 c -0.90398,-1.7367 -1.25092,-2.294 -1.45648,-2.3394 -0.14841,-0.033 -2.17869,-0.2819 -4.51173,-0.5536 -2.33304,-0.2717 -4.44263,-0.5255 -4.68797,-0.564 l -0.44609,-0.07 -2.60855,3.3846 -2.60855,3.3846 -0.3525,-0.2606 c -0.19387,-0.1433 -0.315942,-0.3209 -0.27128,-0.3947 0.0447,-0.074 1.18363,-1.563 2.53104,-3.3095 1.3474,-1.7464 2.40143,-3.2188 2.34229,-3.2721 -0.18494,-0.1664 -6.740377,-3.6112 -6.869971,-3.6101 -0.06762,6e-4 -1.050585,0.5611 -2.184357,1.2455 -1.98905,1.2007 -2.10086,1.2507 -3.185509,1.4253 -0.618258,0.099 -1.156846,0.2304 -1.196862,0.2909 -0.04001,0.061 -1.926278,2.3968 -4.191694,5.1918 -2.265416,2.7951 -4.116262,5.1059 -4.112991,5.1352 0.0033,0.029 1.054523,2.0413 2.336115,4.4709 l 2.330166,4.4177 2.543909,3.0057 c 1.39915,1.6532 2.788953,3.3846 3.088451,3.8476 l 0.544542,0.8417 3.858415,2.4628 3.858416,2.4627 1.10658,-0.058 1.10658,-0.058 4.54928,4.1521 c 2.5021,2.2837 5.79064,5.2892 7.30786,6.6789 l 2.75859,2.5268 -1.59053,0.2648 c -1.47939,0.2464 -2.26678,0.4759 -2.26678,0.6607 0,0.042 0.54699,0.6039 1.21552,1.2477 1.17559,1.1322 1.85832,2.1126 1.85832,2.6686 0,0.1263 0.0369,0.2664 0.082,0.3115 m 96.53147,0.082 1.25662,-2.3525 1.25662,-2.3525"
     inkscape:connector-curvature="0" />
</svg>
