<?xml version="1.0" encoding="UTF-8" standalone="no"?>
<!-- Created with Inkscape (http://www.inkscape.org/) -->

<svg
   xmlns:dc="http://purl.org/dc/elements/1.1/"
   xmlns:cc="http://creativecommons.org/ns#"
   xmlns:rdf="http://www.w3.org/1999/02/22-rdf-syntax-ns#"
   xmlns:svg="http://www.w3.org/2000/svg"
   xmlns="http://www.w3.org/2000/svg"
   xmlns:sodipodi="http://sodipodi.sourceforge.net/DTD/sodipodi-0.dtd"
   xmlns:inkscape="http://www.inkscape.org/namespaces/inkscape"
   id="svg6338"
   version="1.1"
   inkscape:version="0.91 r"
   width="402"
   height="1304"
   viewBox="0 0 402 1304"
   sodipodi:docname="snowflake-C3PO-000.svg">
  <metadata
     id="metadata6344">
    <rdf:RDF>
      <cc:Work
         rdf:about="">
        <dc:format>image/svg+xml</dc:format>
        <dc:type
           rdf:resource="http://purl.org/dc/dcmitype/StillImage" />
        <dc:title />
      </cc:Work>
    </rdf:RDF>
  </metadata>
  <defs
     id="defs6342" />
  <sodipodi:namedview
     pagecolor="#ffffff"
     bordercolor="#666666"
     borderopacity="1"
     objecttolerance="10"
     gridtolerance="10"
     guidetolerance="10"
     inkscape:pageopacity="0"
     inkscape:pageshadow="2"
     inkscape:window-width="1600"
     inkscape:window-height="843"
     id="namedview6340"
     showgrid="false"
     inkscape:zoom="2.1472968"
     inkscape:cx="185.48979"
     inkscape:cy="1080.3585"
     inkscape:window-x="0"
     inkscape:window-y="0"
     inkscape:window-maximized="1"
     inkscape:current-layer="svg6338"
     showguides="true"
     inkscape:guide-bbox="true"
     inkscape:snap-center="true">
    <sodipodi:guide
       position="345.72484,55.315974"
       orientation="0,1"
       id="guide4133" />
    <sodipodi:guide
       position="345.72484,55.315974"
       orientation="1,0"
       id="guide4135" />
  </sodipodi:namedview>
  <path
     id="path4157"
     style="fill:none;stroke:#00ff00;stroke-opacity:1;stroke-width:0.70866142;stroke-miterlimit:4;stroke-dasharray:none"
     d="m 105.77364,159.1803 c 0.49451,-2.5038 -0.41513,-5.2077 -2.32936,-6.9239 -0.91143,-0.8172 -1.4324,-1.1182 -2.58442,-1.4934 -1.896612,-0.6177 -3.820572,-0.5094 -5.523752,0.3108 -1.38615,0.6676 -2.18,1.371 -3.02545,2.6807 -1.20296,1.8636 -1.52663,3.5856 -1.05513,5.6134 0.52009,2.2368 1.60687,3.7339 3.49467,4.8141 2.82253,1.615 6.128842,1.3266 8.550402,-0.7457 0.39917,-0.3416 0.79583,-0.7399 0.88148,-0.8851 l 0.15572,-0.264 -2.36696,-1.3666 -2.366972,-1.3665 -0.49096,0.1779 c -1.35997,0.4929 -2.8616,-0.7246 -2.6559,-2.1532 0.10983,-0.7628 0.3538,-1.1681 0.91404,-1.5184 1.20925,-0.756 2.807622,-0.083 3.107022,1.3083 0.0775,0.3602 0.19212,0.4416 2.48131,1.7633 2.752,1.5889 2.51079,1.5847 2.81425,0.048 z m 19.49957,8.0457 c -4.33727,-5.4774 -10.79566,-12.1873 -17.22789,-17.8988 -1.05804,-0.9395 -1.9565,-1.7 -1.99659,-1.6901 -0.0401,0.01 -0.0712,0.5597 -0.0692,1.2218 l 0.004,1.2037 4.00751,3.5353 c 5.8201,5.1343 10.62365,9.6227 15.25411,14.2533 0.92378,0.9238 1.71186,1.671 1.75128,1.6605 0.0394,-0.011 -0.7359,-1.0391 -1.72295,-2.2857 z m -22.96691,8.359 1.08314,-0.6723 c 2.83308,-1.7584 3.90721,-2.4506 3.89001,-2.5068 -0.0103,-0.034 -1.69772,0.3422 -3.74979,0.8351 l -3.731052,0.8962 m -12.90463,-7.4505 -0.58688,-2.3544 c -1.18606,-4.7582 -1.11494,-8.6147 0.21761,-11.8015 1.86049,-4.4494 7.09469,-7.2292 14.418852,-7.6577 0.8058,-0.047 1.4993,-0.095 1.5411,-0.1056 0.0418,-0.011 -0.26028,-0.1006 -0.67133,-0.1994 -5.137632,-1.2343 -9.917002,-0.4455 -13.242502,2.1856 -1.37635,1.0889 -2.16756,2.105 -3.32097,4.2647 -0.84121,1.575 -1.09313,2.1687 -1.36034,3.2054 -0.90455,3.5096 -0.41804,7.2731 1.37234,10.6162 l 0.70117,1.3092 m -31.10413,-17.958 1.04619,-1.6373 c 5.21673,-8.1645 12.86001,-12.7738 21.10507,-12.7274 1.74053,0.01 1.26042,-0.1144 -1.00567,-0.2602 -4.39564,-0.2828 -8.44749,0.6722 -12.25061,2.8874 -3.54716,2.0661 -6.9578,5.4005 -9.38423,9.1744 l -1.03253,1.6059 m -0.56654,-0.2799 c -0.55797,-0.2757 -0.56416,-0.2867 -0.40872,-0.7287 0.39096,-1.1117 -0.27332,-2.7744 -1.36058,-3.4057 -1.05048,-0.6098 -2.83783,-0.3493 -3.58592,0.5227 l -0.31628,0.3687 m -1.5317,-1.1357 c 0.10301,-0.1784 0.68479,-0.8789 1.1966,-1.3908 3.2887,-3.2889 9.02867,-6.6904 15.34903,-9.0957 2.19717,-0.8361 7.54845,-2.2456 9.7938,-2.5795 7.77536,-1.1562 14.56698,-0.2998 20.9687,2.6443 1.81188,0.8333 8.019972,5.0982 12.217322,8.3932 4.91172,3.8558 10.57571,8.9915 14.66046,13.2931 l 0.92928,0.9786 -0.15066,1.2078 -0.15065,1.2078 0.94781,-0.2476 0.9478,-0.2476 5.45071,4.428 c 2.99789,2.4355 5.46175,4.4703 5.47525,4.5218 0.0135,0.052 -0.76912,1.4684 -1.73914,3.1485 l -1.76367,3.0548 1.0348,3.2477 c 1.66663,5.2307 2.52872,9.1499 2.5031,11.3795 -0.0102,0.8896 -0.19504,0.7281 3.74396,3.2729 6.11158,3.9484 20.54652,12.4971 20.68806,12.252 0.12056,-0.2088 0.20209,-2.2707 0.12768,-3.2295 -0.25126,-3.2387 -1.75315,-6.4193 -4.15257,-8.7941 -0.83413,-0.8256 -1.23123,-1.1144 -2.68919,-1.9562 -1.46592,-0.8463 -1.90471,-1.0408 -3.06848,-1.3599 -1.4462,-0.3965 -3.34834,-0.603 -4.62345,-0.502 l -0.77774,0.062 0.49316,-0.2587 c 1.36214,-0.7145 2.50916,-1.1434 4.4636,-1.6691 5.09398,-1.3703 10.40414,-0.8436 14.99592,1.4874 l 1.30392,0.662 m 10.61631,18.3907 -0.0878,1.5329 c -0.16392,2.863 -1.0867,6.1704 -2.3976,8.5934 l -0.30801,0.5693 m -54.58236,-31.5132 0.89364,-1.7254 c 0.49151,-0.949 1.17902,-2.2202 1.52781,-2.8249 0.57208,-0.9908 0.61042,-1.1052 0.39317,-1.1587 -0.13257,-0.033 -1.00208,-0.3042 -1.9323,-0.6035 l -1.69127,-0.5441 -1.38339,2.3961 -1.3834,2.3961 m -23.600632,4.8409 c -1.92111,1.6802 -4.71753,2.2443 -7.16094,1.4447 -1.16341,-0.3808 -1.6846,-0.6814 -2.58551,-1.4915 -1.48324,-1.3337 -2.35145,-3.054 -2.4927,-4.9391 -0.11495,-1.5343 0.0973,-2.5734 0.80881,-3.9605 1.01243,-1.9736 2.34188,-3.1149 4.33379,-3.7205 2.19715,-0.668 4.03705,-0.4753 5.91642,0.6195 2.80991,1.6368 4.21335,4.6444 3.62941,7.7777 -0.0963,0.5165 -0.24283,1.0592 -0.32575,1.2059 l -0.15076,0.2669 -2.36698,-1.3666 -2.36696,-1.3666 -0.0914,-0.5141 c -0.25315,-1.4242 -2.05825,-2.116 -3.19269,-1.2235 -0.60569,0.4765 -0.83471,0.8905 -0.85792,1.5508 -0.0501,1.4252 1.33196,2.4729 2.68656,2.0366 0.35064,-0.113 0.4785,-0.055 2.76768,1.2672 2.752,1.5889 2.62781,1.3821 1.44892,2.4131 z m 16.717652,12.8642 c -6.912242,-1.0174 -15.952392,-3.2556 -24.114802,-5.9704 -1.34261,-0.4465 -2.45051,-0.8443 -2.46197,-0.884 -0.0114,-0.04 0.44909,-0.3415 1.02349,-0.6708 l 1.04435,-0.5987 5.06542,1.703 c 7.35648,2.4732 13.645302,4.389 19.970772,6.0838 1.26191,0.3381 2.30304,0.647 2.3136,0.6864 0.0105,0.039 -1.26782,-0.1177 -2.84086,-0.3493 z m -4.24438,-24.0694 -0.0407,1.2742 c -0.10633,3.3327 -0.16871,4.6091 -0.22595,4.6222 -0.0343,0.01 -0.55255,-1.6413 -1.15171,-3.6649 l -1.089372,-3.6793 m -12.90464,-7.4505 -2.33241,0.669 c -4.71374,1.3519 -8.01798,3.3417 -10.11156,6.0892 -2.92305,3.8359 -2.71336,9.7588 0.5776,16.3159 0.36207,0.7214 0.66769,1.3458 0.67915,1.3875 0.0114,0.042 -0.21732,-0.1751 -0.50837,-0.4818 -3.63773,-3.8321 -5.3443,-8.3656 -4.7285,-12.5611 0.25488,-1.7364 0.73921,-2.9296 2.03286,-5.0084 0.94346,-1.516 1.33159,-2.031 2.09586,-2.7808 2.5871,-2.5381 6.08964,-3.9986 9.88002,-4.1196 l 1.48442,-0.047 m -31.10415,-17.958 -0.8949,1.7248 c -4.46229,8.6 -4.63241,17.5239 -0.46971,24.6412 0.87876,1.5024 0.53111,1.1487 -0.72817,-0.7408 -2.44269,-3.6654 -3.64156,-7.6519 -3.62471,-12.0531 0.0157,-4.105 1.19805,-8.7259 3.25311,-12.7142 l 0.8745,-1.6971 m -0.52569,-0.3507 c -0.51773,-0.3454 -0.53037,-0.3452 -0.83538,0.01 -0.76731,0.8944 -2.53943,1.1505 -3.62972,0.5245 -1.05341,-0.6048 -1.72147,-2.2829 -1.3403,-3.3668 l 0.16116,-0.4583 m -1.7494,-0.7586 c -0.10302,0.1784 -0.41879,1.0325 -0.60614,1.7317 -1.20397,4.4925 -1.27973,11.1642 -0.20261,17.8405 0.37444,2.3209 1.82951,7.6599 2.663,9.7714 2.88632,7.3118 7.02385,12.7653 12.77435,16.8373 1.62758,1.1525 8.42514,4.3964 13.3774,6.3839 5.79512,2.3258 13.07475,4.6631 18.84237,6.0498 l 1.31211,0.3155 0.97069,-0.7344 0.97069,-0.7344 0.25944,0.9446 0.25945,0.9447 6.560172,2.5064 c 3.60809,1.3785 6.60222,2.4949 6.65361,2.4808 0.0514,-0.014 0.88707,-1.4002 1.85709,-3.0804 l 1.76367,-3.0547 3.33001,-0.7277 c 5.36328,-1.1721 9.18845,-2.3851 11.10649,-3.522 0.76535,-0.4537 0.53304,-0.533 4.70642,1.6059 6.47521,3.3185 21.0961,11.5452 20.95456,11.7904 -0.12057,0.2088 -1.86544,1.3103 -2.73303,1.7253 -2.93041,1.4017 -6.43583,1.6913 -9.69215,0.8008 -1.13205,-0.3096 -1.58076,-0.5091 -3.0387,-1.3508 -1.46592,-0.8464 -1.85372,-1.1291 -2.71193,-1.9774 -1.0665,-1.0543 -2.19644,-2.5983 -2.74654,-3.753 l -0.33552,-0.7044 0.0226,0.5565 c 0.0623,1.5368 0.26435,2.7446 0.78628,4.7001 1.36033,5.0966 4.47157,9.432 8.78618,12.2431 l 1.22519,0.7983 m 21.23496,0 1.28365,-0.8424 c 2.39753,-1.5735 4.80043,-4.0264 6.24331,-6.3731 l 0.33901,-0.5514 m -54.58236,-31.5131 -1.04745,1.6366 c -0.57611,0.9001 -1.33323,2.1311 -1.68249,2.7355 -0.57207,0.9909 -0.65195,1.0813 -0.8069,0.9199 -0.0945,-0.099 -0.76448,-0.7157 -1.48877,-1.3717 l -1.3169,-1.1926 1.38339,-2.3961 1.38339,-2.3961 m -23.574622,78.4075 c -1.92111,-1.6802 -4.71753,-2.2443 -7.16096,-1.4447 -1.16339,0.3808 -1.68458,0.6814 -2.58551,1.4915 -1.48321,1.3337 -2.35142,3.054 -2.49267,4.9391 -0.11497,1.5343 0.0973,2.5734 0.80881,3.9605 1.01241,1.9736 2.3419,3.1149 4.33378,3.7205 2.19716,0.6679 4.03706,0.4753 5.91642,-0.6195 2.80991,-1.6369 4.21335,-4.6444 3.62942,-7.7777 -0.0963,-0.5165 -0.24285,-1.0591 -0.32577,-1.2059 l -0.15076,-0.2669 -2.36697,1.3666 -2.36696,1.3666 -0.0914,0.5141 c -0.25314,1.4242 -2.05826,2.116 -3.19268,1.2235 -0.60569,-0.4765 -0.8347,-0.8905 -0.85791,-1.5508 -0.0501,-1.4252 1.33194,-2.4729 2.68654,-2.0366 0.35067,0.113 0.4785,0.054 2.76769,-1.2672 2.752,-1.5889 2.62781,-1.3821 1.44892,-2.4131 z m 16.717632,-12.8642 c -6.912242,1.0174 -15.952392,3.2556 -24.114792,5.9703 -1.34263,0.4466 -2.45052,0.8444 -2.46199,0.8841 -0.0114,0.04 0.44912,0.3415 1.0235,0.6708 l 1.04436,0.5986 5.06541,-1.7029 c 7.35648,-2.4732 13.645312,-4.389 19.970782,-6.0838 1.26192,-0.3381 2.30305,-0.647 2.3136,-0.6865 0.0105,-0.039 -1.26783,0.1178 -2.84086,0.3494 z m -4.24437,24.0694 -0.0407,-1.2742 c -0.10632,-3.3327 -0.16872,-4.6091 -0.22595,-4.6222 -0.0343,-0.01 -0.55254,1.6413 -1.1517,3.6649 l -1.089382,3.6793 m -12.90463,7.4505 -2.33245,-0.669 c -4.71372,-1.3519 -8.01796,-3.3417 -10.11154,-6.0892 -2.92304,-3.8359 -2.71337,-9.7588 0.57761,-16.3159 0.36206,-0.7215 0.66767,-1.3458 0.67913,-1.3875 0.0115,-0.042 -0.2173,0.1751 -0.50835,0.4817 -3.63776,3.8322 -5.34432,8.3657 -4.72849,12.5612 0.25487,1.7364 0.73918,2.9296 2.03286,5.0084 0.94343,1.516 1.33156,2.031 2.09584,2.7808 2.5871,2.5381 6.08965,3.9986 9.88001,4.1196 l 1.48442,0.047 m -31.10413,17.9579 -0.89491,-1.7247 c -4.4623,-8.6001 -4.6324,-17.524 -0.46971,-24.6412 0.87876,-1.5024 0.53112,-1.1488 -0.72816,0.7408 -2.4427,3.6654 -3.64157,7.6519 -3.62471,12.0531 0.0157,4.105 1.19805,8.7259 3.25309,12.7142 l 0.87452,1.6971 m -0.5257,0.3507 c -0.51773,0.3454 -0.53039,0.3452 -0.83537,-0.01 -0.7673,-0.8944 -2.53944,-1.1505 -3.62972,-0.5245 -1.05341,0.6048 -1.72146,2.2829 -1.34032,3.3668 l 0.16114,0.4582 m -1.74939,0.7587 c -0.10301,-0.1784 -0.41876,-1.0325 -0.60613,-1.7317 -1.20394,-4.4925 -1.27972,-11.1642 -0.20259,-17.8405 0.37444,-2.3209 1.82949,-7.6599 2.66299,-9.7714 2.88632,-7.3118 7.02384,-12.7653 12.77436,-16.8373 1.62756,-1.1525 8.42513,-4.3964 13.37739,-6.3839 5.7951,-2.3258 13.07475,-4.6631 18.84237,-6.0498 l 1.31212,-0.3155 0.97069,0.7344 0.97067,0.7344 0.25945,-0.9446 0.25946,-0.9447 6.560172,-2.5064 c 3.60809,-1.3785 6.6022,-2.4949 6.65359,-2.4808 0.0514,0.014 0.88708,1.4002 1.8571,3.0804 l 1.76367,3.0547 3.33001,0.7277 c 5.36328,1.1721 9.18845,2.3851 11.10648,3.522 0.76536,0.4537 0.53304,0.533 4.70642,-1.6059 6.47521,-3.3185 21.0961,-11.5452 20.95455,-11.7904 -0.12055,-0.2088 -1.86543,-1.3103 -2.73301,-1.7253 -2.9304,-1.4017 -6.43581,-1.6914 -9.69215,-0.8008 -1.13203,0.3096 -1.58074,0.5091 -3.03869,1.3508 -1.46593,0.8464 -1.85374,1.1291 -2.71194,1.9775 -1.06649,1.0541 -2.19645,2.5982 -2.74654,3.7529 l -0.33551,0.7044 0.0225,-0.5564 c 0.0623,-1.5369 0.26436,-2.7447 0.7863,-4.7002 1.36031,-5.0966 4.47156,-9.432 8.78616,-12.2431 l 1.22519,-0.7983 m 21.23498,0 1.28364,0.8424 c 2.39755,1.5735 4.80044,4.0264 6.24332,6.3731 l 0.33901,0.5514 m -54.58236,31.5131 -1.04746,-1.6366 c -0.5761,-0.9001 -1.33322,-2.1311 -1.68248,-2.7355 -0.57208,-0.9909 -0.65196,-1.0813 -0.8069,-0.9199 -0.0946,0.099 -0.76449,0.7157 -1.4888,1.3717 l -1.31687,1.1926 1.38339,2.3961 1.38337,2.3961 m -7.60793,22.8592 c 0.49451,2.5038 -0.41512,5.2077 -2.32935,6.9239 -0.91143,0.8172 -1.4324,1.1182 -2.58442,1.4934 -1.896622,0.6177 -3.820582,0.5094 -5.523762,-0.3108 -1.38614,-0.6676 -2.18,-1.371 -3.02545,-2.6807 -1.20294,-1.8636 -1.52665,-3.5856 -1.05513,-5.6134 0.52009,-2.2368 1.60688,-3.7339 3.49467,-4.8141 2.82253,-1.615 6.128832,-1.3266 8.550402,0.7457 0.39917,0.3416 0.79585,0.7399 0.8815,0.8851 l 0.15572,0.264 -2.36698,1.3666 -2.366962,1.3665 -0.49095,-0.1779 c -1.35998,-0.4929 -2.86161,0.7245 -2.65591,2.1532 0.10983,0.7628 0.3538,1.1681 0.91404,1.5184 1.20924,0.756 2.807612,0.083 3.107012,-1.3084 0.0775,-0.3601 0.19213,-0.4416 2.48131,-1.7632 2.752,-1.5889 2.5108,-1.5847 2.81425,-0.048 z m 19.49958,-8.0458 c -4.33728,5.4775 -10.79567,12.1874 -17.22791,17.8989 -1.05801,0.9394 -1.95648,1.7 -1.99657,1.6901 -0.0401,-0.01 -0.0712,-0.5597 -0.0692,-1.2218 l 0.004,-1.2038 4.00752,-3.5353 c 5.8201,-5.1343 10.62364,-9.6226 15.25412,-14.2533 0.92377,-0.9238 1.71184,-1.671 1.75128,-1.6604 0.0394,0.011 -0.73591,1.0391 -1.72295,2.2856 z m -22.96691,-8.3589 1.08314,0.6723 c 2.83306,1.7584 3.90721,2.4506 3.88999,2.5068 -0.0103,0.034 -1.69772,-0.3422 -3.74979,-0.8351 l -3.731032,-0.8962 m -12.90464,7.4505 -0.58686,2.3544 c -1.18607,4.7582 -1.11495,8.6146 0.2176,11.8014 1.86049,4.4494 7.09469,7.2293 14.418842,7.6578 0.8058,0.047 1.4993,0.095 1.54112,0.1056 0.0418,0.011 -0.26029,0.1006 -0.67134,0.1994 -5.137622,1.2343 -9.916992,0.4455 -13.242522,-2.1856 -1.37633,-1.0889 -2.16753,-2.105 -3.32097,-4.2647 -0.84118,-1.5751 -1.0931,-2.1687 -1.36033,-3.2055 -0.90455,-3.5096 -0.41803,-7.273 1.37236,-10.6161 l 0.70117,-1.3093 m -31.10416,17.958 1.04621,1.6374 c 5.21674,8.1645 12.85999,12.7738 21.10507,12.7274 1.74053,-0.01 1.2604,0.1144 -1.00567,0.2602 -4.39564,0.2827 -8.44749,-0.6723 -12.25061,-2.8875 -3.54718,-2.0661 -6.9578,-5.4004 -9.38422,-9.1743 l -1.03255,-1.6059 m -0.56653,0.2799 c -0.55797,0.2757 -0.56415,0.2867 -0.40873,0.7286 0.39096,1.1118 -0.27332,2.7745 -1.36058,3.4057 -1.05047,0.6099 -2.83782,0.3494 -3.58589,-0.5226 l -0.31628,-0.3687 m -1.53171,1.1357 c 0.10301,0.1784 0.68478,0.8789 1.19659,1.3907 3.28869,3.289 9.02867,6.6904 15.34903,9.0958 2.19718,0.8361 7.54846,2.2455 9.7938,2.5794 7.77537,1.1563 14.56699,0.2999 20.96869,-2.6442 1.8119,-0.8333 8.019972,-5.0982 12.217332,-8.3932 4.91173,-3.8559 10.57571,-8.9916 14.66045,-13.2931 l 0.92927,-0.9786 -0.15064,-1.2078 -0.15065,-1.2079 0.9478,0.2477 0.9478,0.2476 5.45072,-4.4281 c 2.99789,-2.4354 5.46175,-4.4702 5.47525,-4.5217 0.0135,-0.052 -0.76912,-1.4684 -1.73913,-3.1485 l -1.76368,-3.0548 1.0348,-3.2477 c 1.66663,-5.2308 2.52873,-9.15 2.5031,-11.3795 -0.0102,-0.8897 -0.19504,-0.7281 3.74396,-3.2729 6.11157,-3.9485 20.54652,-12.4972 20.68806,-12.252 0.12056,0.2088 0.20209,2.2707 0.12768,3.2295 -0.25127,3.2387 -1.75316,6.4193 -4.15256,8.7941 -0.83415,0.8255 -1.23125,1.1144 -2.68918,1.9561 -1.46593,0.8464 -1.90473,1.0409 -3.06849,1.3599 -1.44621,0.3965 -3.34834,0.6031 -4.62345,0.5021 l -0.77774,-0.062 0.49317,0.2587 c 1.36212,0.7145 2.50914,1.1434 4.46359,1.6691 5.09397,1.3703 10.40414,0.8435 14.99594,-1.4875 l 1.30389,-0.6619 m 10.6163,-18.3907 -0.0878,-1.5329 c -0.16391,-2.8631 -1.08668,-6.1704 -2.39758,-8.5934 l -0.30801,-0.5693 m -54.58237,31.5132 0.89364,1.7254 c 0.4915,0.949 1.17902,2.2202 1.52781,2.8248 0.57207,0.9909 0.61043,1.1053 0.39316,1.1588 -0.13254,0.033 -1.00208,0.3042 -1.93228,0.6034 l -1.69128,0.5442 -1.38339,-2.3961 -1.3834,-2.3961 m 56.11559,59.62 c -2.41562,0.8236 -4.3024,2.9633 -4.8316,5.4792 -0.25196,1.1979 -0.25218,1.7996 -0.001,2.9849 0.41339,1.9513 1.46915,3.5634 3.03108,4.6283 1.27119,0.8666 2.27725,1.2024 3.83426,1.2797 2.21537,0.1101 3.86854,-0.4707 5.38891,-1.8929 1.67707,-1.5688 2.43019,-3.2585 2.42175,-5.4335 -0.0126,-3.2519 -1.91548,-5.971 -4.92098,-7.032 -0.49542,-0.1749 -1.03868,-0.3193 -1.20725,-0.3209 l -0.30649,0 0,2.7331 1e-5,2.7332 0.39955,0.3362 c 1.10683,0.9313 0.80334,2.8405 -0.53677,3.3767 -0.71552,0.2862 -1.1885,0.2776 -1.77195,-0.032 -1.25937,-0.6693 -1.47567,-2.39 -0.42048,-3.345 0.27316,-0.2472 0.28638,-0.3871 0.28638,-3.0305 0,-3.1777 0.11702,-2.9667 -1.36532,-2.4613 z m -2.78194,-20.91 c -2.57497,6.4949 -5.15673,15.443 -6.88689,23.8692 -0.2846,1.386 -0.49403,2.5444 -0.46541,2.5741 0.0286,0.03 0.52033,-0.2181 1.09268,-0.5509 l 1.04065,-0.6051 1.05789,-5.2383 c 1.53638,-7.6075 3.02167,-14.0117 4.71667,-20.3371 0.33814,-1.2619 0.59119,-2.318 0.56233,-2.3469 -0.0289,-0.029 -0.53193,1.1569 -1.11792,2.635 z m 18.72253,15.7104 -1.1238,-0.6019 c -2.93939,-1.5743 -4.07592,-2.1584 -4.11594,-2.1154 -0.024,0.026 1.14517,1.2992 2.59808,2.8299 l 2.64167,2.783 m -1e-5,14.901 -1.74556,1.6855 c -3.52766,3.4062 -6.90302,5.2729 -10.32915,5.7123 -4.78353,0.6134 -9.80806,-2.5296 -13.84124,-8.6583 -0.44374,-0.6742 -0.83163,-1.2511 -0.86197,-1.2818 -0.0303,-0.031 0.043,0.2757 0.16298,0.6811 1.49987,5.0665 4.57267,8.8111 8.51401,10.3755 1.63121,0.6475 2.90674,0.8247 5.35383,0.7437 1.78464,-0.059 2.42469,-0.1376 3.45619,-0.4246 3.49163,-0.9714 6.50768,-3.2745 8.50766,-6.4966 l 0.78325,-1.2618 m 0,35.916 -1.9411,-0.087 c -9.67903,-0.4356 -17.49241,-4.7502 -21.57478,-11.9138 -0.86177,-1.5123 -0.7293,-1.0344 0.27751,1.001 1.95293,3.9481 4.80592,6.9796 8.6259,9.1656 3.56288,2.0389 8.15585,3.3254 12.63732,3.5398 l 1.90705,0.091 m 0.0408,0.6306 c 0.0402,0.621 0.0338,0.6319 -0.42662,0.7183 -1.15826,0.2173 -2.26612,1.6239 -2.26914,2.8811 -0.003,1.2147 1.11636,2.6323 2.2456,2.8442 l 0.47741,0.09 m -0.21768,1.8943 c -0.20603,0 -1.10355,-0.1536 -1.80274,-0.3409 -4.49263,-1.2036 -10.30839,-4.4739 -15.55162,-8.7448 -1.82272,-1.4847 -5.71896,-5.4144 -7.1308,-7.1919 -4.88904,-6.1556 -7.54314,-12.4655 -8.19434,-19.4816 -0.18432,-1.9858 0.40516,-9.4946 1.16007,-14.7771 0.88338,-6.1816 2.49904,-13.6546 4.1819,-19.3429 l 0.38285,-1.2941 1.12135,-0.4734 1.12132,-0.4734 -0.68836,-0.6971 -0.68834,-0.697 1.10945,-6.9345 c 0.6102,-3.8139 1.14045,-6.9651 1.17834,-7.0025 0.0379,-0.037 1.65621,-0.068 3.59624,-0.068 l 3.52735,0 2.29521,-2.5201 c 3.69664,-4.0587 6.65972,-6.7649 8.60338,-7.8575 0.77558,-0.4359 0.72808,-0.1951 0.96245,-4.8788 0.36364,-7.267 0.54959,-24.0424 0.2665,-24.0424 -0.24111,0 -2.06752,0.9604 -2.86069,1.5042 -2.67915,1.837 -4.68266,4.7279 -5.53958,7.9933 -0.2979,1.1351 -0.34952,1.6235 -0.34951,3.307 -1e-5,1.6927 0.051,2.1699 0.35655,3.3373 0.3797,1.4507 1.15189,3.2013 1.8769,4.2551 l 0.44223,0.6427 -0.47061,-0.2977 c -1.29982,-0.8225 -2.2448,-1.6013 -3.67731,-3.0311 -3.73366,-3.7264 -5.93257,-8.5885 -6.20977,-13.7306 l -0.0787,-1.4601 m 10.61867,-18.3894 1.37139,-0.6904 c 2.56147,-1.2896 5.88714,-2.1442 8.64091,-2.2204 l 0.64703,-0.018 m -1e-5,63.0263 -1.94109,0.089 c -1.06762,0.049 -2.51225,0.089 -3.2103,0.089 -1.14415,0 -1.26238,0.024 -1.20006,0.2389 0.038,0.1311 0.23759,1.0199 0.4435,1.9752 l 0.37439,1.7367 2.76679,0 2.76677,0 m 15.9927,18.0183 c 2.41562,0.8236 4.3024,2.9633 4.83159,5.4792 0.25197,1.1979 0.2522,1.7996 10e-4,2.9849 -0.41339,1.9513 -1.46914,3.5634 -3.03106,4.6283 -1.27119,0.8666 -2.27727,1.2025 -3.83428,1.2798 -2.21535,0.11 -3.86853,-0.4707 -5.3889,-1.893 -1.67707,-1.5688 -2.43018,-3.2585 -2.42175,-5.4335 0.0126,-3.2519 1.91548,-5.971 4.92098,-7.032 0.49542,-0.1749 1.03869,-0.3193 1.20726,-0.3209 l 0.30648,0 0,2.7331 0,2.7332 -0.39957,0.3362 c -1.10682,0.9313 -0.80334,2.8405 0.53679,3.3767 0.71552,0.2863 1.1885,0.2776 1.77194,-0.032 1.25937,-0.6693 1.47568,-2.39 0.42048,-3.3449 -0.27315,-0.2472 -0.28638,-0.3872 -0.28638,-3.0306 0,-3.1777 -0.11702,-2.9667 1.36532,-2.4613 z m 2.78193,-20.91 c 2.57496,6.4949 5.15671,15.443 6.88688,23.8692 0.2846,1.386 0.49404,2.5444 0.46541,2.5741 -0.0286,0.03 -0.52033,-0.2181 -1.09267,-0.5509 l -1.04066,-0.6051 -1.0579,-5.2383 c -1.53638,-7.6075 -3.02166,-14.0117 -4.71665,-20.3371 -0.33815,-1.2619 -0.5912,-2.318 -0.56233,-2.3469 0.0289,-0.029 0.53192,1.1569 1.11792,2.635 z m -18.72254,15.7104 1.1238,-0.6019 c 2.93939,-1.5742 4.07593,-2.1584 4.11594,-2.1154 0.024,0.026 -1.14516,1.2992 -2.59808,2.8299 l -2.64165,2.783 m -2e-5,14.901 1.74557,1.6855 c 3.52767,3.4062 6.90303,5.2729 10.32916,5.7123 4.78353,0.6134 9.80805,-2.5296 13.84123,-8.6582 0.44374,-0.6743 0.83162,-1.2512 0.86198,-1.2819 0.0303,-0.031 -0.043,0.2757 -0.16298,0.6811 -1.49988,5.0664 -4.57268,8.8111 -8.51402,10.3756 -1.63121,0.6474 -2.90674,0.8246 -5.35383,0.7437 -1.78464,-0.059 -2.42469,-0.1377 -3.4562,-0.4247 -3.49163,-0.9714 -6.50766,-3.2745 -8.50765,-6.4966 l -0.78325,-1.2618 m -1e-5,35.916 1.94112,-0.087 c 9.67902,-0.4356 17.49239,-4.7502 21.57478,-11.9138 0.86177,-1.5123 0.72929,-1.0344 -0.27751,1.001 -1.95294,3.9481 -4.80593,6.9796 -8.6259,9.1656 -3.56289,2.0389 -8.15585,3.3254 -12.63733,3.5398 l -1.90705,0.091 m -0.0408,0.6306 c -0.0402,0.621 -0.0338,0.6319 0.42666,0.7183 1.15826,0.2172 2.26611,1.6239 2.26914,2.8811 0.003,1.2147 -1.11636,2.6323 -2.2456,2.8441 l -0.47743,0.09 m 0.21769,1.8944 c 0.20603,0 1.10356,-0.1536 1.80274,-0.3409 4.49265,-1.2037 10.30839,-4.4739 15.55162,-8.7448 1.82274,-1.4848 5.71896,-5.4144 7.1308,-7.192 4.88906,-6.1555 7.54314,-12.4654 8.19434,-19.4815 0.18432,-1.9858 -0.40516,-9.4946 -1.16006,-14.7771 -0.88339,-6.1816 -2.49905,-13.6546 -4.18192,-19.3429 l -0.38285,-1.2941 -1.12133,-0.4734 -1.12134,-0.4735 0.68836,-0.697 0.68836,-0.697 -1.10946,-6.9345 c -0.6102,-3.8139 -1.14046,-6.9651 -1.17835,-7.0026 -0.0379,-0.037 -1.6562,-0.068 -3.59623,-0.068 l -3.52735,0 -2.29521,-2.52 c -3.69664,-4.0587 -6.65971,-6.7649 -8.60337,-7.8575 -0.7756,-0.436 -0.72809,-0.1951 -0.96247,-4.8788 -0.36364,-7.267 -0.54959,-24.0424 -0.2665,-24.0424 0.24113,0 2.06752,0.9603 2.86071,1.5042 2.67913,1.8369 4.68266,4.7279 5.53959,7.9932 0.29789,1.1352 0.3495,1.6236 0.34951,3.307 -1e-5,1.6927 -0.051,2.17 -0.35655,3.3374 -0.37972,1.4507 -1.1519,3.2013 -1.87692,4.255 l -0.44221,0.6428 0.4706,-0.2978 c 1.29982,-0.8224 2.24479,-1.6013 3.67732,-3.031 3.73364,-3.7264 5.93257,-8.5885 6.20976,-13.7306 l 0.0787,-1.4602 m -10.61866,-18.3893 -1.37141,-0.6905 c -2.56145,-1.2895 -5.88712,-2.1441 -8.64089,-2.2203 l -0.64703,-0.018 m -1e-5,63.0263 1.9411,0.089 c 1.0676,0.049 2.51224,0.089 3.21029,0.089 1.14415,0 1.26239,0.024 1.20007,0.2389 -0.038,0.1311 -0.2376,1.0199 -0.44351,1.9751 l -0.37439,1.7368 -2.76678,0 -2.76678,0 m 79.69018,-18.7876 c -0.49451,2.5039 0.41512,5.2077 2.32934,6.9239 0.91143,0.8172 1.43241,1.1182 2.58442,1.4934 1.89662,0.6177 3.82059,0.5094 5.52376,-0.3108 1.38615,-0.6676 2.18,-1.3709 3.02546,-2.6807 1.20295,-1.8636 1.52663,-3.5856 1.05512,-5.6134 -0.52009,-2.2368 -1.60687,-3.7339 -3.49467,-4.814 -2.82252,-1.6151 -6.12883,-1.3267 -8.55039,0.7456 -0.39917,0.3416 -0.79584,0.7399 -0.8815,0.8851 l -0.15573,0.264 2.36697,1.3666 2.36697,1.3665 0.49094,-0.1779 c 1.35998,-0.4928 2.86161,0.7246 2.65592,2.1532 -0.10983,0.7628 -0.3538,1.1681 -0.91404,1.5184 -1.20925,0.756 -2.80762,0.083 -3.10702,-1.3083 -0.0775,-0.3602 -0.19212,-0.4416 -2.48132,-1.7633 -2.752,-1.5889 -2.51079,-1.5847 -2.81423,-0.048 z m -19.49958,-8.0457 c 4.33727,5.4774 10.79566,12.1873 17.2279,17.8988 1.05803,0.9395 1.95649,1.7 1.99657,1.6901 0.0401,-0.01 0.0712,-0.5597 0.0692,-1.2217 l -0.004,-1.2038 -4.00752,-3.5353 c -5.82009,-5.1343 -10.62364,-9.6227 -15.2541,-14.2533 -0.92378,-0.9238 -1.71186,-1.671 -1.75128,-1.6604 -0.0394,0.011 0.7359,1.0391 1.72295,2.2856 z m 22.96691,-8.359 -1.08314,0.6723 c -2.83307,1.7584 -3.90721,2.4506 -3.89,2.5068 0.0103,0.034 1.69772,-0.3422 3.74979,-0.8351 l 3.73104,-0.8962 m 12.90463,7.4505 0.58688,2.3544 c 1.18606,4.7582 1.11494,8.6147 -0.21761,11.8015 -1.86048,4.4494 -7.09469,7.2292 -14.41885,7.6577 -0.8058,0.047 -1.4993,0.095 -1.5411,0.1056 -0.0418,0.011 0.26028,0.1006 0.67133,0.1994 5.13762,1.2343 9.917,0.4455 13.2425,-2.1856 1.37634,-1.0889 2.16756,-2.1049 3.32098,-4.2647 0.8412,-1.575 1.09312,-2.1686 1.36033,-3.2054 0.90454,-3.5096 0.41804,-7.2731 -1.37235,-10.6162 l -0.70116,-1.3092 m 31.10413,17.958 -1.04619,1.6373 c -5.21673,8.1645 -12.86002,12.7738 -21.10508,12.7274 -1.74052,-0.01 -1.2604,0.1145 1.00568,0.2602 4.39563,0.2828 8.44748,-0.6722 12.25061,-2.8874 3.54716,-2.0661 6.9578,-5.4005 9.38423,-9.1744 l 1.03253,-1.6059 m 0.56654,0.2799 c 0.55796,0.2757 0.56416,0.2868 0.40876,0.7286 -0.39096,1.1118 0.27332,2.7745 1.36058,3.4058 1.05048,0.6098 2.83782,0.3493 3.58591,-0.5227 l 0.31627,-0.3687 m 1.53173,1.1357 c -0.10319,0.1783 -0.68481,0.8789 -1.19662,1.3908 -3.28868,3.2889 -9.02867,6.6904 -15.34903,9.0957 -2.19716,0.8361 -7.54845,2.2456 -9.79379,2.5795 -7.77537,1.1562 -14.56699,0.2998 -20.96871,-2.6443 -1.81188,-0.8333 -8.01997,-5.0982 -12.21731,-8.3932 -4.91173,-3.8558 -10.57571,-8.9915 -14.66047,-13.2931 l -0.92927,-0.9786 0.15066,-1.2078 0.15065,-1.2078 -0.94781,0.2476 -0.9478,0.2476 -5.45071,-4.428 c -2.9979,-2.4355 -5.46176,-4.4703 -5.47526,-4.5218 -0.0135,-0.052 0.76912,-1.4684 1.73914,-3.1485 l 1.76368,-3.0548 -1.0348,-3.2477 c -1.66664,-5.2307 -2.52873,-9.1499 -2.5031,-11.3795 0.0102,-0.8896 0.19504,-0.7281 -3.74397,-3.2729 -6.11157,-3.9484 -20.54651,-12.4972 -20.68806,-12.252 -0.12055,0.2088 -0.20208,2.2707 -0.12767,3.2295 0.25126,3.2387 1.75315,6.4193 4.15257,8.7941 0.83413,0.8256 1.23123,1.1144 2.68918,1.9562 1.46592,0.8463 1.90472,1.0408 3.06849,1.3598 1.4462,0.3966 3.34834,0.6031 4.62344,0.5021 l 0.77775,-0.062 -0.49317,0.2587 c -1.36213,0.7145 -2.50915,1.1434 -4.46359,1.6691 -5.09399,1.3703 -10.40414,0.8435 -14.99593,-1.4874 l -1.30391,-0.662 m -10.61631,-18.3907 0.0878,-1.5329 c 0.16392,-2.863 1.0867,-6.1704 2.3976,-8.5934 l 0.30801,-0.5693 m 54.58236,31.5132 -0.89365,1.7254 c -0.4915,0.949 -1.17902,2.2202 -1.52781,2.8249 -0.57172,0.991 -0.61042,1.1052 -0.39316,1.1587 0.13256,0.033 1.00209,0.3042 1.93229,0.6035 l 1.69128,0.5441 1.38339,-2.3961 1.38339,-2.3961 m 23.60063,-4.8409 c 1.92112,-1.6802 4.71754,-2.2443 7.16095,-1.4447 1.16339,0.3808 1.68459,0.6814 2.58552,1.4915 1.48321,1.3337 2.35144,3.054 2.49268,4.9391 0.11495,1.5342 -0.0973,2.5734 -0.80882,3.9605 -1.01241,1.9736 -2.34187,3.1149 -4.33377,3.7205 -2.19716,0.6679 -4.03706,0.4753 -5.91642,-0.6195 -2.80991,-1.6369 -4.21336,-4.6444 -3.62942,-7.7777 0.0962,-0.5165 0.24285,-1.0592 0.32576,-1.2059 l 0.15075,-0.2669 2.36697,1.3666 2.36697,1.3666 0.0914,0.5141 c 0.25315,1.4242 2.05826,2.116 3.19269,1.2235 0.60569,-0.4765 0.8347,-0.8905 0.85791,-1.5508 0.0501,-1.4252 -1.33195,-2.4729 -2.68655,-2.0366 -0.35065,0.113 -0.4785,0.054 -2.76769,-1.2672 -2.752,-1.5889 -2.62781,-1.3821 -1.44892,-2.4131 z M 264.455,247.5832 c 6.91224,1.0174 15.95237,3.2556 24.11479,5.9704 1.34262,0.4465 2.45051,0.8443 2.46198,0.884 0.0115,0.04 -0.44911,0.3415 -1.02349,0.6708 l -1.04436,0.5987 -5.06542,-1.703 c -7.35647,-2.4732 -13.6453,-4.389 -19.97076,-6.0838 -1.26192,-0.3381 -2.30305,-0.647 -2.31362,-0.6865 -0.0106,-0.039 1.26783,0.1178 2.84088,0.3494 z m 4.24437,24.0694 0.0407,-1.2742 c 0.10633,-3.3327 0.16873,-4.6091 0.22597,-4.6222 0.0343,-0.01 0.55254,1.6413 1.1517,3.6649 l 1.08937,3.6793 m 12.90464,7.4505 2.33242,-0.669 c 4.71374,-1.3519 8.01798,-3.3417 10.11156,-6.0892 2.92304,-3.8359 2.71336,-9.7588 -0.57761,-16.3159 -0.36206,-0.7214 -0.66768,-1.3458 -0.67914,-1.3875 -0.0114,-0.042 0.21731,0.1751 0.50835,0.4817 3.63776,3.8322 5.34432,8.3657 4.7285,12.5612 -0.25487,1.7364 -0.73919,2.9296 -2.03285,5.0084 -0.94346,1.516 -1.33158,2.031 -2.09587,2.7808 -2.58708,2.5381 -6.08962,3.9986 -9.88001,4.1196 l -1.48442,0.047 m 31.10415,17.958 0.8949,-1.7248 c 4.4623,-8.6001 4.6324,-17.5239 0.46971,-24.6412 -0.87875,-1.5024 -0.5311,-1.1488 0.72818,0.7408 2.44269,3.6654 3.64155,7.6519 3.6247,12.0531 -0.0157,4.105 -1.19804,8.7259 -3.2531,12.7142 l -0.8745,1.6971 m 0.52569,0.3507 c 0.51773,0.3454 0.53037,0.3452 0.83538,-0.01 0.7673,-0.8944 2.53943,-1.1505 3.62971,-0.5245 1.05341,0.6048 1.72146,2.2829 1.3403,3.3668 l -0.16114,0.4582 m 1.7494,0.7587 c 0.10285,-0.1785 0.41877,-1.0325 0.60614,-1.7317 1.20395,-4.4925 1.27972,-11.1642 0.20259,-17.8405 -0.37445,-2.3209 -1.82949,-7.6599 -2.66299,-9.7714 -2.88633,-7.3118 -7.02385,-12.7653 -12.77436,-16.8373 -1.62757,-1.1525 -8.42513,-4.3964 -13.3774,-6.3839 -5.79511,-2.3258 -13.07475,-4.6631 -18.84237,-6.0498 l -1.31211,-0.3155 -0.97069,0.7344 -0.97068,0.7344 -0.25944,-0.9446 -0.25946,-0.9447 -6.56017,-2.5064 c -3.60809,-1.3785 -6.60221,-2.4949 -6.6536,-2.4808 -0.0514,0.014 -0.88708,1.4002 -1.8571,3.0804 l -1.76367,3.0547 -3.33001,0.7277 c -5.36328,1.1721 -9.18844,2.3851 -11.10648,3.522 -0.76536,0.4537 -0.53304,0.533 -4.70642,-1.6059 -6.47521,-3.3185 -21.0961,-11.5452 -20.95455,-11.7904 0.12056,-0.2088 1.86543,-1.3103 2.73301,-1.7253 2.93042,-1.4017 6.43583,-1.6914 9.69216,-0.8008 1.13204,0.3096 1.58074,0.5091 3.03869,1.3508 1.46593,0.8464 1.85374,1.1291 2.71194,1.9774 1.06649,1.0542 2.19645,2.5983 2.74653,3.753 l 0.33553,0.7044 -0.0226,-0.5565 c -0.0623,-1.5368 -0.26436,-2.7446 -0.78629,-4.7001 -1.36032,-5.0966 -4.47157,-9.432 -8.78616,-12.2431 l -1.2252,-0.7983 m -21.23497,0 -1.28365,0.8424 c -2.39753,1.5735 -4.80043,4.0264 -6.2433,6.3731 l -0.33902,0.5514 m 54.58237,31.5132 1.04745,-1.6367 c 0.5761,-0.9001 1.33321,-2.1311 1.68248,-2.7355 0.57242,-0.9907 0.65196,-1.0813 0.80691,-0.9199 0.0945,0.099 0.76448,0.7157 1.48877,1.3717 l 1.3169,1.1926 -1.38339,2.3961 -1.38339,2.3961 m 23.57458,-78.4075 c 1.92111,1.6802 4.71754,2.2443 7.16095,1.4447 1.16339,-0.3808 1.68459,-0.6814 2.58551,-1.4915 1.48322,-1.3337 2.35144,-3.054 2.49269,-4.9391 0.11495,-1.5342 -0.0973,-2.5734 -0.80882,-3.9605 -1.01241,-1.9736 -2.34189,-3.1149 -4.33377,-3.7205 -2.19716,-0.6679 -4.03706,-0.4753 -5.91643,0.6195 -2.8099,1.6369 -4.21335,4.6444 -3.62942,7.7777 0.0963,0.5165 0.24285,1.0592 0.32577,1.2059 l 0.15075,0.2669 2.36697,-1.3666 2.36697,-1.3665 0.0914,-0.5142 c 0.25314,-1.4242 2.05825,-2.1159 3.19269,-1.2235 0.60569,0.4766 0.8347,0.8905 0.85791,1.5508 0.0501,1.4252 -1.33195,2.473 -2.68655,2.0366 -0.35067,-0.113 -0.47851,-0.054 -2.76769,1.2672 -2.752,1.5889 -2.62781,1.3821 -1.44892,2.4131 z m -16.71763,12.8643 c 6.91225,-1.0175 15.95239,-3.2557 24.11479,-5.9704 1.34263,-0.4466 2.45051,-0.8444 2.46198,-0.884 0.0115,-0.04 -0.44911,-0.3416 -1.02349,-0.6709 l -1.04436,-0.5986 -5.06542,1.7029 c -7.35647,2.4732 -13.6453,4.389 -19.97076,6.0838 -1.26192,0.3382 -2.30305,0.6471 -2.31362,0.6865 -0.0106,0.039 1.26784,-0.1178 2.84088,-0.3493 z m 4.24438,-24.0695 0.0406,1.2742 c 0.10633,3.3328 0.16872,4.6091 0.22596,4.6223 0.0343,0.01 0.55254,-1.6414 1.1517,-3.665 l 1.08938,-3.6793 m 12.90463,-7.4505 2.33243,0.669 c 4.71373,1.3519 8.01797,3.3418 10.11155,6.0892 2.92304,3.8359 2.71336,9.7588 -0.57761,16.3159 -0.36206,0.7215 -0.66768,1.3458 -0.67912,1.3875 -0.0115,0.042 0.21729,-0.1751 0.50833,-0.4817 3.63776,-3.8322 5.34433,-8.3656 4.7285,-12.5612 -0.25487,-1.7364 -0.73919,-2.9296 -2.03285,-5.0084 -0.94344,-1.516 -1.33158,-2.031 -2.09585,-2.7808 -2.5871,-2.5381 -6.08964,-3.9985 -9.88002,-4.1196 l -1.48441,-0.047 m 31.10413,-17.958 0.8949,1.7247 c 4.46231,8.6001 4.6324,17.524 0.46971,24.6412 -0.87874,1.5025 -0.5311,1.1488 0.72818,-0.7408 2.44269,-3.6654 3.64155,-7.6519 3.6247,-12.0531 -0.0157,-4.105 -1.19804,-8.7259 -3.25309,-12.7141 l -0.87451,-1.6972 m 0.52569,-0.3507 c 0.51773,-0.3453 0.53039,-0.3452 0.83538,0.01 0.7673,0.8945 2.53943,1.1506 3.62971,0.5246 1.05341,-0.6048 1.72146,-2.283 1.34031,-3.3668 l -0.16114,-0.4583 m 1.7494,-0.7586 c 0.10284,0.1785 0.41876,1.0325 0.60613,1.7316 1.20395,4.4926 1.27972,11.1643 0.20259,17.8405 -0.37445,2.3209 -1.82949,7.66 -2.66299,9.7715 -2.88633,7.3118 -7.02385,12.7652 -12.77436,16.8373 -1.62757,1.1525 -8.42513,4.3964 -13.37738,6.3839 -5.79512,2.3257 -13.07475,4.663 -18.84239,6.0498 l -1.31211,0.3154 -0.97069,-0.7344 -0.97067,-0.7343 -0.25945,0.9446 -0.25946,0.9446 -6.56017,2.5065 c -3.60809,1.3785 -6.60221,2.4949 -6.65359,2.4808 -0.0514,-0.014 -0.88709,-1.4003 -1.8571,-3.0804 l -1.76367,-3.0548 -3.33001,-0.7277 c -5.36328,-1.172 -9.18844,-2.385 -11.10648,-3.522 -0.76537,-0.4536 -0.53304,-0.5329 -4.70642,1.6059 -6.47521,3.3186 -21.09611,11.5453 -20.95456,11.7904 0.12056,0.2088 1.86544,1.3104 2.73302,1.7254 2.93041,1.4017 6.43582,1.6913 9.69214,0.8008 1.13205,-0.3096 1.58076,-0.5091 3.03871,-1.3508 1.46592,-0.8464 1.85373,-1.1292 2.71193,-1.9775 1.06649,-1.0542 2.19645,-2.5982 2.74654,-3.753 l 0.33552,-0.7043 -0.0226,0.5564 c -0.0623,1.5369 -0.26436,2.7447 -0.78628,4.7002 -1.36033,5.0966 -4.47157,9.432 -8.78617,12.2431 l -1.22519,0.7982 m -21.23498,0 -1.28364,-0.8425 c -2.39754,-1.5735 -4.80043,-4.0263 -6.24331,-6.373 l -0.33902,-0.5514 m 54.58237,-31.5132 1.04745,1.6367 c 0.5761,0.9001 1.33322,2.1311 1.68248,2.7355 0.57243,0.9907 0.65196,1.0813 0.80691,0.9199 0.0945,-0.099 0.76449,-0.7158 1.48878,-1.3717 l 1.31689,-1.1926 -1.38339,-2.3961 -1.38339,-2.3961 m 7.60794,-22.8592 c -0.49451,-2.5039 0.41512,-5.2077 2.32935,-6.9239 0.91143,-0.8172 1.4324,-1.1182 2.58441,-1.4934 1.89662,-0.6177 3.82059,-0.5094 5.52376,0.3108 1.38615,0.6676 2.18,1.3709 3.02546,2.6807 1.20295,1.8636 1.52664,3.5856 1.05512,5.6134 -0.52009,2.2368 -1.60687,3.7339 -3.49467,4.814 -2.82252,1.6151 -6.12883,1.3267 -8.55039,-0.7456 -0.39917,-0.3416 -0.79584,-0.7399 -0.8815,-0.8851 l -0.15573,-0.264 2.36697,-1.3666 2.36697,-1.3666 0.49095,0.178 c 1.35998,0.4928 2.8616,-0.7246 2.65591,-2.1532 -0.10982,-0.7628 -0.3538,-1.1681 -0.91404,-1.5184 -1.20925,-0.756 -2.80762,-0.083 -3.10702,1.3083 -0.0775,0.3602 -0.19212,0.4416 -2.48131,1.7633 -2.752,1.5889 -2.51079,1.5847 -2.81424,0.048 z m -19.49958,8.0457 c 4.33728,-5.4774 10.79566,-12.1873 17.22791,-17.8988 1.05802,-0.9395 1.95648,-1.7 1.99657,-1.6901 0.0401,0.01 0.0712,0.5597 0.0692,1.2218 l -0.004,1.2037 -4.00752,3.5353 c -5.8201,5.1343 -10.62364,9.6227 -15.25411,14.2533 -0.92378,0.9238 -1.71185,1.671 -1.75128,1.6605 -0.0394,-0.011 0.7359,-1.0391 1.72295,-2.2857 z m 22.96691,8.359 -1.08314,-0.6723 c -2.83307,-1.7584 -3.90721,-2.4506 -3.89,-2.5068 0.0103,-0.034 1.69772,0.3422 3.74979,0.8351 l 3.73104,0.8962 m 12.90464,-7.4505 0.58687,-2.3544 c 1.18606,-4.7582 1.11494,-8.6147 -0.21761,-11.8015 -1.86048,-4.4494 -7.09468,-7.2292 -14.41884,-7.6577 -0.80581,-0.047 -1.49931,-0.095 -1.54111,-0.1056 -0.0418,-0.011 0.26029,-0.1006 0.67133,-0.1994 5.13763,-1.2343 9.917,-0.4455 13.24251,2.1856 1.37633,1.0889 2.16755,2.105 3.32098,4.2647 0.84119,1.575 1.09311,2.1687 1.36032,3.2055 0.90456,3.5095 0.41804,7.273 -1.37235,10.6161 l -0.70116,1.3092 m 31.10414,-17.958 -1.0462,-1.6373 c -5.21673,-8.1645 -12.86,-12.7738 -21.10508,-12.7274 -1.74052,0.01 -1.26039,-0.1144 1.00568,-0.2602 4.39564,-0.2828 8.44748,0.6722 12.25061,2.8874 3.54716,2.0661 6.9578,5.4005 9.38423,9.1744 l 1.03254,1.6059 m 0.56653,-0.2799 c 0.55797,-0.2757 0.56416,-0.2867 0.40876,-0.7286 -0.39096,-1.1118 0.27332,-2.7745 1.36058,-3.4057 1.05048,-0.6099 2.83782,-0.3494 3.5859,0.5226 l 0.31628,0.3687 m 1.53171,-1.1357 c -0.10317,-0.1783 -0.68479,-0.8789 -1.1966,-1.3908 -3.28868,-3.2889 -9.02867,-6.6904 -15.34903,-9.0957 -2.19718,-0.8361 -7.54845,-2.2455 -9.79379,-2.5794 -7.77537,-1.1563 -14.56699,-0.2999 -20.96871,2.6442 -1.81188,0.8333 -8.01996,5.0982 -12.21732,8.3932 -4.91172,3.8559 -10.5757,8.9916 -14.66046,13.2931 l -0.92927,0.9786 0.15066,1.2078 0.15065,1.2078 -0.94781,-0.2476 -0.9478,-0.2476 -5.45071,4.4281 c -2.99789,2.4354 -5.46175,4.4702 -5.47525,4.5217 -0.0135,0.052 0.76912,1.4684 1.73913,3.1485 l 1.76368,3.0548 -1.0348,3.2477 c -1.66664,5.2308 -2.52873,9.1499 -2.5031,11.3795 0.0102,0.8897 0.19504,0.7281 -3.74397,3.2729 -6.11156,3.9484 -20.54651,12.4972 -20.68806,12.252 -0.12056,-0.2088 -0.20208,-2.2707 -0.12769,-3.2295 0.25129,-3.2387 1.75317,-6.4193 4.15258,-8.7941 0.83414,-0.8256 1.23124,-1.1144 2.68918,-1.9562 1.46593,-0.8463 1.90472,-1.0408 3.06848,-1.3598 1.44621,-0.3966 3.34835,-0.6031 4.62346,-0.5021 l 0.77774,0.062 -0.49317,-0.2587 c -1.36213,-0.7145 -2.50915,-1.1434 -4.46359,-1.6691 -5.09398,-1.3703 -10.40415,-0.8435 -14.99593,1.4875 l -1.30391,0.6619 m -10.61632,18.3907 0.0878,1.5329 c 0.16392,2.863 1.0867,6.1704 2.39759,8.5934 l 0.30802,0.5693 m 54.58236,-31.5132 -0.89364,-1.7254 c -0.49151,-0.949 -1.17902,-2.2202 -1.52781,-2.8249 -0.57172,-0.991 -0.61042,-1.1052 -0.39316,-1.1587 0.13255,-0.033 1.00208,-0.3042 1.93229,-0.6035 l 1.69128,-0.5441 1.38339,2.3961 1.38339,2.3961 m -56.11561,-59.62 c 2.41563,-0.8236 4.30241,-2.9633 4.8316,-5.4792 0.25197,-1.1979 0.25219,-1.7996 0.001,-2.9849 -0.41339,-1.9513 -1.46913,-3.5634 -3.03106,-4.6283 -1.2712,-0.8666 -2.27726,-1.2024 -3.83427,-1.2797 -2.21536,-0.11 -3.86853,0.4707 -5.38891,1.8929 -1.67707,1.5688 -2.43018,3.2585 -2.42175,5.4335 0.0126,3.2519 1.91548,5.9711 4.92097,7.032 0.49543,0.1749 1.03869,0.3193 1.20726,0.3209 l 0.30649,0 0,-2.7331 0,-2.7331 -0.39956,-0.3362 c -1.10684,-0.9314 -0.80335,-2.8405 0.53678,-3.3767 0.71552,-0.2863 1.18849,-0.2777 1.77195,0.032 1.25936,0.6692 1.47567,2.3899 0.42047,3.3449 -0.27315,0.2472 -0.28638,0.3872 -0.28638,3.0305 0,3.1777 -0.11702,2.9668 1.36532,2.4613 z m 2.78196,20.91 c 2.57496,-6.4949 5.15671,-15.4429 6.88688,-23.8692 0.28459,-1.386 0.49403,-2.5444 0.46541,-2.5741 -0.0286,-0.03 -0.52033,0.2182 -1.09268,0.551 l -1.04065,0.6051 -1.0579,5.2382 c -1.53638,7.6075 -3.02166,14.0117 -4.71666,20.3371 -0.33814,1.2619 -0.5912,2.318 -0.56233,2.3469 0.0289,0.029 0.53193,-1.1569 1.11793,-2.635 z m -18.72254,-15.7104 1.12379,0.6019 c 2.9394,1.5743 4.07593,2.1584 4.11595,2.1154 0.024,-0.026 -1.14516,-1.2992 -2.59808,-2.8299 l -2.64166,-2.783 m 0,-14.901 1.74555,-1.6855 c 3.52767,-3.4062 6.90303,-5.2729 10.32916,-5.7122 4.78353,-0.6135 9.80805,2.5295 13.84124,8.6582 0.44373,0.6742 0.83162,1.2511 0.86198,1.2818 0.0303,0.031 -0.043,-0.2757 -0.16299,-0.6811 -1.49988,-5.0664 -4.57268,-8.8111 -8.51401,-10.3755 -1.63122,-0.6475 -2.90675,-0.8247 -5.35383,-0.7437 -1.78464,0.059 -2.42469,0.1376 -3.4562,0.4246 -3.49163,0.9714 -6.50767,3.2745 -8.50765,6.4966 l -0.78325,1.2618 m 0,-35.915899 1.94109,0.087 c 9.67903,0.4356 17.49241,4.7502 21.57479,11.9138 0.86178,1.5123 0.7293,1.0344 -0.2775,-1.001 -1.95294,-3.9481 -4.80593,-6.9796 -8.6259,-9.1656 -3.56289,-2.0389 -8.15585,-3.3254 -12.63733,-3.5398 l -1.90705,-0.091 m -0.0408,-0.6306 c -0.0402,-0.621 -0.0338,-0.6319 0.42662,-0.7183 1.15825,-0.2172 2.2661,-1.6239 2.26913,-2.8811 0.003,-1.2147 -1.11635,-2.6323 -2.24559,-2.8442 l -0.47742,-0.09 m 0.21768,-1.8944 c 0.20603,2e-4 1.10356,0.1536 1.80273,0.3409 4.49265,1.2036 10.3084,4.4739 15.55163,8.7448 1.82273,1.4848 5.71896,5.4144 7.1308,7.192 4.88905,6.1555 7.54314,12.4654 8.19435,19.4815 0.18431,1.9858 -0.40517,9.494599 -1.16007,14.777099 -0.88339,6.1816 -2.49905,13.6546 -4.18192,19.3429 l -0.38285,1.2941 -1.12133,0.4734 -1.12133,0.4735 0.68835,0.697 0.68835,0.697 -1.10945,6.9345 c -0.6102,3.8139 -1.14046,6.9651 -1.17835,7.0026 -0.0379,0.037 -1.6562,0.068 -3.59624,0.068 l -3.52734,0 -2.29521,2.52 c -3.69664,4.0587 -6.65972,6.7649 -8.60338,7.8575 -0.77559,0.436 -0.72808,0.1951 -0.96245,4.8788 -0.36364,7.267 -0.54959,24.0424 -0.2665,24.0424 0.24112,0 2.06752,-0.9603 2.8607,-1.5042 2.67913,-1.8369 4.68266,-4.7279 5.53958,-7.9932 0.2979,-1.1352 0.34951,-1.6236 0.34951,-3.307 0,-1.6928 -0.051,-2.17 -0.35654,-3.3374 -0.37972,-1.4507 -1.1519,-3.2013 -1.87692,-4.255 l -0.44222,-0.6428 0.47061,0.2978 c 1.29983,0.8224 2.24479,1.6013 3.67731,3.031 3.73365,3.7264 5.93257,8.5885 6.20976,13.7306 l 0.0787,1.4602 m -10.61864,18.3893 -1.3714,0.6905 c -2.56146,1.2896 -5.88713,2.1441 -8.6409,2.2203 l -0.64703,0.018 m 0,-63.0263 1.94109,-0.089 c 1.06761,-0.049 2.51224,-0.089 3.21029,-0.089 1.14415,-4e-4 1.26238,-0.024 1.20007,-0.2389 -0.038,-0.1311 -0.23759,-1.0199 -0.44351,-1.9751 l -0.37439,-1.7368 -2.76678,0 -2.76677,0 m -15.9927,-18.0183 c -2.41563,-0.8236 -4.30241,-2.9633 -4.8316,-5.4792 -0.25197,-1.1979 -0.25219,-1.7996 -0.001,-2.9849 0.41339,-1.9513 1.46914,-3.5634 3.03107,-4.6283 1.27119,-0.8666 2.27725,-1.2024 3.83426,-1.2797 2.21536,-0.11 3.86853,0.4707 5.38891,1.8929 1.67707,1.5688 2.43018,3.2585 2.42175,5.4335 -0.0126,3.2519 -1.91547,5.9711 -4.92097,7.032 -0.49542,0.1749 -1.03869,0.3193 -1.20726,0.3209 l -0.30649,0 0,-2.7331 0,-2.7331 0.39956,-0.3362 c 1.10684,-0.9314 0.80335,-2.8405 -0.53677,-3.3767 -0.71552,-0.2863 -1.1885,-0.2777 -1.77195,0.032 -1.25937,0.6692 -1.47567,2.3899 -0.42048,3.3449 0.27315,0.2472 0.28638,0.3872 0.28638,3.0305 0,3.1777 0.11702,2.9668 -1.36532,2.4613 z m -2.78195,20.91 c -2.57497,-6.4949 -5.15672,-15.4429 -6.88689,-23.8692 -0.28459,-1.386 -0.49402,-2.5444 -0.4654,-2.5741 0.0286,-0.03 0.52032,0.2182 1.09268,0.551 l 1.04064,0.6051 1.0579,5.2382 c 1.53638,7.6075 3.02167,14.0117 4.71666,20.3371 0.33815,1.2619 0.5912,2.318 0.56233,2.3469 -0.0289,0.029 -0.53193,-1.1569 -1.11792,-2.635 z m 18.72254,-15.7104 -1.1238,0.6019 c -2.9394,1.5743 -4.07593,2.1584 -4.11595,2.1154 -0.024,-0.026 1.14517,-1.2992 2.59808,-2.8299 l 2.64167,-2.783 m 0,-14.901 -1.74555,-1.6855 c -3.52768,-3.4062 -6.90304,-5.2729 -10.32917,-5.7122 -4.78353,-0.6135 -9.80805,2.5295 -13.84124,8.6582 -0.44373,0.6742 -0.83162,1.2511 -0.86198,1.2818 -0.0303,0.031 0.043,-0.2757 0.16299,-0.6811 1.49988,-5.0664 4.57268,-8.8111 8.51401,-10.3755 1.63122,-0.6475 2.90675,-0.8247 5.35383,-0.7437 1.78464,0.059 2.42469,0.1376 3.4562,0.4246 3.49163,0.9714 6.50767,3.2745 8.50766,6.4966 l 0.78325,1.2618 m 0,-35.915899 -1.9411,0.087 c -9.67903,0.4356 -17.49241,4.7502 -21.57479,11.9138 -0.86177,1.5123 -0.72929,1.0344 0.2775,-1.001 1.95294,-3.9481 4.80593,-6.9796 8.62591,-9.1656 3.56289,-2.0389 8.15585,-3.3254 12.63732,-3.5398 l 1.90705,-0.091 m 0.0408,-0.6306 c 0.0402,-0.621 0.0338,-0.6319 -0.42662,-0.7183 -1.15825,-0.2172 -2.2661,-1.6239 -2.26913,-2.8811 -0.003,-1.2147 1.11635,-2.6323 2.24559,-2.8442 l 0.47743,-0.09 m -0.21769,-1.8944 c -0.20603,2e-4 -1.10356,0.1536 -1.80273,0.3409 -4.49264,1.2036 -10.3084,4.4739 -15.55163,8.7448 -1.82273,1.4848 -5.71896,5.4144 -7.1308,7.192 -4.88905,6.1555 -7.54314,12.4654 -8.19434,19.4815 -0.18431,1.9858 0.40516,9.494599 1.16007,14.777099 0.88338,6.1816 2.49904,13.6546 4.18191,19.3429 l 0.38285,1.2941 1.12133,0.4734 1.12133,0.4735 -0.68835,0.697 -0.68835,0.697 1.10945,6.9345 c 0.61021,3.8139 1.14046,6.9651 1.17836,7.0026 0.0379,0.037 1.65619,0.068 3.59623,0.068 l 3.52734,0 2.29521,2.52 c 3.69665,4.0587 6.65972,6.7649 8.60338,7.8575 0.77559,0.436 0.72808,0.1951 0.96246,4.8788 0.36364,7.267 0.54959,24.0424 0.2665,24.0424 -0.24113,0 -2.06753,-0.9603 -2.86071,-1.5042 -2.67913,-1.8369 -4.68266,-4.7279 -5.53958,-7.9932 -0.2979,-1.1352 -0.34951,-1.6236 -0.34951,-3.307 0,-1.6928 0.051,-2.17 0.35654,-3.3374 0.37972,-1.4507 1.1519,-3.2013 1.87692,-4.255 l 0.44222,-0.6428 -0.47061,0.2978 c -1.29982,0.8224 -2.24479,1.6013 -3.67731,3.031 -3.73365,3.7264 -5.93257,8.5885 -6.20976,13.7306 l -0.0787,1.4602 m 10.61864,18.3893 1.37141,0.6905 c 2.56145,1.2896 5.88712,2.1441 8.64089,2.2203 l 0.64704,0.018 m 0,-63.0263 -1.9411,-0.089 c -1.06761,-0.049 -2.51224,-0.089 -3.21029,-0.089 -1.14415,-4e-4 -1.26238,-0.024 -1.20007,-0.2389 0.038,-0.1311 0.2376,-1.0199 0.44351,-1.9751 l 0.37439,-1.7368 2.76678,0 2.76678,0"
     inkscape:connector-curvature="0" />
</svg>
