<?xml version="1.0" encoding="UTF-8" standalone="no"?>
<!-- Created with Inkscape (http://www.inkscape.org/) -->

<svg
   xmlns:dc="http://purl.org/dc/elements/1.1/"
   xmlns:cc="http://creativecommons.org/ns#"
   xmlns:rdf="http://www.w3.org/1999/02/22-rdf-syntax-ns#"
   xmlns:svg="http://www.w3.org/2000/svg"
   xmlns="http://www.w3.org/2000/svg"
   xmlns:sodipodi="http://sodipodi.sourceforge.net/DTD/sodipodi-0.dtd"
   xmlns:inkscape="http://www.inkscape.org/namespaces/inkscape"
   id="svg4688"
   version="1.1"
   inkscape:version="0.91 r"
   width="1243"
   height="1281"
   viewBox="0 0 1243 1281"
   sodipodi:docname="snowflake-A-wing-000.svg">
  <metadata
     id="metadata4694">
    <rdf:RDF>
      <cc:Work
         rdf:about="">
        <dc:format>image/svg+xml</dc:format>
        <dc:type
           rdf:resource="http://purl.org/dc/dcmitype/StillImage" />
        <dc:title />
      </cc:Work>
    </rdf:RDF>
  </metadata>
  <defs
     id="defs4692" />
  <sodipodi:namedview
     pagecolor="#ffffff"
     bordercolor="#666666"
     borderopacity="1"
     objecttolerance="10"
     gridtolerance="10"
     guidetolerance="10"
     inkscape:pageopacity="0"
     inkscape:pageshadow="2"
     inkscape:window-width="1600"
     inkscape:window-height="843"
     id="namedview4690"
     showgrid="false"
     inkscape:zoom="2.4492047"
     inkscape:cx="231.85088"
     inkscape:cy="1024.0352"
     inkscape:window-x="0"
     inkscape:window-y="0"
     inkscape:window-maximized="1"
     inkscape:current-layer="svg4688"
     showguides="true"
     inkscape:guide-bbox="true"
     inkscape:snap-center="true">
    <sodipodi:guide
       position="1204.203,97.530492"
       orientation="1,0"
       id="guide4133" />
    <sodipodi:guide
       position="1204.203,97.530492"
       orientation="0,1"
       id="guide4135" />
  </sodipodi:namedview>
  <path
     id="path4152"
     style="fill:none;stroke:#00ff00;stroke-opacity:1;stroke-width:0.70866142;stroke-miterlimit:4;stroke-dasharray:none"
     d="m 257.97626,283.26459 -0.35247,0.5729 c -0.80443,1.3073 -1.88932,4.271 -2.32091,6.3402 -0.11477,0.5503 -0.21377,1.4577 -0.21998,2.0166 -0.0194,1.748 -0.59614,0.8701 9.14748,13.9253 10.87,14.5644 10.30204,13.7429 10.5726,15.2929 0.25933,1.4858 3.48199,14.3539 3.70064,14.7768 0.22336,0.4319 0.65115,0.7925 7.9448,6.6978 8.50016,6.882 28.34235,22.9875 35.01872,28.424 3.18641,2.5946 6.01032,4.8618 6.27536,5.0382 0.60032,0.3995 1.62086,0.7814 2.39909,0.8977 l 0.59296,0.089 -2.15156,-1.8366 c -33.1098,-28.2631 -45.67454,-39.0458 -46.3946,-39.8146 -0.33788,-0.3608 -0.73131,-0.8852 -0.87428,-1.1655 -0.14298,-0.2802 -0.6352,-1.9168 -1.09385,-3.6369 -1.92185,-7.2075 -3.26512,-12.0117 -3.52212,-12.5968 -0.37033,-0.8431 -0.72607,-1.3427 -3.04177,-4.2715 -6.06103,-7.6659 -15.05141,-19.5323 -15.33305,-20.2381 -0.40652,-1.0187 -0.1149,-3.1042 0.75017,-5.3646 0.37172,-0.9713 1.18823,-2.4491 1.39039,-2.5165 m 23.50896,23.3679 -0.52529,0.609 c -0.64952,0.7529 -1.42177,2.0112 -1.42177,2.3165 0,0.1253 1.90206,3.7328 4.22678,8.0168 2.32475,4.2839 4.29382,7.9173 4.37575,8.0741 0.1451,0.2778 0.22962,0.2045 3.27577,-2.84 l 3.12684,-3.1252 m 1.60963,1.7308 c 0,0.06 -0.92414,1.0385 -2.05365,2.1747 l -2.05364,2.0658 0.878,2.0657 c 1.36646,3.215 1.29961,3.1074 2.17529,3.4992 0.41535,0.1858 4.32864,1.971 8.69622,3.9671 l 7.94105,3.6293 0.45836,-0.4476 0.45838,-0.4476 m 5.85015,5.8465 -0.80579,0.8174 -0.80579,0.8174 0.98446,0.9393 c 1.25695,1.1994 2.10777,1.6314 3.69598,1.8769 0.64711,0.1 1.28414,0.2011 1.41562,0.2246 m 31.31597,31.127 -0.98575,0.9858 -0.98575,0.9857 4.50197,4.5032 4.50197,4.5031 -0.48389,0.5777 c -0.26613,0.3177 -1.14894,1.2238 -1.96178,2.0136 -2.08463,2.0254 -3.3046,2.9285 -3.95221,2.9257 -0.38738,0 -1.36222,-0.4767 -2.38778,-1.1637 -2.82741,-1.8939 -13.90462,-7.8678 -19.52217,-10.5282 -7.34487,-3.4784 -28.35687,-11.2284 -38.78771,-14.3063 -5.649,-1.6669 -10.06996,-2.6708 -18.64679,-4.2342 -10.42757,-1.9009 -16.58633,-2.7069 -21.99366,-2.8783 -5.53751,-0.1755 -8.1056,-0.5642 -11.4742,-1.7368 -2.13287,-0.7424 -4.57085,-2.1391 -5.61356,-3.2161 l -0.41323,-0.4268 -0.63266,0.6248 c -0.34797,0.3437 -0.63267,0.6806 -0.63267,0.7487 0,0.068 4.22242,4.3461 9.38316,9.5065 6.67832,6.6779 9.38316,9.4575 9.38316,9.6425 0,0.3809 -0.71373,1.2518 -1.18227,1.4427 l -0.40533,0.1651 -5.15285,-5.1287 c -4.43997,-4.4192 -5.31822,-5.2377 -6.34816,-5.9163 -1.43753,-0.9473 -2.52696,-1.4728 -3.39357,-1.6372 -0.90088,-0.1708 -2.19572,-0.1446 -3.18062,0.064 -1.65694,0.3516 -1.78965,0.3515 -2.39281,0 -0.30363,-0.1779 -0.92491,-0.6752 -1.38059,-1.1051 l -0.82853,-0.7816 m 0.0382,-33.4396 c 0.021,0 0.62614,0.354 1.34472,0.7866 2.51777,1.5161 8.4665,4.3676 10.86897,5.21 1.63523,0.5734 2.44886,0.3929 2.02008,-0.4481 -0.0979,-0.1919 -3.3491,-3.5227 -7.22496,-7.4017 l -7.04702,-7.0526 m 0,-32.0325 5.41051,5.4095 5.41051,5.4095 0.88968,-0.8956 0.88968,-0.8957 -0.27607,-0.5698 c -0.15185,-0.3135 -1.43136,-2.7687 -2.84336,-5.4562 -1.72035,-3.2744 -2.61164,-5.0978 -2.70174,-5.5274 -0.24909,-1.1876 0.24904,-2.9694 1.23858,-4.4305 0.21428,-0.3164 0.95877,-1.159 1.65443,-1.8725 2.02855,-2.0806 3.62716,-3.2975 5.00172,-3.8075 0.37716,-0.1399 0.72513,-0.2874 0.77325,-0.3278 0.0481,-0.04 -0.80146,-1.2552 -1.88798,-2.6994 -2.36322,-3.1412 -2.58814,-3.5551 -2.65828,-4.8914 -0.044,-0.8387 -0.009,-1.0812 0.24756,-1.7164 0.16435,-0.4069 0.47985,-0.9791 0.70112,-1.2715 l 0.40229,-0.5317 m -118.62253,103.5925 -0.25454,1.9437 -2.8678,2.8674 c -1.57729,1.5771 -2.92268,2.8674 -2.98977,2.8674 -0.0671,0 -0.91872,-0.7981 -1.89256,-1.7735 l -1.77061,-1.7736 2.96741,-3.0049 2.96741,-3.0049 2.01639,-0.4211 c 1.109,-0.2316 2.03686,-0.4211 2.0619,-0.4211 0.0849,0 0.0174,0.7712 -0.23783,2.7206 z m 90.36964,-64.0383 c -1.06282,1.6116 -4.40668,6.7134 -7.43081,11.3375 -3.02412,4.624 -5.64101,8.5633 -5.81531,8.754 -0.25783,0.282 -0.41379,0.3462 -0.83671,0.344 -1.3899,-0.01 -3.54115,-1.7705 -3.42416,-2.807 0.03,-0.266 2.30362,-3.1873 8.76382,-11.2603 4.79779,-5.9956 8.76531,-10.9035 8.81669,-10.9065 0.17133,-0.01 1.87899,1.3362 1.86885,1.4733 -0.005,0.074 -0.87955,1.4535 -1.94237,3.065 z m -10.0964,-25.6655 0.35247,0.5728 c 0.80443,1.3074 1.88931,4.2711 2.3209,6.3403 0.11478,0.5503 0.21377,1.4577 0.21999,2.0165 0.0194,1.748 0.59613,0.8701 -9.14748,13.9253 -10.87001,14.5645 -10.30204,13.7429 -10.57259,15.293 -0.25935,1.4858 -3.482,14.3539 -3.70064,14.7767 -0.22337,0.432 -0.65115,0.7926 -7.94481,6.6978 -8.50014,6.8821 -28.34234,22.9876 -35.01871,28.4241 -3.18642,2.5946 -6.01033,4.8618 -6.27537,5.0382 -0.6003,0.3995 -1.62085,0.7813 -2.39909,0.8977 l -0.59295,0.089 2.15155,-1.8366 c 33.10981,-28.2631 45.67453,-39.0458 46.3946,-39.8146 0.33788,-0.3608 0.73131,-0.8853 0.87428,-1.1655 0.14297,-0.2802 0.6352,-1.9169 1.09385,-3.6369 1.92185,-7.2075 3.26513,-12.0117 3.52212,-12.5968 0.37033,-0.8431 0.72606,-1.3427 3.04177,-4.2715 6.06104,-7.6659 15.05141,-19.5323 15.33305,-20.2381 0.40653,-1.0188 0.11489,-3.1042 -0.75017,-5.3647 -0.37172,-0.9712 -1.18823,-2.4491 -1.3904,-2.5164 m -23.50895,23.3679 0.52529,0.6089 c 0.64952,0.753 1.42177,2.0112 1.42177,2.3166 0,0.1252 -1.90206,3.7328 -4.22679,8.0167 -2.32474,4.284 -4.29381,7.9174 -4.37573,8.0742 -0.14511,0.2777 -0.22963,0.2045 -3.27578,-2.8401 l -3.12684,-3.1251 m -1.60963,1.7308 c 0,0.06 0.92414,1.0384 2.05365,2.1746 l 2.05364,2.0659 -0.878,2.0657 c -1.36646,3.2149 -1.29961,3.1074 -2.17529,3.4992 -0.41534,0.1858 -4.32864,1.971 -8.69622,3.9671 l -7.94104,3.6293 -0.45837,-0.4476 -0.45837,-0.4476 m -5.85016,5.8465 0.80579,0.8174 0.8058,0.8174 -0.98447,0.9393 c -1.25695,1.1993 -2.10777,1.6314 -3.69597,1.8768 -0.64712,0.1 -1.28415,0.2011 -1.41563,0.2247 m -31.31597,31.127 0.98576,0.9858 0.98574,0.9857 -4.50197,4.5031 -4.501966,4.5032 0.483886,0.5777 c 0.26613,0.3177 1.14894,1.2238 1.96178,2.0135 2.08463,2.0254 3.3046,2.9286 3.95223,2.9258 0.38736,0 1.36221,-0.4767 2.38777,-1.1637 2.8274,-1.8939 13.90461,-7.8679 19.52216,-10.5282 7.34487,-3.4785 28.35687,-11.2285 38.78772,-14.3063 5.64899,-1.6669 10.06995,-2.6708 18.64678,-4.2343 10.42756,-1.9008 16.58632,-2.7068 21.99365,-2.8782 5.53751,-0.1756 8.10561,-0.5643 11.47421,-1.7368 2.13287,-0.7424 4.57084,-2.1392 5.61356,-3.2161 l 0.41323,-0.4268 0.63266,0.6248 c 0.34797,0.3436 0.63266,0.6805 0.63266,0.7487 0,0.068 -4.22242,4.3461 -9.38316,9.5065 -6.67831,6.6779 -9.38316,9.4575 -9.38316,9.6425 0,0.3808 0.71373,1.2517 1.18228,1.4427 l 0.40533,0.1651 5.15285,-5.1287 c 4.43997,-4.4192 5.31822,-5.2377 6.34816,-5.9164 1.43753,-0.9472 2.52696,-1.4728 3.39357,-1.6371 0.90088,-0.1709 2.19572,-0.1447 3.18062,0.064 1.65694,0.3516 1.78964,0.3515 2.39281,0 0.30363,-0.178 0.9249,-0.6753 1.38059,-1.1051 l 0.82853,-0.7816 m -0.0382,-33.4397 c -0.021,0 -0.62613,0.354 -1.34472,0.7867 -2.51777,1.5161 -8.46649,4.3675 -10.86896,5.2099 -1.63523,0.5734 -2.44886,0.393 -2.02008,-0.448 0.0979,-0.192 3.34909,-3.5227 7.22496,-7.4017 l 7.04702,-7.0527 m 0,-32.0325 -5.41051,5.4096 -5.41051,5.4095 -0.88968,-0.8957 -0.88968,-0.8956 0.27607,-0.5699 c 0.15185,-0.3134 1.43135,-2.7687 2.84336,-5.4562 1.72034,-3.2743 2.61164,-5.0978 2.70174,-5.5274 0.24909,-1.1875 -0.24904,-2.9694 -1.23858,-4.4304 -0.21428,-0.3164 -0.95878,-1.1591 -1.65443,-1.8726 -2.02855,-2.0806 -3.62716,-3.2975 -5.00172,-3.8074 -0.37717,-0.1399 -0.72513,-0.2874 -0.77326,-0.3279 -0.0481,-0.04 0.80147,-1.2551 1.88799,-2.6993 2.36322,-3.1412 2.58814,-3.5551 2.65828,-4.8914 0.044,-0.8387 0.009,-1.0812 -0.24756,-1.7165 -0.16435,-0.4069 -0.47985,-0.979 -0.70112,-1.2714 l -0.40229,-0.5317 m 38.52584,-38.5386 0.57285,0.3525 c 1.30735,0.8044 4.27108,1.8893 6.34028,2.3209 0.55028,0.1147 1.45771,0.2137 2.01652,0.2199 1.74802,0.019 0.87011,0.5962 13.92532,-9.1474 14.56443,-10.87 13.74288,-10.3021 15.29292,-10.5726 1.48581,-0.2594 14.35395,-3.482 14.77677,-3.7007 0.43195,-0.2233 0.79258,-0.6511 6.69779,-7.9448 6.88204,-8.5001 22.98758,-28.3423 28.42404,-35.0187 2.59463,-3.1864 4.86183,-6.0103 5.03822,-6.2754 0.3995,-0.6003 0.78137,-1.6208 0.8977,-2.399 l 0.0886,-0.593 -1.8366,2.1516 c -28.26311,33.1098 -39.04585,45.6745 -39.81466,46.3946 -0.36075,0.3378 -0.8852,0.7313 -1.16546,0.8742 -0.28024,0.143 -1.91685,0.6352 -3.63691,1.0939 -7.20752,1.9218 -12.01168,3.2651 -12.59679,3.5221 -0.84312,0.3703 -1.34269,0.7261 -4.27154,3.0418 -7.6659,6.061 -19.53227,15.0514 -20.23808,15.333 -1.01874,0.4065 -3.10418,0.1149 -5.36462,-0.7501 -0.97127,-0.3718 -2.4491,-1.1883 -2.51649,-1.3904 m 23.3679,-23.509 0.60897,0.5253 c 0.75296,0.6495 2.01121,1.4218 2.31654,1.4218 0.12525,0 3.7328,-1.9021 8.01677,-4.2268 4.28397,-2.3248 7.91733,-4.2938 8.07414,-4.3758 0.27777,-0.1451 0.20449,-0.2296 -2.84004,-3.2757 l -3.12518,-3.1269 m 1.73085,-1.6096 c 0.0598,0 1.03841,0.9241 2.17462,2.0536 l 2.06582,2.0537 2.06572,-0.878 c 3.21497,-1.3665 3.10743,-1.2996 3.4992,-2.1753 0.18583,-0.4154 1.97103,-4.3286 3.96712,-8.6962 l 3.62926,-7.9411 -0.44758,-0.4583 -0.44759,-0.4584 m 5.84651,-5.8502 0.81738,0.8058 0.81739,0.8058 0.93934,-0.9845 c 1.19932,-1.2569 1.63137,-2.1077 1.87683,-3.6959 0.10001,-0.6471 0.20111,-1.2842 0.22466,-1.4156 m 31.12701,-31.316 0.98576,0.9857 0.98575,0.9858 4.50314,-4.502 4.50314,-4.502 0.57766,0.4839 c 0.31772,0.2662 1.22382,1.149 2.01357,1.9618 2.02541,2.0846 2.92854,3.3046 2.92579,3.9522 -0.002,0.3874 -0.47676,1.3622 -1.16373,2.3878 -1.89393,2.8274 -7.86783,13.9046 -10.52823,19.5222 -3.47844,7.3448 -11.2284,28.3568 -14.30628,38.7877 -1.66687,5.649 -2.67077,10.0699 -4.23424,18.6468 -1.90085,10.4275 -2.70683,16.5863 -2.87824,21.9936 -0.17556,5.5375 -0.56427,8.1056 -1.73681,11.4742 -0.74241,2.1329 -2.13916,4.5709 -3.21609,5.6136 l -0.4268,0.4132 0.6248,0.6327 c 0.34364,0.348 0.68056,0.6327 0.7487,0.6327 0.0682,0 4.34607,-4.2225 9.5065,-9.3832 6.6779,-6.6783 9.45752,-9.3832 9.64252,-9.3832 0.38082,0 1.25173,0.7138 1.44265,1.1823 l 0.16515,0.4053 -5.12874,5.1529 c -4.41919,4.44 -5.2377,5.3182 -5.91635,6.3481 -0.94722,1.4376 -1.47278,2.527 -1.63713,3.3936 -0.17084,0.9009 -0.14467,2.1957 0.0643,3.1806 0.35159,1.657 0.35147,1.7897 -0.002,2.3928 -0.17795,0.3037 -0.67525,0.9249 -1.10512,1.3806 l -0.7816,0.8286 m -33.43964,-0.038 c 0,-0.021 0.35402,-0.6261 0.78669,-1.3447 1.51605,-2.5177 4.36751,-8.4665 5.20993,-10.8689 0.5734,-1.6353 0.39293,-2.4489 -0.44804,-2.0201 -0.19195,0.098 -3.5227,3.3491 -7.40169,7.2249 l -7.05268,7.0471 m -32.0325,0 5.40953,-5.4105 5.40953,-5.4106 -0.89565,-0.8896 -0.89567,-0.8897 -0.56984,0.2761 c -0.31342,0.1518 -2.7687,1.4313 -5.45619,2.8433 -3.27437,1.7204 -5.09782,2.6117 -5.52739,2.7018 -1.18755,0.249 -2.96942,-0.2491 -4.43049,-1.2386 -0.31639,-0.2143 -1.15903,-0.9588 -1.87255,-1.6545 -2.08059,-2.0285 -3.29749,-3.6271 -3.80741,-5.0017 -0.13991,-0.3771 -0.28744,-0.7251 -0.32787,-0.7732 -0.0404,-0.048 -1.25512,0.8014 -2.69933,1.888 -3.14123,2.3632 -3.55509,2.5881 -4.89144,2.6582 -0.83867,0.044 -1.08115,0.01 -1.71643,-0.2475 -0.40689,-0.1644 -0.97905,-0.4799 -1.27147,-0.7011 l -0.53167,-0.4023 m 103.59247,118.6225 1.94367,0.2545 2.86744,2.8678 c 1.57709,1.5773 2.86744,2.9227 2.86744,2.9898 0,0.067 -0.79811,0.9187 -1.77357,1.8926 l -1.77357,1.7706 -3.00489,-2.9674 -3.00491,-2.9674 -0.42112,-2.0164 c -0.23161,-1.109 -0.42111,-2.0369 -0.42111,-2.0619 0,-0.085 0.77127,-0.017 2.72062,0.2378 z m -64.03828,-90.3696 c 1.61155,1.0628 6.71341,4.4066 11.33744,7.4308 4.62404,3.0241 8.56335,5.641 8.75402,5.8153 0.28207,0.2578 0.3462,0.4138 0.34406,0.8367 -0.007,1.3899 -1.77055,3.5411 -2.80701,3.4241 -0.26606,-0.03 -3.18732,-2.3036 -11.26034,-8.7638 -5.99559,-4.7978 -10.90352,-8.7653 -10.90651,-8.8167 -0.01,-0.1713 1.33627,-1.879 1.4733,-1.8688 0.0742,0.01 1.45348,0.8795 3.06504,1.9424 z m -25.66555,10.0964 0.57285,-0.3525 c 1.30736,-0.8044 4.27108,-1.8893 6.34028,-2.3209 0.55028,-0.1148 1.45771,-0.2138 2.01652,-0.22 1.74803,-0.019 0.87011,-0.5961 13.92533,9.1475 14.56442,10.87 13.74287,10.302 15.29291,10.5726 1.48582,0.2593 14.35396,3.482 14.77677,3.7006 0.43195,0.2234 0.79259,0.6512 6.6978,7.9448 6.88204,8.5002 22.98757,28.3424 28.42403,35.0187 2.59463,3.1864 4.86183,6.0104 5.03822,6.2754 0.39951,0.6003 0.78137,1.6208 0.8977,2.3991 l 0.0886,0.5929 -1.8366,-2.1515 c -28.26311,-33.1098 -39.04584,-45.6746 -39.81465,-46.3946 -0.36076,-0.3379 -0.88521,-0.7313 -1.16546,-0.8743 -0.28024,-0.143 -1.91686,-0.6352 -3.63692,-1.0938 -7.20752,-1.9219 -12.01167,-3.2652 -12.59679,-3.5222 -0.84312,-0.3703 -1.34269,-0.726 -4.27153,-3.0417 -7.6659,-6.0611 -19.53228,-15.0514 -20.23808,-15.3331 -1.01874,-0.4065 -3.10418,-0.1149 -5.36463,0.7502 -0.97127,0.3717 -2.4491,1.1882 -2.51649,1.3904 m 23.36791,23.5089 0.60896,-0.5253 c 0.75296,-0.6495 2.01121,-1.4217 2.31654,-1.4217 0.12526,0 3.7328,1.902 8.01677,4.2268 4.28397,2.3247 7.91733,4.2938 8.07415,4.3757 0.27776,0.1451 0.20449,0.2296 -2.84004,3.2758 l -3.12518,3.1268 m 1.73084,1.6096 c 0.0598,0 1.03841,-0.9241 2.17462,-2.0536 l 2.06583,-2.0536 2.06572,0.878 c 3.21497,1.3664 3.10742,1.2996 3.4992,2.1752 0.18582,0.4154 1.97102,4.3287 3.96711,8.6963 l 3.62927,7.941 -0.44759,0.4584 -0.44759,0.4584 m 5.84651,5.8501 0.81739,-0.8058 0.81738,-0.8058 0.93935,0.9845 c 1.19931,1.2569 1.63136,2.1078 1.87682,3.696 0.10001,0.6471 0.20111,1.2841 0.22466,1.4156 m 31.12702,31.316 0.98575,-0.9858 0.98575,-0.9857 4.50314,4.5019 4.50314,4.502 0.57767,-0.4839 c 0.31771,-0.2661 1.22381,-1.1489 2.01357,-1.9618 2.02541,-2.0846 2.92853,-3.3046 2.92578,-3.9522 -0.002,-0.3874 -0.47676,-1.3622 -1.16372,-2.3878 -1.89393,-2.8274 -7.86784,-13.9046 -10.52823,-19.5221 -3.47844,-7.3449 -11.22841,-28.3569 -14.30629,-38.7877 -1.66686,-5.649 -2.67077,-10.07 -4.23424,-18.6468 -1.90085,-10.4276 -2.70682,-16.5864 -2.87824,-21.9937 -0.17556,-5.5375 -0.56427,-8.1056 -1.73681,-11.4742 -0.7424,-2.1329 -2.13915,-4.5708 -3.21609,-5.6136 l -0.4268,-0.4132 0.6248,-0.6326 c 0.34364,-0.348 0.68056,-0.6327 0.74871,-0.6327 0.0681,0 4.34606,4.2224 9.50649,9.3831 6.67791,6.6784 9.45752,9.3832 9.64252,9.3832 0.38082,0 1.25174,-0.7137 1.44265,-1.1823 l 0.16516,-0.4053 -5.12874,-5.1528 c -4.4192,-4.44 -5.23771,-5.3183 -5.91635,-6.3482 -0.94723,-1.4375 -1.47279,-2.527 -1.63713,-3.3936 -0.17085,-0.9009 -0.14467,-2.1957 0.0643,-3.1806 0.35158,-1.6569 0.35146,-1.7896 -0.002,-2.3928 -0.17794,-0.3036 -0.67525,-0.9249 -1.10512,-1.3806 l -0.7816,-0.8285 m -33.43963,0.038 c 0,0.021 0.35401,0.6261 0.78669,1.3447 1.51604,2.5178 4.36751,8.4665 5.20992,10.869 0.5734,1.6352 0.39294,2.4488 -0.44803,2.0201 -0.19196,-0.098 -3.52271,-3.3491 -7.40169,-7.225 l -7.05269,-7.047 m -32.03249,0 5.40953,5.4105 5.40953,5.4105 -0.89566,0.8897 -0.89567,0.8897 -0.56984,-0.2761 c -0.31342,-0.1519 -2.7687,-1.4314 -5.45619,-2.8434 -3.27436,-1.7203 -5.09782,-2.6116 -5.52739,-2.7017 -1.18755,-0.2491 -2.96942,0.249 -4.43049,1.2386 -0.31638,0.2142 -1.15903,0.9587 -1.87254,1.6544 -2.0806,2.0285 -3.29749,3.6272 -3.80741,5.0017 -0.13991,0.3772 -0.28745,0.7251 -0.32788,0.7733 -0.0404,0.048 -1.25512,-0.8015 -2.69932,-1.888 -3.14123,-2.3632 -3.5551,-2.5882 -4.89145,-2.6583 -0.83866,-0.044 -1.08114,-0.01 -1.71642,0.2476 -0.4069,0.1643 -0.97906,0.4798 -1.27148,0.7011 l -0.53167,0.4023 m -38.5386,-38.5259 0.35247,-0.5728 c 0.80443,-1.3074 1.88931,-4.2711 2.3209,-6.3403 0.11478,-0.5503 0.21377,-1.4577 0.21999,-2.0165 0.0194,-1.748 0.59613,-0.8701 -9.14748,-13.9253 -10.87001,-14.5645 -10.30204,-13.7429 -10.5726,-15.293 -0.25934,-1.4858 -3.48199,-14.3539 -3.70064,-14.7767 -0.22336,-0.432 -0.65115,-0.7926 -7.9448,-6.6978 -8.50016,-6.8821 -28.34235,-22.9876 -35.01871,-28.424 -3.18642,-2.5947 -6.01033,-4.8619 -6.27537,-5.0383 -0.60032,-0.3995 -1.62086,-0.7814 -2.39909,-0.8977 l -0.59295,-0.089 2.15155,1.8366 c 33.10981,28.2631 45.67453,39.0458 46.3946,39.8146 0.33788,0.3608 0.73131,0.8853 0.87428,1.1655 0.14297,0.2803 0.6352,1.9169 1.09385,3.6369 1.92185,7.2075 3.26512,12.0117 3.52212,12.5968 0.37033,0.8431 0.72606,1.3427 3.04177,4.2716 6.06103,7.6658 15.05141,19.5322 15.33305,20.238 0.40651,1.0188 0.11489,3.1042 -0.75017,5.3646 -0.37172,0.9713 -1.18823,2.4492 -1.3904,2.5165 m -23.50895,-23.3679 0.52529,-0.6089 c 0.64952,-0.753 1.42177,-2.0112 1.42177,-2.3166 0,-0.1252 -1.90206,-3.7328 -4.22679,-8.0167 -2.32474,-4.284 -4.29381,-7.9174 -4.37574,-8.0742 -0.1451,-0.2777 -0.22962,-0.2045 -3.27577,2.8401 l -3.12684,3.1251 m -1.60963,-1.7308 c 0,-0.06 0.92414,-1.0384 2.05365,-2.1746 l 2.05364,-2.0659 -0.878,-2.0657 c -1.36646,-3.2149 -1.29961,-3.1074 -2.17529,-3.4992 -0.41534,-0.1858 -4.32864,-1.971 -8.69622,-3.9671 l -7.94104,-3.6292 -0.45837,0.4475 -0.45837,0.4476 m -5.85016,-5.8465 0.80579,-0.8174 0.8058,-0.8174 -0.98447,-0.9393 c -1.25695,-1.1993 -2.10777,-1.6314 -3.69597,-1.8768 -0.64712,-0.1 -1.28415,-0.2011 -1.41563,-0.2247 m -31.31597,-31.127 0.98576,-0.9858 0.98574,-0.9857 -4.50197,-4.5031 -4.501966,-4.5032 0.483886,-0.5776 c 0.26613,-0.3178 1.14894,-1.2239 1.96178,-2.0136 2.08463,-2.0254 3.3046,-2.9286 3.95222,-2.9258 0.38737,0 1.36222,0.4767 2.38778,1.1637 2.8274,1.894 13.90461,7.8679 19.52216,10.5283 7.34487,3.4784 28.35687,11.2284 38.78772,14.3062 5.64899,1.6669 10.06995,2.6708 18.64678,4.2343 10.42756,1.9008 16.58632,2.7068 21.99365,2.8782 5.53751,0.1756 8.10561,0.5643 11.47421,1.7368 2.13287,0.7424 4.57084,2.1392 5.61356,3.2161 l 0.41323,0.4268 0.63266,-0.6248 c 0.34797,-0.3436 0.63266,-0.6805 0.63266,-0.7487 0,-0.068 -4.22242,-4.3461 -9.38316,-9.5065 -6.67831,-6.6779 -9.38316,-9.4575 -9.38316,-9.6425 0,-0.3808 0.71373,-1.2517 1.18228,-1.4427 l 0.40533,-0.1651 5.15285,5.1287 c 4.43997,4.4192 5.31822,5.2377 6.34816,5.9164 1.43753,0.9472 2.52696,1.4728 3.39357,1.6371 0.90088,0.1709 2.19572,0.1447 3.18062,-0.064 1.65694,-0.3516 1.78964,-0.3515 2.39281,0 0.30363,0.1779 0.9249,0.6752 1.38059,1.1051 l 0.82853,0.7816 m -0.0382,33.4396 c -0.021,0 -0.62613,-0.354 -1.34472,-0.7866 -2.51777,-1.5161 -8.46649,-4.3676 -10.86896,-5.21 -1.63523,-0.5734 -2.44886,-0.3929 -2.02008,0.4481 0.0979,0.1919 3.34909,3.5227 7.22496,7.4016 l 7.04702,7.0527 m 0,32.0325 -5.41051,-5.4095 -5.41051,-5.4095 -0.88968,0.8956 -0.88968,0.8957 0.27607,0.5698 c 0.15185,0.3135 1.43135,2.7687 2.84336,5.4562 1.72034,3.2744 2.61164,5.0978 2.70174,5.5274 0.24909,1.1876 -0.24904,2.9694 -1.23858,4.4305 -0.21428,0.3164 -0.95878,1.159 -1.65443,1.8725 -2.02855,2.0806 -3.62716,3.2975 -5.00172,3.8075 -0.37717,0.1399 -0.72513,0.2874 -0.77326,0.3278 -0.0481,0.041 0.80147,1.2552 1.88799,2.6994 2.36322,3.1412 2.58814,3.5551 2.65828,4.8914 0.044,0.8387 0.009,1.0812 -0.24756,1.7164 -0.16435,0.4069 -0.47985,0.9791 -0.70112,1.2715 l -0.40229,0.5317 m 118.62253,-103.5925 0.25454,-1.9437 2.86781,-2.8674 c 1.57729,-1.5771 2.92268,-2.8674 2.98976,-2.8674 0.0671,0 0.91872,0.7981 1.89256,1.7735 l 1.77061,1.7736 -2.96741,3.0049 -2.96741,3.0049 -2.01638,0.4211 c -1.10901,0.2316 -2.03687,0.4211 -2.06191,0.4211 -0.0849,0 -0.0174,-0.7712 0.23783,-2.7206 z m -90.36964,64.0383 c 1.06282,-1.6116 4.40668,-6.7134 7.4308,-11.3375 3.02413,-4.624 5.64102,-8.5633 5.81532,-8.754 0.25783,-0.282 0.41379,-0.3462 0.83671,-0.344 1.38989,0.01 3.54115,1.7705 3.42416,2.807 -0.03,0.266 -2.30362,3.1873 -8.76382,11.2603 -4.7978,5.9956 -8.76531,10.9035 -8.81669,10.9065 -0.17133,0.01 -1.87899,-1.3362 -1.86886,-1.4733 0.005,-0.074 0.87956,-1.4535 1.94238,-3.065 z m 10.0964,25.6655 -0.35247,-0.5728 c -0.80443,-1.3074 -1.88932,-4.2711 -2.32091,-6.3403 -0.11477,-0.5503 -0.21377,-1.4577 -0.21998,-2.0165 -0.0194,-1.748 -0.59614,-0.8701 9.14748,-13.9253 10.87,-14.5645 10.30204,-13.7429 10.57259,-15.293 0.25934,-1.4858 3.482,-14.3539 3.70063,-14.7767 0.22338,-0.432 0.65116,-0.7926 7.94482,-6.6978 8.50015,-6.8821 28.34234,-22.9876 35.01872,-28.424 3.18641,-2.5947 6.01032,-4.8619 6.27536,-5.0383 0.60031,-0.3995 1.62085,-0.7814 2.39909,-0.8977 l 0.59296,-0.089 -2.15156,1.8366 c -33.1098,28.2631 -45.67454,39.0458 -46.3946,39.8146 -0.33788,0.3608 -0.73131,0.8853 -0.87428,1.1655 -0.14298,0.2803 -0.6352,1.9169 -1.09385,3.6369 -1.92185,7.2075 -3.26513,12.0117 -3.52212,12.5968 -0.37033,0.8431 -0.72607,1.3427 -3.04177,4.2716 -6.06104,7.6658 -15.05141,19.5322 -15.33305,20.238 -0.40653,1.0188 -0.1149,3.1042 0.75017,5.3646 0.37172,0.9713 1.18823,2.4492 1.39039,2.5165 m 23.50896,-23.3679 -0.52529,-0.6089 c -0.64952,-0.753 -1.42177,-2.0112 -1.42177,-2.3166 0,-0.1252 1.90206,-3.7328 4.22678,-8.0167 2.32475,-4.284 4.29382,-7.9174 4.37574,-8.0742 0.14511,-0.2777 0.22963,-0.2045 3.27578,2.8401 l 3.12684,3.1251 m 1.60963,-1.7308 c 0,-0.06 -0.92414,-1.0384 -2.05365,-2.1746 l -2.05364,-2.0659 0.878,-2.0657 c 1.36646,-3.2149 1.29961,-3.1074 2.17529,-3.4992 0.41535,-0.1858 4.32864,-1.971 8.69622,-3.9671 l 7.94105,-3.6292 0.45836,0.4475 0.45838,0.4476 m 5.85015,-5.8465 -0.80579,-0.8174 -0.80579,-0.8174 0.98446,-0.9393 c 1.25695,-1.1993 2.10777,-1.6314 3.69598,-1.8768 0.64711,-0.1 1.28414,-0.2011 1.41562,-0.2247 m 31.31597,-31.127 -0.98575,-0.9858 -0.98575,-0.9857 4.50197,-4.5031 4.50197,-4.5032 -0.48389,-0.5776 c -0.26613,-0.3178 -1.14894,-1.2239 -1.96178,-2.0136 -2.08463,-2.0254 -3.3046,-2.9286 -3.95222,-2.9258 -0.38737,0 -1.36221,0.4767 -2.38777,1.1637 -2.82741,1.894 -13.90462,7.8679 -19.52217,10.5283 -7.34487,3.4784 -28.35687,11.2284 -38.78771,14.3062 -5.649,1.6669 -10.06996,2.6708 -18.64679,4.2343 -10.42757,1.9008 -16.58633,2.7068 -21.99366,2.8782 -5.53751,0.1756 -8.1056,0.5643 -11.4742,1.7368 -2.13287,0.7424 -4.57085,2.1392 -5.61356,3.2161 l -0.41323,0.4268 -0.63266,-0.6248 c -0.34797,-0.3436 -0.63267,-0.6805 -0.63267,-0.7487 0,-0.068 4.22242,-4.3461 9.38316,-9.5065 6.67832,-6.6779 9.38316,-9.4575 9.38316,-9.6425 0,-0.3808 -0.71373,-1.2517 -1.18227,-1.4427 l -0.40533,-0.1651 -5.15285,5.1287 c -4.43997,4.4192 -5.31822,5.2377 -6.34816,5.9164 -1.43753,0.9472 -2.52696,1.4728 -3.39357,1.6371 -0.90088,0.1709 -2.19572,0.1447 -3.18062,-0.064 -1.65694,-0.3516 -1.78965,-0.3515 -2.39281,0 -0.30363,0.1779 -0.92491,0.6752 -1.38059,1.1051 l -0.82853,0.7816 m 0.0382,33.4396 c 0.021,0 0.62614,-0.354 1.34472,-0.7866 2.51777,-1.5161 8.4665,-4.3676 10.86897,-5.21 1.63523,-0.5734 2.44886,-0.3929 2.02008,0.4481 -0.0979,0.1919 -3.3491,3.5227 -7.22496,7.4016 l -7.04702,7.0527 m 0,32.0325 5.41051,-5.4095 5.41051,-5.4095 0.88968,0.8956 0.88968,0.8957 -0.27607,0.5698 c -0.15185,0.3135 -1.43136,2.7687 -2.84336,5.4562 -1.72035,3.2744 -2.61164,5.0978 -2.70174,5.5274 -0.24909,1.1876 0.24904,2.9694 1.23858,4.4305 0.21428,0.3164 0.95877,1.159 1.65443,1.8725 2.02855,2.0806 3.62716,3.2975 5.00172,3.8075 0.37716,0.1399 0.72513,0.2874 0.77325,0.3278 0.0481,0.041 -0.80146,1.2552 -1.88798,2.6994 -2.36322,3.1412 -2.58814,3.5551 -2.65828,4.8914 -0.044,0.8387 -0.009,1.0812 0.24756,1.7164 0.16435,0.4069 0.47985,0.9791 0.70112,1.2715 l 0.40229,0.5317 m -38.52584,38.5387 -0.57285,-0.3525 c -1.30736,-0.8044 -4.27108,-1.8893 -6.34028,-2.3209 -0.55028,-0.1148 -1.45771,-0.2138 -2.01652,-0.22 -1.74803,-0.019 -0.87011,-0.5961 -13.92532,9.1475 -14.56443,10.87 -13.74288,10.302 -15.29292,10.5726 -1.48582,0.2593 -14.35395,3.482 -14.77677,3.7006 -0.43195,0.2234 -0.79259,0.6512 -6.69779,7.9448 -6.88205,8.5002 -22.98757,28.3424 -28.42403,35.0187 -2.59464,3.1864 -4.86184,6.0104 -5.03823,6.2754 -0.3995,0.6003 -0.78137,1.6209 -0.8977,2.3991 l -0.0886,0.5929 1.83661,-2.1515 c 28.26311,-33.1098 39.04584,-45.6746 39.81465,-46.3946 0.36075,-0.3379 0.88521,-0.7313 1.16546,-0.8743 0.28024,-0.143 1.91685,-0.6352 3.63691,-1.0938 7.20752,-1.9219 12.01168,-3.2652 12.59679,-3.5222 0.84313,-0.3703 1.34269,-0.726 4.27155,-3.0417 7.66589,-6.0611 19.53227,-15.0514 20.23807,-15.3331 1.01874,-0.4065 3.10418,-0.1149 5.36462,0.7502 0.97128,0.3717 2.44911,1.1882 2.51649,1.3904 m -23.3679,23.5089 -0.60895,-0.5253 c -0.75297,-0.6495 -2.01123,-1.4217 -2.31655,-1.4217 -0.12526,0 -3.73281,1.902 -8.01677,4.2268 -4.28397,2.3247 -7.91734,4.2938 -8.07415,4.3757 -0.27777,0.1451 -0.20449,0.2296 2.84004,3.2758 l 3.12517,3.1268 m -1.73083,1.6096 c -0.0598,0 -1.03842,-0.9241 -2.17462,-2.0536 l -2.06583,-2.0536 -2.06572,0.878 c -3.21497,1.3664 -3.10743,1.2996 -3.4992,2.1752 -0.18582,0.4154 -1.97102,4.3287 -3.96712,8.6963 l -3.62926,7.941 0.44759,0.4584 0.44758,0.4584 m -5.8465,5.8501 -0.81739,-0.8058 -0.81739,-0.8058 -0.93934,0.9845 c -1.19931,1.2569 -1.63136,2.1078 -1.87682,3.696 -0.10001,0.6471 -0.20111,1.2841 -0.22467,1.4156 m -31.12702,31.316 -0.98575,-0.9858 -0.98575,-0.9857 -4.50314,4.5019 -4.503139,4.502 -0.577658,-0.4839 c -0.317712,-0.2661 -1.223818,-1.1489 -2.013568,-1.9618 -2.025412,-2.0846 -2.928544,-3.3046 -2.925793,-3.9522 0.0016,-0.3874 0.476756,-1.3622 1.163723,-2.3878 1.893936,-2.8274 7.867836,-13.9046 10.528235,-19.5221 3.47844,-7.3449 11.2284,-28.3569 14.30628,-38.7877 1.66687,-5.649 2.67077,-10.07 4.23425,-18.6468 1.90084,-10.4276 2.70682,-16.5864 2.87824,-21.9937 0.17555,-5.5375 0.56427,-8.1056 1.7368,-11.4742 0.74241,-2.1329 2.13916,-4.5708 3.2161,-5.6136 l 0.42679,-0.4132 -0.6248,-0.6326 c -0.34364,-0.348 -0.68056,-0.6327 -0.7487,-0.6327 -0.0681,0 -4.34607,4.2224 -9.50649,9.3831 -6.67791,6.6784 -9.45752,9.3832 -9.64253,9.3832 -0.38082,0 -1.25173,-0.7137 -1.44264,-1.1823 l -0.16516,-0.4053 5.12874,-5.1528 c 4.4192,-4.44 5.23771,-5.3183 5.91635,-6.3482 0.94722,-1.4375 1.47278,-2.527 1.63713,-3.3936 0.17085,-0.9009 0.14466,-2.1957 -0.0643,-3.1806 -0.35158,-1.6569 -0.35147,-1.7896 0.002,-2.3928 0.17794,-0.3036 0.67525,-0.9249 1.10513,-1.3806 l 0.78159,-0.8285 m 33.43964,0.038 c 0,0.021 -0.35401,0.6261 -0.7867,1.3447 -1.51604,2.5178 -4.3675,8.4665 -5.20992,10.869 -0.57339,1.6352 -0.39293,2.4488 0.44804,2.0201 0.19195,-0.098 3.52271,-3.3491 7.40168,-7.225 l 7.05269,-7.047 m 32.0325,0 -5.40953,5.4105 -5.40953,5.4105 0.89566,0.8897 0.89566,0.8897 0.56985,-0.2761 c 0.31341,-0.1519 2.7687,-1.4314 5.45618,-2.8434 3.27437,-1.7203 5.09782,-2.6116 5.52739,-2.7017 1.18755,-0.2491 2.96942,0.249 4.43049,1.2386 0.31638,0.2142 1.15903,0.9587 1.87254,1.6544 2.0806,2.0285 3.2975,3.6272 3.80742,5.0017 0.13991,0.3772 0.28745,0.7251 0.32787,0.7733 0.0404,0.048 1.25512,-0.8015 2.69933,-1.888 3.14123,-2.3632 3.55509,-2.5882 4.89145,-2.6583 0.83866,-0.044 1.08114,-0.01 1.71642,0.2476 0.40689,0.1643 0.97905,0.4798 1.27147,0.7011 l 0.53168,0.4023 m -103.59247,-118.6225 -1.94368,-0.2545 -2.86743,-2.8678 c -1.57709,-1.5773 -2.86744,-2.9227 -2.86744,-2.9898 0,-0.067 0.7981,-0.9187 1.77357,-1.8925 l 1.77356,-1.7706 3.0049,2.9674 3.0049,2.9674 0.42112,2.0164 c 0.23162,1.109 0.42112,2.0368 0.42112,2.0619 0,0.085 -0.77127,0.017 -2.72062,-0.2379 z m 64.03827,90.3697 c -1.61156,-1.0628 -6.7134,-4.4067 -11.33744,-7.4308 -4.62403,-3.0241 -8.56334,-5.641 -8.75402,-5.8153 -0.28207,-0.2579 -0.34619,-0.4138 -0.34406,-0.8367 0.007,-1.3899 1.77055,-3.5412 2.80702,-3.4242 0.26606,0.03 3.18732,2.3036 11.26033,8.7638 5.9956,4.7978 10.90352,8.7653 10.90651,8.8167 0.01,0.1713 -1.33627,1.879 -1.4733,1.8689 -0.0742,-0.01 -1.45348,-0.8796 -3.06504,-1.9424 z m 25.66555,-10.0964 -0.57285,0.3525 c -1.30736,0.8044 -4.27108,1.8893 -6.34028,2.3209 -0.55028,0.1147 -1.45771,0.2137 -2.01652,0.2199 -1.74803,0.019 -0.87011,0.5962 -13.92532,-9.1474 -14.56443,-10.87 -13.74288,-10.3021 -15.29292,-10.5726 -1.48582,-0.2594 -14.35395,-3.482 -14.77677,-3.7007 -0.43195,-0.2233 -0.79259,-0.6511 -6.69779,-7.9448 -6.88205,-8.5001 -22.98757,-28.3423 -28.42403,-35.0187 -2.59464,-3.1864 -4.86184,-6.0103 -5.03823,-6.2754 -0.3995,-0.6003 -0.78137,-1.6208 -0.8977,-2.399 l -0.0886,-0.593 1.83661,2.1516 c 28.26311,33.1098 39.04584,45.6745 39.81465,46.3946 0.36075,0.3378 0.88521,0.7313 1.16546,0.8742 0.28024,0.143 1.91685,0.6352 3.63691,1.0939 7.20752,1.9218 12.01168,3.2651 12.59679,3.5221 0.84313,0.3703 1.34269,0.7261 4.27155,3.0418 7.66589,6.061 19.53227,15.0514 20.23807,15.333 1.01874,0.4065 3.10418,0.1149 5.36462,-0.7502 0.97128,-0.3717 2.44911,-1.1882 2.51649,-1.3903 m -23.3679,-23.509 -0.60895,0.5253 c -0.75297,0.6495 -2.01123,1.4218 -2.31655,1.4218 -0.12526,0 -3.73281,-1.9021 -8.01677,-4.2268 -4.28397,-2.3248 -7.91734,-4.2938 -8.07415,-4.3758 -0.27777,-0.1451 -0.20449,-0.2296 2.84004,-3.2757 l 3.12517,-3.1269 m -1.73083,-1.6096 c -0.0598,0 -1.03842,0.9241 -2.17462,2.0536 l -2.06583,2.0537 -2.06572,-0.878 c -3.21497,-1.3665 -3.10743,-1.2996 -3.4992,-2.1753 -0.18582,-0.4154 -1.97102,-4.3286 -3.96712,-8.6962 l -3.62926,-7.9411 0.44759,-0.4583 0.44758,-0.4584 m -5.8465,-5.8502 -0.81739,0.8058 -0.81739,0.8058 -0.93934,-0.9845 c -1.19931,-1.2569 -1.63136,-2.1077 -1.87682,-3.6959 -0.10001,-0.6471 -0.20111,-1.2842 -0.22467,-1.4156 m -31.12702,-31.316 -0.98575,0.9857 -0.98575,0.9858 -4.50314,-4.502 -4.503139,-4.502 -0.577658,0.4839 c -0.317712,0.2662 -1.223818,1.149 -2.013568,1.9618 -2.025412,2.0846 -2.928544,3.3046 -2.925793,3.9522 0.0016,0.3874 0.476756,1.3622 1.163723,2.3878 1.893936,2.8274 7.867836,13.9046 10.528235,19.5222 3.47844,7.3448 11.2284,28.3568 14.30628,38.7877 1.66687,5.649 2.67077,10.0699 4.23425,18.6468 1.90084,10.4275 2.70682,16.5863 2.87824,21.9936 0.17555,5.5375 0.56427,8.1056 1.7368,11.4742 0.74241,2.1329 2.13916,4.5709 3.2161,5.6136 l 0.42679,0.4132 -0.6248,0.6327 c -0.34364,0.348 -0.68056,0.6327 -0.7487,0.6327 -0.0681,0 -4.34607,-4.2225 -9.50649,-9.3832 -6.67791,-6.6783 -9.45752,-9.3832 -9.64253,-9.3832 -0.38082,0 -1.25173,0.7138 -1.44264,1.1823 l -0.16516,0.4053 5.12874,5.1529 c 4.4192,4.44 5.23771,5.3182 5.91635,6.3481 0.94722,1.4376 1.47278,2.527 1.63713,3.3936 0.17085,0.9009 0.14466,2.1957 -0.0643,3.1806 -0.35158,1.657 -0.35147,1.7897 0.002,2.3928 0.17794,0.3037 0.67525,0.9249 1.10513,1.3806 l 0.78159,0.8286 m 33.43964,-0.038 c 0,-0.021 -0.35401,-0.6261 -0.7867,-1.3447 -1.51604,-2.5177 -4.3675,-8.4665 -5.20992,-10.8689 -0.57339,-1.6353 -0.39293,-2.4489 0.44804,-2.0201 0.19195,0.098 3.52271,3.3491 7.40168,7.2249 l 7.05269,7.0471 m 32.0325,0 -5.40953,-5.4105 -5.40953,-5.4106 0.89566,-0.8896 0.89566,-0.8897 0.56985,0.2761 c 0.31341,0.1518 2.7687,1.4313 5.45618,2.8433 3.27437,1.7204 5.09782,2.6117 5.52739,2.7018 1.18755,0.249 2.96942,-0.2491 4.43049,-1.2386 0.31638,-0.2143 1.15903,-0.9588 1.87254,-1.6545 2.0806,-2.0285 3.2975,-3.6271 3.80742,-5.0017 0.13991,-0.3771 0.28745,-0.7251 0.32787,-0.7732 0.0404,-0.048 1.25512,0.8014 2.69933,1.888 3.14123,2.3632 3.55509,2.5881 4.89145,2.6582 0.83866,0.044 1.08114,0.01 1.71642,-0.2475 0.40689,-0.1644 0.97905,-0.4799 1.27147,-0.7011 l 0.53168,-0.4023"
     inkscape:connector-curvature="0" />
</svg>
