<?xml version="1.0" encoding="UTF-8" standalone="no"?>
<!-- Created with Inkscape (http://www.inkscape.org/) -->

<svg
   xmlns:dc="http://purl.org/dc/elements/1.1/"
   xmlns:cc="http://creativecommons.org/ns#"
   xmlns:rdf="http://www.w3.org/1999/02/22-rdf-syntax-ns#"
   xmlns:svg="http://www.w3.org/2000/svg"
   xmlns="http://www.w3.org/2000/svg"
   xmlns:sodipodi="http://sodipodi.sourceforge.net/DTD/sodipodi-0.dtd"
   xmlns:inkscape="http://www.inkscape.org/namespaces/inkscape"
   id="svg7438"
   version="1.1"
   inkscape:version="0.91 r"
   width="478"
   height="1336"
   viewBox="0 0 478 1336"
   sodipodi:docname="snowflake-Darth_Vader-000.svg">
  <metadata
     id="metadata7444">
    <rdf:RDF>
      <cc:Work
         rdf:about="">
        <dc:format>image/svg+xml</dc:format>
        <dc:type
           rdf:resource="http://purl.org/dc/dcmitype/StillImage" />
        <dc:title />
      </cc:Work>
    </rdf:RDF>
  </metadata>
  <defs
     id="defs7442" />
  <sodipodi:namedview
     pagecolor="#ffffff"
     bordercolor="#666666"
     borderopacity="1"
     objecttolerance="10"
     gridtolerance="10"
     guidetolerance="10"
     inkscape:pageopacity="0"
     inkscape:pageshadow="2"
     inkscape:window-width="1600"
     inkscape:window-height="843"
     id="namedview7440"
     showgrid="false"
     inkscape:zoom="2.2042288"
     inkscape:cx="203.98116"
     inkscape:cy="707.68755"
     inkscape:window-x="0"
     inkscape:window-y="0"
     inkscape:window-maximized="1"
     inkscape:current-layer="svg7438"
     showguides="true"
     inkscape:guide-bbox="true"
     inkscape:snap-center="true">
    <sodipodi:guide
       position="414.9304,72.865827"
       orientation="0,1"
       id="guide4133" />
    <sodipodi:guide
       position="414.9304,72.865827"
       orientation="1,0"
       id="guide4135" />
  </sodipodi:namedview>
  <path
     id="path4166"
     style="fill:none;stroke:#00ff00;stroke-opacity:1;stroke-width:0.70866142;stroke-miterlimit:4;stroke-dasharray:none"
     d="m 286.92065,693.391 c -1.06698,3.0549 -0.93445,5.9247 0.34169,7.3993 1.63724,1.8918 4.94829,2.8353 7.7613,2.2117 3.61853,-0.8022 6.18956,-3.5989 7.26182,-7.8992 0.63429,-2.5438 0.5446,-5.6775 -0.18071,-6.3149 -1.20575,-1.0596 -6.11623,-4.2881 -6.59288,-4.3346 -0.8203,-0.08 -3.07022,1.4907 -5.12595,3.5784 -0.94956,0.9643 -1.31981,1.447 -2.14272,2.7933 -0.64428,1.0541 -1.11028,1.9582 -1.32255,2.566 z m -14.67386,-5.5584 c 2.74635,4.9232 5.2681,8.8977 6.7271,10.6024 0.45858,0.5358 0.85539,0.9674 0.88182,0.959 0.0264,-0.01 0.16928,-0.4052 0.31744,-0.8819 0.37991,-1.2224 2.49651,-5.0949 3.89768,-7.131 1.04855,-1.5238 3.88307,-5.2534 4.41156,-5.8047 l 0.21837,-0.2278 -2.81497,-1.6253 -2.81497,-1.6252 -6.09916,1.6354 -6.09918,1.6354 z m 1.80416,-19.1206 -2.91352,5.0464 -2.91351,5.0464 -0.59754,-0.114 c -1.1157,-0.2127 -2.10318,0.6182 -2.07616,1.7469 0.0151,0.6324 0.39457,1.3653 0.84065,1.6236 0.71299,0.4129 1.78904,0.1988 2.36297,-0.4703 0.37258,-0.4343 1.28482,-0.6182 4.62342,-0.9324 2.07439,-0.1952 8.68241,-0.5816 12.05128,-0.7047 1.43411,-0.052 1.48065,-0.044 2.32565,0.4444 2.47044,1.4263 4.73957,1.5015 5.80293,0.1923 l 0.34102,-0.4198 m 14.03845,8.1051 -1.20964,1.8982 -1.20964,1.8982 0.009,1.4675 c 0.0101,1.6728 -0.14985,2.9713 -0.53058,4.3066 -0.37542,1.3166 -2.15088,4.3853 -3.21418,5.5555 -2.13836,2.3532 -4.67964,4.069 -6.93725,4.6837 l -0.97839,0.2664 0.45082,0.1726 c 1.95993,0.7503 5.51824,0.3852 8.0139,-0.8223 2.88829,-1.3975 4.61906,-3.3831 5.41919,-6.2172 0.44612,-1.5801 0.59442,-3.1759 0.52961,-5.6986 -0.0928,-3.6124 -0.14639,-3.282 0.79888,-4.9248 l 0.83213,-1.4462 m 30.82344,17.7959 -0.87666,1.3419 c -2.61478,4.0023 -6.96357,8.5892 -10.26001,10.8217 -3.33196,2.2566 -5.54747,2.816 -10.37265,2.6194 -5.137,-0.2094 -11.15939,-1.5011 -16.90775,-3.6264 -2.91927,-1.0793 -4.87273,-1.9289 -8.35971,-3.6361 -6.09754,-2.9851 -9.05162,-3.837 -19.41526,-5.5993 -6.34651,-1.0791 -8.08162,-1.4184 -11.23531,-2.1967 -3.98776,-0.9842 -7.43175,-2.1138 -11.04171,-3.6217 -1.74857,-0.7304 -1.78111,-0.7497 -2.26573,-1.3375 -0.27043,-0.328 -1.1029,-1.7056 -1.84995,-3.0613 -1.25339,-2.2745 -1.35711,-2.5245 -1.34306,-3.2374 0.0339,-1.7197 1.25761,-8.394 2.50837,-13.6812 0.29217,-1.235 0.5114,-2.2402 0.48717,-2.2337 -0.0994,0.027 -2.10429,2.9522 -4.88168,7.1235 -3.13266,4.7049 -3.71319,5.5243 -3.81901,5.3908 m -10.73368,-18.6695 c 0.0267,0 1.9011,1.0118 4.16534,2.2591 3.90019,2.1484 6.93151,3.7038 7.11992,3.6533 0.047,-0.013 0.10988,-0.7411 0.13966,-1.6189 0.0606,-1.788 0.40343,-3.6831 0.91844,-5.0776 l 0.34425,-0.9322 -1.72808,-0.9977 c -6.66915,-3.8505 -14.59682,-9.6767 -20.27117,-14.8979 l -1.93784,-1.7831 m -7.3426,-12.95 c -0.0767,-0.5662 0.13439,-2.7355 0.35968,-3.6955 0.27134,-1.1561 0.80446,-2.6946 1.15878,-3.3439 l 0.24477,-0.4485 m 41.40342,23.9043 -1.07441,1.8609 c -2.50059,4.3312 -3.35036,7.6962 -2.90296,11.4956 0.25613,2.1751 0.36509,2.2986 0.58404,0.6622 0.24421,-1.8253 1.02819,-4.5927 1.86061,-6.5679 0.82108,-1.9483 2.48957,-5.1661 3.03188,-5.8471 l 0.40264,-0.5057 m 44.96418,8.8286 c 2.11212,-2.4514 4.66372,-3.7716 6.57882,-3.4037 2.45696,0.472 4.92963,2.8676 5.79608,5.6156 1.11456,3.5348 -0.0219,7.1598 -3.21001,10.2385 -1.88584,1.8212 -4.64453,3.3104 -5.55921,3.001 -1.52054,-0.5144 -6.77174,-3.1528 -7.05031,-3.5423 -0.47942,-0.6704 -0.24415,-3.4043 0.536,-6.2284 0.36037,-1.3045 0.59325,-1.8665 1.34774,-3.2523 0.59073,-1.085 1.14069,-1.9407 1.56089,-2.4284 z m -12.15066,-9.9287 c 5.63685,-0.083 10.33974,0.1134 12.54554,0.5246 0.6933,0.1293 1.26545,0.2571 1.27146,0.2842 0.006,0.027 -0.26627,0.3492 -0.60506,0.7158 -0.86871,0.9403 -3.16405,4.7095 -4.22682,6.9411 -0.79531,1.6699 -2.60802,5.9895 -2.82124,6.7228 l -0.0881,0.303 -2.81498,-1.6252 -2.81497,-1.6252 -1.63329,-6.0997 -1.63329,-6.0997 z m -15.65678,11.1227 2.91352,-5.0463 2.91352,-5.0464 -0.39742,-0.4605 c -0.74207,-0.8599 -0.51626,-2.1305 0.47476,-2.6715 0.55526,-0.3031 1.37963,-0.3409 1.8264,-0.084 0.71406,0.411 1.06664,1.4499 0.77421,2.2815 -0.18983,0.5398 0.10696,1.4218 1.5042,4.4702 0.86815,1.8941 3.83753,7.81 5.41537,10.789 0.67167,1.2682 0.70266,1.3041 1.54765,1.792 2.47043,1.4263 3.67014,3.3538 3.06805,4.9292 l -0.19307,0.5053 m 14.03845,8.1051 1.03905,-1.9967 1.03906,-1.9966 1.27537,-0.7262 c 1.45368,-0.8276 2.4983,-1.6154 3.46427,-2.6127 0.95249,-0.9835 2.72239,-4.0554 3.20411,-5.5613 0.96881,-3.0285 1.18405,-6.0872 0.58759,-8.3497 l -0.25848,-0.9805 0.37488,0.3041 c 1.62979,1.3222 3.09275,4.5863 3.29484,7.3514 0.23387,3.2001 -0.62034,5.6918 -2.67464,7.8017 -1.14535,1.1764 -2.4532,2.1028 -4.67035,3.308 -3.17478,1.7258 -2.91544,1.5142 -3.86558,3.1542 l -0.83639,1.4438 m 30.82343,17.7959 0.72376,-1.4301 c 2.15877,-4.2657 3.95675,-10.3253 4.24192,-14.2963 0.28825,-4.0139 -0.33499,-6.2123 -2.91791,-10.2927 -2.74983,-4.3441 -6.87964,-8.9138 -11.59437,-12.8294 -2.39433,-1.9885 -4.1069,-3.2554 -7.32878,-5.4216 -5.63399,-3.7881 -7.84884,-5.9204 -14.5568,-14.0145 -4.10784,-4.9566 -5.26918,-6.2897 -7.52008,-8.6317 -2.84619,-2.9614 -5.54648,-5.3792 -8.65736,-7.7515 -1.50683,-1.1491 -1.53975,-1.1677 -2.29115,-1.2935 -0.41928,-0.07 -2.02855,-0.1023 -3.57613,-0.071 -2.59647,0.052 -2.86485,0.087 -3.47517,0.4555 -1.47236,0.8893 -6.64064,5.2862 -10.59408,9.013 -0.9235,0.8705 -1.68441,1.5629 -1.6909,1.5387 -0.0266,-0.099 1.50458,-3.2985 3.72832,-7.7894 2.50821,-5.0654 2.92761,-5.9779 2.75903,-6.0027 m -21.53509,0.039 c 0.009,0.025 1.82682,1.1405 4.0391,2.4777 3.81068,2.3035 6.67339,4.151 6.72387,4.3394 0.0126,0.047 -0.58689,0.4657 -1.3322,0.9304 -1.51814,0.9465 -2.98797,2.1909 -3.93815,3.3342 l -0.63515,0.7642 -1.72807,-0.9977 c -6.6692,-3.8505 -15.67875,-7.8029 -23.0376,-10.1064 l -2.51311,-0.7867 m -14.88632,0.1161 c -0.52875,0.2167 -2.30182,1.4841 -3.02054,2.1592 -0.86562,0.8131 -1.9314,2.044 -2.31655,2.6756 l -0.26601,0.4362 m 41.40342,23.9042 1.07441,-1.8609 c 2.5006,-4.3312 4.98992,-6.7496 8.504,-8.2618 2.01174,-0.8658 2.17322,-0.8332 0.8655,0.1746 -1.45865,1.1242 -3.46334,3.1869 -4.75768,4.8953 -1.27674,1.6853 -3.22915,4.7391 -3.54783,5.5493 l -0.2366,0.6015 m -150.6381,8.7408 c -2.11212,-2.4514 -4.66372,-3.7716 -6.578808,-3.4037 -2.45698,0.472 -4.92965,2.8676 -5.79609,5.6156 -1.11456,3.5348 0.0219,7.1598 3.21001,10.2385 1.88584,1.8212 4.644528,3.3104 5.559218,3.001 1.52053,-0.5144 6.77173,-3.1528 7.0503,-3.5423 0.47942,-0.6704 0.24415,-3.4043 -0.536,-6.2284 -0.36037,-1.3045 -0.59325,-1.8665 -1.34774,-3.2523 -0.59073,-1.085 -1.14069,-1.9407 -1.56089,-2.4284 z m 12.15066,-9.9287 c -5.63684,-0.083 -10.33974,0.1134 -12.54554,0.5246 -0.6933,0.1293 -1.26545,0.2571 -1.27146,0.2842 -0.006,0.027 0.26627,0.3492 0.60506,0.7159 0.86871,0.9402 3.16405,4.7094 4.22682,6.941 0.79533,1.6699 2.60802,5.9895 2.82124,6.7228 l 0.0881,0.3031 2.81497,-1.6253 2.81497,-1.6252 1.6333,-6.0997 1.63329,-6.0997 z m 15.65678,11.1227 -2.91352,-5.0463 -2.91351,-5.0464 0.39742,-0.4605 c 0.74206,-0.8599 0.51625,-2.1305 -0.47476,-2.6715 -0.55527,-0.3031 -1.37964,-0.3409 -1.8264,-0.084 -0.71407,0.411 -1.06665,1.4499 -0.77422,2.2815 0.18983,0.5398 -0.10695,1.4218 -1.5042,4.4702 -0.86814,1.8941 -3.83753,7.81 -5.41537,10.789 -0.67167,1.2682 -0.70265,1.3041 -1.54765,1.792 -2.47042,1.4263 -3.67014,3.3538 -3.06805,4.9292 l 0.19307,0.5053 m -14.03845,8.1051 -1.039048,-1.9967 -1.03906,-1.9966 -1.2754,-0.7261 c -1.45369,-0.8276 -2.49829,-1.6154 -3.46427,-2.6128 -0.95249,-0.9834 -2.72239,-4.0554 -3.20411,-5.5613 -0.9688,-3.0285 -1.18404,-6.0872 -0.58758,-8.3497 l 0.25849,-0.9805 -0.37488,0.3041 c -1.6298,1.3222 -3.09277,4.5863 -3.29484,7.3514 -0.23387,3.2001 0.62034,5.6918 2.67462,7.8017 1.14536,1.1765 2.45321,2.1028 4.67037,3.308 3.17477,1.7258 2.91544,1.5142 3.86556,3.1543 l 0.83641,1.4437 m -30.82343,17.796 -0.72378,-1.4302 c -2.15875,-4.2656 -3.95674,-10.3253 -4.24191,-14.2963 -0.28824,-4.0138 0.335,-6.2123 2.9179,-10.2927 2.74984,-4.344 6.87965,-8.9137 11.59438,-12.8293 2.39434,-1.9885 4.1069,-3.2554 7.32879,-5.4217 5.63398,-3.7881 7.84883,-5.9204 14.55679,-14.0144 4.107838,-4.9567 5.269188,-6.2897 7.520068,-8.6318 2.8462,-2.9614 5.54649,-5.3791 8.65738,-7.7515 1.50682,-1.1491 1.53973,-1.1677 2.29113,-1.2934 0.4193,-0.07 2.02855,-0.1024 3.57614,-0.072 2.59646,0.052 2.86486,0.087 3.47517,0.4556 1.47236,0.8892 6.64064,5.2861 10.59408,9.0129 0.9235,0.8705 1.68441,1.563 1.6909,1.5388 0.0266,-0.099 -1.50458,-3.2985 -3.72832,-7.7895 -2.50822,-5.0654 -2.92761,-5.9778 -2.75903,-6.0027 m 21.53509,0.039 c -0.009,0.025 -1.82681,1.1405 -4.0391,2.4778 -3.81068,2.3034 -6.67338,4.1509 -6.72387,4.3393 -0.0125,0.047 0.58689,0.4657 1.33221,0.9304 1.51813,0.9465 2.98795,2.191 3.93815,3.3342 l 0.63514,0.7642 1.72807,-0.9977 c 6.6692,-3.8504 15.67875,-7.8029 23.0376,-10.1064 l 2.51311,-0.7867 m 14.88633,0.1161 c 0.52874,0.2167 2.30181,1.4842 3.02053,2.1593 0.86561,0.813 1.9314,2.044 2.31655,2.6755 l 0.26602,0.4362 m -41.40343,23.9043 -1.07441,-1.861 c -2.5006,-4.3311 -4.98992,-6.7496 -8.50399,-8.2618 -2.01175,-0.8657 -2.17322,-0.8331 -0.86551,0.1747 1.45865,1.1241 3.46334,3.1868 4.75769,4.8953 1.27673,1.6852 3.22915,4.739 3.54783,5.5492 l 0.2366,0.6016 m -30.12793,34.5258 c 1.06698,3.0549 0.93446,5.9247 -0.34168,7.3993 -1.63724,1.8918 -4.94829,2.8353 -7.76131,2.2117 -3.61852,-0.8022 -6.18955,-3.5989 -7.26182,-7.8992 -0.63429,-2.5438 -0.5446,-5.6775 0.18072,-6.3149 1.20574,-1.0596 6.11622,-4.2881 6.59287,-4.3346 0.8203,-0.08 3.07023,1.4907 5.12595,3.5784 0.94956,0.9643 1.31981,1.447 2.14272,2.7933 0.64429,1.0541 1.11028,1.9582 1.32255,2.566 z m 14.67387,-5.5584 c -2.74635,4.9232 -5.26811,8.8977 -6.7271,10.6024 -0.45858,0.5358 -0.85539,0.9674 -0.88183,0.959 -0.0264,-0.01 -0.16928,-0.4052 -0.31743,-0.8819 -0.37991,-1.2224 -2.49651,-5.0949 -3.89768,-7.131 -1.04856,-1.5238 -3.88308,-5.2534 -4.41157,-5.8047 l -0.21837,-0.2278 2.81497,-1.6253 2.81497,-1.6252 6.09918,1.6354 6.09916,1.6354 z m -1.80417,-19.1206 2.91352,5.0464 2.91352,5.0464 0.59754,-0.114 c 1.11571,-0.2127 2.10317,0.6182 2.07616,1.7469 -0.0151,0.6324 -0.39458,1.3653 -0.84066,1.6236 -0.71297,0.4129 -1.78903,0.1988 -2.36297,-0.4703 -0.37258,-0.4343 -1.28481,-0.6182 -4.62341,-0.9324 -2.07439,-0.1952 -8.68241,-0.5816 -12.05128,-0.7047 -1.43412,-0.052 -1.48067,-0.044 -2.32566,0.4444 -2.47044,1.4263 -4.73957,1.5015 -5.80293,0.1923 l -0.34102,-0.4198 m -14.03845,8.1051 1.20964,1.8982 1.20964,1.8982 -0.009,1.4675 c -0.0101,1.6728 0.14984,2.9713 0.53059,4.3066 0.37543,1.3166 2.15087,4.3853 3.21417,5.5555 2.13836,2.3532 4.67964,4.069 6.93725,4.6837 l 0.97839,0.2664 -0.45082,0.1726 c -1.95993,0.7503 -5.51824,0.3852 -8.0139,-0.8223 -2.88831,-1.3975 -4.61906,-3.3831 -5.41919,-6.2172 -0.446118,-1.5801 -0.594418,-3.1759 -0.529608,-5.6986 0.0928,-3.6124 0.14639,-3.2819 -0.79888,-4.9248 l -0.83214,-1.4462 m -30.82343,17.7959 0.87667,1.3419 c 2.61477,4.0023 6.96357,8.5892 10.26,10.8217 3.33196,2.2566 5.54747,2.816 10.37265,2.6194 5.137,-0.2094 11.15938,-1.5011 16.907758,-3.6264 2.91926,-1.0793 4.87272,-1.9289 8.3597,-3.6361 6.09754,-2.9851 9.05162,-3.837 19.41525,-5.5993 6.34653,-1.0791 8.08163,-1.4184 11.23533,-2.1967 3.98775,-0.9842 7.43174,-2.1138 11.04171,-3.6217 1.74856,-0.7304 1.78111,-0.7497 2.26573,-1.3375 0.27043,-0.328 1.10291,-1.7056 1.84995,-3.0613 1.25339,-2.2745 1.35711,-2.5245 1.34305,-3.2374 -0.0339,-1.7197 -1.25759,-8.394 -2.50837,-13.6812 -0.29218,-1.235 -0.51139,-2.2402 -0.48716,-2.2337 0.0994,0.027 2.10429,2.9522 4.88167,7.1235 3.13267,4.7049 3.7132,5.5243 3.81901,5.3908 m 10.73369,-18.6695 c -0.0267,0 -1.90111,1.0118 -4.16535,2.2591 -3.90019,2.1484 -6.93151,3.7038 -7.11993,3.6533 -0.047,-0.013 -0.10988,-0.7411 -0.13965,-1.6189 -0.0606,-1.788 -0.40343,-3.6831 -0.91843,-5.0776 l -0.34425,-0.9322 1.72807,-0.9977 c 6.6692,-3.8505 14.59687,-9.6767 20.2712,-14.8979 l 1.93785,-1.7831 m 7.3426,-12.95 c 0.0767,-0.5662 -0.13439,-2.7355 -0.35968,-3.6955 -0.27132,-1.1561 -0.80446,-2.6946 -1.15878,-3.3439 l -0.24477,-0.4485 m -41.40342,23.9043 1.07442,1.8609 c 2.50059,4.3312 3.35036,7.6962 2.90296,11.4956 -0.25613,2.1751 -0.36509,2.2986 -0.58404,0.6622 -0.24422,-1.8253 -1.0282,-4.5927 -1.8606,-6.5679 -0.8211,-1.9483 -2.48957,-5.1661 -3.03188,-5.8471 l -0.40264,-0.5057 m 37.97529,73.9038 c -3.17911,0.6034 -5.59818,2.1531 -6.23713,3.9956 -0.81975,2.3638 0.0186,5.703 1.96521,7.8273 2.50397,2.7327 6.2115,3.5609 10.47183,2.3393 2.52013,-0.7225 5.18912,-2.3671 5.37851,-3.3139 0.3148,-1.574 0.65551,-7.4409 0.45743,-7.8769 -0.34089,-0.7504 -2.82608,-1.9136 -5.66196,-2.65 -1.30993,-0.3402 -1.91307,-0.4195 -3.49045,-0.459 -1.23501,-0.031 -2.25098,0.018 -2.88344,0.1376 z m -2.52321,-15.4871 c -2.89049,4.84 -5.07163,9.0112 -5.81844,11.127 -0.23472,0.6651 -0.41006,1.2245 -0.38963,1.2432 0.0204,0.019 0.43555,-0.056 0.92249,-0.166 1.24862,-0.2822 5.66055,-0.3854 8.1245,-0.1901 1.84387,0.1462 6.49108,0.7362 7.23281,0.9182 l 0.30647,0.075 0,-3.2504 0,-3.2505 -4.46588,-4.4643 -4.46588,-4.4644 z m 17.46095,-7.9978 -5.82705,0 -5.82703,0 -0.20012,-0.5745 c -0.37364,-1.0726 -1.58692,-1.5123 -2.55092,-0.9245 -0.54013,0.3293 -0.98506,1.0243 -0.98574,1.5398 -0.001,0.8239 0.7224,1.6487 1.58875,1.8112 0.56242,0.1055 1.17785,0.8036 3.11922,3.5378 1.20623,1.6989 4.84488,7.2284 6.63591,10.0844 0.76243,1.2158 0.77802,1.2605 0.77802,2.2362 0,2.8526 1.06941,4.8554 2.73485,5.1217 l 0.53411,0.085 m 0,16.2102 -2.24869,-0.099 -2.2487,-0.099 -1.2665,0.7415 c -1.44356,0.8452 -2.64815,1.3559 -3.99486,1.6938 -1.32792,0.3332 -4.87328,0.33 -6.41828,-0.01 -3.10718,-0.6752 -5.86369,-2.0181 -7.52486,-3.666 l -0.71989,-0.7141 0.0759,0.4768 c 0.33013,2.0725 2.42548,4.9715 4.71906,6.5291 2.65443,1.8025 5.23939,2.3086 8.09381,1.5845 1.59148,-0.4037 3.04763,-1.0731 5.19998,-2.3906 3.08198,-1.8866 2.76904,-1.7678 4.66446,-1.7706 l 1.66853,0 m 0,35.5918 -1.60043,-0.088 c -4.77354,-0.2632 -10.92032,-1.736 -14.50194,-3.4745 -3.62019,-1.7573 -5.21246,-3.3963 -7.45473,-7.6733 -2.38717,-4.5535 -4.27975,-10.4149 -5.31338,-16.4557 -0.52493,-3.0679 -0.76584,-5.1844 -1.03092,-9.0578 -0.46356,-6.7732 -1.20278,-9.7575 -4.85846,-19.6138 -2.23868,-6.0358 -2.81244,-7.7081 -3.71524,-10.8284 -1.14158,-3.9456 -1.88527,-7.493 -2.38434,-11.3733 -0.24174,-1.8795 -0.24138,-1.9173 0.0254,-2.6309 0.14887,-0.3982 0.92565,-1.8079 1.72617,-3.1327 1.3431,-2.2227 1.50777,-2.4376 2.13213,-2.7818 1.50626,-0.8305 7.89824,-3.1079 13.10245,-4.6683 1.21567,-0.3645 2.1958,-0.6773 2.17806,-0.695 -0.0728,-0.073 -3.60887,-0.3462 -8.60999,-0.6659 -5.64088,-0.3605 -6.6408,-0.4535 -6.57803,-0.612 M 177.95,673.809 c 0.0175,0.021 0.0743,2.1524 0.12624,4.7369 0.0895,4.4519 0.25812,7.8548 0.39604,7.9927 0.0344,0.034 0.69677,-0.2754 1.47187,-0.6885 1.57877,-0.8415 3.3914,-1.4922 4.85659,-1.7434 l 0.97939,-0.168 0,-1.9954 c 0,-7.7009 1.08188,-17.4796 2.76639,-25.0043 l 0.57528,-2.5698 m 7.5437,-12.8339 c 0.45201,-0.3496 2.43621,-1.2513 3.38022,-1.5362 1.13695,-0.3431 2.73586,-0.6507 3.47534,-0.6685 l 0.51078,-0.012 m 0,47.8085 -2.14884,0 c -5.00119,0 -8.34028,0.9466 -11.40695,3.2338 -1.75561,1.3093 -1.80813,1.4655 -0.28147,0.8369 1.70287,-0.7012 4.49154,-1.406 6.6183,-1.6727 2.09782,-0.263 5.71871,-0.427 6.57971,-0.2978 l 0.63925,0.096 m 14.83625,43.3545 c 3.1791,0.6034 5.59818,2.1531 6.23713,3.9956 0.81973,2.3638 -0.0186,5.703 -1.96522,7.8273 -2.50396,2.7327 -6.21149,3.5609 -10.47184,2.3393 -2.52012,-0.7225 -5.18912,-2.3671 -5.37849,-3.3139 -0.3148,-1.574 -0.65551,-7.4409 -0.45743,-7.8769 0.34088,-0.7504 2.82608,-1.9136 5.66196,-2.65 1.30993,-0.3402 1.91305,-0.4195 3.49045,-0.459 1.23501,-0.031 2.25098,0.018 2.88344,0.1376 z m 2.52321,-15.4871 c 2.89048,4.84 5.07163,9.0112 5.81844,11.127 0.23472,0.6651 0.41006,1.2245 0.38963,1.2432 -0.0204,0.019 -0.43555,-0.056 -0.92249,-0.166 -1.24863,-0.2822 -5.66056,-0.3854 -8.1245,-0.1901 -1.84387,0.1462 -6.4911,0.7362 -7.23281,0.9182 l -0.30647,0.075 0,-3.2504 0,-3.2505 4.46588,-4.4643 4.46587,-4.4644 z m -17.46095,-7.9978 5.82704,0 5.82704,0 0.2001,-0.5745 c 0.37365,-1.0726 1.58692,-1.5123 2.55093,-0.9245 0.54012,0.3293 0.98506,1.0243 0.98575,1.5398 0.001,0.8239 -0.7224,1.6487 -1.58876,1.8112 -0.56241,0.1055 -1.17786,0.8036 -3.11923,3.5378 -1.20623,1.6989 -4.84486,7.2284 -6.63589,10.0844 -0.76245,1.2158 -0.77802,1.2605 -0.77802,2.2362 0,2.8526 -1.06942,4.8554 -2.73487,5.1217 l -0.53409,0.085 m 0,16.2102 2.24869,-0.099 2.24869,-0.099 1.26651,0.7415 c 1.44356,0.8452 2.64815,1.3559 3.99486,1.6938 1.32791,0.3332 4.87326,0.33 6.41828,-0.01 3.10717,-0.6752 5.86369,-2.0181 7.52484,-3.666 l 0.7199,-0.7141 -0.0759,0.4768 c -0.33014,2.0725 -2.42547,4.9715 -4.71906,6.5291 -2.65443,1.8025 -5.23938,2.3086 -8.09382,1.5845 -1.59146,-0.4037 -3.04762,-1.0731 -5.19997,-2.3906 -3.08198,-1.8866 -2.76905,-1.7678 -4.66445,-1.7706 l -1.66853,0 m 0,35.5918 1.60043,-0.088 c 4.77353,-0.2632 10.92031,-1.736 14.50192,-3.4745 3.62021,-1.7573 5.21248,-3.3963 7.45475,-7.6733 2.38716,-4.5535 4.27974,-10.4149 5.31338,-16.4557 0.52493,-3.0679 0.76583,-5.1844 1.03091,-9.0578 0.46357,-6.7732 1.20279,-9.7575 4.85847,-19.6138 2.23867,-6.0358 2.81243,-7.7081 3.71524,-10.8284 1.14157,-3.9456 1.88526,-7.493 2.38434,-11.3733 0.24174,-1.8795 0.24137,-1.9173 -0.0254,-2.6309 -0.14886,-0.3982 -0.92564,-1.8079 -1.72617,-3.1327 -1.3431,-2.2227 -1.50776,-2.4376 -2.13213,-2.7818 -1.50626,-0.8305 -7.89824,-3.1079 -13.10246,-4.6683 -1.21567,-0.3645 -2.1958,-0.6773 -2.17805,-0.695 0.0728,-0.073 3.60887,-0.3462 8.60998,-0.6659 5.64089,-0.3605 6.64081,-0.4535 6.57805,-0.612 m -10.80141,-18.6304 c -0.0175,0.021 -0.0743,2.1524 -0.12625,4.7369 -0.0895,4.4519 -0.25811,7.8548 -0.39604,7.9927 -0.0344,0.034 -0.69677,-0.2754 -1.47186,-0.6885 -1.57879,-0.8415 -3.3914,-1.4922 -4.85659,-1.7434 l -0.97939,-0.168 0,-1.9954 c 0,-7.7009 -1.08188,-17.4796 -2.7664,-25.0043 l -0.57527,-2.5698 m -7.54372,-12.8339 c -0.45199,-0.3496 -2.43619,-1.2513 -3.38021,-1.5362 -1.13695,-0.3431 -2.73587,-0.6507 -3.47533,-0.6685 l -0.51078,-0.012 m 0,47.8085 2.14883,0 c 5.00118,0 8.34028,0.9466 11.40696,3.2338 1.75561,1.3093 1.80812,1.4655 0.28146,0.8369 -1.70286,-0.7012 -4.49154,-1.406 -6.61829,-1.6727 -2.09783,-0.263 -5.71872,-0.427 -6.57971,-0.2978 l -0.63925,0.096 m -82.88878,-126.086 c 1.06698,-3.0549 0.93446,-5.9247 -0.34169,-7.3993 -1.63723,-1.8918 -4.94828,-2.8354 -7.7613,-2.2117 -3.61852,0.8021 -6.18955,3.5988 -7.26182,7.8992 -0.63429,2.5438 -0.5446,5.6774 0.18072,6.3149 1.20573,1.0596 6.11622,4.2881 6.59286,4.3346 0.82032,0.08 3.07024,-1.4907 5.12596,-3.5784 0.94957,-0.9644 1.31981,-1.447 2.14272,-2.7934 0.64428,-1.054 1.11028,-1.9581 1.32255,-2.5659 z m 14.67387,5.5584 c -2.74635,-4.9232 -5.26811,-8.8977 -6.7271,-10.6024 -0.45859,-0.5358 -0.8554,-0.9674 -0.88183,-0.9591 -0.0264,0.01 -0.16928,0.4052 -0.31744,0.882 -0.37991,1.2224 -2.4965,5.0949 -3.89768,7.131 -1.04854,1.5238 -3.88306,5.2534 -4.41157,5.8047 l -0.21836,0.2278 2.81497,1.6252 2.81497,1.6253 6.09917,-1.6354 6.09917,-1.6354 z m -1.80417,19.1206 2.91352,-5.0464 2.91351,-5.0464 0.59754,0.1139 c 1.11571,0.2128 2.10318,-0.6181 2.07617,-1.7468 -0.0151,-0.6325 -0.39458,-1.3653 -0.84066,-1.6236 -0.71298,-0.4129 -1.78903,-0.1988 -2.36297,0.4702 -0.37258,0.4344 -1.28481,0.6183 -4.62342,0.9325 -2.07438,0.1952 -8.6824,0.5816 -12.05127,0.7047 -1.43412,0.052 -1.48066,0.044 -2.32566,-0.4444 -2.47043,-1.4263 -4.73957,-1.5015 -5.80293,-0.1924 l -0.34102,0.4199 m -14.03845,-8.1051 1.20964,-1.8982 1.20964,-1.8982 -0.009,-1.4676 c -0.0101,-1.6727 0.14986,-2.9713 0.53059,-4.3065 0.37543,-1.3166 2.15088,-4.3853 3.21417,-5.5555 2.13837,-2.3532 4.67965,-4.069 6.93727,-4.6837 l 0.97838,-0.2664 -0.45082,-0.1726 c -1.95993,-0.7503 -5.51824,-0.3852 -8.0139,0.8223 -2.8883,1.3975 -4.61905,3.3831 -5.41919,6.2172 -0.446108,1.5801 -0.594418,3.1759 -0.529608,5.6986 0.0928,3.6123 0.14639,3.2819 -0.79889,4.9248 l -0.83213,1.4462 m -30.82343,-17.7959 0.87666,-1.3419 c 2.61478,-4.0023 6.96358,-8.5892 10.26002,-10.8217 3.33196,-2.2566 5.54747,-2.816 10.37264,-2.6194 5.137,0.2094 11.15939,1.5011 16.907758,3.6264 2.91927,1.0793 4.87272,1.9289 8.35971,3.636 6.09753,2.9852 9.05161,3.8371 19.41525,5.5994 6.34651,1.0791 8.08163,1.4184 11.23532,2.1967 3.98776,0.9842 7.43174,2.1138 11.0417,3.6217 1.74857,0.7304 1.78112,0.7496 2.26574,1.3375 0.27042,0.328 1.1029,1.7056 1.84995,3.0613 1.25338,2.2745 1.3571,2.5245 1.34305,3.2374 -0.0339,1.7197 -1.25761,8.394 -2.50837,13.6812 -0.29217,1.235 -0.51139,2.2402 -0.48716,2.2337 0.0994,-0.027 2.10428,-2.9523 4.88167,-7.1235 3.13267,-4.7049 3.7132,-5.5244 3.81901,-5.3908 m 10.73368,18.6695 c -0.0267,0 -1.9011,-1.0118 -4.16534,-2.2591 -3.90019,-2.1484 -6.93151,-3.7039 -7.11992,-3.6534 -0.047,0.013 -0.10988,0.7412 -0.13966,1.619 -0.0606,1.788 -0.40343,3.6831 -0.91843,5.0776 l -0.34426,0.9322 1.72808,0.9977 c 6.6692,3.8504 14.59687,9.6767 20.27121,14.8979 l 1.93784,1.7831 m 7.34261,12.95 c 0.0767,0.5662 -0.1344,2.7355 -0.35968,3.6955 -0.27134,1.1561 -0.80447,2.6946 -1.15879,3.3439 l -0.24477,0.4485 m -41.40342,-23.9043 1.07442,-1.8609 c 2.50058,-4.3312 3.35035,-7.6962 2.90295,-11.4956 -0.25612,-2.1751 -0.36509,-2.2987 -0.58403,-0.6622 -0.24421,1.8253 -1.0282,4.5927 -1.86061,6.5679 -0.82109,1.9483 -2.48957,5.166 -3.03188,5.8471 l -0.40264,0.5057 M 106.15452,589.02 c -2.11211,2.4514 -4.66372,3.7716 -6.578808,3.4037 -2.45697,-0.472 -4.92964,-2.8677 -5.79609,-5.6156 -1.11456,-3.5348 0.0219,-7.1598 3.21001,-10.2386 1.88584,-1.8212 4.644528,-3.3103 5.559218,-3.0009 1.52054,0.5144 6.77174,3.1528 7.0503,3.5423 0.47942,0.6704 0.24416,3.4042 -0.53601,6.2284 -0.36036,1.3045 -0.59324,1.8665 -1.34773,3.2523 -0.59072,1.085 -1.1407,1.9406 -1.56089,2.4284 z m 12.15066,9.9287 c -5.63684,0.083 -10.33974,-0.1135 -12.54554,-0.5246 -0.6933,-0.1293 -1.26545,-0.2572 -1.27146,-0.2842 -0.006,-0.027 0.26628,-0.3492 0.60506,-0.7159 0.86872,-0.9402 3.16405,-4.7094 4.22683,-6.941 0.79531,-1.6699 2.60801,-5.9895 2.82123,-6.7229 l 0.0881,-0.303 2.81497,1.6252 2.81497,1.6253 1.6333,6.0997 1.63329,6.0997 z m 15.65678,-11.1227 -2.91352,5.0463 -2.91352,5.0464 0.39742,0.4605 c 0.74207,0.8599 0.51626,2.1305 -0.47475,2.6715 -0.55527,0.3031 -1.37964,0.3409 -1.8264,0.084 -0.71407,-0.411 -1.06664,-1.4499 -0.77422,-2.2815 0.18983,-0.5398 -0.10696,-1.4218 -1.50419,-4.4702 -0.86815,-1.8941 -3.83754,-7.81 -5.41537,-10.7891 -0.67168,-1.2681 -0.70266,-1.304 -1.54765,-1.7919 -2.47044,-1.4263 -3.67015,-3.3538 -3.06807,-4.9293 l 0.19309,-0.5052 m -14.03845,-8.1051 -1.039058,1.9967 -1.03905,1.9966 -1.27538,0.7261 c -1.45367,0.8277 -2.4983,1.6155 -3.46427,2.6128 -0.95249,0.9834 -2.72239,4.0554 -3.20411,5.5613 -0.96881,3.0285 -1.18405,6.0872 -0.58759,8.3497 l 0.25849,0.9805 -0.37488,-0.3041 c -1.6298,-1.3222 -3.09276,-4.5863 -3.29484,-7.3514 -0.23387,-3.2001 0.62033,-5.6918 2.67463,-7.8017 1.14536,-1.1764 2.4532,-2.1028 4.67036,-3.308 3.17477,-1.7258 2.91543,-1.5142 3.86556,-3.1543 l 0.8364,-1.4437 m -30.82343,-17.7959 -0.72377,1.4301 c -2.15876,4.2657 -3.95674,10.3253 -4.24191,14.2963 -0.28825,4.0138 0.33499,6.2123 2.91791,10.2927 2.74983,4.344 6.87964,8.9137 11.59437,12.8293 2.39434,1.9885 4.1069,3.2555 7.32878,5.4217 5.63399,3.7881 7.84884,5.9204 14.5568,14.0145 4.107838,4.9566 5.269188,6.2896 7.520078,8.6317 2.84619,2.9614 5.54648,5.3792 8.65737,7.7515 1.50682,1.1491 1.53974,1.1677 2.29113,1.2935 0.4193,0.07 2.02856,0.1023 3.57614,0.071 2.59647,-0.052 2.86486,-0.087 3.47518,-0.4556 1.47235,-0.8892 6.64063,-5.2861 10.59407,-9.0129 0.9235,-0.8705 1.68441,-1.563 1.6909,-1.5387 0.0266,0.099 -1.50458,3.2985 -3.72832,7.7894 -2.50821,5.0654 -2.92761,5.9779 -2.75903,6.0027 m 21.5351,-0.039 c -0.009,-0.026 -1.82682,-1.1405 -4.03911,-2.4777 -3.81068,-2.3035 -6.67339,-4.151 -6.72387,-4.3394 -0.0126,-0.047 0.58689,-0.4657 1.33221,-0.9304 1.51813,-0.9465 2.98796,-2.1909 3.93814,-3.3342 l 0.63515,-0.7642 1.72807,0.9977 c 6.66921,3.8505 15.67875,7.8029 23.0376,10.1064 l 2.51312,0.7867 m 14.88631,-0.1161 c 0.52874,-0.2167 2.30182,-1.4842 3.02055,-2.1593 0.86561,-0.813 1.93139,-2.044 2.31654,-2.6755 l 0.26601,-0.4362 m -41.40342,-23.9043 -1.07441,1.861 c -2.5006,4.3311 -4.98992,6.7496 -8.504,8.2618 -2.01174,0.8658 -2.17321,0.8332 -0.8655,-0.1747 1.45865,-1.1241 3.46334,-3.1868 4.75768,-4.8953 1.27674,-1.6852 3.22915,-4.739 3.54784,-5.5492 l 0.2366,-0.6015 m 150.63809,-8.7409 c 2.11212,2.4515 4.66372,3.7717 6.57882,3.4038 2.45697,-0.472 4.92965,-2.8677 5.79608,-5.6156 1.11456,-3.5348 -0.0219,-7.1598 -3.21001,-10.2386 -1.88584,-1.8212 -4.64453,-3.3103 -5.55922,-3.0009 -1.52053,0.5144 -6.77173,3.1528 -7.0503,3.5423 -0.47942,0.6704 -0.24415,3.4042 0.536,6.2284 0.36037,1.3045 0.59325,1.8665 1.34774,3.2523 0.59073,1.085 1.14069,1.9406 1.56089,2.4283 z m -12.15066,9.9288 c 5.63685,0.083 10.33974,-0.1135 12.54554,-0.5246 0.6933,-0.1293 1.26545,-0.2572 1.27146,-0.2842 0.006,-0.027 -0.26627,-0.3492 -0.60506,-0.7159 -0.86871,-0.9402 -3.16405,-4.7095 -4.22682,-6.941 -0.79532,-1.6699 -2.60802,-5.9895 -2.82124,-6.7229 l -0.0881,-0.303 -2.81498,1.6252 -2.81497,1.6253 -1.63329,6.0997 -1.6333,6.0997 z m -15.65678,-11.1227 2.91352,5.0463 2.91352,5.0464 -0.39742,0.4605 c -0.74207,0.8599 -0.51626,2.1305 0.47476,2.6715 0.55526,0.3031 1.37963,0.3409 1.8264,0.084 0.71406,-0.411 1.06664,-1.4499 0.77421,-2.2815 -0.18983,-0.5398 0.10696,-1.4218 1.5042,-4.4702 0.86815,-1.8941 3.83753,-7.81 5.41537,-10.7891 0.67167,-1.2681 0.70265,-1.304 1.54765,-1.7919 2.47042,-1.4263 3.67014,-3.3538 3.06805,-4.9293 l -0.19307,-0.5052 m 14.03845,-8.1051 1.03905,1.9967 1.03906,1.9966 1.2754,0.7261 c 1.45369,0.8276 2.49829,1.6154 3.46427,2.6128 0.95249,0.9834 2.72239,4.0554 3.20411,5.5613 0.9688,3.0285 1.18405,6.0872 0.58758,8.3497 l -0.25849,0.9805 0.37488,-0.3042 c 1.6298,-1.3221 3.09277,-4.5863 3.29484,-7.3513 0.23387,-3.2001 -0.62034,-5.6918 -2.67462,-7.8018 -1.14536,-1.1764 -2.45321,-2.1027 -4.67037,-3.3079 -3.17477,-1.7259 -2.91544,-1.5142 -3.86556,-3.1543 l -0.8364,-1.4438 m 30.82342,-17.7959 0.72378,1.4302 c 2.15875,4.2656 3.95674,10.3252 4.24191,14.2963 0.28824,4.0138 -0.335,6.2122 -2.9179,10.2926 -2.74984,4.3441 -6.87965,8.9138 -11.59438,12.8294 -2.39434,1.9885 -4.10689,3.2554 -7.32878,5.4217 -5.63399,3.788 -7.84884,5.9204 -14.5568,14.0144 -4.10784,4.9567 -5.26919,6.2897 -7.52007,8.6317 -2.84619,2.9615 -5.54649,5.3792 -8.65737,7.7516 -1.50683,1.1491 -1.53974,1.1677 -2.29114,1.2934 -0.4193,0.07 -2.02855,0.1024 -3.57613,0.072 -2.59647,-0.052 -2.86487,-0.087 -3.47518,-0.4556 -1.47236,-0.8892 -6.64064,-5.2861 -10.59408,-9.0129 -0.9235,-0.8706 -1.68441,-1.563 -1.6909,-1.5388 -0.0266,0.099 1.50458,3.2985 3.72832,7.7894 2.50821,5.0655 2.92761,5.9779 2.75903,6.0028 m -21.53509,-0.039 c 0.009,-0.026 1.82682,-1.1405 4.0391,-2.4778 3.81069,-2.3034 6.67339,-4.1509 6.72387,-4.3393 0.0126,-0.047 -0.58689,-0.4657 -1.3322,-0.9304 -1.51813,-0.9465 -2.98797,-2.191 -3.93815,-3.3342 l -0.63514,-0.7642 -1.72808,0.9977 c -6.6692,3.8504 -15.67875,7.8028 -23.0376,10.1064 l -2.51311,0.7867 m -14.88632,-0.1162 c -0.52874,-0.2166 -2.30181,-1.4841 -3.02054,-2.1592 -0.86561,-0.8131 -1.9314,-2.044 -2.31655,-2.6755 l -0.26601,-0.4362 m 41.40342,-23.9043 1.07442,1.861 c 2.50059,4.3311 4.98992,6.7495 8.50399,8.2618 2.01174,0.8657 2.17322,0.8331 0.8655,-0.1747 -1.45865,-1.1241 -3.46334,-3.1868 -4.75768,-4.8953 -1.27674,-1.6852 -3.22915,-4.7391 -3.54783,-5.5493 l -0.23661,-0.6015 m 30.12793,-34.5258 c -1.06698,-3.0549 -0.93446,-5.9247 0.34169,-7.3993 1.63723,-1.8918 4.94828,-2.8353 7.7613,-2.2117 3.61853,0.8021 6.18955,3.5988 7.26182,7.8992 0.63429,2.5438 0.5446,5.6774 -0.18071,6.3149 -1.20575,1.0596 -6.11623,4.2881 -6.59288,4.3346 -0.8203,0.08 -3.07023,-1.4907 -5.12595,-3.5784 -0.94956,-0.9644 -1.31981,-1.447 -2.14272,-2.7934 -0.64428,-1.054 -1.11028,-1.9581 -1.32255,-2.5659 z m -14.67386,5.5584 c 2.74634,-4.9232 5.26811,-8.8977 6.7271,-10.6024 0.45857,-0.5358 0.85539,-0.9674 0.88182,-0.9591 0.0264,0.01 0.16928,0.4052 0.31743,0.882 0.37992,1.2224 2.49651,5.0949 3.89768,7.131 1.04856,1.5237 3.88308,5.2534 4.41157,5.8047 l 0.21837,0.2278 -2.81497,1.6252 -2.81497,1.6253 -6.09917,-1.6354 -6.09917,-1.6354 z m 1.80416,19.1206 -2.91352,-5.0464 -2.91352,-5.0464 -0.59753,0.1139 c -1.11571,0.2127 -2.10318,-0.6181 -2.07616,-1.7468 0.0151,-0.6325 0.39457,-1.3653 0.84065,-1.6236 0.71298,-0.4129 1.78904,-0.1988 2.36297,0.4702 0.37258,0.4344 1.28482,0.6183 4.62342,0.9325 2.07438,0.1952 8.6824,0.5816 12.05127,0.7047 1.43412,0.052 1.48068,0.044 2.32566,-0.4444 2.47044,-1.4263 4.73957,-1.5015 5.80293,-0.1924 l 0.34102,0.4199 m 14.03845,-8.1051 -1.20964,-1.8982 -1.20964,-1.8982 0.009,-1.4676 c 0.0101,-1.6727 -0.14984,-2.9713 -0.53059,-4.3065 -0.37543,-1.3166 -2.15087,-4.3853 -3.21417,-5.5555 -2.13836,-2.3532 -4.67964,-4.069 -6.93725,-4.6837 l -0.97839,-0.2664 0.45082,-0.1726 c 1.95993,-0.7503 5.51824,-0.3852 8.0139,0.8223 2.88831,1.3975 4.61906,3.3831 5.41919,6.2172 0.44612,1.5801 0.59442,3.1759 0.52961,5.6986 -0.0928,3.6123 -0.14639,3.2819 0.79888,4.9248 l 0.83215,1.4462 m 30.82342,-17.7959 -0.87666,-1.3419 c -2.61478,-4.0023 -6.96357,-8.5892 -10.26001,-10.8217 -3.33196,-2.2566 -5.54747,-2.816 -10.37265,-2.6194 -5.137,0.2094 -11.15938,1.5011 -16.90775,3.6264 -2.91927,1.0793 -4.87273,1.9289 -8.35971,3.636 -6.09754,2.9852 -9.05162,3.8371 -19.41525,5.5994 -6.34652,1.0791 -8.08163,1.4184 -11.23532,2.1967 -3.98776,0.9842 -7.43175,2.1138 -11.04171,3.6217 -1.74856,0.7304 -1.78112,0.7496 -2.26573,1.3375 -0.27043,0.328 -1.10291,1.7056 -1.84996,3.0613 -1.25338,2.2745 -1.3571,2.5245 -1.34305,3.2374 0.0339,1.7197 1.2576,8.394 2.50837,13.6812 0.29218,1.235 0.5114,2.2402 0.48716,2.2337 -0.0994,-0.027 -2.10428,-2.9523 -4.88167,-7.1235 -3.13267,-4.7049 -3.71319,-5.5244 -3.81901,-5.3908 m -10.73368,18.6695 c 0.0267,0 1.9011,-1.0118 4.16534,-2.2591 3.90019,-2.1484 6.93151,-3.7038 7.11993,-3.6534 0.047,0.013 0.10988,0.7412 0.13965,1.619 0.0607,1.788 0.40344,3.6831 0.91844,5.0776 l 0.34425,0.9322 -1.72807,0.9977 c -6.66921,3.8504 -14.59687,9.6767 -20.27121,14.8979 l -1.93784,1.7831 m -7.34261,12.95 c -0.0767,0.5662 0.13439,2.7355 0.35968,3.6955 0.27133,1.1561 0.80446,2.6946 1.15878,3.3439 l 0.24477,0.4485 m 41.40342,-23.9043 -1.07441,-1.8609 c -2.50059,-4.3312 -3.35036,-7.6962 -2.90296,-11.4956 0.25612,-2.1751 0.36509,-2.2987 0.58403,-0.6622 0.24422,1.8253 1.0282,4.5927 1.86061,6.5679 0.82109,1.9483 2.48957,5.166 3.03188,5.8471 l 0.40264,0.5057 m -37.97529,-73.9038 c 3.1791,-0.6034 5.59818,-2.1531 6.23713,-3.9956 0.81974,-2.3638 -0.0186,-5.703 -1.96522,-7.8274 -2.50396,-2.7326 -6.2115,-3.5608 -10.47183,-2.3393 -2.52012,0.7226 -5.18912,2.3671 -5.3785,3.314 -0.3148,1.574 -0.65551,7.4409 -0.45743,7.8769 0.34089,0.7504 2.82608,1.9135 5.66196,2.65 1.30993,0.3402 1.91306,0.4195 3.49045,0.459 1.23501,0.031 2.25098,-0.018 2.88344,-0.1376 z m 2.5232,15.4871 c 2.8905,-4.84 5.07163,-9.0112 5.81844,-11.1271 0.23473,-0.665 0.41007,-1.2244 0.38964,-1.2431 -0.0204,-0.019 -0.43555,0.056 -0.92249,0.166 -1.24863,0.2822 -5.66056,0.3854 -8.12451,0.19 -1.84386,-0.1462 -6.49108,-0.7361 -7.2328,-0.9181 l -0.30647,-0.075 0,3.2504 0,3.2505 4.46588,4.4643 4.46587,4.4643 z m -17.46094,7.9978 5.82704,0 5.82704,0 0.20011,0.5745 c 0.37364,1.0726 1.58692,1.5123 2.55092,0.9245 0.54013,-0.3293 0.98506,-1.0243 0.98575,-1.5398 10e-4,-0.8239 -0.7224,-1.6487 -1.58876,-1.8112 -0.56241,-0.1056 -1.17786,-0.8036 -3.11922,-3.5378 -1.20624,-1.6989 -4.84487,-7.2284 -6.63591,-10.0844 -0.76244,-1.2158 -0.77801,-1.2605 -0.77801,-2.2363 0,-2.8526 -1.06942,-4.8553 -2.73486,-5.1216 l -0.5341,-0.085 m 0,-16.2102 2.24869,0.098 2.24869,0.099 1.26651,-0.7415 c 1.44356,-0.8451 2.64815,-1.3558 3.99486,-1.6937 1.32792,-0.3332 4.87327,-0.33 6.41828,0.01 3.10717,0.6752 5.86369,2.0182 7.52485,3.666 l 0.71989,0.7141 -0.0759,-0.4767 c -0.33013,-2.0726 -2.42548,-4.9716 -4.71905,-6.5291 -2.65444,-1.8026 -5.23939,-2.3087 -8.09382,-1.5846 -1.59148,0.4037 -3.04763,1.0732 -5.19998,2.3907 -3.08198,1.8865 -2.76904,1.7677 -4.66445,1.7705 l -1.66853,0 m 0,-35.5919 1.60043,0.088 c 4.77354,0.2633 10.92032,1.736 14.50193,3.4746 3.6202,1.7572 5.21247,3.3962 7.45473,7.6733 2.38717,4.5534 4.27975,10.4148 5.31339,16.4557 0.52493,3.0678 0.76583,5.1844 1.03092,9.0577 0.46355,6.7732 1.20278,9.7575 4.85846,19.6138 2.23867,6.0358 2.81243,7.7081 3.71524,10.8284 1.14157,3.9456 1.88526,7.493 2.38434,11.3733 0.24174,1.8795 0.24137,1.9173 -0.0254,2.6309 -0.14886,0.3982 -0.92564,1.808 -1.72617,3.1328 -1.3431,2.2227 -1.50776,2.4375 -2.13213,2.7818 -1.50626,0.8305 -7.89824,3.1079 -13.10245,4.6683 -1.21568,0.3645 -2.1958,0.6772 -2.17806,0.6949 0.0728,0.073 3.60887,0.3463 8.60999,0.6659 5.64088,0.3606 6.6408,0.4536 6.57804,0.612 m -10.80141,18.6304 c -0.0175,-0.021 -0.0743,-2.1523 -0.12624,-4.7368 -0.0895,-4.4519 -0.25812,-7.8548 -0.39605,-7.9928 -0.0344,-0.034 -0.69677,0.2754 -1.47186,0.6886 -1.57878,0.8414 -3.3914,1.4921 -4.85659,1.7434 l -0.97939,0.1679 0,1.9954 c 0,7.701 -1.08188,17.4797 -2.7664,25.0044 l -0.57527,2.5697 m -7.54371,12.8339 c -0.452,0.3496 -2.4362,1.2514 -3.38022,1.5363 -1.13694,0.3431 -2.73586,0.6506 -3.47533,0.6684 l -0.51078,0.012 m 0,-47.8086 2.14883,0 c 5.00118,0 8.34028,-0.9466 11.40695,-3.2337 1.75562,-1.3094 1.80813,-1.4655 0.28147,-0.8369 -1.70287,0.7011 -4.49154,1.4059 -6.61829,1.6726 -2.09782,0.2631 -5.71872,0.427 -6.57971,0.2979 l -0.63925,-0.096 m -14.83626,-43.3544 c -3.17909,-0.6034 -5.59818,-2.1531 -6.23712,-3.9956 -0.81974,-2.3638 0.0186,-5.703 1.96521,-7.8274 2.50397,-2.7326 6.2115,-3.5608 10.47183,-2.3393 2.52013,0.7226 5.18913,2.3671 5.3785,3.314 0.3148,1.574 0.65551,7.4409 0.45744,7.8769 -0.34089,0.7504 -2.82608,1.9135 -5.66196,2.65 -1.30993,0.3402 -1.91306,0.4195 -3.49046,0.459 -1.23501,0.031 -2.25097,-0.018 -2.88344,-0.1376 z m -2.5232,15.4871 c -2.89049,-4.84 -5.07163,-9.0112 -5.81844,-11.1271 -0.23473,-0.665 -0.41006,-1.2244 -0.38963,-1.2431 0.0204,-0.019 0.43554,0.056 0.92248,0.166 1.24863,0.2822 5.66056,0.3854 8.12451,0.19 1.84387,-0.1462 6.49109,-0.7361 7.23281,-0.9181 l 0.30646,-0.075 0,3.2504 0,3.2505 -4.46587,4.4643 -4.46588,4.4643 z m 17.46094,7.9978 -5.82704,0 -5.82704,0 -0.2001,0.5745 c -0.37365,1.0726 -1.58692,1.5123 -2.55093,0.9245 -0.54013,-0.3293 -0.98505,-1.0243 -0.98574,-1.5398 -0.001,-0.8239 0.72239,-1.6487 1.58875,-1.8112 0.56241,-0.1056 1.17786,-0.8036 3.11922,-3.5378 1.20624,-1.6989 4.84487,-7.2284 6.63591,-10.0844 0.76244,-1.2158 0.77801,-1.2605 0.77801,-2.2363 0,-2.8526 1.06943,-4.8553 2.73486,-5.1216 l 0.5341,-0.085 m 0,-16.2102 -2.24869,0.098 -2.24869,0.099 -1.2665,-0.7415 c -1.44356,-0.8451 -2.64815,-1.3558 -3.99486,-1.6937 -1.32792,-0.3332 -4.87327,-0.33 -6.41829,0.01 -3.10717,0.6752 -5.86369,2.0182 -7.52484,3.666 l -0.7199,0.7141 0.0759,-0.4767 c 0.33014,-2.0726 2.42548,-4.9716 4.71906,-6.5291 2.65443,-1.8026 5.23939,-2.3087 8.09382,-1.5846 1.59147,0.4037 3.04762,1.0732 5.19997,2.3907 3.08198,1.8865 2.76905,1.7677 4.66445,1.7705 l 1.66853,0 m 0,-35.5919 -1.60043,0.088 c -4.77353,0.2633 -10.92031,1.736 -14.50192,3.4746 -3.62021,1.7572 -5.21248,3.3962 -7.45474,7.6733 -2.38716,4.5534 -4.27974,10.4148 -5.31338,16.4557 -0.52493,3.0678 -0.76583,5.1844 -1.03092,9.0577 -0.46356,6.7732 -1.20278,9.7575 -4.85846,19.6138 -2.23868,6.0358 -2.81244,7.7081 -3.71524,10.8284 -1.14157,3.9456 -1.88527,7.493 -2.38435,11.3733 -0.24174,1.8795 -0.24137,1.9173 0.0254,2.6309 0.14887,0.3982 0.92565,1.808 1.72618,3.1328 1.34309,2.2227 1.50776,2.4375 2.13212,2.7818 1.50626,0.8305 7.89824,3.1079 13.10246,4.6683 1.21567,0.3645 2.1958,0.6772 2.17805,0.6949 -0.0728,0.073 -3.60886,0.3463 -8.60999,0.6659 -5.64088,0.3606 -6.6408,0.4536 -6.57804,0.612 m 10.80141,18.6304 c 0.0175,-0.021 0.0743,-2.1523 0.12625,-4.7368 0.0895,-4.4519 0.25812,-7.8548 0.39604,-7.9928 0.0344,-0.034 0.69678,0.2754 1.47187,0.6886 1.57878,0.8414 3.39139,1.4921 4.85658,1.7434 l 0.9794,0.1679 0,1.9954 c 0,7.701 1.08188,17.4797 2.76639,25.0044 l 0.57528,2.5697 m 7.54371,12.8339 c 0.45199,0.3496 2.4362,1.2514 3.38021,1.5363 1.13695,0.3431 2.73586,0.6506 3.47534,0.6684 l 0.51077,0.012 m 0,-47.8086 -2.14883,0 c -5.00118,0 -8.34028,-0.9466 -11.40695,-3.2337 -1.75561,-1.3094 -1.80813,-1.4655 -0.28147,-0.8369 1.70287,0.7011 4.49154,1.4059 6.61829,1.6726 2.09783,0.2631 5.71872,0.427 6.57972,0.2979 l 0.63924,-0.096"
     inkscape:connector-curvature="0" />
</svg>
