<?xml version="1.0" encoding="UTF-8" standalone="no"?>
<!-- Created with Inkscape (http://www.inkscape.org/) -->

<svg
   xmlns:dc="http://purl.org/dc/elements/1.1/"
   xmlns:cc="http://creativecommons.org/ns#"
   xmlns:rdf="http://www.w3.org/1999/02/22-rdf-syntax-ns#"
   xmlns:svg="http://www.w3.org/2000/svg"
   xmlns="http://www.w3.org/2000/svg"
   xmlns:sodipodi="http://sodipodi.sourceforge.net/DTD/sodipodi-0.dtd"
   xmlns:inkscape="http://www.inkscape.org/namespaces/inkscape"
   id="svg5238"
   version="1.1"
   inkscape:version="0.91 r"
   width="489"
   height="1320"
   viewBox="0 0 489 1320"
   sodipodi:docname="snowflake-BB-8-000.svg">
  <metadata
     id="metadata5244">
    <rdf:RDF>
      <cc:Work
         rdf:about="">
        <dc:format>image/svg+xml</dc:format>
        <dc:type
           rdf:resource="http://purl.org/dc/dcmitype/StillImage" />
        <dc:title />
      </cc:Work>
    </rdf:RDF>
  </metadata>
  <defs
     id="defs5242" />
  <sodipodi:namedview
     pagecolor="#ffffff"
     bordercolor="#666666"
     borderopacity="1"
     objecttolerance="10"
     gridtolerance="10"
     guidetolerance="10"
     inkscape:pageopacity="0"
     inkscape:pageshadow="2"
     inkscape:window-width="1600"
     inkscape:window-height="843"
     id="namedview5240"
     showgrid="false"
     inkscape:zoom="1.5406387"
     inkscape:cx="423.59252"
     inkscape:cy="1095.1711"
     inkscape:window-x="0"
     inkscape:window-y="0"
     inkscape:window-maximized="1"
     inkscape:current-layer="svg5238"
     showguides="true"
     inkscape:guide-bbox="true"
     inkscape:snap-center="true">
    <sodipodi:guide
       position="416.35633,69.734558"
       orientation="0,1"
       id="guide4133" />
  </sodipodi:namedview>
  <path
     style="fill:none;stroke:#00ff00;stroke-width:0.70866144;stroke-miterlimit:4;stroke-dasharray:none;stroke-opacity:1"
     d="m 224.44933,205.37645 c 5.98248,-6.02921 -4.07387,-7.87553 -4.85406,-2.8024 m -4.10822,-2.3719 c 3.59514,-4.91196 -6.65779,-5.96576 -9.47842,-9.09018 -1.13037,-1.2808 -1.47988,1.89998 -2.2135,2.33978 m -4.27199,-2.4664 c 4.18121,-3.52948 -3.20402,-10.37264 -4.96711,-2.8678 m -3.28302,-1.8954 c 5.09496,-3.73984 14.26937,-16.24509 2.24134,-7.24758 -1.92599,1.63295 -3.48385,3.63477 -4.86096,5.73518 m -3.13694,-1.8112 c 1.15281,-7.98305 18.6979,-9.74372 14.32329,-16.04862 -7.47912,2.2796 -13.69219,7.46076 -17.80825,14.03662 m -14.55293,-8.4022 c 4.54282,-5.28207 5.57335,-23.66187 1.50505,-7.89558 -0.88658,2.38543 -2.06778,4.64082 -3.25082,6.88788 m -8.15789,-4.7101 c 1.74962,-4.13065 -3.84313,-7.33224 -6.57897,-3.7984 m -2.51976,-1.4547 c 5.03045,-9.1444 -9.02204,-17.3238 -14.58083,-8.4183 m -2.95505,-1.9028 c 4.01589,-5.61772 3.921,-21.93745 -4.28565,-10.5675 0.0805,2.53184 -0.60698,5.0386 -1.78129,7.2615 m -5.97196,-3.4479 c 10.49707,-18.37418 36.28524,-23.23124 53.50535,-11.4853 2.85868,7.93097 -3.63813,23.72399 8.32239,12.1354 7.89393,-4.37502 16.79847,-6.81153 25.79374,-7.3476 m 18.19612,31.5194 c -8.57976,-6.2678 -11.09196,1.83084 -1.39595,3.87697 2.1773,1.11314 3.85774,2.95549 5.85346,4.28503 m 7.85431,13.6409 c -0.62255,4.89917 -2.32449,24.5266 3.49542,11.9508 l 0.4297,-3.3557 0.18835,-1.8762 m -10.61565,11.0487 c 6.08589,-5.88474 0.62245,-22.55712 -0.55403,-7.4424 -0.38045,2.08749 -1.23252,4.03793 -2.18577,5.9165 m -84.52114,-63.9402 c 4.59568,-7.35195 -5.69598,-16.1976 -5.75384,-6.48802 -0.41152,5.88116 -0.64381,12.76118 5.75384,6.48802 z m 25.81829,-7.0981 c -1.24144,-9.12749 -13.83477,3.99588 0,0 z m -1.00218,15.0867 c 4.44802,-12.30146 -9.17151,-10.80808 -6.75409,0.5845 2.03273,-0.3437 7.4803,4.56794 6.75409,-0.5845 z m -2.09851,8.8334 c -2.90979,-7.25458 -12.20656,1.31162 -0.52055,1.4467 l 0.52055,-1.4467 0,0 z m 39.52604,-14.0959 c -3.67646,1.43403 -18.58847,-1.85945 -18.3276,2.04126 4.26212,2.76189 17.88836,2.9024 18.3276,-2.04126 z m 4.92423,7.7177 c -8.04771,-0.84626 -23.18378,2.75791 -32.51417,-0.9834 3.04199,7.95294 25.33523,7.21567 32.51417,0.9834 l 0,0 z m -1.55854,29.7525 c 0.0121,-4.57018 -3.80375,4.91588 -5.95584,-0.4022 -2.38304,5.92914 7.93223,3.3983 5.95584,0.4022 z m 12.96188,1.5748 c -9.31261,-12.85928 -13.67094,6.51375 -1.7607,2.1785 0.41031,-0.69342 3.66673,-1.21831 1.7607,-2.1785 z m 2.82571,10.4056 c -5.63697,0.41173 1.11541,-9.52583 -4.83494,-3.3712 1.25315,4.6527 0.43278,6.27843 4.83494,3.3712 z m 6.00883,-9.7107 c -1.60377,-7.4838 -22.41525,-18.51905 -22.76198,-9.831 10.26872,-5.0485 19.58207,15.19877 22.76198,9.831 z m -6.22403,19.5454 c 5.98248,-6.02921 -4.07387,-7.87553 -4.85406,-2.8024 m -4.10822,-2.3719 c 3.59514,-4.91196 -6.65779,-5.96576 -9.47842,-9.09018 -1.13037,-1.2808 -1.47988,1.89998 -2.2135,2.33978 m -4.27199,-2.4664 c 4.18121,-3.52948 -3.20402,-10.37264 -4.96711,-2.8678 m -3.28302,-1.8954 c 5.09496,-3.73984 14.26937,-16.24509 2.24134,-7.24758 -1.92599,1.63295 -3.48385,3.63477 -4.86096,5.73518 m -3.13694,-1.8112 c 1.15281,-7.98305 18.6979,-9.74372 14.32329,-16.04862 -7.47912,2.2796 -13.69219,7.46076 -17.80825,14.03662 m -14.55293,-8.4022 c 4.54282,-5.28207 5.57335,-23.66187 1.50505,-7.89558 -0.88658,2.38543 -2.06778,4.64082 -3.25082,6.88788 m -8.15789,-4.7101 c 1.74962,-4.13065 -3.84313,-7.33224 -6.57897,-3.7984 m -2.51976,-1.4547 c 5.03045,-9.1444 -9.02204,-17.3238 -14.58083,-8.4183 m -2.95505,-1.9028 c 4.01589,-5.61772 3.921,-21.93745 -4.28565,-10.5675 0.0805,2.53184 -0.60698,5.0386 -1.78129,7.2615 m -5.97196,-3.4479 c 10.49707,-18.37418 36.28524,-23.23124 53.50535,-11.4853 2.85868,7.93097 -3.63813,23.72399 8.32239,12.1354 7.89393,-4.37502 16.79847,-6.81153 25.79374,-7.3476 m 18.19612,31.5194 c -8.57976,-6.2678 -11.09196,1.83084 -1.39595,3.87697 2.1773,1.11314 3.85774,2.95549 5.85346,4.28503 m 7.85431,13.6409 c -0.62255,4.89917 -2.32449,24.5266 3.49542,11.9508 l 0.4297,-3.3557 0.18835,-1.8762 m -10.61565,11.0487 c 6.08589,-5.88474 0.62245,-22.55712 -0.55403,-7.4424 -0.38045,2.08749 -1.23252,4.03793 -2.18577,5.9165 m -3.2804,-2.0322 c -2.23015,8.19557 -8.85746,0.40987 -4.85406,-2.8025 m -4.10823,-2.3719 c -2.45622,5.56965 -8.49531,-2.78289 -12.61149,-3.66338 -1.67444,-0.33854 0.90551,-2.23168 0.91958,-3.08692 m -4.272,-2.4664 c -0.96613,5.38571 -10.58493,2.41148 -4.9671,-2.8678 m -3.28302,-1.8954 c -0.69129,6.2823 -6.93399,20.48011 -5.15591,5.5648 0.45121,-2.4844 1.40578,-4.83451 2.53627,-7.0773 m -3.13694,-1.8111 c -6.33727,4.98983 0.91073,21.06483 -6.73699,20.42863 -1.76522,-7.61693 -0.38485,-15.58816 3.25196,-22.44073 m -14.55294,-8.4021 c -2.30301,6.57516 -17.70508,16.65759 -6.08526,5.25122 1.62258,-1.9605 2.98514,-4.11119 4.33971,-6.25922 m -8.15802,-4.7099 c -2.70247,3.5805 -8.27147,0.33784 -6.57898,-3.7984 m -2.51978,-1.4548 c -5.40401,8.92875 -19.51383,0.84863 -14.58081,-8.4182 m -3.1254,-1.6078 c -2.8571,6.28682 -17.03799,14.36446 -11.29452,1.5723 2.23287,-1.1962 4.06005,-3.04495 5.39794,-5.1734 m -5.97198,-3.4479 c -10.66384,18.27792 -1.97619,43.03948 16.80613,52.0797 8.29773,-1.48981 18.72655,-15.01275 14.67083,1.13969 0.15838,9.02368 2.49985,17.95386 6.53396,26.01161 m 62.72083,-1.3244 c 4.17561,-2.9687 18.61893,-12.60393 10.80941,-1.8634 -11.00504,9.43788 10.3545,-7.98323 -0.82454,-4.7248 0.24713,1.69025 -15.6807,9.81175 -9.98487,6.5882 z m 10.84812,-13.43 c -2.05331,8.21286 -19.2238,11.81768 -6.72234,3.2414 1.61762,-1.37321 2.88069,-3.08637 4.03096,-4.8512 m -97.63436,-41.228 c -4.06926,7.65594 -16.8756,3.16587 -8.49576,-1.73901 4.51667,-3.85096 10.9457,-5.98452 8.49576,1.73901 z m 6.7617,25.9082 c -8.52556,3.48826 -3.4563,-13.97865 0,0 z m 12.56444,-8.4113 c -8.42939,10.00294 -13.94591,-2.53867 -2.8709,-6.1414 0.71881,1.93205 7.69605,4.19423 2.8709,6.1414 z m 6.60066,-6.234 c -7.73785,1.10736 -4.96713,-11.22711 0.99265,-1.1742 l -0.99265,1.1742 0,0 z m 7.55562,41.2785 c -0.59637,-3.90113 -10.90466,-15.16843 -7.39604,-16.89282 4.52303,2.31007 11.45775,14.04094 7.39604,16.89282 z m 9.14589,0.4056 c -4.75694,-6.54621 -9.20329,-21.45673 -17.10882,-27.6663 8.40847,-1.34255 18.91642,18.33338 17.10882,27.6661 l 0,2e-4 z m 24.98711,-16.226 c -3.95193,2.29559 2.3555,-5.75211 -3.32626,-4.9567 3.94295,-5.02825 6.90947,5.16979 3.32626,4.9567 z m 7.84475,10.438 c -15.79277,-1.63531 -1.19444,-15.09644 1.00625,-2.6141 -0.39536,0.70212 0.77845,3.7845 -1.00625,2.6141 z m 10.42439,-2.7557 c -2.46281,-5.08689 -7.69205,5.72873 -5.33749,-2.5013 4.65619,-1.24082 5.65285,-2.76493 5.33749,2.5013 z m -5.40528,10.0591 c -7.28302,2.35311 -27.24597,-10.15257 -19.89454,-14.7971 0.76414,11.4165 22.95255,9.36002 19.89454,14.7971 z m 13.8148,-15.1628 c -2.23019,8.19543 -8.85745,0.40977 -4.85406,-2.8025 m -4.10823,-2.3719 c -2.4563,5.56948 -8.49533,-2.78301 -12.61149,-3.66348 -1.67446,-0.33852 0.90545,-2.23161 0.91958,-3.08682 m -4.272,-2.4665 c -0.96596,5.38581 -10.58496,2.41155 -4.9671,-2.8677 m -3.28302,-1.8955 c -0.69127,6.28235 -6.93403,20.48018 -5.15589,5.56481 0.45118,-2.48438 1.4058,-4.83444 2.53627,-7.07721 m -3.13694,-1.8111 c -6.33727,4.98986 0.91066,21.06475 -6.73697,20.42862 -1.76524,-7.61691 -0.38498,-15.58819 3.25194,-22.44072 m -14.55295,-8.4022 c -2.30292,6.5752 -17.70507,16.65767 -6.08525,5.25124 1.62257,-1.96051 2.98513,-4.11121 4.3397,-6.25924 m -8.15801,-4.7099 c -2.70252,3.58059 -8.27148,0.33788 -6.57899,-3.7984 m -2.51977,-1.4548 c -5.40396,8.9288 -19.51386,0.8486 -14.58081,-8.4182 m -3.12541,-1.6077 c -2.85718,6.28678 -17.03797,14.36433 -11.29451,1.5722 2.23298,-1.19605 4.05992,-3.04497 5.39793,-5.1733 m -5.97198,-3.448 c -10.66378,18.27791 -1.97625,43.03954 16.80613,52.0797 8.29774,-1.48982 18.72655,-15.01271 14.67083,1.13969 0.15834,9.02373 2.49989,17.95391 6.53397,26.01171 m 36.39458,0 c -9.71768,-4.29644 -3.96029,-10.52143 2.65962,-3.14741 19.13072,9.91818 -18.59643,-12.41625 -5.46093,1.15096 0.89494,0.7204 1.85522,1.34839 2.80131,1.99645 z m 37.17413,-14.7532 c -2.05331,8.21286 -19.2238,11.81768 -6.72234,3.2414 1.61762,-1.37321 2.88069,-3.08637 4.03096,-4.8512 m -3.33972,34.6667 c -2.22957,-8.19584 -8.85733,-0.40994 -4.85383,2.8023 m -4.10822,2.3719 c -2.45631,-5.56948 -8.49532,2.78301 -12.61149,3.66348 -1.67446,0.33853 0.90551,2.23166 0.91957,3.08692 m -4.27199,2.4664 c -0.96596,-5.38582 -10.58496,-2.41154 -4.9671,2.8677 m -3.28302,1.8955 c -0.69129,-6.28235 -6.93404,-20.48019 -5.15591,-5.56481 0.45118,2.48438 1.40579,4.83444 2.53626,7.07721 m -3.13692,1.8111 c -6.33728,-4.98985 0.91063,-21.06475 -6.73697,-20.42862 -1.76524,7.61689 -0.38494,15.5882 3.25193,22.44072 m -14.55294,8.4022 c -2.30293,-6.5752 -17.70507,-16.65767 -6.08526,-5.25124 1.62257,1.96052 2.98513,4.11121 4.3397,6.25924 m -8.15801,4.7099 c -2.70252,-3.58059 -8.27146,-0.33789 -6.57899,3.7984 m -2.51976,1.4548 c -5.40397,-8.9288 -19.51387,-0.84861 -14.58082,8.4182 m -3.12541,1.6077 c -2.85716,-6.28682 -17.03798,-14.36432 -11.2945,-1.5722 2.23299,1.19605 4.0599,3.04498 5.39793,5.1733 m -5.97198,3.448 c -10.66378,-18.27789 -1.97628,-43.03958 16.80612,-52.0797 8.29774,1.48979 18.72655,15.01273 14.67084,-1.13969 0.15836,-9.02373 2.49988,-17.95391 6.53397,-26.01171 m 62.72035,1.3247 c 4.17554,2.96883 18.61896,12.6039 10.8094,1.8634 -11.00508,-9.43754 10.3546,7.98293 -0.82453,4.7249 0.24735,-1.69021 -15.6809,-9.81187 -9.98487,-6.5883 z m 10.84812,13.43 c -2.05336,-8.21294 -19.2238,-11.81751 -6.72234,-3.2414 1.61758,1.37325 2.8807,3.08636 4.03096,4.8512 m -97.63435,41.2281 c -4.06909,-7.65602 -16.87564,-3.16596 -8.49577,1.73893 4.88752,3.29672 10.72941,6.9386 8.49577,-1.73893 z m 6.7617,-25.9083 c -8.52547,-3.48823 -3.45639,13.97866 0,0 z m 12.56443,8.4113 c -8.42949,-10.0029 -13.94578,2.53863 -2.8709,6.1415 0.7187,-1.93214 7.6961,-4.19432 2.8709,-6.1415 z m 6.60067,6.2341 c -7.7377,-1.10772 -4.96725,11.22715 0.99265,1.1741 l -0.99265,-1.1741 z m 7.55562,-41.2786 c -0.59634,3.90113 -10.90466,15.16837 -7.39605,16.89286 4.52304,-2.31012 11.45775,-14.04092 7.39605,-16.89286 z m 9.14589,-0.4056 c -4.75684,6.5463 -9.20344,21.45673 -17.10883,27.6664 8.40862,1.34225 18.91638,-18.33335 17.10883,-27.6661 l 0,-3e-4 z m 24.9871,16.226 c -3.95185,-2.29555 2.35541,5.75217 -3.32626,4.9568 3.94295,5.02818 6.90948,-5.17 3.32626,-4.9568 z m 7.84475,-10.4379 c -15.79276,1.63527 -1.19446,15.09627 1.00626,2.6141 -0.39536,-0.70213 0.77846,-3.7845 -1.00626,-2.6141 z m 10.4244,2.7556 c -2.4631,5.08703 -7.69193,-5.72884 -5.33751,2.5013 4.65622,1.24082 5.65282,2.76494 5.33751,-2.5013 z m -5.40529,-10.0591 c -7.28298,-2.35288 -27.24596,10.15243 -19.89454,14.7972 0.76408,-11.41672 22.95269,-9.35993 19.89454,-14.7972 z m 13.8148,15.1629 c -2.22957,-8.19584 -8.85733,-0.40994 -4.85383,2.8023 m -4.10822,2.3719 c -2.45631,-5.56948 -8.49532,2.78301 -12.61149,3.66348 -1.67446,0.33853 0.90551,2.23166 0.91957,3.08692 m -4.27199,2.4664 c -0.96596,-5.38582 -10.58496,-2.41154 -4.9671,2.8677 m -3.28302,1.8955 c -0.69129,-6.28235 -6.93404,-20.48019 -5.15591,-5.56481 0.45118,2.48438 1.40579,4.83444 2.53626,7.07721 m -3.13692,1.8111 c -6.33728,-4.98985 0.91063,-21.06475 -6.73697,-20.42862 -1.76524,7.61689 -0.38494,15.5882 3.25193,22.44072 m -14.55294,8.4022 c -2.30293,-6.5752 -17.70507,-16.65767 -6.08526,-5.25124 1.62257,1.96052 2.98513,4.11121 4.3397,6.25924 m -8.15801,4.7099 c -2.70252,-3.58059 -8.27146,-0.33789 -6.57899,3.7984 m -2.51976,1.4548 c -5.40397,-8.9288 -19.51387,-0.84861 -14.58082,8.4182 m -3.12541,1.6077 c -2.85716,-6.28682 -17.03798,-14.36432 -11.2945,-1.5722 2.23299,1.19605 4.0599,3.04498 5.39793,5.1733 m -5.97198,3.448 c -10.66378,-18.27789 -1.97628,-43.03958 16.80612,-52.0797 8.29774,1.48979 18.72655,15.01273 14.67084,-1.13969 0.15836,-9.02373 2.49988,-17.95391 6.53397,-26.01171 m 36.39458,0 c -9.71766,4.2965 -3.96032,10.52145 2.65962,3.14746 19.13075,-9.91826 -18.5965,12.41631 -5.46093,-1.15099 0.89493,-0.72042 1.85522,-1.34841 2.80131,-1.99647 z m 37.17389,14.7533 c -2.05336,-8.21294 -19.2238,-11.81751 -6.72234,-3.2414 1.61758,1.37325 2.8807,3.08636 4.03096,4.8512 m -3.4001,1.8249 c 5.98304,6.0288 -4.07383,7.87547 -4.85383,2.8023 m -4.10822,2.3719 c 3.59517,4.91195 -6.65783,5.96561 -9.47838,9.09014 -1.13043,1.28093 -1.4799,-1.90003 -2.21354,-2.33984 m -4.27199,2.4665 c 4.18127,3.5295 -3.20409,10.37265 -4.9671,2.8677 m -3.28302,1.8955 c 5.09506,3.73986 14.26933,16.24501 2.24134,7.24752 -1.92596,-1.63295 -3.48389,-3.6347 -4.86096,-5.73512 m -3.13693,1.8111 c 1.15267,7.98319 18.6979,9.74377 14.32327,16.04872 -7.47905,-2.27972 -13.69222,-7.46072 -17.80825,-14.03662 m -14.55294,8.4022 c 4.54278,5.28197 5.57338,23.66178 1.50505,7.89557 -0.88658,-2.38546 -2.06784,-4.64085 -3.25082,-6.88797 m -8.15787,4.7102 c 1.7496,4.13075 -3.84312,7.33208 -6.57898,3.7983 m -2.51976,1.4548 c 5.0304,9.14438 -9.02193,17.32366 -14.58082,8.4183 m -2.95506,1.9028 c 4.01601,5.61775 3.92086,21.9375 -4.28564,10.5674 0.0805,-2.53182 -0.60701,-5.03853 -1.7813,-7.2614 m -5.97196,3.4479 c 10.49711,18.37417 36.28521,23.23117 53.50536,11.4853 2.85866,-7.93097 -3.63813,-23.72401 8.32239,-12.1354 7.89398,4.37489 16.79849,6.81143 25.79374,7.3476 m 18.19611,-31.5193 c -8.57981,6.26765 -11.09192,-1.83088 -1.39596,-3.87702 2.17721,-1.11324 3.85779,-2.95538 5.85346,-4.28498 m 7.85432,-13.641 c -0.62261,-4.89913 -2.32447,-24.52652 3.4954,-11.9507 l 0.42969,3.3556 0.18836,1.8762 m -10.61563,-11.0486 c 6.08586,5.88475 0.62245,22.55706 -0.55403,7.4424 -0.38041,-2.0875 -1.23249,-4.03794 -2.18577,-5.9165 m -84.5217,63.9398 c 4.59574,7.35196 -5.69607,16.19768 -5.75384,6.48806 -0.41144,-5.88114 -0.64401,-12.76124 5.75384,-6.48806 z m 25.81804,7.0983 c -1.24119,9.12728 -13.83498,-3.99593 0,0 z m -1.00217,-15.0868 c 4.44804,12.30151 -9.17141,10.80822 -6.7541,-0.5844 2.0326,0.34351 7.48037,-4.56788 6.7541,0.5844 z m -2.09851,-8.8333 c -2.9098,7.25444 -12.20652,-1.31156 -0.52055,-1.4468 l 0.52055,1.4468 z m 39.52605,14.0959 c -3.67672,-1.43414 -18.58846,1.85945 -18.32761,-2.04127 4.26204,-2.76201 17.88839,-2.90232 18.32761,2.04127 z m 4.92422,-7.7178 c -8.04753,0.84643 -23.18383,-2.75791 -32.51418,0.9835 3.04199,-7.95311 25.33506,-7.21553 32.51418,-0.9835 l 0,0 z m -1.55854,-29.7524 c 0.012,4.57012 -3.80391,-4.916 -5.95582,0.4022 -2.3831,-5.92894 7.93213,-3.39861 5.95582,-0.4022 z m 12.96188,-1.5748 c -9.31259,12.8593 -13.67097,-6.51379 -1.7607,-2.1785 0.4104,0.69346 3.66676,1.21813 1.7607,2.1785 z m 2.82573,-10.4057 c -5.63699,-0.40925 1.11539,9.52586 -4.83494,3.3722 1.25353,-4.6538 0.4323,-6.277 4.83494,-3.3722 z m 6.0088,9.7107 c -1.60373,7.4838 -22.41535,18.51927 -22.76197,9.831 10.26859,5.04848 19.58206,-15.19875 22.76197,-9.831 z m -6.22402,-19.5454 c 5.98299,6.0289 -4.07368,7.87554 -4.85382,2.8024 m -4.10823,2.3719 c 3.59517,4.91195 -6.65782,5.96563 -9.47842,9.09008 -1.13037,1.28081 -1.47991,-1.89999 -2.21349,-2.33978 m -4.272,2.4664 c 4.18125,3.52949 -3.20403,10.37263 -4.9671,2.8678 m -3.28302,1.8955 c 5.09501,3.73982 14.26933,16.24496 2.24134,7.24749 -1.92597,-1.63293 -3.48387,-3.63469 -4.86096,-5.73509 m -3.13693,1.8111 c 1.15277,7.98316 18.69798,9.74368 14.32328,16.04872 -7.47907,-2.27975 -13.69221,-7.46071 -17.80825,-14.03662 m -14.55293,8.4021 c 4.54282,5.28202 5.57335,23.66192 1.50505,7.8956 -0.88656,-2.38545 -2.06786,-4.64079 -3.25082,-6.8879 m -8.15787,4.7101 c 1.74964,4.13071 -3.84313,7.33221 -6.57898,3.7984 m -2.51976,1.4548 c 5.03044,9.14437 -9.02211,17.32374 -14.58082,8.4182 m -2.95506,1.9028 c 4.01589,5.6178 3.921,21.93754 -4.28564,10.5675 0.0806,-2.53182 -0.60701,-5.03853 -1.7813,-7.2614 m -5.97196,3.4479 c 10.49722,18.37404 36.28518,23.23123 53.50536,11.4853 2.85871,-7.93107 -3.6382,-23.724 8.32239,-12.13546 7.89396,4.37495 16.79846,6.81149 25.79373,7.34766 m 18.19612,-31.5193 c -8.57984,6.26766 -11.09193,-1.83091 -1.39597,-3.87706 2.17724,-1.11317 3.85773,-2.95544 5.85346,-4.28494 m 7.85433,-13.641 c -0.62268,-4.89922 -2.32438,-24.52664 3.49539,-11.9507 l 0.4297,3.3556 0.18835,1.8762 m -10.61563,-11.0486 c 6.08595,5.88482 0.6224,22.55702 -0.55404,7.4423 -0.38048,-2.08748 -1.23247,-4.03795 -2.18577,-5.9165 m 28.35351,20.227 c -8.2131,-2.1707 -4.78322,7.46595 0,5.6035 m 0,4.7437 c -6.05148,-0.65724 -1.83743,8.74852 -3.13308,12.75368 -0.54403,1.61933 2.38541,0.33159 3.13309,0.74702 m 0,4.9329 c -5.14707,-1.85793 -7.38098,7.96105 0,5.735 m 0,3.7909 c -5.78618,-2.54344 -21.2034,-4.23518 -7.39722,1.68229 2.37712,0.85188 4.88975,1.19907 7.39722,1.34251 m 0,3.6222 c -7.49003,2.99371 -17.78734,-11.32101 -21.06018,-4.3797 5.71383,5.3372 13.3073,8.12735 21.06018,8.4041 m 0,16.8042 c -6.84566,-1.29217 -23.27849,7.00418 -7.59032,2.64474 2.50915,-0.42491 5.05298,-0.52966 7.59052,-0.62864 m -1.3e-4,9.42 c -4.45215,0.55001 -4.42828,6.99438 0,7.5967 m 0,2.9096 c -10.43474,0.21499 -10.49148,16.47457 0,16.8365 m -0.17035,3.5105 c -6.87313,-0.66866 -20.95892,7.57293 -7.00888,8.9952 2.15238,-1.33543 4.66698,-1.99386 7.17923,-2.0879 m 0,6.8958 c -21.16107,0.0969 -38.26143,-19.80824 -36.69925,-40.5941 5.43913,-6.44107 22.36464,-8.71133 6.34838,-13.27509 -7.73557,-4.64901 -14.29857,-11.14189 -19.25978,-18.66441 m 18.19848,-31.518 c -1.13803,10.56403 7.13172,8.69053 4.05557,-0.72956 -0.12456,-2.44215 0.63056,-4.81862 0.78422,-7.21174 m 7.88627,-13.6225 c 4.55406,-1.91053 22.40287,-10.25014 8.60191,-9.0025 l -3.12092,1.3057 -1.71901,0.775 m 14.87624,3.6691 c -8.13937,-2.32826 -19.84621,10.73956 -6.16827,4.201 1.99804,-0.71432 4.11321,-0.95156 6.21673,-1.0654 m -13.11322,105.1675 c -8.66475,-0.30395 -11.17964,13.03173 -2.7419,8.22703 5.29881,-2.58432 11.37361,-5.82266 2.7419,-8.22703 z m -19.05635,-18.8102 c -7.39002,5.61944 10.47619,9.88365 0,0 z m 13.56661,-6.6755 c -12.87745,2.29875 -4.77438,13.34682 3.88321,5.557 -1.31388,-1.58853 0.21571,-8.76211 -3.88321,-5.557 z m 8.69917,-2.5993 c -4.82793,6.1474 7.2393,9.91529 1.5132,-0.2725 l -1.5132,0.2725 0,0 z m -31.97042,-27.1826 c 3.08023,2.46696 7.68386,17.0278 10.93156,14.85156 0.26082,-5.07208 -6.43079,-16.94299 -10.93156,-14.85156 z m 4.22166,-8.1234 c 3.29081,7.39265 13.98026,18.6988 15.40541,28.6499 5.36646,-6.61109 -6.41859,-25.54851 -15.40541,-28.6499 l 0,0 z m 26.54565,-13.5265 c -3.96387,2.27473 6.15919,0.8363 2.62958,5.3591 6.32602,-0.90065 -1.02245,-8.56864 -2.62958,-5.3591 z m -5.11713,-12.0127 c -6.48022,14.49461 12.4766,8.58257 2.76709,0.4357 -0.80579,-0.009 -2.88819,-2.56632 -2.76709,-0.4357 z m 7.59868,-7.6499 c 3.1739,4.67654 -8.80739,3.79693 -0.50254,5.873 3.40267,-3.41209 5.22086,-3.51297 0.50254,-5.873 z m -11.41411,-0.3485 c -5.67923,5.1308 -4.83062,28.67197 2.86745,24.6278 -9.50516,-6.37019 3.37051,-24.55721 -2.86745,-24.6278 z m 20.03883,-4.3825 c -8.2131,-2.1707 -4.78322,7.46595 0,5.6035 m 0,4.7437 c -6.05148,-0.65724 -1.83743,8.74852 -3.13308,12.75368 -0.54403,1.61933 2.38541,0.33159 3.13309,0.74702 m 0,4.9329 c -5.14707,-1.85793 -7.38098,7.96105 0,5.735 m 0,3.7909 c -5.78618,-2.54344 -21.2034,-4.23518 -7.39722,1.68229 2.37712,0.85188 4.88975,1.19907 7.39722,1.34251 m 0,3.6222 c -7.49003,2.99371 -17.78734,-11.32101 -21.06018,-4.3797 5.71383,5.3372 13.3073,8.12735 21.06018,8.4041 m 0,16.8042 c -6.84566,-1.29217 -23.27849,7.00418 -7.59032,2.64474 2.50915,-0.42491 5.05298,-0.52966 7.59052,-0.62864 m -1.3e-4,9.42 c -4.45215,0.55001 -4.42828,6.99438 0,7.5967 m 0,2.9096 c -10.43474,0.21499 -10.49148,16.47457 0,16.8365 m -0.17035,3.5105 c -6.87313,-0.66866 -20.95892,7.57293 -7.00888,8.9952 2.15238,-1.33543 4.66698,-1.99386 7.17923,-2.0879 m 0,6.8958 c -21.16107,0.0969 -38.26143,-19.80824 -36.69925,-40.5941 5.43913,-6.44107 22.36464,-8.71133 6.34838,-13.27509 -7.73557,-4.64901 -14.29857,-11.14189 -19.25978,-18.66441 m 18.19848,-31.518 c -1.13803,10.56403 7.13172,8.69053 4.05557,-0.72956 -0.12456,-2.44215 0.63056,-4.81862 0.78422,-7.21174 m 7.88627,-13.6225 c 4.55406,-1.91053 22.40287,-10.25014 8.60191,-9.0025 l -3.12092,1.3057 -1.71901,0.775 m 14.87624,3.6691 c -8.13937,-2.32826 -19.84621,10.73956 -6.16827,4.201 1.99804,-0.71432 4.11321,-0.95156 6.21673,-1.0654 m -0.11971,3.857 c 8.21315,-2.17076 4.78322,7.46596 0,5.6035 m 1e-5,4.7437 c 6.05148,-0.65723 1.83743,8.74852 3.13308,12.75368 0.54403,1.61933 -2.38542,0.33159 -3.13309,0.74702 m 1e-5,4.9329 c 5.1471,-1.85766 7.38099,7.96099 0,5.7351 m -1e-5,3.7909 c 5.78617,-2.54343 21.2034,-4.23518 7.39723,1.68229 -2.37712,0.85188 -4.88975,1.19907 -7.39723,1.34251 m 0,3.6222 c 7.49003,2.99371 17.78735,-11.321 21.06019,-4.3797 -5.71383,5.3372 -13.3073,8.12735 -21.06019,8.4041 m 0,16.8043 c 6.84566,-1.29217 23.27849,7.00418 7.59032,2.64474 -2.50915,-0.42491 -5.05298,-0.52966 -7.59052,-0.62864 m 1.4e-4,9.42 c 4.45209,0.55005 4.4283,6.99439 -1e-5,7.5967 m 0,2.9096 c 10.43475,0.21497 10.49149,16.47457 1e-5,16.8365 m 0.17035,3.5105 c 6.87312,-0.66873 20.95892,7.57296 7.00888,8.9952 -2.15238,-1.33543 -4.66698,-1.99386 -7.17923,-2.0879 m -1e-5,6.8959 c 21.16107,0.0969 38.26143,-19.80824 36.69926,-40.5941 -5.43914,-6.44108 -22.36464,-8.71134 -6.34838,-13.27509 7.73556,-4.64902 14.29859,-11.14188 19.25977,-18.66441 m -32.50738,-53.6557 c -4.65884,-2.13172 -20.22475,-9.82242 -7.01845,-8.4295 13.67585,4.81187 -12.09072,-4.97575 -3.6796,3.0765 1.34016,-1.05925 16.33768,8.67411 10.69805,5.353 z m -17.05477,-2.6797 c 8.13936,-2.32823 19.8462,10.7396 6.16826,4.201 -1.99805,-0.7143 -4.11322,-0.95145 -6.21673,-1.0653 m 13.11266,105.1679 c 8.66488,-0.304 11.17952,13.03174 2.7419,8.22699 -5.59326,-1.98614 -10.65576,-6.48684 -2.7419,-8.22699 z m 19.05634,-18.81 c 7.28371,5.63911 -10.3777,9.98284 0,0 z m -13.56661,-6.6754 c 12.87744,2.29863 4.7744,13.34673 -3.8832,5.557 1.31386,-1.58853 -0.21571,-8.76211 3.8832,-5.557 z m -8.69917,-2.5994 c 4.82798,6.14746 -7.23929,9.91535 -1.5132,-0.2725 l 1.5132,0.2725 0,0 z m 31.97043,-27.1826 c -3.08022,2.46695 -7.68384,17.02783 -10.93157,14.85156 -0.26082,-5.07208 6.43073,-16.94297 10.93157,-14.85156 z m -4.22166,-8.1234 c -3.29072,7.39272 -13.9804,18.69877 -15.40532,28.6499 -5.36668,-6.61112 6.41862,-25.54839 15.40531,-28.6499 l 10e-6,0 z m -26.54565,-13.5264 c 3.96384,2.27459 -6.15926,0.83624 -2.62958,5.359 -6.32603,-0.90052 1.02255,-8.56884 2.62958,-5.359 z m 5.11713,-12.0128 c 6.48023,14.49459 -12.47659,8.58265 -2.76709,0.4357 0.8058,-0.009 2.88817,-2.56632 2.76709,-0.4357 z m -7.59869,-7.6499 c -3.17388,4.67652 8.80735,3.797 0.50255,5.873 -3.40252,-3.41205 -5.22102,-3.51288 -0.50255,-5.873 z m 11.4141,-0.3485 c 5.67926,5.13077 4.83062,28.672 -2.86743,24.6278 9.50518,-6.37019 -3.3705,-24.55713 2.86743,-24.6278 z m -20.03882,-4.3825 c 8.21316,-2.17086 4.78318,7.46605 0,5.6033 m 1e-5,4.7438 c 6.05146,-0.6556 1.83744,8.74923 3.13308,12.75458 0.54403,1.61933 -2.38542,0.33159 -3.13309,0.74702 m 1e-5,4.9329 c 5.14744,-1.8547 7.38084,7.9611 0,5.736 m -1e-5,3.7909 c 5.78621,-2.54348 21.20336,-4.23513 7.39723,1.68234 -2.37713,0.85184 -4.88975,1.19914 -7.39723,1.34256 m 0,3.6222 c 7.48998,2.99377 17.78729,-11.3209 21.06019,-4.3797 -5.71384,5.33724 -13.30727,8.12738 -21.06019,8.4041 m 0,16.8043 c 6.84572,-1.29226 23.27848,7.00438 7.59032,2.64475 -2.50915,-0.42493 -5.05298,-0.52967 -7.59052,-0.62865 m 1.4e-4,9.42 c 4.45207,0.55001 4.42833,6.99447 -10e-6,7.5967 m 0,2.9096 c 10.43473,0.21496 10.49151,16.47463 10e-6,16.8365 m 0.17035,3.5105 c 6.87307,-0.66853 20.95894,7.57292 7.00888,8.9952 -2.15238,-1.33543 -4.66698,-1.99386 -7.17923,-2.0879 m -10e-6,6.8958 c 21.16107,0.097 38.26138,-19.80818 36.69926,-40.594 -5.43906,-6.44127 -22.36467,-8.71126 -6.34838,-13.27519 7.73556,-4.64902 14.29859,-11.14188 19.25977,-18.66441 m -18.19789,-31.5183 c 1.13799,10.56403 -7.13172,8.69053 -4.05558,-0.72956 -0.97592,-21.52686 -1.4546,22.31328 3.72726,4.15381 0.17641,-1.13525 0.24013,-2.28088 0.32832,-3.42425 z m -31.36426,-24.8168 c 8.13936,-2.32823 19.8462,10.7396 6.16826,4.201 -1.99805,-0.7143 -4.11322,-0.95145 -6.21673,-1.0653 m 31.69208,-14.441 c -5.98303,6.02878 4.07384,7.87548 4.85383,2.8023 m 4.10822,2.3719 c -3.59515,4.91195 6.65783,5.96561 9.47838,9.09015 1.13042,1.28091 1.47991,-1.90004 2.21354,-2.33985 m 4.27199,2.4665 c -4.18126,3.52951 3.20409,10.37264 4.9671,2.8677 m 3.28303,1.8955 c -5.09508,3.73985 -14.26932,16.24501 -2.24134,7.24753 1.92596,-1.63295 3.48387,-3.63473 4.86096,-5.73513 m 3.13693,1.8111 c -1.15268,7.98318 -18.6979,9.74379 -14.32328,16.04872 7.47906,-2.27972 13.69221,-7.46073 17.80825,-14.03662 m 14.55294,8.4022 c -4.5428,5.28196 -5.57338,23.66178 -1.50506,7.89558 0.88658,-2.38547 2.06784,-4.64085 3.25081,-6.88798 m 8.15788,4.7102 c -1.74952,4.1307 3.84312,7.33225 6.57899,3.7983 m 2.51976,1.4548 c -5.03042,9.14437 9.02198,17.32378 14.58082,8.4183 m 2.95505,1.9028 c -4.01601,5.61774 -3.92086,21.9375 4.28563,10.5674 -0.0805,-2.53181 0.60701,-5.03853 1.7813,-7.2614 m 5.97198,3.4479 c -10.49716,18.37412 -36.2852,23.2312 -53.50536,11.4853 -2.85866,-7.93096 3.63812,-23.72402 -8.3224,-12.1354 -7.89398,4.37489 -16.79849,6.81142 -25.79374,7.3476 m -30.21297,-54.9797 c 0.48329,-5.10053 1.60578,-22.42657 -3.79095,-10.2929 -2.67074,14.2495 1.73623,-12.95894 4.50412,-1.6484 -1.60102,0.82379 -0.67508,17.90302 -0.71317,11.9413 z m 6.20664,-16.1098 c -6.08587,5.88473 -0.62246,22.55712 0.55402,7.4424 0.38047,-2.08748 1.23249,-4.03794 2.18578,-5.9165 m 84.52169,63.9398 c -4.59566,7.35197 5.69593,16.1977 5.75383,6.48812 0.4113,-5.88115 0.64422,-12.76116 -5.75383,-6.48812 z m -25.81805,7.0983 c 1.24148,9.12749 13.83476,-3.99589 0,0 z m 1.00218,-15.0867 c -4.44804,12.30146 9.17151,10.80808 6.75409,-0.5845 -2.03265,0.34366 -7.48036,-4.56779 -6.75409,0.5845 z m 2.09851,-8.8334 c 2.90978,7.25463 12.20657,-1.31166 0.52055,-1.4467 l -0.52055,1.4467 0,0 z m -39.52605,14.0959 c 3.67652,-1.43408 18.58854,1.85956 18.32762,-2.04125 -4.60787,-2.74168 -17.44424,-2.99331 -18.32762,2.04125 z m -4.92422,-7.7177 c 8.04773,0.84622 23.18375,-2.75785 32.51418,0.9834 -3.042,-7.95294 -25.33524,-7.21567 -32.51418,-0.9834 l 0,0 z m 1.55854,-29.7525 c -0.0121,4.57019 3.80374,-4.91589 5.95583,0.4022 2.38305,-5.92913 -7.93219,-3.39831 -5.95583,-0.4022 z m -12.96188,-1.5748 c 9.31261,12.85928 13.67094,-6.51375 1.7607,-2.1785 -0.41031,0.69342 -3.66673,1.21831 -1.7607,2.1785 z m -2.82572,-10.4056 c 5.63696,-0.41172 -1.11539,9.52584 4.83494,3.3712 -1.25313,-4.65272 -0.43279,-6.27842 -4.83494,-3.3712 z m -6.00881,9.7107 c 1.60381,7.4838 22.41518,18.5191 22.76198,9.831 -10.26872,5.0485 -19.58211,-15.19879 -22.76198,-9.831 z m 6.22402,-19.5454 c -5.98303,6.02878 4.07384,7.87548 4.85383,2.8023 m 4.10822,2.3719 c -3.59515,4.91195 6.65783,5.96561 9.47838,9.09015 1.13042,1.28091 1.47991,-1.90004 2.21354,-2.33985 m 4.27199,2.4665 c -4.18126,3.52951 3.20409,10.37264 4.9671,2.8677 m 3.28303,1.8955 c -5.09508,3.73985 -14.26932,16.24501 -2.24134,7.24753 1.92596,-1.63295 3.48387,-3.63473 4.86096,-5.73513 m 3.13693,1.8111 c -1.15268,7.98318 -18.6979,9.74379 -14.32328,16.04872 7.47906,-2.27972 13.69221,-7.46073 17.80825,-14.03662 m 14.55294,8.4022 c -4.5428,5.28196 -5.57338,23.66178 -1.50506,7.89558 0.88658,-2.38547 2.06784,-4.64085 3.25081,-6.88798 m 8.15788,4.7102 c -1.74952,4.1307 3.84312,7.33225 6.57899,3.7983 m 2.51976,1.4548 c -5.03042,9.14437 9.02198,17.32378 14.58082,8.4183 m 2.95505,1.9028 c -4.01601,5.61774 -3.92086,21.9375 4.28563,10.5674 -0.0805,-2.53181 0.60701,-5.03853 1.7813,-7.2614 m 5.97198,3.4479 c -10.49716,18.37412 -36.2852,23.2312 -53.50536,11.4853 -2.85866,-7.93096 3.63812,-23.72402 -8.3224,-12.1354 -7.89398,4.37489 -16.79849,6.81142 -25.79374,7.3476 m -18.19669,-31.519 c 8.57977,6.2678 11.09197,-1.83083 1.39596,-3.87697 -18.15487,-11.60864 20.05113,9.89696 1.73367,5.30476 -1.07143,-0.41468 -2.09537,-0.93243 -3.12963,-1.42779 z m -5.80964,-39.5705 c -6.08587,5.88473 -0.62246,22.55712 0.55402,7.4424 0.38047,-2.08748 1.23249,-4.03794 2.18578,-5.9165 m 3.28039,2.0322 c 2.22956,-8.19584 8.85735,-0.40992 4.85382,2.8023 m 4.10822,2.3719 c 2.45632,-5.56947 8.49534,2.783 12.61151,3.66348 1.67444,0.33854 -0.90552,2.23167 -0.91959,3.08692 m 4.272,2.4664 c 0.96596,-5.38581 10.58495,-2.41155 4.9671,2.8677 m 3.28303,1.8955 c 0.69127,-6.28236 6.93403,-20.48018 5.15591,-5.56481 -0.45118,2.48438 -1.4058,4.83444 -2.53627,7.07721 m 3.13693,1.8111 c 6.33728,-4.98985 -0.91064,-21.06475 6.73697,-20.42862 1.76522,7.61689 0.38494,15.5882 -3.25193,22.44072 m 14.55294,8.4022 c 2.30292,-6.5752 17.70508,-16.65767 6.08526,-5.25124 -1.62257,1.96051 -2.98513,4.11121 -4.33969,6.25924 m 8.15801,4.7099 c 2.7025,-3.5806 8.27147,-0.33787 6.57897,3.7984 m 2.51977,1.4547 c 5.40415,-8.92862 19.5138,-0.8485 14.58082,8.4183 m 3.12541,1.6077 c 2.85718,-6.28677 17.03795,-14.36433 11.29452,-1.5722 -2.23301,1.19603 -4.05991,3.04498 -5.39794,5.1733 m 5.97196,3.4479 c 10.66387,-18.27784 1.9762,-43.03948 -16.80612,-52.0796 -8.29774,1.48981 -18.72653,15.01272 -14.67082,-1.13969 -0.15834,-9.02373 -2.4999,-17.9539 -6.53396,-26.01171 m -36.39459,0 c 9.71766,4.29652 3.96031,10.52146 -2.65962,3.14746 -2.05272,-1.32889 -4.48836,-1.86321 -6.63765,-2.92676 m -15.74059,0.018 c -3.93144,2.98885 -20.07842,14.2764 -12.09732,2.9483 l 2.69122,-2.05 1.53065,-1.1012 m -4.26059,14.7178 c 2.05334,-8.21291 19.2238,-11.81762 6.72235,-3.2414 -1.61763,1.37321 -2.8807,3.08637 -4.03097,4.8512 m 97.63436,41.228 c 4.06926,-7.65594 16.8756,-3.16586 8.49577,1.73901 -4.88753,3.29682 -10.72941,6.93837 -8.49577,-1.73901 z m -6.7617,-25.9082 c 8.52533,-3.4885 3.45661,13.97901 0,0 z m -12.56443,8.4113 c 8.42939,-10.00294 13.94589,2.53867 2.8709,6.1414 -0.71882,-1.93203 -7.69605,-4.19424 -2.8709,-6.1414 z m -6.60067,6.234 c 7.73785,-1.10736 4.96715,11.22711 -0.99264,1.1742 l 0.99264,-1.1742 0,0 z m -7.55561,-41.2785 c 0.59636,3.90112 10.90465,15.16842 7.39602,16.89283 -4.52299,-2.31009 -11.45777,-14.04095 -7.39602,-16.89283 z m -9.14589,-0.4056 c 4.7568,6.54632 9.20351,21.45671 17.10882,27.6664 -8.40858,1.34222 -18.91635,-18.33336 -17.10882,-27.6661 l 0,-3e-4 z m -24.98712,16.226 c 3.95192,-2.29559 -2.35549,5.75212 3.32626,4.9567 -3.94287,5.02826 -6.90952,-5.16976 -3.32626,-4.9567 z m -7.84474,-10.438 c 15.79277,1.63533 1.19442,15.09643 -1.00627,2.6141 0.39536,-0.70214 -0.77846,-3.78451 1.00627,-2.6141 z m -10.4244,2.7557 c 2.46329,5.0869 7.69182,-5.72884 5.33751,2.5013 -4.65623,1.24083 -5.65283,2.76492 -5.33751,-2.5013 z m 5.40528,-10.0591 c 7.28302,-2.35311 27.24597,10.15258 19.89454,14.7971 -0.76412,-11.4165 -22.95257,-9.36002 -19.89454,-14.7971 z m -13.81479,15.1628 c 2.22972,-8.19571 8.85727,-0.40977 4.85382,2.8024 m 4.10822,2.3719 c 2.45632,-5.56948 8.49533,2.78301 12.6115,3.66348 1.67446,0.33852 -0.90556,2.23158 -0.91958,3.08682 m 4.27199,2.4665 c 0.96601,-5.38581 10.58499,-2.41163 4.9671,2.8677 m 3.28303,1.8955 c 0.69128,-6.28235 6.93397,-20.48017 5.15589,-5.56489 -0.4512,2.4844 -1.40578,4.8345 -2.53627,7.07729 m 3.13694,1.8111 c 6.33725,-4.98988 -0.91067,-21.06473 6.73699,-20.42863 1.76525,7.61696 0.38489,15.58815 -3.25196,22.44073 m 14.55294,8.4021 c 2.30298,-6.57516 17.70505,-16.65754 6.08526,-5.25114 -1.62257,1.96052 -2.98513,4.11121 -4.3397,6.25924 m 8.15802,4.7098 c 2.70255,-3.5804 8.27142,-0.33782 6.57897,3.7984 m 2.51976,1.4548 c 5.40401,-8.92859 19.51386,-0.8485 14.58082,8.4182 m 3.12541,1.6078 c 2.85718,-6.28675 17.03796,-14.36444 11.29452,-1.5723 -2.23286,1.1962 -4.06006,3.04494 -5.39793,5.1734 m 5.97196,3.4479 c 10.66382,-18.27782 1.97626,-43.03955 -16.80612,-52.0796 -8.2978,1.48978 -18.72657,15.0127 -14.67083,-1.13975 -0.15838,-9.02369 -2.49987,-17.95388 -6.53397,-26.01165 m -36.39458,0 c 9.7177,4.29642 3.96028,10.52143 -2.65962,3.1474 -2.05266,-1.32898 -4.48836,-1.86315 -6.63764,-2.9267 m -15.74059,0.018 c -3.93141,2.98874 -20.07847,14.27631 -12.09732,2.9483 l 2.69122,-2.05 1.53065,-1.1012 m -4.26059,14.7177 c 2.05344,-8.21294 19.22377,-11.81756 6.72234,-3.2413 -1.61756,1.37325 -2.88081,3.08628 -4.03096,4.8512 m 3.34029,-34.6684 c 2.22956,8.19584 8.85735,0.40992 4.85382,-2.8023 m 4.10822,-2.3719 c 2.45632,5.56947 8.49534,-2.783 12.61151,-3.66348 1.67444,-0.33852 -0.90546,-2.23162 -0.91959,-3.08682 m 4.272,-2.4665 c 0.96601,5.38581 10.58496,2.41163 4.9671,-2.8677 m 3.28303,-1.8955 c 0.69126,6.28236 6.93404,20.48018 5.15591,5.56481 -0.45118,-2.48438 -1.4058,-4.83444 -2.53627,-7.07721 m 3.13693,-1.8111 c 6.33729,4.9898 -0.91072,21.06481 6.73701,20.42853 1.76516,-7.61687 0.38489,-15.58814 -3.25197,-22.44063 m 14.55294,-8.4022 c 2.30292,6.57521 17.70509,16.65766 6.08526,5.25124 -1.62258,-1.96051 -2.98512,-4.11122 -4.33971,-6.25924 m 8.15803,-4.7099 c 2.70243,3.58055 8.27145,0.33794 6.57897,-3.7983 m 2.51977,-1.4548 c 5.40402,8.9286 19.51388,0.84839 14.58082,-8.4183 m 3.12541,-1.6077 c 2.85717,6.28682 17.03794,14.36431 11.29452,1.5722 -2.23301,-1.19603 -4.05991,-3.04498 -5.39794,-5.1733 m 5.97196,-3.4479 c 10.66386,18.27783 1.97623,43.03952 -16.80612,52.0796 -8.29776,-1.48982 -18.72655,-15.01273 -14.67082,1.13973 -0.15834,9.02371 -2.49991,17.95387 -6.53396,26.01167 m -36.39459,0 c 9.71767,-4.29645 3.96028,-10.52143 -2.65962,-3.14741 -2.05264,1.32901 -4.4884,1.86309 -6.63765,2.92671 m -15.74059,-0.018 c -3.93137,-2.98879 -20.07847,-14.2763 -12.09732,-2.9483 l 2.69122,2.05 1.53065,1.1012 m -4.26059,-14.7177 c 2.05344,8.21293 19.22377,11.81757 6.72235,3.2413 -1.61763,-1.37321 -2.8807,-3.08637 -4.03097,-4.8512 m 97.63436,-41.2274 c 4.06908,7.65604 16.87565,3.16593 8.49577,-1.73891 -4.88745,-3.2967 -10.72942,-6.93846 -8.49577,1.73891 z m -6.7617,25.9083 c 8.52542,3.48838 3.45654,-13.97892 0,0 z m -12.56443,-8.4113 c 8.4295,10.00291 13.94578,-2.53864 2.87089,-6.1415 -0.71869,1.93215 -7.69608,4.19431 -2.87089,6.1415 z m -6.60067,-6.2341 c 7.7377,1.10773 4.96727,-11.22715 -0.99264,-1.1741 l 0.99264,1.1741 0,0 z m -7.55561,41.2786 c 0.59633,-3.90115 10.90465,-15.16836 7.39602,-16.89286 -4.52298,2.31017 -11.45778,14.04091 -7.39602,16.89286 z m -9.14589,0.4056 c 4.75681,-6.54632 9.20348,-21.4567 17.10882,-27.6664 -8.40859,-1.34223 -18.91637,18.33335 -17.10882,27.6661 l 0,3e-4 z m -24.98711,-16.226 c 3.95183,2.29555 -2.35538,-5.75222 3.32625,-4.9568 -3.94289,-5.02819 -6.9095,5.16997 -3.32625,4.9568 z m -7.84475,10.4379 c 15.79275,-1.63524 1.19445,-15.09627 -1.00626,-2.6141 0.39535,0.7021 -0.77844,3.78474 1.00626,2.6141 z m -10.4244,-2.7556 c 2.46311,-5.08706 7.69193,5.72889 5.33751,-2.5013 -4.65622,-1.24082 -5.65283,-2.76493 -5.33751,2.5013 z m 5.40529,10.0591 c 7.28298,2.35293 27.24596,-10.15245 19.89454,-14.7972 -0.76406,11.41674 -22.95272,9.35992 -19.89454,14.7972 z m -13.8148,-15.1629 c 2.22956,8.19584 8.85735,0.40992 4.85382,-2.8023 m 4.10822,-2.3719 c 2.45632,5.56947 8.49534,-2.783 12.61151,-3.66348 1.67444,-0.33852 -0.90546,-2.23162 -0.91959,-3.08682 m 4.272,-2.4665 c 0.96601,5.38581 10.58496,2.41163 4.9671,-2.8677 m 3.28303,-1.8955 c 0.69126,6.28236 6.93404,20.48018 5.15591,5.56481 -0.45118,-2.48438 -1.4058,-4.83444 -2.53627,-7.07721 m 3.13693,-1.8111 c 6.33729,4.9898 -0.91072,21.06481 6.73701,20.42853 1.76516,-7.61687 0.38489,-15.58814 -3.25197,-22.44063 m 14.55294,-8.4022 c 2.30292,6.57521 17.70509,16.65766 6.08526,5.25124 -1.62258,-1.96051 -2.98512,-4.11122 -4.33971,-6.25924 m 8.15803,-4.7099 c 2.70243,3.58055 8.27145,0.33794 6.57897,-3.7983 m 2.51977,-1.4548 c 5.40402,8.9286 19.51388,0.84839 14.58082,-8.4183 m 3.12541,-1.6077 c 2.85717,6.28682 17.03794,14.36431 11.29452,1.5722 -2.23301,-1.19603 -4.05991,-3.04498 -5.39794,-5.1733 m 5.97196,-3.4479 c 10.66386,18.27783 1.97623,43.03952 -16.80612,52.0796 -8.29776,-1.48982 -18.72655,-15.01273 -14.67082,1.13973 -0.15834,9.02371 -2.49991,17.95387 -6.53396,26.01167 m -36.39459,0 c 9.71767,-4.29645 3.96028,-10.52143 -2.65962,-3.14741 -2.05264,1.32901 -4.4884,1.86309 -6.63765,2.92671 m -15.74059,-0.018 c -3.93137,-2.98879 -20.07847,-14.2763 -12.09732,-2.9483 l 2.69122,2.05 1.53065,1.1012 m -4.26059,-14.7177 c 2.05344,8.21293 19.22377,11.81757 6.72235,3.2413 -1.61763,-1.37321 -2.8807,-3.08637 -4.03097,-4.8512 m 3.40011,-1.8248 c -5.98299,-6.0289 4.07368,-7.87554 4.85382,-2.8024 m 4.10822,-2.3719 c -3.59515,-4.91195 6.65782,-5.96563 9.47842,-9.09008 1.13038,-1.28082 1.47991,1.89998 2.2135,2.33978 m 4.27199,-2.4664 c -4.18122,-3.52948 3.20401,-10.37263 4.96711,-2.8678 m 3.28302,-1.8954 c -5.09489,-3.73989 -14.2694,-16.24507 -2.24133,-7.24759 1.92596,1.63293 3.48386,3.63469 4.86095,5.73509 m 3.13693,-1.8111 c -1.15277,-7.98315 -18.69798,-9.74368 -14.32328,-16.04872 7.47908,2.27974 13.69213,7.46078 17.80825,14.03662 m 14.55295,-8.4021 c -4.54284,-5.28205 -5.57337,-23.66188 -1.50506,-7.89559 0.88656,2.38544 2.06787,4.64078 3.25081,6.88789 m 8.15788,-4.7101 c -1.74958,-4.13072 3.84309,-7.3322 6.57899,-3.7984 m 2.51976,-1.4548 c -5.03047,-9.14435 9.02212,-17.32366 14.58082,-8.4182 m 2.95505,-1.9028 c -4.01589,-5.61779 -3.921,-21.93754 4.28563,-10.5675 -0.0806,2.53182 0.60701,5.03853 1.7813,7.2614 m 5.97198,-3.4479 c -10.49724,-18.37402 -36.28518,-23.23125 -53.50536,-11.4853 -2.8587,7.93104 3.63817,23.72407 -8.32241,12.13546 -7.89397,-4.37494 -16.79847,-6.81149 -25.79374,-7.34766 m -30.21297,54.9798 c 0.48332,5.10055 1.60576,22.42645 -3.79094,10.2929 -2.67067,-14.24947 1.73609,12.95884 4.50412,1.6484 -1.58741,-0.63096 -0.65689,-18.48599 -0.71318,-11.9413 z m 6.20665,16.1097 c -6.08589,-5.88476 -0.62245,-22.55706 0.55404,-7.4424 0.38046,2.08748 1.23238,4.03799 2.18577,5.9165 m 84.5217,-63.9398 c -4.59571,-7.35195 5.69607,-16.19766 5.75383,-6.48806 0.41146,5.88115 0.64397,12.76123 -5.75383,6.48806 z m -25.81805,-7.0983 c 1.24131,-9.12727 13.8349,3.99587 0,0 z m 1.00218,15.0868 c -4.44801,-12.30142 9.17144,-10.8082 6.75409,0.5844 -2.03259,-0.34351 -7.48036,4.56788 -6.75409,-0.5844 z m 2.09851,8.8333 c 2.90979,-7.25444 12.20652,1.31156 0.52055,1.4468 l -0.52055,-1.4468 0,0 z m -39.52605,-14.0959 c 3.67673,1.43425 18.58848,-1.85948 18.32761,2.04131 -4.26205,2.76195 -17.88847,2.90242 -18.32761,-2.04131 z m -4.92423,7.7178 c 8.04752,-0.84639 23.18383,2.7579 32.51418,-0.9835 -1.98731,8.2272 -26.1587,6.85324 -32.51418,0.9835 z m 1.55854,29.7525 c -0.012,-4.57036 3.80386,4.91602 5.95583,-0.4023 2.3831,5.92889 -7.932,3.39866 -5.95583,0.4023 z m -12.96188,1.5747 c 9.31259,-12.8593 13.67099,6.51379 1.76071,2.1785 -0.4104,-0.69346 -3.66675,-1.21813 -1.76071,-2.1785 z m -2.82571,10.4057 c 5.63698,0.40923 -1.11542,-9.52585 4.83494,-3.3722 -1.25347,4.65354 -0.43236,6.27726 -4.83494,3.3722 z m -6.00881,-9.7107 c 1.60373,-7.48381 22.41536,-18.51926 22.76197,-9.831 -10.26869,-5.04849 -19.5821,15.19855 -22.76197,9.831 z m 6.22402,19.5454 c -5.98299,-6.0289 4.07368,-7.87554 4.85382,-2.8024 m 4.10822,-2.3719 c -3.59515,-4.91195 6.65782,-5.96563 9.47842,-9.09008 1.13038,-1.28082 1.47991,1.89998 2.2135,2.33978 m 4.27199,-2.4664 c -4.18122,-3.52948 3.20401,-10.37263 4.96711,-2.8678 m 3.28302,-1.8954 c -5.09489,-3.73989 -14.2694,-16.24507 -2.24133,-7.24759 1.92596,1.63293 3.48386,3.63469 4.86095,5.73509 m 3.13693,-1.8111 c -1.15277,-7.98315 -18.69798,-9.74368 -14.32328,-16.04872 7.47908,2.27974 13.69213,7.46078 17.80825,14.03662 m 14.55295,-8.4021 c -4.54284,-5.28205 -5.57337,-23.66188 -1.50506,-7.89559 0.88656,2.38544 2.06787,4.64078 3.25081,6.88789 m 8.15788,-4.7101 c -1.74958,-4.13072 3.84309,-7.3322 6.57899,-3.7984 m 2.51976,-1.4548 c -5.03047,-9.14435 9.02212,-17.32366 14.58082,-8.4182 m 2.95505,-1.9028 c -4.01589,-5.61779 -3.921,-21.93754 4.28563,-10.5675 -0.0806,2.53182 0.60701,5.03853 1.7813,7.2614 m 5.97198,-3.4479 c -10.49724,-18.37402 -36.28518,-23.23125 -53.50536,-11.4853 -2.8587,7.93104 3.63817,23.72407 -8.32241,12.13546 -7.89397,-4.37494 -16.79847,-6.81149 -25.79374,-7.34766 m -18.19669,31.519 c 8.57982,-6.26765 11.0919,1.83087 1.39596,3.87706 -18.1548,11.60849 20.05108,-9.89688 1.73368,-5.30479 -1.07136,0.41482 -2.09536,0.93244 -3.12964,1.42773 z m -5.80963,39.5705 c -6.08589,-5.88476 -0.62245,-22.55706 0.55404,-7.4424 0.38046,2.08748 1.23238,4.03799 2.18577,5.9165 m -28.35237,-20.2256 c 8.21316,2.17079 4.78321,-7.46585 0,-5.6034 m 0,-4.7438 c 6.05145,0.6556 1.83762,-8.74923 3.13309,-12.75458 0.54401,-1.61933 -2.38542,-0.33159 -3.1331,-0.74702 m 0,-4.9329 c 5.14745,1.8547 7.38085,-7.9611 0,-5.736 m 0,-3.7909 c 5.78621,2.54348 21.20336,4.23513 7.39724,-1.68234 -2.37714,-0.85184 -4.88976,-1.19914 -7.39724,-1.34256 m 0,-3.6222 c 7.48998,-2.99377 17.78729,11.3209 21.06019,4.3797 -5.71384,-5.33724 -13.30727,-8.12738 -21.06019,-8.4041 m 0,-16.8043 c 6.84573,1.29225 23.27849,-7.00436 7.59032,-2.64475 -2.50914,0.42493 -5.05298,0.52967 -7.59052,0.62865 m 1.4e-4,-9.42 c 4.45208,-0.55002 4.42833,-6.99443 0,-7.5967 m 0,-2.909604 c 10.43474,-0.21496 10.4915,-16.474631 0,-16.8365 m 0.17035,-3.5105 c 6.87308,0.668536 20.95894,-7.572927 7.00888,-8.9952 -2.15238,1.335434 -4.66698,1.99386 -7.17923,2.0879 m 0,-6.8958 c 21.16106,-0.09696 38.26138,19.808193 36.69925,40.594004 -5.43905,6.44124 -22.36467,8.71135 -6.34839,13.27519 7.73556,4.64902 14.29859,11.14188 19.25978,18.66441 m -32.50739,53.6551 c -4.65889,2.13172 -20.22477,9.82253 -7.01845,8.4295 13.67583,-4.81187 -12.09081,4.97584 -3.67959,-3.0765 1.3402,1.05929 16.33768,-8.67413 10.69804,-5.353 z m -17.05477,2.6797 c 8.13924,2.32826 19.84624,-10.73947 6.16827,-4.201 -1.99806,0.71422 -4.11322,0.95159 -6.21674,1.0654 M 269.13492,85.764346 c 8.66484,0.303874 11.17954,-13.03185 2.7419,-8.227045 -5.29885,2.584276 -11.37359,5.8227 -2.7419,8.227045 z m 19.05634,18.809904 c 7.28379,-5.638842 -10.37785,-9.983163 0,0 z m -13.5666,6.6755 c 12.87744,-2.29875 4.77438,-13.346814 -3.88321,-5.557 1.31389,1.58853 -0.21572,8.76212 3.88321,5.557 z m -8.69918,2.5993 c 4.82795,-6.14736 -7.2393,-9.91531 -1.5132,0.2725 l 1.5132,-0.2725 z m 31.97043,27.1826 c -3.08027,-2.46692 -7.6839,-17.02794 -10.93157,-14.85151 -0.26083,5.07207 6.43079,16.94293 10.93157,14.85151 z m -4.22166,8.1234 c -3.29076,-7.39268 -13.98039,-18.69878 -15.40532,-28.6499 -6.13128,5.83484 7.14407,26.08064 15.40532,28.6499 z m -26.54565,13.5265 c 3.96395,-2.2747 -6.15925,-0.83621 -2.62958,-5.359 -6.32606,0.90057 1.02248,8.56852 2.62958,5.359 z m 5.11713,12.0127 c 6.48019,-14.49461 -12.47661,-8.58256 -2.76709,-0.4356 0.80581,0.009 2.88817,2.5662 2.76709,0.4356 z m -7.59868,7.6499 c -3.17389,-4.67656 8.80737,-3.79691 0.50254,-5.873 -3.40247,3.41199 -5.22106,3.5131 -0.50254,5.873 z m 11.4141,0.3485 c 5.67923,-5.1308 4.83063,-28.67196 -2.86744,-24.6278 9.50515,6.37017 -3.37048,24.55724 2.86744,24.6278 z m -20.03883,4.3825 c 8.21316,2.17079 4.78321,-7.46585 0,-5.6034 m 0,-4.7438 c 6.05145,0.6556 1.83762,-8.74923 3.13309,-12.75458 0.54401,-1.61933 -2.38542,-0.33159 -3.1331,-0.74702 m 0,-4.9329 c 5.14745,1.8547 7.38085,-7.9611 0,-5.736 m 0,-3.7909 c 5.78621,2.54348 21.20336,4.23513 7.39723,-1.68234 -2.37713,-0.85184 -4.88975,-1.19914 -7.39723,-1.34256 m 0,-3.6222 c 7.48998,-2.99377 17.78729,11.3209 21.06019,4.3797 -5.71384,-5.33724 -13.30727,-8.12738 -21.06019,-8.4041 m 0,-16.8043 c 6.84573,1.29225 23.27849,-7.00436 7.59032,-2.64475 -2.50914,0.42493 -5.05298,0.52967 -7.59052,0.62865 m 1.4e-4,-9.42 c 4.45208,-0.55002 4.42833,-6.99443 0,-7.5967 m 0,-2.909604 c 10.43474,-0.21496 10.4915,-16.474631 0,-16.8365 m 0.17035,-3.5105 c 6.87308,0.668536 20.95894,-7.572927 7.00888,-8.9952 -2.15238,1.335434 -4.66698,1.99386 -7.17923,2.0879 m 0,-6.8958 c 21.16106,-0.09696 38.26138,19.808193 36.69925,40.594004 -5.43905,6.44124 -22.36467,8.71135 -6.34839,13.27519 7.73556,4.64902 14.29859,11.14188 19.25978,18.66441 m -18.1979,31.5183 c 1.13801,-10.56402 -7.1317,-8.6905 -4.05558,0.72956 -0.97592,21.52685 -1.45458,-22.31323 3.72726,-4.15381 0.17641,1.13525 0.24013,2.28088 0.32832,3.42425 z m -31.36426,24.8165 c 8.13924,2.32826 19.84624,-10.73947 6.16827,-4.201 -1.99806,0.71422 -4.11322,0.95159 -6.21674,1.0654 m 0.11971,-3.857 c -8.21315,2.17079 -4.78319,-7.46585 0,-5.6034 m 0,-4.7438 c -6.05146,0.6556 -1.83744,-8.74923 -3.13308,-12.75458 -0.54403,-1.61933 2.38541,-0.33159 3.13309,-0.74702 m 0,-4.9329 c -5.14746,1.85471 -7.38083,-7.96109 0,-5.736 m 0,-3.7909 c -5.78621,2.54349 -21.20337,4.23512 -7.39723,-1.68234 2.37714,-0.85184 4.88975,-1.19914 7.39723,-1.34256 m 0,-3.6222 c -7.48999,-2.99376 -17.78729,11.3209 -21.06019,4.3797 5.71384,-5.33724 13.30727,-8.12738 21.06019,-8.4041 m 0,-16.8043 c -6.84572,1.29225 -23.27848,-7.00436 -7.59032,-2.64475 2.50915,0.42493 5.05298,0.52967 7.59052,0.62865 m -1.4e-4,-9.42 c -4.45207,-0.55004 -4.42832,-6.99442 0,-7.5967 m 0,-2.909604 c -10.43473,-0.214974 -10.4915,-16.474622 0,-16.8365 m -0.17035,-3.5105 c -6.87308,0.668537 -20.95894,-7.572932 -7.00887,-8.9952 2.15238,1.335433 4.66698,1.993858 7.17922,2.0879 m 0,-6.8958 c -21.16105,-0.09696 -38.26137,19.808198 -36.69925,40.594004 5.43904,6.44124 22.36466,8.71135 6.34838,13.27519 -7.73556,4.64902 -14.29858,11.14188 -19.25977,18.66441 m 18.1979,31.5183 c -1.13802,-10.56402 7.1317,-8.6905 4.05558,0.72956 -0.12456,2.44215 0.63055,4.81862 0.78421,7.21174 m 7.88627,13.6225 c 4.55415,1.9105 22.40288,10.25026 8.60191,9.0025 l -3.12092,-1.3057 -1.719,-0.775 m 14.87622,-3.6691 c -8.13925,2.32825 -19.84623,-10.73946 -6.16826,-4.201 1.99806,0.71422 4.11321,0.95159 6.21673,1.0654 M 243.02938,85.762146 c -8.66484,0.303873 -11.17954,-13.031849 -2.74189,-8.227045 5.29885,2.584279 11.37358,5.822708 2.74189,8.227045 z m -19.05634,18.809904 c -7.2838,-5.638837 10.37787,-9.983169 0,0 z m 13.56661,6.6755 c -12.87745,-2.29874 -4.77439,-13.346818 3.8832,-5.557 -1.31386,1.58853 0.21572,8.76211 -3.8832,5.557 z m 8.69917,2.5993 c -4.82794,-6.1474 7.23931,-9.91529 1.5132,0.2725 l -1.5132,-0.2725 z m -31.97043,27.1826 c 3.0803,-2.46693 7.68389,-17.02794 10.93156,-14.85151 0.26086,5.07208 -6.43082,16.94294 -10.93156,14.85151 z m 4.22167,8.1234 c 3.29076,-7.39268 13.98039,-18.69878 15.40531,-28.6499 5.36648,6.61107 -6.41858,25.54851 -15.4054,28.6499 l 9e-5,0 z m 26.54565,13.5265 c -3.96398,-2.2747 6.15924,-0.8362 2.62957,-5.359 6.32606,0.90057 -1.02247,8.56852 -2.62957,5.359 z m -5.11714,12.0127 c -6.48018,-14.4946 12.47661,-8.58258 2.7671,-0.4356 -0.80581,0.009 -2.88818,2.5662 -2.7671,0.4356 z m 7.59869,7.6499 c 3.17387,-4.67655 -8.80737,-3.79691 -0.50254,-5.873 3.40248,3.41199 5.22104,3.51309 0.50254,5.873 z m -11.4141,0.3485 c -5.67925,-5.1308 -4.83063,-28.67197 2.86744,-24.6278 -9.50514,6.37017 3.37047,24.55723 -2.86744,24.6278 z m 20.03882,4.3825 c -8.21315,2.17079 -4.78319,-7.46585 0,-5.6034 m 0,-4.7438 c -6.05146,0.6556 -1.83744,-8.74923 -3.13308,-12.75458 -0.54403,-1.61933 2.38541,-0.33159 3.13309,-0.74702 m 0,-4.9329 c -5.14746,1.85471 -7.38083,-7.96109 0,-5.736 m 0,-3.7909 c -5.78621,2.54349 -21.20337,4.23512 -7.39723,-1.68234 2.37714,-0.85184 4.88975,-1.19914 7.39723,-1.34256 m 0,-3.6222 c -7.48999,-2.99376 -17.78729,11.3209 -21.06019,4.3797 5.71384,-5.33724 13.30727,-8.12738 21.06019,-8.4041 m 0,-16.8043 c -6.84572,1.29225 -23.27848,-7.00436 -7.59031,-2.64475 2.50914,0.42493 5.05297,0.52967 7.59051,0.62865 m -1.4e-4,-9.42 c -4.45207,-0.55004 -4.42832,-6.99442 0,-7.5967 m 0,-2.909604 c -10.43473,-0.214974 -10.4915,-16.474622 0,-16.8365 m -0.17035,-3.5105 c -6.87308,0.668537 -20.95894,-7.572932 -7.00887,-8.9952 2.15238,1.335433 4.66698,1.993858 7.17922,2.0879 m 0,-6.8958 c -21.16105,-0.09695 -38.26137,19.808198 -36.69925,40.594004 5.43904,6.44124 22.36466,8.71135 6.34838,13.27519 -7.73556,4.64902 -14.29858,11.14188 -19.25977,18.66441 m 18.1979,31.5183 c -1.13802,-10.56402 7.1317,-8.6905 4.05558,0.72956 -0.12456,2.44215 0.63055,4.81862 0.78421,7.21174 m 7.88627,13.6225 c 4.55415,1.9105 22.40288,10.25026 8.60191,9.0025 l -3.12092,-1.3057 -1.719,-0.775 m 14.87622,-3.6691 c -8.13925,2.32825 -19.84623,-10.73946 -6.16826,-4.201 1.99806,0.71422 4.11321,0.95159 6.21673,1.0654"
     id="path3335"
     inkscape:connector-curvature="0" />
</svg>
