<?xml version="1.0" encoding="UTF-8" standalone="no"?>
<!-- Created with Inkscape (http://www.inkscape.org/) -->

<svg
   xmlns:dc="http://purl.org/dc/elements/1.1/"
   xmlns:cc="http://creativecommons.org/ns#"
   xmlns:rdf="http://www.w3.org/1999/02/22-rdf-syntax-ns#"
   xmlns:svg="http://www.w3.org/2000/svg"
   xmlns="http://www.w3.org/2000/svg"
   xmlns:sodipodi="http://sodipodi.sourceforge.net/DTD/sodipodi-0.dtd"
   xmlns:inkscape="http://www.inkscape.org/namespaces/inkscape"
   id="svg12388"
   version="1.1"
   inkscape:version="0.91 r"
   width="533"
   height="1353"
   viewBox="0 0 533 1353"
   sodipodi:docname="snowflake-Maz_Kanata-000.svg">
  <metadata
     id="metadata12394">
    <rdf:RDF>
      <cc:Work
         rdf:about="">
        <dc:format>image/svg+xml</dc:format>
        <dc:type
           rdf:resource="http://purl.org/dc/dcmitype/StillImage" />
        <dc:title />
      </cc:Work>
    </rdf:RDF>
  </metadata>
  <defs
     id="defs12392" />
  <sodipodi:namedview
     pagecolor="#ffffff"
     bordercolor="#666666"
     borderopacity="1"
     objecttolerance="10"
     gridtolerance="10"
     guidetolerance="10"
     inkscape:pageopacity="0"
     inkscape:pageshadow="2"
     inkscape:window-width="1600"
     inkscape:window-height="843"
     id="namedview12390"
     showgrid="false"
     inkscape:zoom="2.2370336"
     inkscape:cx="185.78994"
     inkscape:cy="760.38118"
     inkscape:window-x="0"
     inkscape:window-y="0"
     inkscape:window-maximized="1"
     inkscape:current-layer="svg12388"
     inkscape:snap-center="true"
     inkscape:object-nodes="true"
     showguides="true"
     inkscape:guide-bbox="true">
    <sodipodi:guide
       position="476.06742,59.956822"
       orientation="0,1"
       id="guide4133" />
    <sodipodi:guide
       position="486.8289,59.956822"
       orientation="1,0"
       id="guide4135" />
  </sodipodi:namedview>
  <path
     id="path4168"
     style="fill:none;stroke:#00ff00;stroke-opacity:1;stroke-width:0.70866142;stroke-miterlimit:4;stroke-dasharray:none"
     d="m 255.77209,662.50707 c -0.32325,1.5371 -0.007,3.0734 0.88966,4.3194 0.28315,0.3936 0.52522,0.743 0.53794,0.7765 0.0127,0.033 -0.31158,0.3579 -0.72066,0.721 -0.79978,0.71 -0.90585,1.0504 -0.4155,1.3335 0.68624,0.3962 4.31549,0.2129 6.28172,-0.3172 3.25371,-0.8772 5.04404,-2.9308 5.24866,-6.0203 0.11615,-1.7538 -0.69216,-4.4706 -1.88562,-6.3376 -0.62121,-0.9718 -0.80084,-0.9716 -1.36269,0 l -0.45392,0.7862 -0.79467,-0.1762 c -1.65277,-0.3666 -3.53228,0.1317 -5.0073,1.3275 -0.84916,0.6884 -2.12271,2.6587 -2.31762,3.5856 z m -11.34728,-5.4309 c -1.18454,2.8114 -1.68569,5.9981 -1.38741,8.8222 0.28029,2.6539 1.39912,5.7756 2.8732,8.0165 l 0.62022,0.9429 -0.59985,1.5255 c -0.92475,2.3519 -0.95011,2.5153 -0.4533,2.9205 1.01018,0.8238 5.46076,3.895 5.58942,3.8571 0.0782,-0.023 0.86367,-0.5914 1.7455,-1.2628 1.2967,-0.9874 1.66956,-1.2046 1.94964,-1.1356 2.33233,0.5744 3.53561,0.7939 4.7479,0.8661 4.39768,0.2618 9.17948,-1.3845 12.47634,-4.2956 2.75832,-2.4355 4.76489,-5.8044 5.54778,-9.3143 0.49253,-2.2082 0.54587,-5.3815 0.11063,-6.5824 -0.40114,-1.1069 -2.03157,-2.1713 -3.77141,-2.462 -0.91251,-0.1525 -1.73809,0.063 -2.368,0.6183 -0.33464,0.2949 -0.33353,0.3626 0.0295,1.8052 1.17956,4.6871 -0.68105,9.5428 -4.69486,12.2525 -2.10327,1.4199 -4.49118,2.0666 -7.02302,1.9019 -1.98601,-0.1291 -3.34483,-0.5401 -5.06048,-1.5306 -3.0057,-1.7354 -5.01754,-4.594 -5.59803,-7.9544 -0.23696,-1.3715 -0.0574,-3.9412 0.37041,-5.3011 0.46015,-1.4627 1.68544,-3.539 2.68907,-4.5567 2.54746,-2.5834 6.07048,-3.8376 9.57513,-3.4086 l 1.01557,0.1243 0.43858,-0.801 c 0.25601,-0.4675 0.44855,-1.0159 0.46254,-1.3174 0.0534,-1.1512 -1.29155,-2.828 -2.94875,-3.6763 -0.89395,-0.4577 -1.00833,-0.4772 -2.1596,-0.3697 -1.58802,0.1483 -4.052,0.8359 -5.56629,1.5532 -1.49825,0.7097 -3.62331,2.1599 -4.67586,3.1909 -1.57027,1.5381 -3.21868,3.8723 -3.93456,5.5714 z m 9.58815,-19.1824 c -0.0839,1.2756 1.05537,3.0523 2.04051,3.182 1.32013,0.1738 1.54033,-1.7991 0.38209,-3.4233 -0.48169,-0.6755 -1.02583,-0.9781 -1.60786,-0.8944 -0.54358,0.078 -0.76551,0.3876 -0.81474,1.1357 z m -7.17372,-9.6814 c -0.12628,0.4743 -2.7911,4.7733 -3.22232,5.1984 -0.20335,0.2004 -1.23319,1.1662 -2.28858,2.1462 l -1.91886,1.7816 0.27674,0.2131 c 0.15221,0.1172 0.45353,0.2031 0.66962,0.1909 0.40932,-0.023 7.06515,-3.437 7.82001,-4.0109 0.35772,-0.272 0.50608,-0.5119 0.86542,-1.3993 0.23852,-0.589 0.61875,-1.3913 0.84494,-1.7829 l 0.41112,-0.712 m 34.51439,19.9269 -0.42282,0.6227 c -0.85436,1.2583 -2.04427,2.8142 -2.33106,3.048 -0.22053,0.1797 -0.27475,0.3152 -0.21519,0.5375 0.0713,0.266 0.13746,0.3017 0.63117,0.3406 0.30333,0.024 0.8608,-0.095 1.23881,-0.2637 0.83391,-0.3727 2.88063,-1.7081 3.47049,-2.2644 l 0.4286,-0.4042 m 3.34217,1.9296 -0.89488,1.364 c -1.03611,1.5792 -2.60147,3.4919 -3.95616,4.8342 -0.78976,0.7825 -0.93648,0.9829 -0.88056,1.203 0.0938,0.3693 0.88164,0.3481 1.87585,-0.051 1.71585,-0.6878 5.22828,-3.4352 6.32624,-4.9483 l 0.49915,-0.6878 m 15.28246,9.1948 c -0.2938,0.5044 -2.9397,3.4201 -4.49827,4.9571 -3.31447,3.2684 -6.33282,5.692 -8.84176,7.0996 -4.09684,2.2985 -9.99969,4.8295 -13.78125,5.909 l -1.98791,0.5675 0.53839,0.1923 c 1.95214,0.6974 7.30309,-0.041 11.66979,-1.6105 9.18994,-3.3029 17.07411,-8.5811 20.75862,-13.8971 l 0.67431,-0.9729 m 6.77548,3.9118 -0.41137,0.7119 c -0.22624,0.3916 -0.90185,1.4319 -1.50127,2.3118 -6.14864,9.0258 -13.93157,15.3792 -23.06934,18.8321 -2.34965,0.8879 -6.68771,1.9841 -9.07512,2.2934 -9.59697,1.2431 -19.42101,-0.7494 -29.23563,-5.9295 l -2.16577,-1.143 -2.43549,1.8199 c -2.82253,2.1091 -2.31695,2.0315 -5.02267,0.7709 -4.02028,-1.873 -8.72952,-5.3145 -9.65747,-7.0576 l -0.35621,-0.6692 0.62149,-2.8504 0.62148,-2.8504 -0.67737,-0.6028 c -1.03134,-0.918 -2.4694,-2.6754 -3.07986,-3.7638 -1.87016,-3.3345 -1.65601,-7.2184 0.65583,-11.8933 l 0.68036,-1.3759 -0.65129,-1.4143 c -0.80764,-1.7539 -2.14583,-4.2332 -3.06468,-5.678 -0.60957,-0.9585 -0.83953,-1.1971 -1.85861,-1.9286 -2.22008,-1.5936 -3.10116,-2.2966 -3.33429,-2.6603 -0.44843,-0.6997 -0.0643,-3.8554 0.83538,-6.8626 0.19693,-0.6582 0.45333,-1.3647 0.56978,-1.5699 0.11649,-0.2052 0.20761,-0.472 0.20256,-0.5929 -0.0143,-0.3426 -2.84754,-3.2247 -3.01983,-3.0719 -0.34073,0.3021 -2.03476,1.2986 -3.09444,1.8203 -2.48931,1.2255 -5.09698,1.9974 -7.80425,2.3103 -2.54061,0.2935 -2.06332,0.6788 -4.60945,-3.7208 m -1.92689,-3.8144 c 2.20223,-0.037 5.44314,-0.8224 7.54148,-1.8274 1.48352,-0.7106 4.24672,-2.4659 4.45814,-2.8321 0.0609,-0.1054 -1.00696,-1.4701 -1.73918,-2.2228 -1.09755,-1.1281 -3.31697,-2.5088 -5.57852,-3.4701 l -1.81955,-0.7735 -0.43679,-0.8953 c -1.19686,-2.4532 -3.6309,-6.4248 -4.10548,-6.6988 -0.32118,-0.1854 -0.61585,0.047 -0.66157,0.5212 -0.0495,0.5131 0.62265,4.0324 1.17777,6.1673 0.62744,2.4129 1.27265,3.2578 2.77353,3.6319 0.45589,0.1136 0.53862,0.2001 0.88158,0.9209 0.81934,1.7221 1.08513,3.337 0.61922,3.7623 -0.56541,0.5162 -2.40342,0.8282 -4.26955,0.7248 l -0.85763,-0.048 m -9.42542,-16.3161 0.29201,-0.5589 c 1.56695,-2.9989 -2.43781,-9.9162 -5.7229,-9.8852 l -0.58868,0.01 m 37.90106,15.5886 -1.48052,2.6953 c -1.71194,3.1166 -1.68111,2.9161 -0.71462,4.6434 0.48665,0.8698 0.92568,2.3269 1.45575,4.8319 l 0.19082,0.9017 0.57073,-0.017 c 0.61663,-0.018 1.58564,-0.3208 1.7081,-0.5329 0.0416,-0.072 -0.005,-0.818 -0.10283,-1.6575 -0.32177,-2.7514 -0.32029,-2.7575 1.39027,-5.7203 l 1.47319,-2.5516 m 47.73325,-1.9159 c 1.16958,-1.0485 2.65826,-1.5426 4.18562,-1.3892 0.48241,0.048 0.90602,0.083 0.94136,0.078 0.0353,-0.01 0.15421,-0.4488 0.26413,-0.9846 0.21492,-1.0476 0.4567,-1.3097 0.94706,-1.0266 0.68624,0.3962 2.34217,3.6309 2.86618,5.5988 0.86714,3.2564 -0.0161,5.8336 -2.5894,7.5555 -1.46078,0.9776 -4.21772,1.6359 -6.43132,1.5359 -1.15225,-0.052 -1.24189,-0.2078 -0.68003,-1.1809 l 0.45391,-0.7862 -0.54995,-0.6001 c -1.14381,-1.2481 -1.65203,-3.125 -1.35395,-5.0003 0.17159,-1.0796 1.24115,-3.1676 1.94639,-3.7999 z m -10.3769,-7.1116 c 1.84251,-2.4315 4.35167,-4.4589 6.94654,-5.6126 2.43852,-1.0842 5.70135,-1.6761 8.3791,-1.52 l 1.12665,0.066 1.02124,-1.2823 c 1.57442,-1.9768 1.70325,-2.0804 2.30255,-1.8528 1.21857,0.463 6.1036,2.7817 6.13504,2.9121 0.0191,0.079 -0.0803,1.0436 -0.22087,2.143 -0.20673,1.6167 -0.20837,2.0482 -0.009,2.2562 1.66358,1.7327 2.45532,2.665 3.12397,3.6788 2.4256,3.6776 3.39071,8.6419 2.51809,12.9526 -0.73006,3.6066 -2.64433,7.0287 -5.29256,9.4617 -1.66612,1.5307 -4.38757,3.1635 -5.64523,3.387 -1.15916,0.2061 -2.8961,-0.6737 -4.01782,-2.0351 -0.58831,-0.714 -0.81443,-1.5368 -0.64858,-2.3599 0.0881,-0.4373 0.14732,-0.4702 1.57818,-0.8771 4.6489,-1.322 7.92378,-5.3612 8.2635,-10.1921 0.17803,-2.5314 -0.45588,-4.9227 -1.86436,-7.0331 -1.10482,-1.6553 -2.14018,-2.6266 -3.85583,-3.6171 -3.0057,-1.7354 -6.4873,-2.0484 -9.68768,-0.8709 -1.30628,0.4806 -3.44192,1.9209 -4.40567,2.9713 -1.03665,1.1299 -2.22217,3.2292 -2.60176,4.6072 -0.96355,3.4979 -0.28815,7.176 1.83563,9.9966 l 0.61544,0.8174 -0.47436,0.7803 c -0.27688,0.4554 -0.65556,0.8964 -0.90964,1.0592 -0.97024,0.6219 -3.09488,0.2955 -4.65817,-0.7155 -0.8433,-0.5453 -0.91744,-0.6346 -1.39995,-1.6854 -0.66555,-1.4494 -1.30212,-3.9271 -1.43804,-5.5972 -0.13447,-1.6523 0.0589,-4.2178 0.42547,-5.6448 0.5469,-2.129 1.74416,-4.7236 2.85771,-6.1932 z m -11.81836,17.8948 c 1.06277,-0.7105 3.17101,-0.6121 3.7759,0.1762 0.81058,1.0563 -0.78788,2.2335 -2.77356,2.0425 -0.82583,-0.079 -1.36003,-0.3993 -1.57852,-0.9453 -0.20405,-0.5098 -0.0471,-0.8567 0.57618,-1.2734 z m -11.97117,-1.3719 c 0.34758,-0.3465 2.73819,-4.8038 2.89074,-5.3898 0.0719,-0.2764 0.3934,-1.6511 0.71434,-3.0551 l 0.58357,-2.5526 0.32287,0.1331 c 0.17759,0.073 0.40263,0.2913 0.5001,0.4845 0.18463,0.3661 0.55612,7.8371 0.43647,8.7778 -0.0567,0.4458 -0.19026,0.6942 -0.77905,1.4491 -0.39083,0.501 -0.89555,1.2315 -1.12157,1.6232 l -0.41112,0.7121 m 34.5144,19.9268 0.32791,-0.6775 c 0.66257,-1.3691 1.41502,-3.1775 1.47407,-3.5427 0.0454,-0.2809 0.1356,-0.3956 0.35789,-0.4551 0.26602,-0.071 0.33006,-0.032 0.61059,0.3762 0.17236,0.2508 0.34833,0.7929 0.39103,1.2047 0.0942,0.9086 -0.0389,3.3488 -0.22576,4.1377 l -0.13573,0.5733 m 3.34217,1.9296 0.73376,-1.4569 c 0.84955,-1.6869 1.72339,-3.9989 2.20846,-5.8433 0.28276,-1.0751 0.38301,-1.3024 0.60161,-1.3641 0.3667,-0.1034 0.74224,0.5895 0.89416,1.6498 0.26221,1.8299 -0.36087,6.2455 -1.12223,7.9529 l -0.34612,0.7762 m 15.6042,8.6375 c 0.2899,-0.5066 1.49206,-4.2559 2.04378,-6.3741 1.17329,-4.5046 1.76306,-8.3304 1.72763,-11.207 -0.0579,-4.6973 -0.81742,-11.0747 -1.77333,-14.8894 l -0.5025,-2.0054 0.43578,0.3701 c 1.58004,1.342 3.616,6.3452 4.44017,10.9116 1.73452,9.6102 1.10558,19.0772 -1.65595,24.9261 l -0.5054,1.0704 m 6.77547,3.9118 0.41086,-0.7122 c 0.22599,-0.3917 0.78908,-1.4969 1.2514,-2.456 4.74228,-9.8378 6.35302,-19.7547 4.77441,-29.3947 -0.40592,-2.4788 -1.62555,-6.7838 -2.55145,-9.006 -3.72191,-8.9327 -10.35946,-16.4444 -19.75285,-22.3541 l -2.07283,-1.304 0.35835,-3.0192 c 0.41527,-3.4989 0.60085,-3.0223 -1.84367,-4.7352 -3.6322,-2.5452 -8.96724,-4.9027 -10.94083,-4.8348 l -0.7576,0.026 -2.15778,1.9634 -2.15777,1.9634 -0.86079,-0.2852 c -1.31063,-0.4342 -3.55161,-0.8009 -4.79944,-0.7853 -3.82288,0.048 -7.07932,2.175 -9.97203,6.5146 l -0.85131,1.2771 -1.55054,0.1432 c -1.92272,0.1775 -4.73895,0.2582 -6.44959,0.1849 -1.1349,-0.049 -1.45652,-0.1285 -2.59955,-0.6453 -2.49012,-1.1259 -3.53945,-1.5374 -3.97105,-1.5574 -0.83015,-0.039 -3.37099,1.872 -5.52545,4.1547 -0.47157,0.4997 -0.95517,1.0749 -1.07466,1.2784 -0.11946,0.2035 -0.305,0.4158 -0.41223,0.4719 -0.30384,0.1589 -4.21644,-0.8537 -4.17027,-1.0793 0.0913,-0.4462 0.1073,-2.4115 0.0292,-3.59 -0.18337,-2.7686 -0.81868,-5.4128 -1.90139,-7.9138 -1.01605,-2.3471 -0.44377,-2.1264 -5.52695,-2.1316 m -4.26682,0.2385 c 1.06899,1.9257 2.00934,5.1251 2.18815,7.4448 0.12637,1.6401 -0.0122,4.9107 -0.22358,5.2769 -0.0608,0.1054 -1.77667,-0.137 -2.79458,-0.3948 -1.52581,-0.3864 -3.83117,-1.6182 -5.79452,-3.096 l -1.57963,-1.1891 -0.99372,0.069 c -2.72298,0.1901 -7.37949,0.068 -7.85406,-0.2061 -0.32118,-0.1854 -0.26747,-0.5567 0.12057,-0.8335 0.41964,-0.2994 3.80352,-1.477 5.92992,-2.0637 2.4033,-0.663 3.45763,-0.5267 4.53207,0.586 0.32636,0.338 0.44259,0.3665 1.23835,0.3031 1.90106,-0.1516 3.43249,-0.7288 3.56785,-1.3449 0.16427,-0.7478 -0.48451,-2.4955 -1.50708,-4.06 l -0.46998,-0.719 m -18.8429,0 -0.33802,0.5323 c -1.81364,2.8565 -9.80656,2.8469 -11.42227,-0.014 l -0.28951,-0.5126 m 32.45064,25.029 1.59392,-2.6298 c 1.84307,-3.0409 1.68484,-2.9139 3.664,-2.9406 0.99655,-0.013 2.47801,-0.3618 4.91239,-1.1552 l 0.87632,-0.2856 0.27054,0.5028 c 0.2923,0.5433 0.51498,1.5337 0.39252,1.7458 -0.0416,0.072 -0.71069,0.4049 -1.48684,0.7396 -2.54368,1.0971 -2.5482,1.1014 -4.25876,4.0642 l -1.47319,2.5516 m -143.297477,-1.9414 c -1.16957,-1.0485 -2.65824,-1.5426 -4.18561,-1.3892 -0.48241,0.048 -0.90602,0.083 -0.94136,0.078 -0.0353,-0.01 -0.1542,-0.4488 -0.26413,-0.9846 -0.21492,-1.0476 -0.4567,-1.3097 -0.94706,-1.0266 -0.68624,0.3962 -2.34216,3.6309 -2.86618,5.5987 -0.86714,3.2565 0.0161,5.8337 2.5894,7.5556 1.4608,0.9776 4.21772,1.6359 6.43134,1.5359 1.15223,-0.052 1.24187,-0.2078 0.68001,-1.1809 l -0.45392,-0.7862 0.54996,-0.6001 c 1.14382,-1.2481 1.65203,-3.125 1.35395,-5.0003 -0.17159,-1.0796 -1.24115,-3.1676 -1.9464,-3.7999 z m 10.376907,-7.1116 c -1.842507,-2.4315 -4.351667,-4.4589 -6.946537,-5.6126 -2.43852,-1.0842 -5.70135,-1.6761 -8.3791,-1.52 l -1.12665,0.066 -1.02125,-1.2823 c -1.57441,-1.9768 -1.70324,-2.0804 -2.30254,-1.8528 -1.21857,0.463 -6.1036,2.7817 -6.13504,2.9121 -0.0191,0.079 0.0803,1.0436 0.22087,2.143 0.20673,1.6167 0.20837,2.0482 0.009,2.2562 -1.6636,1.7327 -2.45532,2.665 -3.12397,3.6788 -2.42561,3.6776 -3.39071,8.6419 -2.51811,12.9526 0.73008,3.6066 2.64435,7.0288 5.29258,9.4617 1.6661,1.5307 4.38757,3.1635 5.64521,3.387 1.15917,0.2061 2.89612,-0.6738 4.01782,-2.0351 0.58832,-0.714 0.81445,-1.5368 0.64859,-2.3599 -0.0881,-0.4373 -0.14731,-0.4702 -1.57819,-0.8771 -4.64888,-1.322 -7.92376,-5.3612 -8.26349,-10.1921 -0.17802,-2.5314 0.45589,-4.9227 1.86437,-7.0331 1.10482,-1.6553 2.14018,-2.6266 3.85583,-3.6171 3.0057,-1.7354 6.4873,-2.0484 9.68767,-0.8709 1.30629,0.4806 3.44193,1.9209 4.40568,2.9713 1.03665,1.1299 2.22217,3.2292 2.60176,4.6072 0.96355,3.4979 0.28815,7.176 -1.83563,9.9966 l -0.61544,0.8174 0.47436,0.7803 c 0.27687,0.4554 0.65556,0.8964 0.90962,1.0592 0.97024,0.6219 3.0949,0.2955 4.658187,-0.7155 0.8433,-0.5453 0.91744,-0.6346 1.39995,-1.6854 0.66555,-1.4494 1.30211,-3.9271 1.43802,-5.5972 0.13449,-1.6523 -0.0589,-4.2178 -0.42545,-5.6448 -0.5469,-2.129 -1.74416,-4.7236 -2.85773,-6.1932 z m 11.81836,17.8948 c -1.06277,-0.7105 -3.17101,-0.6121 -3.7759,0.1762 -0.81058,1.0563 0.78788,2.2335 2.77356,2.0425 0.82583,-0.079 1.36005,-0.3993 1.57853,-0.9453 0.20404,-0.5098 0.0471,-0.8567 -0.57619,-1.2734 z m 11.97117,-1.3719 c -0.34758,-0.3465 -2.73818,-4.8038 -2.89074,-5.3898 -0.0719,-0.2764 -0.39339,-1.6511 -0.71434,-3.0551 l -0.58356,-2.5526 -0.32287,0.1331 c -0.17759,0.073 -0.40264,0.2913 -0.5001,0.4845 -0.18464,0.3661 -0.55613,7.8371 -0.43647,8.7778 0.0567,0.4458 0.19026,0.6942 0.77904,1.4491 0.39084,0.501 0.89555,1.2315 1.12157,1.6232 l 0.41112,0.7121 m -34.514397,19.9268 -0.32791,-0.6775 c -0.66257,-1.3691 -1.41502,-3.1775 -1.47408,-3.5427 -0.0454,-0.2809 -0.13559,-0.3956 -0.35788,-0.4551 -0.26602,-0.071 -0.33004,-0.032 -0.61059,0.3762 -0.17236,0.2508 -0.34833,0.7929 -0.39103,1.2047 -0.0942,0.9086 0.0389,3.3488 0.22576,4.1378 l 0.13573,0.5732 m -3.34217,1.9296 -0.73376,-1.4569 c -0.84955,-1.6869 -1.72339,-3.9989 -2.20846,-5.8433 -0.28277,-1.0751 -0.38301,-1.3024 -0.60161,-1.3641 -0.3667,-0.1034 -0.74223,0.5895 -0.89416,1.6498 -0.26221,1.8299 0.36087,6.2455 1.12223,7.9529 l 0.34612,0.7761 m -15.6042,8.6376 c -0.2899,-0.5066 -1.49206,-4.2559 -2.04378,-6.3741 -1.17329,-4.5046 -1.76305,-8.3304 -1.72763,-11.207 0.0579,-4.6973 0.81742,-11.0747 1.77335,-14.8894 l 0.50248,-2.0054 -0.43578,0.3701 c -1.58004,1.3419 -3.616,6.3452 -4.44017,10.9116 -1.73452,9.6102 -1.10558,19.0772 1.65595,24.9261 l 0.5054,1.0704 m -6.77548,3.9118 -0.41085,-0.7122 c -0.22599,-0.3917 -0.78908,-1.4969 -1.2514,-2.456 -4.74228,-9.8378 -6.35302,-19.7547 -4.77441,-29.3947 0.40592,-2.4788 1.62555,-6.7838 2.55144,-9.006 3.72192,-8.9327 10.35948,-16.4444 19.75286,-22.3541 l 2.07283,-1.304 -0.35835,-3.0192 c -0.41527,-3.4989 -0.60085,-3.0223 1.84367,-4.7352 3.6322,-2.5452 8.96726,-4.9027 10.94082,-4.8348 l 0.75761,0.026 2.15778,1.9634 2.15777,1.9634 0.86079,-0.2852 c 1.31063,-0.4342 3.55161,-0.8009 4.79944,-0.7853 3.82288,0.048 7.07932,2.175 9.972027,6.5146 l 0.85132,1.2771 1.55053,0.1432 c 1.92272,0.1775 4.73895,0.2582 6.4496,0.1849 1.13489,-0.049 1.45651,-0.1285 2.59955,-0.6453 2.49011,-1.1259 3.53944,-1.5374 3.97105,-1.5574 0.83014,-0.039 3.37099,1.872 5.52545,4.1547 0.47157,0.4997 0.95517,1.0749 1.07465,1.2784 0.11946,0.2035 0.305,0.4158 0.41223,0.4719 0.30385,0.1589 4.21644,-0.8537 4.17028,-1.0793 -0.0913,-0.4462 -0.1073,-2.4115 -0.0292,-3.59 0.18336,-2.7686 0.81868,-5.4129 1.90138,-7.9138 1.01604,-2.3471 0.44378,-2.1264 5.52696,-2.1316 m 4.26681,0.2385 c -1.06899,1.9257 -2.00934,5.1251 -2.18814,7.4448 -0.12638,1.6401 0.0121,4.9107 0.22357,5.2769 0.0609,0.1054 1.77666,-0.137 2.79459,-0.3948 1.52581,-0.3864 3.83117,-1.6182 5.79451,-3.096 l 1.57963,-1.1891 0.99372,0.069 c 2.72298,0.1901 7.37949,0.068 7.85405,-0.2061 0.3212,-0.1854 0.26749,-0.5567 -0.12057,-0.8335 -0.41962,-0.2994 -3.8035,-1.477 -5.9299,-2.0637 -2.4033,-0.663 -3.45764,-0.5267 -4.53209,0.586 -0.32634,0.338 -0.44257,0.3665 -1.23833,0.3031 -1.90105,-0.1515 -3.43249,-0.7288 -3.56785,-1.3449 -0.16428,-0.7478 0.48451,-2.4955 1.50708,-4.06 l 0.46996,-0.719 m 18.84292,0 0.33801,0.5323 c 1.81365,2.8565 9.80657,2.8469 11.42228,-0.014 l 0.28952,-0.5126 m -32.45065,25.029 -1.59392,-2.6298 c -1.84305,-3.0409 -1.68483,-2.9139 -3.66399,-2.9406 -0.99656,-0.013 -2.47801,-0.3618 -4.9124,-1.1552 l -0.87631,-0.2856 -0.27054,0.5028 c -0.2923,0.5433 -0.51499,1.5337 -0.39253,1.7458 0.0416,0.072 0.71071,0.4049 1.48684,0.7397 2.54368,1.097 2.54821,1.1013 4.25876,4.0641 l 1.47319,2.5516 m -22.20747,42.2962 c 0.32324,1.5371 0.007,3.0734 -0.88966,4.3194 -0.28316,0.3936 -0.52523,0.743 -0.53795,0.7765 -0.0127,0.033 0.31158,0.3579 0.72065,0.721 0.79979,0.7099 0.90587,1.0504 0.41552,1.3335 -0.68625,0.3962 -4.3155,0.2129 -6.28174,-0.3172 -3.2537,-0.8772 -5.04403,-2.9308 -5.24864,-6.0203 -0.11616,-1.7538 0.69215,-4.4706 1.88559,-6.3376 0.62124,-0.9718 0.80085,-0.9716 1.36271,0 l 0.45393,0.7862 0.79467,-0.1762 c 1.65277,-0.3666 3.53227,0.1317 5.00729,1.3275 0.84916,0.6884 2.12271,2.6587 2.31763,3.5856 z m 11.34727,-5.4309 c 1.18454,2.8114 1.68569,5.9981 1.38742,8.8222 -0.2803,2.6539 -1.39913,5.7756 -2.87321,8.0165 l -0.62022,0.9429 0.59985,1.5255 c 0.92476,2.3519 0.95013,2.5153 0.4533,2.9205 -1.01018,0.8238 -5.46076,3.895 -5.58941,3.8571 -0.0782,-0.023 -0.86367,-0.5914 -1.74551,-1.2628 -1.29668,-0.9874 -1.66956,-1.2046 -1.94963,-1.1356 -2.33231,0.5744 -3.53561,0.7939 -4.7479,0.8661 -4.39767,0.2618 -9.17947,-1.3846 -12.476337,-4.2956 -2.75833,-2.4355 -4.76488,-5.8044 -5.54777,-9.3144 -0.49253,-2.2082 -0.54587,-5.3815 -0.11064,-6.5824 0.40115,-1.1069 2.03157,-2.1712 3.77141,-2.4619 0.91252,-0.1525 1.7381,0.063 2.368027,0.6182 0.33462,0.295 0.3335,0.3627 -0.0295,1.8053 -1.179557,4.6871 0.68104,9.5428 4.69486,12.2525 2.10326,1.4198 4.49118,2.0665 7.02301,1.9019 1.98601,-0.1291 3.34484,-0.5401 5.06049,-1.5306 3.0057,-1.7354 5.01755,-4.594 5.59804,-7.9544 0.23694,-1.3716 0.0574,-3.9412 -0.37042,-5.3011 -0.46014,-1.4627 -1.68545,-3.539 -2.68907,-4.5568 -2.54746,-2.5833 -6.07048,-3.8375 -9.57512,-3.4086 l -1.01558,0.1243 -0.43859,-0.8009 c -0.25599,-0.4675 -0.44856,-1.016 -0.46253,-1.3174 -0.0534,-1.1512 1.29157,-2.828 2.94874,-3.6764 0.89395,-0.4576 1.00834,-0.4772 2.15961,-0.3696 1.58802,0.1483 4.05201,0.8358 5.56629,1.5532 1.49825,0.7097 3.62331,2.1599 4.67586,3.1909 1.57026,1.5381 3.21867,3.8722 3.93456,5.5714 z m -9.58815,-19.1824 c 0.0839,1.2756 -1.05537,3.0523 -2.04049,3.182 -1.32014,0.1737 -1.54035,-1.7991 -0.38212,-3.4233 0.48171,-0.6754 1.02585,-0.9781 1.60787,-0.8944 0.54359,0.078 0.76552,0.3876 0.81474,1.1357 z m 7.17373,-9.6813 c 0.12628,0.4742 2.7911,4.7732 3.22232,5.1983 0.20334,0.2005 1.23319,1.1662 2.28857,2.1462 l 1.91886,1.7816 -0.27672,0.2131 c -0.15222,0.1172 -0.45354,0.2031 -0.66964,0.1909 -0.40931,-0.023 -7.06514,-3.4369 -7.82001,-4.0109 -0.35772,-0.272 -0.50608,-0.5119 -0.86541,-1.3992 -0.23852,-0.5891 -0.61875,-1.3914 -0.84495,-1.783 l -0.41111,-0.712 m -34.514397,19.9269 0.42282,0.6227 c 0.85436,1.2583 2.04427,2.8142 2.33106,3.048 0.22053,0.1797 0.27475,0.3152 0.21519,0.5375 -0.0713,0.266 -0.13747,0.3017 -0.63116,0.3406 -0.30335,0.024 -0.86081,-0.095 -1.23882,-0.2637 -0.83391,-0.3727 -2.88063,-1.7081 -3.47049,-2.2644 l -0.4286,-0.4042 m -3.34216,1.9296 0.89488,1.364 c 1.03609,1.5792 2.60146,3.4919 3.95616,4.8342 0.78975,0.7824 0.93648,0.9829 0.88055,1.2031 -0.0938,0.3692 -0.88164,0.348 -1.87585,-0.051 -1.71584,-0.6878 -5.22827,-3.4352 -6.32624,-4.9483 l -0.49915,-0.6878 m -15.28246,9.1948 c 0.2938,0.5044 2.9397,3.4201 4.49827,4.9571 3.31447,3.2684 6.33281,5.692 8.84176,7.0996 4.09684,2.2985 9.99969,4.8295 13.78124,5.909 l 1.98792,0.5675 -0.53839,0.1923 c -1.95215,0.6974 -7.30309,-0.041 -11.66979,-1.6105 -9.18994,-3.3029 -17.07411,-8.5811 -20.75862,-13.8971 l -0.67431,-0.9729 m -6.77547,3.9118 0.41137,0.712 c 0.22623,0.3915 0.90184,1.4318 1.50126,2.3117 6.14865,9.0258 13.93157,15.3792 23.06935,18.8321 2.34964,0.8879 6.6877,1.9841 9.07511,2.2934 9.59697,1.2431 19.420997,-0.7494 29.235647,-5.9295 l 2.16575,-1.143 2.4355,1.8199 c 2.82252,2.1091 2.31695,2.0315 5.02265,0.7709 4.02028,-1.873 8.72953,-5.3145 9.65749,-7.0576 l 0.35621,-0.6692 -0.62148,-2.8504 -0.62151,-2.8504 0.67739,-0.6028 c 1.03133,-0.918 2.4694,-2.6754 3.07984,-3.7638 1.87018,-3.3345 1.65602,-7.2184 -0.65581,-11.8933 l -0.68037,-1.3759 0.6513,-1.4144 c 0.80763,-1.7538 2.14582,-4.2331 3.06467,-5.6779 0.60959,-0.9585 0.83954,-1.1971 1.85861,-1.9286 2.22008,-1.5936 3.10116,-2.2966 3.3343,-2.6603 0.44842,-0.6997 0.0643,-3.8554 -0.83539,-6.8626 -0.19692,-0.6582 -0.45333,-1.3647 -0.56978,-1.5699 -0.11649,-0.2052 -0.2076,-0.472 -0.20257,-0.5929 0.0143,-0.3426 2.84754,-3.2247 3.01985,-3.0719 0.34072,0.3021 2.03475,1.2986 3.09443,1.8203 2.48932,1.2255 5.09698,1.9974 7.80426,2.3103 2.5406,0.2935 2.06332,0.6788 4.60945,-3.7208 m 1.92688,-3.8144 c -2.20223,-0.037 -5.44315,-0.8224 -7.54146,-1.8274 -1.48353,-0.7106 -4.24674,-2.4659 -4.45815,-2.832 -0.0608,-0.1054 1.00696,-1.4702 1.73917,-2.2228 1.09755,-1.1282 3.31697,-2.5088 5.57853,-3.4702 l 1.81955,-0.7735 0.43678,-0.8953 c 1.19686,-2.4532 3.63092,-6.4248 4.10548,-6.6987 0.32118,-0.1855 0.61585,0.047 0.66158,0.5211 0.0495,0.5131 -0.62265,4.0325 -1.17778,6.1673 -0.62743,2.4129 -1.27265,3.2578 -2.77353,3.6319 -0.45587,0.1137 -0.53861,0.2001 -0.88157,0.921 -0.81934,1.7221 -1.08514,3.337 -0.61923,3.7622 0.56542,0.5162 2.40341,0.8282 4.26955,0.7248 l 0.85765,-0.048 m 9.42534,-16.3162 -0.29201,-0.5589 c -1.56694,-2.9989 2.43781,-9.9162 5.72297,-9.8851 l 0.58868,0.01 m -37.90106,15.5886 1.4805,2.6952 c 1.71195,3.1166 1.68113,2.9161 0.71462,4.6434 -0.48664,0.8698 -0.92566,2.327 -1.45573,4.8319 l -0.19083,0.9017 -0.57073,-0.017 c -0.61662,-0.018 -1.58563,-0.3208 -1.70809,-0.5329 -0.0416,-0.072 0.005,-0.818 0.10284,-1.6575 0.32175,-2.7514 0.32028,-2.7575 -1.39028,-5.7203 l -1.47319,-2.5516 m 22.24894,67.9801 c -1.49283,0.4886 -2.66508,1.5308 -3.29595,2.9302 -0.19926,0.442 -0.38081,0.8263 -0.40343,0.8541 -0.0226,0.028 -0.46578,-0.091 -0.98478,-0.2636 -1.01471,-0.3377 -1.36257,-0.2594 -1.36257,0.3069 0,0.7924 1.97333,3.8438 3.41556,5.2815 2.38655,2.3792 5.06012,2.9029 7.83803,1.5353 1.57694,-0.7763 3.52559,-2.8347 4.54573,-4.8018 0.53103,-1.0239 0.44104,-1.1793 -0.68267,-1.1793 l -0.90784,0 -0.24472,-0.7763 c -0.50895,-1.6147 -1.88025,-2.9932 -3.65334,-3.6727 -1.02076,-0.3912 -3.36387,-0.509 -4.26402,-0.2143 z m -0.97038,-12.5425 c -3.02705,0.3799 -6.03736,1.5392 -8.33396,3.2096 -2.15822,1.5697 -4.30222,4.0994 -5.50589,6.4965 l -0.50643,1.0085 -1.62108,0.2433 c -2.49917,0.3751 -2.65339,0.4349 -2.75587,1.0677 -0.20838,1.2868 -0.64283,6.6767 -0.5456,6.7691 0.0591,0.056 0.94394,0.4523 1.96636,0.8803 1.50343,0.6292 1.87793,0.8436 1.95824,1.1206 0.66873,2.307 1.08029,3.4589 1.62393,4.5448 1.97206,3.9395 5.78876,7.2574 9.95824,8.6571 3.48838,1.171 7.40922,1.2243 10.84034,0.1473 2.15865,-0.6775 4.93345,-2.218 5.75586,-3.1954 0.75802,-0.9008 0.86454,-2.845 0.2464,-4.4971 -0.3242,-0.8665 -0.92365,-1.4737 -1.71942,-1.7416 -0.42274,-0.1424 -0.48084,-0.1075 -1.54866,0.9282 -3.46936,3.365 -8.60482,4.1816 -12.95836,2.0603 -2.2813,-1.1115 -4.0353,-2.8561 -5.15866,-5.1311 -0.88118,-1.7845 -1.20465,-3.1668 -1.20465,-5.1478 0,-3.4707 1.46975,-6.6423 4.08965,-8.8252 1.06933,-0.891 3.38453,-2.0204 4.77608,-2.3298 1.49681,-0.3328 3.90763,-0.3099 5.29084,0.05 3.511,0.9145 6.35863,3.3384 7.73948,6.588 l 0.40014,0.9417 0.91295,-0.021 c 0.53287,-0.012 1.10412,-0.1195 1.37217,-0.2581 1.02363,-0.5293 1.80332,-2.5325 1.70942,-4.3919 -0.0506,-1.003 -0.0909,-1.1118 -0.75965,-2.0551 -0.92246,-1.3011 -2.74989,-3.0912 -4.12825,-4.0439 -1.36378,-0.9427 -3.68221,-2.0579 -5.10133,-2.454 -2.11716,-0.5908 -4.96283,-0.8513 -6.79229,-0.6217 z m 21.40652,-1.2876 c -1.1467,0.5651 -2.11565,2.4401 -1.7354,3.3581 0.50955,1.2302 2.32821,0.4344 3.15566,-1.3807 0.34412,-0.7549 0.33419,-1.3775 -0.0294,-1.8397 -0.33953,-0.4316 -0.71841,-0.4691 -1.3909,-0.1377 z m 4.79743,-11.0533 c -0.47384,0.1277 -5.52928,-0.031 -6.11306,-0.1915 -0.27527,-0.076 -1.62658,-0.4848 -3.00291,-0.9088 l -2.50243,-0.771 -0.0461,0.3462 c -0.0254,0.1904 0.0509,0.4943 0.16953,0.6753 0.22468,0.343 6.50901,4.4002 7.38355,4.7669 0.4144,0.1738 0.69631,0.1824 1.64445,0.05 0.62936,-0.088 1.51429,-0.1598 1.96651,-0.1597 l 0.82223,0 m 0,39.8538 -0.75073,-0.055 c -1.51692,-0.1108 -3.45929,-0.3633 -3.80513,-0.4948 -0.26592,-0.1011 -0.41034,-0.08 -0.57308,0.082 -0.19473,0.1947 -0.19259,0.2699 0.0206,0.7169 0.13098,0.2747 0.51248,0.6981 0.84778,0.941 0.73971,0.5358 2.91958,1.6407 3.69625,1.8734 l 0.56433,0.169 m 0,3.8592 -1.62865,-0.093 c -1.88564,-0.1077 -4.32483,-0.5069 -6.16461,-1.009 -1.07251,-0.2927 -1.31948,-0.3196 -1.48217,-0.1611 -0.27289,0.2659 0.13941,0.9376 0.98168,1.5993 1.45364,1.142 5.58917,2.8102 7.44847,3.0045 l 0.84528,0.088 m -0.32174,17.8324 c -0.58369,0 -4.43176,-0.8358 -6.54205,-1.4171 -4.48776,-1.2362 -8.09587,-2.6383 -10.56938,-4.1073 -4.039,-2.3988 -9.18228,-6.2453 -12.0079,-8.9805 l -1.48544,-1.4378 0.10261,0.5624 c 0.37211,2.0393 3.6871,6.3042 7.22962,9.3011 7.45542,6.3072 15.96852,10.4961 22.41457,11.0289 l 1.17971,0.098 m 0,7.8236 -0.82223,0 c -0.45222,0 -1.69092,-0.065 -2.75266,-0.1443 -10.89092,-0.8119 -20.28459,-4.3754 -27.84374,-10.5626 -1.94374,-1.5909 -5.06217,-4.7996 -6.52367,-6.7125 -5.87505,-7.6897 -9.06155,-17.1938 -9.48279,-28.2836 l -0.0929,-2.4471 -2.79383,-1.1993 c -3.23781,-1.3898 -2.91781,-0.9908 -3.17899,-3.9642 -0.38808,-4.4182 0.23771,-10.2173 1.28335,-11.8925 l 0.40139,-0.643 2.77927,-0.887 2.77926,-0.887 0.18342,-0.8881 c 0.27928,-1.3521 1.0822,-3.4762 1.71958,-4.5491 1.9527,-3.2868 5.42331,-5.0433 10.62785,-5.3787 l 1.53168,-0.099 0.89925,-1.2712 c 1.11508,-1.5764 2.59311,-3.9749 3.38492,-5.4931 0.52531,-1.0071 0.61698,-1.3256 0.74093,-2.5739 0.27003,-2.7194 0.43829,-3.8339 0.63674,-4.2177 0.38174,-0.7382 3.30673,-1.9834 6.36084,-2.7078 0.6685,-0.1586 1.4085,-0.2898 1.64445,-0.2915 0.23594,0 0.51259,-0.056 0.61479,-0.1211 0.28955,-0.1837 1.3689,-4.0784 1.15043,-4.1512 -0.43202,-0.144 -2.14205,-1.1128 -3.12368,-1.7697 -2.30594,-1.5431 -4.27829,-3.4154 -5.90285,-5.6035 -1.52456,-2.0535 -1.61957,-1.4475 0.91749,-5.8523 m 2.33994,-3.5759 c 1.13324,1.8886 3.43381,4.3027 5.35331,5.6174 1.35714,0.9294 4.25891,2.4448 4.68172,2.4448 0.1217,0 0.76972,-1.6071 1.05542,-2.6176 0.42826,-1.5146 0.51419,-4.127 0.21598,-6.5662 l -0.23991,-1.9625 0.55693,-0.8259 c 1.52613,-2.2631 3.74858,-6.3569 3.74858,-6.9049 0,-0.3708 -0.34838,-0.51 -0.78216,-0.3123 -0.46907,0.2137 -3.18084,2.5554 -4.75212,4.1036 -1.77587,1.7498 -2.18498,2.731 -1.75856,4.2179 0.12953,0.4516 0.096,0.5665 -0.35676,1.2239 -1.08172,1.5707 -2.34737,2.6083 -2.94862,2.4174 -0.7297,-0.2316 -1.91892,-1.6673 -2.76246,-3.3351 l -0.38768,-0.7665 m 9.41755,-16.3207 0.63004,-0.026 c 3.38057,-0.1425 7.36876,-7.0693 5.6993,-9.8988 l -0.29914,-0.5071 m 5.45039,40.6176 -3.07441,0.066 c -3.55503,0.076 -3.36597,0 -4.37862,1.7028 -0.50993,0.8563 -1.55235,1.9651 -3.45665,3.6766 l -0.68551,0.6162 0.30019,0.4857 c 0.32433,0.5247 1.07067,1.2128 1.31559,1.2128 0.0832,0 0.70603,-0.4131 1.384,-0.9178 2.22191,-1.6544 2.22791,-1.6562 5.64903,-1.6562 l 2.94638,0 m 25.52578,40.3801 c 1.49282,0.4886 2.66508,1.5308 3.29595,2.9302 0.19925,0.442 0.3808,0.8263 0.40343,0.8541 0.0226,0.028 0.46577,-0.091 0.98477,-0.2636 1.01471,-0.3377 1.36256,-0.2594 1.36256,0.3069 0,0.7924 -1.97331,3.8438 -3.41553,5.2815 -2.38657,2.3792 -5.06015,2.9029 -7.83804,1.5353 -1.57695,-0.7763 -3.52558,-2.8347 -4.54574,-4.8018 -0.53102,-1.0239 -0.44103,-1.1793 0.68267,-1.1793 l 0.90785,0 0.24471,-0.7763 c 0.50897,-1.6147 1.88025,-2.9932 3.65334,-3.6727 1.02077,-0.3912 3.36387,-0.509 4.26403,-0.2143 z m 0.97037,-12.5425 c 3.02706,0.3799 6.03736,1.5392 8.33395,3.2096 2.15822,1.5697 4.30223,4.0994 5.50589,6.4965 l 0.50645,1.0085 1.62108,0.2433 c 2.49917,0.3751 2.65338,0.4349 2.75586,1.0677 0.20838,1.2868 0.64283,6.6767 0.54561,6.7691 -0.0591,0.056 -0.94395,0.4523 -1.96637,0.8803 -1.50342,0.6292 -1.87793,0.8436 -1.95823,1.1206 -0.66873,2.3071 -1.0803,3.4589 -1.62393,4.5448 -1.97208,3.9395 -5.78877,7.2574 -9.95824,8.6571 -3.48839,1.171 -7.40923,1.2243 -10.84036,0.1473 -2.15863,-0.6775 -4.93343,-2.218 -5.75584,-3.1954 -0.75802,-0.9008 -0.86454,-2.845 -0.24641,-4.4971 0.3242,-0.8665 0.92365,-1.4737 1.71943,-1.7416 0.42273,-0.1424 0.48084,-0.1075 1.54866,0.9282 3.46935,3.365 8.60481,4.1816 12.95835,2.0604 2.2813,-1.1116 4.03531,-2.8562 5.15867,-5.1312 0.88117,-1.7845 1.20464,-3.1668 1.20464,-5.1478 0,-3.4707 -1.46976,-6.6423 -4.08964,-8.8252 -1.06935,-0.891 -3.38454,-2.0204 -4.77609,-2.3298 -1.4968,-0.3328 -3.90762,-0.3099 -5.29084,0.05 -3.511,0.9145 -6.35863,3.3384 -7.73948,6.588 l -0.40015,0.9417 -0.91294,-0.021 c -0.53286,-0.012 -1.10411,-0.1195 -1.37217,-0.2581 -1.02362,-0.5293 -1.80332,-2.5325 -1.70943,-4.3919 0.0506,-1.003 0.0909,-1.1118 0.75965,-2.0551 0.92248,-1.3011 2.74991,-3.0912 4.12827,-4.0439 1.36377,-0.9427 3.6822,-2.0579 5.10131,-2.454 2.11718,-0.5908 4.96285,-0.8513 6.7923,-0.6217 z m -21.40652,-1.2876 c 1.14671,0.5651 2.11565,2.4401 1.73541,3.3581 -0.50955,1.2302 -2.32821,0.4344 -3.15566,-1.3807 -0.34413,-0.7549 -0.33419,-1.3775 0.0293,-1.8397 0.33953,-0.4316 0.71841,-0.4691 1.39091,-0.1377 z m -4.79743,-11.0533 c 0.47386,0.1277 5.5293,-0.031 6.11306,-0.1915 0.27527,-0.076 1.62658,-0.4848 3.00291,-0.9088 l 2.50242,-0.771 0.0462,0.3462 c 0.0254,0.1904 -0.0509,0.4943 -0.16954,0.6753 -0.22467,0.343 -6.50902,4.4002 -7.38354,4.7669 -0.4144,0.1738 -0.69633,0.1824 -1.64444,0.05 -0.62937,-0.088 -1.51431,-0.1598 -1.96654,-0.1597 l -0.82222,0 m 0,39.8538 0.75072,-0.055 c 1.51694,-0.1107 3.45931,-0.3633 3.80515,-0.4948 0.26593,-0.1011 0.41034,-0.08 0.57307,0.082 0.19474,0.1947 0.19258,0.2699 -0.0206,0.7169 -0.13097,0.2747 -0.51247,0.6981 -0.84778,0.941 -0.73972,0.5358 -2.91957,1.6407 -3.69624,1.8734 l -0.56434,0.169 m 0,3.8592 1.62865,-0.093 c 1.88565,-0.1077 4.32484,-0.5069 6.16461,-1.009 1.07252,-0.2927 1.31949,-0.3196 1.48216,-0.1611 0.2729,0.2659 -0.13939,0.9376 -0.98168,1.5993 -1.45363,1.142 -5.58915,2.8102 -7.44847,3.0045 l -0.84527,0.088 m 0.32174,17.8324 c 0.58369,0 4.43176,-0.8358 6.54205,-1.4171 4.48776,-1.2362 8.09587,-2.6383 10.56939,-4.1073 4.03898,-2.3988 9.18227,-6.2453 12.0079,-8.9805 l 1.48544,-1.4378 -0.10263,0.5624 c -0.37209,2.0393 -3.68708,6.3042 -7.22961,9.3011 -7.45542,6.3072 -15.96853,10.4961 -22.41457,11.0289 l -1.17971,0.098 m 0,7.8236 0.82222,0 c 0.45223,0 1.69093,-0.065 2.75267,-0.1443 10.89093,-0.8119 20.2846,-4.3754 27.84375,-10.5625 1.94374,-1.591 5.06216,-4.7997 6.52368,-6.7126 5.87504,-7.6897 9.06153,-17.1938 9.48277,-28.2836 l 0.0929,-2.4471 2.79383,-1.1993 c 3.23781,-1.3898 2.91782,-0.9907 3.179,-3.9642 0.38807,-4.4182 -0.23773,-10.2173 -1.28336,-11.8925 l -0.40139,-0.643 -2.77926,-0.887 -2.77926,-0.887 -0.18343,-0.8881 c -0.27928,-1.3521 -1.0822,-3.4762 -1.71957,-4.549 -1.95272,-3.2869 -5.42331,-5.0434 -10.62786,-5.3788 l -1.53167,-0.099 -0.89926,-1.2712 c -1.11506,-1.5764 -2.5931,-3.9749 -3.38491,-5.4931 -0.5253,-1.0071 -0.61698,-1.3256 -0.74093,-2.5739 -0.27003,-2.7194 -0.43829,-3.8339 -0.63676,-4.2177 -0.38172,-0.7382 -3.30671,-1.9834 -6.36083,-2.7078 -0.6685,-0.1586 -1.40851,-0.2898 -1.64445,-0.2915 -0.23594,0 -0.51259,-0.056 -0.61478,-0.1211 -0.28957,-0.1837 -1.36891,-4.0784 -1.15043,-4.1512 0.43202,-0.144 2.14205,-1.1128 3.12367,-1.7697 2.30595,-1.5431 4.2783,-3.4154 5.90286,-5.6035 1.52456,-2.0535 1.61955,-1.4475 -0.9175,-5.8523 m -2.33994,-3.5759 c -1.13324,1.8886 -3.4338,4.3027 -5.35331,5.6174 -1.35715,0.9294 -4.2589,2.4448 -4.68171,2.4448 -0.12172,0 -0.76972,-1.6071 -1.05542,-2.6176 -0.42826,-1.5146 -0.5142,-4.1269 -0.216,-6.5662 l 0.23992,-1.9625 -0.55694,-0.8259 c -1.52612,-2.2631 -3.74857,-6.3569 -3.74857,-6.9049 0,-0.3708 0.34838,-0.5099 0.78216,-0.3123 0.46906,0.2137 3.18085,2.5554 4.75211,4.1036 1.77589,1.7498 2.185,2.7311 1.75856,4.2179 -0.12951,0.4516 -0.096,0.5665 0.35676,1.2239 1.08174,1.5707 2.34738,2.6083 2.94863,2.4175 0.72969,-0.2316 1.91892,-1.6674 2.76248,-3.3352 l 0.38767,-0.7665 m -9.41756,-16.3207 -0.63003,-0.026 c -3.38059,-0.1425 -7.36876,-7.0693 -5.69932,-9.8988 l 0.29916,-0.5071 m -5.4504,40.6176 3.07442,0.066 c 3.55501,0.076 3.36596,0 4.37862,1.7028 0.50991,0.8563 1.55235,1.9651 3.45665,3.6766 l 0.68549,0.6162 -0.30019,0.4857 c -0.32431,0.5247 -1.07065,1.2128 -1.31557,1.2128 -0.0832,0 -0.70604,-0.4131 -1.384,-0.9178 -2.22191,-1.6544 -2.22793,-1.6562 -5.64903,-1.6562 l -2.94639,0 m -69.96743,-125.0702 c 0.32325,-1.5371 0.007,-3.0734 -0.88966,-4.3195 -0.28315,-0.3935 -0.52522,-0.7429 -0.53794,-0.7764 -0.0127,-0.034 0.31158,-0.3579 0.72066,-0.721 0.79979,-0.71 0.90586,-1.0504 0.4155,-1.3335 -0.68623,-0.3962 -4.31548,-0.2129 -6.28172,0.3172 -3.25371,0.8772 -5.04403,2.9308 -5.24865,6.0203 -0.11615,1.7538 0.69215,4.4706 1.8856,6.3376 0.62122,0.9718 0.80085,0.9716 1.3627,0 l 0.45393,-0.7862 0.79467,0.1762 c 1.65277,0.3666 3.53227,-0.1317 5.00729,-1.3275 0.84917,-0.6884 2.12272,-2.6587 2.31762,-3.5856 z m 11.34728,5.4309 c 1.18455,-2.8115 1.68569,-5.9981 1.38742,-8.8222 -0.2803,-2.6539 -1.39913,-5.7756 -2.87321,-8.0165 l -0.62021,-0.9429 0.59984,-1.5255 c 0.92476,-2.3519 0.95012,-2.5153 0.45331,-2.9205 -1.01018,-0.8239 -5.46077,-3.8951 -5.58943,-3.8571 -0.0782,0.023 -0.86366,0.5914 -1.7455,1.2628 -1.2967,0.9874 -1.66955,1.2045 -1.94963,1.1356 -2.33233,-0.5744 -3.53562,-0.7939 -4.7479,-0.8661 -4.39768,-0.2618 -9.17949,1.3845 -12.476347,4.2956 -2.75832,2.4355 -4.76489,5.8044 -5.54778,9.3143 -0.49253,2.2082 -0.54587,5.3815 -0.11064,6.5824 0.40115,1.1069 2.03158,2.1712 3.77142,2.462 0.91251,0.1525 1.7381,-0.063 2.368007,-0.6183 0.33464,-0.2949 0.33352,-0.3626 -0.0295,-1.8053 -1.179547,-4.687 0.68105,-9.5427 4.69486,-12.2524 2.10326,-1.4199 4.49119,-2.0666 7.02302,-1.902 1.98601,0.1292 3.34484,0.5402 5.06049,1.5307 3.00569,1.7353 5.01754,4.594 5.59803,7.9543 0.23695,1.3716 0.0574,3.9413 -0.37041,5.3011 -0.46016,1.4627 -1.68545,3.5391 -2.68908,4.5568 -2.54746,2.5834 -6.07048,3.8376 -9.57512,3.4086 l -1.01558,-0.1243 -0.43858,0.801 c -0.256,0.4675 -0.44855,1.0159 -0.46254,1.3174 -0.0534,1.1511 1.29156,2.828 2.94875,3.6763 0.89395,0.4577 1.00833,0.4772 2.15961,0.3697 1.58802,-0.1483 4.052,-0.8359 5.56628,-1.5532 1.49825,-0.7097 3.62332,-2.1599 4.67586,-3.1909 1.57027,-1.5381 3.21868,-3.8723 3.93457,-5.5714 z m -9.58815,19.1824 c 0.0839,-1.2757 -1.05537,-3.0523 -2.0405,-3.182 -1.32013,-0.1738 -1.54034,1.7991 -0.3821,3.4233 0.4817,0.6754 1.02584,0.9781 1.60787,0.8944 0.54358,-0.078 0.76551,-0.3876 0.81473,-1.1357 z m 7.17372,9.6813 c 0.12629,-0.4742 2.79111,-4.7732 3.22233,-5.1983 0.20334,-0.2005 1.23319,-1.1662 2.28858,-2.1462 l 1.91886,-1.7817 -0.27674,-0.213 c -0.15222,-0.1172 -0.45354,-0.2031 -0.66963,-0.1909 -0.40931,0.023 -7.06514,3.4369 -7.82001,4.0109 -0.35772,0.272 -0.50608,0.5119 -0.86541,1.3992 -0.23852,0.589 -0.61876,1.3914 -0.84495,1.7829 l -0.41112,0.7121 m -34.514387,-19.9269 0.42282,-0.6227 c 0.85436,-1.2584 2.04428,-2.8142 2.33106,-3.048 0.22052,-0.1797 0.27475,-0.3152 0.21519,-0.5375 -0.0713,-0.266 -0.13746,-0.3017 -0.63116,-0.3406 -0.30335,-0.024 -0.86081,0.095 -1.23882,0.2637 -0.83391,0.3727 -2.88063,1.7081 -3.47048,2.2644 l -0.42861,0.4041 m -3.34216,-1.9296 0.89488,-1.3639 c 1.03609,-1.5792 2.60146,-3.492 3.95616,-4.8342 0.78974,-0.7825 0.93647,-0.9829 0.88055,-1.2031 -0.0938,-0.3692 -0.88164,-0.348 -1.87585,0.051 -1.71584,0.6878 -5.22828,3.4352 -6.32623,4.9483 l -0.49916,0.6878 m -15.28246,-9.1948 c 0.2938,-0.5044 2.93971,-3.4202 4.49827,-4.9571 3.31447,-3.2684 6.33282,-5.692 8.84176,-7.0997 4.09684,-2.2985 9.99969,-4.8294 13.78125,-5.9089 l 1.98792,-0.5675 -0.5384,-0.1923 c -1.95214,-0.6974 -7.30309,0.041 -11.66979,1.6105 -9.18994,3.3029 -17.0741,8.5811 -20.75861,13.8971 l -0.67432,0.9729 m -6.77547,-3.9119 0.41136,-0.7119 c 0.22624,-0.3915 0.90185,-1.4318 1.50127,-2.3117 6.14865,-9.0258 13.93158,-15.3793 23.06934,-18.8321 2.34966,-0.8879 6.68771,-1.9841 9.07512,-2.2934 9.59697,-1.2431 19.421007,0.7494 29.235627,5.9294 l 2.16578,1.1431 2.43549,-1.8199 c 2.82253,-2.1091 2.31695,-2.0315 5.02266,-0.7709 4.02028,1.873 8.72952,5.3145 9.65747,7.0576 l 0.35622,0.6691 -0.62149,2.8504 -0.62149,2.8504 0.67737,0.6029 c 1.03135,0.918 2.46941,2.6754 3.07986,3.7638 1.87017,3.3345 1.65601,7.2184 -0.65583,11.8933 l -0.68036,1.3759 0.65129,1.4143 c 0.80764,1.7539 2.14584,4.2332 3.06468,5.678 0.60958,0.9585 0.83954,1.1971 1.85862,1.9286 2.22008,1.5936 3.10115,2.2966 3.33429,2.6603 0.44842,0.6997 0.0643,3.8554 -0.83539,6.8626 -0.19692,0.6582 -0.45332,1.3646 -0.56977,1.5699 -0.1165,0.2052 -0.20762,0.472 -0.20257,0.5929 0.0143,0.3426 2.84753,3.2247 3.01984,3.0719 0.34072,-0.3021 2.03475,-1.2987 3.09444,-1.8203 2.48931,-1.2255 5.09698,-1.9974 7.80424,-2.3103 2.54061,-0.2936 2.06333,-0.6788 4.60945,3.7207 m 1.92689,3.8144 c -2.20223,0.037 -5.44314,0.8225 -7.54147,1.8275 -1.48352,0.7105 -4.24673,2.4659 -4.45814,2.832 -0.0608,0.1054 1.00696,1.4702 1.73917,2.2228 1.09755,1.1282 3.31697,2.5088 5.57852,3.4702 l 1.81955,0.7735 0.43679,0.8952 c 1.19686,2.4533 3.63091,6.4248 4.10548,6.6988 0.32118,0.1855 0.61585,-0.047 0.66157,-0.5212 0.0495,-0.5131 -0.62265,-4.0324 -1.17777,-6.1672 -0.62743,-2.4129 -1.27265,-3.2578 -2.77353,-3.6319 -0.45588,-0.1137 -0.53862,-0.2001 -0.88158,-0.921 -0.81933,-1.7221 -1.08512,-3.337 -0.61922,-3.7623 0.56541,-0.5161 2.40342,-0.8281 4.26955,-0.7247 l 0.85764,0.048 m 9.42542,16.3161 -0.29202,0.5589 c -1.56694,2.9989 2.43781,9.9162 5.7229,9.8852 l 0.58869,-0.01 m -37.90106,-15.5886 1.4805,-2.6952 c 1.71196,-3.1166 1.68113,-2.9161 0.71463,-4.6434 -0.48664,-0.8698 -0.92567,-2.327 -1.45575,-4.8319 l -0.19081,-0.9017 -0.57074,0.017 c -0.61662,0.018 -1.58564,0.3208 -1.70809,0.5329 -0.0416,0.072 0.005,0.818 0.10283,1.6575 0.32176,2.7514 0.32029,2.7575 -1.39027,5.7203 l -1.47319,2.5516 m -47.733257,1.9158 c -1.16958,1.0486 -2.65825,1.5427 -4.18561,1.3893 -0.48241,-0.048 -0.90603,-0.083 -0.94137,-0.078 -0.0353,0.01 -0.1542,0.4489 -0.26413,0.9847 -0.21492,1.0476 -0.45669,1.3097 -0.94705,1.0266 -0.68624,-0.3963 -2.34217,-3.6309 -2.86619,-5.5988 -0.86713,-3.2564 0.0161,-5.8336 2.5894,-7.5556 1.46079,-0.9775 4.21773,-1.6359 6.43134,-1.5358 1.15224,0.052 1.24187,0.2077 0.68002,1.1809 l -0.45392,0.7862 0.54996,0.6001 c 1.14381,1.2481 1.65202,3.1249 1.35395,5.0002 -0.1716,1.0796 -1.24115,3.1677 -1.9464,3.7999 z m 10.376907,7.1116 c -1.842517,2.4316 -4.351677,4.4589 -6.946547,5.6127 -2.43851,1.0842 -5.70135,1.6761 -8.3791,1.52 l -1.12665,-0.066 -1.02124,1.2822 c -1.57441,1.9768 -1.70326,2.0805 -2.30255,1.8528 -1.21856,-0.4629 -6.10359,-2.7816 -6.13503,-2.912 -0.0191,-0.079 0.0803,-1.0436 0.22087,-2.1431 0.20672,-1.6166 0.20837,-2.0481 0.009,-2.2562 -1.66358,-1.7326 -2.45532,-2.665 -3.12397,-3.6787 -2.4256,-3.6776 -3.3907,-8.642 -2.51809,-12.9527 0.73006,-3.6065 2.64433,-7.0287 5.29257,-9.4616 1.6661,-1.5307 4.38757,-3.1635 5.64522,-3.3871 1.15916,-0.206 2.89611,0.6738 4.01782,2.0352 0.58831,0.714 0.81443,1.5368 0.64858,2.3599 -0.0881,0.4373 -0.14732,0.4702 -1.57818,0.8771 -4.64891,1.322 -7.92377,5.3612 -8.2635,10.192 -0.17803,2.5315 0.45588,4.9228 1.86436,7.0331 1.10483,1.6554 2.14019,2.6267 3.85584,3.6172 3.00569,1.7354 6.48729,2.0483 9.68767,0.8709 1.30629,-0.4806 3.44192,-1.9209 4.40568,-2.9713 1.03664,-1.1299 2.22216,-3.2292 2.60176,-4.6072 0.96354,-3.4979 0.28815,-7.176 -1.83564,-9.9966 l -0.61543,-0.8174 0.47436,-0.7803 c 0.27687,-0.4555 0.65556,-0.8965 0.90963,-1.0593 0.97024,-0.6218 3.09488,-0.2954 4.658167,0.7155 0.84331,0.5454 0.91745,0.6347 1.39996,1.6855 0.66555,1.4494 1.30211,3.9271 1.43802,5.5971 0.13448,1.6524 -0.0589,4.2179 -0.42546,5.6449 -0.5469,2.1289 -1.74416,4.7236 -2.85772,6.1931 z m 11.81836,-17.8947 c -1.06277,0.7105 -3.17102,0.6121 -3.7759,-0.1762 -0.81058,-1.0564 0.78787,-2.2335 2.77355,-2.0425 0.82583,0.079 1.36004,0.3993 1.57852,0.9452 0.20405,0.5099 0.0471,0.8568 -0.57617,1.2735 z m 11.97116,1.3719 c -0.34758,0.3465 -2.73819,4.8038 -2.89073,5.3898 -0.0719,0.2763 -0.3934,1.6511 -0.71435,3.055 l -0.58356,2.5527 -0.32287,-0.1332 c -0.17759,-0.073 -0.40263,-0.2912 -0.5001,-0.4845 -0.18463,-0.366 -0.55613,-7.837 -0.43648,-8.7777 0.0567,-0.4458 0.19027,-0.6942 0.77905,-1.4491 0.39084,-0.5011 0.89556,-1.2315 1.12158,-1.6232 l 0.41111,-0.7121 m -34.514397,-19.9269 -0.3279,0.6776 c -0.66258,1.369 -1.41503,3.1775 -1.47408,3.5427 -0.0454,0.2809 -0.13559,0.3956 -0.35788,0.4551 -0.26603,0.071 -0.33006,0.032 -0.61059,-0.3763 -0.17238,-0.2507 -0.34833,-0.7928 -0.39104,-1.2047 -0.0942,-0.9085 0.0389,-3.3487 0.22576,-4.1377 l 0.13574,-0.5733 m -3.34217,-1.9296 -0.73377,1.457 c -0.84956,1.6869 -1.72338,3.9989 -2.20845,5.8432 -0.28277,1.0752 -0.38301,1.3025 -0.60162,1.3642 -0.36669,0.1034 -0.74223,-0.5895 -0.89416,-1.6498 -0.26221,-1.8299 0.36088,-6.2455 1.12223,-7.9529 l 0.34612,-0.7762 m -15.6042,-8.6376 c -0.28989,0.5067 -1.49205,4.256 -2.04377,6.3742 -1.17329,4.5046 -1.76306,8.3304 -1.72763,11.207 0.0578,4.6972 0.81741,11.0747 1.77333,14.8894 l 0.50249,2.0053 -0.43577,-0.3701 c -1.58005,-1.3419 -3.616,-6.3451 -4.44018,-10.9115 -1.73451,-9.6102 -1.10558,-19.0772 1.65595,-24.9261 l 0.50541,-1.0704 m -6.77548,-3.9118 -0.41086,0.7122 c -0.22599,0.3917 -0.78907,1.4969 -1.25139,2.456 -4.74228,9.8378 -6.35303,19.7547 -4.77441,29.3947 0.40592,2.4788 1.62555,6.7838 2.55144,9.0059 3.72192,8.9328 10.35947,16.4444 19.75286,22.3541 l 2.07282,1.3041 -0.35834,3.0192 c -0.41529,3.4989 -0.60086,3.0222 1.84366,4.7352 3.63221,2.5452 8.96725,4.9027 10.94083,4.8348 l 0.75761,-0.026 2.15777,-1.9634 2.15777,-1.9635 0.8608,0.2852 c 1.31062,0.4342 3.55161,0.8009 4.79943,0.7854 3.82289,-0.048 7.07933,-2.1751 9.972027,-6.5146 l 0.85132,-1.2772 1.55054,-0.1431 c 1.92271,-0.1775 4.73894,-0.2583 6.44959,-0.1849 1.13489,0.049 1.45652,0.1285 2.59955,0.6453 2.49011,1.1258 3.53945,1.5374 3.97104,1.5574 0.83016,0.038 3.371,-1.872 5.52545,-4.1547 0.47158,-0.4997 0.95518,-1.075 1.07467,-1.2784 0.11946,-0.2035 0.30499,-0.4158 0.41222,-0.4719 0.30385,-0.159 4.21645,0.8537 4.17028,1.0793 -0.0913,0.4461 -0.10731,2.4115 -0.0292,3.59 0.18338,2.7686 0.81869,5.4128 1.9014,7.9138 1.01604,2.347 0.44377,2.1263 5.52695,2.1316 m 4.26681,-0.2385 c -1.06899,-1.9257 -2.00934,-5.1251 -2.18814,-7.4448 -0.12637,-1.6401 0.0122,-4.9107 0.22358,-5.2769 0.0609,-0.1054 1.77666,0.137 2.79458,0.3948 1.5258,0.3864 3.83117,1.6181 5.79452,3.096 l 1.57962,1.189 0.99372,-0.069 c 2.72298,-0.1901 7.3795,-0.068 7.85406,0.206 0.32119,0.1855 0.26748,0.5567 -0.12057,0.8336 -0.41964,0.2993 -3.80351,1.477 -5.92991,2.0636 -2.4033,0.6631 -3.45763,0.5268 -4.53208,-0.586 -0.32635,-0.338 -0.44258,-0.3664 -1.23834,-0.303 -1.90106,0.1515 -3.4325,0.7288 -3.56785,1.3449 -0.16428,0.7477 0.4845,2.4955 1.50708,4.0599 l 0.46997,0.719 m 18.84291,0 0.33801,-0.5323 c 1.81365,-2.8565 9.80658,-2.8469 11.42228,0.014 l 0.28951,0.5126 m -32.45065,-25.0289 -1.59392,2.6297 c -1.84307,3.0409 -1.68483,2.914 -3.66399,2.9406 -0.99656,0.014 -2.47801,0.3618 -4.91239,1.1553 l -0.87632,0.2856 -0.27055,-0.5029 c -0.2923,-0.5432 -0.51497,-1.5336 -0.39252,-1.7457 0.0416,-0.072 0.7107,-0.4049 1.48684,-0.7397 2.54369,-1.097 2.54821,-1.1013 4.25877,-4.0641 l 1.47318,-2.5517 m 143.29747,1.9414 c 1.16958,1.0486 2.65825,1.5427 4.18562,1.3893 0.48241,-0.048 0.90602,-0.083 0.94136,-0.078 0.0353,0.01 0.1542,0.4489 0.26413,0.9847 0.21492,1.0476 0.4567,1.3097 0.94706,1.0266 0.68624,-0.3962 2.34216,-3.6309 2.86618,-5.5988 0.86714,-3.2564 -0.0161,-5.8336 -2.5894,-7.5556 -1.4608,-0.9775 -4.21772,-1.6359 -6.43134,-1.5358 -1.15223,0.052 -1.24187,0.2077 -0.68001,1.1809 l 0.45392,0.7862 -0.54996,0.6001 c -1.14382,1.2481 -1.65203,3.1249 -1.35395,5.0002 0.17159,1.0796 1.24115,3.1677 1.94639,3.7999 z m -10.3769,7.1116 c 1.84251,2.4316 4.35167,4.4589 6.94654,5.6127 2.43852,1.0842 5.70135,1.6761 8.3791,1.52 l 1.12665,-0.066 1.02124,1.2822 c 1.57442,1.9768 1.70325,2.0805 2.30255,1.8528 1.21857,-0.4629 6.1036,-2.7816 6.13504,-2.912 0.0191,-0.079 -0.0803,-1.0436 -0.22087,-2.1431 -0.20673,-1.6166 -0.20837,-2.0481 -0.009,-2.2562 1.6636,-1.7326 2.45532,-2.665 3.12397,-3.6787 2.4256,-3.6776 3.39071,-8.642 2.51811,-12.9527 -0.73008,-3.6065 -2.64435,-7.0287 -5.29258,-9.4616 -1.6661,-1.5307 -4.38757,-3.1635 -5.64521,-3.3871 -1.15917,-0.206 -2.89612,0.6738 -4.01782,2.0352 -0.58832,0.714 -0.81445,1.5368 -0.64859,2.3599 0.0881,0.4373 0.14731,0.4702 1.57819,0.8771 4.64888,1.322 7.92376,5.3612 8.26348,10.192 0.17803,2.5315 -0.45588,4.9228 -1.86436,7.0331 -1.10482,1.6554 -2.14018,2.6267 -3.85583,3.6172 -3.0057,1.7354 -6.4873,2.0483 -9.68767,0.8709 -1.30629,-0.4806 -3.44193,-1.9209 -4.40568,-2.9713 -1.03665,-1.1299 -2.22217,-3.2292 -2.60176,-4.6072 -0.96355,-3.4979 -0.28815,-7.176 1.83563,-9.9966 l 0.61544,-0.8174 -0.47436,-0.7803 c -0.27687,-0.4555 -0.65556,-0.8964 -0.90962,-1.0593 -0.97024,-0.6218 -3.0949,-0.2954 -4.65819,0.7155 -0.8433,0.5454 -0.91744,0.6347 -1.39995,1.6855 -0.66555,1.4494 -1.30211,3.9271 -1.43802,5.5971 -0.13449,1.6524 0.0589,4.2179 0.42545,5.6449 0.5469,2.1289 1.74416,4.7236 2.85773,6.1931 z m -11.81836,-17.8947 c 1.06277,0.7105 3.17101,0.6121 3.7759,-0.1762 0.81058,-1.0564 -0.78788,-2.2335 -2.77356,-2.0425 -0.82583,0.079 -1.36004,0.3993 -1.57852,0.9452 -0.20405,0.5099 -0.0471,0.8568 0.57618,1.2735 z m -11.97117,1.3719 c 0.34758,0.3465 2.73819,4.8038 2.89074,5.3898 0.0719,0.2763 0.39339,1.6511 0.71434,3.055 l 0.58357,2.5527 0.32287,-0.1332 c 0.17759,-0.073 0.40262,-0.2912 0.50009,-0.4845 0.18464,-0.366 0.55613,-7.837 0.43648,-8.7777 -0.0567,-0.4458 -0.19026,-0.6942 -0.77904,-1.4491 -0.39085,-0.5011 -0.89556,-1.2315 -1.12158,-1.6232 l -0.41111,-0.7121 m 34.51439,-19.9269 0.32791,0.6776 c 0.66257,1.369 1.41502,3.1775 1.47408,3.5427 0.0454,0.2809 0.13559,0.3956 0.35788,0.4551 0.26602,0.071 0.33004,0.032 0.61059,-0.3763 0.17236,-0.2507 0.34833,-0.7928 0.39103,-1.2047 0.0942,-0.9085 -0.0389,-3.3487 -0.22576,-4.1377 l -0.13573,-0.5732 m 3.34217,-1.9296 0.73376,1.4569 c 0.84955,1.6869 1.72339,3.9989 2.20846,5.8432 0.28277,1.0752 0.38301,1.3025 0.60161,1.3642 0.3667,0.1034 0.74223,-0.5895 0.89416,-1.6498 0.26221,-1.8299 -0.36087,-6.2455 -1.12223,-7.9529 l -0.34612,-0.7762 m 15.6042,-8.6375 c 0.2899,0.5066 1.49206,4.2559 2.04378,6.3741 1.17329,4.5046 1.76305,8.3304 1.72763,11.207 -0.0579,4.6972 -0.81742,11.0747 -1.77335,14.8894 l -0.50248,2.0053 0.43578,-0.3701 c 1.58004,-1.3419 3.616,-6.3451 4.44017,-10.9115 1.73452,-9.6102 1.10558,-19.0772 -1.65595,-24.9261 l -0.5054,-1.0704 m 6.77547,-3.9118 0.41086,0.7122 c 0.22599,0.3917 0.78908,1.4969 1.2514,2.456 4.74228,9.8378 6.35302,19.7547 4.77441,29.3947 -0.40592,2.4788 -1.62555,6.7838 -2.55145,9.0059 -3.72191,8.9328 -10.35947,16.4444 -19.75285,22.3541 l -2.07283,1.3041 0.35835,3.0192 c 0.41527,3.4989 0.60085,3.0222 -1.84367,4.7352 -3.6322,2.5452 -8.96726,4.9027 -10.94083,4.8348 l -0.7576,-0.026 -2.15778,-1.9634 -2.15777,-1.9634 -0.86079,0.2851 c -1.31063,0.4342 -3.55161,0.8009 -4.79944,0.7854 -3.82288,-0.048 -7.07932,-2.1751 -9.97203,-6.5146 l -0.85132,-1.2772 -1.55053,-0.1431 c -1.92272,-0.1775 -4.73895,-0.2583 -6.4496,-0.1849 -1.13489,0.049 -1.45651,0.1285 -2.59954,0.6453 -2.49012,1.1258 -3.53945,1.5374 -3.97105,1.5574 -0.83016,0.038 -3.37099,-1.872 -5.52545,-4.1547 -0.47157,-0.4997 -0.95517,-1.075 -1.07467,-1.2784 -0.11945,-0.2035 -0.30499,-0.4158 -0.41222,-0.4719 -0.30385,-0.1589 -4.21644,0.8537 -4.17027,1.0793 0.0913,0.4461 0.1073,2.4115 0.0292,3.59 -0.18338,2.7686 -0.81869,5.4128 -1.9014,7.9138 -1.01604,2.347 -0.44376,2.1263 -5.52695,2.1316 m -4.26681,-0.2385 c 1.06899,-1.9257 2.00934,-5.1251 2.18815,-7.4448 0.12637,-1.6401 -0.0122,-4.9107 -0.22358,-5.2769 -0.0608,-0.1054 -1.77667,0.137 -2.79458,0.3948 -1.52581,0.3864 -3.83117,1.6181 -5.79452,3.096 l -1.57963,1.189 -0.99372,-0.069 c -2.72298,-0.1901 -7.3795,-0.068 -7.85406,0.206 -0.32118,0.1855 -0.26747,0.5567 0.12058,0.8336 0.41963,0.2993 3.8035,1.4769 5.9299,2.0636 2.40331,0.6631 3.45764,0.5268 4.53209,-0.586 0.32635,-0.338 0.44257,-0.3664 1.23833,-0.303 1.90106,0.1515 3.4325,0.7288 3.56785,1.3449 0.16428,0.7477 -0.4845,2.4955 -1.50708,4.0599 l -0.46996,0.719 m -18.84291,0 -0.33801,-0.5323 c -1.81365,-2.8565 -9.80658,-2.8469 -11.42229,0.014 l -0.28952,0.5126 m 32.45065,-25.0289 1.59392,2.6297 c 1.84306,3.0409 1.68484,2.914 3.664,2.9406 0.99655,0.014 2.47801,0.3618 4.91239,1.1553 l 0.87631,0.2856 0.27055,-0.5029 c 0.2923,-0.5432 0.51498,-1.5336 0.39251,-1.7457 -0.0416,-0.072 -0.71069,-0.4049 -1.48684,-0.7397 -2.54367,-1.097 -2.5482,-1.1013 -4.25875,-4.0641 l -1.47319,-2.5517 m 22.20748,-42.2961 c -0.32325,-1.5371 -0.007,-3.0734 0.88966,-4.3195 0.28315,-0.3935 0.52523,-0.7429 0.53794,-0.7764 0.0127,-0.033 -0.31158,-0.3579 -0.72065,-0.721 -0.79979,-0.71 -0.90587,-1.0504 -0.41551,-1.3335 0.68624,-0.3962 4.31549,-0.213 6.28173,0.3172 3.2537,0.8772 5.04403,2.9308 5.24865,6.0203 0.11615,1.7538 -0.69216,4.4706 -1.8856,6.3376 -0.62123,0.9718 -0.80085,0.9716 -1.36271,0 l -0.45392,-0.7862 -0.79467,0.1763 c -1.65277,0.3665 -3.53228,-0.1318 -5.0073,-1.3276 -0.84916,-0.6884 -2.12271,-2.6587 -2.31762,-3.5856 z m -11.34729,5.4309 c -1.18453,-2.8115 -1.68567,-5.9981 -1.3874,-8.8222 0.28029,-2.6539 1.39913,-5.7756 2.87321,-8.0165 l 0.62021,-0.9429 -0.59985,-1.5255 c -0.92475,-2.3519 -0.95012,-2.5153 -0.4533,-2.9205 1.01018,-0.8239 5.46076,-3.8951 5.58942,-3.8571 0.0782,0.023 0.86367,0.5914 1.7455,1.2628 1.29669,0.9874 1.66956,1.2046 1.94963,1.1356 2.33232,-0.5744 3.53561,-0.7939 4.7479,-0.8661 4.39767,-0.2618 9.17948,1.3846 12.47634,4.2956 2.75833,2.4355 4.76489,5.8044 5.54777,9.3143 0.49254,2.2083 0.54587,5.3815 0.11064,6.5825 -0.40115,1.1068 -2.03157,2.1712 -3.77141,2.4619 -0.91251,0.1525 -1.7381,-0.063 -2.36802,-0.6182 -0.33463,-0.295 -0.33351,-0.3627 0.0295,-1.8053 1.17955,-4.6871 -0.68105,-9.5428 -4.69487,-12.2525 -2.10326,-1.4199 -4.49117,-2.0666 -7.02301,-1.9019 -1.98601,0.1291 -3.34484,0.5401 -5.06049,1.5306 -3.00569,1.7354 -5.01754,4.594 -5.59804,7.9544 -0.23694,1.3715 -0.0574,3.9412 0.37042,5.3011 0.46016,1.4626 1.68546,3.539 2.68907,4.5568 2.54747,2.5833 6.07049,3.8375 9.57512,3.4085 l 1.01559,-0.1243 0.43858,0.801 c 0.25599,0.4675 0.44856,1.016 0.46253,1.3174 0.0534,1.1512 -1.29156,2.828 -2.94874,3.6763 -0.89395,0.4577 -1.00833,0.4773 -2.1596,0.3697 -1.58803,-0.1483 -4.05201,-0.8359 -5.56629,-1.5532 -1.49825,-0.7097 -3.62332,-2.1599 -4.67586,-3.1909 -1.57027,-1.5381 -3.21868,-3.8723 -3.93458,-5.5714 z m 9.58816,19.1824 c -0.0839,-1.2757 1.05537,-3.0523 2.0405,-3.182 1.32013,-0.1738 1.54035,1.7991 0.38211,3.4233 -0.48171,0.6754 -1.02585,0.9781 -1.60787,0.8944 -0.54358,-0.078 -0.76551,-0.3876 -0.81474,-1.1357 z m -7.17372,9.6813 c -0.12628,-0.4742 -2.79111,-4.7732 -3.22233,-5.1983 -0.20334,-0.2005 -1.23318,-1.1662 -2.28857,-2.1462 l -1.91886,-1.7817 0.27673,-0.213 c 0.15222,-0.1172 0.45354,-0.2031 0.66963,-0.1909 0.40932,0.023 7.06515,3.4369 7.82002,4.0109 0.35771,0.272 0.50607,0.5119 0.86541,1.3992 0.23852,0.589 0.61875,1.3914 0.84494,1.7829 l 0.41112,0.7121 m 34.51439,-19.9269 -0.42282,-0.6227 c -0.85436,-1.2584 -2.04427,-2.8142 -2.33106,-3.048 -0.22053,-0.1797 -0.27475,-0.3152 -0.21519,-0.5375 0.0713,-0.266 0.13747,-0.3017 0.63117,-0.3406 0.30335,-0.024 0.8608,0.095 1.23881,0.2637 0.83391,0.3727 2.88063,1.7081 3.47049,2.2643 l 0.4286,0.4042 m 3.34217,-1.9296 -0.89488,-1.3639 c -1.03609,-1.5792 -2.60147,-3.492 -3.95616,-4.8342 -0.78976,-0.7825 -0.93648,-0.9829 -0.88056,-1.2031 0.0938,-0.3692 0.88164,-0.348 1.87585,0.051 1.71585,0.6878 5.22828,3.4352 6.32624,4.9483 l 0.49915,0.6878 m 15.28246,-9.1948 c -0.2938,-0.5044 -2.9397,-3.4201 -4.49827,-4.9571 -3.31447,-3.2684 -6.3328,-5.692 -8.84176,-7.0997 -4.09684,-2.2985 -9.99969,-4.8294 -13.78123,-5.9089 l -1.98793,-0.5675 0.53839,-0.1923 c 1.95215,-0.6974 7.30309,0.041 11.66979,1.6105 9.18994,3.3029 17.07411,8.5811 20.75862,13.8971 l 0.67431,0.9729 m 6.77548,-3.9118 -0.41137,-0.712 c -0.22624,-0.3915 -0.90185,-1.4318 -1.50127,-2.3117 -6.14864,-9.0258 -13.93157,-15.3793 -23.06934,-18.8321 -2.34965,-0.8879 -6.68771,-1.9841 -9.07512,-2.2934 -9.59697,-1.2431 -19.421,0.7494 -29.23564,5.9295 l -2.16576,1.143 -2.4355,-1.8199 c -2.82251,-2.1091 -2.31695,-2.0315 -5.02265,-0.7709 -4.02028,1.873 -8.72953,5.3145 -9.65748,7.0576 l -0.35621,0.6692 0.62149,2.8503 0.62149,2.8504 -0.67738,0.6029 c -1.03134,0.918 -2.46941,2.6754 -3.07985,3.7638 -1.87018,3.3345 -1.65602,7.2184 0.65582,11.8933 l 0.68036,1.3758 -0.65129,1.4144 c -0.80764,1.7539 -2.14583,4.2332 -3.06467,5.678 -0.60959,0.9585 -0.83954,1.1971 -1.85862,1.9286 -2.22008,1.5936 -3.10115,2.2966 -3.33429,2.6603 -0.44843,0.6997 -0.0643,3.8554 0.83538,6.8626 0.19693,0.6582 0.45333,1.3647 0.56978,1.5699 0.11649,0.2052 0.20761,0.472 0.20257,0.5929 -0.0143,0.3426 -2.84754,3.2247 -3.01985,3.0719 -0.34072,-0.3021 -2.03474,-1.2986 -3.09443,-1.8203 -2.48932,-1.2255 -5.09698,-1.9974 -7.80425,-2.3103 -2.5406,-0.2936 -2.06333,-0.6788 -4.60945,3.7207 m -1.92688,3.8144 c 2.20223,0.037 5.44314,0.8225 7.54146,1.8275 1.48352,0.7105 4.24673,2.4659 4.45814,2.832 0.0609,0.1054 -1.00696,1.4702 -1.73917,2.2228 -1.09754,1.1282 -3.31697,2.5088 -5.57852,3.4702 l -1.81955,0.7735 -0.43678,0.8952 c -1.19686,2.4533 -3.63093,6.4248 -4.10549,6.6988 -0.32118,0.1855 -0.61585,-0.047 -0.66157,-0.5212 -0.0494,-0.5131 0.62264,-4.0324 1.17778,-6.1672 0.62742,-2.4129 1.27264,-3.2578 2.77352,-3.6319 0.45588,-0.1137 0.53862,-0.2001 0.88158,-0.921 0.81933,-1.7221 1.08513,-3.337 0.61923,-3.7623 -0.56542,-0.5161 -2.40342,-0.8281 -4.26956,-0.7248 l -0.85763,0.048 m -9.42536,16.3162 0.29202,0.5588 c 1.56693,2.9989 -2.43781,9.9162 -5.72297,9.8852 l -0.58868,-0.01 m 37.90105,-15.5886 -1.4805,-2.6952 c -1.71195,-3.1166 -1.68112,-2.9161 -0.71462,-4.6434 0.48664,-0.8698 0.92566,-2.327 1.45574,-4.8319 l 0.19082,-0.9017 0.57074,0.017 c 0.61662,0.018 1.58563,0.3208 1.70809,0.5329 0.0416,0.072 -0.005,0.818 -0.10284,1.6575 -0.32176,2.7514 -0.32028,2.7575 1.39027,5.7203 l 1.4732,2.5516 m -22.24894,-67.9801 c 1.49282,-0.4886 2.66507,-1.5308 3.29594,-2.9302 0.19926,-0.442 0.38081,-0.8263 0.40343,-0.8541 0.0226,-0.028 0.46578,0.091 0.98478,0.2636 1.01471,0.3377 1.36256,0.2593 1.36256,-0.3069 0,-0.7924 -1.97331,-3.8438 -3.41554,-5.2815 -2.38656,-2.3792 -5.06014,-2.9029 -7.83803,-1.5354 -1.57695,0.7764 -3.52559,2.8348 -4.54574,4.8018 -0.53102,1.0239 -0.44104,1.1794 0.68267,1.1794 l 0.90785,0 0.24471,0.7763 c 0.50896,1.6146 1.88025,2.9932 3.65334,3.6727 1.02077,0.3912 3.36387,0.509 4.26403,0.2143 z m 0.97037,12.5425 c 3.02705,-0.3799 6.03736,-1.5392 8.33396,-3.2096 2.15821,-1.5697 4.30222,-4.0994 5.50589,-6.4965 l 0.50644,-1.0086 1.62108,-0.2433 c 2.49917,-0.375 2.65338,-0.4348 2.75586,-1.0676 0.20838,-1.2868 0.64283,-6.6767 0.54561,-6.7691 -0.0591,-0.056 -0.94395,-0.4523 -1.96637,-0.8803 -1.50342,-0.6293 -1.87793,-0.8436 -1.95823,-1.1206 -0.66874,-2.3071 -1.0803,-3.4589 -1.62393,-4.5449 -1.97208,-3.9394 -5.78877,-7.2574 -9.95825,-8.657 -3.48838,-1.171 -7.40922,-1.2243 -10.84034,-0.1473 -2.15864,0.6775 -4.93344,2.218 -5.75586,3.1954 -0.75802,0.9008 -0.86454,2.845 -0.2464,4.4971 0.3242,0.8665 0.92365,1.4737 1.71943,1.7416 0.42273,0.1423 0.48084,0.1075 1.54866,-0.9282 3.46935,-3.3651 8.60481,-4.1816 12.95835,-2.0604 2.2813,1.1116 4.03531,2.8562 5.15866,5.1312 0.88118,1.7845 1.20465,3.1668 1.20465,5.1478 0,3.4707 -1.46976,6.6423 -4.08964,8.8252 -1.06934,0.891 -3.38454,2.0203 -4.77609,2.3298 -1.4968,0.3328 -3.90762,0.3098 -5.29084,-0.05 -3.511,-0.9145 -6.35863,-3.3385 -7.73948,-6.588 l -0.40015,-0.9417 -0.91293,0.021 c -0.53287,0.012 -1.10413,0.1195 -1.37218,0.2581 -1.02363,0.5293 -1.80332,2.5325 -1.70942,4.3918 0.0507,1.003 0.0909,1.1119 0.75965,2.0552 0.92247,1.3011 2.74989,3.0912 4.12826,4.0439 1.36377,0.9427 3.6822,2.0579 5.10132,2.454 2.11717,0.5908 4.96284,0.8513 6.79229,0.6217 z m -21.40652,1.2876 c 1.14671,-0.5651 2.11565,-2.4401 1.73541,-3.3581 -0.50956,-1.2302 -2.32822,-0.4344 -3.15566,1.3807 -0.34413,0.7549 -0.3342,1.3775 0.0293,1.8397 0.33954,0.4316 0.71842,0.4691 1.39091,0.1377 z m -4.79743,11.0533 c 0.47385,-0.1278 5.52929,0.031 6.11306,0.1914 0.27527,0.076 1.62658,0.4849 3.00291,0.9089 l 2.50243,0.771 0.0461,-0.3462 c 0.0254,-0.1904 -0.0509,-0.4943 -0.16952,-0.6754 -0.22469,-0.3429 -6.50903,-4.4001 -7.38355,-4.7669 -0.4144,-0.1737 -0.69633,-0.1823 -1.64445,-0.05 -0.62936,0.088 -1.5143,0.1598 -1.96653,0.1597 l -0.82222,0 m 0,-39.8538 0.75073,0.055 c 1.51693,0.1107 3.4593,0.3633 3.80513,0.4948 0.26593,0.1011 0.41035,0.08 0.57308,-0.082 0.19474,-0.1947 0.19258,-0.2699 -0.0206,-0.7169 -0.13097,-0.2747 -0.51247,-0.6981 -0.84778,-0.941 -0.73971,-0.5359 -2.91957,-1.6407 -3.69624,-1.8734 l -0.56434,-0.1691 m 0,-3.8591 1.62865,0.093 c 1.88565,0.1077 4.32484,0.5069 6.16461,1.009 1.07252,0.2927 1.31949,0.3195 1.48217,0.1611 0.27289,-0.2659 -0.1394,-0.9376 -0.98168,-1.5993 -1.45364,-1.142 -5.58916,-2.8102 -7.44847,-3.0046 l -0.84528,-0.088 m 0.32174,-17.8324 c 0.5837,0 4.43176,0.8358 6.54205,1.4171 4.48776,1.2362 8.09587,2.6383 10.56939,4.1073 4.03898,2.3987 9.18227,6.2453 12.0079,8.9805 l 1.48544,1.4378 -0.10262,-0.5624 c -0.3721,-2.0393 -3.6871,-6.3042 -7.22962,-9.3011 -7.45542,-6.3073 -15.96852,-10.4961 -22.41457,-11.029 l -1.17971,-0.097 m 0,-7.8236 0.82222,3e-4 c 0.45223,10e-5 1.69093,0.065 2.75267,0.1442 10.89092,0.812 20.2846,4.3755 27.84375,10.5626 1.94373,1.5909 5.06216,4.7997 6.52367,6.7126 5.87505,7.6897 9.06154,17.1938 9.48278,28.2835 l 0.0929,2.4472 2.79383,1.1992 c 3.23781,1.3899 2.91782,0.9908 3.179,3.9643 0.38807,4.4182 -0.23773,10.2172 -1.28336,11.8924 l -0.40139,0.6431 -2.77926,0.887 -2.77926,0.887 -0.18343,0.888 c -0.27928,1.3521 -1.0822,3.4763 -1.71957,4.5491 -1.95272,3.2869 -5.42332,5.0434 -10.62786,5.3787 l -1.53168,0.099 -0.89924,1.2713 c -1.11508,1.5763 -2.59311,3.9749 -3.38492,5.493 -0.52531,1.0072 -0.61698,1.3257 -0.74093,2.574 -0.27004,2.7194 -0.4383,3.8339 -0.63675,4.2177 -0.38174,0.7382 -3.30673,1.9833 -6.36084,2.7078 -0.6685,0.1586 -1.4085,0.2897 -1.64445,0.2915 -0.23594,0 -0.51259,0.056 -0.61479,0.121 -0.28955,0.1837 -1.3689,4.0784 -1.15042,4.1513 0.43202,0.144 2.14205,1.1128 3.12367,1.7697 2.30595,1.543 4.27829,3.4154 5.90286,5.6035 1.52456,2.0534 1.61956,1.4475 -0.9175,5.8523 m -2.33994,3.5759 c -1.13324,-1.8886 -3.4338,-4.3027 -5.35331,-5.6174 -1.35715,-0.9295 -4.2589,-2.4448 -4.68171,-2.4448 -0.12171,0 -0.76972,1.6071 -1.05542,2.6175 -0.42827,1.5146 -0.5142,4.127 -0.216,6.5663 l 0.23992,1.9625 -0.55693,0.8259 c -1.52612,2.2631 -3.74858,6.3569 -3.74858,6.9048 0,0.3709 0.34838,0.51 0.78216,0.3124 0.46907,-0.2137 3.18084,-2.5555 4.75212,-4.1036 1.77588,-1.7498 2.18499,-2.7311 1.75856,-4.2179 -0.12952,-0.4517 -0.096,-0.5665 0.35676,-1.224 1.08172,-1.5706 2.34737,-2.6082 2.94862,-2.4174 0.7297,0.2316 1.91892,1.6674 2.76247,3.3352 l 0.38768,0.7664 m -9.41756,16.3207 -0.63003,0.027 c -3.38058,0.1424 -7.36877,7.0693 -5.69932,9.8988 l 0.29916,0.507 m -5.4504,-40.6175 3.07441,-0.066 c 3.55502,-0.076 3.36597,0 4.37863,-1.7028 0.50991,-0.8564 1.55235,-1.9652 3.45665,-3.6767 l 0.6855,-0.6161 -0.3002,-0.4857 c -0.32432,-0.5248 -1.07065,-1.2128 -1.31558,-1.2128 -0.0832,0 -0.70603,0.413 -1.384,0.9178 -2.2219,1.6544 -2.22792,1.6561 -5.64902,1.6561 l -2.94639,0 m -25.52577,-40.3803 c -1.49283,-0.4886 -2.66508,-1.5308 -3.29595,-2.9302 -0.19926,-0.442 -0.3808,-0.8263 -0.40343,-0.8541 -0.0226,-0.028 -0.46578,0.091 -0.98478,0.2636 -1.01471,0.3377 -1.36256,0.2593 -1.36256,-0.3069 0,-0.7924 1.97332,-3.8438 3.41554,-5.2815 2.38656,-2.3792 5.06014,-2.9029 7.83804,-1.5354 1.57695,0.7764 3.52558,2.8348 4.54574,4.8018 0.53102,1.0239 0.44103,1.1794 -0.68268,1.1794 l -0.90785,0 -0.24471,0.7763 c -0.50896,1.6146 -1.88025,2.9932 -3.65334,3.6727 -1.02077,0.3912 -3.36387,0.509 -4.26402,0.2143 z m -0.97038,12.5425 c -3.02705,-0.3799 -6.03736,-1.5392 -8.33395,-3.2096 -2.15822,-1.5697 -4.30223,-4.0994 -5.50589,-6.4965 l -0.50644,-1.0086 -1.62109,-0.2433 c -2.49916,-0.375 -2.65337,-0.4348 -2.75586,-1.0676 -0.20838,-1.2868 -0.64282,-6.6767 -0.54561,-6.7691 0.0591,-0.056 0.94395,-0.4523 1.96637,-0.8803 1.50342,-0.6293 1.87794,-0.8436 1.95824,-1.1206 0.66873,-2.3071 1.08029,-3.4589 1.62392,-4.5449 1.97208,-3.9394 5.78878,-7.2574 9.95825,-8.657 3.48839,-1.171 7.40922,-1.2243 10.84035,-0.1473 2.15864,0.6775 4.93344,2.218 5.75585,3.1954 0.75802,0.9008 0.86454,2.845 0.24641,4.4971 -0.3242,0.8665 -0.92366,1.4737 -1.71943,1.7416 -0.42273,0.1423 -0.48084,0.1075 -1.54866,-0.9282 -3.46935,-3.3651 -8.60482,-4.1816 -12.95836,-2.0604 -2.28129,1.1116 -4.0353,2.8562 -5.15866,5.1312 -0.88118,1.7845 -1.20465,3.1668 -1.20465,5.1478 0,3.4707 1.46976,6.6423 4.08964,8.8252 1.06935,0.891 3.38454,2.0203 4.77609,2.3298 1.4968,0.3328 3.90762,0.3098 5.29084,-0.05 3.511,-0.9145 6.35863,-3.3385 7.73949,-6.588 l 0.40014,-0.9417 0.91294,0.021 c 0.53287,0.012 1.10412,0.1195 1.37217,0.2581 1.02363,0.5293 1.80332,2.5325 1.70943,4.3918 -0.0506,1.003 -0.0909,1.1119 -0.75965,2.0552 -0.92248,1.3011 -2.7499,3.0912 -4.12826,4.0439 -1.36377,0.9427 -3.6822,2.0579 -5.10132,2.454 -2.11718,0.5908 -4.96284,0.8513 -6.7923,0.6217 z m 21.40652,1.2876 c -1.1467,-0.5651 -2.11565,-2.4401 -1.7354,-3.3581 0.50955,-1.2302 2.32821,-0.4344 3.15566,1.3807 0.34412,0.7549 0.33419,1.3775 -0.0293,1.8397 -0.33953,0.4316 -0.71842,0.4691 -1.39091,0.1377 z m 4.79743,11.0533 c -0.47385,-0.1278 -5.52928,0.031 -6.11306,0.1914 -0.27527,0.076 -1.62657,0.4849 -3.00291,0.9089 l -2.50242,0.771 -0.0461,-0.3462 c -0.0254,-0.1904 0.0509,-0.4943 0.16953,-0.6754 0.22468,-0.3429 6.50902,-4.4001 7.38354,-4.7669 0.41441,-0.1737 0.69633,-0.1823 1.64445,-0.05 0.62937,0.088 1.51431,0.1598 1.96653,0.1597 l 0.82222,0 m 0,-39.8538 -0.75072,0.055 c -1.51693,0.1107 -3.4593,0.3633 -3.80514,0.4948 -0.26593,0.1011 -0.41034,0.08 -0.57307,-0.082 -0.19475,-0.1947 -0.19259,-0.2699 0.0206,-0.7169 0.13098,-0.2747 0.51248,-0.6981 0.84778,-0.941 0.73972,-0.5359 2.91958,-1.6407 3.69625,-1.8734 l 0.56433,-0.1691 m 0,-3.8591 -1.62864,0.093 c -1.88565,0.1077 -4.32485,0.5069 -6.16462,1.009 -1.07251,0.2927 -1.31949,0.3195 -1.48216,0.1611 -0.2729,-0.2659 0.1394,-0.9376 0.98168,-1.5993 1.45363,-1.142 5.58916,-2.8102 7.44847,-3.0046 l 0.84527,-0.088 m -0.32174,-17.8324 c -0.58369,0 -4.43176,0.8358 -6.54205,1.4171 -4.48775,1.2362 -8.09586,2.6383 -10.56938,4.1073 -4.03899,2.3987 -9.18228,6.2453 -12.00791,8.9805 l -1.48543,1.4378 0.10262,-0.5624 c 0.3721,-2.0393 3.68709,-6.3042 7.22961,-9.3011 7.45543,-6.3073 15.96853,-10.4961 22.41457,-11.029 l 1.17971,-0.097 m 0,-7.8236 -0.82222,3e-4 c -0.45222,1e-4 -1.69092,0.065 -2.75267,0.1442 -10.89092,0.812 -20.28459,4.3755 -27.84374,10.5626 -1.94374,1.5909 -5.06217,4.7997 -6.52368,6.7126 -5.87505,7.6897 -9.06154,17.1938 -9.48278,28.2835 l -0.0929,2.4472 -2.79383,1.1992 c -3.2378,1.3899 -2.91781,0.9908 -3.17899,3.9643 -0.38808,4.4182 0.23772,10.2172 1.28335,11.8924 l 0.40139,0.6431 2.77926,0.887 2.77926,0.887 0.18343,0.888 c 0.27928,1.3521 1.0822,3.4763 1.71958,4.5491 1.95271,3.2869 5.42331,5.0434 10.62785,5.3787 l 1.53168,0.099 0.89925,1.2713 c 1.11508,1.5763 2.59311,3.9749 3.38492,5.493 0.52531,1.0072 0.61698,1.3257 0.74093,2.574 0.27003,2.7194 0.43829,3.8339 0.63675,4.2177 0.38173,0.7382 3.30672,1.9833 6.36083,2.7078 0.6685,0.1586 1.40851,0.2897 1.64445,0.2915 0.23594,0 0.5126,0.056 0.61479,0.121 0.28956,0.1837 1.3689,4.0784 1.15042,4.1513 -0.43201,0.144 -2.14204,1.1128 -3.12367,1.7697 -2.30594,1.543 -4.27829,3.4154 -5.90285,5.6035 -1.52456,2.0534 -1.61956,1.4475 0.9175,5.8523 m 2.33993,3.5759 c 1.13324,-1.8886 3.43381,-4.3027 5.35331,-5.6174 1.35715,-0.9295 4.25891,-2.4448 4.68172,-2.4448 0.12171,0 0.76971,1.6071 1.05542,2.6175 0.42826,1.5146 0.51419,4.127 0.21599,6.5663 l -0.23992,1.9625 0.55694,0.8259 c 1.52612,2.2631 3.74857,6.3569 3.74857,6.9048 0,0.3709 -0.34837,0.51 -0.78215,0.3124 -0.46908,-0.2137 -3.18085,-2.5555 -4.75212,-4.1036 -1.77589,-1.7498 -2.185,-2.7311 -1.75856,-4.2179 0.12952,-0.4517 0.096,-0.5665 -0.35676,-1.224 -1.08173,-1.5706 -2.34737,-2.6082 -2.94863,-2.4174 -0.72969,0.2316 -1.91891,1.6674 -2.76247,3.3352 l -0.38768,0.7664 m 9.41756,16.3207 0.63004,0.027 c 3.38058,0.1424 7.36876,7.0693 5.69931,9.8988 l -0.29916,0.507 m 5.4504,-40.6175 -3.07441,-0.066 c -3.55502,-0.076 -3.36596,0 -4.37863,-1.7028 -0.50991,-0.8564 -1.55234,-1.9652 -3.45664,-3.6767 l -0.6855,-0.6161 0.30019,-0.4857 c 0.32432,-0.5248 1.07066,-1.2128 1.31558,-1.2128 0.0832,0 0.70604,0.413 1.384,0.9178 2.22191,1.6544 2.22792,1.6561 5.64902,1.6561 l 2.94639,0"
     inkscape:connector-curvature="0" />
</svg>
