<?xml version="1.0" encoding="UTF-8" standalone="no"?>
<!-- Created with Inkscape (http://www.inkscape.org/) -->

<svg
   xmlns:dc="http://purl.org/dc/elements/1.1/"
   xmlns:cc="http://creativecommons.org/ns#"
   xmlns:rdf="http://www.w3.org/1999/02/22-rdf-syntax-ns#"
   xmlns:svg="http://www.w3.org/2000/svg"
   xmlns="http://www.w3.org/2000/svg"
   xmlns:sodipodi="http://sodipodi.sourceforge.net/DTD/sodipodi-0.dtd"
   xmlns:inkscape="http://www.inkscape.org/namespaces/inkscape"
   id="svg13488"
   version="1.1"
   inkscape:version="0.91 r"
   width="522"
   height="1309"
   viewBox="0 0 522 1309"
   sodipodi:docname="snowflake-R2-D2_2012-000.svg">
  <metadata
     id="metadata13494">
    <rdf:RDF>
      <cc:Work
         rdf:about="">
        <dc:format>image/svg+xml</dc:format>
        <dc:type
           rdf:resource="http://purl.org/dc/dcmitype/StillImage" />
        <dc:title />
      </cc:Work>
    </rdf:RDF>
  </metadata>
  <defs
     id="defs13492" />
  <sodipodi:namedview
     pagecolor="#ffffff"
     bordercolor="#666666"
     borderopacity="1"
     objecttolerance="10"
     gridtolerance="10"
     guidetolerance="10"
     inkscape:pageopacity="0"
     inkscape:pageshadow="2"
     inkscape:window-width="1600"
     inkscape:window-height="843"
     id="namedview13490"
     showgrid="false"
     inkscape:zoom="2.7567817"
     inkscape:cx="207.04292"
     inkscape:cy="518.03479"
     inkscape:window-x="0"
     inkscape:window-y="0"
     inkscape:window-maximized="1"
     inkscape:current-layer="svg13488"
     showguides="true"
     inkscape:guide-bbox="true"
     inkscape:snap-center="true"
     inkscape:object-nodes="true">
    <sodipodi:guide
       position="448.19089,75.35953"
       orientation="0,1"
       id="guide4133" />
    <sodipodi:guide
       position="444.2246,75.35953"
       orientation="1,0"
       id="guide4135" />
  </sodipodi:namedview>
  <path
     id="path4175"
     style="fill:none;stroke:#00ff00;stroke-opacity:1;stroke-width:0.70866142;stroke-miterlimit:4;stroke-dasharray:none;"
     d="m 250.79429,893.41906 c -1.73285,1.2548 -3.16065,2.2913 -3.17288,2.3034 -0.0123,0.012 0.45386,0.8465 1.03576,1.8544 l 1.05799,1.8325 0.33964,-0.1977 c 0.18681,-0.1087 1.67205,-1.1545 3.30057,-2.324 1.62853,-1.1695 2.97266,-2.1333 2.98695,-2.1418 0.0142,-0.01 -0.46373,-0.8636 -1.06224,-1.9003 -0.83424,-1.4449 -1.11705,-1.8642 -1.21169,-1.7964 -0.0679,0.049 -1.54126,1.1151 -3.2741,2.3699 z m -2.20912,-4.31 c -1.65182,1.1291 -3.10715,2.118 -3.23403,2.1975 -0.2265,0.1419 -0.21694,0.1683 0.52501,1.4534 l 0.75571,1.309 0.49626,-0.2892 c 0.27295,-0.159 1.71491,-1.1166 3.20436,-2.1279 1.48944,-1.0114 2.79027,-1.8869 2.89075,-1.9456 0.16459,-0.096 0.10473,-0.2418 -0.60326,-1.4681 -0.59279,-1.0268 -0.81612,-1.3393 -0.90871,-1.2717 -0.0675,0.049 -1.47426,1.0135 -3.12609,2.1426 z m -15.59206,-15.9069 c -0.54105,0.3794 -1.10805,0.812 -1.26001,0.9614 l -0.27632,0.2716 0.98017,1.764 c 0.76349,1.3741 1.0095,1.7468 1.11312,1.6862 0.0731,-0.043 0.40991,-0.3055 0.74841,-0.5838 0.33849,-0.2782 1.51624,-1.0677 2.61723,-1.7543 l 2.0018,-1.2484 -0.98394,-1.7706 -0.98395,-1.7705 -1.48641,0.8774 c -0.81752,0.4825 -1.92907,1.1877 -2.4701,1.567 z m -3.1825,-5.8502 c -0.52034,0.3623 -1.11148,0.8075 -1.31366,0.9893 l -0.36758,0.3307 0.98131,1.7659 c 0.5932,1.0676 1.02071,1.7432 1.08096,1.7085 0.0548,-0.032 0.43814,-0.3226 0.85182,-0.6465 0.41368,-0.3239 1.60643,-1.1225 2.65053,-1.7746 l 1.89839,-1.1857 -0.98395,-1.7706 -0.98394,-1.7705 -1.43391,0.8474 c -0.78863,0.4661 -1.85963,1.1438 -2.37997,1.5061 z m -2.08475,-6.3919 c -0.8639,0.548 -2.60146,1.8146 -2.76311,2.0142 -0.17779,0.2194 1.88576,3.6462 2.09648,3.4814 1.0868,-0.8499 2.09857,-1.5516 3.56431,-2.4718 l 1.7677,-1.1098 -1.01825,-1.7636 -1.01824,-1.7637 -0.95677,0.5797 c -0.52623,0.3189 -1.27868,0.784 -1.67212,1.0336 z m -7.5397,-17.2912 c -2.79958,1.8857 -4.56016,3.3186 -5.60421,4.5611 l -0.53793,0.6402 3.53103,6.1783 c 3.3487,5.8593 3.5383,6.1689 3.67202,5.9974 1.30524,-1.6748 3.61259,-3.5698 6.91468,-5.6788 l 1.55558,-0.9936 -3.52899,-6.1124 -3.52899,-6.1124 -1.01041,0.6078 c -0.55573,0.3342 -1.21396,0.7449 -1.46278,0.9124 z m 28.13627,18.7468 -0.63194,0.2828 c -1.25312,0.5607 -2.26077,0.176 -3.64721,-1.3923 -0.90204,-1.0204 -2.78274,-3.8675 -4.36562,-6.609 l -1.16386,-2.0157 -1.67543,0.9673 -1.67544,0.9673 4.48262,7.7641 4.4826,7.7642 1.34905,-0.8677 c 0.74197,-0.4771 2.1675,-1.3816 3.16784,-2.0098 l 1.81879,-1.1422 m 2.41793,4.188 -1.76423,1.1158 c -4.23336,2.6774 -9.0835,6.44 -12.60816,9.781 l -1.21818,1.1547 0.6796,1.2453 c 0.52252,0.9574 0.71062,1.2273 0.81382,1.1677 0.0738,-0.043 1.37658,-0.9182 2.89503,-1.9459 3.4201,-2.3145 8.71583,-5.7141 11.43443,-7.3401 l 2.04968,-1.226 m 1.34509,2.3298 -2.65828,1.6228 c -4.68583,2.8605 -9.75619,6.5597 -13.06589,9.5323 l -0.2988,0.2684 0.70711,1.2248 0.70713,1.2247 0.60966,-0.4554 c 2.35913,-1.7624 7.48838,-5.1004 12.43221,-8.0907 l 3.44078,-2.0812 m 1.53049,2.6509 -2.35608,1.3603 -2.35607,1.3603 2.17919,3.7744 2.17918,3.7745 0.30791,-0.2526 c 0.60005,-0.4924 2.60619,-1.8604 3.40607,-2.3227 l 0.81135,-0.4688 m 6.8705,11.9 -0.70469,0.3011 c -1.93074,0.8249 -3.87888,0.6284 -5.01681,-0.5061 -0.74149,-0.7392 -1.09063,-2.1565 -0.89814,-3.6459 l 0.0891,-0.6892 -0.88806,-1.5382 -0.88806,-1.5381 -0.71912,0.5077 c -2.3347,1.6482 -4.83807,3.6474 -5.34275,4.2666 l -0.21356,0.262 0.93056,0.7637 c 0.76346,0.6266 5.68956,4.7813 8.58086,7.2371 l 0.685,0.5819 2.96029,-1.6721 2.9603,-1.672 m 1.79333,3.1061 -1.13955,0.7468 c -1.52644,1.0004 -1.70775,1.1941 -1.51552,1.6196 0.1318,0.2918 2.71535,3.6469 2.81681,3.6581 0.0208,0 0.45058,-0.3147 0.95507,-0.7045 0.67558,-0.5219 1.15939,-0.8977 1.37774,-0.9473 m 1.15137,1.9422 -0.30845,0.1781 c -1.93627,1.1179 -5.65448,2.4851 -8.14849,2.9961 l -1.59841,0.3276 1.27875,-0.7776 1.27877,-0.7777 -0.3476,-0.4581 c -0.19118,-0.2519 -0.76558,-1.0649 -1.27643,-1.8066 -0.51086,-0.7418 -1.01585,-1.4455 -1.12222,-1.5638 l -0.19336,-0.2152 -1.44555,0.9321 c -0.79506,0.5127 -2.59772,1.7115 -4.00594,2.6641 l -2.56039,1.7319 -1.93732,-0.5318 c -5.08551,-1.3959 -9.67446,-4.2225 -14.38534,-8.8608 -0.61063,-0.6012 -1.15566,-1.1718 -1.21115,-1.2679 -0.25997,-0.4503 2.08821,-2.8526 4.23673,-4.3345 l 0.8756,-0.6039 -0.33351,-0.4539 c -0.18343,-0.2496 -1.30481,-1.9036 -2.49195,-3.6755 -1.18715,-1.7719 -2.20268,-3.2309 -2.25674,-3.2421 -0.17411,-0.036 -4.26769,2.5892 -5.30874,3.4047 -0.55428,0.4343 -1.04394,0.7799 -1.08812,0.768 -0.0442,-0.012 -0.73498,-1.0539 -1.53511,-2.3157 l -1.45479,-2.2942 -4.21194,2.4318 -4.21195,2.4317 -0.25436,-0.2894 c -0.13992,-0.1592 -0.47563,-0.6722 -0.74603,-1.14 -0.27037,-0.4678 -0.86778,-1.4316 -1.32752,-2.1417 -0.95946,-1.482 -0.72978,-1.4091 -2.2384,-0.7105 l -0.79871,0.3698 -2.38191,-4.1256 -2.38192,-4.1256 1.09951,-0.6348 1.09949,-0.6348 -0.57315,-0.9927 -0.57317,-0.9928 2.25949,-1.3421 2.25948,-1.3421 -2.401,-6.1533 c -5.08499,-13.0316 -6.26781,-16.0036 -6.59413,-16.5688 -0.42059,-0.7285 -0.98411,-1.1329 -2.39221,-1.7168 l -1.05748,-0.4385 m 0.01,-25.7457 1.35813,-0.8231 1.35812,-0.8231 2.38926,4.1383 2.38924,4.1383 0.32997,-0.6104 c 1.28917,-2.3847 3.71891,-5.1054 5.8394,-6.5388 l 0.82851,-0.56 -0.40115,-0.6901 c -0.75497,-1.2988 -2.52419,-3.4617 -2.83932,-3.4712 -0.074,0 -0.40129,0.3047 -0.72721,0.6819 l -0.59259,0.686 -0.21681,-0.1777 c -0.11924,-0.098 -2.35279,-1.9539 -4.96344,-4.1248 l -4.74664,-3.9472 m 0.003,-13.3634 2.81775,-1.6268 2.81776,-1.6269 m 21.14429,36.623 -1.98389,1.2191 c -1.35637,0.8334 -2.14623,1.3838 -2.49716,1.7402 -0.94935,0.9641 -1.18555,0.2846 2.04299,5.8766 l 2.83387,4.9084 0.46527,-0.4637 c 0.61267,-0.6107 2.32337,-1.9227 3.6772,-2.8204 l 1.08542,-0.7196 m 34.30953,32.7995 c 1.9531,-0.8733 3.56466,-1.5915 3.58122,-1.5961 0.0166,0 0.50621,0.8164 1.08811,1.8243 l 1.05801,1.8325 -0.34103,0.1952 c -0.18754,0.1075 -1.83588,0.8708 -3.66293,1.6964 -1.82707,0.8256 -3.3338,1.5078 -3.3483,1.5159 -0.0146,0.01 -0.51607,-0.8334 -1.1146,-1.8701 -0.83423,-1.4449 -1.05594,-1.8995 -0.9499,-1.9476 0.0761,-0.035 1.73632,-0.7772 3.68941,-1.6505 z m -2.62798,-4.0681 c 1.80375,-0.866 3.38777,-1.6319 3.52006,-1.702 0.23614,-0.1252 0.25429,-0.1037 0.99624,1.1814 l 0.75571,1.3089 -0.49853,0.2852 c -0.27419,0.1569 -1.82446,0.9269 -3.44503,1.7111 -1.62058,0.7842 -3.02922,1.473 -3.13033,1.5306 -0.16557,0.094 -0.26176,-0.03 -0.96977,-1.2564 -0.59278,-1.0268 -0.75176,-1.3764 -0.64692,-1.4228 0.0765,-0.034 1.61482,-0.77 3.41857,-1.636 z m -5.97972,-21.4566 c 0.59904,-0.2788 1.25719,-0.5536 1.46256,-0.6105 l 0.37339,-0.1035 1.03757,1.7309 c 0.80824,1.3482 1.00804,1.7476 0.90371,1.807 -0.0736,0.042 -0.46952,0.2023 -0.87974,0.3563 -0.41022,0.154 -1.68278,0.7793 -2.82792,1.3894 l -2.08207,1.1094 -1.04136,-1.7374 -1.04137,-1.7374 1.50302,-0.8485 c 0.82667,-0.4668 1.99316,-1.0768 2.59221,-1.3557 z m -3.47523,-5.6812 c 0.57391,-0.2695 1.25506,-0.5588 1.51363,-0.643 l 0.47014,-0.153 1.03872,1.7328 c 0.62791,1.0475 0.99929,1.7556 0.93904,1.7903 -0.0548,0.032 -0.49841,0.2182 -0.98575,0.4145 -0.48734,0.1963 -1.7753,0.83 -2.86213,1.4081 l -1.97605,1.0512 -1.04136,-1.7374 -1.04138,-1.7374 1.45082,-0.818 c 0.79796,-0.45 1.9204,-1.0386 2.49432,-1.3081 z m -4.49319,-5.0014 c 0.90654,-0.4742 2.87225,-1.3456 3.12592,-1.3858 0.27896,-0.044 2.2148,3.4562 1.96674,3.5563 -1.27944,0.5162 -2.39296,1.0416 -3.92276,1.8509 l -1.84497,0.9759 -1.01824,-1.7636 -1.01825,-1.7637 0.98046,-0.5387 c 0.53924,-0.2963 1.31824,-0.7154 1.7311,-0.9313 z m -11.2047,-15.1752 c 3.03285,-1.4816 5.15404,-2.2899 6.7521,-2.5728 l 0.82336,-0.1458 3.58506,6.1471 c 3.39996,5.8297 3.57333,6.1488 3.35788,6.1788 -2.10304,0.293 -4.8978,1.3437 -8.37532,3.1489 l -1.63822,0.8504 -3.52899,-6.1124 -3.52899,-6.1124 1.03153,-0.5712 c 0.56733,-0.3141 1.25205,-0.6789 1.52159,-0.8106 z m 2.16703,33.7402 0.56086,-0.4059 c 1.11219,-0.8049 1.28289,-1.8699 0.61786,-3.8548 -0.43267,-1.2913 -1.95801,-4.3436 -3.54073,-7.0852 l -1.16373,-2.0158 1.67543,-0.9673 1.67543,-0.9673 4.48261,7.7641 4.48262,7.7641 -1.42589,0.7345 c -0.78424,0.404 -2.28025,1.1863 -3.32447,1.7386 l -1.89856,1.004 m 2.4179,4.1879 1.84843,-0.9699 c 4.43535,-2.3275 10.11893,-4.6466 14.77471,-6.0285 l 1.6091,-0.4776 0.73862,1.2112 c 0.56788,0.9312 0.70759,1.2291 0.60439,1.2886 -0.0738,0.043 -1.48355,0.733 -3.13272,1.5342 -3.71454,1.8047 -9.30647,4.6911 -12.07399,6.2325 l -2.08654,1.1621 m 1.3451,2.3297 2.73451,-1.4907 c 4.82022,-2.6278 10.55894,-5.1693 14.7882,-6.5492 l 0.38183,-0.1246 0.70713,1.2248 0.7071,1.2247 -0.69925,0.3003 c -2.70579,1.1619 -8.16125,3.9349 -13.22286,6.7212 l -3.52276,1.9393 m 1.53049,2.6508 2.35608,-1.3602 2.35609,-1.3603 2.17919,3.7745 2.1792,3.7744 -0.37276,0.1404 c -0.72641,0.2734 -2.91422,1.3268 -3.7145,1.7884 l -0.81172,0.4682 m 6.87047,11.9 0.61309,-0.4597 c 1.6798,-1.2596 2.48369,-3.045 2.07018,-4.5977 -0.26944,-1.0118 -1.32228,-2.0228 -2.70841,-2.6008 l -0.6414,-0.2675 -0.88807,-1.5381 -0.88806,-1.5382 0.79924,-0.3689 c 2.59481,-1.1978 5.57785,-2.3662 6.3664,-2.4936 l 0.3337,-0.054 0.19611,1.1878 c 0.16089,0.9744 1.29591,7.3179 1.97709,11.0498 l 0.16139,0.8841 -2.92818,1.7277 -2.92819,1.7276 m 1.79333,3.1062 1.21653,-0.6135 c 1.62954,-0.8218 1.888,-0.8819 2.1604,-0.5027 0.18677,0.2601 1.8006,4.175 1.75955,4.2685 -0.008,0.019 -0.49786,0.2328 -1.08766,0.4749 -0.78981,0.3241 -1.3571,0.5552 -1.50929,0.7194 m 1.1064,1.9683 0.30843,-0.1781 c 1.93627,-1.1179 4.97938,-3.6544 6.66897,-5.5587 l 1.08287,-1.2205 -1.31284,0.7186 -1.31283,0.7186 -0.22291,-0.53 c -0.12258,-0.2916 -0.53947,-1.1955 -0.92639,-2.0088 -0.38694,-0.8133 -0.74388,-1.6025 -0.79319,-1.7538 l -0.0897,-0.275 1.53004,-0.7858 c 0.84154,-0.4322 2.78107,-1.394 4.31012,-2.1373 l 2.78005,-1.3514 0.50813,-1.9436 c 1.33385,-5.1022 1.18041,-10.4896 -0.48101,-16.8885 -0.21535,-0.8294 -0.43696,-1.5867 -0.49246,-1.6828 -0.25997,-0.4503 -3.51456,0.3821 -5.87211,1.5019 l -0.96079,0.4563 -0.22633,-0.5158 c -0.1245,-0.2837 -0.99621,-2.0818 -1.93715,-3.9958 -0.94095,-1.9141 -1.69667,-3.5231 -1.67939,-3.5755 0.0557,-0.1689 4.37613,-2.4013 5.60297,-2.8951 0.6532,-0.2629 1.19732,-0.5142 1.20917,-0.5584 0.0118,-0.044 -0.54523,-1.1634 -1.23792,-2.4873 l -1.25944,-2.407 4.21195,-2.4317 4.21194,-2.4318 -0.12347,-0.365 c -0.0679,-0.2008 -0.34434,-0.748 -0.61428,-1.2161 -0.26996,-0.468 -0.80587,-1.4673 -1.19098,-2.2205 -0.8037,-1.5719 -0.85541,-1.3365 0.50387,-2.2938 l 0.71963,-0.5067 -2.38191,-4.1256 -2.38192,-4.1256 -1.09949,0.6348 -1.09951,0.6348 -0.57316,-0.9928 -0.57316,-0.9927 -2.29207,1.2857 -2.29207,1.2857 -4.12835,-5.156 c -8.74323,-10.9195 -10.72568,-13.4299 -11.05201,-13.9951 -0.42059,-0.7285 -0.48905,-1.4187 -0.29064,-2.9301 l 0.14901,-1.135 m -22.30139,-12.8644 -1.39188,0.7646 -1.39187,0.7646 2.38925,4.1383 2.38925,4.1383 -0.69356,-0.019 c -2.70981,-0.076 -6.28094,0.668 -8.58249,1.7877 l -0.89927,0.4375 -0.39707,-0.6925 c -0.74728,-1.3032 -1.73581,-3.9169 -1.58644,-4.1945 0.0351,-0.065 0.46446,-0.1952 0.95415,-0.2888 l 0.89034,-0.1703 -0.0455,-0.2766 c -0.025,-0.1521 -0.51572,-3.0145 -1.09048,-6.3608 l -1.045,-6.0843 m -11.57441,-6.6794 -2.81776,1.6268 -2.81775,1.6269 m 21.14428,36.623 2.04763,-1.1086 c 1.39996,-0.758 2.27159,-1.1668 2.75568,-1.2925 1.30957,-0.3401 0.83926,-0.8844 4.0678,4.7076 l 2.83388,4.9084 -0.63424,0.1711 c -0.83518,0.2252 -2.82683,1.0507 -4.2811,1.7744 l -1.16595,0.5801 M 96.439444,777.62826 c -0.22026,-2.1281 -0.40402,-3.8829 -0.40835,-3.8995 -0.004,-0.017 -0.96007,-0.03 -2.12387,-0.03 l -2.116,0 0.001,0.3929 c 7.3e-4,0.2162 0.16383,2.0254 0.36236,4.0204 0.19854,1.9951 0.36115,3.641 0.36136,3.6577 2.5e-4,0.017 0.97979,0.03 2.17684,0.03 1.66847,0 2.17298,-0.035 2.1616,-0.1511 -0.008,-0.083 -0.19506,-1.8923 -0.41533,-4.0204 z m 4.837086,0.2418 c -0.15192,-1.9951 -0.28063,-3.7498 -0.28602,-3.8995 -0.01,-0.2671 -0.0374,-0.272 -1.521236,-0.272 l -1.51143,0 0.002,0.5743 c 10e-4,0.3159 0.10956,2.0435 0.24069,3.839 0.13114,1.7956 0.23894,3.3599 0.23957,3.4763 9.7e-4,0.1906 0.15704,0.2116 1.573016,0.2116 1.18557,0 1.56789,-0.037 1.55563,-0.1511 -0.009,-0.083 -0.14056,-1.7835 -0.29248,-3.7786 z m 21.57181,-5.5497 c -0.058,-0.6582 -0.14916,-1.3656 -0.20257,-1.5719 l -0.0971,-0.3751 -2.01774,-0.033 c -1.57172,-0.026 -2.01754,0 -2.01683,0.1209 4.9e-4,0.085 0.0596,0.5077 0.13133,0.94 0.0717,0.4323 0.16653,1.847 0.21069,3.1438 l 0.0803,2.3578 2.02532,0.033 2.02531,0.033 -0.0166,-1.726 c -0.009,-0.9492 -0.0641,-2.2645 -0.12207,-2.9227 z m 6.65771,0.169 c -0.0536,-0.6317 -0.14357,-1.3663 -0.19998,-1.6323 l -0.10256,-0.4837 -2.02002,-0.033 c -1.22111,-0.02 -2.02,0.012 -2.02,0.082 -10e-6,0.063 0.0603,0.5407 0.13392,1.0609 0.0737,0.5202 0.16887,1.9525 0.2116,3.1828 l 0.0777,2.2369 2.02532,0.033 2.02531,0.033 -0.0169,-1.6655 c -0.009,-0.916 -0.0607,-2.1824 -0.11434,-2.8142 z m 6.57793,1.3905 c -0.0426,-1.0221 -0.27077,-3.1602 -0.3628,-3.4 -0.10117,-0.2637 -4.10057,-0.19 -4.06322,0.075 0.19264,1.3661 0.29439,2.5932 0.35845,4.3227 l 0.0773,2.0857 2.0365,0 2.03649,0 -0.0237,-1.1184 c -0.013,-0.6152 -0.0396,-1.4993 -0.059,-1.9649 z m 18.74441,2.116 c -0.23327,-3.3673 -0.59388,-5.6085 -1.14788,-7.1339 l -0.28544,-0.7859 -7.11609,-0.031 c -6.74866,-0.03 -7.11164,-0.02 -7.02991,0.1813 0.79781,1.9678 1.28521,4.9135 1.46064,8.8277 l 0.0827,1.844 7.05798,0 7.05799,0 -0.0211,-1.1789 c -0.0116,-0.6484 -0.0381,-1.4238 -0.0588,-1.7231 z m -30.30331,14.9934 0.0711,-0.6887 c 0.14094,-1.3656 0.97789,-2.0459 3.02935,-2.4624 1.33471,-0.271 4.74075,-0.4762 7.90636,-0.4763 l 2.32759,0 0,-1.9347 1e-5,-1.9346 -8.96523,0 -8.96523,0 0.0768,1.6021 c 0.0423,0.8812 0.11274,2.5679 0.15662,3.7483 l 0.0798,2.1463 m -4.83583,0 -0.0842,-2.0858 c -0.202,-5.0049 -1.03543,-11.0865 -2.16654,-15.8095 l -0.39093,-1.6323 -1.41822,-0.034 c -1.09042,-0.026 -1.41822,0 -1.41821,0.1209 0,0.085 0.10697,1.6513 0.23769,3.4801 0.29444,4.1192 0.59064,10.4052 0.63955,13.5726 l 0.0369,2.3881 m -2.6902,0 -0.0762,-3.1136 c -0.1344,-5.4883 -0.80277,-11.7289 -1.72232,-16.0815 l -0.083,-0.393 -1.41424,0 -1.41423,0 0.0896,0.7557 c 0.34667,2.9243 0.67287,9.0353 0.79066,14.812 l 0.082,4.0204 m -3.061,0 1e-5,-2.7206 0,-2.7206 -4.358386,0 -4.35839,0 0.0648,0.393 c 0.12637,0.7658 0.30803,3.1872 0.30844,4.1111 l 3.6e-4,0.9371 m -13.74095,0 0.0916,-0.7608 c 0.25097,-2.0846 1.39519,-3.6735 2.94663,-4.0917 1.01094,-0.2725 2.41291,0.1337 3.60655,1.0451 l 0.55234,0.4218 1.77612,0 1.77613,0 -0.0801,-0.8767 c -0.26012,-2.846 -0.73978,-6.0136 -1.02365,-6.7602 l -0.12013,-0.316 -1.12668,0.4241 c -0.92436,0.3478 -6.98546,2.5366 -10.55795,3.8126 l -0.8464,0.3023 -0.0321,3.3998 -0.0321,3.3997 m -3.58666,0 -0.077,-1.3603 c -0.10311,-1.8221 -0.18026,-2.076 -0.64486,-2.1223 -0.31862,-0.032 -4.51599,0.5281 -4.57639,0.6104 -0.0124,0.017 0.0473,0.5476 0.13258,1.1794 0.11423,0.846 0.19773,1.4529 0.13155,1.6668 m -2.25775,0.026 0,-0.3562 c 0,-2.2358 0.67512,-6.1395 1.47953,-8.5548 l 0.51555,-1.5481 0.0341,1.4963 0.0341,1.4962 0.57049,-0.072 c 0.31378,-0.04 1.30505,-0.1305 2.20284,-0.2021 0.8978,-0.072 1.75972,-0.157 1.9154,-0.1899 l 0.28305,-0.06 -0.0845,-1.7179 c -0.0465,-0.9449 -0.18336,-3.1055 -0.30416,-4.8013 l -0.21967,-3.0833 1.42918,-1.4119 c 3.75165,-3.7062 8.49406,-6.2671 14.86634,-8.0277 0.826,-0.2282 1.59262,-0.4149 1.70362,-0.4149 0.51996,0 1.42635,3.2348 1.63538,5.8363 l 0.0852,1.0603 0.55985,-0.062 c 0.30792,-0.034 2.30102,-0.1782 4.4291,-0.3203 2.12809,-0.1422 3.899336,-0.2922 3.936116,-0.3333 0.11845,-0.1327 -0.10844,-4.9906 -0.29423,-6.2999 -0.0989,-0.6972 -0.153386,-1.294 -0.121036,-1.3264 0.0323,-0.032 1.280206,-0.1095 2.773036,-0.1716 l 2.71421,-0.1127 0,-4.8636 0,-4.8635 0.37785,-0.076 c 0.20783,-0.042 0.81996,-0.076 1.36029,-0.076 0.54034,-3e-4 1.67366,-0.036 2.51851,-0.079 1.76316,-0.09 1.58518,0.073 1.73453,-1.5832 l 0.0791,-0.8766 4.76384,0 4.76382,0 0,1.2696 0,1.2695 1.14632,0 1.14633,0 0.0326,2.6279 0.0326,2.6278 6.52936,0.9973 c 13.82822,2.1121 16.99348,2.5738 17.64614,2.5738 0.84117,0 1.47316,-0.2858 2.68284,-1.2134 l 0.90847,-0.6965 m 22.29161,12.8813 0.0337,1.5877 0.0337,1.5878 -4.77849,0 -4.7785,0 0.36361,0.5909 c 1.42063,2.3088 2.56201,5.7734 2.74309,8.3265 l 0.0708,0.9975 0.79821,0 c 1.50225,0 4.26001,-0.4552 4.42577,-0.7234 0.0389,-0.063 -0.0632,-0.4998 -0.22695,-0.9707 l -0.29775,-0.8562 0.26227,-0.099 c 0.14426,-0.054 2.86851,-1.0606 6.05393,-2.2361 l 5.79162,-2.1371 m 11.57175,6.684 1e-5,3.2537 0,3.2537 m -42.2886,0 -0.0638,-2.3276 c -0.0436,-1.5914 -0.12535,-2.5507 -0.25852,-3.0328 -0.36022,-1.3042 0.3463,-1.169 -6.11078,-1.169 l -5.66775,0 0.16898,0.6348 c 0.2225,0.8359 0.50344,2.9735 0.60388,4.5947 l 0.0805,1.2999 m -45.559996,13.3131 c -0.22027,2.1281 -0.40401,3.8829 -0.40835,3.8995 -0.004,0.017 -0.96008,0.03 -2.12387,0.03 l -2.11599,0 10e-4,-0.393 c 7.2e-4,-0.2161 0.16382,-2.0253 0.36236,-4.0203 0.19853,-1.9951 0.36114,-3.6411 0.36135,-3.6577 2.5e-4,-0.017 0.9798,-0.03 2.17684,-0.03 1.66848,0 2.17298,0.035 2.1616,0.1511 -0.008,0.083 -0.19507,1.8923 -0.41533,4.0204 z m 4.837086,-0.2418 c -0.15193,1.9951 -0.28063,3.7498 -0.28603,3.8995 -0.01,0.2671 -0.0373,0.272 -1.521236,0.272 l -1.51142,0 0.002,-0.5743 c 10e-4,-0.3159 0.10954,-2.0435 0.24069,-3.8391 0.13113,-1.7955 0.23894,-3.3598 0.23956,-3.4762 9.7e-4,-0.1906 0.15704,-0.2116 1.573026,-0.2116 1.18557,0 1.56789,0.037 1.55562,0.1511 -0.009,0.083 -0.14056,1.7835 -0.29247,3.7786 z m 21.5718,5.5497 c -0.058,0.6582 -0.14915,1.3655 -0.20255,1.5718 l -0.0971,0.3751 -2.01773,0.033 c -1.57171,0.026 -2.01753,0 -2.01682,-0.1209 4.8e-4,-0.085 0.0596,-0.5078 0.13132,-0.94 0.0717,-0.4323 0.16654,-1.847 0.21069,-3.1438 l 0.0803,-2.3578 2.0253,-0.033 2.02532,-0.033 -0.0166,1.7259 c -0.009,0.9493 -0.0641,2.2645 -0.12208,2.9228 z m 6.65772,-0.169 c -0.0536,0.6317 -0.14356,1.3663 -0.19998,1.6323 l -0.10256,0.4837 -2.02001,0.033 c -1.22112,0.02 -2.02001,-0.012 -2.02001,-0.082 -10e-6,-0.063 0.0603,-0.5407 0.13392,-1.061 0.0737,-0.5202 0.16888,-1.9524 0.2116,-3.1827 l 0.0777,-2.2369 2.02531,-0.033 2.02532,-0.033 -0.0169,1.6655 c -0.009,0.916 -0.0608,2.1824 -0.11434,2.8142 z m 6.57794,-1.3906 c -0.0426,1.0222 -0.27079,3.1603 -0.36281,3.4001 -0.10118,0.2637 -4.10057,0.1899 -4.06322,-0.075 0.19264,-1.3662 0.29439,-2.5932 0.35845,-4.3227 l 0.0772,-2.0858 2.03651,0 2.03649,0 -0.0237,1.1185 c -0.013,0.6151 -0.0396,1.4993 -0.059,1.9648 z m 18.7444,-2.116 c -0.23327,3.3674 -0.59388,5.6086 -1.14788,7.134 l -0.28543,0.7859 -7.1161,0.031 c -6.74865,0.03 -7.11164,0.02 -7.02991,-0.1814 0.79781,-1.9677 1.28521,-4.9135 1.46063,-8.8277 l 0.0827,-1.8439 7.05799,0 7.05797,0 -0.0211,1.1789 c -0.0116,0.6484 -0.0381,1.4238 -0.0588,1.723 z m -30.30331,-14.9933 0.0711,0.6887 c 0.14093,1.3656 0.97787,2.0459 3.02935,2.4624 1.3347,0.271 4.74075,0.4762 7.90634,0.4763 l 2.3276,0 0,1.9347 0,1.9346 -8.96522,0 -8.96522,0 0.0768,-1.6021 c 0.0423,-0.8812 0.11275,-2.5679 0.15662,-3.7484 l 0.0798,-2.1462 m -4.83584,0 -0.0842,2.0858 c -0.202,5.0048 -1.03543,11.0865 -2.16655,15.8095 l -0.39093,1.6323 -1.41821,0.034 c -1.09041,0.026 -1.41822,0 -1.41821,-0.1209 1e-5,-0.085 0.10696,-1.6513 0.23768,-3.4801 0.29444,-4.1192 0.59065,-10.4052 0.63956,-13.5726 l 0.0369,-2.3881 m -2.69019,0 -0.0762,3.1135 c -0.13439,5.4884 -0.80275,11.729 -1.72231,16.0816 l -0.083,0.393 -1.41423,0 -1.41425,0 0.0896,-0.7557 c 0.34667,-2.9243 0.67288,-9.0354 0.79067,-14.812 l 0.082,-4.0204 m -3.06099,0 0,2.7206 0,2.7205 -4.358376,0 -4.35838,0 0.0648,-0.3929 c 0.12636,-0.7659 0.30804,-3.1872 0.30845,-4.1111 l 3.6e-4,-0.9371 m -13.74097,0 0.0916,0.7608 c 0.25096,2.0846 1.39519,3.6735 2.94663,4.0917 1.01094,0.2725 2.41291,-0.1337 3.60655,-1.0452 l 0.55233,-0.4217 1.77613,0 1.77613,0 -0.0801,0.8766 c -0.26011,2.8461 -0.73977,6.0136 -1.02365,6.7603 l -0.12013,0.316 -1.12667,-0.4241 c -0.92437,-0.3479 -6.98547,-2.5366 -10.55795,-3.8127 l -0.8464,-0.3023 -0.0321,-3.3997 -0.0321,-3.3997 m -3.58666,0 -0.077,1.3603 c -0.10311,1.8221 -0.18026,2.076 -0.64486,2.1223 -0.31861,0.032 -4.51598,-0.5281 -4.57638,-0.6104 -0.0124,-0.017 0.0473,-0.5476 0.13258,-1.1794 0.11423,-0.8461 0.19774,-1.4529 0.13156,-1.6668 m -2.25776,-0.026 0,0.3562 c 0,2.2358 0.67512,6.1394 1.47954,8.5548 l 0.51554,1.5481 0.0341,-1.4963 0.0341,-1.4963 0.57049,0.072 c 0.31378,0.04 1.30506,0.1306 2.20284,0.2021 0.89778,0.072 1.75971,0.1571 1.91539,0.19 l 0.28307,0.06 -0.0845,1.7179 c -0.0465,0.9449 -0.18335,3.1055 -0.30416,4.8013 l -0.21967,3.0833 1.42919,1.4119 c 3.75165,3.7062 8.49406,6.267 14.86634,8.0277 0.82599,0.2282 1.59263,0.4149 1.70362,0.4149 0.51994,0 1.42635,-3.2348 1.63538,-5.8364 l 0.0852,-1.0602 0.55985,0.062 c 0.30792,0.034 2.30102,0.1782 4.4291,0.3203 2.12809,0.1421 3.899346,0.2921 3.936116,0.3333 0.11845,0.1327 -0.10844,4.9906 -0.29423,6.2999 -0.0989,0.6971 -0.153376,1.294 -0.121036,1.3263 0.0323,0.032 1.280206,0.1096 2.773026,0.1716 l 2.71422,0.1128 -1e-5,4.8635 1e-5,4.8636 0.37785,0.076 c 0.20782,0.041 0.81994,0.076 1.36028,0.076 0.54034,0 1.67367,0.036 2.51852,0.079 1.76316,0.09 1.58518,-0.073 1.73452,1.5832 l 0.0791,0.8766 4.76383,0 4.76383,0 1e-5,-1.2696 -1e-5,-1.2696 1.14632,0 1.14633,0 0.0326,-2.6278 0.0326,-2.6279 6.52936,-0.9972 c 13.82822,-2.1121 16.99348,-2.5738 17.64613,-2.5738 0.84118,0 1.47316,0.2858 2.68286,1.2134 l 0.90845,0.6965 m 22.29159,-12.8814 0.0337,-1.5877 0.0337,-1.5877 -4.7785,0 -4.77849,0 0.3636,-0.591 c 1.42063,-2.3088 2.56202,-5.7734 2.74309,-8.3264 l 0.0708,-0.9976 0.7982,0 c 1.50226,0 4.26003,0.4552 4.42578,0.7234 0.0389,0.063 -0.0632,0.4998 -0.22695,0.9707 l -0.29775,0.8562 0.26228,0.099 c 0.14424,0.054 2.86851,1.0607 6.05391,2.2361 l 5.79164,2.1371 m 11.57175,-6.684 -1e-5,-3.2537 1e-5,-3.2536 m -42.28861,0 -0.0637,2.3276 c -0.0436,1.5913 -0.12535,2.5506 -0.25851,3.0327 -0.36023,1.3042 0.3463,1.169 -6.11078,1.169 l -5.66776,0 0.16898,-0.6348 c 0.2225,-0.8359 0.50345,-2.9735 0.60389,-4.5947 l 0.0805,-1.2998 m -1.80833,89.141 c -1.95311,-0.8733 -3.56466,-1.5915 -3.58122,-1.5961 -0.0166,0 -0.50621,0.8163 -1.08811,1.8242 l -1.058,1.8325 0.34105,0.1953 c 0.18778,0.107 1.83588,0.8708 3.66294,1.6964 1.82705,0.8256 3.33378,1.5077 3.34829,1.5158 0.0144,0.01 0.51607,-0.8334 1.1146,-1.8701 0.83423,-1.4449 1.05593,-1.8995 0.9499,-1.9475 -0.0761,-0.035 -1.73631,-0.7772 -3.68942,-1.6505 z m 2.62797,-4.0681 c -1.80375,-0.866 -3.38778,-1.6319 -3.52006,-1.702 -0.23615,-0.1252 -0.25428,-0.1037 -0.99622,1.1814 l -0.75571,1.3089 0.49854,0.2852 c 0.27417,0.1569 1.82445,0.9268 3.44503,1.711 1.62058,0.7843 3.02923,1.4731 3.13033,1.5307 0.16568,0.094 0.26177,-0.03 0.96976,-1.2565 0.59278,-1.0267 0.75177,-1.3764 0.64692,-1.4228 -0.0765,-0.034 -1.61482,-0.77 -3.41856,-1.6359 z m 5.97973,-21.4566 c -0.59903,-0.2789 -1.25718,-0.5536 -1.46256,-0.6105 l -0.37339,-0.1035 -1.03758,1.7309 c -0.80823,1.3482 -1.00772,1.7478 -0.9037,1.807 0.0734,0.042 0.46952,0.2023 0.87974,0.3563 0.41022,0.154 1.68278,0.7793 2.82792,1.3894 l 2.08207,1.1094 1.04137,-1.7374 1.04136,-1.7374 -1.50302,-0.8485 c -0.82669,-0.4667 -1.99316,-1.0768 -2.59221,-1.3557 z m 3.47523,-5.6812 c -0.57392,-0.2695 -1.25505,-0.5589 -1.51363,-0.643 l -0.47014,-0.153 -1.03872,1.7328 c -0.62791,1.0475 -0.99929,1.7555 -0.93905,1.7903 0.0548,0.032 0.49841,0.2182 0.98575,0.4145 0.48734,0.1963 1.7753,0.83 2.86213,1.4081 l 1.97607,1.0512 1.04137,-1.7374 1.04135,-1.7374 -1.45081,-0.818 c -0.79795,-0.45 -1.9204,-1.0386 -2.49432,-1.3081 z m 4.49319,-5.0014 c -0.90653,-0.4742 -2.87224,-1.3456 -3.12592,-1.3859 -0.27896,-0.044 -2.2148,3.4563 -1.96674,3.5563 1.27944,0.5163 2.39296,1.0417 3.92277,1.851 l 1.84495,0.9759 1.01825,-1.7636 1.01825,-1.7637 -0.98045,-0.5387 c -0.53925,-0.2963 -1.31825,-0.7154 -1.73111,-0.9313 z m 11.20471,-15.1751 c -3.03285,-1.4817 -5.15405,-2.29 -6.7521,-2.5729 l -0.82336,-0.1458 -3.58508,6.1471 c -3.39995,5.8297 -3.57333,6.1488 -3.35788,6.1788 2.10306,0.293 4.89782,1.3437 8.37534,3.1489 l 1.63821,0.8504 3.52899,-6.1124 3.529,-6.1124 -1.03153,-0.5712 c -0.56734,-0.3141 -1.25206,-0.6789 -1.52159,-0.8105 z m -2.16705,33.7401 -0.56086,-0.4059 c -1.11218,-0.8049 -1.28288,-1.8699 -0.61786,-3.8547 0.43268,-1.2914 1.95801,-4.3437 3.54074,-7.0853 l 1.16373,-2.0158 -1.67543,-0.9673 -1.67543,-0.9673 -4.48262,7.7641 -4.4826,7.7641 1.42589,0.7345 c 0.78424,0.404 2.28025,1.1863 3.32446,1.7386 l 1.89857,1.004 m -2.41792,4.1879 -1.84842,-0.9699 c -4.43534,-2.3275 -10.11893,-4.6466 -14.7747,-6.0285 l -1.60912,-0.4776 -0.73861,1.2112 c -0.56789,0.9312 -0.70764,1.229 -0.60439,1.2886 0.0738,0.043 1.48354,0.733 3.13272,1.5342 3.71454,1.8046 9.30646,4.6911 12.07399,6.2325 l 2.08654,1.1621 m -1.34509,2.3297 -2.73452,-1.4907 c -4.82023,-2.6278 -10.55894,-5.1693 -14.7882,-6.5492 l -0.38183,-0.1246 -0.70712,1.2248 -0.70712,1.2247 0.69926,0.3003 c 2.7058,1.1619 8.16125,3.9349 13.22287,6.7212 l 3.52274,1.9393 m -1.53049,2.6508 -2.35608,-1.3602 -2.35608,-1.3603 -2.17919,3.7745 -2.17919,3.7744 0.37274,0.1404 c 0.72642,0.2734 2.91424,1.3268 3.71452,1.7884 l 0.81154,0.4685 m -6.87048,11.9 -0.61308,-0.4597 c -1.6798,-1.2596 -2.48371,-3.045 -2.0702,-4.5977 0.26946,-1.0118 1.32229,-2.0228 2.70841,-2.6008 l 0.64141,-0.2674 0.88807,-1.5382 0.88806,-1.5382 -0.79925,-0.3689 c -2.59481,-1.1978 -5.57783,-2.3661 -6.36638,-2.4936 l -0.33371,-0.054 -0.19611,1.1878 c -0.16089,0.9744 -1.29591,7.3179 -1.97708,11.0498 l -0.16139,0.8841 2.92817,1.7277 2.92818,1.7277 m -1.79333,3.1061 -1.21653,-0.6135 c -1.62953,-0.8217 -1.888,-0.8819 -2.16037,-0.5027 -0.1868,0.2601 -1.80063,4.1751 -1.75957,4.2685 0.008,0.019 0.49786,0.2329 1.08765,0.4749 0.78982,0.3241 1.35712,0.5552 1.50931,0.7195 m -1.1064,1.9682 -0.30844,-0.1781 c -1.93628,-1.1179 -4.97937,-3.6544 -6.66897,-5.5587 l -1.08286,-1.2205 1.31283,0.7186 1.31284,0.7186 0.2229,-0.53 c 0.12258,-0.2916 0.53947,-1.1955 0.9264,-2.0088 0.38693,-0.8133 0.74386,-1.6025 0.79319,-1.7537 l 0.0897,-0.2751 -1.53005,-0.7858 c -0.84152,-0.4322 -2.78106,-1.3939 -4.31009,-2.1372 l -2.78006,-1.3515 -0.50812,-1.9436 c -1.33386,-5.1022 -1.18042,-10.4896 0.48099,-16.8885 0.21536,-0.8294 0.43697,-1.5867 0.49247,-1.6828 0.25998,-0.4503 3.51455,0.3821 5.87211,1.5019 l 0.96079,0.4563 0.22634,-0.5158 c 0.12449,-0.2837 0.99621,-2.0818 1.93715,-3.9958 0.94094,-1.9141 1.69666,-3.523 1.67938,-3.5755 -0.0557,-0.1689 -4.37614,-2.4013 -5.60298,-2.8951 -0.65319,-0.2629 -1.19731,-0.5142 -1.20915,-0.5583 -0.0118,-0.044 0.54522,-1.1635 1.2379,-2.4874 l 1.25945,-2.4069 -4.21194,-2.4318 -4.21195,-2.4318 0.12348,-0.365 c 0.0679,-0.2008 0.34434,-0.748 0.61427,-1.2161 0.27016,-0.4679 0.80587,-1.4673 1.19098,-2.2205 0.8037,-1.5719 0.85541,-1.3365 -0.50386,-2.2937 l -0.71965,-0.5068 2.38191,-4.1256 2.38192,-4.1256 1.09951,0.6348 1.0995,0.6348 0.57316,-0.9928 0.57317,-0.9927 2.29206,1.2857 2.29208,1.2857 4.12834,-5.156 c 8.74324,-10.9195 10.72568,-13.4299 11.05201,-13.9951 0.42059,-0.7285 0.48905,-1.4187 0.29064,-2.9301 l -0.14901,-1.135 m 22.30142,-12.8644 1.39187,0.7646 1.39188,0.7647 -2.38925,4.1383 -2.38925,4.1383 0.69356,-0.019 c 2.70981,-0.076 6.28094,0.6679 8.58249,1.7876 l 0.89927,0.4375 0.39701,-0.6925 c 0.74725,-1.3032 1.73581,-3.9168 1.58644,-4.1945 -0.0351,-0.065 -0.46446,-0.1952 -0.95415,-0.2888 l -0.89034,-0.1702 0.0455,-0.2766 c 0.025,-0.1522 0.51572,-3.0145 1.09049,-6.3609 l 1.04499,-6.0843 m 11.57442,-6.6794 2.81775,1.6268 2.81775,1.6269 m -21.1443,36.623 -2.04763,-1.1086 c -1.39996,-0.758 -2.27158,-1.1668 -2.75568,-1.2925 -1.30957,-0.3401 -0.83925,-0.8844 -4.0678,4.7076 l -2.83388,4.9084 0.63424,0.1711 c 0.83518,0.2252 2.82683,1.0507 4.2811,1.7743 l 1.16595,0.5802 m -11.25027,46.1124 c 1.73284,1.2548 3.16064,2.2913 3.17287,2.3034 0.0122,0.012 -0.45386,0.8465 -1.03576,1.8544 l -1.05799,1.8325 -0.3396,-0.1977 c -0.18657,-0.1092 -1.67206,-1.1546 -3.30058,-2.324 -1.62853,-1.1695 -2.97265,-2.1333 -2.98694,-2.1418 -0.0144,-0.01 0.46371,-0.8637 1.06224,-1.9003 0.83423,-1.445 1.11703,-1.8642 1.21169,-1.7964 0.0679,0.049 1.54125,1.115 3.2741,2.3698 z m 2.20911,-4.31 c 1.65183,1.1291 3.10715,2.118 3.23403,2.1975 0.22648,0.1419 0.21694,0.1683 -0.525,1.4534 l -0.75572,1.309 -0.49624,-0.2892 c -0.27296,-0.159 -1.7149,-1.1166 -3.20435,-2.1279 -1.48944,-1.0114 -2.79028,-1.8869 -2.89075,-1.9457 -0.16448,-0.096 -0.10474,-0.2418 0.60325,-1.468 0.59278,-1.0268 0.81611,-1.3393 0.90871,-1.2717 0.0675,0.049 1.47426,1.0135 3.12609,2.1426 z m 15.59206,-15.9069 c 0.54104,0.3794 1.10805,0.812 1.26002,0.9614 l 0.27631,0.2716 -0.98017,1.764 c -0.76349,1.3741 -1.00982,1.7466 -1.11313,1.6862 -0.0734,-0.042 -0.4099,-0.3055 -0.74839,-0.5838 -0.33849,-0.2782 -1.51625,-1.0677 -2.61724,-1.7543 l -2.00179,-1.2484 0.98394,-1.7706 0.98394,-1.7705 1.4864,0.8774 c 0.8175,0.4825 1.92908,1.1877 2.47011,1.567 z m 3.1825,-5.8502 c 0.52034,0.3623 1.11149,0.8075 1.31366,0.9893 l 0.36757,0.3307 -0.9813,1.7659 c -0.59319,1.0676 -1.0207,1.7432 -1.08096,1.7085 -0.0548,-0.032 -0.43814,-0.3226 -0.85183,-0.6465 -0.41368,-0.3239 -1.60641,-1.1225 -2.65052,-1.7746 l -1.89838,-1.1857 0.98394,-1.7706 0.98394,-1.7705 1.4339,0.8474 c 0.78864,0.4661 1.85963,1.1438 2.37998,1.5061 z m 2.08475,-6.3919 c 0.8639,0.548 2.60146,1.8146 2.76311,2.0142 0.17778,0.2195 -1.88577,3.6462 -2.09647,3.4814 -1.08681,-0.8499 -2.09858,-1.5516 -3.56432,-2.4718 l -1.7677,-1.1098 1.01825,-1.7636 1.01825,-1.7637 0.95677,0.5798 c 0.52622,0.3188 1.27867,0.7839 1.67211,1.0335 z m 7.53969,-17.2912 c 2.79959,1.8857 4.56017,3.3186 5.60422,4.5611 l 0.53793,0.6402 -3.53103,6.1783 c -3.3487,5.8593 -3.5383,6.169 -3.67202,5.9974 -1.30524,-1.6748 -3.6126,-3.5698 -6.91468,-5.6788 l -1.55558,-0.9936 3.52899,-6.1124 3.52899,-6.1123 1.01041,0.6077 c 0.55573,0.3342 1.21397,0.7449 1.46277,0.9124 z m -28.13626,18.7468 0.63194,0.2828 c 1.25312,0.5607 2.26076,0.1761 3.6472,-1.3923 0.90204,-1.0204 2.78275,-3.8675 4.36563,-6.609 l 1.16386,-2.0157 1.67544,0.9673 1.67543,0.9673 -4.48261,7.7641 -4.48261,7.7641 -1.34905,-0.8676 c -0.74197,-0.4771 -2.1675,-1.3815 -3.16784,-2.0098 l -1.8188,-1.1422 m -2.41791,4.188 1.76423,1.1158 c 4.23334,2.6774 9.08349,6.44 12.60815,9.781 l 1.21819,1.1547 -0.67961,1.2453 c -0.52253,0.9574 -0.71057,1.2274 -0.81382,1.1677 -0.0738,-0.043 -1.37658,-0.9182 -2.89502,-1.9459 -3.4201,-2.3145 -8.71584,-5.7141 -11.43443,-7.3401 l -2.04968,-1.226 m -1.3451,2.3298 2.65828,1.6228 c 4.68582,2.8605 9.75618,6.5597 13.06589,9.5323 l 0.29881,0.2684 -0.70712,1.2248 -0.70712,1.2247 -0.60967,-0.4554 c -2.35914,-1.7623 -7.48839,-5.1004 -12.43221,-8.0907 l -3.44077,-2.0812 m -1.5305,2.6509 2.35608,1.3603 2.35608,1.3603 -2.1792,3.7744 -2.17919,3.7745 -0.3079,-0.2526 c -0.60004,-0.4924 -2.60619,-1.8604 -3.40607,-2.3227 l -0.81154,-0.4685 m -6.87048,11.9 0.70467,0.3011 c 1.93076,0.8249 3.87889,0.6284 5.01682,-0.506 0.74149,-0.7393 1.09063,-2.1566 0.89813,-3.646 l -0.0891,-0.6892 0.88807,-1.5382 0.88806,-1.5381 0.71911,0.5077 c 2.33469,1.6483 4.83807,3.6475 5.34274,4.2666 l 0.21357,0.262 -0.93056,0.7637 c -0.76346,0.6266 -5.68957,4.7813 -8.58086,7.2372 l -0.68501,0.5818 -2.96029,-1.672 -2.96029,-1.6721 m -1.79333,3.1062 1.13956,0.7468 c 1.52642,1.0003 1.70773,1.1941 1.51552,1.6196 -0.13182,0.2918 -2.71536,3.6469 -2.81682,3.658 -0.0208,0 -0.45059,-0.3147 -0.95507,-0.7045 -0.6756,-0.5219 -1.15938,-0.8977 -1.37776,-0.9473 m -1.15134,1.9423 0.30844,0.178 c 1.93626,1.1179 5.65448,2.4851 8.14848,2.9962 l 1.59843,0.3275 -1.27878,-0.7776 -1.27876,-0.7777 0.3476,-0.458 c 0.19119,-0.252 0.76558,-1.065 1.27645,-1.8067 0.51085,-0.7417 1.01584,-1.4455 1.1222,-1.5638 l 0.19337,-0.2152 1.44555,0.9322 c 0.79505,0.5126 2.59773,1.7115 4.00594,2.664 l 2.56039,1.7319 1.93731,-0.5318 c 5.08551,-1.3959 9.67447,-4.2225 14.38534,-8.8608 0.61064,-0.6012 1.15566,-1.1718 1.21116,-1.2679 0.25998,-0.4503 -2.08821,-2.8526 -4.23673,-4.3344 l -0.8756,-0.6039 0.33351,-0.454 c 0.18343,-0.2496 1.3048,-1.9036 2.49195,-3.6755 1.18715,-1.7719 2.20268,-3.2309 2.25674,-3.2421 0.17409,-0.036 4.26769,2.5892 5.30874,3.4047 0.55428,0.4343 1.04393,0.7799 1.08811,0.768 0.0442,-0.012 0.73499,-1.0539 1.53512,-2.3157 l 1.45479,-2.2942 4.21194,2.4318 4.21194,2.4317 0.25438,-0.2894 c 0.1399,-0.1592 0.47561,-0.6722 0.74601,-1.14 0.27037,-0.4678 0.86778,-1.4316 1.32753,-2.1417 0.95946,-1.482 0.72977,-1.409 2.23839,-0.7105 l 0.79871,0.3698 2.38191,-4.1255 2.38192,-4.1257 -1.0995,-0.6348 -1.0995,-0.6348 0.57316,-0.9927 0.57316,-0.9927 -2.25948,-1.3422 -2.25949,-1.3421 2.40101,-6.1533 c 5.08499,-13.0316 6.2678,-16.0036 6.59413,-16.5688 0.42059,-0.7285 0.98411,-1.1329 2.39221,-1.7168 l 1.05747,-0.4384 m -0.01,-25.7458 -1.35814,-0.8231 -1.35812,-0.8231 -2.38925,4.1383 -2.38925,4.1383 -0.32996,-0.6103 c -1.28918,-2.3848 -3.71891,-5.1055 -5.83939,-6.5389 l -0.82852,-0.56 0.4012,-0.6901 c 0.755,-1.2987 2.5242,-3.4617 2.83932,-3.4711 0.074,0 0.40129,0.3046 0.72721,0.6819 l 0.59259,0.6859 0.21681,-0.1776 c 0.11924,-0.098 2.35279,-1.9539 4.96344,-4.1249 l 4.74663,-3.9471 m -0.003,-13.3634 -2.81775,-1.6269 -2.81777,-1.6268 m -21.14429,36.623 1.98388,1.219 c 1.35639,0.8334 2.14624,1.3839 2.49718,1.7403 0.94934,0.964 1.18555,0.2846 -2.04299,5.8765 l -2.83388,4.9085 -0.46526,-0.4638 c -0.61267,-0.6106 -2.32339,-1.9227 -3.67721,-2.8203 l -1.08542,-0.7197 m -11.2089,-158.772 c 1.73285,-1.2548 3.16065,-2.2914 3.17288,-2.3034 0.0122,-0.012 -0.45386,-0.8466 -1.03576,-1.8545 l -1.058,-1.8325 -0.33962,0.1977 c -0.18682,0.1087 -1.67206,1.1546 -3.30059,2.324 -1.62852,1.1695 -2.97264,2.1333 -2.98693,2.1418 -0.0143,0.01 0.46371,0.8636 1.06223,1.9003 0.83424,1.4449 1.11705,1.8642 1.2117,1.7964 0.0679,-0.049 1.54125,-1.115 3.2741,-2.3698 z m 2.20912,4.3099 c 1.65183,-1.1291 3.10715,-2.1179 3.23403,-2.1974 0.2265,-0.1419 0.21693,-0.1684 -0.52501,-1.4535 l -0.75571,-1.3089 -0.49626,0.2891 c -0.27295,0.159 -1.71491,1.1166 -3.20435,2.128 -1.48944,1.0113 -2.79028,1.8868 -2.89076,1.9456 -0.16459,0.096 -0.10473,0.2418 0.60326,1.4681 0.59279,1.0267 0.81612,1.3392 0.90871,1.2716 0.0675,-0.049 1.47426,-1.0135 3.12609,-2.1426 z m 15.59207,15.9069 c 0.54104,-0.3793 1.10804,-0.812 1.26001,-0.9614 l 0.27631,-0.2716 -0.98017,-1.764 c -0.76348,-1.374 -1.0095,-1.7468 -1.11312,-1.6861 -0.0731,0.043 -0.40991,0.3055 -0.74841,0.5837 -0.33848,0.2783 -1.51624,1.0677 -2.61723,1.7543 l -2.0018,1.2485 0.98395,1.7705 0.98394,1.7706 1.4864,-0.8774 c 0.81753,-0.4826 1.92908,-1.1877 2.47012,-1.5671 z m 3.18249,5.8503 c 0.52034,-0.3623 1.11149,-0.8075 1.31366,-0.9894 l 0.36758,-0.3306 -0.98131,-1.766 c -0.5932,-1.0675 -1.0207,-1.7432 -1.08096,-1.7084 -0.0548,0.032 -0.43814,0.3225 -0.85182,0.6464 -0.41368,0.3239 -1.60643,1.1225 -2.65053,1.7747 l -1.89838,1.1857 0.98394,1.7705 0.98394,1.7706 1.43391,-0.8474 c 0.78863,-0.4661 1.85963,-1.1438 2.37997,-1.5061 z m 2.08475,6.3919 c 0.86389,-0.548 2.60146,-1.8146 2.76311,-2.0142 0.17778,-0.2195 -1.88576,-3.6462 -2.09648,-3.4814 -1.08679,0.8499 -2.09857,1.5515 -3.56431,2.4717 l -1.7677,1.1098 1.01825,1.7637 1.01824,1.7636 0.95677,-0.5797 c 0.52623,-0.3189 1.27868,-0.7839 1.67212,-1.0335 z m 7.5397,17.2911 c 2.79958,-1.8857 4.56016,-3.3186 5.60422,-4.5611 l 0.53792,-0.6401 -3.53103,-6.1783 c -3.3487,-5.8593 -3.5383,-6.169 -3.67202,-5.9974 -1.30524,1.6748 -3.6126,3.5697 -6.91469,5.6788 l -1.55557,0.9935 3.52899,6.1124 3.52899,6.1124 1.01041,-0.6078 c 0.55573,-0.3342 1.21396,-0.7448 1.46278,-0.9124 z m -28.13626,-18.7468 0.63193,-0.2827 c 1.25312,-0.5608 2.26077,-0.1761 3.64721,1.3922 0.90204,1.0204 2.78274,3.8676 4.36562,6.609 l 1.16386,2.0157 1.67543,-0.9673 1.67544,-0.9673 -4.48261,-7.7641 -4.48262,-7.7641 -1.34904,0.8676 c -0.74197,0.4772 -2.1675,1.3816 -3.16784,2.0098 l -1.81879,1.1422 m -2.41793,-4.1879 1.76424,-1.1158 c 4.23334,-2.6774 9.08349,-6.44 12.60815,-9.7811 l 1.21819,-1.1547 -0.67961,-1.2453 c -0.52252,-0.9574 -0.71062,-1.2273 -0.81382,-1.1677 -0.0738,0.043 -1.37658,0.9183 -2.89502,1.9459 -3.42011,2.3146 -8.71584,5.7141 -11.43444,7.3402 l -2.04967,1.2259 m -1.3451,-2.3298 2.65828,-1.6227 c 4.68583,-2.8606 9.75619,-6.5597 13.06588,-9.5324 l 0.29881,-0.2684 -0.70712,-1.2247 -0.70711,-1.2248 -0.60968,0.4554 c -2.35913,1.7624 -7.48837,5.1004 -12.4322,8.0908 l -3.44077,2.0811 m -1.5305,-2.6509 2.35608,-1.3602 2.35608,-1.3603 -2.1792,-3.7745 -2.17919,-3.7745 -0.3079,0.2527 c -0.60004,0.4923 -2.60619,1.8604 -3.40607,2.3226 l -0.81136,0.4689 m -6.87048,-11.9 0.70467,-0.3011 c 1.93076,-0.825 3.87889,-0.6285 5.01682,0.506 0.74149,0.7392 1.09062,2.1565 0.89814,3.6459 l -0.0891,0.6893 0.88807,1.5381 0.88806,1.5382 0.71911,-0.5077 c 2.33469,-1.6483 4.83807,-3.6475 5.34274,-4.2667 l 0.21357,-0.262 -0.93055,-0.7637 c -0.76347,-0.6266 -5.68957,-4.7812 -8.58087,-7.2371 l -0.68501,-0.5818 -2.96029,1.672 -2.96029,1.672 m -1.79333,-3.1061 1.13956,-0.7468 c 1.52642,-1.0003 1.70774,-1.1941 1.51552,-1.6196 -0.13182,-0.2918 -2.71536,-3.6469 -2.81682,-3.6581 -0.0208,0 -0.45059,0.3148 -0.95507,0.7045 -0.67559,0.522 -1.15938,0.8977 -1.37775,0.9474 m -1.15135,-1.9423 0.30844,-0.1781 c 1.93627,-1.1179 5.65448,-2.485 8.14849,-2.9961 l 1.59842,-0.3275 -1.27877,0.7776 -1.27877,0.7776 0.34761,0.4581 c 0.19118,0.2519 0.76557,1.0649 1.27643,1.8067 0.51086,0.7417 1.01585,1.4454 1.12221,1.5638 l 0.19338,0.2152 1.44554,-0.9322 c 0.79505,-0.5127 2.59772,-1.7115 4.00594,-2.664 l 2.56039,-1.7319 1.93732,0.5317 c 5.08551,1.396 9.67446,4.2226 14.38534,8.8608 0.61063,0.6013 1.15565,1.1718 1.21115,1.2679 0.25998,0.4503 -2.08821,2.8527 -4.23673,4.3345 l -0.8756,0.6039 0.33351,0.4539 c 0.18343,0.2497 1.30481,1.9037 2.49195,3.6756 1.18715,1.7719 2.20268,3.2308 2.25674,3.2421 0.1741,0.036 4.2677,-2.5892 5.30875,-3.4048 0.55427,-0.4342 1.04392,-0.7798 1.08811,-0.768 0.0442,0.012 0.73498,1.0539 1.53512,2.3157 l 1.45477,2.2942 4.21195,-2.4317 4.21195,-2.4318 0.25437,0.2894 c 0.13991,0.1593 0.47561,0.6723 0.74601,1.1401 0.27038,0.4678 0.86779,1.4315 1.32753,2.1416 0.95946,1.482 0.72977,1.4091 2.23839,0.7106 l 0.79871,-0.3699 2.38192,4.1256 2.38191,4.1256 -1.0995,0.6348 -1.0995,0.6348 0.57316,0.9928 0.57317,0.9927 -2.25949,1.3421 -2.25948,1.3422 2.401,6.1532 c 5.08499,13.0316 6.26781,16.0037 6.59413,16.5689 0.42059,0.7285 0.98411,1.1329 2.39221,1.7167 l 1.05748,0.4385 m -0.01,25.7458 -1.35813,0.8231 -1.35813,0.823 -2.38925,-4.1383 -2.38924,-4.1383 -0.32997,0.6104 c -1.28917,2.3847 -3.71891,5.1055 -5.83939,6.5388 l -0.82852,0.5601 0.40115,0.6901 c 0.75497,1.2987 2.5242,3.4617 2.83932,3.4711 0.0741,0 0.40129,-0.3046 0.72721,-0.6819 l 0.59259,-0.6859 0.21681,0.1776 c 0.11925,0.098 2.35279,1.9539 4.96345,4.1249 l 4.74663,3.9471 m -0.003,13.3634 -2.81776,1.6269 -2.81775,1.6268 m -21.14429,-36.623 1.98388,-1.219 c 1.35638,-0.8334 2.14624,-1.3839 2.49716,-1.7403 0.94935,-0.964 1.18555,-0.2846 -2.04298,-5.8766 l -2.83388,-4.9084 -0.46526,0.4638 c -0.61267,0.6106 -2.32338,1.9227 -3.67721,2.8203 l -1.08542,0.7197 m -34.30952,-32.7996 c -1.9531,0.8733 -3.56465,1.5916 -3.58122,1.5961 -0.0166,0 -0.50621,-0.8163 -1.08811,-1.8242 l -1.058,-1.8325 0.34102,-0.1953 c 0.18754,-0.1074 1.83588,-0.8708 3.66294,-1.6964 1.82706,-0.8256 3.33379,-1.5077 3.34829,-1.5159 0.0145,-0.01 0.51607,0.8335 1.1146,1.8701 0.83424,1.445 1.05594,1.8995 0.9499,1.9476 -0.0761,0.035 -1.73631,0.7772 -3.68942,1.6505 z m 2.62798,4.0681 c -1.80375,0.866 -3.38778,1.6319 -3.52006,1.7021 -0.23614,0.1252 -0.25428,0.1037 -0.99623,-1.1814 l -0.75571,-1.309 0.49852,-0.2852 c 0.27419,-0.1568 1.82446,-0.9268 3.44504,-1.711 1.62057,-0.7843 3.02922,-1.4731 3.13033,-1.5307 0.16555,-0.095 0.26176,0.03 0.96976,1.2565 0.59278,1.0267 0.75177,1.3764 0.64692,1.4227 -0.0765,0.034 -1.61482,0.7701 -3.41857,1.636 z m 5.97973,21.4566 c -0.59904,0.2789 -1.2572,0.5536 -1.46256,0.6105 l -0.37339,0.1035 -1.03758,-1.7308 c -0.80823,-1.3483 -1.00804,-1.7477 -0.9037,-1.8071 0.0736,-0.042 0.46951,-0.2023 0.87973,-0.3563 0.41022,-0.154 1.68279,-0.7792 2.82793,-1.3894 l 2.08206,-1.1094 1.04137,1.7374 1.04136,1.7374 -1.50302,0.8486 c -0.82666,0.4667 -1.99315,1.0767 -2.5922,1.3556 z m 3.47523,5.6813 c -0.57392,0.2694 -1.25506,0.5588 -1.51364,0.6429 l -0.47014,0.153 -1.03871,-1.7328 c -0.62792,-1.0475 -0.9993,-1.7555 -0.93905,-1.7903 0.0548,-0.032 0.49841,-0.2182 0.98575,-0.4145 0.48734,-0.1963 1.7753,-0.83 2.86213,-1.4081 l 1.97606,-1.0512 1.04136,1.7374 1.04137,1.7374 -1.45082,0.8181 c -0.79795,0.4499 -1.92039,1.0386 -2.49431,1.3081 z m 4.49318,5.0014 c -0.90653,0.4741 -2.87224,1.3456 -3.12591,1.3858 -0.27896,0.044 -2.21481,-3.4562 -1.96675,-3.5563 1.27944,-0.5163 2.39296,-1.0417 3.92277,-1.8509 l 1.84496,-0.976 1.01824,1.7637 1.01825,1.7636 -0.98045,0.5387 c -0.53925,0.2963 -1.31824,0.7154 -1.73111,0.9314 z m 11.20471,15.1751 c -3.03285,1.4817 -5.15405,2.2899 -6.75211,2.5729 l -0.82335,0.1457 -3.58507,-6.1471 c -3.39995,-5.8297 -3.57333,-6.1487 -3.35788,-6.1787 2.10305,-0.293 4.8978,-1.3438 8.37532,-3.1489 l 1.63822,-0.8504 3.529,6.1124 3.52899,6.1123 -1.03153,0.5712 c -0.56734,0.3142 -1.25206,0.6789 -1.52159,0.8106 z m -2.16704,-33.7401 -0.56086,0.4059 c -1.11218,0.8048 -1.28288,1.8698 -0.61786,3.8547 0.43267,1.2914 1.95801,4.3437 3.54073,7.0852 l 1.16373,2.0158 -1.67543,0.9673 -1.67543,0.9673 -4.48261,-7.7641 -4.48261,-7.7641 1.42589,-0.7345 c 0.78424,-0.404 2.28025,-1.1863 3.32446,-1.7385 l 1.89858,-1.004 m -2.41793,-4.188 -1.84841,0.97 c -4.43536,2.3275 -10.11894,4.6465 -14.77471,6.0284 l -1.60911,0.4777 -0.73861,-1.2112 c -0.56789,-0.9313 -0.70759,-1.2291 -0.60439,-1.2887 0.0738,-0.043 1.48354,-0.733 3.13271,-1.5342 3.71454,-1.8046 9.30647,-4.6911 12.07399,-6.2324 l 2.08655,-1.1621 m -1.3451,-2.3298 -2.73452,1.4907 c -4.82022,2.6278 -10.55894,5.1693 -14.7882,6.5493 l -0.38183,0.1245 -0.70712,-1.2247 -0.70712,-1.2248 0.69926,-0.3003 c 2.7058,-1.1619 8.16126,-3.9349 13.22287,-6.7212 l 3.52275,-1.9392 m -1.5305,-2.6509 -2.35608,1.3603 -2.35608,1.3603 -2.17919,-3.7745 -2.17919,-3.7745 0.37275,-0.1403 c 0.72641,-0.2735 2.91422,-1.3268 3.71451,-1.7884 l 0.81172,-0.4683 m -6.87048,-11.9 -0.61308,0.4597 c -1.6798,1.2597 -2.4837,3.045 -2.07019,4.5977 0.26945,1.0118 1.32229,2.0228 2.70841,2.6008 l 0.6414,0.2675 0.88807,1.5382 0.88806,1.5381 -0.79924,0.369 c -2.5948,1.1977 -5.57784,2.3661 -6.36639,2.4936 l -0.3337,0.054 -0.19611,-1.1877 c -0.1609,-0.9745 -1.29591,-7.3179 -1.9771,-11.0498 l -0.16138,-0.8842 2.92818,-1.7276 2.92817,-1.7277 m -1.79333,-3.1061 -1.21652,0.6134 c -1.62954,0.8218 -1.88801,0.8819 -2.16039,0.5027 -0.18678,-0.26 -1.80062,-4.175 -1.75956,-4.2685 0.008,-0.019 0.49787,-0.2328 1.08765,-0.4748 0.78982,-0.3241 1.35712,-0.5552 1.50931,-0.7195 m -1.1064,-1.9683 -0.30844,0.1781 c -1.93627,1.1179 -4.97937,3.6544 -6.66896,5.5588 l -1.08287,1.2205 1.31283,-0.7187 1.31284,-0.7186 0.2229,0.5301 c 0.12259,0.2915 0.53947,1.1955 0.9264,2.0087 0.38693,0.8133 0.74386,1.6025 0.79319,1.7538 l 0.0897,0.2751 -1.53005,0.7858 c -0.84153,0.4322 -2.78107,1.3939 -4.3101,2.1372 l -2.78005,1.3514 -0.50813,1.9437 c -1.33386,5.1021 -1.18042,10.4896 0.481,16.8884 0.21535,0.8295 0.43696,1.5868 0.49246,1.6829 0.25998,0.4503 3.51456,-0.3821 5.87211,-1.5019 l 0.96079,-0.4564 0.22634,0.5158 c 0.12449,0.2837 0.99621,2.0818 1.93715,3.9959 0.94094,1.914 1.69666,3.523 1.67938,3.5754 -0.0557,0.1689 -4.37614,2.4014 -5.60298,2.8952 -0.65319,0.2629 -1.19731,0.5141 -1.20915,0.5583 -0.0118,0.044 0.54523,1.1635 1.23791,2.4873 l 1.25944,2.407 -4.21194,2.4318 -4.21195,2.4317 0.12348,0.365 c 0.0679,0.2008 0.34434,0.748 0.61427,1.2161 0.26996,0.4681 0.80588,1.4673 1.19098,2.2205 0.80371,1.5719 0.85541,1.3366 -0.50386,2.2938 l -0.71965,0.5068 2.38192,4.1256 2.38191,4.1256 1.09951,-0.6348 1.0995,-0.6348 0.57316,0.9927 0.57316,0.9928 2.29207,-1.2857 2.29208,-1.2857 4.12834,5.1559 c 8.74323,10.9196 10.72568,13.4299 11.05201,13.9951 0.42059,0.7285 0.48905,1.4187 0.29064,2.9301 l -0.14901,1.1351 m 22.3014,12.8644 1.39187,-0.7647 1.39187,-0.7646 -2.38925,-4.1383 -2.38925,-4.1383 0.69356,0.019 c 2.70981,0.076 6.28094,-0.6679 8.58249,-1.7876 l 0.89928,-0.4375 0.39706,0.6924 c 0.74728,1.3032 1.73582,3.9169 1.58645,4.1945 -0.0351,0.065 -0.46447,0.1952 -0.95416,0.2889 l -0.89034,0.1702 0.0455,0.2766 c 0.025,0.1521 0.51572,3.0145 1.09047,6.3609 l 1.045,6.0842 m 11.57441,6.6794 2.81776,-1.6268 2.81775,-1.6268 m -21.14428,-36.6231 -2.04762,1.1086 c -1.39997,0.758 -2.2716,1.1668 -2.75569,1.2925 -1.30957,0.3402 -0.83925,0.8844 -4.06779,-4.7076 l -2.83389,-4.9084 0.63424,-0.171 c 0.83518,-0.2253 2.82683,-1.0508 4.28111,-1.7744 l 1.16594,-0.5802 m 143.10485,69.6786 c 0.22027,2.1281 0.40402,3.8828 0.40836,3.8994 0.004,0.017 0.96007,0.03 2.12387,0.03 l 2.11599,0 -10e-4,-0.393 c -0.001,-0.2161 -0.16382,-2.0253 -0.36235,-4.0204 -0.19854,-1.9951 -0.36115,-3.641 -0.36137,-3.6576 0,-0.017 -0.97978,-0.03 -2.17684,-0.03 -1.66846,0 -2.17297,0.035 -2.16159,0.1512 0.008,0.083 0.19506,1.8923 0.41532,4.0204 z m -4.83708,-0.2419 c 0.15192,1.9951 0.28063,3.7499 0.28602,3.8995 0.01,0.2671 0.0374,0.2721 1.52124,0.2721 l 1.51143,0 -0.002,-0.5744 c -10e-4,-0.3159 -0.10956,-2.0434 -0.24069,-3.839 -0.13114,-1.7956 -0.23894,-3.3599 -0.23957,-3.4763 -0.001,-0.1906 -0.15704,-0.2116 -1.57301,-0.2116 -1.18558,0 -1.5679,0.037 -1.55564,0.1512 0.009,0.083 0.14055,1.7835 0.29248,3.7785 z m -21.5718,5.5497 c 0.058,0.6583 0.14916,1.3656 0.20255,1.5719 l 0.0971,0.3751 2.01774,0.033 c 1.57173,0.026 2.01754,0 2.01682,-0.1209 0,-0.085 -0.0596,-0.5077 -0.13132,-0.94 -0.0717,-0.4322 -0.16654,-1.8469 -0.21068,-3.1437 l -0.0803,-2.3578 -2.02531,-0.033 -2.0253,-0.033 0.0166,1.7259 c 0.009,0.9493 0.0641,2.2645 0.12208,2.9227 z m -6.65772,-0.169 c 0.0536,0.6318 0.14357,1.3663 0.19998,1.6323 l 0.10256,0.4837 2.02002,0.033 c 1.22111,0.02 2.02,-0.012 2.02,-0.082 0,-0.063 -0.0603,-0.5407 -0.13392,-1.0609 -0.0737,-0.5202 -0.16887,-1.9524 -0.2116,-3.1827 l -0.0777,-2.237 -2.02532,-0.033 -2.02529,-0.033 0.0169,1.6655 c 0.009,0.9161 0.0608,2.1824 0.11434,2.8142 z m -6.57793,-1.3905 c 0.0426,1.0222 0.27076,3.1602 0.36279,3.4 0.10118,0.2637 4.10057,0.19 4.06323,-0.075 -0.19264,-1.3661 -0.29439,-2.5932 -0.35845,-4.3226 l -0.0773,-2.0858 -2.03649,0 -2.0365,0 0.0237,1.1184 c 0.013,0.6152 0.0396,1.4994 0.059,1.9649 z m -18.74441,-2.116 c 0.23327,3.3674 0.59388,5.6085 1.14788,7.1339 l 0.28544,0.786 7.11609,0.031 c 6.74866,0.03 7.11164,0.02 7.02991,-0.1814 -0.79781,-1.9678 -1.28521,-4.9135 -1.46064,-8.8277 l -0.0826,-1.8439 -7.05798,0 -7.05798,0 0.0211,1.1789 c 0.0116,0.6484 0.0381,1.4237 0.0588,1.723 z m 30.30331,-14.9933 -0.0711,0.6886 c -0.14095,1.3656 -0.97789,2.0459 -3.02935,2.4625 -1.33471,0.271 -4.74075,0.4761 -7.90635,0.4762 l -2.32759,10e-5 0,1.9346 0,1.9346 8.96521,0 8.96523,0 -0.0769,-1.6021 c -0.0423,-0.8811 -0.11274,-2.5679 -0.15662,-3.7483 l -0.0798,-2.1462 m 4.83583,0 0.0842,2.0857 c 0.202,5.0049 1.03544,11.0866 2.16655,15.8095 l 0.39093,1.6324 1.41822,0.034 c 1.09042,0.026 1.41822,0 1.41822,-0.121 -2e-5,-0.085 -0.10698,-1.6513 -0.2377,-3.4801 -0.29444,-4.1192 -0.59064,-10.4052 -0.63956,-13.5726 l -0.0369,-2.388 m 2.69021,0 0.0762,3.1135 c 0.1344,5.4883 0.80276,11.729 1.72232,16.0816 l 0.083,0.3929 1.41425,0 1.41423,0 -0.0896,-0.7557 c -0.34668,-2.9242 -0.67288,-9.0353 -0.79067,-14.8119 l -0.082,-4.0204 m 3.06099,0 0,2.7205 0,2.7206 4.35839,0 4.35839,0 -0.0649,-0.393 c -0.12636,-0.7658 -0.30803,-3.1872 -0.30844,-4.111 l 0,-0.9371 m 13.74097,0 -0.0916,0.7608 c -0.25097,2.0845 -1.39519,3.6734 -2.94663,4.0917 -1.01093,0.2725 -2.41291,-0.1338 -3.60655,-1.0452 l -0.55234,-0.4217 -1.77612,0 -1.77613,0 0.0801,0.8766 c 0.26011,2.846 0.73977,6.0136 1.02364,6.7603 l 0.12013,0.3159 1.12668,-0.424 c 0.92436,-0.3479 6.98547,-2.5367 10.55795,-3.8127 l 0.8464,-0.3023 0.0321,-3.3997 0.0321,-3.3997 m 3.58666,0 0.077,1.3603 c 0.10312,1.8221 0.18026,2.076 0.64486,2.1222 0.31862,0.032 4.51598,-0.5281 4.57638,-0.6104 0.0124,-0.017 -0.0473,-0.5476 -0.13257,-1.1793 -0.11423,-0.8461 -0.19773,-1.4529 -0.13156,-1.6669 m 2.25776,-0.026 0,0.3561 c 0,2.2358 -0.67511,6.1395 -1.47953,8.5549 l -0.51555,1.548 -0.0341,-1.4962 -0.0341,-1.4963 -0.5705,0.072 c -0.31377,0.04 -1.30505,0.1305 -2.20283,0.2021 -0.89779,0.072 -1.75972,0.157 -1.9154,0.1899 l -0.28305,0.06 0.0845,1.718 c 0.0465,0.9449 0.18335,3.1054 0.30416,4.8012 l 0.21966,3.0834 -1.42918,1.4118 c -3.75166,3.7063 -8.49406,6.2671 -14.86635,8.0277 -0.82599,0.2282 -1.59262,0.4149 -1.7036,0.4149 -0.51996,0 -1.42637,-3.2347 -1.63539,-5.8363 l -0.0852,-1.0602 -0.55984,0.062 c -0.30792,0.034 -2.30102,0.1782 -4.4291,0.3204 -2.12809,0.1421 -3.89935,0.2921 -3.93613,0.3333 -0.11843,0.1326 0.10845,4.9905 0.29425,6.2999 0.0989,0.6971 0.15338,1.294 0.12103,1.3263 -0.0324,0.032 -1.2802,0.1096 -2.77303,0.1716 l -2.71421,0.1128 0,4.8635 0,4.8636 -0.37786,0.075 c -0.20783,0.042 -0.81995,0.076 -1.36028,0.076 -0.54034,0 -1.67367,0.036 -2.51852,0.079 -1.76316,0.09 -1.58517,-0.073 -1.73452,1.5833 l -0.0791,0.8766 -4.76383,0 -4.76383,0 0,-1.2696 0,-1.2696 -1.14632,0 -1.14633,0 -0.0326,-2.6278 -0.0326,-2.6279 -6.52936,-0.9973 c -13.82822,-2.1121 -16.99348,-2.5737 -17.64613,-2.5737 -0.84118,0 -1.47316,0.2858 -2.68285,1.2133 l -0.90847,0.6966 m -22.2916,-12.8814 -0.0338,-1.5877 -0.0337,-1.5877 4.77849,0 4.7785,0 -0.3636,-0.591 c -1.42063,-2.3088 -2.56202,-5.7734 -2.74309,-8.3264 l -0.0708,-0.9976 -0.79821,0 c -1.50225,0 -4.26002,0.4552 -4.42577,0.7234 -0.0389,0.063 0.0632,0.4998 0.22694,0.9707 l 0.29776,0.8562 -0.26228,0.099 c -0.14425,0.054 -2.86852,1.0607 -6.05392,2.2361 l -5.79163,2.1371 m -11.57175,-6.684 0,-3.2537 0,-3.2536 m 42.2886,0 0.0637,2.3276 c 0.0436,1.5913 0.12535,2.5506 0.25852,3.0327 0.36023,1.3042 -0.3463,1.169 6.11078,1.169 l 5.66775,0 -0.16897,-0.6348 c -0.22251,-0.8359 -0.50345,-2.9735 -0.60389,-4.5947 l -0.0805,-1.2998 m 45.55964,-13.3131 c 0.22026,-2.1281 0.40401,-3.8829 0.40834,-3.8995 0.004,-0.017 0.96008,-0.03 2.12388,-0.03 l 2.11599,0 -10e-4,0.3929 c -10e-4,0.2162 -0.16382,2.0253 -0.36237,4.0204 -0.19851,1.9951 -0.36113,3.6411 -0.36135,3.6577 0,0.017 -0.97979,0.03 -2.17682,0.03 -1.66848,0 -2.173,-0.035 -2.16161,-0.1511 0.008,-0.083 0.19506,-1.8923 0.41533,-4.0204 z m -4.83709,0.2418 c 0.15192,-1.9951 0.28063,-3.7498 0.28602,-3.8995 0.01,-0.2671 0.0374,-0.272 1.52124,-0.272 l 1.51143,0 -0.002,0.5743 c -10e-4,0.3159 -0.10955,2.0435 -0.24069,3.839 -0.13113,1.7956 -0.23894,3.3599 -0.23957,3.4763 -10e-4,0.1906 -0.15704,0.2116 -1.57301,0.2116 -1.18558,0 -1.5679,-0.037 -1.55564,-0.1511 0.009,-0.083 0.14057,-1.7835 0.29248,-3.7786 z m -21.5718,-5.5497 c 0.058,-0.6582 0.14916,-1.3656 0.20255,-1.5719 l 0.0971,-0.3751 2.01774,-0.033 c 1.57172,-0.026 2.01754,0 2.01682,0.1209 0,0.085 -0.0596,0.5077 -0.13132,0.94 -0.0717,0.4323 -0.16655,1.847 -0.21069,3.1438 l -0.0803,2.3578 -2.02531,0.033 -2.0253,0.033 0.0166,-1.726 c 0.009,-0.9492 0.0641,-2.2644 0.12209,-2.9227 z m -6.65772,0.169 c 0.0536,-0.6317 0.14357,-1.3663 0.19998,-1.6323 l 0.10256,-0.4837 2.02001,-0.033 c 1.22112,-0.02 2.02001,0.012 2.02001,0.082 0,0.063 -0.0603,0.5407 -0.13392,1.0609 -0.0737,0.5203 -0.16888,1.9525 -0.2116,3.1828 l -0.0777,2.2369 -2.0253,0.033 -2.02531,0.033 0.0169,-1.6655 c 0.009,-0.916 0.0608,-2.1824 0.11434,-2.8142 z m -6.57794,1.3905 c 0.0426,-1.0221 0.27079,-3.1602 0.3628,-3.4 0.1012,-0.2637 4.10058,-0.19 4.06323,0.075 -0.19264,1.3662 -0.29439,2.5932 -0.35845,4.3227 l -0.0773,2.0857 -2.03649,0 -2.0365,0 0.0237,-1.1184 c 0.013,-0.6152 0.0396,-1.4993 0.059,-1.9649 z m -18.7444,2.116 c 0.23327,-3.3673 0.59388,-5.6085 1.14789,-7.1339 l 0.28543,-0.7859 7.11609,-0.031 c 6.74866,-0.03 7.11164,-0.02 7.02991,0.1813 -0.79781,1.9678 -1.28521,4.9135 -1.46064,8.8277 l -0.0826,1.844 -7.05798,0 -7.05798,0 0.0211,-1.1789 c 0.0116,-0.6484 0.0381,-1.4238 0.0588,-1.7231 z m 30.30331,14.9934 -0.0711,-0.6887 c -0.14093,-1.3656 -0.97788,-2.0459 -3.02934,-2.4624 -1.33471,-0.271 -4.74075,-0.4762 -7.90635,-0.4763 l -2.32759,-10e-5 0,-1.9346 0,-1.9346 8.96521,0 8.96523,0 -0.0769,1.6021 c -0.0423,0.8812 -0.11276,2.5679 -0.15662,3.7483 l -0.0798,2.1463 m 4.83584,0 0.0842,-2.0858 c 0.20201,-5.0049 1.03544,-11.0865 2.16655,-15.8095 l 0.39094,-1.6323 1.41821,-0.034 c 1.09041,-0.026 1.41822,0 1.4182,0.1209 0,0.085 -0.10695,1.6513 -0.23768,3.4801 -0.29444,4.1192 -0.59064,10.4052 -0.63955,13.5726 l -0.0369,2.3881 m 2.69019,0 0.0763,-3.1136 c 0.13439,-5.4883 0.80275,-11.7289 1.7223,-16.0815 l 0.083,-0.393 1.41424,0 1.41424,0 -0.0896,0.7557 c -0.34666,2.9243 -0.67288,9.0353 -0.79066,14.812 l -0.082,4.0204 m 3.061,0 0,-2.7206 0,-2.7206 4.35838,0 4.35838,0 -0.0649,0.393 c -0.12635,0.7659 -0.30803,3.1872 -0.30844,4.1111 l 0,0.9371 m 13.74097,0 -0.0916,-0.7608 c -0.25096,-2.0846 -1.39519,-3.6735 -2.94663,-4.0917 -1.01095,-0.2726 -2.41292,0.1337 -3.60655,1.0451 l -0.55233,0.4218 -1.77613,0 -1.77613,0 0.0801,-0.8767 c 0.26011,-2.846 0.73977,-6.0136 1.02364,-6.7602 l 0.12013,-0.316 1.12668,0.4241 c 0.92436,0.3478 6.98547,2.5366 10.55795,3.8126 l 0.8464,0.3023 0.0321,3.3998 0.0321,3.3997 m 3.58665,0 0.077,-1.3603 c 0.10311,-1.8221 0.18026,-2.076 0.64487,-2.1223 0.3186,-0.032 4.51598,0.5281 4.57638,0.6104 0.0124,0.017 -0.0473,0.5476 -0.13257,1.1794 -0.11424,0.846 -0.19774,1.4529 -0.13157,1.6668 m 2.25776,0.026 0,-0.3562 c -2e-5,-2.2358 -0.67513,-6.1394 -1.47954,-8.5548 l -0.51554,-1.5481 -0.0341,1.4963 -0.0341,1.4962 -0.5705,-0.072 c -0.31377,-0.04 -1.30505,-0.1305 -2.20283,-0.202 -0.89779,-0.072 -1.75971,-0.1571 -1.9154,-0.19 l -0.28306,-0.06 0.0845,-1.7179 c 0.0465,-0.9449 0.18335,-3.1055 0.30417,-4.8013 l 0.21965,-3.0833 -1.42919,-1.4119 c -3.75165,-3.7062 -8.49405,-6.2671 -14.86634,-8.0277 -0.82599,-0.2282 -1.59262,-0.4149 -1.70362,-0.4149 -0.51994,0 -1.42635,3.2348 -1.63537,5.8363 l -0.0852,1.0603 -0.55984,-0.062 c -0.30792,-0.034 -2.30102,-0.1782 -4.4291,-0.3203 -2.12809,-0.1422 -3.89935,-0.2922 -3.93612,-0.3333 -0.11844,-0.1327 0.10844,-4.9906 0.29424,-6.2999 0.0989,-0.6972 0.15338,-1.294 0.12103,-1.3264 -0.0323,-0.032 -1.28021,-0.1095 -2.77303,-0.1716 l -2.71421,-0.1127 0,-4.8636 0,-4.8635 -0.37786,-0.076 c -0.20782,-0.042 -0.81994,-0.076 -1.36028,-0.076 -0.54034,-3e-4 -1.67367,-0.036 -2.51851,-0.079 -1.76317,-0.09 -1.58519,0.073 -1.73453,-1.5832 l -0.0791,-0.8766 -4.76383,0 -4.76383,0 0,1.2696 0,1.2696 -1.14632,0 -1.14633,0 -0.0326,2.6278 -0.0326,2.6278 -6.52936,0.9973 c -13.82821,2.1121 -16.99348,2.5738 -17.64614,2.5738 -0.84117,0 -1.47315,-0.2858 -2.68284,-1.2134 l -0.90847,-0.6965 m -22.29158,12.8814 -0.0337,1.5877 -0.0337,1.5877 4.7785,0 4.77849,0 -0.3636,0.5909 c -1.42063,2.3089 -2.56202,5.7734 -2.74309,8.3265 l -0.0708,0.9976 -0.79821,0 c -1.50225,0 -4.26002,-0.4551 -4.42577,-0.7233 -0.0389,-0.063 0.0632,-0.4998 0.22695,-0.9707 l 0.29774,-0.8562 -0.26227,-0.099 c -0.14425,-0.054 -2.86851,-1.0607 -6.05392,-2.2361 l -5.79163,-2.1371 m -11.57175,6.684 0,3.2537 0,3.2536 m 42.2886,0 0.0638,-2.3276 c 0.0436,-1.5914 0.12535,-2.5506 0.25851,-3.0327 0.36023,-1.3042 -0.3463,-1.169 6.11078,-1.169 l 5.66776,0 -0.16897,0.6348 c -0.22251,0.8359 -0.50345,2.9734 -0.6039,4.5947 l -0.0805,1.2998 m 1.80833,-89.141 c 1.95311,0.8733 3.56466,1.5915 3.58121,1.5961 0.0166,0 0.50622,-0.8164 1.08812,-1.8243 l 1.058,-1.8325 -0.34102,-0.1952 c -0.18753,-0.1075 -1.83588,-0.8708 -3.66294,-1.6964 -1.82705,-0.8256 -3.33378,-1.5078 -3.34829,-1.5159 -0.0145,-0.01 -0.51607,0.8334 -1.1146,1.8701 -0.83423,1.4449 -1.05594,1.8995 -0.9499,1.9476 0.0761,0.034 1.73631,0.7772 3.68942,1.6505 z m -2.62797,4.0681 c 1.80375,0.866 3.38778,1.6319 3.52006,1.702 0.23613,0.1252 0.25428,0.1037 0.99622,-1.1814 l 0.75571,-1.3089 -0.49851,-0.2852 c -0.2742,-0.1569 -1.82446,-0.9269 -3.44504,-1.7111 -1.62058,-0.7842 -3.02923,-1.473 -3.13033,-1.5307 -0.16556,-0.094 -0.26177,0.03 -0.96976,1.2565 -0.59279,1.0268 -0.75178,1.3764 -0.64692,1.4228 0.0765,0.034 1.61482,0.77 3.41857,1.636 z m -5.97974,21.4566 c 0.59905,0.2788 1.2572,0.5536 1.46257,0.6105 l 0.37339,0.1035 1.03758,-1.7309 c 0.80822,-1.3482 1.00803,-1.7476 0.9037,-1.8071 -0.0736,-0.042 -0.46952,-0.2022 -0.87974,-0.3562 -0.41022,-0.154 -1.68278,-0.7793 -2.82792,-1.3894 l -2.08207,-1.1094 -1.04137,1.7374 -1.04136,1.7373 1.50303,0.8486 c 0.82666,0.4667 1.99315,1.0768 2.59219,1.3557 z m -3.47522,5.6812 c 0.57392,0.2695 1.25506,0.5588 1.51363,0.643 l 0.47014,0.153 1.03872,-1.7328 c 0.62791,-1.0475 0.9993,-1.7556 0.93904,-1.7904 -0.0548,-0.032 -0.4984,-0.2181 -0.98574,-0.4144 -0.48734,-0.1964 -1.7753,-0.83 -2.86214,-1.4082 l -1.97605,-1.0511 -1.04137,1.7374 -1.04137,1.7373 1.45082,0.8181 c 0.79795,0.45 1.92039,1.0386 2.49432,1.3081 z m -4.49319,5.0014 c 0.90654,0.4742 2.87224,1.3456 3.12592,1.3858 0.27896,0.044 2.2148,-3.4562 1.96674,-3.5563 -1.27944,-0.5162 -2.39296,-1.0416 -3.92277,-1.8509 l -1.84495,-0.976 -1.01825,1.7637 -1.01825,1.7637 0.98045,0.5387 c 0.53925,0.2963 1.31825,0.7154 1.73111,0.9313 z m -11.20507,15.1752 c 3.03286,1.4817 5.15405,2.2899 6.7521,2.5729 l 0.82336,0.1457 3.58507,-6.1471 c 3.39995,-5.8297 3.57333,-6.1487 3.35788,-6.1787 -2.10305,-0.293 -4.8978,-1.3438 -8.37532,-3.1489 l -1.63822,-0.8504 -3.52899,6.1124 -3.529,6.1123 1.03153,0.5712 c 0.56734,0.3142 1.25206,0.6789 1.52159,0.8106 z m 2.16704,-33.7401 0.56087,0.4059 c 1.11217,0.8048 1.28287,1.8698 0.61785,3.8547 -0.43267,1.2914 -1.95801,4.3437 -3.54073,7.0852 l -1.16373,2.0158 1.67543,0.9673 1.67543,0.9673 4.48261,-7.7641 4.48261,-7.7641 -1.42589,-0.7345 c -0.78424,-0.404 -2.28025,-1.1863 -3.32446,-1.7385 l -1.89857,-1.004 m 2.41792,-4.188 1.84842,0.97 c 4.43535,2.3275 10.11893,4.6465 14.7747,6.0284 l 1.60911,0.4777 0.73861,-1.2112 c 0.56789,-0.9313 0.70759,-1.2291 0.60439,-1.2887 -0.0738,-0.043 -1.48354,-0.733 -3.13271,-1.5342 -3.71454,-1.8046 -9.30647,-4.6911 -12.07398,-6.2324 l -2.08656,-1.1621 m 1.3451,-2.3298 2.73452,1.4907 c 4.82022,2.6278 10.55894,5.1693 14.7882,6.5493 l 0.38183,0.1245 0.70712,-1.2247 0.70711,-1.2248 -0.69925,-0.3003 c -2.7058,-1.1619 -8.16126,-3.9349 -13.22287,-6.7212 l -3.52275,-1.9392 m 1.5305,-2.6509 2.35608,1.3603 2.35608,1.3603 2.17919,-3.7745 2.17919,-3.7745 -0.37274,-0.1403 c -0.72642,-0.2735 -2.91423,-1.3269 -3.71452,-1.7884 l -0.81172,-0.4683 m 6.87048,-11.9 0.61308,0.4597 c 1.6798,1.2597 2.4837,3.045 2.07019,4.5977 -0.26945,1.0118 -1.32229,2.0228 -2.70841,2.6008 l -0.6414,0.2675 -0.88807,1.5382 -0.88806,1.5381 0.79925,0.369 c 2.5948,1.1977 5.57784,2.3661 6.36638,2.4936 l 0.3337,0.054 0.19611,-1.1877 c 0.1609,-0.9745 1.29592,-7.3179 1.9771,-11.0498 l 0.16138,-0.8842 -2.92817,-1.7276 -2.92818,-1.7277 m 1.79333,-3.1061 1.21652,0.6134 c 1.62954,0.8218 1.888,0.8819 2.16039,0.5027 0.18678,-0.26 1.80062,-4.175 1.75956,-4.2684 -0.008,-0.019 -0.49786,-0.2329 -1.08764,-0.4749 -0.78983,-0.3241 -1.35712,-0.5552 -1.50931,-0.7195 m 1.1064,-1.9682 0.30843,0.178 c 1.93627,1.1179 4.97936,3.6544 6.66897,5.5588 l 1.08287,1.2205 -1.31284,-0.7187 -1.31285,-0.7186 -0.22289,0.5301 c -0.12259,0.2915 -0.53947,1.1955 -0.92641,2.0087 -0.38692,0.8133 -0.74386,1.6025 -0.79318,1.7538 l -0.0897,0.2751 1.53006,0.7858 c 0.84152,0.4322 2.78107,1.3939 4.3101,2.1372 l 2.78005,1.3514 0.50813,1.9437 c 1.33385,5.1021 1.18041,10.4896 -0.48101,16.8884 -0.21536,0.8295 -0.43696,1.5867 -0.49246,1.6829 -0.25997,0.4503 -3.51456,-0.3821 -5.87211,-1.5019 l -0.96079,-0.4564 -0.22635,0.5158 c -0.12448,0.2837 -0.99619,2.0818 -1.93713,3.9959 -0.94096,1.914 -1.69667,3.523 -1.67939,3.5754 0.0557,0.1689 4.37614,2.4014 5.60297,2.8952 0.6532,0.2629 1.19732,0.5141 1.20915,0.5583 0.0118,0.044 -0.54521,1.1635 -1.2379,2.4873 l -1.25944,2.407 4.21194,2.4318 4.21195,2.4317 -0.12349,0.365 c -0.0679,0.2008 -0.34433,0.748 -0.61426,1.2161 -0.26996,0.4681 -0.80588,1.4673 -1.19098,2.2205 -0.8037,1.5719 -0.85541,1.3366 0.50386,2.2938 l 0.71964,0.5068 -2.38191,4.1256 -2.38192,4.1256 -1.09949,-0.6348 -1.09951,-0.6348 -0.57317,0.9927 -0.57315,0.9928 -2.29207,-1.2857 -2.29207,-1.2857 -4.12835,5.1559 c -8.74324,10.9196 -10.72568,13.4299 -11.05201,13.9951 -0.42059,0.7285 -0.48905,1.4187 -0.29064,2.9301 l 0.14901,1.1351 m -22.30142,12.8643 -1.39187,-0.7646 -1.39187,-0.7646 2.38924,-4.1383 2.38925,-4.1383 -0.69356,0.019 c -2.70981,0.076 -6.28093,-0.6679 -8.58248,-1.7877 l -0.89928,-0.4375 -0.39706,0.6925 c -0.74728,1.3032 -1.73582,3.9169 -1.58645,4.1945 0.0351,0.065 0.46447,0.1952 0.95416,0.2888 l 0.89034,0.1703 -0.0455,0.2765 c -0.025,0.1522 -0.51572,3.0146 -1.09048,6.3609 l -1.045,6.0843 m -11.5744,6.6794 -2.81776,-1.6268 -2.81775,-1.6269 m 21.1443,-36.623 2.04763,1.1086 c 1.39996,0.758 2.27158,1.1668 2.75568,1.2925 1.30957,0.3402 0.83926,0.8844 4.0678,-4.7076 l 2.83387,-4.9084 -0.63423,-0.171 c -0.83518,-0.2253 -2.82683,-1.0508 -4.28111,-1.7744 l -1.16594,-0.5802 m 11.25051,-46.1126 c -1.73285,-1.2548 -3.16064,-2.2913 -3.17288,-2.3034 -0.0122,-0.012 0.45386,-0.8466 1.03576,-1.8545 l 1.058,-1.8325 0.33963,0.1977 c 0.18681,0.1087 1.67205,1.1546 3.30058,2.324 1.62852,1.1695 2.97264,2.1333 2.98693,2.1418 0.0143,0.01 -0.46371,0.8636 -1.06224,1.9003 -0.83423,1.445 -1.11704,1.8642 -1.21169,1.7964 -0.0679,-0.049 -1.54125,-1.115 -3.2741,-2.3698 z m -2.20912,4.3099 c -1.65183,-1.1291 -3.10715,-2.1179 -3.23403,-2.1974 -0.2265,-0.1419 -0.21693,-0.1684 0.52501,-1.4535 l 0.75571,-1.3089 0.49627,0.2891 c 0.27294,0.159 1.7149,1.1166 3.20434,2.128 1.48944,1.0113 2.79028,1.8868 2.89076,1.9456 0.16459,0.096 0.10473,0.2418 -0.60326,1.4681 -0.59279,1.0267 -0.81612,1.3392 -0.90871,1.2716 -0.0675,-0.049 -1.47426,-1.0135 -3.12609,-2.1426 z m -15.59206,15.9069 c -0.54104,-0.3793 -1.10805,-0.812 -1.26002,-0.9613 l -0.27631,-0.2717 0.98016,-1.764 c 0.7635,-1.374 1.0095,-1.7468 1.11313,-1.6861 0.0731,0.043 0.40991,0.3055 0.7484,0.5837 0.33849,0.2783 1.51625,1.0677 2.61724,1.7543 l 2.0018,1.2485 -0.98394,1.7705 -0.98395,1.7706 -1.4864,-0.8774 c -0.81752,-0.4826 -1.92907,-1.1877 -2.47011,-1.5671 z m -3.1825,5.8503 c -0.52034,-0.3623 -1.11149,-0.8075 -1.31366,-0.9894 l -0.36757,-0.3306 0.98129,-1.766 c 0.59321,-1.0675 1.02072,-1.7432 1.08097,-1.7084 0.0548,0.032 0.43813,0.3225 0.85182,0.6464 0.41368,0.3239 1.60643,1.1225 2.65053,1.7747 l 1.89839,1.1857 -0.98395,1.7705 -0.98394,1.7706 -1.4339,-0.8474 c -0.78864,-0.4661 -1.85963,-1.1438 -2.37998,-1.5061 z m -2.08475,6.3919 c -0.8639,-0.548 -2.60146,-1.8146 -2.76312,-2.0142 -0.17777,-0.2195 1.88577,-3.6462 2.09648,-3.4814 1.0868,0.8499 2.09858,1.5515 3.56432,2.4717 l 1.7677,1.1098 -1.01825,1.7637 -1.01824,1.7636 -0.95677,-0.5797 c -0.52623,-0.3189 -1.27868,-0.7839 -1.67212,-1.0335 z m -7.53969,17.2911 c -2.79959,-1.8857 -4.56017,-3.3186 -5.60422,-4.5611 l -0.53793,-0.6401 3.53102,-6.1783 c 3.34871,-5.8593 3.53831,-6.169 3.67203,-5.9974 1.30525,1.6748 3.6126,3.5697 6.91469,5.6788 l 1.55557,0.9935 -3.52899,6.1124 -3.52899,6.1124 -1.01041,-0.6077 c -0.55573,-0.3343 -1.21397,-0.7449 -1.46277,-0.9125 z m 28.13625,-18.7468 -0.63193,-0.2827 c -1.25312,-0.5608 -2.26077,-0.1761 -3.64721,1.3922 -0.90204,1.0204 -2.78274,3.8676 -4.36562,6.609 l -1.16386,2.0157 -1.67543,-0.9673 -1.67544,-0.9673 4.48262,-7.7641 4.48261,-7.7641 1.34904,0.8676 c 0.74198,0.4772 2.1675,1.3816 3.16784,2.0098 l 1.8188,1.1422 m 2.41792,-4.188 -1.76424,-1.1157 c -4.23334,-2.6774 -9.08349,-6.44 -12.60815,-9.7811 l -1.21818,-1.1547 0.6796,-1.2452 c 0.52252,-0.9575 0.71062,-1.2274 0.81382,-1.1678 0.0738,0.043 1.37658,0.9183 2.89502,1.9459 3.42011,2.3146 8.71584,5.7141 11.43444,7.3402 l 2.04967,1.2259 m 1.3451,-2.3297 -2.65828,-1.6228 c -4.68583,-2.8606 -9.75618,-6.5597 -13.06588,-9.5324 l -0.29881,-0.2684 0.70712,-1.2247 0.70711,-1.2248 0.60968,0.4554 c 2.35913,1.7624 7.48837,5.1004 12.4322,8.0908 l 3.44077,2.0811 m 1.5305,-2.6509 -2.35608,-1.3602 -2.35608,-1.3603 2.1792,-3.7745 2.17919,-3.7745 0.3079,0.2527 c 0.60005,0.4923 2.60619,1.8604 3.40607,2.3226 l 0.81136,0.4689 m 6.87048,-11.9 -0.70467,-0.3011 c -1.93076,-0.825 -3.87889,-0.6285 -5.01682,0.506 -0.74149,0.7392 -1.09062,2.1565 -0.89814,3.6459 l 0.0891,0.6892 -0.88806,1.5382 -0.88807,1.5382 -0.71911,-0.5077 c -2.33469,-1.6483 -4.83807,-3.6475 -5.34274,-4.2667 l -0.21357,-0.262 0.93055,-0.7637 c 0.76347,-0.6266 5.68957,-4.7812 8.58087,-7.2371 l 0.68501,-0.5818 2.96029,1.672 2.96029,1.672 m 1.79333,-3.1061 -1.13955,-0.7468 c -1.52643,-1.0003 -1.70775,-1.1941 -1.51553,-1.6196 0.13182,-0.2918 2.71536,-3.6469 2.81682,-3.6581 0.0208,0 0.45059,0.3148 0.95507,0.7045 0.6756,0.522 1.15939,0.8977 1.37776,0.9474 m 1.15134,-1.9423 -0.30844,-0.1781 c -1.93627,-1.1179 -5.65448,-2.485 -8.14849,-2.9961 l -1.59842,-0.3275 1.27877,0.7776 1.27877,0.7776 -0.34761,0.4581 c -0.19118,0.2519 -0.76557,1.0649 -1.27643,1.8067 -0.51086,0.7417 -1.01585,1.4454 -1.12221,1.5638 l -0.19338,0.2152 -1.44554,-0.9322 c -0.79505,-0.5127 -2.59772,-1.7115 -4.00594,-2.664 l -2.56039,-1.7319 -1.93731,0.5317 c -5.08552,1.396 -9.67447,4.2226 -14.38535,8.8608 -0.61063,0.6013 -1.15565,1.1718 -1.21115,1.2679 -0.25997,0.4503 2.08821,2.8527 4.23673,4.3345 l 0.8756,0.6039 -0.33351,0.4539 c -0.18343,0.2497 -1.30481,1.9037 -2.49195,3.6756 -1.18715,1.7719 -2.20268,3.2308 -2.25674,3.2421 -0.1741,0.036 -4.2677,-2.5892 -5.30875,-3.4048 -0.55427,-0.4342 -1.04392,-0.7798 -1.0881,-0.768 -0.0442,0.012 -0.73499,1.0539 -1.53512,2.3157 l -1.45479,2.2942 -4.21194,-2.4317 -4.21194,-2.4318 -0.25438,0.2895 c -0.1399,0.1591 -0.47561,0.6721 -0.74601,1.14 -0.27038,0.4678 -0.86779,1.4315 -1.32753,2.1416 -0.95946,1.482 -0.72977,1.4091 -2.23839,0.7106 l -0.79871,-0.3699 -2.38192,4.1256 -2.38191,4.1256 1.0995,0.6348 1.0995,0.6348 -0.57316,0.9928 -0.57316,0.9927 2.25948,1.3421 2.25949,1.3422 -2.40101,6.1532 c -5.08498,13.0316 -6.2678,16.0037 -6.59413,16.5689 -0.42059,0.7285 -0.98411,1.1329 -2.39221,1.7167 l -1.05747,0.4385 m 0.01,25.7458 1.35813,0.8231 1.35813,0.823 2.38925,-4.1383 2.38925,-4.1382 0.32996,0.6103 c 1.28918,2.3847 3.71891,5.1055 5.83939,6.5388 l 0.82852,0.5601 -0.40115,0.6901 c -0.75497,1.2987 -2.5242,3.4617 -2.83932,3.4711 -0.074,0 -0.40129,-0.3046 -0.72721,-0.6819 l -0.59259,-0.6859 -0.21681,0.1776 c -0.11925,0.098 -2.3528,1.9539 -4.96345,4.1249 l -4.74663,3.9471 m 0.003,13.3634 2.81776,1.6269 2.81775,1.6268 m 21.1443,-36.623 -1.98388,-1.219 c -1.35639,-0.8334 -2.14624,-1.3839 -2.49718,-1.7403 -0.94934,-0.964 -1.18555,-0.2846 2.04299,-5.8766 l 2.83388,-4.9084 0.46526,0.4638 c 0.61267,0.6106 2.32338,1.9227 3.67721,2.8203 l 1.08542,0.7197"
     inkscape:connector-curvature="0" />
</svg>
