<?xml version="1.0" encoding="UTF-8" standalone="no"?>
<!-- Created with Inkscape (http://www.inkscape.org/) -->

<svg
   xmlns:dc="http://purl.org/dc/elements/1.1/"
   xmlns:cc="http://creativecommons.org/ns#"
   xmlns:rdf="http://www.w3.org/1999/02/22-rdf-syntax-ns#"
   xmlns:svg="http://www.w3.org/2000/svg"
   xmlns="http://www.w3.org/2000/svg"
   xmlns:sodipodi="http://sodipodi.sourceforge.net/DTD/sodipodi-0.dtd"
   xmlns:inkscape="http://www.inkscape.org/namespaces/inkscape"
   id="svg16238"
   version="1.1"
   inkscape:version="0.91 r"
   width="1259"
   height="1260"
   viewBox="0 0 1259 1260"
   sodipodi:docname="snowflake-X-wing-000.svg">
  <metadata
     id="metadata16244">
    <rdf:RDF>
      <cc:Work
         rdf:about="">
        <dc:format>image/svg+xml</dc:format>
        <dc:type
           rdf:resource="http://purl.org/dc/dcmitype/StillImage" />
        <dc:title />
      </cc:Work>
    </rdf:RDF>
  </metadata>
  <defs
     id="defs16242" />
  <sodipodi:namedview
     pagecolor="#ffffff"
     bordercolor="#666666"
     borderopacity="1"
     objecttolerance="10"
     gridtolerance="10"
     guidetolerance="10"
     inkscape:pageopacity="0"
     inkscape:pageshadow="2"
     inkscape:window-width="1600"
     inkscape:window-height="843"
     id="namedview16240"
     showgrid="false"
     inkscape:zoom="2.4553244"
     inkscape:cx="435.58851"
     inkscape:cy="489.92403"
     inkscape:window-x="0"
     inkscape:window-y="0"
     inkscape:window-maximized="1"
     inkscape:current-layer="svg16238"
     showguides="true"
     inkscape:guide-bbox="true"
     inkscape:object-nodes="true"
     inkscape:snap-center="true">
    <sodipodi:guide
       position="653.9797,-106.63446"
       orientation="0,1"
       id="guide4141" />
    <sodipodi:guide
       position="670.17734,19.572148"
       orientation="1,0"
       id="guide4146" />
  </sodipodi:namedview>
  <path
     id="path4169"
     style="fill:none;stroke:#00ff00;stroke-opacity:1;stroke-width:0.70866142;stroke-miterlimit:4;stroke-dasharray:none"
     d="m 397.61545,808.16737 -0.49858,-0.4825 c -0.36198,-0.3502 -1.07716,-0.7404 -2.61016,-1.4241 -1.16138,-0.5179 -2.1664,-0.9417 -2.23338,-0.9417 -0.067,0 -1.75275,1.6326 -3.74616,3.628 l -3.62442,3.6279 0.85614,2.3418 c 0.71578,1.958 0.93339,2.421 1.32736,2.8245 l 0.4712,0.4826 m -3.77658,3.7766 0,-1.767 0,-1.767 -1.30235,0 -1.30234,0 0,1.7985 0,1.7985 -1.67444,0 -1.67445,0 10e-6,1.4962 c -10e-6,1.3506 0.0211,1.494 0.21705,1.4741 0.11938,-0.012 0.77492,-0.016 1.45674,-0.01 l 1.23969,0.014 m -8.90426,8.9067 -0.63261,-0.5025 c -1.35498,-1.0762 -3.09178,-1.6044 -4.44534,-1.352 -2.13059,0.3973 -3.98396,2.2316 -4.15445,4.1118 -0.11198,1.2349 0.58129,2.9736 1.68614,4.2288 l 0.49901,0.5669 m -1.59963,1.5854 -1.52035,-1.5166 c -0.83614,-0.8342 -1.62079,-1.5167 -1.74357,-1.5167 -0.19964,0 -1.40385,0.3408 -4.66132,1.3192 l -1.04313,0.3133 2.59034,2.5926 2.59034,2.5926 m -1.1037,1.1246 -2.61596,-2.6138 -2.61595,-2.6139 -1.04066,1.7125 c -0.57237,0.9419 -2.53564,4.1594 -4.36283,7.15 -3.21663,5.2646 -3.60722,5.9908 -3.77001,7.0088 -0.0738,0.4614 -0.0483,0.5041 0.77374,1.3002 l 0.85003,0.8231 m -27.40811,27.4129 -0.88593,-0.88 -0.88593,-0.88 -0.90518,1.2845 c -0.49786,0.7064 -1.28595,1.8213 -1.75135,2.4774 -0.46539,0.6561 -0.84617,1.2398 -0.84617,1.2971 -10e-6,0.057 0.20775,0.3169 0.46168,0.577 l 0.4617,0.4727 m -5.69862,5.7085 -0.52714,-0.5549 c -0.85452,-0.8994 -0.80275,-1.1568 0.78923,-3.9244 0.724,-1.2586 2.15513,-3.7674 3.18029,-5.5752 1.02515,-1.8078 1.9699,-3.4045 2.09944,-3.5482 0.18158,-0.2014 0.44036,-0.2787 1.12985,-0.3374 1.68424,-0.1434 1.2793,0.23 5.18152,-4.7774 1.94865,-2.5006 7.616,-9.7652 12.59411,-16.1436 11.92038,-15.2734 20.37478,-26.1523 22.16982,-28.5275 2.20916,-2.9232 2.36415,-3.332 2.51585,-6.6358 l 0.0797,-1.7364 -1.05598,1.0232 c -0.8965,0.8688 -1.11885,1.0233 -1.47234,1.0233 -0.38211,0 -0.7863,-0.3699 -4.91444,-4.4981 -3.89196,-3.8919 -4.49809,-4.5476 -4.49809,-4.8658 0,-0.2965 0.20996,-0.5787 1.08395,-1.4568 l 1.08395,-1.089 -15.59403,-15.594 -15.59402,-15.594 -0.79468,0.7876 -0.79468,0.7877 0.22416,0.5128 c 0.12328,0.2821 0.24289,0.6804 0.26578,0.885 0.0396,0.3538 0.0197,0.3715 -0.40243,0.3599 -0.24425,-0.01 -0.7532,-0.1539 -1.131,-0.3268 l -0.68693,-0.3145 -7.59203,7.592 -7.59203,7.5921 0.45218,0.8226 c 0.29029,0.5281 0.43795,0.9465 0.41244,1.1686 -0.0388,0.3378 -0.0496,0.3313 -0.46079,-0.2742 -0.49077,-0.7228 -1.12836,-1.4264 -1.29256,-1.4264 -0.063,0 -0.71516,0.5581 -1.44919,1.2403 -1.33421,1.24 -1.61243,1.4189 -1.61243,1.037 0,-0.2161 1.0734,-1.6233 1.89463,-2.4839 l 0.49304,-0.5166 -0.83703,-0.5997 c -1.36947,-0.981 -1.30399,-0.9015 -0.74443,-0.9042 0.27288,0 0.77521,0.1304 1.1163,0.2926 l 0.62016,0.2948 7.58045,-7.5664 7.58045,-7.5664 -0.30011,-0.5369 c -0.42218,-0.7554 -0.55409,-1.276 -0.39745,-1.5687 0.10936,-0.2044 0.20899,-0.2283 0.64706,-0.1556 0.28478,0.047 0.65821,0.1579 0.82987,0.2456 0.30529,0.1561 0.46915,0 7.52537,-6.9605 l 7.2133,-7.1201 1.95795,0 1.95795,0 -0.53921,0.5494 2e-5,0 -0.53919,0.5494 10.21892,5.1072 c 5.62041,2.8089 10.68518,5.3601 11.25505,5.6693 l 1.03613,0.5621 -2.58513,2.5874 -2.58513,2.5874 0.58693,0.587 0.58694,0.5869 0.90009,-0.8648 c 0.49505,-0.4756 1.76983,-1.7203 2.83285,-2.766 l 1.93277,-1.9014 0.70293,0.3448 c 0.38661,0.1896 0.70293,0.3774 0.70293,0.4172 0,0.04 -1.34329,1.3761 -2.98507,2.9693 l -2.98509,2.8968 0.59436,0.6035 0.59435,0.6035 1.86357,-1.8315 c 1.02497,-1.0074 2.46175,-2.4146 3.19285,-3.1272 l 1.3293,-1.2957 0.75324,0.36 0.75325,0.36 -3.35577,3.3576 -3.35575,3.3575 0.59363,0.5846 0.59364,0.5847 3.46951,-3.4712 c 1.90872,-1.9087 3.54028,-3.4713 3.62673,-3.4712 0.0865,0 2.43105,1.1972 5.21022,2.6605 l 5.05302,2.6606 -0.0413,1.6496 -0.0413,1.6495 2.24288,-2.2313 2.24288,-2.2313 0,-1.1185 0,-1.1185 3.09387,-3.092 c 3.56159,-3.5594 2.971,-3.3041 4.83954,-2.0922 3.03901,1.9711 5.09007,4.1979 5.09007,5.5263 0,0.3716 -0.29105,0.6993 -3.06981,3.4555 l -3.06981,3.045 -0.93715,0.2125 -0.93715,0.2125 -1.41338,1.4174 -1.41337,1.4174 0.49003,0.2028 c 0.26953,0.1116 1.74086,0.7279 3.26964,1.3696 l 2.7796,1.1667 2.12056,-2.0901 c 1.57382,-1.5512 2.24824,-2.1331 2.61582,-2.2568 0.31886,-0.1074 1.13591,-0.1696 2.29375,-0.1747 1.65709,-0.01 1.83609,0.014 2.27684,0.2749 l 0.47834,0.2827 -0.0852,-0.9649 c -0.25239,-2.8566 0.82901,-7.8505 2.42219,-11.1857 2.70782,-5.6686 7.51389,-8.9444 13.63683,-9.2947 5.5455,-0.3174 10.61296,1.3461 14.82193,4.8655 l 0.37209,0.3111 m -20.05751,3.2984 c -1.71112,0.434 -3.94007,1.8359 -5.74714,3.6147 -0.89762,0.8836 -1.11553,1.1878 -1.64759,2.2995 -0.99854,2.0865 -1.38349,4.0464 -1.38471,7.0501 l -7.5e-4,1.7997 2.20683,2.2044 2.20692,2.2043 0.42446,-1.3133 c 0.23345,-0.7223 0.48223,-1.3567 0.55285,-1.4097 0.0706,-0.053 0.82607,-0.3357 1.67881,-0.6282 2.40922,-0.8265 2.3842,-0.7743 0.55336,-1.1537 -0.86476,-0.1792 -1.59006,-0.3435 -1.61179,-0.3653 -0.0217,-0.022 0.10443,-0.625 0.28037,-1.3407 l 0.31987,-1.3012 1.37639,-0.01 c 1.52626,-0.01 2.3545,-0.1977 3.6025,-0.8271 1.58998,-0.8018 2.75532,-1.9275 3.38302,-3.2678 0.29744,-0.6352 0.34259,-0.8795 0.33078,-1.7899 -0.01,-0.7586 -0.0893,-1.2506 -0.28316,-1.7545 -0.60108,-1.562 -2.02916,-3.2806 -3.16771,-3.812 -0.77723,-0.3628 -2.09834,-0.4498 -3.07334,-0.2025 z m -38.45719,14.1744 -1.70324,1.7066 -10e-6,0.5986 10e-6,0.5985 -0.40312,-0.3399 c -0.88146,-0.7432 -2.0054,-0.9023 -2.96766,-0.4199 -0.35677,0.1789 -2.33168,2.0586 -5.90064,5.6164 l -5.36438,5.3475 0.75545,0.7623 0.75543,0.7623 4.85698,-4.8957 c 2.67133,-2.6926 5.00768,-4.9737 5.1919,-5.0691 0.46669,-0.2416 1.2081,-0.2155 1.64959,0.058 0.35873,0.2224 4.66418,4.1816 5.48845,5.047 0.43491,0.4567 0.52018,0.9666 0.27225,1.6281 -0.072,0.1921 -2.40083,2.6232 -5.17522,5.4024 l -5.04433,5.0533 0.67658,0.6852 0.67666,0.6851 5.00834,-4.9942 c 2.93347,-2.9252 5.20529,-5.293 5.48384,-5.7157 1.01427,-1.5389 0.9152,-2.8594 -0.30851,-4.1129 -0.57403,-0.5878 -0.63076,-0.6864 -0.40046,-0.6953 0.14757,-0.01 0.39862,-0.025 0.55786,-0.042 0.18205,-0.02 0.89555,-0.6377 1.92192,-1.6641 l 1.63239,-1.6324 -0.95933,0 c -1.59842,0 -2.97521,-0.7197 -3.85339,-2.0144 -0.53411,-0.7875 -0.78366,-1.5387 -0.98913,-2.9774 l -0.15492,-1.0847 -1.70324,1.7065 z m 31.49018,9.3365 0.48244,0.4985 c 0.35023,0.362 0.7405,1.0772 1.42417,2.6102 0.51793,1.1614 0.9417,2.1664 0.9417,2.2334 0,0.067 -1.63259,1.7527 -3.62797,3.7461 l -3.62793,3.6245 -2.34185,-0.8562 c -1.95797,-0.7158 -2.42098,-0.9334 -2.82445,-1.3273 l -0.48261,-0.4712 m -3.77658,3.7765 1.76696,0 1.76695,0 0,1.3024 10e-6,1.3023 -1.79848,0 -1.79847,0 0,1.6745 -10e-6,1.6744 -1.49618,0 c -1.35067,0 -1.49404,-0.021 -1.47411,-0.217 0.0122,-0.1194 0.0156,-0.775 0.008,-1.4568 l -0.0143,-1.2397 m -8.90671,8.9043 0.50245,0.6326 c 1.07622,1.355 1.60448,3.0918 1.35206,4.4453 -0.39731,2.1306 -2.23166,3.984 -4.11184,4.1545 -1.23492,0.112 -2.97361,-0.5813 -4.22879,-1.6861 l -0.56688,-0.499 m -1.58543,1.5996 1.51667,1.5203 c 0.83421,0.8362 1.51667,1.6208 1.51668,1.7436 -10e-6,0.1996 -0.34082,1.4039 -1.31922,4.6613 l -0.31331,1.0432 -2.59263,-2.5904 -2.59262,-2.5903 m -1.12456,1.1037 2.61385,2.6159 2.61385,2.616 -1.71252,1.0406 c -0.94189,0.5724 -4.15936,2.5357 -7.14993,4.3629 -5.26468,3.2166 -5.99083,3.6072 -7.00886,3.77 -0.46134,0.074 -0.5041,0.048 -1.30018,-0.7738 l -0.82315,-0.85 m -27.41284,27.4081 0.87997,0.8859 0.87997,0.886 -1.28445,0.9052 c -0.70645,0.4978 -1.82127,1.2859 -2.47739,1.7513 -0.65612,0.4654 -1.23982,0.8462 -1.29711,0.8462 -0.0573,0 -0.31694,-0.2078 -0.57697,-0.4617 l -0.47277,-0.4617 m -5.70844,5.6986 0.55484,0.5272 c 0.89944,0.8545 1.15687,0.8027 3.92439,-0.7893 1.25861,-0.724 3.76748,-2.1551 5.57527,-3.1803 1.80777,-1.0251 3.40444,-1.9699 3.54815,-2.0994 0.20145,-0.1816 0.27872,-0.4404 0.33743,-1.1299 0.14338,-1.6842 -0.22997,-1.2793 4.77745,-5.1815 2.50054,-1.9486 9.76513,-7.616 16.14353,-12.5941 15.2734,-11.9204 26.1523,-20.3748 28.52753,-22.1698 2.92319,-2.2092 3.33198,-2.3641 6.63576,-2.5159 l 1.73646,-0.08 -1.02327,1.056 c -0.86874,0.8965 -1.02327,1.1188 -1.02327,1.4723 -1e-5,0.3821 0.36994,0.7863 4.49808,4.9145 3.89196,3.8919 4.54765,4.4981 4.86584,4.4981 0.29651,0 0.57869,-0.21 1.45675,-1.084 l 1.08904,-1.0839 15.59401,15.594 15.59404,15.594 -0.78766,0.7947 -0.78767,0.7947 -0.51287,-0.2242 c -0.28207,-0.1233 -0.68031,-0.2429 -0.88497,-0.2658 -0.35376,-0.039 -0.3715,-0.02 -0.35982,0.4025 0.007,0.2442 0.1538,0.7532 0.32676,1.131 l 0.31449,0.6869 -7.59203,7.592 -7.59203,7.5921 -0.82263,-0.4522 c -0.52814,-0.2903 -0.94649,-0.438 -1.1686,-0.4125 -0.33782,0.039 -0.33135,0.05 0.27422,0.4608 0.72278,0.4908 1.42637,1.1284 1.42637,1.2926 0,0.063 -0.55815,0.7151 -1.24033,1.4492 -1.23995,1.3342 -1.41887,1.6124 -1.03698,1.6124 0.2161,0 1.62334,-1.0734 2.48387,-1.8946 l 0.51664,-0.4931 0.59966,0.8371 c 0.98108,1.3694 0.90155,1.3039 0.90419,0.7444 10e-4,-0.2729 -0.13035,-0.7752 -0.29252,-1.1163 l -0.29488,-0.6202 7.56642,-7.5804 7.56641,-7.5805 0.53695,0.3001 c 0.75537,0.4222 1.27599,0.5541 1.56868,0.3975 0.20435,-0.1094 0.2283,-0.209 0.15554,-0.6471 -0.0473,-0.2847 -0.15781,-0.6582 -0.24558,-0.8298 -0.15609,-0.3053 -0.005,-0.4692 6.9605,-7.5254 l 7.12008,-7.2133 0,-1.958 -10e-6,-1.9579 -0.54937,0.5392 10e-6,0 -0.54937,0.5392 -5.10719,-10.2189 c -2.80895,-5.6205 -5.36013,-10.6852 -5.66931,-11.2551 l -0.56212,-1.0361 -2.58742,2.5851 -2.58741,2.5851 -0.58693,-0.5869 -0.58694,-0.5869 0.86476,-0.9001 c 0.47562,-0.4951 1.72036,-1.7699 2.76608,-2.8329 l 1.90132,-1.9327 -0.34475,-0.703 c -0.18962,-0.3866 -0.37737,-0.7029 -0.41724,-0.7029 -0.0399,0 -1.37603,1.3433 -2.96928,2.9851 l -2.8968,2.9851 -0.60348,-0.5944 -0.60346,-0.5944 1.8315,-1.8635 c 1.00732,-1.025 2.41457,-2.4618 3.12718,-3.1929 l 1.29567,-1.3293 -0.36002,-0.7532 -0.36001,-0.7533 -3.35752,3.3558 -3.3575,3.3558 -0.58468,-0.5937 -0.58469,-0.5936 3.47126,-3.4695 c 1.90871,-1.9087 3.47123,-3.5403 3.47122,-3.6267 0,-0.087 -1.19725,-2.4311 -2.66057,-5.2103 l -2.66055,-5.053 -1.64958,0.041 -1.64958,0.041 2.23131,-2.2429 2.23131,-2.2428 1.11851,0 1.11851,0 3.09194,-3.0939 c 3.55949,-3.5616 3.30413,-2.971 2.09223,-4.8396 -1.97104,-3.039 -4.1979,-5.09 -5.52632,-5.09 -0.37161,0 -0.69923,0.291 -3.45547,3.0698 l -3.04495,3.0698 -0.21251,0.9372 -0.21251,0.9371 -1.41742,1.4134 -1.4174,1.4134 -0.20284,-0.4901 c -0.11156,-0.2695 -0.72785,-1.7409 -1.36957,-3.2696 l -1.16671,-2.7796 2.09011,-2.1206 c 1.55122,-1.5738 2.13309,-2.2482 2.25683,-2.6158 0.10736,-0.3189 0.16956,-1.1359 0.17462,-2.2938 0.007,-1.6571 -0.0144,-1.836 -0.27483,-2.2768 l -0.2827,-0.4783 0.96488,0.085 c 2.8566,0.2524 7.85053,-0.829 11.18571,-2.4222 5.66857,-2.7078 8.94434,-7.5139 9.29472,-13.6368 0.31734,-5.5455 -1.34612,-10.613 -4.8655,-14.8219 l -0.31114,-0.3721 m -3.29838,20.0575 c -0.434,1.7111 -1.83593,3.9401 -3.61474,5.7471 -0.88359,0.8976 -1.18771,1.1156 -2.2995,1.6476 -2.0865,0.9985 -4.0464,1.3835 -7.05004,1.3847 l -1.79975,0 -2.20438,-2.2069 -2.20428,-2.2069 1.3133,-0.4245 c 0.72232,-0.2334 1.35668,-0.4822 1.40967,-0.5528 0.053,-0.071 0.33571,-0.8261 0.62822,-1.6788 0.82645,-2.4092 0.77429,-2.3842 1.15366,-0.5534 0.1792,0.8648 0.34358,1.5901 0.36531,1.6118 0.0217,0.022 0.62503,-0.1044 1.34069,-0.2803 l 1.30119,-0.3199 0.007,-1.3764 c 0.008,-1.5263 0.1977,-2.3545 0.82708,-3.6025 0.80185,-1.59 1.92752,-2.7553 3.26786,-3.383 0.63514,-0.2975 0.87945,-0.3426 1.78983,-0.3308 0.7586,0.01 1.25065,0.089 1.75454,0.2831 1.56202,0.6011 3.28055,2.0292 3.81199,3.1678 0.36277,0.7772 0.44985,2.0983 0.20255,3.0733 z m -14.17442,38.4572 -1.70657,1.7032 -0.59858,0 -0.59858,0 0.3399,0.4031 c 0.74328,0.8815 0.90232,2.0054 0.41994,2.9677 -0.17885,0.3568 -2.05861,2.3317 -5.61635,5.9006 l -5.34754,5.3644 -0.76229,-0.7554 -0.76229,-0.7555 4.89566,-4.8569 c 2.6926,-2.6714 4.97368,-5.0077 5.06908,-5.1919 0.24167,-0.4667 0.21553,-1.2081 -0.0582,-1.6496 -0.2224,-0.3588 -4.18156,-4.6642 -5.04701,-5.4885 -0.45665,-0.4349 -0.96659,-0.5202 -1.62813,-0.2722 -0.19205,0.072 -2.62313,2.4008 -5.4024,5.1752 l -5.05328,5.0443 -0.68517,-0.6766 -0.6851,-0.6766 4.99421,-5.0083 c 2.92524,-2.9335 5.2931,-5.2053 5.71573,-5.4838 1.53892,-1.0143 2.85947,-0.9152 4.11289,0.3085 0.58787,0.574 0.68648,0.6307 0.69535,0.4005 0.006,-0.1476 0.0246,-0.3987 0.0421,-0.5579 0.0199,-0.1821 0.63773,-0.8956 1.66411,-1.9219 l 1.63238,-1.6324 10e-6,0.9593 c 0,1.5984 0.71974,2.9752 2.01447,3.8534 0.78742,0.5341 1.53861,0.7837 2.97731,0.9891 l 1.08478,0.1549 -1.70657,1.7033 z m 66.72466,-31.6052 -0.48244,0.4986 c -0.35023,0.3619 -0.7405,1.0771 -1.42417,2.6101 -0.51792,1.1614 -0.94169,2.1664 -0.9417,2.2334 10e-6,0.067 1.63259,1.7527 3.62797,3.7461 l 3.62793,3.6245 2.34185,-0.8562 c 1.95796,-0.7158 2.42099,-0.9334 2.82445,-1.3273 l 0.4826,-0.4712 m 3.77659,3.7765 -1.76696,0 -1.76696,0 0,1.3024 0,1.3023 1.79848,0 1.79847,0 0,1.6745 0,1.6744 1.4962,0 c 1.35065,0 1.49404,-0.021 1.47409,-0.217 -0.0122,-0.1194 -0.0156,-0.775 -0.008,-1.4568 l 0.0143,-1.2397 m 8.90671,8.9043 -0.50246,0.6326 c -1.07621,1.355 -1.60448,3.0918 -1.35206,4.4453 0.39732,2.1306 2.23168,3.984 4.11185,4.1545 1.23492,0.112 2.9736,-0.5813 4.22878,-1.6861 l 0.5669,-0.499 m 1.58543,1.5996 -1.51668,1.5203 c -0.8342,0.8362 -1.51667,1.6208 -1.51667,1.7436 0,0.1996 0.3408,1.4038 1.31921,4.6613 l 0.31331,1.0431 2.59262,-2.5903 2.59262,-2.5903 m 1.12457,1.1037 -2.61386,2.6159 -2.61384,2.616 1.71252,1.0406 c 0.94188,0.5724 4.15937,2.5357 7.14994,4.3629 5.26468,3.2166 5.99082,3.6072 7.00885,3.77 0.46134,0.074 0.5041,0.048 1.30018,-0.7738 l 0.82314,-0.85 m 27.41284,27.4081 -0.87996,0.8859 -0.87998,0.886 1.28446,0.9052 c 0.70644,0.4978 1.82127,1.2859 2.47739,1.7513 0.65611,0.4654 1.23982,0.8462 1.29711,0.8462 0.0573,0 0.31693,-0.2078 0.57698,-0.4617 l 0.47275,-0.4617 m 5.70845,5.6986 -0.55484,0.5272 c -0.89945,0.8545 -1.15686,0.8027 -3.9244,-0.7893 -1.25861,-0.724 -3.76748,-2.1551 -5.57526,-3.1803 -1.80776,-1.0251 -3.40445,-1.9699 -3.54815,-2.0994 -0.20145,-0.1816 -0.27872,-0.4404 -0.33744,-1.1299 -0.14338,-1.6842 0.22997,-1.2792 -4.77744,-5.1815 -2.50055,-1.9486 -9.76514,-7.616 -16.14353,-12.5941 -15.2734,-11.9204 -26.1523,-20.3748 -28.52754,-22.1698 -2.92318,-2.2092 -3.33197,-2.3641 -6.63575,-2.5159 l -1.73646,-0.08 1.02326,1.056 c 0.86874,0.8965 1.02327,1.1188 1.02327,1.4723 0,0.3821 -0.36992,0.7863 -4.49807,4.9145 -3.89195,3.8919 -4.54764,4.4981 -4.86583,4.4981 -0.29652,0 -0.5787,-0.21 -1.45676,-1.084 l -1.08903,-1.0839 -15.59402,15.594 -15.59404,15.594 0.78766,0.7947 0.78766,0.7947 0.51288,-0.2242 c 0.28207,-0.1233 0.68032,-0.2429 0.88497,-0.2658 0.35375,-0.04 0.3715,-0.02 0.35983,0.4025 -0.007,0.2442 -0.15381,0.7532 -0.32677,1.131 l -0.31448,0.6869 7.59202,7.592 7.59203,7.5921 0.82265,-0.4522 c 0.52812,-0.2903 0.94648,-0.438 1.16858,-0.4125 0.33781,0.039 0.33135,0.05 -0.27422,0.4608 -0.72278,0.4908 -1.42637,1.1284 -1.42637,1.2926 0,0.063 0.55815,0.7151 1.24033,1.4492 1.23995,1.3342 1.41887,1.6124 1.03698,1.6124 -0.2161,0 -1.62333,-1.0734 -2.48387,-1.8946 l -0.51664,-0.4931 -0.59966,0.8371 c -0.98108,1.3694 -0.90155,1.3039 -0.90418,0.7444 -10e-4,-0.2729 0.13034,-0.7752 0.29252,-1.1163 l 0.29487,-0.6202 -7.56641,-7.5804 -7.56642,-7.5805 -0.53695,0.3001 c -0.75537,0.4222 -1.27599,0.5541 -1.56868,0.3975 -0.20435,-0.1094 -0.22829,-0.209 -0.15553,-0.6471 0.0473,-0.2847 0.1578,-0.6582 0.24558,-0.8298 0.15608,-0.3053 0.005,-0.4692 -6.96051,-7.5254 l -7.12008,-7.2133 0,-1.958 0,-1.9579 0.54938,0.5392 0,0 0.54936,0.5392 5.1072,-10.219 c 2.80895,-5.6204 5.36013,-10.6851 5.66931,-11.255 l 0.56212,-1.0361 2.58742,2.5851 2.58741,2.5851 0.58693,-0.5869 0.58694,-0.5869 -0.86477,-0.9001 c -0.47561,-0.4951 -1.72035,-1.7699 -2.76608,-2.8329 l -1.90132,-1.9327 0.34475,-0.703 c 0.18963,-0.3866 0.37738,-0.7029 0.41725,-0.7029 0.0399,0 1.37603,1.3433 2.96928,2.9851 l 2.89679,2.9851 0.60349,-0.5944 0.60347,-0.5944 -1.83151,-1.8635 c -1.00732,-1.025 -2.41456,-2.4618 -3.12718,-3.1929 l -1.29568,-1.3293 0.36003,-0.7532 0.36001,-0.7533 3.35752,3.3558 3.3575,3.3557 0.58468,-0.5936 0.58469,-0.5936 -3.47126,-3.4695 c -1.90872,-1.9087 -3.47123,-3.5403 -3.47122,-3.6268 0,-0.086 1.19725,-2.431 2.66056,-5.2102 l 2.66055,-5.053 1.6496,0.041 1.64957,0.041 -2.23131,-2.2429 -2.23131,-2.2429 -1.11851,0 -1.11852,10e-5 -3.09194,-3.0939 c -3.55948,-3.5616 -3.30412,-2.971 -2.09222,-4.8396 1.97104,-3.039 4.1979,-5.09 5.52632,-5.09 0.37161,0 0.69923,0.291 3.45547,3.0698 l 3.04494,3.0698 0.21252,0.9371 0.21251,0.9372 1.41742,1.4134 1.4174,1.4133 0.20283,-0.49 c 0.11157,-0.2695 0.72786,-1.7409 1.36958,-3.2696 l 1.16671,-2.7796 -2.09011,-2.1206 c -1.55122,-1.5738 -2.1331,-2.2482 -2.25684,-2.6158 -0.10735,-0.3189 -0.16955,-1.1359 -0.17462,-2.2938 -0.007,-1.6571 0.0144,-1.836 0.27484,-2.2768 l 0.2827,-0.4783 -0.96489,0.085 c -2.85659,0.2524 -7.85053,-0.829 -11.1857,-2.4222 -5.66858,-2.7078 -8.94435,-7.5139 -9.29473,-13.6368 -0.31733,-5.5455 1.34612,-10.613 4.86551,-14.8219 l 0.31114,-0.3721 m 3.29837,20.0575 c 0.43401,1.7111 1.83594,3.94 3.61475,5.7471 0.88359,0.8976 1.18771,1.1155 2.2995,1.6476 2.08649,0.9985 4.04639,1.3835 7.05003,1.3847 l 1.79976,0 2.20438,-2.2069 2.20428,-2.2069 -1.31331,-0.4244 c -0.72232,-0.2335 -1.35667,-0.4823 -1.40968,-0.5529 -0.053,-0.071 -0.33569,-0.8261 -0.62821,-1.6788 -0.82645,-2.4092 -0.77428,-2.3842 -1.15366,-0.5534 -0.17919,0.8648 -0.34357,1.5901 -0.3653,1.6118 -0.0217,0.022 -0.62504,-0.1044 -1.34069,-0.2803 l -1.3012,-0.3199 -0.007,-1.3764 c -0.008,-1.5263 -0.19771,-2.3545 -0.82708,-3.6025 -0.80185,-1.59 -1.92753,-2.7553 -3.26786,-3.383 -0.63514,-0.2975 -0.87945,-0.3426 -1.78983,-0.3308 -0.7586,0.01 -1.25065,0.089 -1.75453,0.2832 -1.56203,0.601 -3.28057,2.0291 -3.812,3.1677 -0.36277,0.7772 -0.44984,2.0983 -0.20255,3.0733 z m 14.17443,38.4572 1.70657,1.7032 0.59858,0 0.59857,0 -0.3399,0.4031 c -0.74327,0.8815 -0.90231,2.0054 -0.41993,2.9677 0.17885,0.3568 2.05861,2.3317 5.61635,5.9006 l 5.34754,5.3644 0.7623,-0.7554 0.76226,-0.7555 -4.89564,-4.8569 c -2.6926,-2.6714 -4.9737,-5.0077 -5.06908,-5.1919 -0.24168,-0.4667 -0.21554,-1.2081 0.0581,-1.6496 0.22241,-0.3588 4.18157,-4.6642 5.04703,-5.4885 0.45664,-0.4349 0.96657,-0.5202 1.62812,-0.2722 0.19205,0.072 2.62313,2.4008 5.40241,5.1752 l 5.05327,5.0443 0.68517,-0.6766 0.68509,-0.6766 -4.99413,-5.0084 c -2.92524,-2.9334 -5.29309,-5.2053 -5.71572,-5.4838 -1.53891,-1.0143 -2.85947,-0.9152 -4.11288,0.3085 -0.58788,0.574 -0.68649,0.6308 -0.69535,0.4005 -0.006,-0.1476 -0.0246,-0.3987 -0.0421,-0.5579 -0.02,-0.1821 -0.63773,-0.8956 -1.66412,-1.9219 l -1.63237,-1.6324 -1e-5,0.9593 c 0,1.5984 -0.71975,2.9752 -2.01447,3.8534 -0.78743,0.5341 -1.53862,0.7837 -2.97733,0.9891 l -1.08477,0.155 1.70657,1.7032 z m 9.33645,-31.4902 0.49857,-0.4824 c 0.36199,-0.3503 1.07717,-0.7406 2.61017,-1.4242 1.16138,-0.5179 2.1664,-0.9417 2.23337,-0.9417 0.067,0 1.75276,1.6326 3.74617,3.628 l 3.62443,3.6279 -0.85615,2.3418 c -0.71579,1.958 -0.93338,2.421 -1.32736,2.8245 l -0.47121,0.4826 m 3.7766,3.7766 -2e-5,-1.767 2e-5,-1.7669 1.30234,0 1.30234,-10e-5 -1e-5,1.7985 1e-5,1.7985 1.67444,0 1.67445,0 0,1.4962 c 0,1.3507 -0.0211,1.494 -0.21707,1.4741 -0.11938,-0.012 -0.77491,-0.016 -1.45672,-0.01 l -1.23969,0.014 m 8.90425,8.9067 0.63261,-0.5025 c 1.35498,-1.0762 3.09179,-1.6044 4.44533,-1.352 2.1306,0.3973 3.98397,2.2316 4.15446,4.1118 0.11199,1.2349 -0.58128,2.9736 -1.68614,4.2288 l -0.49901,0.5669 m 1.59964,1.5854 1.52034,-1.5166 c 0.83614,-0.8343 1.62078,-1.5167 1.74358,-1.5167 0.19964,0 1.40384,0.3408 4.66131,1.3192 l 1.04315,0.3133 -2.59036,2.5926 -2.59033,2.5926 m 1.10369,1.1246 2.61595,-2.6138 2.61596,-2.6139 1.04066,1.7125 c 0.57237,0.9419 2.53564,4.1594 4.36283,7.15 3.21663,5.2646 3.60722,5.9908 3.77001,7.0088 0.0738,0.4614 0.0483,0.5041 -0.77375,1.3002 l -0.85002,0.8232 m 27.4081,27.4128 0.88594,-0.88 0.88593,-0.8799 0.90518,1.2844 c 0.49786,0.7064 1.28595,1.8213 1.75134,2.4774 0.4654,0.6561 0.84618,1.2398 0.84618,1.2971 0,0.057 -0.20774,0.3169 -0.46167,0.577 l -0.46172,0.4727 m 5.69863,5.7085 0.52714,-0.5549 c 0.85451,-0.8994 0.80275,-1.1568 -0.78923,-3.9244 -0.724,-1.2586 -2.15514,-3.7674 -3.18029,-5.5752 -1.02515,-1.8078 -1.9699,-3.4045 -2.09944,-3.5482 -0.18159,-0.2014 -0.44036,-0.2787 -1.12986,-0.3374 -1.68424,-0.1434 -1.27931,0.23 -5.1815,-4.7774 -1.94866,-2.5006 -7.61601,-9.7652 -12.59412,-16.1436 -11.92037,-15.2734 -20.37477,-26.1523 -22.16982,-28.5275 -2.20915,-2.9232 -2.36414,-3.332 -2.51585,-6.6358 l -0.0797,-1.7364 1.05597,1.0232 c 0.89651,0.8688 1.11886,1.0233 1.47234,1.0233 0.38212,0 0.78631,-0.3699 4.91445,-4.4981 3.89196,-3.8919 4.49809,-4.5476 4.49809,-4.8658 0,-0.2965 -0.20996,-0.5787 -1.08395,-1.4568 l -1.08396,-1.089 15.59404,-15.594 15.59403,-15.5941 0.79467,0.7877 0.79469,0.7877 -0.22416,0.5129 c -0.12328,0.282 -0.24288,0.6803 -0.26579,0.8849 -0.0396,0.3538 -0.0198,0.3715 0.40245,0.3598 0.24423,-0.01 0.75319,-0.1538 1.13099,-0.3267 l 0.68692,-0.3145 7.59204,7.592 7.59202,7.592 -0.45216,0.8227 c -0.2903,0.5281 -0.43796,0.9465 -0.41246,1.1686 0.0388,0.3378 0.0496,0.3313 0.46079,-0.2742 0.49078,-0.7228 1.12837,-1.4264 1.29256,-1.4264 0.063,0 0.71516,0.5581 1.44919,1.2403 1.33422,1.24 1.61244,1.4189 1.61244,1.037 0,-0.2161 -1.07341,-1.6233 -1.89463,-2.4839 l -0.49305,-0.5166 0.83703,-0.5997 c 1.36947,-0.9811 1.304,-0.9015 0.74443,-0.9042 -0.27287,0 -0.7752,0.1304 -1.11629,0.2926 l -0.62017,0.2948 -7.58045,-7.5664 -7.58043,-7.5664 0.30009,-0.5369 c 0.42219,-0.7554 0.55409,-1.276 0.39745,-1.5687 -0.10936,-0.2044 -0.20899,-0.2283 -0.64704,-0.1556 -0.28479,0.047 -0.65823,0.1579 -0.82988,0.2456 -0.30529,0.1561 -0.46915,0 -7.52538,-6.9605 l -7.2133,-7.1201 -1.95794,0 -1.95795,10e-5 0.53921,0.5493 -10e-6,0 0.53919,0.5494 -10.21894,5.1072 c -5.62039,2.8089 -10.68517,5.3601 -11.25504,5.6693 l -1.03614,0.5621 2.58515,2.5874 2.58512,2.5874 -0.58693,0.587 -0.58694,0.5869 -0.90008,-0.8648 c -0.49506,-0.4756 -1.76983,-1.7203 -2.83287,-2.766 l -1.93274,-1.9014 -0.70294,0.3448 c -0.38662,0.1896 -0.70295,0.3774 -0.70294,0.4172 -10e-6,0.04 1.34329,1.3761 2.98508,2.9693 l 2.98507,2.8968 -0.59435,0.6035 -0.59434,0.6035 -1.86358,-1.8316 c -1.02496,-1.0073 -2.46175,-2.4145 -3.19286,-3.1271 l -1.32928,-1.2957 -0.75325,0.36 -0.75324,0.36 3.35576,3.3576 3.35574,3.3574 -0.59362,0.5847 -0.59363,0.5847 -3.46951,-3.4712 c -1.90872,-1.9088 -3.54029,-3.4713 -3.62675,-3.4713 -0.0864,0 -2.43104,1.1973 -5.21019,2.6606 l -5.05304,2.6606 0.0413,1.6495 0.0413,1.6496 -2.24289,-2.2313 -2.24287,-2.2313 0,-1.1185 0,-1.1185 -3.09387,-3.092 c -3.56159,-3.5594 -2.971,-3.3041 -4.83954,-2.0922 -3.039,1.971 -5.09007,4.1979 -5.09007,5.5263 0,0.3716 0.29106,0.6993 3.06981,3.4555 l 3.0698,3.0449 0.93717,0.2126 0.93714,0.2125 1.41338,1.4174 1.41337,1.4174 -0.49005,0.2028 c -0.26951,0.1116 -1.74085,0.7279 -3.26962,1.3696 l -2.7796,1.1667 -2.12056,-2.0901 c -1.57384,-1.5512 -2.24825,-2.1331 -2.61584,-2.2568 -0.31883,-0.1074 -1.13589,-0.1696 -2.29375,-0.1747 -1.65707,-0.01 -1.83607,0.014 -2.27682,0.2749 l -0.47834,0.2827 0.0852,-0.9649 c 0.25239,-2.8566 -0.82901,-7.8505 -2.42219,-11.1857 -2.70782,-5.6686 -7.51389,-8.9444 -13.63684,-9.2947 -5.54549,-0.3174 -10.61296,1.3461 -14.82192,4.8655 l -0.37209,0.3111 m 20.0575,3.2984 c 1.71113,0.434 3.94008,1.8359 5.74715,3.6147 0.89762,0.8836 1.11553,1.1877 1.64759,2.2995 0.99853,2.0865 1.38348,4.0464 1.3847,7.0501 l 7.5e-4,1.7997 -2.20683,2.2044 -2.20692,2.2043 -0.42447,-1.3133 c -0.23345,-0.7223 -0.48222,-1.3567 -0.55284,-1.4097 -0.0706,-0.053 -0.82607,-0.3357 -1.67881,-0.6282 -2.40923,-0.8265 -2.3842,-0.7743 -0.55337,-1.1537 0.86477,-0.1792 1.59008,-0.3435 1.6118,-0.3653 0.0217,-0.022 -0.10444,-0.625 -0.28036,-1.3407 l -0.31989,-1.3012 -1.37638,-0.01 c -1.52626,-0.01 -2.3545,-0.1977 -3.6025,-0.8271 -1.58998,-0.8018 -2.75533,-1.9275 -3.38302,-3.2678 -0.29744,-0.6352 -0.34259,-0.8795 -0.33078,-1.7898 0.01,-0.7587 0.0892,-1.2507 0.28316,-1.7546 0.60108,-1.562 2.02916,-3.2805 3.16772,-3.812 0.77722,-0.3628 2.09833,-0.4498 3.07333,-0.2025 z m 38.4572,14.1744 1.70325,1.7066 0,0.5986 0,0.5985 0.4031,-0.3399 c 0.88148,-0.7432 2.00541,-0.9023 2.96767,-0.4199 0.35677,0.1788 2.33167,2.0586 5.90064,5.6163 l 5.36438,5.3476 -0.75544,0.7623 -0.75545,0.7623 -4.85695,-4.8957 c -2.67136,-2.6926 -5.0077,-4.9737 -5.19192,-5.0691 -0.46669,-0.2416 -1.20811,-0.2155 -1.6496,0.058 -0.35872,0.2224 -4.66417,4.1816 -5.48845,5.047 -0.43491,0.4566 -0.52018,0.9666 -0.27225,1.6281 0.072,0.1921 2.40083,2.6232 5.17523,5.4024 l 5.04433,5.0533 -0.67657,0.6852 -0.67668,0.6851 -5.00824,-4.9942 c -2.93348,-2.9253 -5.20529,-5.2931 -5.48383,-5.7158 -1.01428,-1.5389 -0.91522,-2.8594 0.3085,-4.1128 0.57402,-0.5879 0.63075,-0.6865 0.40046,-0.6954 -0.14757,-0.01 -0.39862,-0.025 -0.55786,-0.042 -0.18206,-0.02 -0.89556,-0.6377 -1.92194,-1.6641 l -1.63237,-1.6324 0.95933,0 c 1.59841,0 2.97521,-0.7197 3.85339,-2.0144 0.5341,-0.7875 0.78366,-1.5386 0.98912,-2.9773 l 0.15492,-1.0848 1.70323,1.7066 z m -31.60521,-66.7247 0.49858,0.4825 c 0.36198,0.3502 1.07716,0.7405 2.61017,1.4242 1.16137,0.5179 2.16639,0.9416 2.23337,0.9417 0.067,-10e-5 1.75275,-1.6326 3.74616,-3.628 l 3.62443,-3.6279 -0.85615,-2.3419 c -0.71578,-1.958 -0.93338,-2.421 -1.32736,-2.8244 l -0.4712,-0.4826 m 3.77659,-3.7766 0,1.7669 -2e-5,1.767 1.30236,0 1.30234,0 -10e-6,-1.7985 10e-6,-1.7985 1.67444,0 1.67445,0 0,-1.4962 c 0,-1.3506 -0.0211,-1.494 -0.21706,-1.4741 -0.11938,0.012 -0.77492,0.016 -1.45674,0.01 l -1.23968,-0.014 m 8.90425,-8.9068 0.63261,0.5025 c 1.35498,1.0762 3.09179,1.6045 4.44533,1.3521 2.1306,-0.3973 3.98397,-2.2317 4.15446,-4.1119 0.11199,-1.2349 -0.58128,-2.9736 -1.68613,-4.2288 l -0.49902,-0.5669 m 1.59964,-1.5854 1.52034,1.5167 c 0.83614,0.8342 1.62079,1.5167 1.74358,1.5167 0.19963,0 1.40384,-0.3408 4.66131,-1.3193 l 1.04313,-0.3133 -2.59034,-2.5926 -2.59035,-2.5926 m 1.10371,-1.1246 2.61595,2.6139 2.61595,2.6138 1.04067,-1.7125 c 0.57237,-0.9419 2.53564,-4.1594 4.36283,-7.1499 3.21662,-5.2647 3.60721,-5.9909 3.77001,-7.0089 0.0738,-0.4613 0.0483,-0.5041 -0.77375,-1.3002 l -0.85002,-0.8231 m 27.4081,-27.4128 0.88593,0.8799 0.88594,0.88 0.90518,-1.2845 c 0.49786,-0.7064 1.28595,-1.8212 1.75134,-2.4774 0.4654,-0.6561 0.84618,-1.2398 0.84618,-1.2971 1e-5,-0.057 -0.20775,-0.3169 -0.46167,-0.5769 l -0.4617,-0.4728 m 5.69861,-5.7084 0.52714,0.5548 c 0.85452,0.8994 0.80275,1.1569 -0.78923,3.9244 -0.724,1.2586 -2.15512,3.7675 -3.18029,5.5753 -1.02515,1.8077 -1.9699,3.4044 -2.09944,3.5481 -0.18159,0.2015 -0.44036,0.2787 -1.12986,0.3374 -1.68422,0.1434 -1.2793,-0.2299 -5.18152,4.7775 -1.94864,2.5005 -7.61599,9.7651 -12.5941,16.1435 -11.92037,15.2734 -20.37478,26.1523 -22.16981,28.5276 -2.20916,2.9231 -2.36415,3.3319 -2.51586,6.6357 l -0.0797,1.7365 1.05598,-1.0233 c 0.89651,-0.8687 1.11885,-1.0233 1.47233,-1.0233 0.38212,0 0.78631,0.37 4.91445,4.4981 3.89196,3.892 4.49809,4.5477 4.49809,4.8658 0,0.2966 -0.20996,0.5787 -1.08396,1.4568 l -1.08395,1.089 15.59404,15.594 15.59403,15.5941 0.79467,-0.7877 0.79468,-0.7876 -0.22415,-0.5129 c -0.12328,-0.2821 -0.24289,-0.6803 -0.26579,-0.885 -0.0396,-0.3537 -0.0198,-0.3715 0.40244,-0.3598 0.24424,0.01 0.7532,0.1538 1.131,0.3268 l 0.68692,0.3144 7.59204,-7.592 7.59202,-7.592 -0.45218,-0.8227 c -0.29028,-0.5281 -0.43794,-0.9464 -0.41244,-1.1685 0.0388,-0.3378 0.0496,-0.3314 0.46079,0.2742 0.49078,0.7228 1.12837,1.4263 1.29256,1.4263 0.063,0 0.71516,-0.5581 1.44919,-1.2403 1.33422,-1.2399 1.61244,-1.4188 1.61244,-1.037 0,0.2161 -1.07341,1.6234 -1.89463,2.4839 l -0.49305,0.5167 0.83703,0.5996 c 1.36947,0.9811 1.304,0.9016 0.74443,0.9042 -0.27288,0 -0.7752,-0.1304 -1.11629,-0.2925 l -0.62017,-0.2949 -7.58045,7.5664 -7.58045,7.5664 0.30011,0.537 c 0.42219,0.7554 0.55409,1.276 0.39745,1.5687 -0.10936,0.2043 -0.20899,0.2283 -0.64706,0.1555 -0.28477,-0.047 -0.65821,-0.1578 -0.82987,-0.2456 -0.30528,-0.1561 -0.46914,0 -7.52537,6.9605 l -7.2133,7.1201 -1.95794,0 -1.95795,0 0.53921,-0.5494 -3e-5,0 0.5392,-0.5493 -10.21893,-5.1072 c -5.62041,-2.809 -10.68519,-5.3602 -11.25506,-5.6693 l -1.03612,-0.5622 2.58513,-2.5874 2.58513,-2.5874 -0.58693,-0.5869 -0.58694,-0.587 -0.90009,0.8648 c -0.49504,0.4756 -1.76983,1.7203 -2.83285,2.7661 l -1.93277,1.9013 -0.70293,-0.3448 c -0.38661,-0.1896 -0.70293,-0.3773 -0.70293,-0.4172 0,-0.04 1.34329,-1.376 2.98507,-2.9693 l 2.98509,-2.8968 -0.59437,-0.6035 -0.59434,-0.6034 -1.86356,1.8315 c -1.02497,1.0073 -2.46176,2.4145 -3.19286,3.1272 l -1.32931,1.2956 -0.75323,-0.36 -0.75324,-0.36 3.35575,-3.3575 3.35576,-3.3575 -0.59363,-0.5847 -0.59364,-0.5847 -3.4695,3.4713 c -1.90872,1.9087 -3.5403,3.4712 -3.62675,3.4712 -0.0864,0 -2.43104,-1.1973 -5.21021,-2.6606 l -5.05302,-2.6605 0.0413,-1.6496 0.0413,-1.6496 -2.24288,2.2313 -2.24288,2.2313 0,1.1185 0,1.1186 -3.09386,3.0919 c -3.56159,3.5595 -2.97101,3.3041 -4.83955,2.0922 -3.039,-1.971 -5.09007,-4.1979 -5.09007,-5.5263 0,-0.3716 0.29105,-0.6992 3.06981,-3.4555 l 3.06981,-3.0449 0.93716,-0.2125 0.93714,-0.2125 1.41339,-1.4175 1.41337,-1.4174 -0.49005,-0.2028 c -0.26952,-0.1116 -1.74086,-0.7279 -3.26962,-1.3696 l -2.7796,-1.1667 -2.12057,2.0901 c -1.57383,1.5513 -2.24824,2.1331 -2.61583,2.2569 -0.31885,0.1073 -1.1359,0.1695 -2.29375,0.1746 -1.65707,0.01 -1.83608,-0.014 -2.27683,-0.2748 l -0.47834,-0.2827 0.0853,0.9648 c 0.25238,2.8566 -0.82901,7.8506 -2.4222,11.1857 -2.70781,5.6686 -7.51389,8.9444 -13.63683,9.2948 -5.5455,0.3173 -10.61296,-1.3462 -14.82193,-4.8655 l -0.37209,-0.3112 m 20.05751,-3.2983 c 1.71112,-0.4341 3.94007,-1.836 5.74714,-3.6148 0.89762,-0.8836 1.11553,-1.1877 1.64759,-2.2995 0.99854,-2.0865 1.38349,-4.0464 1.38471,-7.05 l 7.5e-4,-1.7998 -2.20683,-2.2044 -2.20692,-2.2043 -0.42446,1.3134 c -0.23345,0.7223 -0.48223,1.3566 -0.55285,1.4096 -0.0706,0.053 -0.82607,0.3357 -1.67881,0.6282 -2.40922,0.8265 -2.3842,0.7743 -0.55336,1.1537 0.86476,0.1792 1.59007,0.3436 1.61179,0.3653 0.0217,0.022 -0.10443,0.625 -0.28037,1.3407 l -0.31987,1.3012 -1.37639,0.01 c -1.52626,0.01 -2.3545,0.1977 -3.6025,0.8271 -1.58998,0.8018 -2.75532,1.9275 -3.38302,3.2679 -0.29744,0.6351 -0.34259,0.8794 -0.33078,1.7898 0.01,0.7586 0.0893,1.2506 0.28316,1.7545 0.60108,1.5621 2.02916,3.2806 3.16772,3.812 0.77722,0.3628 2.09833,0.4499 3.07333,0.2026 z m 38.45719,-14.1745 1.70324,-1.7066 2e-5,-0.5985 -2e-5,-0.5986 0.40312,0.3399 c 0.88147,0.7433 2.0054,0.9023 2.96766,0.4199 0.35678,-0.1788 2.33168,-2.0586 5.90064,-5.6163 l 5.36438,-5.3476 -0.75545,-0.7623 -0.75543,-0.7622 -4.85698,4.8956 c -2.67133,2.6926 -5.00769,4.9737 -5.1919,5.0691 -0.46668,0.2417 -1.2081,0.2155 -1.64959,-0.058 -0.35874,-0.2224 -4.66417,-4.1815 -5.48845,-5.047 -0.43491,-0.4566 -0.52018,-0.9665 -0.27225,-1.6281 0.072,-0.1921 2.40083,-2.6231 5.17522,-5.4024 l 5.04433,-5.0533 -0.67658,-0.6852 -0.67666,-0.685 -5.00833,4.9941 c -2.93349,2.9252 -5.2053,5.2931 -5.48385,5.7157 -1.01427,1.5389 -0.9152,2.8595 0.30851,4.1129 0.57402,0.5879 0.63077,0.6865 0.40046,0.6953 -0.14757,0.01 -0.39862,0.025 -0.55786,0.042 -0.18206,0.02 -0.89556,0.6377 -1.92193,1.6641 l -1.63238,1.6324 0.95933,0 c 1.59841,0 2.97521,0.7197 3.85339,2.0145 0.53411,0.7874 0.78366,1.5386 0.98912,2.9773 l 0.15492,1.0848 1.70325,-1.7066 z m -31.49018,-9.3364 -0.48243,-0.4986 c -0.35024,-0.362 -0.74051,-1.0772 -1.42417,-2.6102 -0.51793,-1.1614 -0.9417,-2.1664 -0.9417,-2.2333 0,-0.067 1.63258,-1.7528 3.62796,-3.7462 l 3.62793,-3.6244 2.34185,0.8561 c 1.95797,0.7158 2.42099,0.9334 2.82445,1.3274 l 0.48261,0.4712 m 3.77658,-3.7766 -1.76696,0 -1.76694,0 0,-1.3024 -2e-5,-1.3023 1.79848,0 1.79847,0 0,-1.6744 2e-5,-1.6745 1.49618,0 c 1.35067,0 1.49404,0.021 1.4741,0.2171 -0.0121,0.1194 -0.0156,0.7749 -0.008,1.4567 l 0.0143,1.2397 m 8.90671,-8.9043 -0.50245,-0.6326 c -1.07622,-1.355 -1.60449,-3.0918 -1.35207,-4.4453 0.39732,-2.1306 2.23168,-3.984 4.11185,-4.1545 1.23492,-0.1119 2.9736,0.5813 4.22879,1.6862 l 0.56689,0.499 m 1.58543,-1.5996 -1.51668,-1.5204 c -0.8342,-0.8361 -1.51667,-1.6208 -1.51667,-1.7436 0,-0.1996 0.34082,-1.4038 1.31921,-4.6613 l 0.31331,-1.0431 2.59263,2.5903 2.59262,2.5904 m 1.12456,-1.1037 -2.61384,-2.616 -2.61386,-2.6159 1.71252,-1.0407 c 0.94189,-0.5724 4.15937,-2.5356 7.14994,-4.3628 5.26468,-3.2167 5.99082,-3.6072 7.00885,-3.77 0.46134,-0.074 0.5041,-0.048 1.30019,0.7737 l 0.82314,0.85 m 27.41284,-27.4081 -0.87997,-0.8859 -0.87997,-0.8859 1.28445,-0.9052 c 0.70645,-0.4979 1.82127,-1.286 2.47739,-1.7514 0.65611,-0.4654 1.23982,-0.8461 1.29711,-0.8461 0.0573,0 0.31694,0.2077 0.57698,0.4616 l 0.47276,0.4617 m 5.70844,-5.6986 -0.55484,-0.5271 c -0.89943,-0.8545 -1.15686,-0.8028 -3.92438,0.7892 -1.25863,0.724 -3.76749,2.1551 -5.57528,3.1803 -1.80776,1.0251 -3.40444,1.9699 -3.54814,2.0994 -0.20146,0.1816 -0.27873,0.4404 -0.33745,1.1299 -0.14337,1.6842 0.22999,1.2793 -4.77744,5.1815 -2.50054,1.9487 -9.76513,7.616 -16.14353,12.5941 -15.2734,11.9204 -26.1523,20.3748 -28.52753,22.1698 -2.92319,2.2092 -3.33198,2.3642 -6.63576,2.5159 l -1.73646,0.08 1.02328,-1.0559 c 0.86873,-0.8965 1.02325,-1.1189 1.02325,-1.4724 2e-5,-0.3821 -0.36992,-0.7863 -4.49807,-4.9144 -3.89195,-3.892 -4.54764,-4.4981 -4.86583,-4.4981 -0.29652,0 -0.57869,0.2099 -1.45676,1.0839 l -1.08903,1.084 -15.59402,-15.5941 -15.59404,-15.594 0.78764,-0.7947 0.78764,-0.7947 0.51288,0.2242 c 0.28207,0.1233 0.68031,0.2429 0.88497,0.2658 0.35376,0.039 0.37149,0.02 0.35982,-0.4025 -0.007,-0.2442 -0.1538,-0.7532 -0.32677,-1.131 l -0.31448,-0.6869 7.59238,-7.5917 7.59238,-7.5917 0.82264,0.4522 c 0.52813,0.2903 0.94648,0.438 1.16859,0.4125 0.33782,-0.039 0.33135,-0.05 -0.27422,-0.4608 -0.72279,-0.4908 -1.42637,-1.1284 -1.42638,-1.2926 10e-6,-0.063 0.55816,-0.7151 1.24034,-1.4492 1.23995,-1.3342 1.41887,-1.6124 1.03698,-1.6124 -0.2161,0 -1.62334,1.0734 -2.48387,1.8946 l -0.51665,0.4931 -0.59965,-0.8371 c -0.98108,-1.3694 -0.90154,-1.304 -0.90419,-0.7444 -0.001,0.2729 0.13035,0.7752 0.29252,1.1163 l 0.29487,0.6202 -7.56642,7.5804 -7.56643,7.5804 -0.53696,-0.3001 c -0.75537,-0.4222 -1.27599,-0.5541 -1.56868,-0.3974 -0.20435,0.1093 -0.22829,0.209 -0.15553,0.647 0.0473,0.2848 0.15781,0.6582 0.24557,0.8299 0.1561,0.3053 0.005,0.4691 -6.9605,7.5254 l -7.12008,7.2133 0,1.9579 1e-5,1.958 0.54939,-0.5392 0,0 0.54938,-0.5392 5.10718,10.2189 c 2.80895,5.6204 5.36014,10.6852 5.66931,11.2551 l 0.56212,1.0361 2.58737,-2.5852 2.58738,-2.5851 0.58693,0.5869 0.58694,0.5869 -0.86475,0.9001 c -0.47563,0.4951 -1.72037,1.7699 -2.76609,2.8329 l -1.90132,1.9327 0.34475,0.703 c 0.18962,0.3866 0.37737,0.7029 0.41725,0.7029 0.0399,0 1.37603,-1.3433 2.96926,-2.9851 l 2.89679,-2.9851 0.60348,0.5944 0.60347,0.5943 -1.83151,1.8636 c -1.00732,1.025 -2.41456,2.4618 -3.12718,3.1929 l -1.29566,1.3293 0.36002,0.7532 0.36,0.7532 3.35752,-3.3557 3.35751,-3.3558 0.58468,0.5937 0.58469,0.5936 -3.47127,3.4695 c -1.90871,1.9087 -3.47122,3.5403 -3.47122,3.6267 0,0.086 1.19726,2.4311 2.66057,5.2102 l 2.66056,5.0531 1.64958,-0.041 1.64957,-0.041 -2.2313,2.2429 -2.23131,2.2428 -1.11851,0 -1.11851,0 -3.09195,3.0939 c -3.55948,3.5616 -3.30413,2.971 -2.09223,4.8395 1.97104,3.039 4.1979,5.0901 5.52633,5.0901 0.3716,0 0.69923,-0.291 3.45546,-3.0698 l 3.04495,-3.0698 0.21251,-0.9372 0.21252,-0.9371 1.41742,-1.4134 1.41739,-1.4134 0.20285,0.4901 c 0.11156,0.2695 0.72785,1.7408 1.36956,3.2696 l 1.16672,2.7796 -2.09011,2.1206 c -1.55122,1.5738 -2.1331,2.2482 -2.25684,2.6158 -0.10736,0.3189 -0.16956,1.1359 -0.17462,2.2937 -0.007,1.6571 0.0144,1.8361 0.27483,2.2769 l 0.2827,0.4783 -0.96487,-0.085 c -2.85661,-0.2524 -7.85054,0.829 -11.18572,2.4222 -5.66857,2.7078 -8.94434,7.5139 -9.29471,13.6368 -0.31735,5.5455 1.34612,10.613 4.8655,14.8219 l 0.31114,0.3721 m 3.29838,-20.0575 c 0.43399,-1.7111 1.83592,-3.9401 3.61473,-5.7471 0.88359,-0.8977 1.18771,-1.1156 2.2995,-1.6476 2.08651,-0.9986 4.0464,-1.3835 7.05004,-1.3847 l 1.79976,0 2.20437,2.2069 2.20429,2.2069 -1.31331,0.4245 c -0.72231,0.2334 -1.35667,0.4822 -1.40966,0.5528 -0.053,0.071 -0.33572,0.8261 -0.62823,1.6788 -0.82645,2.4092 -0.77428,2.3842 -1.15366,0.5534 -0.17919,-0.8648 -0.34358,-1.5901 -0.3653,-1.6118 -0.0217,-0.022 -0.62504,0.1044 -1.3407,0.2803 l -1.30119,0.3199 -0.007,1.3764 c -0.008,1.5263 -0.19769,2.3545 -0.82708,3.6025 -0.80184,1.59 -1.92751,2.7553 -3.26786,3.383 -0.63513,0.2975 -0.87944,0.3426 -1.78982,0.3308 -0.7586,-0.01 -1.25065,-0.089 -1.75454,-0.2831 -1.56203,-0.6011 -3.28056,-2.0292 -3.812,-3.1678 -0.36277,-0.7772 -0.44984,-2.0983 -0.20255,-3.0733 z m 14.17442,-38.4572 1.70657,-1.7032 0.59857,0 0.59859,0 -0.3399,-0.4031 c -0.74328,-0.8815 -0.90232,-2.0055 -0.41995,-2.9677 0.17886,-0.3568 2.05862,-2.3317 5.61636,-5.9006 l 5.34754,-5.3644 0.76229,0.7554 0.76228,0.7555 -4.89565,4.8569 c -2.69261,2.6714 -4.97368,5.0077 -5.06909,5.1919 -0.24167,0.4667 -0.21552,1.2081 0.0582,1.6496 0.2224,0.3588 4.18155,4.6642 5.04701,5.4885 0.45664,0.4349 0.96658,0.5202 1.62813,0.2722 0.19204,-0.072 2.62313,-2.4008 5.4024,-5.1752 l 5.05327,-5.0443 0.68517,0.6765 0.6851,0.6767 -4.99421,5.0083 c -2.92524,2.9334 -5.2931,5.2053 -5.71571,5.4838 -1.53893,1.0143 -2.85948,0.9152 -4.1129,-0.3085 -0.58788,-0.574 -0.68648,-0.6308 -0.69536,-0.4005 -0.006,0.1476 -0.0246,0.3987 -0.0421,0.5579 -0.0199,0.1821 -0.63774,0.8955 -1.66411,1.9219 l -1.63238,1.6324 -10e-6,-0.9593 c 0,-1.5984 -0.71975,-2.9752 -2.01448,-3.8534 -0.78742,-0.5341 -1.53861,-0.7837 -2.97731,-0.9891 l -1.08477,-0.155 1.70657,-1.7032 z m -66.72522,31.6047 0.48245,-0.4986 c 0.35027,-0.3619 0.7405,-1.0772 1.42417,-2.6102 0.51792,-1.1613 0.94169,-2.1664 0.94169,-2.2333 0,-0.067 -1.63258,-1.7528 -3.62796,-3.7462 l -3.62796,-3.6244 -2.34186,0.8562 c -1.95796,0.7157 -2.42097,0.9333 -2.82444,1.3273 l -0.48259,0.4712 m -3.77659,-3.7765 1.76696,0 1.76696,0 0,-1.3024 0,-1.3023 -1.79848,0 -1.79847,0 0,-1.6745 0,-1.6744 -1.4962,0 c -1.35065,0 -1.49404,0.021 -1.4741,0.217 0.0121,0.1194 0.0156,0.7749 0.008,1.4568 l -0.0143,1.2397 m -8.90671,-8.9043 0.50246,-0.6326 c 1.07621,-1.355 1.60447,-3.0918 1.35206,-4.4453 -0.39732,-2.1306 -2.23168,-3.984 -4.11185,-4.1545 -1.23492,-0.112 -2.9736,0.5813 -4.22878,1.6861 l -0.5669,0.499 m -1.58542,-1.5996 1.51668,-1.5203 c 0.83418,-0.8362 1.51668,-1.6208 1.51668,-1.7436 0,-0.1996 -0.34081,-1.4038 -1.31921,-4.6613 l -0.31331,-1.0431 -2.59259,2.5903 -2.59258,2.5904 m -1.12457,-1.1037 2.61384,-2.6159 2.61384,-2.616 -1.71252,-1.0407 c -0.94189,-0.5723 -4.15936,-2.5356 -7.14993,-4.3628 -5.26468,-3.2166 -5.99083,-3.6072 -7.00886,-3.77 -0.46135,-0.074 -0.50409,-0.048 -1.30018,0.7737 l -0.82314,0.8501 m -27.41282,-27.4082 0.87999,-0.8859 0.88,-0.8859 -1.28445,-0.9052 c -0.70645,-0.4978 -1.82127,-1.2859 -2.47739,-1.7513 -0.65612,-0.4654 -1.23982,-0.8462 -1.29712,-0.8462 -0.0573,0 -0.31693,0.2078 -0.57697,0.4617 l -0.47279,0.4617 m -5.70846,-5.6986 0.55484,-0.5272 c 0.89943,-0.8545 1.15687,-0.8027 3.92438,0.7893 1.25862,0.724 3.76749,2.1551 5.57527,3.1802 1.80778,1.0252 3.40445,1.9699 3.54816,2.0995 0.20144,0.1816 0.27872,0.4403 0.33743,1.1298 0.14339,1.6843 -0.22997,1.2793 4.77744,5.1816 2.50056,1.9486 9.76514,7.616 16.14353,12.5941 15.27341,11.9203 26.15231,20.3747 28.52754,22.1698 2.92319,2.2091 3.33197,2.3641 6.63576,2.5158 l 1.73646,0.08 -1.02327,-1.056 c -0.86874,-0.8965 -1.02327,-1.1189 -1.02327,-1.4723 0,-0.3822 0.36994,-0.7863 4.49808,-4.9145 3.89196,-3.8919 4.54764,-4.4981 4.86584,-4.4981 0.29651,0 0.57868,0.21 1.45675,1.084 l 1.08901,1.0839 15.59402,-15.594 15.59404,-15.594 -0.78766,-0.7947 -0.78766,-0.7947 -0.51288,0.2242 c -0.28207,0.1233 -0.68032,0.2429 -0.88497,0.2658 -0.35375,0.04 -0.3715,0.02 -0.35982,-0.4025 0.007,-0.2442 0.1538,-0.7532 0.32676,-1.131 l 0.31449,-0.6869 -7.59203,-7.592 -7.59203,-7.5921 -0.82265,0.4522 c -0.52812,0.2903 -0.94647,0.438 -1.16858,0.4125 -0.33781,-0.039 -0.33136,-0.05 0.27422,-0.4608 0.72278,-0.4908 1.42637,-1.1284 1.42637,-1.2926 0,-0.063 -0.55815,-0.7151 -1.24033,-1.4492 -1.23995,-1.3342 -1.41887,-1.6124 -1.03699,-1.6124 0.21611,0 1.62335,1.0734 2.48389,1.8946 l 0.51664,0.4931 0.59965,-0.8371 c 0.98108,-1.3694 0.90155,-1.304 0.90418,-0.7444 0.001,0.2729 -0.13034,0.7752 -0.29251,1.1163 l -0.29488,0.6202 7.56642,7.5804 7.56641,7.5805 0.53695,-0.3001 c 0.75537,-0.4222 1.276,-0.5541 1.56868,-0.3975 0.20435,0.1094 0.22829,0.209 0.15553,0.6471 -0.0473,0.2847 -0.1578,0.6582 -0.24557,0.8298 -0.15609,0.3053 -0.005,0.4692 6.9605,7.5254 l 7.12008,7.2133 0,1.9579 0,1.958 -0.54938,-0.5392 0,0 -0.54937,-0.5392 -5.10719,10.2189 c -2.80895,5.6205 -5.36014,10.6852 -5.66931,11.2551 l -0.56212,1.0361 -2.58741,-2.5851 -2.58741,-2.5851 -0.58694,0.5869 -0.58694,0.5869 0.86476,0.9001 c 0.47562,0.4951 1.72037,1.7699 2.76609,2.8329 l 1.90131,1.9327 -0.34474,0.703 c -0.18963,0.3866 -0.37738,0.7029 -0.41725,0.7029 -0.0399,0 -1.37603,-1.3433 -2.96928,-2.9851 l -2.89679,-2.9851 -0.60346,0.5944 -0.60344,0.5944 1.8315,1.8636 c 1.00732,1.0249 2.41456,2.4617 3.12718,3.1928 l 1.29568,1.3293 -0.36003,0.7533 -0.36001,0.7532 -3.35751,-3.3557 -3.35751,-3.3558 -0.58469,0.5936 -0.58471,0.5936 3.47127,3.4695 c 1.90871,1.9088 3.47122,3.5403 3.47122,3.6268 0,0.086 -1.19725,2.431 -2.66057,5.2102 l -2.66055,5.053 -1.64959,-0.041 -1.64957,-0.041 2.2313,2.2429 2.23129,2.2429 1.11852,0 1.11851,0 3.09198,3.0938 c 3.55947,3.5616 3.30413,2.971 2.09223,4.8396 -1.97104,3.039 -4.1979,5.09 -5.52633,5.09 -0.3716,0 -0.69923,-0.291 -3.45547,-3.0698 l -3.04494,-3.0698 -0.21252,-0.9371 -0.21251,-0.9372 -1.41742,-1.4134 -1.41739,-1.4133 -0.20283,0.49 c -0.11157,0.2695 -0.72786,1.7409 -1.36957,3.2696 l -1.16672,2.7796 2.0901,2.1206 c 1.55123,1.5738 2.13311,2.2482 2.25685,2.6158 0.10735,0.3189 0.16956,1.1359 0.17462,2.2938 0.007,1.6571 -0.0144,1.836 -0.27483,2.2768 l -0.2827,0.4783 0.96488,-0.085 c 2.8566,-0.2524 7.85053,0.829 11.18571,2.4222 5.66857,2.7078 8.94434,7.5139 9.29472,13.6368 0.31733,5.5455 -1.34613,10.613 -4.86551,14.8219 l -0.31114,0.3721 m -3.29837,-20.0575 c -0.434,-1.7111 -1.83594,-3.94 -3.61475,-5.7471 -0.88358,-0.8976 -1.18771,-1.1156 -2.29949,-1.6476 -2.0865,-0.9985 -4.0464,-1.3835 -7.05004,-1.3847 l -1.79976,0 -2.20433,2.2069 -2.20432,2.2069 1.31331,0.4245 c 0.72231,0.2334 1.35667,0.4822 1.40967,0.5528 0.053,0.071 0.3357,0.8261 0.62821,1.6788 0.82646,2.4092 0.77429,2.3842 1.15367,0.5534 0.17919,-0.8648 0.34357,-1.5901 0.3653,-1.6118 0.0217,-0.022 0.62504,0.1044 1.34069,0.2804 l 1.3012,0.3198 0.007,1.3764 c 0.008,1.5263 0.1977,2.3545 0.82708,3.6025 0.80185,1.59 1.92752,2.7553 3.26786,3.383 0.63514,0.2975 0.87945,0.3426 1.78983,0.3308 0.7586,-0.01 1.25065,-0.089 1.75454,-0.2831 1.56202,-0.6011 3.28056,-2.0292 3.81199,-3.1678 0.36277,-0.7772 0.44984,-2.0983 0.20255,-3.0733 z m -14.17443,-38.4572 -1.70654,-1.7033 -0.59857,0 -0.59858,0 0.3399,-0.4031 c 0.74328,-0.8814 0.90231,-2.0054 0.41994,-2.9676 -0.17886,-0.3568 -2.05861,-2.3317 -5.61636,-5.9007 l -5.34754,-5.3643 -0.76226,0.7554 -0.76224,0.7555 4.89565,4.857 c 2.6926,2.6713 4.97369,5.0077 5.06908,5.1919 0.24168,0.4667 0.21553,1.2081 -0.0582,1.6496 -0.2224,0.3587 -4.18155,4.6641 -5.04702,5.4884 -0.45664,0.4349 -0.96657,0.5202 -1.62813,0.2723 -0.19204,-0.072 -2.62312,-2.4009 -5.40239,-5.1753 l -5.05323,-5.0443 -0.68514,0.6766 -0.68513,0.6766 4.99417,5.0083 c 2.92523,2.9335 5.29309,5.2053 5.71572,5.4838 1.53892,1.0143 2.85947,0.9153 4.11289,-0.3085 0.58791,-0.5739 0.68648,-0.6307 0.69535,-0.4004 0.006,0.1476 0.0246,0.3986 0.0421,0.5578 0.0199,0.1821 0.63773,0.8956 1.66411,1.922 l 1.63238,1.6323 0,-0.9593 c 0,-1.5984 0.71975,-2.9752 2.01448,-3.8534 0.78742,-0.5341 1.53862,-0.7836 2.97732,-0.9891 l 1.08477,-0.1549 -1.70653,-1.7033 z m -9.33656,31.49 -0.49857,0.4825 c -0.36195,0.3503 -1.07717,0.7405 -2.61017,1.4242 -1.16138,0.5179 -2.1664,0.9417 -2.23338,0.9417 -0.067,0 -1.75275,-1.6326 -3.74616,-3.628 l -3.62439,-3.628 0.85614,-2.3418 c 0.71579,-1.958 0.93339,-2.421 1.32737,-2.8245 l 0.47122,-0.4826 m -3.77659,-3.7765 0,1.7669 0,1.767 -1.30234,0 -1.30235,0 0,-1.7985 0,-1.7985 -1.67444,0 -1.67445,0 0,-1.4962 c 0,-1.3506 0.0211,-1.494 0.21706,-1.4741 0.11938,0.012 0.77492,0.016 1.45674,0.01 l 1.23968,-0.014 m -8.90425,-8.9068 -0.6326,0.5025 c -1.35499,1.0762 -3.0918,1.6045 -4.44534,1.3521 -2.13059,-0.3974 -3.98397,-2.2317 -4.15446,-4.1119 -0.11197,-1.2349 0.58129,-2.9736 1.68614,-4.2288 l 0.49901,-0.5669 m -1.59963,-1.5854 -1.52033,1.5167 c -0.83617,0.8342 -1.62079,1.5167 -1.74358,1.5167 -0.19963,0 -1.40384,-0.3408 -4.66131,-1.3192 l -1.04314,-0.3133 2.59038,-2.5926 2.59038,-2.5926 m -1.1037,-1.1246 -2.61596,2.6139 -2.61597,2.6138 -1.04066,-1.7125 c -0.57237,-0.9419 -2.53564,-4.1594 -4.36283,-7.15 -3.21663,-5.2646 -3.60722,-5.9908 -3.77,-7.0088 -0.0738,-0.4614 -0.0483,-0.5041 0.77374,-1.3002 l 0.85002,-0.8231 m -27.40813,-27.4129 -0.88591,0.88 -0.8859,0.88 -0.90518,-1.2844 c -0.49785,-0.7065 -1.28596,-1.8213 -1.75135,-2.4774 -0.4654,-0.6561 -0.84617,-1.2398 -0.84617,-1.2971 0,-0.057 0.20775,-0.317 0.46167,-0.577 l 0.46167,-0.4728 m -5.6986,-5.7085 -0.52714,0.5549 c -0.85452,0.8994 -0.80275,1.1569 0.78923,3.9244 0.724,1.2586 2.15513,3.7675 3.18029,5.5752 1.02515,1.8078 1.9699,3.4045 2.09944,3.5482 0.18159,0.2014 0.44036,0.2787 1.12986,0.3374 1.68423,0.1434 1.2793,-0.2299 5.18152,4.7775 1.94864,2.5005 7.61599,9.7651 12.5941,16.1435 11.92037,15.2734 20.37477,26.1523 22.16982,28.5275 2.20916,2.9232 2.36415,3.332 2.51585,6.6358 l 0.0797,1.7365 -1.05597,-1.0233 c -0.89651,-0.8687 -1.11886,-1.0233 -1.47234,-1.0233 -0.38212,0 -0.78631,0.37 -4.91445,4.4981 -3.89196,3.892 -4.49809,4.5476 -4.49809,4.8658 0,0.2965 0.20996,0.5787 1.08396,1.4568 l 1.08396,1.089 -15.59403,15.594 -15.59403,15.5941 -0.7947,-0.7877 -0.7947,-0.7876 0.22415,-0.5129 c 0.12329,-0.2821 0.24289,-0.6803 0.26579,-0.885 0.0396,-0.3537 0.0197,-0.3715 -0.40244,-0.3598 -0.24424,0.01 -0.75319,0.1538 -1.131,0.3268 l -0.68692,0.3145 -7.59165,-7.5924 -7.59166,-7.5925 0.45218,-0.8226 c 0.29029,-0.5281 0.43795,-0.9465 0.41245,-1.1686 -0.0388,-0.3378 -0.0496,-0.3313 -0.4608,0.2742 -0.49077,0.7228 -1.12835,1.4264 -1.29256,1.4264 -0.063,0 -0.71515,-0.5581 -1.44919,-1.2403 -1.33421,-1.24 -1.61243,-1.4189 -1.61243,-1.037 0,0.2161 1.0734,1.6233 1.89463,2.4839 l 0.49305,0.5166 -0.83704,0.5997 c -1.36946,0.981 -1.30398,0.9015 -0.74442,0.9042 0.27287,0 0.7752,-0.1304 1.11629,-0.2926 l 0.62017,-0.2948 7.58042,7.5664 7.58043,7.5664 -0.30011,0.537 c -0.42218,0.7554 -0.55409,1.276 -0.39745,1.5687 0.10936,0.2043 0.209,0.2283 0.64705,0.1555 0.28479,-0.047 0.65823,-0.1578 0.82988,-0.2456 0.30529,-0.1561 0.46915,0 7.52538,6.9605 l 7.21329,7.1201 1.95795,0 1.95794,0 -0.53918,-0.5494 1e-5,0 -0.53918,-0.5494 10.21892,-5.1072 c 5.62041,-2.8089 10.68519,-5.3601 11.25506,-5.6693 l 1.03613,-0.5621 -2.58518,-2.5874 -2.58516,-2.5873 0.58693,-0.587 0.58694,-0.5869 0.90009,0.8648 c 0.49504,0.4756 1.76983,1.7203 2.83285,2.766 l 1.93276,1.9013 0.70293,-0.3447 c 0.38662,-0.1896 0.70294,-0.3774 0.70294,-0.4172 0,-0.04 -1.34329,-1.3761 -2.98509,-2.9693 l -2.98508,-2.8968 0.59438,-0.6035 0.59438,-0.6034 1.86357,1.8315 c 1.02495,1.0073 2.46174,2.4146 3.19285,3.1272 l 1.3293,1.2957 0.75324,-0.3601 0.75324,-0.36 -3.35576,-3.3575 -3.35584,-3.3574 0.59362,-0.5847 0.59362,-0.5847 3.46959,3.4712 c 1.90828,1.9091 3.54029,3.4712 3.62674,3.4712 0.0865,0 2.43105,-1.1973 5.21021,-2.6606 l 5.05303,-2.6605 -0.0413,-1.6496 -0.0413,-1.6496 2.24289,2.2313 2.24289,2.2313 0,1.1185 0,1.1185 3.09383,3.092 c 3.56161,3.5595 2.97101,3.3041 4.83954,2.0922 3.03901,-1.971 5.09008,-4.1979 5.09008,-5.5263 0,-0.3716 -0.29106,-0.6992 -3.06981,-3.4555 l -3.06982,-3.0449 -0.93715,-0.2125 -0.93715,-0.2125 -1.41338,-1.4174 -1.41338,-1.4174 0.49004,-0.2029 c 0.26952,-0.1115 1.74086,-0.7278 3.26964,-1.3695 l 2.7796,-1.1668 2.12055,2.0901 c 1.57383,1.5513 2.24825,2.1332 2.61583,2.2569 0.31885,0.1073 1.13591,0.1696 2.29375,0.1746 1.65709,0.01 1.83608,-0.014 2.27683,-0.2748 l 0.47835,-0.2827 -0.0853,0.9649 c -0.25239,2.8566 0.82901,7.8505 2.42219,11.1857 2.70781,5.6685 7.51388,8.9443 13.63683,9.2947 5.54549,0.3173 10.61296,-1.3461 14.82192,-4.8655 l 0.3721,-0.3112 m -20.05751,-3.2983 c -1.71113,-0.434 -3.94007,-1.836 -5.74715,-3.6148 -0.89762,-0.8836 -1.11553,-1.1877 -1.64759,-2.2995 -0.99853,-2.0865 -1.38348,-4.0464 -1.3847,-7.05 l -7.5e-4,-1.7998 2.20688,-2.2043 2.20688,-2.2043 0.42446,1.3133 c 0.23346,0.7223 0.48224,1.3567 0.55286,1.4097 0.0706,0.053 0.82607,0.3357 1.6788,0.6282 2.40922,0.8264 2.3842,0.7743 0.55336,1.1536 -0.86476,0.1792 -1.59006,0.3436 -1.61179,0.3653 -0.0217,0.022 0.10443,0.6251 0.28037,1.3407 l 0.31988,1.3012 1.37638,0.01 c 1.52626,0.01 2.3545,0.1977 3.60251,0.827 1.58997,0.8019 2.75531,1.9276 3.38301,3.2679 0.29744,0.6351 0.34259,0.8795 0.33078,1.7898 -0.01,0.7586 -0.0893,1.2507 -0.28316,1.7546 -0.60108,1.562 -2.02916,3.2805 -3.16771,3.812 -0.77723,0.3627 -2.09834,0.4498 -3.07333,0.2025 z m -38.4572,-14.1745 -1.70328,-1.7065 0,-0.5986 0,-0.5985 -0.4031,0.3399 c -0.88148,0.7432 -2.00541,0.9023 -2.96767,0.4199 -0.35678,-0.1789 -2.33168,-2.0586 -5.90064,-5.6164 l -5.36438,-5.3475 0.75547,-0.7623 0.75548,-0.7622 4.85697,4.8956 c 2.67133,2.6926 5.00768,4.9737 5.1919,5.0691 0.4667,0.2417 1.20811,0.2156 1.64959,-0.058 0.35873,-0.2224 4.66418,-4.1816 5.48845,-5.0471 0.43492,-0.4566 0.52018,-0.9665 0.27225,-1.6281 -0.072,-0.192 -2.40082,-2.6231 -5.17522,-5.4024 l -5.04438,-5.0532 0.67663,-0.6851 0.67662,-0.6852 5.00829,4.9942 c 2.93349,2.9252 5.20529,5.2931 5.48384,5.7157 1.01427,1.5389 0.91521,2.8595 -0.3085,4.1129 -0.57399,0.5879 -0.63076,0.6865 -0.40047,0.6953 0.14758,0.01 0.39862,0.025 0.55787,0.042 0.18205,0.02 0.89554,0.6377 1.92192,1.6641 l 1.63239,1.6324 -0.95934,0 c -1.59842,0 -2.9752,0.7198 -3.85339,2.0145 -0.5341,0.7874 -0.78367,1.5386 -0.98912,2.9773 l -0.15492,1.0848 -1.70327,-1.7066 z"
     inkscape:connector-curvature="0" />
</svg>
