<?xml version="1.0" encoding="UTF-8" standalone="no"?>
<!-- Created with Inkscape (http://www.inkscape.org/) -->

<svg
   xmlns:dc="http://purl.org/dc/elements/1.1/"
   xmlns:cc="http://creativecommons.org/ns#"
   xmlns:rdf="http://www.w3.org/1999/02/22-rdf-syntax-ns#"
   xmlns:svg="http://www.w3.org/2000/svg"
   xmlns="http://www.w3.org/2000/svg"
   xmlns:sodipodi="http://sodipodi.sourceforge.net/DTD/sodipodi-0.dtd"
   xmlns:inkscape="http://www.inkscape.org/namespaces/inkscape"
   id="svg10738"
   version="1.1"
   inkscape:version="0.91 r"
   width="1238"
   height="1276"
   viewBox="0 0 1238 1276"
   sodipodi:docname="snowflake-Kylo_Ren_lightsaber-000.svg">
  <metadata
     id="metadata10744">
    <rdf:RDF>
      <cc:Work
         rdf:about="">
        <dc:format>image/svg+xml</dc:format>
        <dc:type
           rdf:resource="http://purl.org/dc/dcmitype/StillImage" />
        <dc:title />
      </cc:Work>
    </rdf:RDF>
  </metadata>
  <defs
     id="defs10742" />
  <sodipodi:namedview
     pagecolor="#ffffff"
     bordercolor="#666666"
     borderopacity="1"
     objecttolerance="10"
     gridtolerance="10"
     guidetolerance="10"
     inkscape:pageopacity="0"
     inkscape:pageshadow="2"
     inkscape:window-width="1600"
     inkscape:window-height="843"
     id="namedview10740"
     showgrid="false"
     inkscape:zoom="2.4553324"
     inkscape:cx="267.30081"
     inkscape:cy="305.90498"
     inkscape:window-x="0"
     inkscape:window-y="0"
     inkscape:window-maximized="1"
     inkscape:current-layer="svg10738"
     showguides="true"
     inkscape:guide-bbox="true"
     inkscape:snap-center="true"
     inkscape:object-nodes="true">
    <sodipodi:guide
       position="1200.4863,90.858063"
       orientation="1,0"
       id="guide4133" />
    <sodipodi:guide
       position="1200.4863,90.858063"
       orientation="0,1"
       id="guide4135" />
  </sodipodi:namedview>
  <path
     id="path4166"
     style="fill:none;stroke:#00ff00;stroke-opacity:1;stroke-width:0.70866142;stroke-miterlimit:4;stroke-dasharray:none"
     d="m 195.58246,1033.8077 c -3.65662,3.4964 -4.87792,4.4468 -8.50026,6.6146 -0.86772,0.5193 -1.59467,0.9581 -1.61544,0.9752 -0.0577,0.047 1.30392,2.7265 1.38581,2.7265 0.12396,0 3.81476,-2.5442 5.07783,-3.5004 1.78456,-1.3509 3.54646,-2.8932 5.56548,-4.8719 l 1.79714,-1.7612 -0.95859,-0.9488 -0.9586,-0.9489 z m -1.64474,-5.9031 c -1.37526,0.9225 -4.38497,2.6958 -5.64192,3.3243 -1.30537,0.6527 -3.39432,1.4554 -4.80394,1.846 -0.48061,0.1332 -0.89469,0.263 -0.92017,0.2885 -0.0735,0.073 0.48567,2.2654 0.57793,2.2654 0.17599,0 4.83417,-1.6208 5.81366,-2.0229 1.32856,-0.5454 2.49554,-1.2123 5.00159,-2.8584 l 2.02827,-1.3324 -0.36684,-0.6249 c -0.20176,-0.3438 -0.4556,-0.8025 -0.5641,-1.0194 -0.10849,-0.2169 -0.22868,-0.3944 -0.26709,-0.3944 -0.0384,0 -0.42423,0.2377 -0.85739,0.5282 z m 7.82747,-14.2403 -0.72212,0.7296 3.8197,3.8215 c 2.10045,2.1021 3.8758,3.8212 3.9442,3.8212 0.0684,10e-5 0.66837,-0.546 1.33328,-1.2134 l 1.20895,-1.2134 1.00441,0.9992 1.0044,0.9993 0.84889,-0.8489 0.84889,-0.8489 -1.9417,-1.9388 -1.9417,-1.9388 -1.36703,1.3631 -1.36703,1.3631 -2.91027,-2.9122 c -1.60031,-1.602 -2.93971,-2.9121 -2.97568,-2.9121 -0.036,0 -0.39038,0.3284 -0.78753,0.7297 z m -25.17831,-12.8119 c -0.12882,0.3903 -0.0223,0.7445 1.61485,5.3701 2.15887,6.0998 2.221,6.2524 3.05703,7.5089 0.54031,0.812 1.37753,1.6888 4.1259,4.3208 1.89643,1.8161 3.54017,3.3536 3.65277,3.4166 0.44036,0.2465 2.36441,0.8409 4.22462,1.3053 1.07319,0.2679 2.38815,0.6194 2.92213,0.7811 l 0.97088,0.294 2.42607,2.4311 c 1.33433,1.337 2.48246,2.431 2.55139,2.431 0.19444,0 2.03539,-1.8988 1.98487,-2.0472 -0.0247,-0.072 -1.6039,-1.7304 -3.50944,-3.6843 -1.90555,-1.9539 -4.0558,-4.1665 -4.77835,-4.9169 l -1.31371,-1.3643 0.17813,-0.9837 0.17814,-0.9837 -0.73963,-0.5908 c -0.7212,-0.5761 -0.76037,-0.5909 -1.57383,-0.5949 -0.82751,0 -0.83786,-0.01 -1.28852,-0.5202 -0.26444,-0.3005 -0.76669,-0.6655 -1.20191,-0.8735 l -0.74761,-0.3573 -1.00508,0.3273 c -0.5528,0.18 -1.18037,0.3273 -1.3946,0.3273 -0.34328,0 -0.38139,-0.032 -0.32111,-0.273 0.0376,-0.1502 0.19854,-0.8465 0.35759,-1.5474 l 0.2892,-1.2743 -0.49346,-1.1307 c -0.2714,-0.622 -0.60877,-1.2049 -0.7497,-1.2954 -0.4732,-0.304 -2.43071,-0.7994 -3.54294,-0.8967 -0.60621,-0.053 -1.15686,-0.1302 -1.22364,-0.1715 -0.0668,-0.041 -0.19144,-0.7032 -0.27701,-1.4709 l -0.15558,-1.3959 -1.16933,-0.3613 c -0.64312,-0.1986 -1.30896,-0.3954 -1.47962,-0.4371 -0.21596,-0.053 -0.46833,-0.332 -0.83003,-0.9181 -0.28586,-0.4633 -0.53791,-0.8423 -0.56014,-0.8423 -0.0222,0 -0.10248,0.188 -0.17831,0.4179 z m -36.52799,-4.24075 c -0.004,0.9987 0.4571,3.88685 0.91969,5.76465 1.17113,4.7538 3.30123,8.5774 8.55253,15.352 2.00736,2.5896 2.47901,2.985 4.25783,3.5698 0.95495,0.3139 3.77326,1.6872 4.27378,2.0826 0.19225,0.1518 1.1663,1.2631 2.16453,2.4696 1.7292,2.0899 1.86948,2.2269 2.96809,2.8999 1.64969,1.0106 5.81654,3.3245 7.78726,4.3245 1.74664,0.8862 2.67943,1.5759 2.91536,2.1555 0.26814,0.6588 2.44149,9.6729 2.3524,9.7567 -0.0498,0.047 -0.9097,0.6086 -1.91093,1.2484 l -1.82038,1.1633 -0.43375,2.0312 -0.43376,2.0312 -1.24507,-2.2082 c -1.80255,-3.1968 -2.34463,-3.9622 -3.34862,-4.7282 -0.92705,-0.7073 -1.61277,-0.9732 -1.98964,-0.7715 -0.44517,0.2382 -1.20051,2.432 -2.13346,6.1962 -0.23987,0.9678 -0.46857,1.8416 -0.50821,1.9417 -0.15306,0.3866 -0.98196,-4.0456 -1.3164,-7.0388 -0.23466,-2.1001 -0.36173,-2.6499 -0.86927,-3.7612 -1.03707,-2.2707 -3.1403,-4.1807 -5.645,-5.1262 -0.87603,-0.3307 -1.16879,-0.3819 -2.22253,-0.3888 -1.07652,-0.01 -1.29317,0.029 -1.91813,0.3222 -1.45335,0.681 -2.90629,2.3852 -4.84183,5.679 -1.85724,3.1607 -2.21048,4.5434 -3.25477,12.741 -0.20832,1.6353 -0.48686,3.5468 -0.61896,4.2476 -0.35582,1.8877 -1.30629,5.4925 -2.3476,8.9034 -0.71511,2.3425 -0.88994,3.0551 -0.78157,3.1857 0.21906,0.264 0.31157,0.205 0.52843,-0.337 0.64457,-1.611 2.31093,-3.4807 5.04265,-5.658 0.96784,-0.7714 2.284,-1.9069 2.92481,-2.5235 1.49176,-1.4352 2.03539,-1.7144 3.65716,-1.8785 2.72467,-0.2756 7.16479,-1.0095 10.28702,-1.7003 2.69832,-0.597 11.16496,-2.8951 11.7112,-3.1788 0.1335,-0.069 0.95269,-0.7842 1.82041,-1.5887 0.86773,-0.8044 1.72383,-1.5945 1.90249,-1.7557 l 0.32482,-0.293 0.76064,0.2568 c 0.41835,0.1413 0.84617,0.2569 0.95069,0.2569 0.10452,0 1.19542,-1.0065 2.4242,-2.2366 l 2.23418,-2.2366 -0.86795,-0.9628 c -0.47737,-0.5295 -0.95482,-1.0349 -1.061,-1.123 -0.37343,-0.3099 -0.65147,-1.067 -0.78343,-2.1333 -0.0733,-0.5924 -0.29179,-2.0874 -0.48551,-3.3223 -0.91861,-5.8557 -1.09738,-6.8268 -1.30485,-7.0884 -0.11591,-0.1461 -2.10784,-2.2837 -4.42651,-4.7501 l -4.21577,-4.4843 -1.54881,-0.6036 c -3.08935,-1.2039 -7.82887,-3.781 -11.42198,-6.2109 -4.49768,-3.0415 -7.09719,-5.4831 -9.99443,-9.3871 -2.04121,-2.7505 -4.14965,-6.1811 -6.00422,-9.76945 l -1.00358,-1.9418 z m 114.74203,-21.2682 c -1.05963,0.618 -1.12405,0.6383 -2.15705,0.6796 -1.01085,0.04 -1.08741,0.025 -1.51045,-0.2974 -0.33294,-0.2539 -0.61734,-0.3523 -1.12464,-0.389 -0.67274,-0.049 -0.68196,-0.045 -0.99172,0.4187 -0.17195,0.2573 -0.40635,0.8229 -0.52086,1.2567 -0.11451,0.4339 -0.42213,1.1534 -0.68356,1.5989 -0.26145,0.4455 -0.47536,0.8916 -0.47536,0.9913 0,0.4018 -0.15365,0.5652 -0.53144,0.5652 -0.32147,0 -0.55191,0.1698 -1.41299,1.0413 -1.30677,1.3226 -1.82898,1.6836 -2.7976,1.9333 -0.4289,0.1106 -1.09786,0.3701 -1.48656,0.5767 l -0.70672,0.3755 -0.76714,-0.3783 c -0.42194,-0.2081 -0.80021,-0.3452 -0.84061,-0.3048 -0.0404,0.04 -0.0735,0.6006 -0.0735,1.245 0,1.1664 -0.002,1.1737 -0.43042,1.6743 -0.29533,0.3451 -0.56424,0.528 -0.85679,0.5829 -0.33894,0.064 -0.40718,0.1205 -0.33277,0.2774 0.0515,0.1087 0.1132,0.6416 0.13714,1.1843 l 0.0435,0.9867 -0.55241,0.8618 c -0.30384,0.474 -0.70876,1.2042 -0.89984,1.6225 -0.28586,0.6259 -0.47776,0.8544 -1.08306,1.2893 -0.40459,0.2907 -0.90798,0.7685 -1.11864,1.0619 -0.38834,0.5407 -0.68566,0.674 -0.8057,0.3611 -0.081,-0.211 -1.18571,-0.7456 -1.9259,-0.932 -0.29967,-0.075 -0.7446,-0.1 -0.98874,-0.054 l -0.44388,0.083 0.0756,0.8939 0.0756,0.8939 -0.50799,0.4348 c -0.48335,0.4138 -0.51042,0.4729 -0.55789,1.2185 l -0.0499,0.7836 -0.96917,0.6217 c -0.53304,0.3419 -1.22996,0.757 -1.54872,0.9224 l -0.57953,0.3006 -0.82906,-0.2218 c -0.77796,-0.2081 -0.85181,-0.2586 -1.19826,-0.819 -0.25376,-0.4105 -0.38817,-0.8085 -0.42988,-1.2731 l -0.0607,-0.6758 -0.39128,0.6113 c -0.31275,0.4886 -0.40807,0.7918 -0.47487,1.5106 l -0.0836,0.8993 -1.19383,1.30025 c -0.71091,0.7743 -1.19383,1.4024 -1.19383,1.5526 0,0.2826 -0.39921,0.7377 -0.6472,0.7377 -0.24238,-10e-5 -2.77926,1.8973 -2.94102,2.1996 -0.1113,0.208 -0.0904,0.4528 0.10112,1.1854 0.21976,0.8405 0.22838,1.032 0.0961,2.1368 -0.0799,0.6675 -0.28589,1.9509 -0.45772,2.852 -0.28058,1.4714 -0.36698,1.7233 -0.84823,2.4724 l -0.53583,0.834 0.57716,-0.087 c 0.85185,-0.1277 1.70061,-0.9025 2.47913,-2.2629 0.49684,-0.8682 0.72436,-1.1416 1.1647,-1.3997 0.60433,-0.3541 0.80661,-0.7054 0.61561,-1.0691 -0.19869,-0.3783 0.11519,-2.0895 0.49065,-2.675 0.55769,-0.8697 2.13085,-2.4923 2.70388,-2.7889 0.57102,-0.2955 1.17622,-0.8177 1.38857,-1.198 0.11382,-0.2039 0.15738,-0.1973 0.70189,0.1073 l 0.58052,0.3248 0.99715,-0.4279 c 0.54843,-0.2354 1.14215,-0.4641 1.31938,-0.5084 0.31744,-0.079 1.93368,-1.6515 2.56413,-2.4943 0.24145,-0.3227 0.50022,-0.4876 1.0242,-0.65265 0.98898,-0.3113 1.66191,-0.8069 1.89855,-1.3984 l 0.19582,-0.4893 0.46676,0.1867 c 0.42859,0.1715 0.51285,0.169 1.03025,-0.031 0.30992,-0.1197 1.05612,-0.6238 1.65823,-1.1202 0.92765,-0.7649 1.09472,-0.9573 1.09472,-1.2608 0,-0.2595 0.1787,-0.5627 0.64829,-1.0999 1.50261,-1.7189 1.77684,-2.3357 1.78056,-4.0046 0.002,-0.9973 0.0702,-1.1945 0.49602,-1.4389 0.23503,-0.1349 0.46733,-0.4441 0.65879,-0.8771 l 0.29575,-0.6687 1.07244,0.076 c 1.39849,0.099 1.90193,-0.055 2.15503,-0.6608 0.22527,-0.5391 4.06858,-4.3547 4.62213,-4.5888 0.3201,-0.1353 0.49285,-0.3922 1.06757,-1.5874 0.3771,-0.7842 0.75137,-1.4676 0.83169,-1.5187 0.0803,-0.051 0.57817,-0.094 1.10628,-0.095 1.43243,0 1.80634,-0.2605 2.69031,-1.8543 0.43579,-0.7857 0.96072,-1.521 1.42835,-2.0007 l 0.73936,-0.7585 -0.48193,1e-4 c -0.36165,0 -0.75451,0.159 -1.57415,0.6371 z m -77.54681,84.79815 -1.30528,-1.3012 -1.30528,-1.3012 -0.96381,0.9582 -0.9638,0.9581 1.26243,1.3452 1.26243,1.3453 m -13.47878,13.4709 -0.67011,-0.7282 c -3.05798,-3.3229 -4.13219,-4.6892 -5.39072,-6.8568 -0.48442,-0.8344 -1.01388,-1.6935 -1.17658,-1.9093 -0.44801,-0.594 -1.45612,-0.7973 -2.50716,-0.5055 -0.56149,0.1559 -1.257,0.8348 -2.9992,2.9273 -1.70068,2.0426 -1.65527,2.2555 0.82869,3.8858 2.33119,1.53 4.95405,3.6446 7.38586,5.9546 l 0.91885,0.8728 m -6.0586,6.0428 -1.5371,-1.4163 c -4.59263,-4.2319 -8.35111,-6.4049 -11.60011,-6.7069 l -0.82522,-0.077 -0.0856,0.4564 c -0.18023,0.9608 0.18719,4.8153 0.62487,6.5551 0.33496,1.3314 0.92723,3.0204 1.4668,4.1828 0.6333,1.3644 2.05628,3.5349 2.99235,4.5644 l 0.67055,0.7374 m -12.68723,12.6855 -0.92442,-1.1018 c -2.31144,-2.7549 -3.63132,-5.4111 -4.3481,-8.7503 -0.22877,-1.0658 -0.27315,-1.6417 -0.2712,-3.5195 0.003,-2.4883 0.13776,-3.4784 0.83871,-6.1428 0.87604,-3.3299 1.6106,-5.1967 3.72049,-9.4553 1.41258,-2.8512 2.07306,-4.6765 2.71052,-7.4908 0.90246,-3.9844 1.05245,-6.5786 0.60521,-10.467 -0.32001,-2.7823 -0.3356,-7.0657 -0.0312,-8.5673 0.49998,-2.4661 1.23694,-4.0499 2.45421,-5.2744 0.80345,-0.8083 0.94982,-0.8979 2.6109,-1.5988 0.96783,-0.4085 2.37409,-0.9741 3.12501,-1.257 l 1.36529,-0.5144 0,-0.7566 0,-0.7565 -0.92752,-0.8924 c -1.12086,-1.0784 -1.80055,-2.0833 -1.99413,-2.9484 -0.13473,-0.602 -0.12296,-0.6903 0.18084,-1.3538 0.25605,-0.5593 0.63306,-1.0066 1.77753,-2.1088 1.57661,-1.5183 1.69144,-1.7174 1.69144,-2.932 0,-0.477 -0.0645,-0.7606 -0.21238,-0.9335 -0.11836,-0.1384 -0.97405,-0.5278 -1.93291,-0.8796 -0.94629,-0.3472 -2.06583,-0.8012 -2.48788,-1.009 l -0.76734,-0.3778 0.0197,-0.8495 c 0.0194,-0.8365 0.17837,-1.6073 0.8257,-4.0049 0.36656,-1.3576 1.06743,-2.9179 1.62658,-3.6211 0.73615,-0.9258 0.66704,-1.325 -0.33662,-1.9445 -1.29146,-0.7971 -1.88861,-1.9857 -1.86813,-3.7184 0.006,-0.5006 0.0984,-1.2822 0.20548,-1.7369 0.39337,-1.67 0.38359,-1.6998 -2.03062,-6.1801 -2.11035,-3.9164 -2.84234,-5.44795 -2.97883,-6.23235 -0.26152,-1.5031 -1.46965,-14.7146 -1.47022,-16.0776 -6.6e-4,-1.6103 0.58602,-2.884 1.55644,-3.3791 0.54134,-0.2762 2.29734,-0.6241 5.05728,-1.0021 2.47544,-0.339 5.63077,-0.3678 6.95159,-0.063 1.8756,0.4322 2.4075,0.7328 8.46109,4.7816 6.66569,4.4582 8.06703,5.4427 10.45717,7.3463 3.20136,2.5496 5.13911,4.5408 6.85024,7.0391 l 0.76596,1.1183 0.151,-0.5215 c 0.21305,-0.7358 0.40434,-2.2069 0.40434,-3.1094 0,-0.655 -0.16456,-1.413 -0.67735,-3.1198 -0.0334,-0.1113 -0.79677,-0.6238 -1.69631,-1.1389 l -1.6355,-0.9366 -4.03307,-4.6782 c -2.21818,-2.5731 -4.1102,-4.7858 -4.20448,-4.9171 -0.29196,-0.4067 3.49169,1.6493 6.52702,3.5468 2.59944,1.625 2.87524,1.8303 3.3044,2.4602 l 0.46823,0.6872 1.18591,0.264 c 0.65226,0.1452 1.34975,0.3035 1.54999,0.3519 0.32806,0.079 0.40256,0.1951 0.7532,1.1714 0.46258,1.288 0.68454,1.5091 2.34144,2.333 l 1.15292,0.5733 1.36553,0 1.36554,0 0.1748,0.6067 c 0.0961,0.3338 0.32336,1.2076 0.50494,1.9418 0.29767,1.2037 0.37888,1.3838 0.82616,1.8317 0.41913,0.4192 0.65665,0.5386 1.52761,0.7652 0.56735,0.1476 1.08749,0.2862 1.15585,0.3081 0.0684,0.022 0.28384,0.5513 0.47885,1.1766 0.19501,0.6253 0.40768,1.2082 0.4726,1.2953 0.0649,0.087 0.6413,0.48195 1.28086,0.87745 0.63956,0.3955 1.68164,1.1662 2.31575,1.7128 l 1.15291,0.9938 0.38062,1.4983 0.38063,1.4983 1.07569,1.0096 c 1.90151,1.7848 1.87583,1.768 3.84263,2.5053 1.0146,0.3804 1.86621,0.674 1.89245,0.6525 0.0263,-0.022 -0.31901,-0.4278 -0.76727,-0.903 -0.96443,-1.0224 -1.80352,-2.1369 -2.20603,-2.9302 -0.21216,-0.4181 -0.29044,-0.7722 -0.29045,-1.3136 0,-0.7604 -0.41707,-2.2436 -0.81082,-2.8834 -0.11091,-0.1802 -0.61263,-0.7493 -1.11492,-1.2646 -0.50228,-0.5153 -0.88888,-0.9564 -0.85906,-0.9802 0.0298,-0.024 3.67662,-2.26965 8.10401,-4.99065 l 8.0498,-4.9472 4.26821,1.7256 c 2.3475,0.9491 4.35012,1.7532 4.45024,1.7868 0.10012,0.034 -1.40714,-1.5433 -3.34947,-3.5045 l -3.53151,-3.5657 1.36834,-8.1917 c 0.7526,-4.5055 1.37242,-8.2055 1.37738,-8.2221 m -9.27413,71.68805 c -3.49643,3.6566 -4.44683,4.8779 -6.61462,8.5002 -0.51929,0.8678 -0.95812,1.5947 -0.97519,1.6155 -0.0474,0.058 -2.72651,-1.3039 -2.72651,-1.3858 0,-0.124 2.54423,-3.8148 3.50038,-5.0779 1.35092,-1.7845 2.89326,-3.5464 4.87193,-5.5654 l 1.76122,-1.7972 0.94881,0.9586 0.94881,0.9586 z m 5.90308,1.6447 c -0.92246,1.3753 -2.69581,4.385 -3.32429,5.6419 -0.6527,1.3054 -1.45543,3.3944 -1.84606,4.804 -0.13319,0.4806 -0.263,0.8947 -0.28848,0.9202 -0.0735,0.073 -2.26539,-0.4857 -2.2654,-0.578 0,-0.176 1.62088,-4.8342 2.02293,-5.8136 0.54535,-1.3286 1.21229,-2.4956 2.85845,-5.0016 l 1.33232,-2.0283 0.62497,0.3668 c 0.34373,0.2018 0.80245,0.4556 1.01937,0.5641 0.21693,0.1085 0.39442,0.2287 0.39442,0.2671 0,0.038 -0.2377,0.4243 -0.52823,0.8574 z m 14.24033,-7.8274 -0.72968,0.7221 -3.82142,-3.8197 c -2.10216,-2.1005 -3.82127,-3.8758 -3.82127,-3.9442 -1e-5,-0.068 0.54605,-0.6684 1.21346,-1.3333 l 1.21343,-1.209 -0.99926,-1.0044 -0.99926,-1.0044 0.84889,-0.8489 0.84889,-0.8488 1.93878,1.9416 1.93878,1.9417 -1.36308,1.3671 -1.36309,1.367 2.91215,2.9103 c 1.60203,1.6003 2.91216,2.9397 2.91216,2.9757 0,0.036 -0.32837,0.3903 -0.7297,0.7875 z m 12.81189,25.1783 c -0.39029,0.1288 -0.74448,0.022 -5.37015,-1.6149 -6.09975,-2.1588 -6.25237,-2.221 -7.50884,-3.057 -0.81203,-0.5403 -1.6888,-1.3775 -4.32082,-4.1259 -1.81614,-1.8964 -3.35363,-3.5402 -3.41664,-3.6528 -0.24644,-0.4403 -0.84089,-2.3644 -1.30524,-4.2246 -0.26789,-1.0732 -0.6194,-2.3882 -0.78112,-2.9221 l -0.29402,-0.9709 -2.43105,-2.4261 c -1.33708,-1.3343 -2.43106,-2.4824 -2.43105,-2.5514 0,-0.1944 1.8988,-2.0354 2.04724,-1.9848 0.0724,0.025 1.73032,1.6039 3.68423,3.5094 1.95389,1.9055 4.16651,4.0558 4.91691,4.7783 l 1.36438,1.3137 0.98367,-0.1781 0.98369,-0.1781 0.59081,0.7396 c 0.5761,0.7212 0.5909,0.7604 0.59491,1.5738 0.004,0.8275 0.008,0.8379 0.52023,1.2886 0.30043,0.2644 0.66542,0.7667 0.87343,1.2019 l 0.35733,0.7476 -0.32732,1.0051 c -0.18002,0.5528 -0.32732,1.1803 -0.32732,1.3946 1e-5,0.3432 0.0324,0.3814 0.27306,0.3211 0.15019,-0.038 0.84649,-0.1986 1.54734,-0.3576 l 1.27427,-0.2892 1.1308,0.4934 c 0.62195,0.2714 1.20487,0.6088 1.2954,0.7497 0.30395,0.4732 0.79936,2.4308 0.89666,3.543 0.053,0.6062 0.13018,1.1568 0.17146,1.2236 0.0413,0.067 0.7032,0.1915 1.47096,0.277 l 1.39592,0.1556 0.36123,1.1693 c 0.19867,0.6432 0.39539,1.309 0.43713,1.4797 0.0528,0.2159 0.33198,0.4683 0.91814,0.83 0.46323,0.2859 0.84224,0.5379 0.84224,0.5601 0,0.022 -0.18804,0.1025 -0.41785,0.1783 z m 4.24069,36.528 c -0.99869,0 -3.88685,-0.4571 -5.76458,-0.9197 -4.75385,-1.1712 -8.57745,-3.3013 -15.35201,-8.5526 -2.58962,-2.0073 -2.98506,-2.479 -3.56982,-4.2578 -0.31393,-0.9549 -1.68725,-3.7732 -2.08255,-4.2738 -0.15183,-0.1922 -1.26317,-1.1663 -2.46963,-2.1645 -2.08989,-1.7292 -2.22695,-1.8695 -2.89992,-2.9681 -1.01054,-1.6497 -3.3245,-5.8165 -4.32445,-7.7873 -0.88627,-1.7466 -1.57597,-2.6794 -2.1556,-2.9153 -0.65873,-0.2682 -9.67281,-2.4415 -9.75665,-2.3524 -0.0469,0.05 -0.60864,0.9097 -1.24842,1.9109 l -1.16324,1.8204 -2.03121,0.4337 -2.03121,0.4338 2.20815,1.2451 c 3.19683,1.8025 3.96226,2.3446 4.72825,3.3486 0.7073,0.927 0.97319,1.6128 0.77149,1.9896 -0.23824,0.4452 -2.43199,1.2005 -6.19619,2.1335 -0.96784,0.2399 -1.84163,0.4686 -1.94175,0.5082 -0.38654,0.1531 4.04567,0.982 7.03886,1.3164 2.10008,0.2347 2.64993,0.3617 3.76119,0.8693 2.27072,1.037 4.18065,3.1403 5.1262,5.645 0.33072,0.876 0.38192,1.1688 0.38876,2.2225 0.007,1.0765 -0.0294,1.2932 -0.32222,1.9181 -0.68096,1.4534 -2.38511,2.9063 -5.67899,4.8419 -3.16062,1.8572 -4.54341,2.2104 -12.74099,3.2547 -1.63533,0.2084 -3.54673,0.4869 -4.2476,0.619 -1.88767,0.3558 -5.49244,1.3063 -8.90341,2.3476 -2.34247,0.7151 -3.0551,0.8899 -3.18569,0.7816 -0.26395,-0.2191 -0.20495,-0.3116 0.33706,-0.5285 1.61094,-0.6445 3.48062,-2.3109 5.65791,-5.0426 0.77141,-0.9679 1.90699,-2.284 2.52351,-2.9248 1.43523,-1.4918 1.71446,-2.0354 1.87852,-3.6572 0.27564,-2.7247 1.00953,-7.1648 1.7003,-10.287 0.597,-2.6983 2.89512,-11.165 3.17881,-11.7112 0.0693,-0.1335 0.78425,-0.9527 1.5887,-1.8204 0.80445,-0.8677 1.59452,-1.7239 1.7557,-1.9025 l 0.29305,-0.3248 -0.25688,-0.7607 c -0.14127,-0.4183 -0.25687,-0.8461 -0.25687,-0.9507 0,-0.1045 1.00648,-1.1954 2.2366,-2.4242 l 2.23658,-2.2341 0.9628,0.8679 c 0.52953,0.4774 1.03488,0.9548 1.12301,1.061 0.30992,0.3734 1.06705,0.6515 2.13331,0.7834 0.59243,0.073 2.08746,0.2918 3.32229,0.4856 5.85569,0.9186 6.82681,1.0973 7.08842,1.3048 0.14615,0.1159 2.28369,2.1078 4.75009,4.4265 l 4.48436,4.2158 0.60356,1.5488 c 1.20385,3.0894 3.78104,7.8289 6.21087,11.422 3.04154,4.4977 5.48308,7.0972 9.38709,9.9944 2.75053,2.0412 6.18116,4.1497 9.76945,6.0042 l 1.94176,1.0036 z m 21.26819,-114.74215 c -0.61803,1.0597 -0.63833,1.1241 -0.67958,2.1571 -0.0404,1.0108 -0.0253,1.0874 0.29738,1.5104 0.25395,0.333 0.35232,0.6174 0.38902,1.1247 0.0486,0.6727 0.0448,0.6819 -0.41874,0.9917 -0.25732,0.1719 -0.82283,0.4063 -1.25669,0.5208 -0.43386,0.1146 -1.15337,0.4222 -1.59889,0.6836 -0.44554,0.2614 -0.89162,0.4754 -0.99129,0.4754 -0.40179,0 -0.56519,0.1536 -0.56517,0.5314 -2e-5,0.3215 -0.16985,0.5519 -1.04138,1.413 -1.32256,1.3068 -1.68352,1.829 -1.93329,2.7976 -0.11062,0.4289 -0.37012,1.0979 -0.57664,1.4865 l -0.37552,0.7068 0.37831,0.7671 c 0.20804,0.4219 0.34523,0.8002 0.30482,0.8406 -0.0404,0.04 -0.60065,0.073 -1.245,0.073 -1.16638,0 -1.17374,0 -1.67436,0.4304 -0.34504,0.2953 -0.52796,0.5643 -0.58284,0.8568 -0.0636,0.33895 -0.1205,0.40725 -0.27749,0.33285 -0.10864,-0.052 -0.64153,-0.1132 -1.18423,-0.1372 l -0.9867,-0.043 -0.86183,0.5524 c -0.474,0.3038 -1.20415,0.7088 -1.62254,0.8999 -0.6259,0.2858 -0.85432,0.4777 -1.28924,1.083 -0.2907,0.4046 -0.76856,0.908 -1.06189,1.1186 -0.54076,0.3884 -0.674,0.6857 -0.36114,0.8058 0.21099,0.081 0.7456,1.1857 0.93199,1.9258 0.0754,0.2997 0.0997,0.7446 0.0539,0.9888 l -0.0833,0.4439 -0.89391,-0.076 -0.8939,-0.076 -0.43483,0.508 c -0.41374,0.4834 -0.47285,0.5105 -1.21845,0.5579 l -0.78363,0.05 -0.62169,0.9692 c -0.34194,0.5331 -0.75701,1.23 -0.92238,1.5487 l -0.30067,0.5796 0.22182,0.829 c 0.20815,0.778 0.25864,0.8518 0.81904,1.1983 0.41048,0.2537 0.80852,0.3881 1.27304,0.4299 l 0.67583,0.061 -0.61131,0.3913 c -0.4886,0.3128 -0.79181,0.4081 -1.51058,0.4749 l -0.89928,0.084 -1.30026,1.1938 c -0.77429,0.7109 -1.4023,1.1938 -1.55251,1.1938 -0.28267,0 -0.7377,0.3992 -0.7377,0.6472 1e-5,0.2424 -1.89736,2.7793 -2.19962,2.941 -0.20798,0.1113 -0.45283,0.091 -1.18539,-0.1011 -0.84051,-0.2197 -1.03203,-0.2284 -2.13685,-0.096 -0.66747,0.08 -1.95086,0.2859 -2.85195,0.4578 -1.47148,0.2805 -1.72331,0.3669 -2.47239,0.8482 l -0.83403,0.5358 0.0866,-0.5771 c 0.12773,-0.8519 0.90249,-1.7007 2.26293,-2.4792 0.86821,-0.4968 1.14162,-0.7243 1.39969,-1.1647 0.35415,-0.6043 0.70545,-0.8066 1.06912,-0.6156 0.3783,0.1987 2.0895,-0.1152 2.67502,-0.4906 0.86968,-0.5577 2.49228,-2.1309 2.78887,-2.7039 0.29554,-0.571 0.81771,-1.1762 1.19803,-1.3886 0.20388,-0.1138 0.19722,-0.1574 -0.10736,-0.7019 l -0.32473,-0.5805 0.42791,-0.9972 c 0.23534,-0.5484 0.4641,-1.1421 0.50835,-1.3193 0.0793,-0.3175 1.65146,-1.9337 2.49426,-2.5642 0.32277,-0.2414 0.48769,-0.5002 0.65259,-1.0242 0.31132,-0.9889 0.80698,-1.6619 1.39841,-1.8985 l 0.48939,-0.1958 -0.18675,-0.4668 c -0.17149,-0.4286 -0.16897,-0.5128 0.0308,-1.0302 0.11969,-0.31 0.62377,-1.0562 1.12019,-1.6583 0.76482,-0.9276 0.95723,-1.0947 1.2608,-1.0947 0.25951,0 0.56269,-0.17875 1.09987,-0.64835 1.71892,-1.5026 2.33566,-1.7768 4.00455,-1.7805 0.9973,0 1.19453,-0.07 1.43891,-0.4961 0.13489,-0.235 0.44416,-0.4673 0.87709,-0.6588 l 0.66873,-0.2957 -0.0761,-1.0724 c -0.0993,-1.3985 0.0551,-1.902 0.66087,-2.1551 0.53913,-0.2252 4.35467,-4.0686 4.58875,-4.6221 0.13536,-0.3201 0.3922,-0.4929 1.58739,-1.0676 0.78425,-0.3771 1.46768,-0.7513 1.51874,-0.8317 0.0511,-0.08 0.0937,-0.5781 0.0947,-1.1062 0.003,-1.4325 0.26047,-1.8064 1.85425,-2.6903 0.78573,-0.4358 1.52103,-0.9608 2.00077,-1.4284 l 0.7585,-0.7394 -8e-5,0.482 c -6e-5,0.3616 -0.15907,0.7545 -0.63714,1.5741 z m -84.79807,77.54685 1.30117,1.3053 1.30115,1.3053 -0.95814,0.9638 -0.95814,0.9638 -1.34522,-1.2624 -1.34523,-1.2625 m -13.47088,13.4788 0.72816,0.6701 c 3.32287,3.058 4.68923,4.1322 6.85682,5.3907 0.83435,0.4845 1.6935,1.0139 1.90923,1.1766 0.59406,0.448 0.79732,1.4561 0.50551,2.5072 -0.15589,0.5615 -0.83472,1.257 -2.92722,2.9992 -2.04261,1.7007 -2.25551,1.6553 -3.88584,-0.8287 -1.53005,-2.3312 -3.64465,-4.9541 -5.95463,-7.3859 l -0.87282,-0.9188 m -6.04281,6.0586 1.41636,1.5371 c 4.23185,4.5926 6.4049,8.3511 6.70686,11.6001 l 0.0767,0.8252 -0.45636,0.086 c -0.96078,0.1803 -4.8153,-0.1871 -6.55507,-0.6248 -1.33145,-0.335 -3.02045,-0.9273 -4.18284,-1.4668 -1.36439,-0.6333 -3.53489,-2.0563 -4.56435,-2.9924 l -0.73745,-0.6705 m -12.68552,12.6872 1.1018,0.9244 c 2.75493,2.3115 5.41113,3.6313 8.75035,4.3481 1.06573,0.2288 1.6417,0.2732 3.51943,0.2712 2.4884,0 3.47846,-0.1377 6.14284,-0.8387 3.32992,-0.876 5.19672,-1.6106 9.45531,-3.7205 2.85117,-1.4126 4.67647,-2.073 7.49084,-2.7105 3.98438,-0.9024 6.57852,-1.0524 10.46696,-0.6052 2.78228,0.32 7.06575,0.3356 8.56727,0.031 2.4661,-0.5 4.04993,-1.237 5.27446,-2.4542 0.80826,-0.8035 0.89788,-0.9499 1.59882,-2.6109 0.40842,-0.9679 0.97407,-2.3741 1.25699,-3.125 l 0.5144,-1.3653 0.75653,0 0.75652,0 0.8924,0.9275 c 1.07842,1.1208 2.08335,1.8005 2.9484,1.9941 0.60206,0.1347 0.69028,0.123 1.35384,-0.1808 0.55928,-0.2561 1.00654,-0.6331 2.10874,-1.7776 1.51837,-1.5766 1.71742,-1.6914 2.932,-1.6914 0.47704,0 0.76062,0.064 0.93352,0.2124 0.13841,0.1183 0.5278,0.974 0.8796,1.9329 0.34719,0.9463 0.80125,2.0658 1.00904,2.4879 l 0.37778,0.7673 0.84952,-0.02 c 0.83643,-0.019 1.6073,-0.1784 4.00487,-0.8257 1.35761,-0.3666 2.91791,-1.0675 3.6211,-1.6266 0.9258,-0.7362 1.32497,-0.6671 1.94448,0.3366 0.79712,1.2915 1.98575,1.8886 3.71843,1.8681 0.50061,-0.01 1.28222,-0.098 1.73691,-0.2054 1.67004,-0.3934 1.69979,-0.3836 6.1801,2.0306 3.9164,2.1103 5.44785,2.8423 6.23232,2.9788 1.5031,0.2615 14.71453,1.4697 16.07753,1.4702 1.61033,0 2.88407,-0.586 3.37913,-1.5564 0.27617,-0.5413 0.62412,-2.2973 1.00209,-5.0573 0.33901,-2.4754 0.36781,-5.6308 0.0634,-6.9516 -0.43222,-1.8756 -0.73282,-2.4075 -4.78165,-8.4611 -4.45823,-6.6657 -5.44269,-8.067 -7.34625,-10.4571 -2.54964,-3.2014 -4.54084,-5.1391 -7.03916,-6.8503 l -1.11833,-0.7659 0.52155,-0.151 c 0.73585,-0.2131 2.2069,-0.4044 3.10943,-0.4044 0.65499,0 1.41294,0.1646 3.11977,0.6774 0.1113,0.033 0.6238,0.7967 1.13891,1.6963 l 0.93656,1.6355 4.67827,4.0331 c 2.57305,2.2181 4.78573,4.1102 4.91707,4.2044 0.40671,0.292 -1.64934,-3.4917 -3.5468,-6.527 -1.62497,-2.5994 -1.8303,-2.8752 -2.46019,-3.3044 l -0.68726,-0.4682 -0.26396,-1.1859 c -0.14518,-0.6523 -0.30354,-1.3498 -0.3519,-1.55 -0.0792,-0.3281 -0.1951,-0.4026 -1.17138,-0.7532 -1.28798,-0.4626 -1.50913,-0.6846 -2.33302,-2.3414 l -0.57325,-1.153 0,-1.3655 0,-1.3656 -0.60679,-0.1747 c -0.33374,-0.096 -1.20752,-0.3234 -1.94175,-0.505 -1.20372,-0.2977 -1.38379,-0.3789 -1.83174,-0.8261 -0.41913,-0.4192 -0.53856,-0.6567 -0.76515,-1.5277 -0.14762,-0.5673 -0.28624,-1.0874 -0.30807,-1.1558 -0.0218,-0.068 -0.55131,-0.2839 -1.17661,-0.4789 -0.62529,-0.195 -1.20819,-0.4076 -1.29532,-0.4726 -0.0871,-0.065 -0.48196,-0.6413 -0.87743,-1.2808 -0.39547,-0.6396 -1.16622,-1.6817 -1.71282,-2.3158 l -0.99379,-1.1529 -1.49829,-0.3806 -1.49829,-0.3806 -1.00963,-1.0757 c -1.78475,-1.9015 -1.76799,-1.8758 -2.5053,-3.8427 -0.38037,-1.0146 -0.67397,-1.8662 -0.65248,-1.8924 0.0215,-0.026 0.42784,0.319 0.903,0.7673 1.02237,0.9644 2.13689,1.8035 2.93022,2.206 0.41813,0.2122 0.7722,0.2904 1.31356,0.2905 0.76048,0 2.24367,0.417 2.88345,0.8108 0.18022,0.1109 0.74927,0.6126 1.26457,1.1149 0.51531,0.5023 0.95639,0.8889 0.98024,0.8591 0.0238,-0.03 2.2696,-3.6767 4.99057,-8.1041 l 4.94723,-8.0498 -1.72561,-4.2682 c -0.9491,-2.3475 -1.75319,-4.3501 -1.78685,-4.4502 -0.0336,-0.1001 1.54335,1.4071 3.50449,3.3495 l 3.56571,3.5315 8.19176,-1.3684 c 4.50548,-0.7526 8.20543,-1.3724 8.22212,-1.3773 m 63.74342,17.2794 c 3.49643,3.6566 4.44682,4.8779 6.61461,8.5002 0.5193,0.8678 0.95812,1.5947 0.97519,1.6155 0.0475,0.058 2.72651,-1.3039 2.72651,-1.3858 0,-0.124 -2.54423,-3.8148 -3.50038,-5.0779 -1.35091,-1.7845 -2.89326,-3.5464 -4.87193,-5.5654 l -1.76121,-1.7972 -0.94881,0.9586 -0.94882,0.9586 z m -5.90308,1.6447 c 0.92245,1.3753 2.6958,4.385 3.32428,5.6419 0.6527,1.3054 1.45543,3.3944 1.84606,4.804 0.1332,0.4806 0.263,0.8947 0.28848,0.9202 0.0735,0.073 2.26539,-0.4857 2.26541,-0.578 0,-0.176 -1.62088,-4.8342 -2.02294,-5.8136 -0.54535,-1.3286 -1.2123,-2.4956 -2.85844,-5.0016 l -1.33233,-2.0283 -0.62496,0.3668 c -0.34373,0.2018 -0.80246,0.4557 -1.01939,0.5641 -0.21691,0.1085 -0.39441,0.2287 -0.39441,0.2671 0,0.038 0.2377,0.4243 0.52824,0.8574 z m -14.24033,-7.8274 0.72967,0.7221 3.82142,-3.8197 c 2.10217,-2.1005 3.82128,-3.8758 3.82128,-3.9442 0,-0.068 -0.54606,-0.6684 -1.21346,-1.3333 l -1.21343,-1.209 0.99925,-1.0044 0.99926,-1.0044 -0.84888,-0.8488 -0.84889,-0.8489 -1.93879,1.9417 -1.93877,1.9417 1.36307,1.367 1.3631,1.367 -2.91216,2.9103 c -1.60203,1.6003 -2.91216,2.9397 -2.91216,2.9757 0,0.036 0.32837,0.3903 0.7297,0.7875 z m -12.81189,25.1783 c 0.39029,0.1288 0.74449,0.022 5.37015,-1.6149 6.09975,-2.1589 6.25237,-2.221 7.50883,-3.057 0.81203,-0.5403 1.68881,-1.3775 4.32082,-4.1259 1.81615,-1.8964 3.35363,-3.5402 3.41665,-3.6528 0.24644,-0.4403 0.84088,-2.3644 1.30524,-4.2246 0.26789,-1.0732 0.61939,-2.3882 0.78111,-2.9221 l 0.29403,-0.9709 2.43105,-2.4261 c 1.33708,-1.3343 2.43105,-2.4824 2.43104,-2.5514 0,-0.1944 -1.89881,-2.0354 -2.04723,-1.9848 -0.0724,0.025 -1.73033,1.6039 -3.68424,3.5094 -1.95389,1.9055 -4.1665,4.0558 -4.91691,4.7783 l -1.36437,1.3137 -0.98368,-0.1781 -0.98368,-0.1781 -0.59082,0.7396 c -0.57609,0.7212 -0.5909,0.7604 -0.5949,1.5738 -0.004,0.8276 -0.008,0.8379 -0.52024,1.2886 -0.30042,0.2644 -0.66541,0.7667 -0.87342,1.2019 l -0.35733,0.7476 0.32732,1.0051 c 0.18002,0.5528 0.32731,1.1803 0.32731,1.3946 0,0.3432 -0.0324,0.3814 -0.27305,0.3211 -0.1502,-0.038 -0.84649,-0.1986 -1.54734,-0.3576 l -1.27428,-0.2892 -1.1308,0.4934 c -0.62195,0.2714 -1.20486,0.6088 -1.29538,0.7497 -0.30396,0.4732 -0.79938,2.4308 -0.89667,3.543 -0.053,0.6062 -0.13018,1.1568 -0.17146,1.2236 -0.0413,0.067 -0.7032,0.1915 -1.47096,0.277 l -1.39593,0.1556 -0.36122,1.1693 c -0.19867,0.6432 -0.39538,1.309 -0.43713,1.4797 -0.0528,0.2159 -0.33198,0.4683 -0.91815,0.83 -0.46323,0.2859 -0.84223,0.5379 -0.84223,0.5601 0,0.022 0.18803,0.1025 0.41785,0.1783 z m -4.24069,36.528 c 0.99869,0 3.88685,-0.4571 5.76458,-0.9197 4.75386,-1.1712 8.57745,-3.3013 15.352,-8.5526 2.58962,-2.0073 2.98507,-2.479 3.56982,-4.2578 0.31394,-0.9549 1.68725,-3.7732 2.08256,-4.2738 0.15183,-0.1922 1.26317,-1.1663 2.46963,-2.1645 2.08989,-1.7292 2.22694,-1.8695 2.89992,-2.9681 1.01053,-1.6497 3.3245,-5.8165 4.32445,-7.7873 0.88626,-1.7466 1.57596,-2.6794 2.15559,-2.9153 0.65873,-0.2682 9.67281,-2.4415 9.75664,-2.3524 0.0469,0.05 0.60864,0.9097 1.24843,1.9109 l 1.16324,1.8204 2.03121,0.4337 2.03121,0.4338 -2.20815,1.2451 c -3.19683,1.8025 -3.96226,2.3446 -4.72825,3.3486 -0.7073,0.927 -0.97319,1.6128 -0.77149,1.9896 0.23824,0.4452 2.43199,1.2005 6.19619,2.1335 0.96783,0.2399 1.84163,0.4686 1.94175,0.5082 0.38654,0.1531 -4.04567,0.982 -7.03886,1.3164 -2.10008,0.2347 -2.64992,0.3617 -3.76118,0.8693 -2.27072,1.037 -4.18066,3.1403 -5.12619,5.645 -0.33072,0.876 -0.38194,1.1688 -0.38877,2.2225 -0.007,1.0765 0.0294,1.2932 0.32222,1.9181 0.68095,1.4534 2.38511,2.9063 5.67899,4.8419 3.16062,1.8572 4.54341,2.2104 12.74099,3.2547 1.63532,0.2084 3.54673,0.4869 4.24758,0.619 1.88768,0.3558 5.49245,1.3063 8.90341,2.3476 2.34247,0.7151 3.05511,0.8899 3.18569,0.7816 0.26396,-0.2191 0.20495,-0.3116 -0.33706,-0.5285 -1.61093,-0.6445 -3.48061,-2.3109 -5.6579,-5.0426 -0.77141,-0.9679 -1.907,-2.284 -2.52352,-2.9248 -1.43522,-1.4918 -1.71446,-2.0354 -1.87851,-3.6572 -0.27563,-2.7247 -1.00953,-7.1648 -1.7003,-10.287 -0.597,-2.6983 -2.89513,-11.165 -3.17881,-11.7112 -0.0693,-0.1335 -0.78425,-0.9527 -1.58871,-1.8204 -0.80444,-0.8677 -1.5945,-1.7239 -1.75569,-1.9025 l -0.29305,-0.3248 0.25688,-0.7607 c 0.14128,-0.4183 0.25686,-0.8461 0.25686,-0.9507 0,-0.1045 -1.00647,-1.1954 -2.23659,-2.4242 l -2.23657,-2.2341 -0.96281,0.8679 c -0.52953,0.4774 -1.03488,0.9548 -1.12301,1.061 -0.30992,0.3734 -1.06706,0.6515 -2.1333,0.7834 -0.59243,0.073 -2.08746,0.2918 -3.32229,0.4856 -5.85569,0.9186 -6.82682,1.0973 -7.08843,1.3048 -0.14615,0.1159 -2.28368,2.1078 -4.75009,4.4265 l -4.48436,4.2158 -0.60356,1.5488 c -1.20385,3.0894 -3.78103,7.8289 -6.21086,11.422 -3.04154,4.4977 -5.48309,7.0972 -9.3871,9.9944 -2.75053,2.0412 -6.18116,4.1497 -9.76945,6.0042 l -1.94175,1.0036 z m -21.2682,-114.74215 c 0.61803,1.0597 0.63833,1.1241 0.67958,2.1571 0.0404,1.0108 0.0253,1.0874 -0.29738,1.5104 -0.25395,0.333 -0.35232,0.6174 -0.38902,1.1247 -0.0487,0.6727 -0.0448,0.6819 0.41874,0.9917 0.25732,0.1719 0.82283,0.4063 1.25669,0.5208 0.43386,0.1146 1.15337,0.4222 1.59889,0.6836 0.44554,0.2614 0.89162,0.4754 0.99129,0.4754 0.40177,0 0.56519,0.1536 0.56517,0.5314 2e-5,0.3215 0.16985,0.5519 1.04138,1.413 1.32256,1.3068 1.68352,1.829 1.93329,2.7976 0.11062,0.4289 0.37011,1.0979 0.57664,1.4866 l 0.37552,0.7067 -0.37831,0.7671 c -0.20804,0.4219 -0.34522,0.8002 -0.30482,0.8406 0.0404,0.04 0.60066,0.073 1.24501,0.073 1.16639,0 1.17373,0 1.67436,0.4304 0.34503,0.2953 0.52795,0.5643 0.58284,0.8568 0.0636,0.33895 0.12049,0.40725 0.27748,0.33285 0.10864,-0.052 0.64154,-0.1132 1.18423,-0.1372 l 0.98671,-0.043 0.86183,0.5524 c 0.47399,0.3039 1.20414,0.7088 1.62253,0.8999 0.6259,0.2858 0.85433,0.4777 1.28924,1.083 0.2907,0.4046 0.76856,0.908 1.06191,1.1186 0.54074,0.3884 0.67399,0.6857 0.36113,0.8058 -0.211,0.081 -0.74561,1.1857 -0.932,1.9259 -0.0755,0.2996 -0.0997,0.7446 -0.0539,0.9887 l 0.0833,0.4439 0.89391,-0.076 0.89391,-0.075 0.43482,0.5079 c 0.41374,0.4834 0.47286,0.5105 1.21845,0.5579 l 0.78363,0.05 0.62169,0.9692 c 0.34195,0.5331 0.75701,1.23 0.92239,1.5487 l 0.30066,0.5796 -0.22182,0.829 c -0.20814,0.778 -0.25864,0.8518 -0.81904,1.1983 -0.41048,0.2537 -0.80851,0.3881 -1.27304,0.4299 l -0.67583,0.061 0.61132,0.3913 c 0.48859,0.3128 0.79181,0.4081 1.51057,0.4749 l 0.89928,0.084 1.30026,1.1938 c 0.7743,0.7109 1.40231,1.1938 1.55251,1.1938 0.28268,0 0.7377,0.3992 0.7377,0.6472 -10e-6,0.2424 1.89736,2.7793 2.19962,2.941 0.20799,0.1113 0.45283,0.091 1.18539,-0.1011 0.8405,-0.2197 1.03203,-0.2284 2.13686,-0.096 0.66746,0.08 1.95085,0.2859 2.85195,0.4578 1.47147,0.2805 1.72329,0.3669 2.47237,0.8482 l 0.83404,0.5358 -0.0866,-0.5771 c -0.12773,-0.8519 -0.90249,-1.7007 -2.26292,-2.4792 -0.86822,-0.4968 -1.14163,-0.7243 -1.3997,-1.1647 -0.35415,-0.6043 -0.70545,-0.8066 -1.06912,-0.6156 -0.3783,0.1987 -2.0895,-0.1152 -2.67502,-0.4906 -0.86968,-0.5577 -2.49228,-2.1309 -2.78887,-2.7039 -0.29553,-0.571 -0.81771,-1.1762 -1.19803,-1.3886 -0.20387,-0.1138 -0.19722,-0.1574 0.10736,-0.7019 l 0.32473,-0.5805 -0.42791,-0.9971 c -0.23534,-0.5485 -0.46409,-1.1422 -0.50835,-1.3194 -0.0793,-0.3175 -1.65145,-1.9337 -2.49426,-2.5642 -0.32277,-0.2414 -0.48768,-0.5002 -0.65259,-1.0242 -0.31132,-0.9889 -0.80698,-1.6619 -1.3984,-1.8985 l -0.4894,-0.1958 0.18675,-0.4668 c 0.1715,-0.4286 0.16897,-0.5128 -0.0308,-1.0302 -0.11969,-0.31 -0.62377,-1.0562 -1.12019,-1.6583 -0.76483,-0.9276 -0.95724,-1.0947 -1.26081,-1.0947 -0.2595,0 -0.56268,-0.17875 -1.09987,-0.64835 -1.71892,-1.5026 -2.33565,-1.7768 -4.00455,-1.7805 -0.9973,0 -1.19453,-0.07 -1.43891,-0.496 -0.1349,-0.2351 -0.44414,-0.4674 -0.87709,-0.6589 l -0.66872,-0.2957 0.0761,-1.0724 c 0.0993,-1.3985 -0.0551,-1.902 -0.66087,-2.1551 -0.53913,-0.2252 -4.35467,-4.0686 -4.58875,-4.6221 -0.13536,-0.3201 -0.3922,-0.4929 -1.58739,-1.0676 -0.78425,-0.3771 -1.46768,-0.7513 -1.51874,-0.8317 -0.0511,-0.08 -0.0937,-0.5781 -0.0947,-1.1062 -0.003,-1.4325 -0.26047,-1.8064 -1.85425,-2.6903 -0.78573,-0.4358 -1.52103,-0.9608 -2.00077,-1.4284 l -0.7585,-0.7394 8e-5,0.482 c 6e-5,0.3616 0.15907,0.7545 0.63714,1.5741 z m 84.79807,77.54685 -1.30117,1.3053 -1.30116,1.3053 0.95815,0.9638 0.95814,0.9638 1.34522,-1.2624 1.34522,-1.2625 m 13.47089,13.4788 -0.72816,0.6701 c -3.32287,3.058 -4.68923,4.1322 -6.85682,5.3907 -0.83435,0.4845 -1.6935,1.0139 -1.90923,1.1766 -0.59407,0.448 -0.79732,1.4561 -0.50551,2.5072 0.15589,0.5615 0.83472,1.257 2.92722,2.9992 2.0426,1.7007 2.2555,1.6553 3.88584,-0.8287 1.53005,-2.3312 3.64465,-4.954 5.95463,-7.3859 l 0.87282,-0.9188 m 6.0428,6.0586 -1.41635,1.5371 c -4.23185,4.5926 -6.4049,8.3511 -6.70687,11.6001 l -0.0767,0.8252 0.45636,0.086 c 0.96078,0.1803 4.8153,-0.1871 6.55508,-0.6248 1.33145,-0.335 3.02045,-0.9273 4.18284,-1.4668 1.36439,-0.6333 3.53489,-2.0563 4.56434,-2.9924 l 0.73745,-0.6705 m 12.68552,12.6872 -1.1018,0.9244 c -2.75492,2.3115 -5.41112,3.6314 -8.75035,4.3481 -1.06573,0.2288 -1.6417,0.2732 -3.51943,0.2712 -2.48839,0 -3.47846,-0.1377 -6.14283,-0.8387 -3.32992,-0.876 -5.19672,-1.6106 -9.45532,-3.7205 -2.85116,-1.4126 -4.67646,-2.073 -7.49083,-2.7105 -3.98437,-0.9024 -6.57852,-1.0524 -10.46697,-0.6052 -2.78228,0.32 -7.06574,0.3356 -8.56726,0.031 -2.4661,-0.5 -4.04993,-1.237 -5.27446,-2.4542 -0.80826,-0.8035 -0.89787,-0.9499 -1.59882,-2.6109 -0.40842,-0.9679 -0.97407,-2.3741 -1.25699,-3.125 l -0.51441,-1.3653 -0.75652,0 -0.75652,0 -0.8924,0.9275 c -1.07842,1.1208 -2.08335,1.8005 -2.9484,1.9941 -0.60206,0.1347 -0.69027,0.123 -1.35384,-0.1808 -0.55928,-0.2561 -1.00655,-0.6331 -2.10875,-1.7776 -1.51837,-1.5766 -1.71741,-1.6914 -2.93199,-1.6914 -0.47704,0 -0.76062,0.064 -0.93352,0.2124 -0.13841,0.1183 -0.52781,0.974 -0.87961,1.9329 -0.34718,0.9463 -0.80125,2.0658 -1.00903,2.4879 l -0.37778,0.7673 -0.84953,-0.02 c -0.83642,-0.019 -1.60729,-0.1784 -4.00486,-0.8257 -1.35761,-0.3666 -2.91791,-1.0675 -3.6211,-1.6266 -0.92581,-0.7362 -1.32497,-0.6671 -1.94447,0.3366 -0.79714,1.2915 -1.98576,1.8886 -3.71844,1.8681 -0.50061,-0.01 -1.28223,-0.098 -1.73691,-0.2054 -1.67003,-0.3934 -1.69979,-0.3836 -6.1801,2.0306 -3.9164,2.1103 -5.44785,2.8423 -6.23232,2.9788 -1.50311,0.2615 -14.71454,1.4697 -16.07754,1.4702 -1.61033,0 -2.88406,-0.586 -3.37912,-1.5564 -0.27618,-0.5414 -0.62411,-2.2973 -1.00209,-5.0573 -0.33902,-2.4754 -0.36782,-5.6308 -0.0635,-6.9516 0.43221,-1.8756 0.73282,-2.4075 4.78165,-8.4611 4.45823,-6.6657 5.44269,-8.067 7.34624,-10.4571 2.54966,-3.2014 4.54084,-5.1391 7.03916,-6.8503 l 1.11833,-0.7659 -0.52155,-0.151 c -0.73584,-0.2131 -2.20689,-0.4044 -3.10943,-0.4044 -0.65498,0 -1.41293,0.1646 -3.11977,0.6774 -0.1113,0.033 -0.6238,0.7967 -1.1389,1.6963 l -0.93657,1.6355 -4.67826,4.0331 c -2.57306,2.2181 -4.78573,4.1102 -4.91707,4.2044 -0.40671,0.292 1.64933,-3.4917 3.5468,-6.527 1.62497,-2.5994 1.8303,-2.8752 2.46019,-3.3044 l 0.68726,-0.4682 0.26396,-1.1859 c 0.14517,-0.6523 0.30353,-1.3498 0.35191,-1.55 0.0792,-0.3281 0.19509,-0.4026 1.17136,-0.7532 1.28799,-0.4626 1.50913,-0.6846 2.33303,-2.3415 l 0.57324,-1.1529 0,-1.3655 0,-1.3656 0.6068,-0.1747 c 0.33374,-0.096 1.20752,-0.3234 1.94176,-0.505 1.20371,-0.2977 1.38378,-0.3789 1.83173,-0.8262 0.41912,-0.4191 0.53855,-0.6566 0.76514,-1.5276 0.14763,-0.5673 0.28624,-1.0875 0.30808,-1.1558 0.0218,-0.068 0.55131,-0.2839 1.1766,-0.4789 0.6253,-0.195 1.2082,-0.4076 1.29532,-0.4726 0.0871,-0.065 0.48197,-0.6413 0.87743,-1.2808 0.39548,-0.6396 1.16623,-1.6817 1.71282,-2.3158 l 0.9938,-1.1529 1.49829,-0.3806 1.49828,-0.3806 1.00964,-1.0757 c 1.78474,-1.9015 1.76798,-1.8758 2.50529,-3.8427 0.38037,-1.0145 0.67397,-1.8662 0.65249,-1.8924 -0.0215,-0.026 -0.42785,0.319 -0.90301,0.7673 -1.02236,0.9644 -2.13688,1.8035 -2.93021,2.206 -0.41813,0.2122 -0.7722,0.2904 -1.31356,0.2905 -0.76049,0 -2.24367,0.417 -2.88346,0.8108 -0.18022,0.1109 -0.74926,0.6126 -1.26456,1.1149 -0.51531,0.5023 -0.95639,0.8889 -0.98024,0.8591 -0.0238,-0.03 -2.26961,-3.6767 -4.99057,-8.1041 l -4.94724,-8.0498 1.72562,-4.2682 c 0.94909,-2.3475 1.75318,-4.3501 1.78684,-4.4502 0.0337,-0.1001 -1.54334,1.4071 -3.50449,3.3495 l -3.56569,3.5315 -8.19178,-1.3684 c -4.50547,-0.7526 -8.20543,-1.3724 -8.22211,-1.3773 m 71.68802,9.2741 c 3.65662,3.4964 4.87792,4.4468 8.50025,6.6146 0.86774,0.5193 1.59468,0.9581 1.61545,0.9752 0.0577,0.047 -1.30392,2.7265 -1.3858,2.7265 -0.12397,0 -3.81477,-2.5442 -5.07784,-3.5004 -1.78456,-1.3509 -3.54646,-2.8932 -5.56549,-4.8719 l -1.79713,-1.7612 0.9586,-0.9488 0.9586,-0.9489 z m 1.64474,-5.9031 c 1.37526,0.9225 4.38497,2.6958 5.64193,3.3243 1.30536,0.6527 3.39431,1.4554 4.80393,1.846 0.48062,0.1332 0.8947,0.263 0.92018,0.2885 0.0735,0.073 -0.48568,2.2654 -0.57794,2.2654 -0.17598,0 -4.83417,-1.6208 -5.81366,-2.0229 -1.32855,-0.5453 -2.49553,-1.2123 -5.00158,-2.8584 l -2.02828,-1.3324 0.36684,-0.6249 c 0.20176,-0.3438 0.45561,-0.8025 0.5641,-1.0194 0.10848,-0.2169 0.22868,-0.3944 0.26709,-0.3944 0.0384,0 0.42424,0.2377 0.85739,0.5282 z m -7.82748,-14.2403 0.72214,0.7296 -3.81971,3.8215 c -2.10044,2.1021 -3.8758,3.8212 -3.94419,3.8212 -0.0684,10e-5 -0.66838,-0.546 -1.33328,-1.2134 l -1.20896,-1.2134 -1.00441,0.9992 -1.0044,0.9993 -0.84888,-0.8489 -0.84889,-0.8489 1.94169,-1.9388 1.9417,-1.9388 1.36703,1.3631 1.36704,1.3631 2.91027,-2.9122 c 1.60031,-1.602 2.93971,-2.9121 2.97568,-2.9121 0.036,0 0.39038,0.3284 0.78752,0.7297 z m 25.17833,-12.8119 c 0.12882,0.3903 0.0223,0.7445 -1.61485,5.3701 -2.15887,6.0998 -2.22101,6.2524 -3.05703,7.5089 -0.54032,0.812 -1.37753,1.6888 -4.12591,4.3208 -1.89643,1.8161 -3.54017,3.3536 -3.65277,3.4166 -0.44035,0.2465 -2.36442,0.8409 -4.22462,1.3053 -1.07319,0.2679 -2.38815,0.6194 -2.92213,0.7811 l -0.97087,0.294 -2.42607,2.4311 c -1.33434,1.337 -2.48246,2.431 -2.5514,2.431 -0.19444,0 -2.03538,-1.8988 -1.98487,-2.0472 0.0246,-0.072 1.6039,-1.7303 3.50944,-3.6842 1.90556,-1.954 4.05581,-4.1666 4.77835,-4.917 l 1.31371,-1.3643 -0.17813,-0.9837 -0.17813,-0.9837 0.73963,-0.5908 c 0.72119,-0.5761 0.76036,-0.5909 1.57383,-0.5949 0.8275,0 0.83786,-0.01 1.28851,-0.5202 0.26445,-0.3005 0.7667,-0.6655 1.20192,-0.8735 l 0.74761,-0.3573 1.00508,0.3273 c 0.5528,0.18 1.18037,0.3273 1.39459,0.3273 0.34329,0 0.3814,-0.032 0.32112,-0.273 -0.0376,-0.1502 -0.19853,-0.8465 -0.35759,-1.5474 l -0.2892,-1.2743 0.49346,-1.1307 c 0.2714,-0.622 0.60877,-1.2049 0.7497,-1.2954 0.4732,-0.304 2.43072,-0.7994 3.54294,-0.8967 0.60622,-0.053 1.15686,-0.1302 1.22363,-0.1715 0.0668,-0.041 0.19145,-0.7032 0.27702,-1.4709 l 0.15558,-1.3959 1.16933,-0.3613 c 0.64312,-0.1986 1.30896,-0.3954 1.47963,-0.4371 0.21596,-0.053 0.46832,-0.332 0.83002,-0.9182 0.28585,-0.4632 0.53792,-0.8422 0.56014,-0.8422 0.0222,0 0.10248,0.188 0.17831,0.4179 z m 36.528,-4.24075 c 0.004,0.9987 -0.45712,3.88685 -0.9197,5.76465 -1.17113,4.7538 -3.30123,8.5774 -8.55254,15.352 -2.00736,2.5896 -2.479,2.985 -4.25783,3.5698 -0.95494,0.3139 -3.77324,1.6872 -4.27378,2.0826 -0.19224,0.1518 -1.16629,1.2631 -2.16452,2.4696 -1.7292,2.0899 -1.86948,2.2269 -2.96809,2.8999 -1.64969,1.0105 -5.81654,3.3245 -7.78726,4.3245 -1.74665,0.8862 -2.67944,1.5759 -2.91537,2.1555 -0.26813,0.6588 -2.44149,9.6729 -2.3524,9.7567 0.0498,0.047 0.9097,0.6086 1.91093,1.2484 l 1.82039,1.1633 0.43375,2.0312 0.43375,2.0312 1.24508,-2.2082 c 1.80254,-3.1968 2.34463,-3.9622 3.34861,-4.7282 0.92706,-0.7073 1.61278,-0.9732 1.98963,-0.7715 0.44518,0.2382 1.20052,2.432 2.13347,6.1962 0.23988,0.9678 0.46857,1.8416 0.50821,1.9417 0.15306,0.3866 0.98197,-4.0456 1.31641,-7.0388 0.23466,-2.1001 0.36172,-2.6499 0.86927,-3.7612 1.03707,-2.2707 3.1403,-4.1807 5.645,-5.1262 0.87604,-0.3307 1.16879,-0.3819 2.22252,-0.3888 1.07654,-0.01 1.29317,0.029 1.91814,0.3222 1.45334,0.681 2.90629,2.3852 4.84184,5.679 1.85723,3.1607 2.21047,4.5434 3.25476,12.741 0.20832,1.6353 0.48685,3.5468 0.61895,4.2476 0.35583,1.8877 1.3063,5.4925 2.3476,8.9034 0.71511,2.3425 0.88995,3.0551 0.78158,3.1857 -0.21907,0.264 -0.31157,0.205 -0.52844,-0.337 -0.64458,-1.611 -2.31093,-3.4807 -5.04265,-5.658 -0.96783,-0.7714 -2.284,-1.9069 -2.92482,-2.5235 -1.49175,-1.4352 -2.03538,-1.7144 -3.65715,-1.8785 -2.72467,-0.2756 -7.16479,-1.0095 -10.28702,-1.7003 -2.69832,-0.597 -11.16496,-2.8951 -11.7112,-3.1788 -0.1335,-0.069 -0.95269,-0.7842 -1.82041,-1.5887 -0.86772,-0.8044 -1.72383,-1.5945 -1.90249,-1.7557 l -0.32481,-0.293 -0.76065,0.2568 c -0.41835,0.1413 -0.84616,0.2569 -0.95069,0.2569 -0.10452,0 -1.19542,-1.0065 -2.4242,-2.2366 l -2.23417,-2.2366 0.86794,-0.9628 c 0.47738,-0.5295 0.95482,-1.0349 1.061,-1.123 0.37342,-0.3099 0.65147,-1.067 0.78344,-2.1333 0.0733,-0.5924 0.29178,-2.0874 0.48551,-3.3223 0.91859,-5.8557 1.09737,-6.8268 1.30485,-7.0884 0.11591,-0.1461 2.10783,-2.2837 4.42652,-4.7501 l 4.21575,-4.4844 1.54882,-0.6035 c 3.08936,-1.2039 7.82888,-3.781 11.42197,-6.2109 4.49769,-3.0415 7.0972,-5.4831 9.99445,-9.3871 2.0412,-2.7505 4.14965,-6.1811 6.0042,-9.76945 l 1.00359,-1.9418 z m -114.74205,-21.2682 c 1.05963,0.618 1.12405,0.6383 2.15705,0.6796 1.01085,0.04 1.08741,0.025 1.51045,-0.2974 0.33294,-0.2539 0.61734,-0.3523 1.12464,-0.389 0.67274,-0.049 0.68196,-0.045 0.99172,0.4187 0.17195,0.2573 0.40635,0.8229 0.52086,1.2567 0.11451,0.4339 0.42213,1.1534 0.68356,1.5989 0.26145,0.4455 0.47536,0.8916 0.47536,0.9913 0,0.4018 0.15365,0.5652 0.53144,0.5652 0.32147,0 0.55191,0.1698 1.41299,1.0413 1.30678,1.3226 1.82898,1.6836 2.7976,1.9333 0.42891,0.1107 1.09787,0.3701 1.48656,0.5767 l 0.70672,0.3755 0.76715,-0.3783 c 0.42193,-0.2081 0.80021,-0.3452 0.84061,-0.3048 0.0404,0.04 0.0735,0.6006 0.0735,1.245 0,1.1664 0.002,1.1737 0.43042,1.6743 0.29534,0.3451 0.56423,0.528 0.8568,0.5829 0.33894,0.064 0.40718,0.1205 0.33276,0.2774 -0.0515,0.1087 -0.1132,0.6416 -0.13714,1.1843 l -0.0435,0.9867 0.5524,0.8618 c 0.30384,0.474 0.70877,1.2042 0.89985,1.6225 0.28585,0.6259 0.47775,0.8544 1.08305,1.2893 0.4046,0.2907 0.90799,0.7685 1.11864,1.0619 0.38834,0.5407 0.68566,0.674 0.8057,0.3611 0.081,-0.211 1.18572,-0.7456 1.9259,-0.932 0.29968,-0.075 0.7446,-0.1 0.98874,-0.054 l 0.44388,0.083 -0.0756,0.8939 -0.0756,0.8939 0.508,0.4348 c 0.48335,0.4138 0.51041,0.4729 0.55789,1.2185 l 0.0499,0.7836 0.96918,0.6217 c 0.53303,0.3419 1.22995,0.757 1.54871,0.9224 l 0.57954,0.3007 0.82905,-0.2219 c 0.77797,-0.2081 0.85181,-0.2586 1.19827,-0.819 0.25375,-0.4105 0.38816,-0.8085 0.42987,-1.273 l 0.0607,-0.6759 0.39129,0.6113 c 0.31274,0.4886 0.40807,0.7918 0.47487,1.5106 l 0.0836,0.8993 1.19382,1.30035 c 0.71092,0.7742 1.19384,1.4023 1.19384,1.5525 -10e-6,0.2826 0.3992,0.7377 0.64719,0.7377 0.24238,0 2.77926,1.8973 2.94103,2.1996 0.1113,0.208 0.0904,0.4528 -0.10113,1.1854 -0.21976,0.8405 -0.22837,1.032 -0.0961,2.1368 0.0799,0.6675 0.28589,1.9509 0.45771,2.852 0.28058,1.4714 0.36698,1.7233 0.84823,2.4724 l 0.53583,0.834 -0.57715,-0.087 c -0.85185,-0.1277 -1.70062,-0.9025 -2.47914,-2.2629 -0.49683,-0.8682 -0.72436,-1.1416 -1.16469,-1.3997 -0.60434,-0.3541 -0.80661,-0.7054 -0.61562,-1.0691 0.19869,-0.3783 -0.11518,-2.0895 -0.49064,-2.675 -0.5577,-0.8697 -2.13085,-2.4923 -2.70388,-2.7889 -0.57103,-0.2955 -1.17622,-0.8177 -1.38858,-1.198 -0.11382,-0.2039 -0.15738,-0.1972 -0.70188,0.1073 l -0.58053,0.3248 -0.99715,-0.4279 c -0.54842,-0.2354 -1.14215,-0.4641 -1.31938,-0.5084 -0.31743,-0.079 -1.93368,-1.6515 -2.56413,-2.4943 -0.24144,-0.3227 -0.50022,-0.4876 -1.02419,-0.65255 -0.98898,-0.3114 -1.66192,-0.807 -1.89856,-1.3985 l -0.19581,-0.4893 -0.46677,0.1867 c -0.42859,0.1715 -0.51284,0.169 -1.03025,-0.031 -0.30992,-0.1197 -1.05611,-0.6238 -1.65823,-1.1202 -0.92765,-0.7648 -1.09472,-0.9572 -1.09472,-1.2608 0,-0.2595 -0.17869,-0.5627 -0.64829,-1.0999 -1.50261,-1.7189 -1.77683,-2.3357 -1.78056,-4.0046 -0.002,-0.9973 -0.0702,-1.1945 -0.49602,-1.4389 -0.23503,-0.1348 -0.46733,-0.4441 -0.65879,-0.877 l -0.29574,-0.6688 -1.07245,0.076 c -1.39849,0.099 -1.90193,-0.055 -2.15502,-0.6609 -0.22527,-0.5391 -4.06859,-4.3547 -4.62216,-4.5888 -0.32008,-0.1353 -0.49283,-0.3922 -1.06755,-1.5874 -0.37711,-0.7842 -0.75137,-1.4676 -0.83169,-1.5187 -0.0803,-0.051 -0.57817,-0.094 -1.10628,-0.095 -1.43243,0 -1.80634,-0.2605 -2.69031,-1.8543 -0.43579,-0.7857 -0.96072,-1.521 -1.42836,-2.0007 l -0.73935,-0.7585 0.48193,10e-5 c 0.36165,0 0.75451,0.159 1.57415,0.6371 z m 77.54681,84.79815 1.30528,-1.3012 1.30529,-1.3012 0.9638,0.9582 0.9638,0.9581 -1.26243,1.3453 -1.26243,1.3452 m 13.47877,13.4709 0.67013,-0.7282 c 3.05798,-3.3229 4.13219,-4.6892 5.39071,-6.8568 0.48442,-0.8344 1.01389,-1.6935 1.17658,-1.9092 0.44801,-0.5941 1.45612,-0.7974 2.50717,-0.5056 0.56148,0.1559 1.257,0.8348 2.9992,2.9273 1.70067,2.0426 1.65527,2.2555 -0.82869,3.8858 -2.3312,1.53 -4.95406,3.6446 -7.38587,5.9546 l -0.91885,0.8728 m 6.0586,6.0429 1.5371,-1.4164 c 4.59264,-4.2319 8.35112,-6.4049 11.60011,-6.7069 l 0.82523,-0.077 0.0856,0.4564 c 0.18024,0.9608 -0.18718,4.8153 -0.62486,6.5551 -0.33496,1.3314 -0.92723,3.0204 -1.46679,4.1828 -0.63332,1.3644 -2.05629,3.5349 -2.99236,4.5644 l -0.67055,0.7374 m 12.68724,12.6855 0.9244,-1.1018 c 2.31145,-2.7549 3.63133,-5.4111 4.3481,-8.7503 0.22878,-1.0658 0.27316,-1.6417 0.27122,-3.5194 -0.003,-2.4884 -0.13777,-3.4785 -0.83872,-6.1429 -0.87605,-3.3299 -1.6106,-5.1967 -3.72049,-9.4553 -1.41259,-2.8512 -2.07306,-4.6765 -2.71052,-7.4908 -0.90245,-3.9844 -1.05244,-6.5786 -0.6052,-10.467 0.32001,-2.7823 0.33559,-7.0657 0.0312,-8.5673 -0.49998,-2.4661 -1.23693,-4.0499 -2.45421,-5.2744 -0.80345,-0.8083 -0.94982,-0.8979 -2.61089,-1.5988 -0.96785,-0.4085 -2.3741,-0.9741 -3.12501,-1.257 l -1.36529,-0.5144 0,-0.7566 0,-0.7565 0.92752,-0.8924 c 1.12085,-1.0784 1.80054,-2.0833 1.99413,-2.9484 0.13472,-0.602 0.12295,-0.6903 -0.18085,-1.3538 -0.25604,-0.5593 -0.63306,-1.0066 -1.77753,-2.1088 -1.57661,-1.5183 -1.69143,-1.7174 -1.69143,-2.932 0,-0.477 0.0645,-0.7606 0.21237,-0.9335 0.11836,-0.1384 0.97406,-0.5278 1.93292,-0.8796 0.94629,-0.3472 2.06583,-0.8012 2.48787,-1.009 l 0.76735,-0.3778 -0.0197,-0.8495 c -0.0194,-0.8365 -0.17836,-1.6073 -0.8257,-4.0049 -0.36656,-1.3576 -1.06742,-2.9179 -1.62658,-3.6211 -0.73614,-0.9258 -0.66704,-1.325 0.33663,-1.9445 1.29145,-0.7971 1.88861,-1.9857 1.86813,-3.7184 -0.006,-0.5006 -0.0984,-1.2822 -0.20549,-1.7369 -0.39336,-1.67 -0.38359,-1.6998 2.03063,-6.1801 2.11035,-3.9164 2.84234,-5.44795 2.97882,-6.23235 0.26153,-1.5031 1.46965,-14.7146 1.47022,-16.0776 0.001,-1.6103 -0.58602,-2.884 -1.55643,-3.3791 -0.54135,-0.2762 -2.29734,-0.6241 -5.05729,-1.0021 -2.47544,-0.339 -5.63076,-0.3678 -6.95158,-0.063 -1.8756,0.4322 -2.4075,0.7328 -8.4611,4.7816 -6.66568,4.4582 -8.06702,5.4427 -10.45716,7.3463 -3.20136,2.5496 -5.13911,4.5408 -6.85024,7.0391 l -0.76596,1.1183 -0.151,-0.5215 c -0.21306,-0.7358 -0.40434,-2.2069 -0.40435,-3.1094 0,-0.655 0.16457,-1.413 0.67736,-3.1198 0.0334,-0.1113 0.79677,-0.6238 1.69631,-1.1389 l 1.63549,-0.9366 4.03307,-4.6782 c 2.21818,-2.5731 4.11021,-4.7858 4.20449,-4.9171 0.29195,-0.4067 -3.4917,1.6493 -6.52703,3.5468 -2.59944,1.625 -2.87524,1.8303 -3.30439,2.4602 l -0.46823,0.6872 -1.18592,0.264 c -0.65224,0.1452 -1.34975,0.3035 -1.54999,0.3519 -0.32806,0.079 -0.40256,0.1951 -0.75319,1.1714 -0.46258,1.288 -0.68454,1.5091 -2.34144,2.333 l -1.15292,0.5732 -1.36553,0 -1.36555,0 -0.17479,0.6068 c -0.0961,0.3338 -0.32337,1.2076 -0.50494,1.9418 -0.29768,1.2037 -0.37889,1.3838 -0.82617,1.8317 -0.41912,0.4192 -0.65664,0.5386 -1.52761,0.7652 -0.56734,0.1476 -1.08749,0.2862 -1.15584,0.3081 -0.0684,0.022 -0.28385,0.5513 -0.47886,1.1766 -0.19501,0.6253 -0.40767,1.2082 -0.47259,1.2953 -0.0649,0.087 -0.64131,0.48195 -1.28086,0.87745 -0.63956,0.3955 -1.68165,1.1662 -2.31575,1.7128 l -1.15291,0.9938 -0.38063,1.4983 -0.38063,1.4983 -1.07568,1.0096 c -1.90152,1.7848 -1.87582,1.768 -3.84264,2.5053 -1.0146,0.3804 -1.86621,0.674 -1.89245,0.6525 -0.0263,-0.022 0.31902,-0.4278 0.76726,-0.903 0.96445,-1.0224 1.80354,-2.1369 2.20606,-2.9302 0.21216,-0.4181 0.29043,-0.7722 0.29045,-1.3136 0,-0.7605 0.41706,-2.2436 0.81081,-2.8834 0.11091,-0.1802 0.61264,-0.7493 1.11492,-1.2646 0.50227,-0.5153 0.88888,-0.9564 0.85906,-0.9802 -0.0298,-0.024 -3.67663,-2.26965 -8.10401,-4.99065 l -8.0498,-4.9472 -4.26821,1.7256 c -2.34751,0.9491 -4.35013,1.7532 -4.45025,1.7868 -0.10011,0.034 1.40714,-1.5433 3.34947,-3.5045 l 3.53152,-3.5657 -1.36835,-8.1917 c -0.75258,-4.5055 -1.37242,-8.2055 -1.37738,-8.2221 m 17.27943,-63.7435 c 3.65662,-3.4964 4.87792,-4.4468 8.50025,-6.6146 0.86774,-0.5193 1.59468,-0.9581 1.61545,-0.9752 0.0577,-0.047 -1.30392,-2.7265 -1.3858,-2.7265 -0.12397,0 -3.81477,2.5443 -5.07784,3.5004 -1.78456,1.3509 -3.54646,2.8933 -5.56549,4.8719 l -1.79713,1.7612 0.9586,0.9489 0.9586,0.9488 z m 1.64474,5.9031 c 1.37526,-0.9224 4.38497,-2.6958 5.64193,-3.3243 1.30536,-0.6527 3.39431,-1.4554 4.80393,-1.846 0.48062,-0.1332 0.8947,-0.263 0.92018,-0.2885 0.0735,-0.073 -0.48568,-2.2654 -0.57794,-2.2654 -0.17598,0 -4.83417,1.6209 -5.81366,2.0229 -1.32855,0.5454 -2.49553,1.2123 -5.00158,2.8585 l -2.02828,1.3323 0.36684,0.625 c 0.20176,0.3437 0.45561,0.8024 0.5641,1.0193 0.10848,0.217 0.22868,0.3945 0.26709,0.3945 0.0384,0 0.42424,-0.2378 0.85739,-0.5283 z m -7.82748,14.2403 0.72214,-0.7296 -3.81971,-3.8215 c -2.10044,-2.1021 -3.8758,-3.8212 -3.94419,-3.8212 -0.0684,0 -0.66838,0.546 -1.33328,1.2134 l -1.20896,1.2135 -1.00441,-0.9993 -1.0044,-0.9992 -0.84888,0.8488 -0.84889,0.8489 1.94169,1.9388 1.9417,1.9388 1.36703,-1.3631 1.36704,-1.3631 2.91027,2.9122 c 1.60031,1.602 2.93971,2.9121 2.97568,2.9121 0.036,0 0.39038,-0.3283 0.78752,-0.7297 z m 25.17833,12.8119 c 0.12882,-0.3903 0.0223,-0.7444 -1.61485,-5.3701 -2.15887,-6.0998 -2.22101,-6.2524 -3.05703,-7.5089 -0.54032,-0.812 -1.37753,-1.6888 -4.12591,-4.3208 -1.89643,-1.8161 -3.54017,-3.3536 -3.65277,-3.4166 -0.44035,-0.2465 -2.36442,-0.8409 -4.22462,-1.3053 -1.07319,-0.2678 -2.38815,-0.6194 -2.92213,-0.7811 l -0.97087,-0.294 -2.42607,-2.431 c -1.33434,-1.3371 -2.48246,-2.4311 -2.5514,-2.4311 -0.19444,0 -2.03538,1.8988 -1.98487,2.0472 0.0246,0.073 1.6039,1.7304 3.50944,3.6843 1.90556,1.9539 4.05581,4.1665 4.77835,4.9169 l 1.31371,1.3644 -0.17813,0.9836 -0.17813,0.9837 0.73963,0.5908 c 0.72119,0.5761 0.76036,0.5909 1.57383,0.5949 0.8275,0 0.83786,0.01 1.28851,0.5203 0.26445,0.3004 0.7667,0.6654 1.20192,0.8734 l 0.74761,0.3573 1.00508,-0.3273 c 0.5528,-0.18 1.18037,-0.3273 1.39459,-0.3273 0.34329,0 0.3814,0.032 0.32112,0.2731 -0.0376,0.1501 -0.19853,0.8464 -0.35759,1.5473 l -0.2892,1.2743 0.49346,1.1308 c 0.2714,0.6219 0.60877,1.2048 0.7497,1.2954 0.4732,0.3039 2.43072,0.7993 3.54294,0.8966 0.60622,0.053 1.15686,0.1302 1.22363,0.1715 0.0668,0.041 0.19145,0.7032 0.27702,1.4709 l 0.15558,1.396 1.16933,0.3612 c 0.64312,0.1987 1.30896,0.3954 1.47963,0.4371 0.21596,0.053 0.46832,0.332 0.83002,0.9182 0.28585,0.4632 0.53792,0.8422 0.56014,0.8422 0.0222,0 0.10248,-0.188 0.17831,-0.4178 z m 36.528,4.2407 c 0.004,-0.9987 -0.45712,-3.8868 -0.9197,-5.7646 -1.17113,-4.7538 -3.30123,-8.5774 -8.55254,-15.352 -2.00736,-2.5896 -2.479,-2.985 -4.25783,-3.5698 -0.95494,-0.3139 -3.77324,-1.6872 -4.27378,-2.0825 -0.19224,-0.1519 -1.16629,-1.2632 -2.16452,-2.4697 -1.7292,-2.0899 -1.86948,-2.2269 -2.96809,-2.8999 -1.64969,-1.0105 -5.81654,-3.3245 -7.78726,-4.3244 -1.74665,-0.8863 -2.67944,-1.576 -2.91537,-2.1556 -0.26813,-0.6588 -2.44149,-9.6728 -2.3524,-9.7567 0.0498,-0.047 0.9097,-0.6086 1.91093,-1.2484 l 1.82039,-1.1632 0.43375,-2.0313 0.43375,-2.0312 1.24508,2.2082 c 1.80254,3.1968 2.34463,3.9623 3.34861,4.7282 0.92706,0.7073 1.61278,0.9732 1.98963,0.7715 0.44518,-0.2382 1.20052,-2.432 2.13347,-6.1962 0.23988,-0.9678 0.46857,-1.8416 0.50821,-1.9417 0.15306,-0.3865 0.98197,4.0457 1.31641,7.0389 0.23466,2.1 0.36172,2.6499 0.86927,3.7611 1.03707,2.2708 3.1403,4.1807 5.645,5.1262 0.87604,0.3308 1.16879,0.382 2.22252,0.3888 1.07654,0.01 1.29317,-0.029 1.91814,-0.3222 1.45334,-0.681 2.90629,-2.3851 4.84184,-5.679 1.85723,-3.1606 2.21047,-4.5434 3.25476,-12.741 0.20832,-1.6353 0.48685,-3.5467 0.61895,-4.2476 0.35583,-1.8877 1.3063,-5.4924 2.3476,-8.9034 0.71511,-2.3425 0.88995,-3.0551 0.78158,-3.1857 -0.21907,-0.264 -0.31157,-0.2049 -0.52844,0.3371 -0.64458,1.6109 -2.31093,3.4806 -5.04265,5.6579 -0.96783,0.7714 -2.284,1.907 -2.92482,2.5235 -1.49175,1.4352 -2.03538,1.7144 -3.65715,1.8785 -2.72467,0.2756 -7.16479,1.0095 -10.28702,1.7003 -2.69832,0.597 -11.16496,2.8951 -11.7112,3.1788 -0.1335,0.069 -0.95269,0.7843 -1.82041,1.5887 -0.86772,0.8045 -1.72383,1.5945 -1.90249,1.7557 l -0.32481,0.2931 -0.76065,-0.2569 c -0.41835,-0.1413 -0.84616,-0.2569 -0.95069,-0.2569 -0.10452,0 -1.19542,1.0065 -2.4242,2.2366 l -2.23417,2.2366 0.86794,0.9628 c 0.47738,0.5295 0.95482,1.0349 1.061,1.123 0.37342,0.3099 0.65147,1.0671 0.78344,2.1333 0.0733,0.5924 0.29178,2.0875 0.48551,3.3223 0.91859,5.8557 1.09737,6.8268 1.30485,7.0884 0.11591,0.1462 2.10783,2.2837 4.42652,4.7501 l 4.21575,4.4844 1.54882,0.6035 c 3.08936,1.2039 7.82888,3.7811 11.42197,6.2109 4.49769,3.0415 7.0972,5.4831 9.99445,9.3871 2.0412,2.7505 4.14965,6.1812 6.0042,9.7694 l 1.00359,1.9418 z m -114.74205,21.2682 c 1.05963,-0.618 1.12405,-0.6383 2.15705,-0.6796 1.01085,-0.04 1.08741,-0.025 1.51045,0.2974 0.33294,0.254 0.61734,0.3523 1.12464,0.389 0.67274,0.049 0.68196,0.045 0.99172,-0.4187 0.17195,-0.2573 0.40635,-0.8228 0.52086,-1.2567 0.11451,-0.4339 0.42213,-1.1534 0.68356,-1.5989 0.26145,-0.4455 0.47536,-0.8916 0.47536,-0.9913 0,-0.4017 0.15365,-0.5651 0.53144,-0.5651 0.32147,0 0.55191,-0.1699 1.41299,-1.0414 1.30678,-1.3226 1.82898,-1.6835 2.7976,-1.9333 0.42891,-0.1106 1.09787,-0.3701 1.48656,-0.5766 l 0.70672,-0.3756 0.76715,0.3783 c 0.42193,0.2081 0.80021,0.3453 0.84061,0.3049 0.0404,-0.041 0.0735,-0.6007 0.0735,-1.245 0,-1.1664 0.002,-1.1738 0.43042,-1.6744 0.29534,-0.345 0.56423,-0.528 0.8568,-0.5828 0.33894,-0.064 0.40718,-0.1205 0.33276,-0.2775 -0.0515,-0.1087 -0.1132,-0.6416 -0.13714,-1.1843 l -0.0435,-0.9867 0.5524,-0.8618 c 0.30384,-0.474 0.70877,-1.2041 0.89985,-1.6225 0.28585,-0.6259 0.47775,-0.8544 1.08305,-1.2893 0.4046,-0.2907 0.90799,-0.7685 1.11864,-1.0619 0.38834,-0.5407 0.68566,-0.674 0.8057,-0.3611 0.081,0.211 1.18572,0.7456 1.9259,0.932 0.29968,0.075 0.7446,0.1 0.98874,0.054 l 0.44388,-0.083 -0.0756,-0.8939 -0.0756,-0.8939 0.508,-0.4348 c 0.48335,-0.4138 0.51041,-0.4729 0.55789,-1.2185 l 0.0499,-0.7836 0.96918,-0.6217 c 0.53303,-0.3419 1.22995,-0.757 1.54871,-0.9224 l 0.57954,-0.3006 0.82905,0.2218 c 0.77797,0.2081 0.85181,0.2586 1.19827,0.819 0.25375,0.4105 0.38816,0.8085 0.42987,1.2731 l 0.0607,0.6758 0.39129,-0.6113 c 0.31274,-0.4886 0.40807,-0.7918 0.47487,-1.5106 l 0.0836,-0.8993 1.19382,-1.3002 c 0.71092,-0.7743 1.19384,-1.4023 1.19384,-1.5525 -1e-5,-0.2827 0.3992,-0.7377 0.64719,-0.7377 0.24238,0 2.77926,-1.8974 2.94103,-2.1997 0.1113,-0.2079 0.0904,-0.4528 -0.10113,-1.1854 -0.21976,-0.8405 -0.22837,-1.032 -0.0961,-2.1368 0.0799,-0.6675 0.28589,-1.9509 0.45771,-2.852 0.28058,-1.4714 0.36698,-1.7233 0.84823,-2.4723 l 0.53583,-0.8341 -0.57715,0.087 c -0.85185,0.1277 -1.70062,0.9025 -2.47914,2.2629 -0.49683,0.8682 -0.72436,1.1416 -1.16469,1.3997 -0.60434,0.3542 -0.80661,0.7055 -0.61562,1.0691 0.19869,0.3783 -0.11518,2.0895 -0.49064,2.675 -0.5577,0.8697 -2.13085,2.4923 -2.70388,2.7889 -0.57103,0.2956 -1.17622,0.8177 -1.38858,1.198 -0.11382,0.2039 -0.15738,0.1973 -0.70188,-0.1073 l -0.58053,-0.3247 -0.99715,0.4279 c -0.54842,0.2353 -1.14215,0.4641 -1.31938,0.5083 -0.31743,0.079 -1.93368,1.6515 -2.56413,2.4943 -0.24144,0.3227 -0.50022,0.4877 -1.02419,0.6526 -0.98898,0.3113 -1.66192,0.8069 -1.89856,1.3984 l -0.19581,0.4894 -0.46677,-0.1868 c -0.42859,-0.1715 -0.51284,-0.169 -1.03025,0.031 -0.30992,0.1196 -1.05611,0.6237 -1.65823,1.1201 -0.92765,0.7649 -1.09472,0.9573 -1.09472,1.2609 0,0.2595 -0.17869,0.5626 -0.64829,1.0998 -1.50261,1.7189 -1.77683,2.3357 -1.78056,4.0046 -0.002,0.9973 -0.0702,1.1945 -0.49602,1.4389 -0.23503,0.1349 -0.46733,0.4441 -0.65879,0.8771 l -0.29574,0.6687 -1.07245,-0.076 c -1.39849,-0.099 -1.90193,0.055 -2.15502,0.6608 -0.22527,0.5392 -4.06859,4.3547 -4.62216,4.5888 -0.32008,0.1354 -0.49283,0.3922 -1.06755,1.5874 -0.37711,0.7842 -0.75137,1.4677 -0.83169,1.5187 -0.0803,0.051 -0.57817,0.094 -1.10628,0.095 -1.43243,0 -1.80634,0.2605 -2.69031,1.8543 -0.43579,0.7857 -0.96072,1.521 -1.42836,2.0008 l -0.73935,0.7584 0.48193,0 c 0.36165,-10e-5 0.75451,-0.1591 1.57415,-0.6372 z m 77.54681,-84.7981 1.30528,1.3012 1.30529,1.3012 0.9638,-0.9582 0.9638,-0.9581 -1.26243,-1.3452 -1.26243,-1.3453 m 13.47877,-13.4708 0.67013,0.7281 c 3.05798,3.3229 4.13219,4.6892 5.39071,6.8568 0.48442,0.8344 1.01389,1.6935 1.17658,1.9093 0.44801,0.594 1.45612,0.7973 2.50717,0.5055 0.56148,-0.1559 1.257,-0.8347 2.9992,-2.9272 1.70067,-2.0426 1.65527,-2.2555 -0.82869,-3.8859 -2.3312,-1.53 -4.95406,-3.6446 -7.38587,-5.9546 l -0.91885,-0.8728 m 6.0586,-6.0428 1.5371,1.4163 c 4.59264,4.2319 8.35112,6.4049 11.60011,6.7069 l 0.82523,0.077 0.0856,-0.4564 c 0.18024,-0.9608 -0.18718,-4.8153 -0.62486,-6.5551 -0.33496,-1.3314 -0.92723,-3.0204 -1.46679,-4.1828 -0.63332,-1.3644 -2.05629,-3.5349 -2.99236,-4.5643 l -0.67055,-0.7375 m 12.68724,-12.6855 0.9244,1.1018 c 2.31145,2.7549 3.63133,5.4111 4.3481,8.7503 0.22878,1.0658 0.27316,1.6417 0.27122,3.5195 -0.003,2.4884 -0.13777,3.4784 -0.83872,6.1428 -0.87605,3.3299 -1.6106,5.1967 -3.72049,9.4553 -1.41259,2.8512 -2.07306,4.6765 -2.71052,7.4909 -0.90245,3.9843 -1.05244,6.5785 -0.6052,10.4669 0.32001,2.7823 0.33559,7.0658 0.0312,8.5673 -0.49998,2.4661 -1.23693,4.0499 -2.45421,5.2744 -0.80345,0.8083 -0.94982,0.8979 -2.61089,1.5989 -0.96785,0.4084 -2.3741,0.974 -3.12501,1.257 l -1.36529,0.5144 0,0.7565 0,0.7565 0.92752,0.8924 c 1.12085,1.0784 1.80054,2.0834 1.99413,2.9484 0.13472,0.6021 0.12295,0.6903 -0.18085,1.3538 -0.25604,0.5593 -0.63306,1.0066 -1.77753,2.1088 -1.57661,1.5184 -1.69143,1.7174 -1.69143,2.932 0,0.477 0.0645,0.7606 0.21237,0.9335 0.11836,0.1384 0.97406,0.5278 1.93292,0.8796 0.94629,0.3472 2.06583,0.8013 2.48787,1.009 l 0.76735,0.3778 -0.0197,0.8496 c -0.0194,0.8364 -0.17836,1.6072 -0.8257,4.0048 -0.36656,1.3576 -1.06742,2.9179 -1.62658,3.6211 -0.73614,0.9258 -0.66704,1.325 0.33663,1.9445 1.29145,0.7971 1.88861,1.9857 1.86813,3.7184 -0.006,0.5006 -0.0984,1.2822 -0.20549,1.7369 -0.39336,1.6701 -0.38359,1.6998 2.03063,6.1801 2.11035,3.9164 2.84234,5.4479 2.97882,6.2324 0.26153,1.5031 1.46965,14.7145 1.47022,16.0775 10e-4,1.6103 -0.58602,2.8841 -1.55643,3.3791 -0.54135,0.2762 -2.29734,0.6241 -5.05729,1.0021 -2.47544,0.339 -5.63076,0.3678 -6.95158,0.064 -1.8756,-0.4323 -2.4075,-0.7329 -8.4611,-4.7817 -6.66568,-4.4582 -8.06702,-5.4427 -10.45716,-7.3462 -3.20136,-2.5497 -5.13911,-4.5409 -6.85024,-7.0392 l -0.76596,-1.1183 -0.151,0.5215 c -0.21306,0.7359 -0.40434,2.2069 -0.40435,3.1095 0,0.6549 0.16457,1.4129 0.67736,3.1197 0.0334,0.1113 0.79677,0.6238 1.69631,1.1389 l 1.63549,0.9366 4.03307,4.6783 c 2.21818,2.573 4.11021,4.7857 4.20449,4.917 0.29195,0.4067 -3.4917,-1.6493 -6.52703,-3.5468 -2.59944,-1.6249 -2.87524,-1.8303 -3.30439,-2.4602 l -0.46823,-0.6872 -1.18592,-0.264 c -0.65224,-0.1452 -1.34975,-0.3035 -1.54999,-0.3519 -0.32806,-0.079 -0.40256,-0.1951 -0.75319,-1.1714 -0.46258,-1.2879 -0.68454,-1.5091 -2.34144,-2.333 l -1.15292,-0.5732 -1.36553,0 -1.36555,0 -0.17479,-0.6068 c -0.0961,-0.3338 -0.32337,-1.2075 -0.50494,-1.9418 -0.29768,-1.2037 -0.37889,-1.3838 -0.82617,-1.8317 -0.41912,-0.4191 -0.65664,-0.5386 -1.52761,-0.7652 -0.56734,-0.1476 -1.08749,-0.2862 -1.15584,-0.308 -0.0684,-0.022 -0.28385,-0.5513 -0.47886,-1.1766 -0.19501,-0.6253 -0.40767,-1.2082 -0.47259,-1.2954 -0.0649,-0.087 -0.64131,-0.4819 -1.28086,-0.8774 -0.63956,-0.3955 -1.68165,-1.1662 -2.31575,-1.7128 l -1.15291,-0.9938 -0.38063,-1.4983 -0.38063,-1.4983 -1.07568,-1.0096 c -1.90152,-1.7848 -1.87582,-1.768 -3.84264,-2.5053 -1.0146,-0.3804 -1.86621,-0.674 -1.89245,-0.6525 -0.0263,0.021 0.31902,0.4278 0.76726,0.903 0.96445,1.0224 1.80354,2.1369 2.20606,2.9302 0.21216,0.4182 0.29043,0.7722 0.29045,1.3136 0,0.7605 0.41706,2.2437 0.81081,2.8834 0.11091,0.1803 0.61264,0.7493 1.11492,1.2646 0.50227,0.5153 0.88888,0.9564 0.85906,0.9802 -0.0298,0.024 -3.67663,2.2696 -8.10401,4.9906 l -8.0498,4.9473 -4.26821,-1.7257 c -2.34751,-0.9491 -4.35013,-1.7531 -4.45025,-1.7868 -0.10011,-0.034 1.40714,1.5433 3.34947,3.5045 l 3.53152,3.5657 -1.36835,8.1918 c -0.75258,4.5054 -1.37242,8.2054 -1.37738,8.2221 m 9.27414,-71.6881 c 3.49643,-3.6566 4.44682,-4.8779 6.61461,-8.5002 0.5193,-0.8677 0.95812,-1.5947 0.97519,-1.6155 0.0475,-0.058 2.72651,1.304 2.72651,1.3858 0,0.124 -2.54423,3.8148 -3.50038,5.0779 -1.35091,1.7845 -2.89326,3.5464 -4.87193,5.5655 l -1.76121,1.7971 -0.94881,-0.9586 -0.94882,-0.9586 z m -5.90308,-1.6447 c 0.92245,-1.3753 2.6958,-4.385 3.32428,-5.6419 0.6527,-1.3054 1.45543,-3.3943 1.84606,-4.804 0.1332,-0.4806 0.263,-0.8947 0.28848,-0.9201 0.0735,-0.073 2.26539,0.4856 2.26541,0.5779 0,0.176 -1.62088,4.8342 -2.02294,5.8137 -0.54535,1.3285 -1.2123,2.4955 -2.85844,5.0015 l -1.33233,2.0283 -0.62496,-0.3668 c -0.34373,-0.2018 -0.80246,-0.4556 -1.01939,-0.5641 -0.21691,-0.1085 -0.39441,-0.2287 -0.39441,-0.2671 0,-0.038 0.2377,-0.4242 0.52824,-0.8574 z m -14.24033,7.8275 0.72967,-0.7222 3.82142,3.8197 c 2.10217,2.1005 3.82128,3.8758 3.82128,3.9442 0,0.068 -0.54606,0.6684 -1.21346,1.3333 l -1.21343,1.209 0.99925,1.0044 0.99926,1.0044 -0.84888,0.8489 -0.84889,0.8489 -1.93879,-1.9417 -1.93877,-1.9417 1.36307,-1.3671 1.3631,-1.367 -2.91216,-2.9103 c -1.60203,-1.6003 -2.91216,-2.9397 -2.91216,-2.9756 0,-0.036 0.32837,-0.3904 0.7297,-0.7876 z m -12.8119,-25.1784 c 0.39031,-0.1288 0.74448,-0.022 5.37017,1.6149 6.09973,2.1589 6.25235,2.221 7.50882,3.057 0.81203,0.5403 1.68881,1.3776 4.32082,4.1259 1.81615,1.8965 3.35363,3.5402 3.41665,3.6528 0.24644,0.4404 0.84088,2.3644 1.30524,4.2246 0.26789,1.0732 0.61939,2.3882 0.78111,2.9222 l 0.29403,0.9708 2.43105,2.4261 c 1.33708,1.3343 2.43105,2.4825 2.43104,2.5514 0,0.1944 -1.89881,2.0354 -2.04723,1.9849 -0.0724,-0.025 -1.73033,-1.6039 -3.68424,-3.5095 -1.95389,-1.9055 -4.1665,-4.0558 -4.91691,-4.7783 l -1.36437,-1.3137 -0.98368,0.1781 -0.98368,0.1781 -0.59082,-0.7396 c -0.57609,-0.7212 -0.5909,-0.7604 -0.5949,-1.5738 -0.004,-0.8275 -0.008,-0.8379 -0.52022,-1.2885 -0.30044,-0.2645 -0.66543,-0.7667 -0.87344,-1.202 l -0.35733,-0.7476 0.32732,-1.0051 c 0.18002,-0.5527 0.32731,-1.1803 0.32731,-1.3945 0,-0.3433 -0.0324,-0.3814 -0.27305,-0.3212 -0.15019,0.038 -0.84649,0.1986 -1.54734,0.3576 l -1.27428,0.2892 -1.1308,-0.4934 c -0.62195,-0.2714 -1.20486,-0.6088 -1.29538,-0.7497 -0.30396,-0.4732 -0.79938,-2.4307 -0.89667,-3.543 -0.053,-0.6062 -0.13018,-1.1568 -0.17146,-1.2236 -0.0413,-0.067 -0.7032,-0.1914 -1.47096,-0.277 l -1.39593,-0.1556 -0.36122,-1.1693 c -0.19868,-0.6431 -0.39538,-1.309 -0.43713,-1.4797 -0.0528,-0.2159 -0.33198,-0.4683 -0.91815,-0.83 -0.46323,-0.2858 -0.84223,-0.5379 -0.84223,-0.5601 0,-0.022 0.18803,-0.1025 0.41785,-0.1783 z m -4.24068,-36.5279 c 0.99868,0 3.88685,0.4571 5.76458,0.9197 4.75384,1.1711 8.57745,3.3012 15.352,8.5525 2.58962,2.0073 2.98506,2.479 3.56982,4.2578 0.31395,0.955 1.68725,3.7733 2.08255,4.2738 0.15184,0.1922 1.26318,1.1663 2.46964,2.1645 2.08989,1.7292 2.22695,1.8695 2.89992,2.9681 1.01053,1.6497 3.3245,5.8165 4.32445,7.7873 0.88626,1.7466 1.57596,2.6794 2.15559,2.9153 0.65873,0.2682 9.67281,2.4415 9.75664,2.3524 0.0469,-0.05 0.60864,-0.9097 1.24843,-1.9109 l 1.16324,-1.8204 2.03121,-0.4337 2.03121,-0.4338 -2.20815,-1.2451 c -3.19683,-1.8025 -3.96226,-2.3446 -4.72825,-3.3486 -0.7073,-0.927 -0.97319,-1.6127 -0.77149,-1.9896 0.23824,-0.4452 2.43199,-1.2005 6.19619,-2.1335 0.96783,-0.2398 1.84163,-0.4685 1.94175,-0.5082 0.38654,-0.153 -4.04567,-0.9819 -7.03886,-1.3164 -2.10007,-0.2346 -2.64992,-0.3617 -3.76118,-0.8693 -2.27072,-1.037 -4.18066,-3.1403 -5.12619,-5.645 -0.33072,-0.876 -0.38194,-1.1687 -0.38877,-2.2225 -0.007,-1.0765 0.0294,-1.2932 0.32222,-1.9181 0.68095,-1.4534 2.3851,-2.9063 5.67899,-4.8419 3.16062,-1.8572 4.54339,-2.2104 12.74099,-3.2547 1.63532,-0.2083 3.54673,-0.4869 4.24758,-0.619 1.88768,-0.3558 5.49245,-1.3063 8.90341,-2.3476 2.34247,-0.7151 3.05511,-0.8899 3.18569,-0.7815 0.26396,0.219 0.20495,0.3115 -0.33706,0.5284 -1.61093,0.6446 -3.48061,2.3109 -5.6579,5.0426 -0.77141,0.9679 -1.907,2.284 -2.52352,2.9249 -1.43522,1.4917 -1.71446,2.0353 -1.87851,3.6571 -0.27563,2.7247 -1.00953,7.1648 -1.7003,10.287 -0.597,2.6983 -2.89513,11.165 -3.17881,11.7112 -0.0693,0.1335 -0.78425,0.9527 -1.58871,1.8204 -0.80444,0.8678 -1.5945,1.7239 -1.75569,1.9025 l -0.29305,0.3248 0.25688,0.7607 c 0.14128,0.4183 0.25686,0.8462 0.25686,0.9507 0,0.1045 -1.00647,1.1954 -2.23659,2.4242 l -2.23657,2.2342 -0.96281,-0.868 c -0.52953,-0.4774 -1.03488,-0.9548 -1.12301,-1.061 -0.30992,-0.3734 -1.06706,-0.6515 -2.1333,-0.7834 -0.59243,-0.073 -2.08746,-0.2918 -3.32229,-0.4855 -5.85569,-0.9186 -6.82682,-1.0974 -7.08843,-1.3049 -0.14615,-0.1159 -2.28368,-2.1078 -4.75009,-4.4265 l -4.48436,-4.2158 -0.60355,-1.5488 c -1.20386,-3.0893 -3.78105,-7.8289 -6.21087,-11.422 -3.04154,-4.4976 -5.48309,-7.0972 -9.3871,-9.9944 -2.75053,-2.0412 -6.18116,-4.1496 -9.76945,-6.0042 l -1.94175,-1.0036 z m -21.2682,114.742 c 0.61803,-1.0596 0.63833,-1.124 0.67958,-2.1571 0.0404,-1.0108 0.0253,-1.0874 -0.29738,-1.5104 -0.25395,-0.3329 -0.35232,-0.6173 -0.38902,-1.1246 -0.0487,-0.6728 -0.0448,-0.682 0.41874,-0.9918 0.25732,-0.1719 0.82283,-0.4063 1.25669,-0.5208 0.43386,-0.1145 1.15337,-0.4222 1.59889,-0.6836 0.44554,-0.2614 0.89162,-0.4753 0.99129,-0.4753 0.40177,0 0.56519,-0.1537 0.56517,-0.5315 2e-5,-0.3215 0.16985,-0.5519 1.04138,-1.413 1.32256,-1.3067 1.68352,-1.829 1.93329,-2.7976 0.11062,-0.4289 0.37011,-1.0978 0.57664,-1.4865 l 0.37552,-0.7068 -0.37831,-0.7671 c -0.20804,-0.4219 -0.34522,-0.8002 -0.30482,-0.8406 0.0404,-0.04 0.60066,-0.073 1.24501,-0.073 1.16639,0 1.17373,0 1.67436,-0.4304 0.34503,-0.2953 0.52795,-0.5642 0.58284,-0.8568 0.0636,-0.3389 0.12049,-0.4072 0.27748,-0.3327 0.10864,0.051 0.64154,0.1131 1.18423,0.1371 l 0.98671,0.044 0.86183,-0.5524 c 0.47399,-0.3038 1.20414,-0.7088 1.62253,-0.8998 0.6259,-0.2859 0.85433,-0.4778 1.28924,-1.0831 0.2907,-0.4046 0.76856,-0.908 1.06191,-1.1186 0.54074,-0.3884 0.67399,-0.6857 0.36113,-0.8057 -0.211,-0.081 -0.74561,-1.1857 -0.932,-1.9259 -0.0755,-0.2997 -0.0997,-0.7446 -0.0539,-0.9888 l 0.0833,-0.4439 0.89391,0.076 0.89391,0.076 0.43482,-0.508 c 0.41374,-0.4834 0.47286,-0.5104 1.21845,-0.5579 l 0.78363,-0.05 0.62169,-0.9692 c 0.34195,-0.533 0.75701,-1.2299 0.92239,-1.5487 l 0.30066,-0.5795 -0.22182,-0.8291 c -0.20814,-0.778 -0.25864,-0.8518 -0.81904,-1.1983 -0.41048,-0.2537 -0.80851,-0.3881 -1.27304,-0.4298 l -0.67583,-0.061 0.61132,-0.3913 c 0.48859,-0.3127 0.79181,-0.4081 1.51057,-0.4749 l 0.89928,-0.083 1.30026,-1.1939 c 0.7743,-0.7109 1.40231,-1.1938 1.55251,-1.1938 0.28268,0 0.7377,-0.3992 0.7377,-0.6472 -10e-6,-0.2424 1.89736,-2.7793 2.19962,-2.941 0.20799,-0.1113 0.45283,-0.09 1.18539,0.1011 0.8405,0.2198 1.03203,0.2284 2.13686,0.096 0.66746,-0.08 1.95085,-0.2859 2.85195,-0.4577 1.47147,-0.2806 1.72329,-0.367 2.47237,-0.8483 l 0.83404,-0.5358 -0.0866,0.5772 c -0.12773,0.8518 -0.90249,1.7006 -2.26292,2.4791 -0.86822,0.4968 -1.14163,0.7244 -1.3997,1.1647 -0.35415,0.6043 -0.70545,0.8066 -1.06912,0.6156 -0.3783,-0.1987 -2.0895,0.1152 -2.67502,0.4907 -0.86968,0.5576 -2.49228,2.1308 -2.78887,2.7038 -0.29553,0.5711 -0.81771,1.1763 -1.19803,1.3886 -0.20387,0.1138 -0.19722,0.1574 0.10736,0.7019 l 0.32473,0.5805 -0.42791,0.9972 c -0.23534,0.5484 -0.46409,1.1421 -0.50835,1.3194 -0.0793,0.3174 -1.65145,1.9336 -2.49426,2.5641 -0.32277,0.2414 -0.48768,0.5002 -0.65259,1.0242 -0.31132,0.989 -0.80698,1.6619 -1.3984,1.8985 l -0.4894,0.1958 0.18675,0.4668 c 0.1715,0.4286 0.16897,0.5129 -0.0308,1.0303 -0.11969,0.3099 -0.62377,1.0561 -1.12019,1.6582 -0.76483,0.9276 -0.95724,1.0947 -1.26081,1.0947 -0.2595,0 -0.56268,0.1787 -1.09987,0.6483 -1.71892,1.5026 -2.33565,1.7768 -4.00455,1.7806 -0.9973,0 -1.19453,0.07 -1.43891,0.496 -0.1349,0.235 -0.44414,0.4673 -0.87709,0.6588 l -0.66872,0.2957 0.0761,1.0725 c 0.0993,1.3984 -0.0551,1.9019 -0.66087,2.155 -0.53913,0.2253 -4.35467,4.0686 -4.58875,4.6221 -0.13536,0.3201 -0.3922,0.4929 -1.58739,1.0676 -0.78425,0.3771 -1.46768,0.7514 -1.51874,0.8317 -0.0511,0.08 -0.0937,0.5781 -0.0947,1.1063 -0.003,1.4324 -0.26047,1.8063 -1.85425,2.6903 -0.78573,0.4358 -1.52103,0.9607 -2.00077,1.4283 l -0.7585,0.7394 8e-5,-0.482 c 6e-5,-0.3616 0.15907,-0.7545 0.63714,-1.5741 z m 84.79807,-77.5468 -1.30117,-1.3053 -1.30116,-1.3053 0.95815,-0.9638 0.95814,-0.9638 1.34522,1.2624 1.34522,1.2625 m 13.47089,-13.4788 -0.72816,-0.6701 c -3.32287,-3.058 -4.68923,-4.1322 -6.85682,-5.3907 -0.83435,-0.4845 -1.6935,-1.0139 -1.90923,-1.1766 -0.59407,-0.448 -0.79732,-1.4561 -0.50551,-2.5072 0.15589,-0.5615 0.83472,-1.257 2.92722,-2.9992 2.0426,-1.7007 2.2555,-1.6552 3.88584,0.8287 1.53005,2.3312 3.64465,4.9541 5.95463,7.3859 l 0.87282,0.9188 m 6.0428,-6.0586 -1.41635,-1.5371 c -4.23185,-4.5926 -6.4049,-8.3511 -6.70687,-11.6001 l -0.0767,-0.8252 0.45636,-0.086 c 0.96078,-0.1803 4.8153,0.1872 6.55508,0.6248 1.33145,0.335 3.02045,0.9273 4.18284,1.4668 1.36439,0.6333 3.53489,2.0563 4.56434,2.9924 l 0.73745,0.6705 m 12.68552,-12.6872 -1.1018,-0.9244 c -2.75492,-2.3115 -5.41112,-3.6313 -8.75035,-4.3481 -1.06573,-0.2288 -1.6417,-0.2732 -3.51943,-0.2712 -2.48839,0 -3.47846,0.1378 -6.14283,0.8387 -3.32992,0.876 -5.19672,1.6106 -9.45532,3.7205 -2.85116,1.4126 -4.67646,2.0731 -7.49084,2.7105 -3.98437,0.9025 -6.57851,1.0525 -10.46696,0.6052 -2.78226,-0.32 -7.06575,-0.3356 -8.56726,-0.031 -2.4661,0.5 -4.04994,1.237 -5.27446,2.4543 -0.80825,0.8034 -0.89787,0.9498 -1.59883,2.6109 -0.40841,0.9678 -0.97406,2.3741 -1.25698,3.125 l -0.51441,1.3653 -0.75652,0 -0.75652,0 -0.8924,-0.9276 c -1.07842,-1.1208 -2.08335,-1.8005 -2.9484,-1.9941 -0.60207,-0.1347 -0.69027,-0.1229 -1.35384,0.1808 -0.55928,0.2561 -1.00655,0.6331 -2.10875,1.7776 -1.51837,1.5766 -1.71741,1.6914 -2.93199,1.6914 -0.47704,0 -0.76062,-0.064 -0.93353,-0.2124 -0.1384,-0.1183 -0.5278,-0.974 -0.8796,-1.9329 -0.34718,-0.9463 -0.80125,-2.0658 -1.00903,-2.4878 l -0.37778,-0.7674 -0.84953,0.02 c -0.83642,0.019 -1.60729,0.1784 -4.00486,0.8258 -1.35761,0.3665 -2.91791,1.0674 -3.6211,1.6265 -0.92581,0.7362 -1.32497,0.6671 -1.94447,-0.3366 -0.79713,-1.2914 -1.98575,-1.8886 -3.71844,-1.8681 -0.50061,0.01 -1.28223,0.098 -1.73691,0.2055 -1.67003,0.3933 -1.69979,0.3836 -6.1801,-2.0307 -3.91641,-2.1103 -5.44785,-2.8423 -6.23233,-2.9788 -1.5031,-0.2615 -14.71453,-1.4696 -16.07753,-1.4702 -1.61033,-7e-4 -2.88406,0.586 -3.37912,1.5564 -0.27618,0.5414 -0.62413,2.2974 -1.0021,5.0573 -0.33901,2.4755 -0.36779,5.6308 -0.0634,6.9516 0.43221,1.8756 0.73282,2.4075 4.78164,8.4611 4.45824,6.6657 5.4427,8.067 7.34625,10.4572 2.54966,3.2013 4.54085,5.1391 7.03916,6.8502 l 1.11833,0.766 -0.52155,0.151 c -0.73584,0.213 -2.20689,0.4043 -3.10943,0.4043 -0.65498,0 -1.41293,-0.1646 -3.11977,-0.6774 -0.1113,-0.033 -0.6238,-0.7967 -1.1389,-1.6963 l -0.93657,-1.6355 -4.67827,-4.033 c -2.57305,-2.2182 -4.78572,-4.1102 -4.91707,-4.2045 -0.4067,-0.292 1.64934,3.4917 3.5468,6.527 1.62498,2.5995 1.8303,2.8752 2.46019,3.3044 l 0.68727,0.4682 0.26395,1.1859 c 0.14518,0.6523 0.30354,1.3498 0.3519,1.55 0.0793,0.3281 0.19511,0.4026 1.17138,0.7532 1.28799,0.4626 1.50913,0.6846 2.33303,2.3415 l 0.57324,1.1529 0,1.3655 0,1.3656 0.6068,0.1748 c 0.33374,0.096 1.20752,0.3233 1.94174,0.5049 1.20373,0.2977 1.3838,0.3789 1.83175,0.8262 0.41912,0.4191 0.53855,0.6566 0.76514,1.5276 0.14763,0.5673 0.28626,1.0875 0.30808,1.1558 0.0218,0.068 0.55131,0.2839 1.1766,0.4789 0.6253,0.195 1.2082,0.4077 1.29532,0.4726 0.0871,0.065 0.48197,0.6413 0.87743,1.2808 0.39547,0.6396 1.16623,1.6817 1.71282,2.3158 l 0.9938,1.1529 1.49829,0.3806 1.49828,0.3806 1.00963,1.0757 c 1.78475,1.9015 1.76799,1.8759 2.5053,3.8427 0.38037,1.0146 0.67397,1.8662 0.65249,1.8924 -0.0215,0.026 -0.42785,-0.319 -0.90301,-0.7673 -1.02236,-0.9644 -2.13688,-1.8035 -2.93021,-2.206 -0.41813,-0.2121 -0.7722,-0.2904 -1.31356,-0.2904 -0.76049,0 -2.24367,-0.4171 -2.88346,-0.8109 -0.18022,-0.1109 -0.74926,-0.6126 -1.26456,-1.1149 -0.51532,-0.5023 -0.95639,-0.8889 -0.98024,-0.859 -0.0239,0.03 -2.26961,3.6766 -4.99057,8.104 l -4.94724,8.0498 1.72562,4.2682 c 0.94909,2.3475 1.75318,4.3501 1.78684,4.4502 0.0337,0.1001 -1.54334,-1.4071 -3.50448,-3.3494 l -3.5657,-3.5316 -8.19178,1.3684 c -4.50547,0.7526 -8.20543,1.3724 -8.22212,1.3774 m -63.74341,-17.2795 c -3.49644,-3.6566 -4.44683,-4.8779 -6.61462,-8.5002 -0.51929,-0.8677 -0.95812,-1.5947 -0.97519,-1.6155 -0.0474,-0.058 -2.72651,1.304 -2.72652,1.3858 0,0.124 2.54425,3.8148 3.50038,5.0779 1.35093,1.7845 2.89327,3.5464 4.87194,5.5655 l 1.76122,1.7971 0.9488,-0.9586 0.94879,-0.9586 z m 5.90308,-1.6447 c -0.92246,-1.3753 -2.69581,-4.385 -3.32429,-5.6419 -0.6527,-1.3054 -1.45543,-3.3943 -1.84606,-4.804 -0.13319,-0.4806 -0.263,-0.8947 -0.28848,-0.9201 -0.0735,-0.073 -2.26539,0.4856 -2.2654,0.5779 0,0.176 1.62088,4.8342 2.02294,5.8137 0.54534,1.3285 1.21228,2.4955 2.85844,5.0015 l 1.33232,2.0283 0.62496,-0.3668 c 0.34373,-0.2018 0.80245,-0.4556 1.01939,-0.5641 0.21692,-0.1085 0.39441,-0.2287 0.39441,-0.2671 0,-0.038 -0.2377,-0.4242 -0.52823,-0.8574 z m 14.24033,7.8275 -0.72967,-0.7221 -3.82125,3.8198 c -2.10174,2.1009 -3.82128,3.8758 -3.82128,3.9442 -1e-5,0.068 0.54606,0.6684 1.21346,1.3333 l 1.21343,1.209 -0.99922,1.0044 -0.99923,1.0044 0.84889,0.8489 0.84889,0.8489 1.93882,-1.9417 1.93881,-1.9416 -1.36309,-1.3671 -1.36308,-1.367 2.91215,-2.9103 c 1.60168,-1.6006 2.91216,-2.9397 2.91216,-2.9756 0,-0.036 -0.32837,-0.3904 -0.7297,-0.7876 z m 12.81189,-25.1783 c -0.39029,-0.1289 -0.74448,-0.022 -5.37016,1.6148 -6.09974,2.1589 -6.25236,2.221 -7.50883,3.057 -0.81204,0.5403 -1.6888,1.3776 -4.32082,4.1259 -1.81614,1.8965 -3.35363,3.5402 -3.41664,3.6528 -0.24644,0.4404 -0.84089,2.3644 -1.30524,4.2246 -0.2679,1.0732 -0.6194,2.3882 -0.78111,2.9222 l -0.29403,0.9708 -2.43106,2.4261 c -1.33708,1.3343 -2.43106,2.4825 -2.43105,2.5514 0,0.1944 1.89881,2.0354 2.04724,1.9849 0.0724,-0.025 1.73032,-1.6039 3.68423,-3.5095 1.9539,-1.9055 4.16651,-4.0558 4.91692,-4.7783 l 1.36437,-1.3137 0.98368,0.1781 0.98368,0.1781 0.59081,-0.7396 c 0.5761,-0.7212 0.59091,-0.7604 0.59492,-1.5738 0.004,-0.8275 0.008,-0.8379 0.52022,-1.2885 0.30043,-0.2645 0.66542,-0.7667 0.87344,-1.202 l 0.35732,-0.7476 -0.32732,-1.0051 c -0.18002,-0.5528 -0.32732,-1.1803 -0.32732,-1.3945 0,-0.3433 0.0324,-0.3814 0.27306,-0.3212 0.15019,0.038 0.84649,0.1986 1.54734,0.3576 l 1.27428,0.2892 1.1308,-0.4934 c 0.62194,-0.2714 1.20486,-0.6088 1.29539,-0.7497 0.30395,-0.4732 0.79937,-2.4307 0.89666,-3.543 0.053,-0.6062 0.13018,-1.1568 0.17146,-1.2236 0.0413,-0.067 0.70321,-0.1915 1.47096,-0.277 l 1.39592,-0.1556 0.36124,-1.1693 c 0.19867,-0.6432 0.39538,-1.309 0.43712,-1.4797 0.0528,-0.2159 0.33197,-0.4683 0.91814,-0.83 0.46324,-0.2858 0.84224,-0.5379 0.84224,-0.5601 0,-0.022 -0.18803,-0.1025 -0.41786,-0.1783 z m 4.24069,-36.528 c -0.99869,0 -3.88685,0.4571 -5.76459,0.9197 -4.75384,1.1711 -8.57744,3.3012 -15.352,8.5525 -2.58963,2.0073 -2.98506,2.479 -3.56982,4.2578 -0.31393,0.955 -1.68724,3.7733 -2.08255,4.2738 -0.15183,0.1922 -1.26317,1.1663 -2.46963,2.1645 -2.08989,1.7292 -2.22695,1.8695 -2.89992,2.9681 -1.01054,1.6497 -3.3245,5.8166 -4.32446,7.7873 -0.88626,1.7466 -1.57596,2.6794 -2.15558,2.9153 -0.65874,0.2682 -9.6728,2.4415 -9.75664,2.3524 -0.0469,-0.05 -0.60866,-0.9097 -1.24843,-1.9109 l -1.16324,-1.8204 -2.03122,-0.4337 -2.0312,-0.4338 2.20815,-1.245 c 3.19683,-1.8026 3.96226,-2.3447 4.72825,-3.3487 0.70729,-0.927 0.97318,-1.6127 0.77149,-1.9896 -0.23824,-0.4452 -2.43199,-1.2005 -6.19618,-2.1335 -0.96784,-0.2398 -1.84164,-0.4685 -1.94176,-0.5082 -0.38654,-0.153 4.04567,-0.9819 7.03886,-1.3164 2.10007,-0.2346 2.64991,-0.3617 3.76118,-0.8693 2.27072,-1.037 4.18065,-3.1403 5.1262,-5.645 0.33071,-0.876 0.38192,-1.1687 0.38876,-2.2225 0.007,-1.0765 -0.0294,-1.2932 -0.32222,-1.9181 -0.68096,-1.4534 -2.38511,-2.9063 -5.67899,-4.8418 -3.16062,-1.8573 -4.5434,-2.2105 -12.74098,-3.2548 -1.63533,-0.2083 -3.54674,-0.4869 -4.2476,-0.619 -1.88767,-0.3558 -5.49245,-1.3063 -8.90341,-2.3476 -2.34247,-0.7151 -3.0551,-0.8899 -3.18569,-0.7815 -0.26395,0.219 -0.20495,0.3115 0.33707,0.5284 1.61093,0.6446 3.48061,2.3109 5.6579,5.0426 0.77141,0.9679 1.90699,2.284 2.52351,2.9249 1.43523,1.4917 1.71446,2.0353 1.87852,3.6571 0.27563,2.7247 1.00952,7.1648 1.7003,10.287 0.597,2.6984 2.89512,11.165 3.17881,11.7112 0.0693,0.1335 0.78424,0.9527 1.5887,1.8204 0.80445,0.8678 1.59452,1.7239 1.7557,1.9025 l 0.29305,0.3248 -0.25688,0.7607 c -0.14127,0.4183 -0.25687,0.8462 -0.25687,0.9507 0,0.1045 1.00647,1.1954 2.2366,2.4242 l 2.23658,2.2342 0.96279,-0.868 c 0.52954,-0.4774 1.03489,-0.9548 1.12301,-1.061 0.30993,-0.3734 1.06706,-0.6515 2.13331,-0.7834 0.59243,-0.073 2.08746,-0.2918 3.32229,-0.4855 5.85568,-0.9186 6.82681,-1.0974 7.08842,-1.3049 0.14615,-0.1159 2.28368,-2.1078 4.75009,-4.4265 l 4.48436,-4.2158 0.60356,-1.5488 c 1.20386,-3.0893 3.78104,-7.8289 6.21086,-11.422 3.04154,-4.4976 5.48309,-7.0972 9.3871,-9.9944 2.75053,-2.0412 6.18117,-4.1496 9.76945,-6.0042 l 1.94176,-1.0036 z m 21.26819,114.742 c -0.61803,-1.0596 -0.63833,-1.124 -0.67958,-2.1571 -0.0404,-1.0108 -0.0253,-1.0874 0.29738,-1.5104 0.25395,-0.3329 0.35232,-0.6173 0.38902,-1.1246 0.0486,-0.6728 0.0448,-0.682 -0.41874,-0.9918 -0.25732,-0.1719 -0.82283,-0.4063 -1.25669,-0.5208 -0.43386,-0.1145 -1.15337,-0.4222 -1.59889,-0.6836 -0.44554,-0.2614 -0.89162,-0.4753 -0.99129,-0.4753 -0.40179,0 -0.56519,-0.1537 -0.56517,-0.5315 -2e-5,-0.3215 -0.16985,-0.5519 -1.04138,-1.413 -1.32256,-1.3067 -1.68351,-1.8289 -1.93329,-2.7976 -0.11062,-0.4289 -0.3701,-1.0978 -0.57663,-1.4865 l -0.37553,-0.7068 0.37831,-0.7671 c 0.20806,-0.4219 0.34523,-0.8002 0.30482,-0.8406 -0.0404,-0.04 -0.60065,-0.073 -1.245,-0.073 -1.16638,0 -1.17373,0 -1.67436,-0.4304 -0.34504,-0.2953 -0.52795,-0.5642 -0.58284,-0.8568 -0.0636,-0.3389 -0.1205,-0.4072 -0.27749,-0.3327 -0.10863,0.051 -0.64153,0.1132 -1.18422,0.1371 l -0.98671,0.044 -0.86183,-0.5524 c -0.474,-0.3038 -1.20414,-0.7087 -1.62253,-0.8998 -0.62591,-0.2859 -0.85433,-0.4778 -1.28925,-1.0831 -0.2907,-0.4046 -0.76856,-0.908 -1.06189,-1.1186 -0.54076,-0.3884 -0.674,-0.6857 -0.36114,-0.8057 0.21099,-0.081 0.7456,-1.1857 0.93199,-1.9259 0.0755,-0.2997 0.0997,-0.7446 0.0539,-0.9888 l -0.0833,-0.4439 -0.89391,0.076 -0.8939,0.076 -0.43483,-0.508 c -0.41374,-0.4834 -0.47284,-0.5104 -1.21846,-0.5579 l -0.78362,-0.05 -0.6217,-0.9692 c -0.34193,-0.533 -0.757,-1.2299 -0.92237,-1.5487 l -0.30067,-0.5795 0.22182,-0.8291 c 0.20815,-0.7779 0.25864,-0.8518 0.81904,-1.1983 0.41048,-0.2537 0.80851,-0.3881 1.27304,-0.4298 l 0.67583,-0.061 -0.61131,-0.3913 c -0.4886,-0.3127 -0.79181,-0.4081 -1.51058,-0.4749 l -0.89928,-0.083 -1.30026,-1.1939 c -0.77429,-0.7109 -1.4023,-1.1938 -1.55251,-1.1938 -0.28267,0 -0.7377,-0.3992 -0.7377,-0.6472 1e-5,-0.2424 -1.89736,-2.7793 -2.19962,-2.941 -0.20798,-0.1113 -0.45283,-0.09 -1.18539,0.1011 -0.8405,0.2198 -1.03202,0.2284 -2.13685,0.096 -0.66748,-0.08 -1.95086,-0.2859 -2.85195,-0.4577 -1.47147,-0.2806 -1.72331,-0.367 -2.47239,-0.8483 l -0.83403,-0.5358 0.0866,0.5772 c 0.12774,0.8518 0.90249,1.7006 2.26294,2.4791 0.86821,0.4968 1.14162,0.7244 1.39969,1.1647 0.35415,0.6043 0.70545,0.8066 1.06912,0.6156 0.3783,-0.1987 2.0895,0.1152 2.67503,0.4907 0.86967,0.5577 2.49227,2.1308 2.78886,2.7038 0.29554,0.5711 0.81771,1.1763 1.19803,1.3886 0.20388,0.1138 0.19721,0.1574 -0.10736,0.7019 l -0.32472,0.5805 0.4279,0.9972 c 0.23535,0.5484 0.4641,1.1421 0.50835,1.3194 0.0793,0.3174 1.65146,1.9336 2.49426,2.5641 0.32277,0.2414 0.48768,0.5002 0.65259,1.0242 0.31132,0.989 0.80697,1.6619 1.39841,1.8985 l 0.48939,0.1959 -0.18675,0.4667 c -0.17149,0.4286 -0.16897,0.5129 0.0308,1.0303 0.11969,0.3099 0.62377,1.0561 1.12018,1.6582 0.76484,0.9276 0.95724,1.0947 1.26082,1.0947 0.2595,0 0.56268,0.1787 1.09986,0.6483 1.71892,1.5026 2.33566,1.7768 4.00455,1.7806 0.9973,0 1.19453,0.07 1.43891,0.496 0.13489,0.235 0.44416,0.4673 0.87709,0.6588 l 0.66873,0.2957 -0.0761,1.0725 c -0.0993,1.3985 0.0551,1.9019 0.66087,2.155 0.53913,0.2253 4.35467,4.0686 4.58875,4.6221 0.13536,0.3201 0.3922,0.4929 1.58739,1.0676 0.78425,0.3771 1.46768,0.7514 1.51874,0.8317 0.0511,0.08 0.0937,0.5781 0.0947,1.1063 0.003,1.4324 0.26047,1.8063 1.85425,2.6903 0.78573,0.4358 1.52103,0.9607 2.00077,1.4283 l 0.7585,0.7394 -8e-5,-0.482 c -6e-5,-0.3616 -0.15907,-0.7545 -0.63714,-1.5741 z m -84.79806,-77.5468 1.3012,-1.3053 1.30119,-1.3052 -0.95814,-0.9638 -0.95814,-0.9638 -1.34523,1.2624 -1.34522,1.2624 m -13.47088,-13.4787 0.72816,-0.6701 c 3.32287,-3.058 4.68922,-4.1322 6.85682,-5.3908 0.83435,-0.4844 1.6935,-1.0138 1.90923,-1.1765 0.59406,-0.4481 0.79732,-1.4562 0.50551,-2.5072 -0.1559,-0.5615 -0.83473,-1.257 -2.92722,-2.9992 -2.04261,-1.7007 -2.25551,-1.6553 -3.88584,0.8287 -1.53005,2.3312 -3.64466,4.954 -5.95463,7.3858 l -0.87282,0.9189 m -6.04281,-6.0586 1.41636,-1.5371 c 4.23185,-4.5926 6.4049,-8.3511 6.70686,-11.6001 l 0.0767,-0.8252 -0.45636,-0.086 c -0.96079,-0.1803 -4.8153,0.1871 -6.55507,0.6248 -1.33146,0.335 -3.02045,0.9272 -4.18285,1.4668 -1.36438,0.6333 -3.53489,2.0563 -4.56434,2.9924 l -0.73745,0.6705 m -12.68552,-12.6872 1.10179,-0.9244 c 2.75493,-2.3115 5.41114,-3.6314 8.75035,-4.3481 1.06574,-0.2288 1.64171,-0.2732 3.51944,-0.2712 2.48839,0 3.47846,0.1377 6.14284,0.8387 3.32992,0.876 5.19672,1.6106 9.45531,3.7205 2.85116,1.4125 4.67647,2.073 7.49084,2.7105 3.98437,0.9024 6.57852,1.0524 10.46696,0.6052 2.78227,-0.32 7.06575,-0.3356 8.56726,-0.031 2.46611,0.5 4.04994,1.237 5.27447,2.4542 0.80825,0.8035 0.89787,0.9499 1.59882,2.6109 0.40842,0.9679 0.97407,2.3741 1.25699,3.125 l 0.51441,1.3653 0.75652,0 0.75652,0 0.89239,-0.9275 c 1.07842,-1.1209 2.08336,-1.8005 2.94841,-1.9941 0.60206,-0.1348 0.69028,-0.123 1.35384,0.1808 0.55928,0.2561 1.00654,0.6331 2.10874,1.7776 1.51837,1.5766 1.71742,1.6914 2.932,1.6914 0.47704,0 0.76062,-0.064 0.93352,-0.2124 0.13841,-0.1184 0.5278,-0.974 0.8796,-1.9329 0.34718,-0.9463 0.80125,-2.0658 1.00903,-2.4879 l 0.37779,-0.7673 0.84952,0.02 c 0.83642,0.019 1.6073,0.1784 4.00487,0.8257 1.3576,0.3666 2.91791,1.0674 3.6211,1.6266 0.9258,0.7361 1.32497,0.667 1.94447,-0.3366 0.79713,-1.2915 1.98575,-1.8886 3.71844,-1.8681 0.50061,0.01 1.28222,0.098 1.73691,0.2054 1.67003,0.3934 1.69979,0.3836 6.1801,-2.0306 3.91639,-2.1103 5.44785,-2.8423 6.23232,-2.9788 1.5031,-0.2616 14.71453,-1.4697 16.07754,-1.4702 1.61032,-7e-4 2.88405,0.586 3.37911,1.5564 0.27618,0.5413 0.62412,2.2973 1.0021,5.0573 0.33901,2.4754 0.36781,5.6307 0.0634,6.9516 -0.43221,1.8756 -0.73281,2.4075 -4.78163,8.4611 -4.45824,6.6657 -5.44269,8.067 -7.34626,10.4571 -2.54965,3.2014 -4.54084,5.1391 -7.03915,6.8503 l -1.11834,0.7659 0.52155,0.151 c 0.73585,0.2131 2.2069,0.4044 3.10943,0.4044 0.65498,0 1.41293,-0.1646 3.11977,-0.6774 0.1113,-0.033 0.6238,-0.7968 1.13892,-1.6963 l 0.93655,-1.6355 4.67827,-4.0331 c 2.57306,-2.2181 4.78574,-4.1102 4.91707,-4.2044 0.4067,-0.292 -1.64934,3.4916 -3.5468,6.527 -1.62497,2.5994 -1.83029,2.8752 -2.46019,3.3044 l -0.68726,0.4682 -0.26395,1.1859 c -0.14519,0.6523 -0.30355,1.3498 -0.35191,1.55 -0.0792,0.3281 -0.1951,0.4026 -1.17138,0.7532 -1.28797,0.4626 -1.50913,0.6845 -2.33299,2.3415 l -0.57324,1.1529 0,1.3655 0,1.3656 -0.6068,0.1748 c -0.33373,0.096 -1.20752,0.3233 -1.94176,0.5049 -1.20371,0.2977 -1.38378,0.3789 -1.83173,0.8262 -0.41947,0.4188 -0.53856,0.6566 -0.76515,1.5276 -0.14761,0.5673 -0.28624,1.0875 -0.30807,1.1558 -0.0218,0.068 -0.5513,0.2839 -1.1766,0.4789 -0.6253,0.195 -1.20819,0.4077 -1.29532,0.4726 -0.0871,0.065 -0.48197,0.6413 -0.87743,1.2808 -0.39547,0.6396 -1.16623,1.6817 -1.71283,2.3158 l -0.99378,1.1529 -1.49829,0.3806 -1.4983,0.3807 -1.00963,1.0756 c -1.78474,1.9016 -1.76799,1.8759 -2.5053,3.8427 -0.38036,1.0146 -0.67397,1.8662 -0.65248,1.8924 0.0215,0.026 0.42784,-0.319 0.90301,-0.7672 1.02236,-0.9645 2.13688,-1.8036 2.93021,-2.2061 0.41813,-0.2121 0.7722,-0.2904 1.31356,-0.2904 0.76048,0 2.24367,-0.4171 2.88345,-0.8108 0.18022,-0.111 0.74928,-0.6127 1.26457,-1.115 0.51528,-0.5023 0.95639,-0.8888 0.98023,-0.859 0.0238,0.03 2.26961,3.6766 4.99059,8.104 l 4.94723,8.0498 -1.72562,4.2682 c -0.9491,2.3475 -1.75318,4.3501 -1.78684,4.4502 -0.0337,0.1001 1.54334,-1.4071 3.50448,-3.3494 l 3.5657,-3.5316 8.19178,1.3684 c 4.50548,0.7526 8.20543,1.3724 8.22212,1.3774 m -71.68815,-9.2743 c -3.65661,-3.4964 -4.87791,-4.4468 -8.50024,-6.6146 -0.86773,-0.5193 -1.59468,-0.9581 -1.61545,-0.9752 -0.0577,-0.047 1.30392,-2.7265 1.3858,-2.7265 0.12397,0 3.81478,2.5443 5.07784,3.5004 1.78456,1.3509 3.54647,2.8933 5.56548,4.8719 l 1.79715,1.7613 -0.95862,0.9487 -0.95861,0.9488 z m -1.64472,5.9031 c -1.37527,-0.9224 -4.38498,-2.6958 -5.64193,-3.3243 -1.30536,-0.6527 -3.39432,-1.4554 -4.80394,-1.846 -0.48062,-0.1332 -0.8947,-0.263 -0.92017,-0.2885 -0.0735,-0.073 0.48567,-2.2654 0.57793,-2.2654 0.17599,0 4.83418,1.6209 5.81366,2.0229 1.32856,0.5454 2.49553,1.2123 5.00159,2.8585 l 2.02827,1.3323 -0.36684,0.625 c -0.20176,0.3437 -0.45561,0.8024 -0.5641,1.0193 -0.10848,0.217 -0.22868,0.3945 -0.26709,0.3945 -0.0384,0 -0.42423,-0.2378 -0.85738,-0.5283 z m 7.82746,14.2403 -0.72212,-0.7296 3.81988,-3.8213 c 2.10087,-2.1017 3.87579,-3.8213 3.94419,-3.8212 0.0684,-10e-5 0.66837,0.546 1.33328,1.2134 l 1.20896,1.2134 1.00443,-0.9992 1.00444,-0.9992 0.84889,0.8489 0.84889,0.8489 -1.94167,1.9388 -1.94166,1.9388 -1.36703,-1.3631 -1.36703,-1.3631 -2.91027,2.9122 c -1.60066,1.6017 -2.93971,2.9121 -2.97569,2.9121 -0.036,0 -0.39037,-0.3283 -0.78752,-0.7297 z m -25.17832,12.8119 c -0.12881,-0.3903 -0.0223,-0.7444 1.61486,-5.3701 2.15886,-6.0998 2.221,-6.2524 3.05702,-7.5088 0.54031,-0.8121 1.37753,-1.6889 4.12591,-4.3209 1.89643,-1.8161 3.54018,-3.3536 3.65277,-3.4166 0.44036,-0.2464 2.36441,-0.8409 4.22462,-1.3053 1.07319,-0.2678 2.38815,-0.6193 2.92213,-0.7811 l 0.97088,-0.294 2.42606,-2.431 c 1.33433,-1.3371 2.48246,-2.4311 2.55139,-2.4311 0.19444,0 2.03539,1.8988 1.98487,2.0472 -0.0247,0.073 -1.6039,1.7304 -3.50944,3.6843 -1.90555,1.9539 -4.0558,4.1665 -4.77834,4.9169 l -1.31372,1.3644 0.17814,0.9836 0.17813,0.9837 -0.73962,0.5908 c -0.72121,0.5761 -0.76038,0.5909 -1.57384,0.5949 -0.82751,0 -0.83787,0.01 -1.28851,0.5203 -0.26445,0.3004 -0.76671,0.6654 -1.20192,0.8734 l -0.74762,0.3573 -1.00508,-0.3273 c -0.5528,-0.18 -1.18036,-0.3273 -1.39459,-0.3273 -0.34329,0 -0.38139,0.032 -0.32111,0.2731 0.0376,0.1501 0.19853,0.8464 0.35759,1.5473 l 0.2892,1.2743 -0.49346,1.1308 c -0.2714,0.6219 -0.60877,1.2048 -0.7497,1.2954 -0.4732,0.3039 -2.43072,0.7993 -3.54294,0.8966 -0.60622,0.053 -1.15686,0.1302 -1.22364,0.1715 -0.0668,0.041 -0.19144,0.7032 -0.27701,1.4709 l -0.15559,1.396 -1.16932,0.3612 c -0.64312,0.1987 -1.30896,0.3954 -1.47963,0.4371 -0.21596,0.053 -0.46832,0.332 -0.83003,0.9182 -0.28585,0.4632 -0.53791,0.8422 -0.56014,0.8422 -0.0222,0 -0.10247,-0.188 -0.17831,-0.4179 z m -36.52799,4.2407 c -0.004,-0.9987 0.45711,-3.8868 0.91969,-5.7646 1.17113,-4.7538 3.30124,-8.5774 8.55254,-15.352 2.00735,-2.5896 2.479,-2.985 4.25783,-3.5698 0.95495,-0.3139 3.77325,-1.6872 4.27378,-2.0825 0.19225,-0.1519 1.16629,-1.2632 2.16453,-2.4697 1.72919,-2.0898 1.86948,-2.2269 2.96809,-2.8999 1.64968,-1.0105 5.81653,-3.3245 7.78726,-4.3244 1.74664,-0.8863 2.67943,-1.576 2.91536,-2.1556 0.26813,-0.6588 2.4415,-9.6728 2.3524,-9.7567 -0.0498,-0.047 -0.9097,-0.6086 -1.91092,-1.2484 l -1.82039,-1.1632 -0.43375,-2.0312 -0.43376,-2.0313 -1.24507,2.2082 c -1.80254,3.1968 -2.34463,3.9623 -3.34861,4.7282 -0.92706,0.7073 -1.61278,0.9732 -1.98964,0.7715 -0.44517,-0.2382 -1.20052,-2.4319 -2.13346,-6.1961 -0.23988,-0.9679 -0.46858,-1.8417 -0.50822,-1.9418 -0.15305,-0.3865 -0.98196,4.0457 -1.31641,7.0389 -0.23465,2.1 -0.36173,2.6499 -0.86926,3.7611 -1.03708,2.2708 -3.1403,4.1807 -5.645,5.1262 -0.87604,0.3308 -1.16879,0.382 -2.22253,0.3888 -1.07653,0.01 -1.29317,-0.029 -1.91813,-0.3222 -1.45336,-0.681 -2.90629,-2.3851 -4.84184,-5.679 -1.85723,-3.1606 -2.21047,-4.5434 -3.25477,-12.741 -0.20832,-1.6353 -0.48685,-3.5467 -0.61896,-4.2476 -0.35581,-1.8877 -1.30629,-5.4924 -2.34759,-8.9034 -0.71511,-2.3425 -0.88994,-3.0551 -0.78157,-3.1857 0.21906,-0.2639 0.31157,-0.2049 0.52843,0.3371 0.64458,1.6109 2.31093,3.4806 5.04265,5.6579 0.96784,0.7714 2.28401,1.907 2.92481,2.5235 1.49176,1.4352 2.03539,1.7144 3.65716,1.8785 2.72467,0.2756 7.16479,1.0095 10.28703,1.7003 2.69831,0.597 11.16495,2.8951 11.7112,3.1788 0.1335,0.069 0.95268,0.7843 1.8204,1.5887 0.86772,0.8045 1.72384,1.5945 1.90249,1.7557 l 0.32482,0.2931 0.76064,-0.2569 c 0.41835,-0.1413 0.84617,-0.2569 0.95069,-0.2569 0.10452,0 1.19541,1.0065 2.4242,2.2366 l 2.23418,2.2366 -0.86795,0.9628 c -0.47737,0.5295 -0.95482,1.0349 -1.061,1.123 -0.37343,0.3099 -0.65148,1.0671 -0.78343,2.1333 -0.0733,0.5924 -0.29179,2.0875 -0.48551,3.3223 -0.91861,5.8557 -1.09738,6.8268 -1.30485,7.0884 -0.11591,0.1462 -2.10784,2.2837 -4.42652,4.7501 l -4.21576,4.4844 -1.54882,0.6035 c -3.08934,1.2039 -7.82887,3.7811 -11.42198,6.2109 -4.49768,3.0415 -7.09719,5.4831 -9.99442,9.3871 -2.04122,2.7505 -4.14965,6.1812 -6.00423,9.7694 l -1.00357,1.9418 z m 114.74204,21.2682 c -1.05963,-0.618 -1.12405,-0.6383 -2.15705,-0.6796 -1.01085,-0.04 -1.08741,-0.025 -1.51045,0.2974 -0.33294,0.254 -0.61734,0.3523 -1.12464,0.389 -0.67274,0.049 -0.68196,0.045 -0.99172,-0.4187 -0.17195,-0.2573 -0.40635,-0.8228 -0.52086,-1.2567 -0.11451,-0.4339 -0.42213,-1.1534 -0.68356,-1.5989 -0.26145,-0.4455 -0.47536,-0.8916 -0.47536,-0.9913 0,-0.4017 -0.15365,-0.5651 -0.53144,-0.5651 -0.32147,0 -0.55191,-0.1699 -1.41299,-1.0414 -1.30677,-1.3226 -1.82898,-1.6835 -2.7976,-1.9333 -0.4289,-0.1106 -1.09786,-0.3701 -1.48655,-0.5766 l -0.70673,-0.3756 -0.76715,0.3783 c -0.42192,0.2081 -0.8002,0.3453 -0.84061,0.3049 -0.0404,-0.041 -0.0735,-0.6007 -0.0735,-1.245 0,-1.1664 -0.002,-1.1738 -0.43042,-1.6744 -0.29533,-0.345 -0.56423,-0.528 -0.85679,-0.5828 -0.33894,-0.064 -0.40719,-0.1205 -0.33277,-0.2775 0.0515,-0.1087 0.1132,-0.6416 0.13715,-1.1843 l 0.0435,-0.9867 -0.55241,-0.8618 c -0.30384,-0.474 -0.70876,-1.2041 -0.89984,-1.6225 -0.28586,-0.6259 -0.47776,-0.8544 -1.08305,-1.2893 -0.4046,-0.2907 -0.90799,-0.7685 -1.11864,-1.0619 -0.38835,-0.5407 -0.68567,-0.674 -0.80571,-0.3611 -0.081,0.211 -1.18571,0.7456 -1.9259,0.932 -0.29967,0.075 -0.74461,0.1 -0.98874,0.054 l -0.44388,-0.083 0.0756,-0.8939 0.0756,-0.8939 -0.50799,-0.4348 c -0.48336,-0.4138 -0.51041,-0.4729 -0.5579,-1.2185 l -0.0499,-0.7836 -0.96917,-0.6217 c -0.53304,-0.3419 -1.22996,-0.757 -1.54871,-0.9224 l -0.57955,-0.3006 -0.82905,0.2218 c -0.77796,0.2081 -0.85182,0.2586 -1.19827,0.819 -0.25375,0.4105 -0.38816,0.8085 -0.42987,1.2731 l -0.0607,0.6758 -0.39128,-0.6113 c -0.31275,-0.4886 -0.40807,-0.7918 -0.47487,-1.5106 l -0.0836,-0.8993 -1.19384,-1.3002 c -0.7109,-0.7743 -1.19382,-1.4023 -1.19382,-1.5525 0,-0.2827 -0.39921,-0.7377 -0.6472,-0.7377 -0.24238,0 -2.77926,-1.8974 -2.94103,-2.1997 -0.1113,-0.2079 -0.0904,-0.4528 0.10113,-1.1853 0.21976,-0.8406 0.22838,-1.0321 0.0961,-2.1369 -0.0799,-0.6675 -0.28589,-1.9509 -0.45772,-2.8519 -0.28057,-1.4715 -0.36698,-1.7234 -0.84823,-2.4724 l -0.53583,-0.8341 0.57715,0.087 c 0.85186,0.1277 1.70062,0.9025 2.47914,2.2629 0.49684,0.8682 0.72436,1.1416 1.16469,1.3997 0.60434,0.3542 0.80661,0.7055 0.61562,1.0691 -0.19868,0.3783 0.11518,2.0895 0.49065,2.6751 0.55769,0.8696 2.13084,2.4922 2.70388,2.7888 0.57102,0.2956 1.17622,0.8177 1.38857,1.198 0.11383,0.2039 0.15738,0.1973 0.70189,-0.1073 l 0.58053,-0.3247 0.99714,0.4279 c 0.54843,0.2353 1.14216,0.4641 1.31939,0.5083 0.31743,0.079 1.93367,1.6515 2.56412,2.4943 0.24145,0.3228 0.50021,0.4877 1.0242,0.6526 0.98898,0.3113 1.66191,0.8069 1.89855,1.3984 l 0.19583,0.4894 0.46675,-0.1868 c 0.42859,-0.1715 0.51285,-0.1689 1.03025,0.031 0.30992,0.1196 1.05612,0.6237 1.65822,1.1201 0.92766,0.7649 1.09473,0.9573 1.09473,1.2609 0,0.2595 0.1787,0.5626 0.6483,1.0998 1.5026,1.7189 1.77683,2.3357 1.78055,4.0046 0.002,0.9973 0.0702,1.1945 0.49602,1.4389 0.23504,0.1349 0.46733,0.4441 0.65879,0.8771 l 0.29575,0.6687 1.07244,-0.076 c 1.39849,-0.099 1.90193,0.055 2.15502,0.6608 0.22528,0.5392 4.06859,4.3547 4.62214,4.5888 0.3201,0.1354 0.49285,0.3922 1.06757,1.5874 0.3771,0.7842 0.75137,1.4677 0.83169,1.5187 0.0803,0.051 0.57817,0.094 1.10628,0.095 1.43243,0 1.80634,0.2605 2.69031,1.8543 0.43579,0.7857 0.96072,1.521 1.42835,2.0008 l 0.73936,0.7584 -0.48193,0 c -0.36165,-10e-5 -0.75451,-0.1591 -1.57415,-0.6372 z m -77.54681,-84.798 -1.30525,1.3012 -1.30524,1.3011 -0.96381,-0.9581 -0.9638,-0.9581 1.26243,-1.3453 1.26243,-1.3452 m -13.47878,-13.4709 -0.67011,0.7282 c -3.05799,3.3229 -4.13219,4.6892 -5.39071,6.8568 -0.48443,0.8344 -1.01389,1.6935 -1.17659,1.9092 -0.44801,0.5941 -1.45612,0.7974 -2.50716,0.5056 -0.56149,-0.1559 -1.25701,-0.8348 -2.9992,-2.9273 -1.70068,-2.0426 -1.65528,-2.2555 0.82869,-3.8858 2.33119,-1.5301 4.95405,-3.6447 7.38586,-5.9546 l 0.91885,-0.8729 m -6.0586,-6.0428 -1.5371,1.4164 c -4.59263,4.2318 -8.35111,6.4049 -11.60011,6.7069 l -0.82522,0.077 -0.0856,-0.4563 c -0.18024,-0.9608 0.18719,-4.8153 0.62487,-6.5551 0.33495,-1.3314 0.92723,-3.0204 1.46679,-4.1828 0.63332,-1.3644 2.05628,-3.5349 2.99235,-4.5644 l 0.67056,-0.7374 m -12.68723,-12.6855 -0.92443,1.1018 c -2.31143,2.7549 -3.63131,5.4111 -4.34809,8.7503 -0.22877,1.0657 -0.27315,1.6417 -0.27121,3.5194 0.003,2.4884 0.13777,3.4785 0.83872,6.1429 0.87604,3.3299 1.61059,5.1967 3.72049,9.4553 1.41258,2.8512 2.07306,4.6765 2.71051,7.4908 0.90245,3.9844 1.05245,6.5785 0.60521,10.467 -0.32001,2.7823 -0.3356,7.0657 -0.0312,8.5673 0.49998,2.4661 1.23695,4.0499 2.45422,5.2744 0.80346,0.8083 0.94982,0.8979 2.61089,1.5988 0.96784,0.4085 2.3741,0.9741 3.12501,1.257 l 1.3653,0.5144 0,0.7566 0,0.7565 -0.92752,0.8924 c -1.12087,1.0784 -1.80054,2.0833 -1.99414,2.9484 -0.13473,0.602 -0.12295,0.6903 0.18085,1.3538 0.25604,0.5593 0.63306,1.0066 1.77753,2.1088 1.57661,1.5183 1.69144,1.7174 1.69143,2.932 1e-5,0.477 -0.0645,0.7606 -0.21238,0.9335 -0.11835,0.1384 -0.97405,0.5278 -1.93291,0.8796 -0.94629,0.3472 -2.06583,0.8012 -2.48787,1.009 l -0.76734,0.3778 0.0197,0.8495 c 0.0194,0.8364 0.17837,1.6073 0.82571,4.0049 0.36655,1.3576 1.06742,2.9179 1.62657,3.6211 0.73615,0.9258 0.66705,1.325 -0.33663,1.9445 -1.29145,0.7971 -1.88861,1.9857 -1.86812,3.7184 0.006,0.5006 0.0984,1.2822 0.20548,1.7369 0.39337,1.67 0.38359,1.6998 -2.03062,6.1801 -2.11036,3.9164 -2.84234,5.4479 -2.97883,6.2323 -0.26153,1.5031 -1.46966,14.7146 -1.47022,16.0776 -6.7e-4,1.6103 0.58602,2.884 1.55644,3.3791 0.54134,0.2762 2.29734,0.6241 5.05728,1.0021 2.47544,0.339 5.63077,0.3678 6.95158,0.063 1.87561,-0.4322 2.4075,-0.7328 8.4611,-4.7816 6.66569,-4.4583 8.06703,-5.4427 10.45717,-7.3463 3.20136,-2.5496 5.13911,-4.5408 6.85023,-7.0391 l 0.76597,-1.1184 0.151,0.5216 c 0.21305,0.7358 0.40434,2.2069 0.40434,3.1094 0,0.655 -0.16457,1.413 -0.67736,3.1198 -0.0334,0.1113 -0.79677,0.6238 -1.6963,1.1389 l -1.63551,0.9366 -4.03306,4.6782 c -2.21818,2.5731 -4.1102,4.7858 -4.20449,4.9171 -0.29195,0.4067 3.4917,-1.6493 6.52702,-3.5468 2.59945,-1.625 2.87524,-1.8303 3.3044,-2.4602 l 0.46824,-0.6873 1.18591,-0.2639 c 0.65225,-0.1452 1.34974,-0.3036 1.54999,-0.3519 0.32807,-0.079 0.40256,-0.1951 0.7532,-1.1714 0.46257,-1.288 0.68454,-1.5091 2.34147,-2.333 l 1.15292,-0.5732 1.36553,0 1.36554,0 0.1748,-0.6068 c 0.0961,-0.3338 0.32336,-1.2075 0.50493,-1.9418 0.29768,-1.2037 0.37889,-1.3838 0.82618,-1.8317 0.41878,-0.4195 0.65664,-0.5386 1.5276,-0.7652 0.56736,-0.1476 1.08749,-0.2862 1.15585,-0.308 0.0684,-0.022 0.28384,-0.5513 0.47885,-1.1766 0.19501,-0.6253 0.40768,-1.2082 0.4726,-1.2953 0.0649,-0.087 0.64131,-0.482 1.28086,-0.8775 0.63955,-0.3954 1.68164,-1.1662 2.31575,-1.7128 l 1.15291,-0.9938 0.38063,-1.4983 0.38062,-1.4983 1.07569,-1.0096 c 1.90152,-1.7847 1.87582,-1.768 3.84263,-2.5053 1.01461,-0.3804 1.86621,-0.674 1.89245,-0.6525 0.0263,0.022 -0.31902,0.4279 -0.76726,0.903 -0.96445,1.0224 -1.80353,2.1369 -2.20605,2.9302 -0.21215,0.4182 -0.29044,0.7722 -0.29044,1.3136 0,0.7605 -0.41707,2.2437 -0.81082,2.8834 -0.11091,0.1803 -0.61263,0.7493 -1.11493,1.2646 -0.5023,0.5153 -0.88887,0.9564 -0.85905,0.9802 0.0298,0.024 3.67662,2.2697 8.10401,4.9906 l 8.0498,4.9473 4.2682,-1.7257 c 2.34752,-0.9491 4.35013,-1.7531 4.45025,-1.7868 0.10012,-0.034 -1.40714,1.5433 -3.34947,3.5045 l -3.53151,3.5657 1.36834,8.1918 c 0.75259,4.5054 1.37241,8.2054 1.37738,8.2221"
     inkscape:connector-curvature="0" />
</svg>
