<?xml version="1.0" encoding="UTF-8" standalone="no"?>
<!-- Created with Inkscape (http://www.inkscape.org/) -->

<svg
   xmlns:dc="http://purl.org/dc/elements/1.1/"
   xmlns:cc="http://creativecommons.org/ns#"
   xmlns:rdf="http://www.w3.org/1999/02/22-rdf-syntax-ns#"
   xmlns:svg="http://www.w3.org/2000/svg"
   xmlns="http://www.w3.org/2000/svg"
   xmlns:sodipodi="http://sodipodi.sourceforge.net/DTD/sodipodi-0.dtd"
   xmlns:inkscape="http://www.inkscape.org/namespaces/inkscape"
   id="svg15688"
   version="1.1"
   inkscape:version="0.91 r"
   width="1270"
   height="1216"
   viewBox="0 0 1270 1216"
   sodipodi:docname="snowflake-U-Wing-000.svg">
  <metadata
     id="metadata15694">
    <rdf:RDF>
      <cc:Work
         rdf:about="">
        <dc:format>image/svg+xml</dc:format>
        <dc:type
           rdf:resource="http://purl.org/dc/dcmitype/StillImage" />
        <dc:title />
      </cc:Work>
    </rdf:RDF>
  </metadata>
  <defs
     id="defs15692" />
  <sodipodi:namedview
     pagecolor="#ffffff"
     bordercolor="#666666"
     borderopacity="1"
     objecttolerance="10"
     gridtolerance="10"
     guidetolerance="10"
     inkscape:pageopacity="0"
     inkscape:pageshadow="2"
     inkscape:window-width="1600"
     inkscape:window-height="843"
     id="namedview15690"
     showgrid="false"
     inkscape:zoom="2.4553308"
     inkscape:cx="381.71667"
     inkscape:cy="326.56873"
     inkscape:window-x="0"
     inkscape:window-y="0"
     inkscape:window-maximized="1"
     inkscape:current-layer="svg15688"
     showguides="true"
     inkscape:guide-bbox="true"
     inkscape:object-nodes="true"
     inkscape:snap-center="true">
    <sodipodi:guide
       position="693.04039,-120.42191"
       orientation="0,1"
       id="guide4133" />
    <sodipodi:guide
       position="693.04039,-120.42191"
       orientation="1,0"
       id="guide4135" />
  </sodipodi:namedview>
  <path
     id="path4158"
     style="fill:none;stroke:#00ff00;stroke-opacity:1;stroke-width:0.70866142;stroke-miterlimit:4;stroke-dasharray:none"
     d="m 312.58592,930.13904 -11.30047,11.3076 -1.2796,7.0941 c -0.70377,3.9018 -1.31159,7.2304 -1.3507,7.397 -0.20853,0.8882 0.2693,-0.4463 2.36751,-6.6122 l 2.30909,-6.7856 11.06582,-11.0658 11.06581,-11.0658 -0.78823,-0.7883 -0.78822,-0.7882 -11.30047,11.3077 z m -11.73163,-36.4179 -1.92569,1.9285 0.51553,0.8677 c 1.83355,3.0863 5.04722,6.2999 8.13376,8.1338 l 0.86837,0.5159 1.94087,-1.9409 1.94086,-1.9409 -0.92716,-0.5778 c -1.53705,-0.958 -2.84492,-1.9842 -4.16978,-3.2717 -1.48721,-1.4452 -2.44063,-2.5992 -3.51379,-4.2531 -0.43279,-0.6669 -0.82078,-1.2525 -0.86219,-1.3012 -0.0414,-0.049 -0.94183,0.7791 -2.00093,1.8398 z m 55.7442,20.895 -0.6531,-0.4931 c -1.41557,-1.0687 -3.12515,-1.6318 -4.95455,-1.6318 -2.26652,0 -4.16631,0.7869 -5.76882,2.3894 -1.60479,1.6048 -2.36176,3.4246 -2.37656,5.7135 -0.0123,1.9 0.60531,3.7416 1.73238,5.1659 0.19232,0.2431 0.34967,0.4787 0.34968,0.5236 m -2.91192,3.0307 -4.15136,-4.1512 -4.15136,-4.1512 -4.57933,4.5776 c -2.51815,2.5181 -4.57906,4.6379 -4.57906,4.7112 0,0.073 0.10033,0.2242 0.22297,0.3352 0.21138,0.1913 0.45238,0.044 4.63685,-2.8317 l 4.41387,-3.0335 3.1242,3.1225 c 1.71869,1.717 3.1242,3.1681 3.12421,3.2239 m -14.72747,14.7555 c -0.0695,0 -1.96248,-1.8356 -4.20665,-4.079 -3.98019,-3.9785 -4.08405,-4.0719 -4.23518,-3.7896 -0.0852,0.1592 -2.08275,4.022 -4.43904,8.5841 -3.26698,6.3253 -4.25265,8.3326 -4.15147,8.4546 0.073,0.088 0.97326,0.9923 2.00061,2.0097 1.02735,1.0174 1.86791,1.906 1.86791,1.9748 m -11.76217,11.8853 -2.45679,-2.4545 -2.45679,-2.4546 -1.72701,1.727 -1.72703,1.7271 -0.93898,-0.939 -0.93898,-0.939 2.4171,-2.4193 2.4171,-2.4194 -1.05363,-5.1798 c -0.57948,-2.8489 -1.08327,-5.2095 -1.11951,-5.2457 -0.0362,-0.036 -11.59611,11.4642 -25.68859,25.5566 l -25.62266,25.62246 -0.76954,-2.1019 c -0.42324,-1.1561 -0.77128,-2.18376 -0.77343,-2.28376 -0.008,-0.3615 42.01192,-55.257 49.70686,-64.9382 2.84443,-3.5787 14.6649,-17.2844 17.01735,-19.7315 1.65798,-1.7247 0.79567,-1.5878 9.66573,-1.5351 l 7.56868,0.045 1.09498,-1.0899 1.09499,-1.0898 -4.75983,-4.7616 c -2.61837,-2.6183 -4.81399,-4.7612 -4.87985,-4.7612 -0.0658,0 -2.1768,2.0544 -4.69098,4.5654 l -4.57125,4.5654 -0.60473,-0.072 c -1.63054,-0.1931 -4.61322,-2.3735 -8.03002,-5.8701 -3.44048,-3.5208 -5.19543,-6.0463 -5.20407,-7.4893 -0.003,-0.4684 0.0829,-0.5662 3.48074,-3.9714 l 3.48365,-3.4912 m 29.83363,0 -1.54388,1.5473 -8e-5,0 -1.54388,1.5473 4.30409,4.3023 4.30411,4.3024 1.54667,-1.5389 c 0.8507,-0.8464 1.69674,-1.5949 1.88014,-1.6632 0.36799,-0.1372 0.94801,-0.062 1.44498,0.1879 0.31354,0.1576 3.17118,2.4236 6.31993,5.0116 l 1.54209,1.2675 1.12184,-0.029 c 0.61701,-0.016 1.35166,-0.06 1.63256,-0.098 0.95418,-0.13 1.37294,0.1886 5.06752,3.8551 l 3.39547,3.3696 m -18.65208,47.0171 -11.30768,11.3005 -7.09409,1.2795 c -3.90175,0.7038 -7.2304,1.3116 -7.397,1.3507 -0.88821,0.2086 0.44635,-0.2693 6.61222,-2.3675 l 6.7856,-2.309 11.06582,-11.0659 11.06581,-11.0658 0.78823,0.7882 0.78822,0.7883 -11.30767,11.3004 z m 36.41784,11.7316 -1.92844,1.9257 -0.86777,-0.5155 c -3.08632,-1.8336 -6.2999,-5.0472 -8.13377,-8.1338 l -0.51588,-0.8684 1.94087,-1.9408 1.94086,-1.9409 0.57788,0.9272 c 0.958,1.537 1.98415,2.8449 3.27163,4.1697 1.44523,1.4873 2.59924,2.4407 4.2531,3.5138 0.66697,0.4328 1.25255,0.8208 1.30128,0.8622 0.0488,0.041 -0.77919,0.9419 -1.83983,2.001 z m -20.89502,-55.7442 0.4931,0.6531 c 1.06876,1.4156 1.63184,3.1252 1.63183,4.9546 0,2.2665 -0.78687,4.1663 -2.38938,5.7688 -1.60479,1.6048 -3.42464,2.3617 -5.71356,2.3765 -1.89996,0.012 -3.74162,-0.6053 -5.1659,-1.7323 -0.24304,-0.1924 -0.47863,-0.3497 -0.52353,-0.3497 m -3.03073,2.9119 4.15122,4.1514 4.1512,4.1513 -4.57761,4.5793 c -2.51816,2.5182 -4.6379,4.5791 -4.71125,4.5791 -0.0734,0 -0.22419,-0.1003 -0.33518,-0.223 -0.19129,-0.2113 -0.0441,-0.4523 2.8317,-4.6368 l 3.03348,-4.4139 -3.12247,-3.1242 c -1.71698,-1.7187 -3.16811,-3.1242 -3.22388,-3.1242 m -14.75547,14.7275 c -10e-6,0.07 1.83552,1.9625 4.07895,4.2066 3.97847,3.9802 4.07188,4.0841 3.78958,4.2352 -0.15917,0.085 -4.02199,2.0828 -8.58407,4.439 -6.32529,3.267 -8.33264,4.2527 -8.45456,4.1515 -0.0879,-0.073 -0.9923,-0.9732 -2.0097,-2.0006 -1.01741,-1.0273 -1.90609,-1.8679 -1.97483,-1.8679 m -11.88537,11.7622 2.45456,2.4568 2.45456,2.4567 -1.72701,1.7271 -1.72702,1.727 0.93898,0.939 0.93898,0.939 2.41933,-2.4172 2.41933,-2.4171 5.17983,1.0537 c 2.84891,0.5795 5.20948,1.0832 5.24573,1.1195 0.0362,0.036 -11.46421,11.5961 -25.55657,25.68856 l -25.6225,25.6226 2.10189,0.7696 c 1.15603,0.4232 2.18374,0.7713 2.28379,0.7734 0.36149,0.01 55.25695,-42.01186 64.93818,-49.70686 3.57867,-2.8444 17.28444,-14.6649 19.73153,-17.0173 1.72469,-1.658 1.58774,-0.7957 1.53505,-9.6657 l -0.0449,-7.5687 1.08984,-1.095 1.08984,-1.095 4.76155,4.7598 c 2.61838,2.6184 4.76126,4.814 4.76126,4.8799 0,0.066 -2.05443,2.1768 -4.56541,4.691 l -4.56542,4.5712 0.0716,0.6047 c 0.19313,1.6306 2.3735,4.6133 5.87008,8.0301 3.52079,3.4405 6.04636,5.1954 7.48926,5.204 0.46841,0 0.56625,-0.083 3.97148,-3.4807 l 3.4912,-3.4836 m 0,-29.8337 -1.5473,1.5439 2e-5,10e-5 -1.54732,1.5439 -4.30238,-4.3041 -4.30238,-4.3041 1.53896,-1.5467 c 0.8464,-0.8507 1.59485,-1.6967 1.66321,-1.8801 0.13715,-0.368 0.0617,-0.9481 -0.18798,-1.445 -0.15754,-0.3136 -2.42359,-3.1712 -5.01161,-6.32 l -1.26745,-1.542 0.0286,-1.1219 c 0.0157,-0.617 0.0599,-1.3516 0.0982,-1.6325 0.12994,-0.9542 -0.18864,-1.373 -3.8551,-5.0676 l -3.3696,-3.3954 m 62.82059,47.0759 11.30768,11.3005 7.09409,1.2795 c 3.90176,0.7038 7.2304,1.3116 7.39701,1.3507 0.8882,0.2086 -0.44636,-0.2693 -6.61223,-2.3675 l -6.78559,-2.309 -11.06582,-11.0659 -11.06582,-11.0658 -0.78824,0.7882 -0.78821,0.7883 11.30767,11.3004 z m -36.41784,11.7316 1.92844,1.9257 0.86777,-0.5155 c 3.08632,-1.8336 6.2999,-5.0472 8.13376,-8.1338 l 0.51589,-0.8684 -1.94087,-1.9408 -1.94086,-1.9409 -0.57788,0.9272 c -0.958,1.537 -1.98415,2.8449 -3.27163,4.1697 -1.44523,1.4873 -2.59925,2.4407 -4.2531,3.5138 -0.66697,0.4328 -1.25255,0.8208 -1.30128,0.8622 -0.0488,0.041 0.77918,0.9419 1.83983,2.001 z m 20.89502,-55.7442 -0.4931,0.6531 c -1.06876,1.4156 -1.63184,3.1252 -1.63183,4.9546 0,2.2665 0.78687,4.1663 2.38938,5.7688 1.60479,1.6048 3.42464,2.3617 5.71356,2.3765 1.89996,0.012 3.74162,-0.6053 5.1659,-1.7323 0.24304,-0.1924 0.47863,-0.3497 0.52353,-0.3497 m 3.03071,2.9119 -4.1512,4.1514 -4.1512,4.1513 4.57761,4.5793 c 2.51815,2.5182 4.63789,4.5791 4.71126,4.5791 0.0734,0 0.22418,-0.1003 0.33515,-0.223 0.19131,-0.2113 0.0441,-0.4523 -2.83169,-4.6368 l -3.03348,-4.4139 3.12248,-3.1242 c 1.71697,-1.7187 3.16811,-3.1242 3.22388,-3.1242 m 14.75547,14.7275 c 10e-6,0.07 -1.83552,1.9625 -4.07895,4.2066 -3.97848,3.9802 -4.07188,4.0841 -3.78958,4.2352 0.15916,0.085 4.022,2.0828 8.58407,4.439 6.32528,3.267 8.33264,4.2527 8.45456,4.1515 0.0879,-0.073 0.9923,-0.9732 2.0097,-2.0006 1.01741,-1.0273 1.90609,-1.8679 1.97482,-1.8679 m 11.88538,11.7622 -2.45456,2.4568 -2.45456,2.4567 1.72701,1.7271 1.72702,1.727 -0.93898,0.939 -0.93898,0.939 -2.41934,-2.4172 -2.41932,-2.4171 -5.17984,1.0537 c -2.8489,0.5795 -5.20948,1.0832 -5.24572,1.1195 -0.0362,0.036 11.46421,11.5961 25.55657,25.68856 l 25.6225,25.6226 -2.10189,0.7696 c -1.15603,0.4232 -2.18374,0.7713 -2.28379,0.7734 -0.36149,0.01 -55.25695,-42.01186 -64.93819,-49.70686 -3.57867,-2.8444 -17.28443,-14.6648 -19.73152,-17.0173 -1.72469,-1.658 -1.58774,-0.7957 -1.53505,-9.6657 l 0.0449,-7.5687 -1.08984,-1.095 -1.08984,-1.095 -4.76155,4.7598 c -2.61838,2.6184 -4.76126,4.814 -4.76126,4.8799 0,0.066 2.05443,2.1768 4.56541,4.691 l 4.56541,4.5712 -0.0716,0.6047 c -0.19312,1.6306 -2.3735,4.6133 -5.87008,8.0301 -3.52079,3.4405 -6.04636,5.1954 -7.48926,5.204 -0.46841,0 -0.56625,-0.083 -3.97148,-3.4807 l -3.4912,-3.4836 m 0,-29.8337 1.5473,1.5439 -2e-5,10e-5 1.54731,1.5439 4.30238,-4.3041 4.30239,-4.3041 -1.53896,-1.5467 c -0.8464,-0.8507 -1.59485,-1.6967 -1.66321,-1.8801 -0.13715,-0.368 -0.0617,-0.9481 0.18798,-1.445 0.15754,-0.3136 2.42359,-3.1712 5.01161,-6.32 l 1.26745,-1.542 -0.0286,-1.1219 c -0.0157,-0.617 -0.0599,-1.3516 -0.0982,-1.6325 -0.12995,-0.9542 0.18863,-1.373 3.85509,-5.0676 l 3.36961,-3.3954 m 47.01709,18.6521 11.30047,11.3076 1.27959,7.0941 c 0.70378,3.9018 1.3116,7.2304 1.35071,7.397 0.20852,0.8882 -0.2693,-0.4463 -2.3675,-6.6122 l -2.3091,-6.7856 -11.06582,-11.0658 -11.06582,-11.0658 0.78824,-0.7883 0.78822,-0.7882 11.30047,11.3077 z m 11.73163,-36.4179 1.92569,1.9285 -0.51553,0.8677 c -1.83355,3.0863 -5.04722,6.2999 -8.13376,8.1338 l -0.86837,0.5159 -1.94087,-1.9409 -1.94085,-1.9409 0.92715,-0.5778 c 1.53705,-0.958 2.84492,-1.9842 4.16978,-3.2717 1.48722,-1.4452 2.44062,-2.5992 3.5138,-4.2531 0.43278,-0.6669 0.82078,-1.2525 0.86218,-1.3013 0.0414,-0.049 0.94184,0.7792 2.00094,1.8399 z m -55.7442,20.895 0.6531,-0.4931 c 1.41557,-1.0687 3.12515,-1.6318 4.95455,-1.6318 2.26651,0 4.16631,0.7869 5.76882,2.3894 1.60479,1.6048 2.36176,3.4246 2.37656,5.7135 0.0123,1.9 -0.60531,3.7416 -1.73238,5.1659 -0.19232,0.2431 -0.34968,0.4787 -0.34968,0.5236 m 2.91192,3.0307 4.15136,-4.1512 4.15136,-4.1512 4.57933,4.5776 c 2.51816,2.5181 4.57906,4.6379 4.57907,4.7112 0,0.073 -0.10034,0.2242 -0.22299,0.3352 -0.21138,0.1913 -0.45238,0.044 -4.63684,-2.8317 l -4.41388,-3.0335 -3.1242,3.1225 c -1.71868,1.717 -3.1242,3.1681 -3.1242,3.2239 m 14.72746,14.7555 c 0.0695,0 1.96249,-1.8356 4.20666,-4.079 3.98019,-3.9785 4.08405,-4.0719 4.23517,-3.7896 0.0852,0.1592 2.08277,4.022 4.43905,8.5841 3.26698,6.3253 4.25264,8.3326 4.15147,8.4546 -0.073,0.088 -0.97326,0.9923 -2.00061,2.0097 -1.02735,1.0174 -1.86791,1.906 -1.86791,1.9748 m 11.76217,11.8854 2.45678,-2.4546 2.4568,-2.4546 1.72701,1.727 1.72702,1.7271 0.93898,-0.939 0.93899,-0.939 -2.4171,-2.4193 -2.4171,-2.4194 1.05362,-5.1798 c 0.5795,-2.8489 1.08327,-5.2095 1.11952,-5.2457 0.0362,-0.036 11.59611,11.4642 25.68859,25.5566 l 25.62267,25.62246 0.76952,-2.1019 c 0.42326,-1.1561 0.77129,-2.18376 0.77344,-2.28376 0.008,-0.3615 -42.01192,-55.257 -49.70686,-64.9382 -2.84444,-3.5787 -14.6649,-17.2844 -17.01736,-19.7315 -1.65798,-1.7247 -0.79566,-1.5878 -9.66572,-1.5351 l -7.56869,0.045 -1.09497,-1.0899 -1.09499,-1.0898 4.75983,-4.7616 c 2.61837,-2.6183 4.814,-4.7612 4.87984,-4.7612 0.0659,0 2.17681,2.0544 4.69099,4.5654 l 4.57125,4.5654 0.60473,-0.072 c 1.63054,-0.1931 4.61322,-2.3735 8.03002,-5.8701 3.44048,-3.5208 5.19543,-6.0464 5.20407,-7.4893 0.003,-0.4684 -0.0829,-0.5662 -3.48074,-3.9714 l -3.48365,-3.4912 m -29.83363,0 1.54387,1.5473 9e-5,0 1.54389,1.5473 -4.3041,4.3023 -4.30411,4.3024 -1.54667,-1.5389 c -0.8507,-0.8464 -1.69674,-1.5949 -1.88014,-1.6632 -0.36798,-0.1372 -0.94801,-0.062 -1.44497,0.1879 -0.31355,0.1576 -3.17118,2.4236 -6.31994,5.0116 l -1.54209,1.2675 -1.12184,-0.029 c -0.61701,-0.016 -1.35166,-0.06 -1.63256,-0.098 -0.95418,-0.13 -1.37294,0.1886 -5.06753,3.8551 l -3.39546,3.3696 m 47.07591,-62.8206 11.30047,-11.3077 1.27959,-7.0941 c 0.70378,-3.9017 1.3116,-7.2304 1.35071,-7.397 0.20852,-0.8882 -0.2693,0.4464 -2.3675,6.6122 l -2.3091,6.7856 -11.06582,11.0659 -11.06582,11.0658 0.78824,0.7882 0.78822,0.7882 11.30047,-11.3077 z m 11.73163,36.4178 1.92569,-1.9284 -0.51553,-0.8678 c -1.83355,-3.0863 -5.04722,-6.2999 -8.13376,-8.1337 l -0.86837,-0.5159 -1.94087,1.9408 -1.94085,1.9409 0.92715,0.5779 c 1.53705,0.958 2.84492,1.9841 4.16978,3.2716 1.48722,1.4452 2.44062,2.5993 3.5138,4.2531 0.43278,0.667 0.82078,1.2526 0.86218,1.3013 0.0414,0.049 0.94184,-0.7792 2.00094,-1.8398 z m -55.7442,-20.895 0.6531,0.4931 c 1.41557,1.0688 3.12515,1.6319 4.95455,1.6318 2.26651,0 4.16631,-0.7868 5.76882,-2.3893 1.60479,-1.6048 2.36176,-3.4247 2.37656,-5.7136 0.0123,-1.9 -0.60531,-3.7416 -1.73238,-5.1659 -0.19232,-0.243 -0.34967,-0.4786 -0.34968,-0.5235 m 2.91192,-3.0307 4.15136,4.1512 4.15136,4.1512 4.57933,-4.5776 c 2.51816,-2.5182 4.57907,-4.6379 4.57907,-4.7113 0,-0.073 -0.10034,-0.2242 -0.22297,-0.3352 -0.2114,-0.1913 -0.45239,-0.044 -4.63686,2.8317 l -4.41388,3.0335 -3.1242,-3.1225 c -1.71868,-1.7169 -3.12419,-3.1681 -3.1242,-3.2238 m 14.72746,-14.7555 c 0.0695,0 1.96249,1.8355 4.20666,4.0789 3.9802,3.9785 4.08405,4.0719 4.23517,3.7896 0.0852,-0.1592 2.08277,-4.022 4.43905,-8.5841 3.26698,-6.3252 4.25264,-8.3326 4.15147,-8.4545 -0.073,-0.088 -0.97326,-0.9923 -2.00061,-2.0097 -1.02735,-1.0174 -1.86791,-1.9061 -1.86791,-1.9748 m 11.76218,-11.8854 2.45677,2.4545 2.4568,2.4546 1.72701,-1.727 1.72702,-1.727 0.93899,0.939 0.93898,0.9389 -2.4171,2.4194 -2.4171,2.4193 1.05362,5.1798 c 0.5795,2.8489 1.08329,5.2095 1.11952,5.2458 0.0362,0.036 11.59611,-11.4643 25.68859,-25.5566 l 25.62267,-25.6225 0.76952,2.1019 c 0.42326,1.156 0.77129,2.1837 0.77344,2.2838 0.008,0.3615 -42.01192,55.2569 -49.70686,64.9381 -2.84444,3.5787 -14.6649,17.2845 -17.01736,19.7316 -1.65798,1.7247 -0.79566,1.5877 -9.66572,1.535 l -7.56869,-0.045 -1.09497,1.0898 -1.09499,1.0899 4.75983,4.7615 c 2.61837,2.6184 4.814,4.7613 4.87984,4.7613 0.0659,0 2.17681,-2.0545 4.69099,-4.5655 l 4.57125,-4.5654 0.60473,0.072 c 1.63054,0.1931 4.61322,2.3735 8.03002,5.87 3.44048,3.5208 5.19543,6.0464 5.20407,7.4893 0.003,0.4684 -0.0829,0.5663 -3.48074,3.9715 l -3.48365,3.4912 m -29.83363,0 1.54387,-1.5473 9e-5,0 1.54389,-1.5473 -4.3041,-4.3024 -4.30411,-4.3024 -1.54667,1.539 c -0.8507,0.8464 -1.69674,1.5948 -1.88014,1.6632 -0.36798,0.1371 -0.94801,0.062 -1.44497,-0.188 -0.31355,-0.1575 -3.17118,-2.4236 -6.31994,-5.0116 l -1.54209,-1.2675 -1.12184,0.029 c -0.61701,0.016 -1.35166,0.06 -1.63256,0.098 -0.95418,0.1299 -1.37294,-0.1887 -5.06752,-3.8551 l -3.39547,-3.3696 m 18.65208,-47.0171 11.30768,-11.3005 7.09409,-1.2796 c 3.90176,-0.7038 7.2304,-1.3116 7.39701,-1.3507 0.8882,-0.2085 -0.44636,0.2693 -6.61223,2.3675 l -6.78559,2.3091 -11.06582,11.0658 -11.06582,11.0658 -0.78823,-0.7882 -0.78822,-0.7882 11.30768,-11.3005 z m -36.41784,-11.7317 1.92848,-1.9256 0.86778,0.5155 c 3.08631,1.8336 6.29989,5.0472 8.13376,8.1338 l 0.51589,0.8683 -1.94087,1.9409 -1.94087,1.9409 -0.57787,-0.9272 c -0.95801,-1.537 -1.98416,-2.8449 -3.27163,-4.1698 -1.44523,-1.4872 -2.59925,-2.4406 -4.25311,-3.5138 -0.66696,-0.4327 -1.25254,-0.8207 -1.30128,-0.8621 -0.0488,-0.041 0.77919,-0.9419 1.83984,-2.001 z m 20.89502,55.7442 -0.49309,-0.6531 c -1.06877,-1.4155 -1.63185,-3.1251 -1.63184,-4.9545 0,-2.2665 0.78687,-4.1663 2.38938,-5.7688 1.60479,-1.6048 3.42464,-2.3618 5.71356,-2.3766 1.89997,-0.012 3.74162,0.6053 5.1659,1.7324 0.24304,0.1923 0.47864,0.3497 0.52353,0.3497 m 3.03072,-2.9119 -4.15121,-4.1514 -4.1512,-4.1514 4.57761,-4.5793 c 2.51815,-2.5182 4.63789,-4.5791 4.71126,-4.5791 0.0734,0 0.22418,0.1004 0.33517,0.223 0.19129,0.2114 0.0441,0.4524 -2.83171,4.6369 l -3.03347,4.4138 3.12247,3.1242 c 1.71697,1.7187 3.16811,3.1242 3.22388,3.1242 m 14.75547,-14.7274 c 1e-5,-0.069 -1.83552,-1.9625 -4.07895,-4.2067 -3.97848,-3.9802 -4.07188,-4.084 -3.78958,-4.2352 0.15916,-0.085 4.022,-2.0827 8.58407,-4.439 6.32529,-3.267 8.33264,-4.2527 8.45456,-4.1515 0.0879,0.073 0.9923,0.9733 2.0097,2.0006 1.01741,1.0274 1.90609,1.8679 1.97484,1.868 m 11.88536,-11.7622 -2.45456,-2.4568 -2.45456,-2.4568 1.72701,-1.727 1.72702,-1.727 -0.93898,-0.939 -0.93898,-0.939 -2.41934,2.4171 -2.41932,2.4171 -5.17983,-1.0536 c -2.84891,-0.5795 -5.20948,-1.0833 -5.24573,-1.1195 -0.0362,-0.036 11.46422,-11.5961 25.55657,-25.6886 l 25.6225,-25.6227 -2.10189,-0.7695 c -1.15603,-0.4233 -2.18374,-0.7713 -2.28379,-0.7735 -0.36149,-0.01 -55.25695,42.012 -64.93819,49.7069 -3.57867,2.8444 -17.28443,14.6649 -19.73151,17.0173 -1.7247,1.658 -1.58775,0.7957 -1.53506,9.6658 l 0.0449,7.5687 -1.08984,1.0949 -1.08984,1.095 -4.76155,-4.7598 c -2.61838,-2.6184 -4.76126,-4.814 -4.76126,-4.8799 0,-0.066 2.05444,-2.1768 4.56541,-4.6909 l 4.56542,-4.5713 -0.0716,-0.6047 c -0.19312,-1.6305 -2.3735,-4.6132 -5.87008,-8.03 -3.52079,-3.4405 -6.04636,-5.1955 -7.48926,-5.2041 -0.46842,0 -0.56625,0.083 -3.97148,3.4807 l -3.49123,3.4837 m -10e-6,29.8336 1.54731,-1.5439 -2e-5,-1e-4 1.54731,-1.5439 4.30238,4.3041 4.30239,4.3041 -1.53896,1.5467 c -0.8464,0.8507 -1.59485,1.6968 -1.66321,1.8802 -0.13715,0.3679 -0.0617,0.948 0.18798,1.4449 0.15754,0.3136 2.42359,3.1712 5.0116,6.32 l 1.26746,1.5421 -0.0286,1.1218 c -0.0158,0.617 -0.0599,1.3517 -0.0982,1.6326 -0.12994,0.9541 0.18864,1.3729 3.8551,5.0675 l 3.36961,3.3954 m -62.82057,-47.0758 -11.30766,-11.3005 -7.09408,-1.2796 c -3.90175,-0.7038 -7.2304,-1.3116 -7.39701,-1.3507 -0.8882,-0.2086 0.44636,0.2693 6.61222,2.3675 l 6.7856,2.3091 11.06607,11.0655 11.06608,11.0656 0.78823,-0.7882 0.78822,-0.7883 -11.30765,-11.3004 z m 36.41785,-11.7317 -1.92844,-1.9257 -0.86777,0.5156 c -3.08632,1.8335 -6.2999,5.0472 -8.13368,8.1338 l -0.51588,0.8684 1.94086,1.9409 1.94086,1.9408 0.57788,-0.9271 c 0.958,-1.5371 1.98416,-2.845 3.27163,-4.1698 1.44523,-1.4872 2.59925,-2.4406 4.2531,-3.5138 0.66697,-0.4328 1.25256,-0.8208 1.30129,-0.8622 0.0487,-0.041 -0.77918,-0.9418 -1.83984,-2.0009 z m -20.89502,55.7442 0.4931,-0.6531 c 1.06876,-1.4155 1.63184,-3.1251 1.63183,-4.9545 0,-2.2665 -0.78687,-4.1663 -2.38939,-5.7688 -1.60478,-1.6048 -3.42463,-2.3618 -5.71355,-2.3766 -1.89997,-0.012 -3.74162,0.6053 -5.1659,1.7324 -0.24304,0.1923 -0.47863,0.3497 -0.52354,0.3497 m -3.03072,-2.9119 4.15121,-4.1514 4.15121,-4.1514 -4.57787,-4.579 c -2.51781,-2.5185 -4.63789,-4.5791 -4.71126,-4.5791 -0.0734,0 -0.22418,0.1003 -0.33517,0.223 -0.19129,0.2113 -0.0441,0.4523 2.8317,4.6368 l 3.03349,4.4139 -3.12247,3.1242 c -1.71732,1.7183 -3.16811,3.1242 -3.22389,3.1242 m -14.75547,-14.7275 c 0,-0.07 1.83553,-1.9625 4.07896,-4.2066 3.97865,-3.98 4.07185,-4.0841 3.78958,-4.2352 -0.15916,-0.085 -4.02199,-2.0828 -8.58407,-4.439 -6.32528,-3.267 -8.33264,-4.2527 -8.45456,-4.1515 -0.0879,0.073 -0.9923,0.9732 -2.00971,2.0006 -1.0174,1.0274 -1.90607,1.8679 -1.97482,1.8679 m -11.88537,-11.7622 2.45458,-2.4567 2.45458,-2.4568 -1.72702,-1.727 -1.72701,-1.727 0.93898,-0.939 0.93898,-0.939 2.41934,2.4171 2.41935,2.4171 5.17983,-1.0537 c 2.84891,-0.5794 5.20949,-1.0832 5.24573,-1.1195 0.0362,-0.036 -11.46421,-11.5961 -25.55657,-25.6886 l -25.6225,-25.6226 2.10189,-0.7696 c 1.15604,-0.4232 2.18374,-0.7713 2.28378,-0.7734 0.3615,-0.01 55.25695,42.0119 64.93819,49.7069 3.57867,2.8444 17.28444,14.6649 19.73152,17.0173 1.72469,1.658 1.58774,0.7957 1.53507,9.6658 l -0.045,7.5686 1.08985,1.095 1.08984,1.095 4.76129,-4.7601 c 2.61872,-2.618 4.76126,-4.814 4.76126,-4.8799 0,-0.066 -2.05443,-2.1767 -4.56541,-4.6909 l -4.56541,-4.5713 0.0716,-0.6047 c 0.19311,-1.6306 2.37349,-4.6132 5.87007,-8.03 3.52079,-3.4405 6.04637,-5.1955 7.48926,-5.2041 0.46841,0 0.56626,0.083 3.97148,3.4807 l 3.4912,3.4837 m 0,29.8336 -1.5473,-1.5439 2e-5,0 -1.54731,-1.5439 -4.30255,4.3039 -4.30265,4.3038 1.53892,1.5468 c 0.84642,0.8506 1.59485,1.6967 1.66322,1.8801 0.13714,0.368 0.0617,0.948 -0.18798,1.445 -0.15754,0.3135 -2.42359,3.1712 -5.01161,6.3199 l -1.26745,1.5421 0.0286,1.1218 c 0.0157,0.617 0.0599,1.3517 0.0982,1.6326 0.12994,0.9542 -0.18864,1.3729 -3.8551,5.0675 l -3.3696,3.3955 m -47.0162,-18.6517 -11.30049,-11.3077 -1.27959,-7.0941 c -0.70378,-3.9017 -1.3116,-7.2304 -1.35071,-7.397 -0.20853,-0.8882 0.26931,0.4464 2.36751,6.6123 l 2.30909,6.7856 11.06556,11.066 11.06557,11.0661 -0.78823,0.7882 -0.78823,0.7883 -11.30049,-11.3077 z m -11.73163,36.4178 -1.92565,-1.9284 0.51553,-0.8678 c 1.83355,-3.0863 5.04722,-6.2999 8.13385,-8.1337 l 0.86837,-0.5159 1.94087,1.9409 1.94086,1.9408 -0.92717,0.5779 c -1.53705,0.958 -2.84491,1.9842 -4.16977,3.2717 -1.48722,1.4452 -2.44064,2.5992 -3.5138,4.2531 -0.43279,0.6669 -0.82077,1.2525 -0.86218,1.3012 -0.0414,0.049 -0.94183,-0.7791 -2.00094,-1.8398 z m 55.7442,-20.895 -0.6531,0.4931 c -1.41557,1.0688 -3.12515,1.6319 -4.95455,1.6318 -2.26652,0 -4.16631,-0.7868 -5.76882,-2.3893 -1.60478,-1.6048 -2.36176,-3.4247 -2.37656,-5.7136 -0.0123,-1.9 0.60531,-3.7416 1.73238,-5.1659 0.19232,-0.243 0.34967,-0.4786 0.34967,-0.5235 m -2.91191,-3.0307 -4.15136,4.1512 -4.15137,4.1512 -4.57907,-4.5779 c -2.5185,-2.5178 -4.57906,-4.6379 -4.57906,-4.7113 0,-0.073 0.10034,-0.2241 0.22297,-0.3351 0.21138,-0.1913 0.45239,-0.044 4.63685,2.8317 l 4.41389,3.0335 3.1242,-3.1225 c 1.71835,-1.7173 3.1242,-3.1681 3.1242,-3.2239 m -14.72746,-14.7555 c -0.0695,0 -1.96249,1.8356 -4.20665,4.079 -3.98002,3.9786 -4.08409,4.0718 -4.23518,3.7896 -0.0852,-0.1592 -2.08277,-4.022 -4.43905,-8.5841 -3.26697,-6.3253 -4.25264,-8.3326 -4.15146,-8.4546 0.073,-0.088 0.97325,-0.9923 2.0006,-2.0097 1.02735,-1.0174 1.86791,-1.906 1.86791,-1.9748 m -11.76216,-11.8854 -2.45678,2.4546 -2.45677,2.4546 -1.72702,-1.727 -1.72701,-1.727 -0.93898,0.9389 -0.93899,0.939 2.41708,2.4194 2.41708,2.4193 -1.05362,5.1798 c -0.57949,2.849 -1.08327,5.2095 -1.11952,5.2458 -0.0362,0.036 -11.5961,-11.4642 -25.68858,-25.5566 l -25.62267,-25.6225 -0.76953,2.1019 c -0.42325,1.156 -0.77129,2.1837 -0.77343,2.2838 -0.008,0.3615 42.01191,55.2569 49.70685,64.9382 2.84444,3.5786 14.66491,17.2844 17.01735,19.7315 1.65798,1.7247 0.79568,1.5877 9.66574,1.5351 l 7.56867,-0.045 1.09498,1.0898 1.09499,1.0899 -4.76009,4.7613 c -2.61804,2.6187 -4.814,4.7612 -4.87985,4.7612 -0.0658,0 -2.17679,-2.0544 -4.69098,-4.5654 l -4.57125,-4.5654 -0.60473,0.072 c -1.63055,0.1932 -4.61323,2.3735 -8.03003,5.8701 -3.44048,3.5208 -5.19543,6.0464 -5.20408,7.4893 -0.003,0.4684 0.0829,0.5662 3.48074,3.9715 l 3.48362,3.4912 m 29.83364,0 -1.54388,-1.5473 -9e-5,0 -1.54388,-1.5473 4.30393,-4.3026 4.30384,-4.3026 1.54671,1.5389 c 0.85069,0.8464 1.69674,1.5949 1.88014,1.6632 0.36799,0.1372 0.94801,0.062 1.44498,-0.1879 0.31355,-0.1576 3.17118,-2.4236 6.31994,-5.0117 l 1.54208,-1.2674 1.12184,0.029 c 0.61701,0.016 1.35166,0.06 1.63257,0.098 0.95416,0.13 1.37293,-0.1886 5.06752,-3.8551 l 3.39546,-3.3696"
     inkscape:connector-curvature="0" />
</svg>
