<?xml version="1.0" encoding="UTF-8" standalone="no"?>
<!-- Created with Inkscape (http://www.inkscape.org/) -->

<svg
   xmlns:dc="http://purl.org/dc/elements/1.1/"
   xmlns:cc="http://creativecommons.org/ns#"
   xmlns:rdf="http://www.w3.org/1999/02/22-rdf-syntax-ns#"
   xmlns:svg="http://www.w3.org/2000/svg"
   xmlns="http://www.w3.org/2000/svg"
   xmlns:sodipodi="http://sodipodi.sourceforge.net/DTD/sodipodi-0.dtd"
   xmlns:inkscape="http://www.inkscape.org/namespaces/inkscape"
   id="svg9638"
   version="1.1"
   inkscape:version="0.91 r"
   width="583"
   height="1287"
   viewBox="0 0 583 1287"
   sodipodi:docname="snowflake-Greedo-000.svg">
  <metadata
     id="metadata9644">
    <rdf:RDF>
      <cc:Work
         rdf:about="">
        <dc:format>image/svg+xml</dc:format>
        <dc:type
           rdf:resource="http://purl.org/dc/dcmitype/StillImage" />
        <dc:title />
      </cc:Work>
    </rdf:RDF>
  </metadata>
  <defs
     id="defs9642" />
  <sodipodi:namedview
     pagecolor="#ffffff"
     bordercolor="#666666"
     borderopacity="1"
     objecttolerance="10"
     gridtolerance="10"
     guidetolerance="10"
     inkscape:pageopacity="0"
     inkscape:pageshadow="2"
     inkscape:window-width="1600"
     inkscape:window-height="843"
     id="namedview9640"
     showgrid="false"
     inkscape:zoom="2.3264279"
     inkscape:cx="218.59543"
     inkscape:cy="693.98874"
     inkscape:window-x="0"
     inkscape:window-y="0"
     inkscape:window-maximized="1"
     inkscape:current-layer="svg9638"
     showguides="true"
     inkscape:guide-bbox="true"
     inkscape:snap-center="true">
    <sodipodi:guide
       position="522.55052,58.494461"
       orientation="0,1"
       id="guide4133" />
    <sodipodi:guide
       position="522.55052,58.494461"
       orientation="1,0"
       id="guide4135" />
  </sodipodi:namedview>
  <path
     id="path4168"
     style="fill:none;stroke:#00ff00;stroke-opacity:1;stroke-width:0.70866142;stroke-miterlimit:4;stroke-dasharray:none"
     d="m 310.3245,670.98441 c -0.38575,0.9485 -0.43507,2.3848 -0.1209,3.5209 0.14833,0.5364 0.31508,1.0014 0.37058,1.0335 0.0555,0.032 0.21254,-0.1351 0.34897,-0.3715 0.13644,-0.2363 0.49935,-0.6845 0.80647,-0.9959 1.70473,-1.7288 4.41116,-2.4449 8.01289,-2.1202 0.75294,0.068 1.38716,0.094 1.40939,0.058 0.0994,-0.162 -2.66493,-2.2786 -3.92932,-3.0086 -1.78373,-1.0298 -3.5255,-1.4198 -4.34812,-0.9734 -1.13075,0.6136 -2.0615,1.6566 -2.54996,2.8576 z m -39.78215,-26.4942 c -0.48897,1.0896 -0.7178,2.002 -0.80907,3.2261 -0.0878,1.1779 -0.0382,1.6054 0.35912,3.0922 1.08266,4.0515 3.73712,7.1764 7.97725,9.3911 2.41096,1.2593 4.43153,1.8272 6.86118,1.9281 4.9432,0.2055 8.89989,-2.1376 10.16388,-6.0188 1.3278,-4.0772 -0.65686,-9.2058 -4.90327,-12.6706 -1.22146,-0.9967 -3.61714,-2.3771 -5.02386,-2.895 -5.69633,-2.0967 -11.43008,-0.8774 -14.05781,2.9895 -0.22318,0.3285 -0.47852,0.7593 -0.56741,0.9574 z m -12.38982,-14.8659 c 0.089,0.1655 2.01497,0.8472 3.0768,1.0892 0.55885,0.1273 1.11467,0.1247 1.8219,-0.01 1.1379,-0.2143 2.38963,-0.1443 3.44117,0.1927 0.38588,0.1237 1.45521,0.6046 2.3763,1.0686 l 1.67468,0.8439 1.82858,-0.036 c 1.00573,-0.02 1.88058,-0.064 1.94411,-0.099 0.15959,-0.086 -0.33445,-1.0389 -0.90569,-1.7471 -1.75683,-2.178 -6.81636,-3.7797 -10.47404,-3.3158 -2.4648,0.3127 -5.10149,1.4216 -4.78381,2.012 z m -17.62145,-24.0023 -0.87702,1.6477 c -0.81344,1.5283 -0.89813,1.7562 -1.16815,3.1426 -0.42034,2.158 -0.43532,2.8251 -0.0741,3.2989 0.40081,0.5257 0.91137,0.5694 1.57002,0.1346 0.44397,-0.2932 0.64897,-0.5924 2.24488,-3.2767 l 1.75634,-2.9541 m 57.86128,33.4062 -0.19621,0.6566 c -0.27241,0.9116 -0.13516,1.9999 0.3647,2.8918 l 0.41705,0.7441 -0.35513,0.3498 c -0.48696,0.4796 -0.96452,1.5607 -0.99721,2.2575 -0.0318,0.6776 0.30419,1.9185 0.67024,2.4755 l 0.2571,0.3912 -0.50079,0.3657 c -1.63543,1.1942 -2.13889,3.3645 -1.18102,5.0912 l 0.37216,0.6708 -0.54982,0.2454 c -1.47857,0.66 -2.75091,3.3563 -2.10697,4.4651 l 0.2035,0.3503 -0.48681,0.034 c -1.15424,0.08 -2.03434,0.9156 -2.42114,2.2981 -0.12212,0.4365 -0.21263,0.9598 -0.20115,1.1629 0.0202,0.358 0.009,0.3651 -0.37689,0.2347 -0.54524,-0.1845 -1.65393,0.1382 -2.18018,0.6345 -0.37614,0.3547 -0.44774,0.494 -0.55621,1.0824 l -0.12453,0.6754 -0.65147,0.2104 c -0.85718,0.277 -1.34852,0.6028 -1.62115,1.0749 -0.43691,0.7568 -0.0494,2.1933 0.70986,2.6316 0.87655,0.5061 2.14385,0.2805 2.56992,-0.4575 0.23005,-0.3984 0.27312,-0.4123 0.91338,-0.2943 0.94097,0.1735 2.18739,-0.2425 2.83478,-0.9462 0.3607,-0.3921 0.53383,-0.6878 0.69522,-1.1876 0.28802,-0.892 0.26718,-0.8716 0.73195,-0.7144 1.21505,0.411 2.58413,-0.2597 3.39277,-1.6622 0.4662,-0.8086 0.72062,-1.9172 0.52392,-2.2828 -0.0534,-0.099 0.15119,-0.1803 0.56212,-0.2229 0.87695,-0.091 1.61656,-0.4855 2.20698,-1.1774 0.83927,-0.9836 1.24626,-2.5343 0.99528,-3.7923 -0.11142,-0.5584 -0.098,-0.6154 0.1551,-0.6586 0.46443,-0.079 0.98174,-0.5633 1.42845,-1.3371 0.83279,-1.4424 0.78378,-3.1167 -0.12233,-4.1797 l -0.44144,-0.5178 0.35187,-0.2328 c 1.17978,-0.7805 1.68586,-2.7556 1.03798,-4.051 -0.14132,-0.2826 -0.2697,-0.5413 -0.28529,-0.5749 -0.0156,-0.034 0.14767,-0.1141 0.3628,-0.179 0.43991,-0.1327 1.05604,-0.6252 1.59007,-1.271 l 0.35848,-0.4335 m 37.96055,21.9165 -0.91639,1.5873 c -0.50402,0.873 -0.94246,1.5722 -0.97431,1.5538 -0.11662,-0.067 -2.47383,-0.9686 -2.78314,-1.0641 -0.29929,-0.093 -0.29157,-0.011 0.12547,1.3178 l 0.44441,1.4164 -1.98041,0.7839 c -1.08922,0.4311 -2.04365,0.7454 -2.12094,0.6983 -0.0773,-0.047 -0.5889,-0.546 -1.13691,-1.1089 -0.548,-0.5629 -1.06065,-1.061 -1.13922,-1.1068 -0.0786,-0.046 -0.73559,0.1783 -1.46004,0.4982 l -1.31718,0.5816 -1.22893,-1.5225 c -0.6759,-0.8374 -1.2771,-1.5504 -1.33598,-1.5844 -0.0657,-0.038 -0.16378,0.1245 -0.25381,0.4204 -0.35658,1.1717 -1.41491,2.4814 -2.50723,3.1028 -0.77256,0.4395 -1.78683,0.6963 -2.73227,0.6919 l -0.78097,0 0.62259,0.462 c 2.43969,1.8105 4.70174,4.4209 5.50633,6.3544 0.66618,1.6008 0.79054,4.6824 0.26852,6.6542 -0.32317,1.2206 -1.44483,3.3074 -2.29433,4.2685 -2.4648,2.7884 -6.26864,3.4888 -10.84723,1.9975 -1.04019,-0.3388 -3.57876,-1.8069 -4.24979,-2.4577 -0.29312,-0.2843 -1.00135,-1.1559 -1.57383,-1.9368 -2.12665,-2.9011 -3.62297,-5.695 -4.22318,-7.8854 -0.19703,-0.7191 -0.37229,-1.3155 -0.3895,-1.3254 -0.0172,-0.01 -0.16319,0.1357 -0.32444,0.3236 -0.38458,0.4484 -1.75351,1.1416 -2.57599,1.3046 -1.32758,0.263 -2.63749,-0.1193 -3.64817,-1.0647 l -0.60558,-0.5664 -0.40044,0.4127 c -0.60174,0.6202 -1.58119,0.9687 -2.5798,0.9179 -0.77336,-0.039 -0.97274,-0.1066 -1.8928,-0.6378 -0.85214,-0.492 -1.09516,-0.6935 -1.41806,-1.1761 -0.21432,-0.3203 -0.41237,-0.5707 -0.44013,-0.5565 -1.31522,0.6768 -1.99953,0.7995 -2.97386,0.5334 -0.54498,-0.1488 -1.39359,-0.6919 -1.7298,-1.107 -0.12694,-0.1567 -0.18382,-0.085 -0.50386,0.638 -0.72833,1.6445 -0.80644,3.103 -0.2606,4.8657 0.56247,1.8164 1.76531,3.139 3.76173,4.1363 1.41551,0.7071 2.51137,1.013 3.93528,1.0983 1.2811,0.077 1.65616,0.2365 1.77581,0.7559 0.13758,0.5972 -0.26652,2.1567 -0.79374,3.0633 -1.00553,1.729 -2.7146,2.3819 -5.08088,1.9409 -1.45234,-0.2706 -2.38819,-0.8779 -3.8285,-2.4842 -0.97442,-1.0867 -1.33252,-1.4033 -2.08139,-1.8405 -0.8603,-0.5022 -1.00537,-0.5404 -2.96921,-0.7815 -4.63121,-0.5686 -5.70361,-1.328 -7.93777,-5.6212 -1.35446,-2.6027 -2.09921,-3.4606 -3.40706,-3.9244 -1.0197,-0.3616 -1.89906,-0.3923 -2.98129,-0.104 l -0.93829,0.2499 m -9.97237,-17.2876 0.68294,0.1919 c 1.26244,0.3546 2.38257,0.1457 3.54899,-0.662 0.55791,-0.3864 0.80083,-0.6427 1.00916,-1.0647 0.3451,-0.6992 0.22551,-0.9994 -0.434,-1.0896 -1.24548,-0.1704 -2.24234,-0.4955 -3.27897,-1.0694 -1.41043,-0.7808 -1.61406,-1.0594 -1.81524,-2.4834 -0.19611,-1.3882 -0.13532,-2.4209 0.20098,-3.4141 0.14086,-0.4159 0.25512,-0.7784 0.25393,-0.8056 -0.001,-0.027 -0.31773,-0.1248 -0.70344,-0.2171 -2.08542,-0.4992 -4.12933,-2.5257 -4.36074,-4.3237 -0.088,-0.6839 0.0115,-1.9372 0.19581,-2.4671 0.13209,-0.3797 0.12091,-0.3963 -0.51302,-0.7623 -0.80942,-0.4673 -1.49052,-1.386 -1.82707,-2.4645 -0.2467,-0.7906 -0.25395,-1.8183 -0.0157,-2.2309 0.12636,-0.2189 0.0571,-0.2823 -1.11231,-1.019 -1.42799,-0.8996 -2.01456,-1.5811 -2.4075,-2.7974 -0.25167,-0.779 -0.20584,-2.1983 0.0983,-3.0432 0.1115,-0.3098 0.14875,-0.5792 0.0828,-0.5986 -0.0659,-0.019 -0.36765,-0.078 -0.67043,-0.1292 -0.72391,-0.1233 -1.47275,-0.5568 -2.10378,-1.2178 -0.40045,-0.4195 -0.56867,-0.7581 -0.77412,-1.5581 l -0.26247,-1.022 -2.48668,0.5039 -2.48666,0.5039 m -5.76442,-28.0012 c 0.0167,0.073 -0.0841,0.71 -0.2241,1.4164 l -0.25449,1.2844 -1.03077,1.4598 c -1.08307,1.5339 -1.43918,2.3087 -1.48162,3.2237 -0.055,1.1868 1.29019,4.3687 2.7924,6.6048 1.15572,1.7204 3.16658,3.3635 3.471,2.8362 0.12148,-0.2104 -0.2112,-1.0433 -1.42172,-3.5595 -1.17886,-2.4505 -1.6048,-3.9075 -1.51937,-5.1973 0.0834,-1.26 0.38798,-1.9088 1.4992,-3.1937 0.50357,-0.5822 1.17962,-1.4333 1.50236,-1.8913 l 0.5868,-0.8328 m 94.01101,29.3047 c 0.62853,-0.8083 1.8477,-1.5691 2.98869,-1.8651 0.53867,-0.1397 1.02481,-0.2278 1.0803,-0.1958 0.0555,0.032 -0.0107,0.2516 -0.14717,0.488 -0.13645,0.2363 -0.34313,0.7746 -0.45929,1.1963 -0.64476,2.3408 0.0883,5.0426 2.1703,7.9995 0.43525,0.6181 0.7748,1.1544 0.75456,1.1918 -0.0905,0.1671 -3.30575,-1.1686 -4.57015,-1.8986 -1.78373,-1.0298 -2.9923,-2.3433 -3.01704,-3.2789 -0.034,-1.286 0.40391,-2.6136 1.1998,-3.6372 z m -42.8358,-21.2052 c 0.69917,-0.9682 1.37494,-1.6226 2.38937,-2.3137 0.97621,-0.665 1.37126,-0.8358 2.85748,-1.2351 4.05003,-1.0881 8.08353,-0.3518 12.12161,2.2129 2.29607,1.4583 3.7981,2.9243 5.10036,4.9779 2.64951,4.1783 2.59869,8.7764 -0.13053,11.8116 -2.86704,3.1886 -8.30089,4.0341 -13.4247,2.089 -1.47387,-0.5595 -3.86722,-1.944 -5.01901,-2.9033 -4.66401,-3.8848 -6.47493,-9.4601 -4.43994,-13.6692 0.17283,-0.3575 0.41824,-0.794 0.54536,-0.97 z m -19.06911,-3.2969 c 0.18783,-0.01 1.74121,1.3214 2.48163,2.12 0.38968,0.4203 0.66534,0.903 0.90355,1.5821 0.38329,1.0926 1.06984,2.1416 1.88743,2.8838 0.30003,0.2723 1.25116,0.958 2.11363,1.5236 l 1.56811,1.0284 0.88279,1.6018 c 0.48554,0.881 0.88457,1.6608 0.88673,1.7329 0.005,0.1811 -1.0669,0.2298 -1.96584,0.089 -2.76464,-0.4325 -6.68152,-4.0133 -8.10857,-7.4129 -0.96165,-2.2909 -1.31961,-5.1288 -0.64947,-5.1489 z m -29.59736,-3.2595 0.9885,-1.5834 c 0.91682,-1.4686 1.07178,-1.6559 2.13742,-2.5829 1.65878,-1.4431 2.229,-1.7896 2.8199,-1.7136 0.65566,0.084 0.94885,0.5045 0.90155,1.2924 -0.0319,0.531 -0.18851,0.8582 -1.71525,3.5824 l -1.68016,2.9981 m 57.86128,33.4062 0.47052,-0.4982 c 0.65327,-0.6917 1.66439,-1.117 2.68672,-1.13 l 0.85296,-0.011 0.12534,-0.4824 c 0.17186,-0.6616 0.86935,-1.6157 1.45646,-1.9924 0.57091,-0.3663 1.81358,-0.6958 2.47895,-0.6573 l 0.46735,0.027 0.0663,-0.6166 c 0.21652,-2.0134 1.84431,-3.5346 3.81859,-3.5684 l 0.76707,-0.013 -0.0624,-0.5989 c -0.16775,-1.6104 1.5312,-4.0605 2.81339,-4.0572 l 0.40514,0 -0.2141,-0.4385 c -0.50764,-1.0397 -0.22421,-2.2196 0.77969,-3.2458 0.31691,-0.324 0.72483,-0.664 0.90646,-0.7556 0.32013,-0.1615 0.32057,-0.1751 0.0148,-0.4438 -0.43235,-0.38 -0.70727,-1.5015 -0.54061,-2.2053 0.11914,-0.5031 0.20399,-0.6348 0.65934,-1.023 l 0.52259,-0.4455 -0.14345,-0.6694 c -0.18877,-0.8808 -0.15231,-1.4692 0.12031,-1.9414 0.43691,-0.7568 1.87467,-1.1394 2.63395,-0.701 0.87655,0.506 1.31481,1.7164 0.88874,2.4543 -0.23006,0.3985 -0.22054,0.4427 0.20181,0.9382 0.62074,0.7282 0.88365,2.0156 0.59793,2.9281 -0.15918,0.5084 -0.32875,0.8062 -0.68086,1.1959 -0.62846,0.6954 -0.62126,0.6672 -0.25273,0.9911 0.9635,0.8467 1.06716,2.3678 0.25685,3.7693 -0.4671,0.808 -1.30001,1.5827 -1.71497,1.5951 -0.11255,0 -0.0805,0.2211 0.088,0.5983 0.35974,0.8049 0.38781,1.6427 0.0838,2.5 -0.43216,1.2186 -1.57162,2.3464 -2.78651,2.758 -0.53933,0.1828 -0.58202,0.2229 -0.49283,0.4637 0.16368,0.4417 0.003,1.1319 -0.44373,1.9056 -0.83278,1.4424 -2.30732,2.2372 -3.68089,1.9839 l -0.66918,-0.1234 -0.0257,0.4212 c -0.086,1.4119 -1.54346,2.8377 -2.9893,2.9244 -0.31538,0.019 -0.6036,0.037 -0.64046,0.04 -0.0369,0 -0.025,0.185 0.0263,0.4037 0.105,0.4474 -0.0134,1.2272 -0.30567,2.0126 l -0.19618,0.5272 m 37.96056,21.9165 0.91639,-1.5872 c 0.50402,-0.873 0.89034,-1.6023 0.85848,-1.6207 -0.11661,-0.067 -2.07575,-1.6581 -2.31314,-1.8782 -0.2297,-0.213 -0.15552,-0.2469 1.20406,-0.5503 l 1.44883,-0.3233 -0.31136,-2.107 c -0.17124,-1.1589 -0.3763,-2.1426 -0.45568,-2.186 -0.0794,-0.043 -0.76736,-0.237 -1.52883,-0.4301 -0.76147,-0.1932 -1.44915,-0.3881 -1.52817,-0.4332 -0.079,-0.045 -0.21336,-0.7262 -0.29855,-1.5135 l -0.15487,-1.4316 -1.93303,-0.303 c -1.06318,-0.1666 -1.98121,-0.3308 -2.0401,-0.3648 -0.0657,-0.038 0.026,-0.2041 0.23713,-0.4299 0.83646,-0.8947 1.44155,-2.4661 1.4335,-3.7228 -0.006,-0.8888 -0.29038,-1.8956 -0.76693,-2.7121 l -0.39366,-0.6746 0.71142,0.3082 c 2.78779,1.2076 6.17951,1.8614 8.25621,1.5915 1.7194,-0.2235 4.45037,-1.6567 5.89694,-3.0946 0.89556,-0.8902 2.14196,-2.905 2.54948,-4.1212 1.18243,-3.5288 -0.11287,-7.1733 -3.69371,-10.3927 -0.81352,-0.7315 -3.35418,-2.1959 -4.25331,-2.4516 -0.39278,-0.1117 -1.50167,-0.2893 -2.46422,-0.3946 -3.57575,-0.3912 -6.74349,-0.2901 -8.9406,0.2853 -0.72122,0.1889 -1.32539,0.3354 -1.34258,0.3254 -0.0172,-0.01 0.0359,-0.2092 0.1181,-0.4428 0.19595,-0.5572 0.11185,-2.0894 -0.15825,-2.8831 -0.43599,-1.2813 -1.42199,-2.2245 -2.74608,-2.6271 l -0.79338,-0.2412 0.15723,-0.5532 c 0.23626,-0.8312 0.0483,-1.8537 -0.495,-2.6931 -0.42077,-0.6501 -0.57862,-0.7891 -1.4987,-1.3203 -0.85213,-0.492 -1.14822,-0.6017 -1.7276,-0.64 -0.38457,-0.026 -0.70045,-0.072 -0.70196,-0.103 -0.0716,-1.4774 -0.30742,-2.1313 -1.02501,-2.8421 -0.40139,-0.3976 -1.296,-0.861 -1.82358,-0.9446 -0.19918,-0.032 -0.16525,-0.1168 0.30057,-0.7553 1.06004,-1.453 2.28403,-2.2499 4.08352,-2.6586 1.85429,-0.421 3.60111,-0.041 5.463,1.1896 1.32015,0.8724 2.13294,1.6685 2.91884,2.8589 0.70705,1.0711 1.03283,1.3161 1.5425,1.16 0.58595,-0.1794 1.73452,-1.3092 2.256,-2.219 0.99463,-1.7354 0.70549,-3.5419 -0.85954,-5.3707 -0.96058,-1.1224 -1.95438,-1.6293 -4.06562,-2.0735 -1.42832,-0.3005 -1.88159,-0.4523 -2.63462,-0.8822 -0.86508,-0.494 -0.97067,-0.6005 -2.16141,-2.1807 -2.80802,-3.7264 -4.0019,-4.2754 -8.83699,-4.0637 -2.93127,0.1284 -4.04653,-0.088 -5.10214,-0.9884 -0.82303,-0.7023 -1.28929,-1.4485 -1.58078,-2.5298 l -0.25272,-0.9376 m -19.95766,0.01 0.50762,0.4955 c 0.93839,0.9159 1.31752,1.9905 1.20121,3.4045 -0.0556,0.6763 -0.15613,1.0149 -0.41748,1.4063 -0.43292,0.6484 -0.75272,0.695 -1.16062,0.1689 -0.77032,-0.9934 -1.5503,-1.6941 -2.56558,-2.3049 -1.3814,-0.8311 -1.72448,-0.8682 -3.05831,-0.3304 -1.30026,0.5243 -2.16427,1.0933 -2.8562,1.8811 -0.28979,0.33 -0.5466,0.6102 -0.57069,0.6227 -0.0241,0.013 -0.267,-0.2127 -0.5398,-0.5006 -1.47497,-1.5565 -4.25196,-2.3133 -5.9248,-1.6147 -0.63625,0.2657 -1.6719,0.9785 -2.03862,1.4031 -0.26277,0.3043 -0.28275,0.3029 -0.91669,-0.063 -0.80941,-0.4673 -1.94562,-0.5978 -3.04786,-0.35 -0.80798,0.1816 -1.70168,0.6892 -1.9399,1.1018 -0.12635,0.2188 -0.21596,0.1906 -1.43861,-0.4538 -1.49306,-0.7869 -2.3766,-0.9541 -3.62637,-0.6863 -0.80048,0.1716 -2.00668,0.9209 -2.5864,1.6068 -0.21252,0.2514 -0.42716,0.4184 -0.47697,0.371 -0.0498,-0.047 -0.251,-0.2796 -0.44707,-0.5161 -0.46878,-0.5652 -1.21862,-0.997 -2.1066,-1.2129 -0.56351,-0.1371 -0.94082,-0.1135 -1.73634,0.1086 l -1.01639,0.2837 -0.80692,-2.4055 -0.80693,-2.4055 m -27.13196,9.0085 c 0.0712,-0.022 0.57277,-0.4279 1.11459,-0.9023 l 0.98511,-0.8626 0.74884,-1.6226 c 0.78683,-1.7049 1.2798,-2.4007 2.05092,-2.8949 1.0003,-0.6411 4.42851,-1.067 7.11616,-0.8841 2.06775,0.1407 4.49613,1.0606 4.19172,1.5879 -0.12147,0.2103 -1.00913,0.3387 -3.7935,0.5484 -2.71158,0.2044 -4.18633,0.564 -5.26069,1.2829 -1.04947,0.7023 -1.45902,1.2904 -2.01614,2.8952 -0.25246,0.7272 -0.65153,1.7382 -0.88682,2.2467 l -0.42777,0.9246 m -132.74169,29.2334 c -0.62853,-0.8083 -1.84771,-1.5691 -2.9887,-1.8651 -0.53867,-0.1397 -1.0248,-0.2278 -1.0803,-0.1958 -0.0555,0.032 0.0107,0.2516 0.14718,0.488 0.13645,0.2363 0.34312,0.7746 0.45928,1.1963 0.64478,2.3408 -0.0883,5.0427 -2.170297,7.9995 -0.43525,0.6181 -0.7748,1.1544 -0.75456,1.1918 0.0905,0.1671 3.305747,-1.1686 4.570157,-1.8986 1.78372,-1.0298 2.99229,-2.3433 3.01703,-3.2789 0.034,-1.286 -0.4039,-2.6136 -1.19979,-3.6372 z m 42.83579,-21.2052 c -0.69917,-0.9682 -1.37493,-1.6226 -2.38937,-2.3137 -0.97621,-0.665 -1.37125,-0.8358 -2.85748,-1.2351 -4.05002,-1.0881 -8.08352,-0.3518 -12.12161,2.2129 -2.29607,1.4583 -3.79809,2.9243 -5.10036,4.9779 -2.64951,4.1783 -2.59869,8.7764 0.13055,11.8116 2.86702,3.1886 8.30087,4.0341 13.42469,2.089 1.47386,-0.5595 3.86721,-1.944 5.01901,-2.9033 4.66401,-3.8848 6.47492,-9.4601 4.43993,-13.6692 -0.17283,-0.3575 -0.41824,-0.794 -0.54536,-0.97 z m 19.06911,-3.2969 c -0.18783,-0.01 -1.74121,1.3214 -2.48162,2.12 -0.38969,0.4203 -0.66535,0.903 -0.90357,1.5821 -0.38327,1.0926 -1.06983,2.1416 -1.88742,2.8838 -0.30003,0.2723 -1.25117,0.9579 -2.11363,1.5236 l -1.56811,1.0284 -0.88279,1.6018 c -0.48554,0.881 -0.88457,1.6608 -0.88673,1.7329 -0.005,0.1811 1.06689,0.2298 1.96584,0.089 2.76463,-0.4325 6.68152,-4.0133 8.10857,-7.4129 0.96165,-2.2909 1.31961,-5.1288 0.64946,-5.1489 z m 29.59738,-3.2595 -0.98852,-1.5834 c -0.91682,-1.4686 -1.07178,-1.6559 -2.13742,-2.5829 -1.65879,-1.4431 -2.22901,-1.7896 -2.8199,-1.7136 -0.65567,0.084 -0.94884,0.5045 -0.90155,1.2924 0.0319,0.531 0.18851,0.8582 1.71525,3.5824 l 1.68016,2.9981 m -57.86128,33.4062 -0.47052,-0.4982 c -0.65327,-0.6917 -1.66438,-1.117 -2.6867,-1.13 l -0.85298,-0.011 -0.12534,-0.4824 c -0.17186,-0.6616 -0.86934,-1.6157 -1.45645,-1.9924 -0.57092,-0.3663 -1.81359,-0.6958 -2.47896,-0.6573 l -0.46735,0.027 -0.0663,-0.6166 c -0.21652,-2.0134 -1.84431,-3.5346 -3.8186,-3.5684 l -0.76706,-0.013 0.0624,-0.5989 c 0.16775,-1.6104 -1.53119,-4.0605 -2.81337,-4.0572 l -0.40516,0 0.2141,-0.4385 c 0.50764,-1.0397 0.22422,-2.2196 -0.77968,-3.2458 -0.31692,-0.324 -0.72483,-0.664 -0.90646,-0.7556 -0.32015,-0.1615 -0.3206,-0.1751 -0.0149,-0.4438 0.43236,-0.38 0.70728,-1.5015 0.54061,-2.2053 -0.11913,-0.5032 -0.20399,-0.6348 -0.65933,-1.023 l -0.5226,-0.4455 0.14347,-0.6694 c 0.18875,-0.8808 0.15229,-1.4692 -0.12032,-1.9414 -0.43691,-0.7568 -1.87467,-1.1394 -2.63396,-0.701 -0.87655,0.506 -1.3148,1.7163 -0.88873,2.4543 0.23005,0.3985 0.22053,0.4427 -0.20182,0.9382 -0.62074,0.7281 -0.88364,2.0156 -0.59793,2.9281 0.15919,0.5084 0.32876,0.8062 0.68086,1.1959 0.62847,0.6954 0.62127,0.6672 0.25273,0.9911 -0.9635,0.8467 -1.06715,2.3677 -0.25685,3.7693 0.4671,0.808 1.30001,1.5827 1.71497,1.5951 0.11256,0 0.0805,0.2211 -0.088,0.5983 -0.35974,0.8049 -0.38781,1.6427 -0.0838,2.5 0.43217,1.2186 1.57162,2.3464 2.78651,2.758 0.53932,0.1828 0.58202,0.2229 0.49282,0.4637 -0.16368,0.4417 -0.003,1.1319 0.44374,1.9056 0.83278,1.4424 2.30731,2.2371 3.68088,1.9839 l 0.66919,-0.1234 0.0257,0.4211 c 0.086,1.412 1.54346,2.8378 2.9893,2.9245 0.31538,0.019 0.6036,0.037 0.64047,0.04 0.0369,0 0.025,0.185 -0.0263,0.4037 -0.10502,0.4474 0.0134,1.2272 0.30567,2.0126 l 0.19617,0.5272 m -37.960537,21.9165 -0.9164,-1.5873 c -0.50401,-0.8729 -0.89034,-1.6022 -0.85849,-1.6206 0.11662,-0.067 2.07575,-1.6581 2.31314,-1.8782 0.2297,-0.213 0.15553,-0.2469 -1.20405,-0.5503 l -1.44884,-0.3233 0.31136,-2.107 c 0.17124,-1.1589 0.37631,-2.1426 0.45569,-2.186 0.0794,-0.043 0.76735,-0.237 1.52883,-0.4301 0.76147,-0.1932 1.44914,-0.3881 1.52816,-0.4332 0.079,-0.045 0.21338,-0.7262 0.29855,-1.5135 l 0.15487,-1.4316 1.93304,-0.303 c 1.06317,-0.1666 1.9812,-0.3308 2.04009,-0.3648 0.0657,-0.038 -0.026,-0.2041 -0.23712,-0.43 -0.83646,-0.8946 -1.44156,-2.4661 -1.43351,-3.7227 0.006,-0.8888 0.29038,-1.8956 0.76695,-2.7122 l 0.39364,-0.6745 -0.71141,0.3082 c -2.7878,1.2076 -6.17951,1.8613 -8.2562,1.5914 -1.71941,-0.2234 -4.45039,-1.6566 -5.89696,-3.0945 -0.89555,-0.8902 -2.14196,-2.905 -2.54948,-4.1212 -1.18241,-3.5288 0.11288,-7.1733 3.69372,-10.3927 0.81352,-0.7315 3.35419,-2.1959 4.25331,-2.4516 0.39278,-0.1118 1.50168,-0.2893 2.46422,-0.3946 3.57574,-0.3912 6.7435,-0.2901 8.94061,0.2853 0.72122,0.1889 1.32537,0.3353 1.34257,0.3254 0.0172,-0.01 -0.0359,-0.2092 -0.11809,-0.4428 -0.19597,-0.5572 -0.11187,-2.0894 0.15824,-2.8831 0.436,-1.2813 1.422,-2.2246 2.746077,-2.6271 l 0.79337,-0.2412 -0.15721,-0.5532 c -0.23626,-0.8312 -0.0483,-1.8537 0.49498,-2.6931 0.42077,-0.6501 0.57864,-0.7892 1.4987,-1.3203 0.85215,-0.492 1.14822,-0.6017 1.7276,-0.6401 0.38458,-0.025 0.70046,-0.072 0.70198,-0.1029 0.0716,-1.4774 0.30742,-2.1314 1.025,-2.8421 0.40138,-0.3976 1.29599,-0.861 1.82357,-0.9446 0.19919,-0.032 0.16526,-0.1168 -0.30056,-0.7553 -1.06005,-1.453 -2.28404,-2.2499 -4.08351,-2.6586 -1.85429,-0.421 -3.60112,-0.041 -5.463017,1.1896 -1.32014,0.8724 -2.13294,1.6685 -2.91882,2.8589 -0.70707,1.0711 -1.03285,1.3161 -1.54251,1.16 -0.58594,-0.1794 -1.73451,-1.3092 -2.25601,-2.219 -0.99461,-1.7354 -0.70549,-3.5419 0.85954,-5.3707 0.96058,-1.1224 1.95439,-1.6293 4.06562,-2.0735 1.42832,-0.3005 1.8816,-0.4523 2.63462,-0.8822 0.865077,-0.494 0.970687,-0.6005 2.161417,-2.1807 2.80803,-3.7264 4.00191,-4.2755 8.83698,-4.0637 2.93128,0.1284 4.04655,-0.088 5.10214,-0.9884 0.82303,-0.7023 1.28931,-1.4485 1.58079,-2.5299 l 0.25272,-0.9375 m 19.95767,0.01 -0.50764,0.4955 c -0.93839,0.9159 -1.31751,1.9905 -1.20121,3.4045 0.0556,0.6763 0.15614,1.0148 0.41749,1.4063 0.43291,0.6484 0.75271,0.695 1.16061,0.1689 0.77032,-0.9934 1.55031,-1.6941 2.5656,-2.305 1.38138,-0.831 1.72447,-0.8681 3.05831,-0.3303 1.30025,0.5243 2.16425,1.0933 2.85618,1.8811 0.28979,0.33 0.54661,0.6102 0.57069,0.6227 0.0241,0.013 0.267,-0.2127 0.5398,-0.5006 1.47498,-1.5565 4.25196,-2.3133 5.92481,-1.6147 0.63624,0.2657 1.67189,0.9785 2.03863,1.4031 0.26276,0.3043 0.28274,0.3029 0.91667,-0.063 0.80942,-0.4673 1.94562,-0.5978 3.04787,-0.35 0.80797,0.1816 1.70168,0.6892 1.93989,1.1018 0.12635,0.2188 0.21596,0.1906 1.43861,-0.4538 1.49306,-0.7869 2.3766,-0.9541 3.62638,-0.6863 0.80048,0.1716 2.00668,0.9209 2.58639,1.6068 0.21253,0.2514 0.42716,0.4183 0.47697,0.371 0.0498,-0.047 0.251,-0.2797 0.44707,-0.5161 0.46879,-0.5652 1.21863,-0.997 2.1066,-1.213 0.56352,-0.137 0.94083,-0.1134 1.73635,0.1086 l 1.01639,0.2838 0.80692,-2.4055 0.80692,-2.4055 m 27.13196,9.0085 c -0.0712,-0.022 -0.57277,-0.4279 -1.11458,-0.9023 l -0.9851,-0.8626 -0.74884,-1.6226 c -0.78685,-1.7049 -1.27982,-2.4007 -2.05094,-2.8949 -1.00029,-0.6411 -4.42851,-1.067 -7.11616,-0.8841 -2.06773,0.1406 -4.49613,1.0606 -4.19172,1.5878 0.12147,0.2104 1.00913,0.3388 3.7935,0.5485 2.71158,0.2043 4.18634,0.564 5.26069,1.2829 1.04947,0.7023 1.45903,1.2904 2.01614,2.8951 0.25246,0.7273 0.65153,1.7383 0.88682,2.2468 l 0.42779,0.9246 m -72.38414,66.7632 c 0.38575,0.9485 0.43506,2.3848 0.12089,3.5209 -0.14832,0.5364 -0.31508,1.0014 -0.37057,1.0335 -0.0555,0.032 -0.21253,-0.1351 -0.34898,-0.3715 -0.13644,-0.2363 -0.49934,-0.6845 -0.80647,-0.9959 -1.70474,-1.7288 -4.41115,-2.4449 -8.01288,-2.1202 -0.75294,0.068 -1.38717,0.094 -1.40939,0.058 -0.0995,-0.162 2.66493,-2.2786 3.92932,-3.0086 1.78372,-1.0298 3.52549,-1.4198 4.34811,-0.9734 1.13076,0.6136 2.0615,1.6566 2.54997,2.8576 z m 39.78214,-26.4942 c 0.48897,1.0896 0.7178,2.002 0.80907,3.2261 0.0878,1.1779 0.0382,1.6054 -0.35911,3.0922 -1.08267,4.0515 -3.73714,7.1764 -7.97726,9.3911 -2.41096,1.2594 -4.43152,1.8272 -6.86118,1.9281 -4.94319,0.2055 -8.89989,-2.1376 -10.16387,-6.0188 -1.32781,-4.0772 0.65686,-9.2058 4.90326,-12.6706 1.22147,-0.9967 3.61715,-2.3771 5.02387,-2.8949 5.69633,-2.0968 11.43007,-0.8775 14.05781,2.9894 0.22317,0.3285 0.4785,0.7593 0.56741,0.9574 z m 12.38983,-14.8659 c -0.089,0.1655 -2.01497,0.8473 -3.0768,1.0892 -0.55886,0.1273 -1.11468,0.1247 -1.8219,-0.01 -1.1379,-0.2143 -2.38963,-0.1443 -3.44117,0.1927 -0.3859,0.1237 -1.45523,0.6045 -2.37631,1.0686 l -1.67469,0.8439 -1.82857,-0.036 c -1.00572,-0.02 -1.88056,-0.064 -1.94411,-0.099 -0.15958,-0.086 0.33445,-1.0389 0.9057,-1.7471 1.75684,-2.178 6.81636,-3.7797 10.47404,-3.3158 2.4648,0.3127 5.10147,1.4216 4.78381,2.012 z m 17.62145,-24.0023 0.877,1.6477 c 0.81345,1.5283 0.89815,1.7562 1.16816,3.1426 0.42034,2.158 0.43531,2.8251 0.0741,3.2989 -0.40081,0.5257 -0.91137,0.5694 -1.57002,0.1346 -0.44396,-0.2932 -0.64897,-0.5924 -2.24489,-3.2767 l -1.75632,-2.9541 m -57.86128,33.4062 0.19621,0.6566 c 0.2724,0.9116 0.13515,1.9999 -0.3647,2.8918 l -0.41705,0.7441 0.35513,0.3498 c 0.48696,0.4796 0.96452,1.5607 0.99721,2.2575 0.0318,0.6776 -0.3042,1.9185 -0.67024,2.4755 l -0.2571,0.3912 0.50078,0.3657 c 1.63544,1.1942 2.13889,3.3645 1.18102,5.0912 l -0.37216,0.6708 0.54983,0.2454 c 1.47856,0.66 2.75091,3.3563 2.10695,4.4651 l -0.20347,0.3503 0.48679,0.034 c 1.15424,0.08 2.03435,0.9156 2.42116,2.2981 0.1221,0.4365 0.21262,0.9598 0.20115,1.1629 -0.0202,0.358 -0.009,0.3651 0.37687,0.2347 0.54525,-0.1845 1.65394,0.1382 2.18019,0.6345 0.37614,0.3547 0.44772,0.494 0.55621,1.0824 l 0.12453,0.6754 0.65146,0.2104 c 0.85718,0.277 1.34854,0.6028 1.62116,1.0749 0.43691,0.7568 0.0494,2.1933 -0.70986,2.6316 -0.87654,0.5061 -2.14385,0.2805 -2.56992,-0.4575 -0.23007,-0.3984 -0.27313,-0.4123 -0.91339,-0.2943 -0.94097,0.1735 -2.18738,-0.2425 -2.83476,-0.9462 -0.36071,-0.3921 -0.53384,-0.6878 -0.69523,-1.1876 -0.28801,-0.892 -0.26719,-0.8716 -0.73194,-0.7144 -1.21506,0.411 -2.58415,-0.2597 -3.39278,-1.6622 -0.46621,-0.8086 -0.72062,-1.9172 -0.52391,-2.2828 0.0533,-0.099 -0.15121,-0.1803 -0.56213,-0.2229 -0.87695,-0.091 -1.61656,-0.4855 -2.20698,-1.1774 -0.83928,-0.9836 -1.24626,-2.5343 -0.99528,-3.7923 0.11142,-0.5584 0.098,-0.6154 -0.15509,-0.6586 -0.46443,-0.079 -0.98175,-0.5633 -1.42846,-1.3371 -0.83279,-1.4424 -0.78378,-3.1167 0.12232,-4.1797 l 0.44144,-0.5178 -0.35187,-0.2328 c -1.17978,-0.7805 -1.68585,-2.7555 -1.03797,-4.051 0.14132,-0.2826 0.26971,-0.5413 0.28528,-0.5748 0.0156,-0.034 -0.14767,-0.1142 -0.3628,-0.1791 -0.43989,-0.1327 -1.05604,-0.6252 -1.59006,-1.271 l -0.35848,-0.4335 m -37.960557,21.9166 0.9164,1.5872 c 0.50401,0.873 0.94246,1.5722 0.97431,1.5538 0.11662,-0.067 2.47382,-0.9686 2.78313,-1.0641 0.2993,-0.093 0.29157,-0.011 -0.12547,1.3179 l -0.44441,1.4163 1.98042,0.7839 c 1.08922,0.4311 2.04365,0.7454 2.12094,0.6984 0.0773,-0.047 0.5889,-0.5461 1.1369,-1.109 0.54801,-0.5629 1.06067,-1.0609 1.13924,-1.1068 0.0786,-0.046 0.735577,0.1783 1.460027,0.4982 l 1.31717,0.5816 1.22893,-1.5225 c 0.67592,-0.8374 1.2771,-1.5504 1.33599,-1.5844 0.0657,-0.038 0.16377,0.1245 0.2538,0.4204 0.35658,1.1717 1.41491,2.4814 2.50723,3.1028 0.77259,0.4395 1.78683,0.6963 2.73228,0.6919 l 0.78096,0 -0.62257,0.462 c -2.4397,1.8105 -4.70175,4.421 -5.50635,6.3544 -0.66617,1.6008 -0.79052,4.6824 -0.26852,6.6542 0.32318,1.2206 1.44483,3.3074 2.29433,4.2685 2.46481,2.7884 6.26866,3.4888 10.84723,1.9975 1.04019,-0.3388 3.57877,-1.8069 4.24979,-2.4577 0.29314,-0.2843 1.00136,-1.1558 1.57383,-1.9368 2.12666,-2.9011 3.62297,-5.695 4.22319,-7.8854 0.19702,-0.7191 0.3723,-1.3155 0.38949,-1.3254 0.0172,-0.01 0.1632,0.1357 0.32444,0.3237 0.3846,0.4483 1.75353,1.1415 2.57599,1.3045 1.32758,0.263 2.63749,-0.1193 3.64817,-1.0647 l 0.60558,-0.5664 0.40044,0.4127 c 0.60175,0.6202 1.58119,0.9687 2.5798,0.9179 0.77336,-0.039 0.97273,-0.1066 1.8928,-0.6378 0.85213,-0.4919 1.09518,-0.6935 1.41806,-1.1761 0.21432,-0.3203 0.41239,-0.5707 0.44013,-0.5565 1.31523,0.6768 1.99954,0.7995 2.97386,0.5334 0.54499,-0.1488 1.39361,-0.6919 1.72981,-1.107 0.12693,-0.1567 0.18381,-0.085 0.50386,0.638 0.72832,1.6446 0.80644,3.103 0.26059,4.8657 -0.56247,1.8164 -1.76529,3.139 -3.76171,4.1363 -1.41553,0.7071 -2.51137,1.013 -3.9353,1.0983 -1.2811,0.077 -1.65615,0.2365 -1.77582,0.7559 -0.13757,0.5972 0.26654,2.1567 0.79375,3.0633 1.00554,1.729 2.71462,2.3819 5.08088,1.9409 1.45235,-0.2706 2.38821,-0.8779 3.82851,-2.4842 0.97441,-1.0867 1.33252,-1.4033 2.08138,-1.8405 0.8603,-0.5022 1.00538,-0.5404 2.96923,-0.7815 4.63119,-0.5686 5.70359,-1.328 7.93775,-5.6212 1.35448,-2.6027 2.0992,-3.4605 3.40706,-3.9244 1.0197,-0.3616 1.89907,-0.3923 2.98128,-0.104 l 0.9383,0.2499 m 9.97232,-17.2876 -0.68293,0.1918 c -1.26244,0.3547 -2.38258,0.1458 -3.54898,-0.6619 -0.55792,-0.3864 -0.80084,-0.6427 -1.00918,-1.0647 -0.34509,-0.6992 -0.22551,-0.9994 0.43401,-1.0897 1.24548,-0.1703 2.24234,-0.4955 3.27897,-1.0693 1.41042,-0.7808 1.61406,-1.0594 1.81523,-2.4834 0.19613,-1.3882 0.13533,-2.421 -0.20098,-3.4141 -0.14085,-0.4159 -0.25511,-0.7784 -0.25393,-0.8056 0.001,-0.027 0.31774,-0.1248 0.70344,-0.2172 2.08543,-0.4991 4.12933,-2.5256 4.36076,-4.3236 0.088,-0.6839 -0.0114,-1.9372 -0.19582,-2.4671 -0.13209,-0.3797 -0.12091,-0.3963 0.51302,-0.7623 0.80942,-0.4673 1.49052,-1.3861 1.82708,-2.4645 0.24669,-0.7906 0.25393,-1.8183 0.0157,-2.2309 -0.12635,-0.2189 -0.0571,-0.2823 1.11232,-1.019 1.42799,-0.8996 2.01456,-1.5812 2.4075,-2.7974 0.25167,-0.779 0.20584,-2.1983 -0.0983,-3.0433 -0.11149,-0.3097 -0.14875,-0.5791 -0.0828,-0.5985 0.066,-0.019 0.36765,-0.078 0.67042,-0.1292 0.72392,-0.1233 1.47276,-0.5568 2.10379,-1.2179 0.40045,-0.4194 0.56866,-0.758 0.7741,-1.558 l 0.2625,-1.0221 2.48666,0.504 2.48667,0.5039 m 5.76442,-28.0012 c -0.0167,0.073 0.0841,0.7099 0.2241,1.4164 l 0.25449,1.2844 1.03076,1.4598 c 1.08308,1.5339 1.43919,2.3087 1.48163,3.2236 0.055,1.1869 -1.29019,4.3687 -2.7924,6.6049 -1.15572,1.7203 -3.16659,3.3634 -3.47102,2.8362 -0.12145,-0.2104 0.21123,-1.0433 1.42174,-3.5596 1.17888,-2.4504 1.6048,-3.9074 1.51937,-5.1973 -0.0835,-1.26 -0.38799,-1.9087 -1.49921,-3.1936 -0.50356,-0.5822 -1.17963,-1.4334 -1.50235,-1.8914 l -0.5868,-0.8327 m -2.28197,107.2844 c -1.01428,0.1401 -2.28277,0.8156 -3.10959,1.6557 -0.39035,0.3966 -0.70972,0.7736 -0.70972,0.8377 0,0.064 0.22326,0.1165 0.49615,0.1165 0.27287,0 0.84247,0.09 1.26574,0.2004 2.34952,0.612 4.3229,2.5978 5.84259,5.8793 0.31769,0.686 0.61237,1.2482 0.65484,1.2493 0.18998,0.01 0.64082,-3.4471 0.64082,-4.9071 1e-5,-2.0597 -0.53319,-3.7631 -1.33107,-4.2523 -1.09674,-0.6725 -2.46542,-0.957 -3.74976,-0.7795 z m 3.05366,-47.6995 c -1.18816,0.1213 -2.09274,0.3794 -3.19846,0.9124 -1.06406,0.5129 -1.40946,0.7696 -2.49837,1.8571 -2.96734,2.9633 -4.34639,6.8246 -4.14435,11.604 0.11489,2.7177 0.63344,4.7514 1.76083,6.9061 2.29369,4.3836 6.3012,6.6387 10.29441,5.7927 4.19484,-0.8887 7.64401,-5.1718 8.52143,-10.5817 0.25239,-1.5561 0.25008,-4.3211 -0.005,-5.7982 -1.03232,-5.9816 -4.95515,-10.3375 -9.61788,-10.6797 -0.39601,-0.029 -0.89675,-0.035 -1.11276,-0.013 z m 6.67928,-18.1628 c -0.0988,0.1598 0.27375,2.1686 0.59517,3.2091 0.16915,0.5477 0.44932,1.0277 0.91833,1.5736 0.75463,0.8782 1.3198,1.9973 1.55375,3.0764 0.0859,0.396 0.20406,1.5626 0.26268,2.5923 l 0.10658,1.8722 0.94578,1.5654 c 0.52018,0.861 0.99599,1.5965 1.05737,1.6344 0.15416,0.095 0.73246,-0.8091 1.06015,-1.6579 1.00781,-2.6105 -0.13484,-7.793 -2.36547,-10.7286 -1.50315,-1.9783 -3.78187,-3.7073 -4.13434,-3.1369 z m 11.97592,-27.2618 -1.86552,0.064 c -1.73028,0.06 -1.96994,0.1003 -3.30557,0.5596 -2.07914,0.7151 -2.66433,1.0356 -2.89402,1.5853 -0.25485,0.61 -0.0375,1.074 0.66848,1.427 0.47583,0.2379 0.83747,0.2658 3.96014,0.3058 l 3.43649,0.044 m 0,66.8124 -0.66673,0.1584 c -0.92568,0.2199 -1.79956,0.8829 -2.32202,1.7617 l -0.43592,0.7333 -0.48048,-0.1327 c -0.65882,-0.1819 -1.83385,-0.055 -2.45365,0.2651 -0.6027,0.3113 -1.50939,1.2227 -1.80871,1.8182 l -0.21025,0.4183 -0.56709,-0.2509 c -1.85197,-0.8192 -3.98321,-0.17 -4.99964,1.5228 l -0.3949,0.6578 -0.48743,-0.3535 c -1.31081,-0.9505 -4.28211,-0.7042 -4.92034,0.4079 l -0.20167,0.3513 -0.2727,-0.4046 c -0.64659,-0.9595 -1.81014,-1.304 -3.20083,-0.9477 -0.43902,0.1125 -0.93745,0.2957 -1.10761,0.4072 -0.29992,0.1965 -0.3119,0.1901 -0.39172,-0.209 -0.11289,-0.5644 -0.94666,-1.3633 -1.63959,-1.5709 -0.49526,-0.1484 -0.65171,-0.1407 -1.21553,0.06 l -0.64712,0.2298 -0.50801,-0.459 c -0.66842,-0.6038 -1.19624,-0.8665 -1.74147,-0.8665 -0.87382,0 -1.9241,1.0538 -1.9241,1.9306 0,1.0121 0.82903,1.9968 1.68119,1.9968 0.46011,0 0.49366,0.03 0.71156,0.6439 0.32024,0.9016 1.30375,1.7731 2.23684,1.9819 0.51988,0.1163 0.86259,0.1184 1.3761,0.01 0.91647,-0.1965 0.88844,-0.2044 0.98467,0.2767 0.25156,1.2578 1.51699,2.1081 3.13592,2.1071 0.93329,0 2.02062,-0.3345 2.23888,-0.6877 0.0592,-0.096 0.23173,0.041 0.47409,0.3754 0.5172,0.714 1.22875,1.1572 2.1232,1.3226 1.27145,0.235 2.81789,-0.1879 3.7818,-1.0342 0.4279,-0.3757 0.48404,-0.3926 0.64791,-0.195 0.30075,0.3627 0.97875,0.5686 1.87219,0.5686 1.66557,0 3.0911,-0.8797 3.55857,-2.1958 l 0.22774,-0.6412 0.37753,0.1883 c 1.26583,0.6315 3.22931,0.082 4.02727,-1.1266 0.17408,-0.2637 0.33391,-0.5042 0.35519,-0.5345 0.0213,-0.03 0.17269,0.071 0.33647,0.2247 0.33487,0.3146 1.06946,0.6019 1.89573,0.7415 l 0.55466,0.094 m 0,43.8331 -1.8328,0 c -1.00803,0 -1.83279,-0.03 -1.83279,-0.067 0,-0.1346 -0.39807,-2.6267 -0.46999,-2.9423 -0.0696,-0.3054 -0.13605,-0.2581 -1.0786,0.7676 l -1.00442,1.0931 -1.66906,-1.3232 c -0.91798,-0.7277 -1.66734,-1.3972 -1.66525,-1.4876 0.002,-0.09 0.17846,-0.783 0.39193,-1.5391 0.21347,-0.756 0.38849,-1.449 0.38893,-1.54 0,-0.091 -0.52221,-0.5479 -1.16148,-1.0153 l -1.1623,-0.8499 0.70411,-1.8256 c 0.38725,-1.004 0.7041,-1.8812 0.7041,-1.9491 0,-0.076 -0.18973,-0.08 -0.49092,-0.01 -1.19305,0.2771 -2.85649,0.015 -3.94075,-0.6199 -0.7669,-0.4494 -1.49644,-1.1993 -1.96533,-2.0203 l -0.38732,-0.6782 -0.0888,0.7702 c -0.3481,3.0181 -1.47777,6.2823 -2.74987,7.9458 -1.05322,1.3774 -3.65985,3.0259 -5.62842,3.5597 -1.21873,0.3304 -3.58679,0.4025 -4.84381,0.1473 -3.64723,-0.7404 -6.15578,-3.6844 -7.15351,-8.3952 -0.22668,-1.0703 -0.22459,-4.0028 0.004,-4.9093 0.0996,-0.396 0.50031,-1.4451 0.89038,-2.3314 1.44909,-3.2922 3.12053,-5.985 4.71743,-7.6001 0.52419,-0.5301 0.95307,-0.9801 0.95307,-1 0,-0.02 -0.19914,-0.073 -0.44252,-0.1191 -0.58057,-0.1089 -1.86539,-0.9478 -2.41776,-1.5786 -0.89159,-1.0183 -1.21549,-2.3438 -0.90208,-3.6918 l 0.18778,-0.8077 -0.55765,-0.1404 c -0.83801,-0.211 -1.62953,-0.885 -2.08481,-1.7752 -0.35259,-0.6894 -0.3941,-0.8957 -0.3941,-1.9581 0,-0.984 0.0531,-1.2952 0.30955,-1.8161 0.17024,-0.3458 0.28806,-0.6425 0.26182,-0.6594 -1.24365,-0.8007 -1.69211,-1.332 -1.94884,-2.3088 -0.1436,-0.5464 -0.0976,-1.5528 0.0938,-2.0515 0.0723,-0.1883 -0.0186,-0.2016 -0.80441,-0.1174 -1.78839,0.1915 -3.09048,0.8531 -4.34413,2.2072 -1.29181,1.3953 -1.8358,3.0983 -1.70128,5.3259 0.0954,1.5794 0.37843,2.6814 1.01646,3.9572 0.57405,1.1479 0.62332,1.5525 0.23332,1.9158 -0.44838,0.4178 -2.00106,0.8476 -3.04976,0.8443 -2.00015,-0.01 -3.4201,-1.16 -4.22133,-3.4297 -0.49178,-1.3931 -0.43381,-2.5072 0.23711,-4.5577 0.4539,-1.3872 0.54908,-1.8557 0.55324,-2.7228 0.005,-0.9961 -0.0347,-1.1409 -0.80782,-2.9622 -1.82317,-4.295 -1.70169,-5.6034 0.89922,-9.6849 1.57682,-2.4744 1.94734,-3.5482 1.69509,-4.9128 -0.19668,-1.0639 -0.60977,-1.8408 -1.40051,-2.6339 l -0.68556,-0.6876 m 9.98533,-17.2801 0.17531,0.6874 c 0.32405,1.2706 1.06506,2.1362 2.34778,2.7425 0.61354,0.29 0.95696,0.3722 1.42664,0.3416 0.77802,-0.051 0.97823,-0.3044 0.72663,-0.9206 -0.47517,-1.1639 -0.69205,-2.1897 -0.71339,-3.3744 -0.029,-1.6118 0.11041,-1.9275 1.24308,-2.8137 1.10414,-0.864 2.02894,-1.3277 3.05716,-1.533 0.43065,-0.086 0.80173,-0.1683 0.82462,-0.1829 0.0229,-0.015 -0.0507,-0.3376 -0.16364,-0.7178 -0.61045,-2.0556 0.12264,-4.8389 1.56405,-5.9384 0.54823,-0.4181 1.68337,-0.9586 2.23445,-1.0639 0.39486,-0.075 0.40366,-0.093 0.40366,-0.8254 0,-0.9347 0.4551,-1.9839 1.2208,-2.8146 0.56128,-0.6089 1.44773,-1.1291 1.92417,-1.1291 0.25269,0 0.27302,-0.092 0.32629,-1.4728 0.0651,-1.6864 0.36202,-2.5352 1.21887,-3.4836 0.5488,-0.6075 1.80083,-1.2774 2.68467,-1.4365 0.32401,-0.058 0.57592,-0.1608 0.55977,-0.2276 -0.0161,-0.067 -0.11664,-0.3572 -0.22335,-0.6452 -0.25513,-0.6886 -0.25413,-1.5539 0.003,-2.4309 0.16306,-0.5565 0.37215,-0.8714 0.96223,-1.4494 l 0.75391,-0.7383 -1.67974,-1.9016 -1.67974,-1.9015 m 21.36745,-18.9928 c -0.0545,0.051 -0.65691,0.2821 -1.33868,0.5141 l -1.23961,0.4219 -1.77959,-0.1628 c -1.86992,-0.171 -2.719,-0.092 -3.53255,0.3287 -1.05534,0.5457 -3.13832,3.3017 -4.32377,5.7207 -0.91203,1.861 -1.32955,4.4241 -0.7207,4.4241 0.24291,0 0.7979,-0.7046 2.37175,-3.0111 1.53271,-2.2461 2.58154,-3.3435 3.74132,-3.9144 1.13293,-0.5577 1.84702,-0.6184 3.51536,-0.2985 0.75603,0.145 1.83116,0.3049 2.38917,0.3554 l 1.01459,0.092 m 21.62682,96.0683 c 1.01428,0.1401 2.28277,0.8156 3.10958,1.6557 0.39036,0.3966 0.70973,0.7736 0.70973,0.8377 0,0.064 -0.22327,0.1165 -0.49615,0.1165 -0.27289,0 -0.84246,0.09 -1.26575,0.2004 -2.34951,0.612 -4.3229,2.5978 -5.8426,5.8793 -0.31769,0.686 -0.61236,1.2482 -0.65483,1.2493 -0.18998,0.01 -0.64081,-3.4471 -0.64082,-4.9071 -1e-5,-2.0597 0.53319,-3.7631 1.33107,-4.2523 1.09674,-0.6725 2.46541,-0.957 3.74977,-0.7795 z m -3.05365,-47.6995 c 1.18814,0.1213 2.09273,0.3794 3.19845,0.9124 1.06404,0.5129 1.40945,0.7696 2.49836,1.8571 2.96735,2.9633 4.3464,6.8246 4.14435,11.604 -0.11489,2.7177 -0.63344,4.7514 -1.76082,6.9061 -2.29368,4.3836 -6.30121,6.6387 -10.29442,5.7927 -4.19484,-0.8887 -7.64401,-5.1718 -8.52144,-10.5817 -0.25238,-1.5561 -0.25007,-4.3211 0.005,-5.7982 1.03232,-5.9816 4.95516,-10.3375 9.61787,-10.6797 0.39602,-0.029 0.89676,-0.035 1.11277,-0.013 z m -6.6793,-18.1628 c 0.0988,0.1598 -0.27375,2.1686 -0.59516,3.2091 -0.16917,0.5477 -0.44933,1.0277 -0.91835,1.5736 -0.75462,0.8782 -1.31979,1.9973 -1.55374,3.0764 -0.0859,0.396 -0.20406,1.5626 -0.26267,2.5923 l -0.10658,1.8722 -0.94578,1.5654 c -0.52019,0.861 -0.99601,1.5965 -1.05738,1.6344 -0.15416,0.095 -0.73245,-0.8091 -1.06015,-1.6579 -1.0078,-2.6105 0.13484,-7.793 2.36546,-10.7286 1.50317,-1.9783 3.78188,-3.7073 4.13435,-3.1369 z m -11.9759,-27.2618 1.86552,0.064 c 1.73026,0.06 1.96992,0.1003 3.30557,0.5596 2.07911,0.7151 2.66431,1.0356 2.894,1.5853 0.25485,0.61 0.0375,1.074 -0.66847,1.427 -0.47585,0.2379 -0.83748,0.2658 -3.96014,0.3058 l -3.43648,0.044 m 0,66.8124 0.66673,0.1584 c 0.92567,0.2199 1.79954,0.8829 2.322,1.7617 l 0.43593,0.7333 0.48046,-0.1327 c 0.65883,-0.1819 1.83387,-0.055 2.45367,0.2651 0.6027,0.3113 1.50939,1.2227 1.80871,1.8182 l 0.21024,0.4183 0.56709,-0.2509 c 1.85197,-0.8192 3.98322,-0.17 4.99963,1.5228 l 0.3949,0.6578 0.48745,-0.3535 c 1.3108,-0.9505 4.28209,-0.7042 4.92032,0.4079 l 0.20168,0.3513 0.2727,-0.4046 c 0.6466,-0.9595 1.81013,-1.304 3.20083,-0.9477 0.43903,0.1125 0.93746,0.2957 1.10761,0.4072 0.29992,0.1965 0.3119,0.1901 0.39173,-0.209 0.11287,-0.5644 0.94666,-1.3633 1.63958,-1.5709 0.49527,-0.1483 0.65171,-0.1407 1.21554,0.06 l 0.64711,0.2298 0.50801,-0.459 c 0.66843,-0.6038 1.19624,-0.8665 1.74147,-0.8665 0.87383,0 1.92411,1.0538 1.92411,1.9306 0,1.0121 -0.82905,1.9968 -1.6812,1.9968 -0.46011,0 -0.49366,0.03 -0.71156,0.6439 -0.32024,0.9016 -1.30374,1.7731 -2.23684,1.9819 -0.51989,0.1163 -0.86259,0.1184 -1.37609,0.01 -0.91647,-0.1965 -0.88846,-0.2044 -0.98468,0.2767 -0.25155,1.2578 -1.51697,2.1081 -3.1359,2.1071 -0.93331,0 -2.02064,-0.3345 -2.2389,-0.6877 -0.0592,-0.096 -0.23172,0.041 -0.47408,0.3754 -0.51722,0.714 -1.22876,1.1572 -2.12321,1.3226 -1.27145,0.235 -2.81789,-0.1879 -3.7818,-1.0342 -0.42789,-0.3757 -0.48404,-0.3926 -0.64792,-0.195 -0.30074,0.3627 -0.97875,0.5686 -1.87218,0.5686 -1.66557,0 -3.09111,-0.8797 -3.55856,-2.1958 l -0.22775,-0.6412 -0.37753,0.1883 c -1.26582,0.6315 -3.22931,0.082 -4.02727,-1.1266 -0.17408,-0.2637 -0.33391,-0.5042 -0.35518,-0.5345 -0.0213,-0.03 -0.1727,0.071 -0.33648,0.2247 -0.33487,0.3146 -1.06946,0.6019 -1.89572,0.7415 l -0.55465,0.094 m 0,43.8331 1.83279,0 c 1.00803,0 1.83279,-0.03 1.83279,-0.067 0,-0.1346 0.39805,-2.6267 0.46999,-2.9423 0.0696,-0.3054 0.13605,-0.2581 1.07859,0.7676 l 1.00442,1.0931 1.66906,-1.3232 c 0.91798,-0.7277 1.66734,-1.3972 1.66524,-1.4876 -0.002,-0.09 -0.17844,-0.783 -0.39191,-1.5391 -0.21347,-0.756 -0.3885,-1.449 -0.38895,-1.54 0,-0.091 0.52222,-0.5479 1.1615,-1.0153 l 1.1623,-0.8499 -0.70411,-1.8256 c -0.38726,-1.004 -0.7041,-1.8811 -0.7041,-1.9491 0,-0.076 0.18973,-0.08 0.49092,-0.01 1.19305,0.2771 2.85648,0.015 3.94074,-0.6199 0.76689,-0.4494 1.49644,-1.1993 1.96533,-2.0203 l 0.38732,-0.6782 0.0888,0.7702 c 0.3481,3.0181 1.47776,6.2823 2.74987,7.9458 1.05322,1.3774 3.65984,3.0259 5.62843,3.5597 1.21873,0.3304 3.58678,0.4025 4.84381,0.1473 3.64721,-0.7404 6.15577,-3.6844 7.15351,-8.3952 0.22667,-1.0703 0.22457,-4.0028 -0.004,-4.9093 -0.0996,-0.396 -0.50032,-1.4451 -0.89039,-2.3314 -1.44909,-3.2922 -3.12052,-5.985 -4.71742,-7.6001 -0.52419,-0.5301 -0.95308,-0.9801 -0.95308,-1 0,-0.02 0.19914,-0.073 0.44253,-0.1191 0.58056,-0.1089 1.86539,-0.9478 2.41775,-1.5786 0.89159,-1.0183 1.21549,-2.3438 0.90209,-3.6918 l -0.18779,-0.8077 0.55765,-0.1404 c 0.83802,-0.211 1.62953,-0.885 2.08481,-1.7752 0.35259,-0.6894 0.3941,-0.8957 0.3941,-1.9581 0,-0.984 -0.053,-1.2952 -0.30954,-1.8161 -0.17025,-0.3458 -0.28807,-0.6425 -0.26183,-0.6594 1.24366,-0.8007 1.69211,-1.3319 1.94885,-2.3088 0.1436,-0.5464 0.0976,-1.5528 -0.0938,-2.0515 -0.0722,-0.1883 0.0186,-0.2015 0.80442,-0.1174 1.78838,0.1915 3.09048,0.8531 4.34412,2.2072 1.29181,1.3953 1.83581,3.0983 1.70129,5.3259 -0.0954,1.5794 -0.37844,2.6814 -1.01647,3.9572 -0.57404,1.1479 -0.62331,1.5525 -0.23331,1.9158 0.44837,0.4178 2.00105,0.8476 3.04976,0.8443 2.00015,-0.01 3.4201,-1.16 4.22133,-3.4297 0.49177,-1.3931 0.43381,-2.5072 -0.23711,-4.5577 -0.4539,-1.3872 -0.54909,-1.8557 -0.55324,-2.7228 -0.005,-0.9961 0.0347,-1.1409 0.80781,-2.9622 1.82318,-4.295 1.70169,-5.6034 -0.89922,-9.6849 -1.57681,-2.4744 -1.94733,-3.5482 -1.69508,-4.9128 0.19667,-1.0639 0.60976,-1.8408 1.4005,-2.6339 l 0.68557,-0.6876 m -9.98534,-17.2801 -0.1753,0.6874 c -0.32406,1.2706 -1.06507,2.1362 -2.34779,2.7425 -0.61353,0.29 -0.95696,0.3722 -1.42664,0.3416 -0.77801,-0.051 -0.97823,-0.3044 -0.72662,-0.9206 0.47516,-1.1639 0.69204,-2.1897 0.71338,-3.3744 0.029,-1.6118 -0.11041,-1.9275 -1.24307,-2.8137 -1.10414,-0.864 -2.02894,-1.3277 -3.05717,-1.533 -0.43064,-0.086 -0.80172,-0.1683 -0.82462,-0.1829 -0.0229,-0.015 0.0507,-0.3376 0.16364,-0.7178 0.61045,-2.0556 -0.12263,-4.8389 -1.56406,-5.9384 -0.54822,-0.4181 -1.68335,-0.9586 -2.23444,-1.0639 -0.39485,-0.075 -0.40365,-0.093 -0.40365,-0.8254 0,-0.9347 -0.45511,-1.9839 -1.22081,-2.8146 -0.56128,-0.6089 -1.44773,-1.1291 -1.92417,-1.1291 -0.25269,0 -0.273,-0.092 -0.32628,-1.4728 -0.0651,-1.6864 -0.36203,-2.5352 -1.21886,-3.4836 -0.54882,-0.6075 -1.80085,-1.2774 -2.68469,-1.4365 -0.32401,-0.058 -0.5759,-0.1608 -0.55977,-0.2276 0.0161,-0.067 0.11664,-0.3572 0.22335,-0.6452 0.25514,-0.6886 0.25413,-1.5539 -0.003,-2.4309 -0.16306,-0.5565 -0.37215,-0.8714 -0.96223,-1.4494 l -0.75391,-0.7383 1.67976,-1.9016 1.67974,-1.9015 m -21.36755,-18.9928 c 0.0545,0.051 0.65691,0.2822 1.3387,0.5142 l 1.23959,0.4218 1.7796,-0.1628 c 1.86992,-0.171 2.71899,-0.092 3.53255,0.3287 1.05535,0.5457 3.13832,3.3017 4.32378,5.7207 0.91201,1.8611 1.32953,4.4241 0.72069,4.4241 -0.24292,0 -0.7979,-0.7046 -2.37176,-3.011 -1.53271,-2.2462 -2.58154,-3.3435 -3.74132,-3.9145 -1.13292,-0.5577 -1.84701,-0.6184 -3.51534,-0.2984 -0.75603,0.1449 -1.83116,0.3048 -2.38918,0.3553 l -1.01458,0.092 m -91.68792,-100.3408 c 0.38575,-0.9485 0.43507,-2.3847 0.1209,-3.5208 -0.14832,-0.5364 -0.31508,-1.0015 -0.37058,-1.0335 -0.0555,-0.032 -0.21253,0.1351 -0.34897,0.3714 -0.13644,0.2363 -0.49935,0.6845 -0.80647,0.996 -1.70474,1.7287 -4.41116,2.4448 -8.01289,2.1202 -0.75294,-0.068 -1.38716,-0.094 -1.40939,-0.058 -0.0995,0.1619 2.66493,2.2785 3.92932,3.0085 1.78372,1.0299 3.52549,1.4198 4.34811,0.9734 1.13077,-0.6135 2.06151,-1.6566 2.54997,-2.8576 z m 39.78215,26.4943 c 0.48898,-1.0897 0.7178,-2.0021 0.80907,-3.2261 0.0878,-1.178 0.0382,-1.6055 -0.35912,-3.0922 -1.08266,-4.0515 -3.73712,-7.1765 -7.97725,-9.3912 -2.41096,-1.2593 -4.43153,-1.8271 -6.86118,-1.9281 -4.9432,-0.2054 -8.89989,2.1377 -10.16387,6.0189 -1.32781,4.0771 0.65686,9.2058 4.90326,12.6706 1.22147,0.9966 3.61714,2.3771 5.02386,2.8949 5.69633,2.0967 11.43008,0.8774 14.05781,-2.9895 0.22318,-0.3284 0.47852,-0.7592 0.56741,-0.9573 z m 12.38983,14.8658 c -0.089,-0.1655 -2.01498,-0.8472 -3.07681,-1.0891 -0.55885,-0.1273 -1.11467,-0.1247 -1.8219,0.01 -1.1379,0.2144 -2.38963,0.1443 -3.44117,-0.1926 -0.38588,-0.1237 -1.45521,-0.6046 -2.3763,-1.0687 l -1.67468,-0.8438 -1.82858,0.036 c -1.00573,0.02 -1.88058,0.064 -1.9441,0.099 -0.1596,0.086 0.33444,1.0388 0.90568,1.747 1.75684,2.1781 6.81636,3.7798 10.47405,3.3158 2.4648,-0.3126 5.10148,-1.4216 4.78381,-2.012 z m 17.62145,24.0024 0.87701,-1.6478 c 0.81345,-1.5283 0.89814,-1.7561 1.16815,-3.1425 0.42034,-2.1581 0.43532,-2.8252 0.0741,-3.2989 -0.40081,-0.5257 -0.91137,-0.5695 -1.57003,-0.1346 -0.44395,0.2931 -0.64896,0.5924 -2.24488,3.2767 l -1.75633,2.9541 m -57.86128,-33.4062 0.19621,-0.6566 c 0.27241,-0.9116 0.13516,-1.9999 -0.36469,-2.8918 l -0.41706,-0.7442 0.35514,-0.3497 c 0.48696,-0.4796 0.96451,-1.5607 0.9972,-2.2575 0.0318,-0.6776 -0.30419,-1.9186 -0.67024,-2.4755 l -0.2571,-0.3912 0.50078,-0.3657 c 1.63545,-1.1943 2.1389,-3.3645 1.18103,-5.0912 l -0.37216,-0.6709 0.54982,-0.2454 c 1.47857,-0.6599 2.75091,-3.3563 2.10696,-4.4651 l -0.20348,-0.3503 0.4868,-0.034 c 1.15423,-0.08 2.03434,-0.9157 2.42115,-2.2982 0.12211,-0.4364 0.21262,-0.9597 0.20115,-1.1628 -0.0202,-0.358 -0.009,-0.3652 0.37688,-0.2348 0.54524,0.1845 1.65393,-0.1382 2.18018,-0.6344 0.37614,-0.3548 0.44773,-0.4941 0.55622,-1.0825 l 0.12451,-0.6753 0.65148,-0.2105 c 0.85718,-0.2769 1.34853,-0.6027 1.62115,-1.0749 0.43692,-0.7568 0.0494,-2.1932 -0.70986,-2.6316 -0.87654,-0.5061 -2.14384,-0.2805 -2.56992,0.4575 -0.23005,0.3985 -0.27312,0.4124 -0.91338,0.2943 -0.94097,-0.1735 -2.18739,0.2426 -2.83478,0.9462 -0.36069,0.3921 -0.53382,0.6879 -0.69522,1.1876 -0.28802,0.892 -0.26719,0.8717 -0.73194,0.7144 -1.21506,-0.411 -2.58414,0.2598 -3.39278,1.6623 -0.4662,0.8085 -0.72062,1.9172 -0.52391,2.2827 0.0534,0.099 -0.15121,0.1803 -0.56213,0.2229 -0.87695,0.091 -1.61656,0.4855 -2.20698,1.1775 -0.83927,0.9836 -1.24626,2.5343 -0.99528,3.7922 0.11142,0.5584 0.098,0.6155 -0.15509,0.6586 -0.46443,0.079 -0.98176,0.5633 -1.42846,1.3371 -0.83279,1.4424 -0.78378,3.1168 0.12233,4.1797 l 0.44144,0.5179 -0.35187,0.2327 c -1.17978,0.7805 -1.68585,2.7556 -1.03798,4.0511 0.14132,0.2825 0.26971,0.5412 0.28529,0.5748 0.0156,0.034 -0.14767,0.1141 -0.36281,0.179 -0.4399,0.1328 -1.05603,0.6253 -1.59006,1.271 l -0.35848,0.4335 m -37.960547,-21.9165 0.9164,-1.5873 c 0.50402,-0.8729 0.94245,-1.5722 0.9743,-1.5538 0.11662,0.067 2.47382,0.9686 2.78313,1.0642 0.2993,0.092 0.29157,0.011 -0.12546,-1.3179 l -0.44441,-1.4164 1.98041,-0.7839 c 1.08923,-0.4311 2.04365,-0.7454 2.12095,-0.6983 0.0773,0.047 0.58889,0.546 1.1369,1.1089 0.548,0.5629 1.06066,1.061 1.13923,1.1069 0.0786,0.046 0.735587,-0.1783 1.460027,-0.4982 l 1.31718,-0.5817 1.22893,1.5226 c 0.67591,0.8374 1.2771,1.5503 1.33598,1.5843 0.0657,0.038 0.16377,-0.1245 0.2538,-0.4203 0.35659,-1.1717 1.41492,-2.4815 2.50724,-3.1028 0.77255,-0.4396 1.78682,-0.6964 2.73227,-0.6919 l 0.78097,0 -0.62258,-0.462 c -2.4397,-1.8105 -4.70175,-4.4209 -5.50635,-6.3543 -0.66617,-1.6008 -0.79052,-4.6825 -0.26851,-6.6542 0.32317,-1.2207 1.44483,-3.3075 2.29433,-4.2685 2.4648,-2.7884 6.26865,-3.4889 10.84723,-1.9976 1.04019,0.3389 3.57876,1.8069 4.24978,2.4577 0.29314,0.2843 1.00137,1.1559 1.57384,1.9368 2.12665,2.9011 3.62297,5.695 4.22319,7.8855 0.19702,0.719 0.37229,1.3154 0.38949,1.3254 0.0172,0.01 0.16319,-0.1358 0.32444,-0.3237 0.38459,-0.4483 1.75351,-1.1416 2.57599,-1.3045 1.32758,-0.2631 2.63749,0.1192 3.64817,1.0646 l 0.60558,0.5665 0.40045,-0.4128 c 0.60174,-0.6202 1.58118,-0.9687 2.57978,-0.9178 0.77336,0.039 0.97275,0.1065 1.89281,0.6377 0.85214,0.492 1.09516,0.6935 1.41806,1.1761 0.21432,0.3204 0.41238,0.5708 0.44013,0.5565 1.31523,-0.6767 1.99953,-0.7995 2.97386,-0.5334 0.54498,0.1488 1.39359,0.6919 1.7298,1.107 0.12693,0.1567 0.18382,0.085 0.50386,-0.638 0.72833,-1.6445 0.80645,-3.103 0.2606,-4.8657 -0.56247,-1.8164 -1.7653,-3.139 -3.76172,-4.1363 -1.41552,-0.7071 -2.51137,-1.0129 -3.93529,-1.0983 -1.28111,-0.077 -1.65616,-0.2364 -1.77582,-0.7559 -0.13757,-0.5971 0.26654,-2.1567 0.79375,-3.0633 1.00553,-1.729 2.71461,-2.3819 5.08087,-1.9409 1.45236,0.2707 2.3882,0.8779 3.82851,2.4842 0.97442,1.0867 1.33252,1.4033 2.08139,1.8405 0.8603,0.5022 1.00538,0.5404 2.96922,0.7815 4.6312,0.5686 5.7036,1.328 7.93776,5.6212 1.35446,2.6028 2.09921,3.4606 3.40706,3.9244 1.0197,0.3616 1.89906,0.3923 2.98129,0.1041 l 0.93829,-0.2499 m 9.97237,17.2875 -0.68294,-0.1918 c -1.26244,-0.3547 -2.38257,-0.1458 -3.54899,0.6619 -0.55791,0.3864 -0.80083,0.6427 -1.00916,1.0648 -0.34509,0.6991 -0.22551,0.9993 0.434,1.0896 1.24548,0.1704 2.24234,0.4955 3.27897,1.0693 1.41043,0.7808 1.61406,1.0594 1.81525,2.4834 0.1961,1.3882 0.13531,2.421 -0.20099,3.4141 -0.14085,0.416 -0.25512,0.7785 -0.25393,0.8056 0.001,0.027 0.31773,0.1249 0.70344,0.2172 2.08542,0.4991 4.12933,2.5256 4.36075,4.3237 0.088,0.6838 -0.0115,1.9371 -0.19582,2.467 -0.13209,0.3797 -0.12091,0.3963 0.51302,0.7623 0.80942,0.4673 1.49053,1.3861 1.82708,2.4645 0.24669,0.7906 0.25394,1.8183 0.0157,2.231 -0.12636,0.2188 -0.0571,0.2823 1.11232,1.0189 1.42798,0.8996 2.01456,1.5812 2.40749,2.7974 0.25167,0.779 0.20584,2.1983 -0.0983,3.0433 -0.1115,0.3097 -0.14875,0.5791 -0.0828,0.5985 0.0659,0.019 0.36764,0.078 0.67042,0.1292 0.72391,0.1234 1.47275,0.5569 2.10378,1.2179 0.40045,0.4195 0.56867,0.758 0.77412,1.558 l 0.26247,1.0221 2.48668,-0.504 2.48666,-0.5039 m 5.76442,28.0012 c -0.0167,-0.073 0.0841,-0.7099 0.2241,-1.4164 l 0.2545,-1.2844 1.03076,-1.4598 c 1.08307,-1.5339 1.43919,-2.3087 1.48162,-3.2236 0.055,-1.1868 -1.29019,-4.3687 -2.7924,-6.6049 -1.15571,-1.7203 -3.16658,-3.3634 -3.47101,-2.8361 -0.12146,0.2103 0.21122,1.0432 1.42173,3.5595 1.17887,2.4504 1.60481,3.9074 1.51937,5.1973 -0.0835,1.26 -0.38798,1.9087 -1.4992,3.1936 -0.50357,0.5822 -1.17962,1.4334 -1.50236,1.8914 l -0.58679,0.8327 m -94.01102,-29.3047 c -0.62852,0.8083 -1.8477,1.5691 -2.98869,1.8651 -0.53867,0.1397 -1.0248,0.2279 -1.0803,0.1958 -0.0555,-0.032 0.0107,-0.2516 0.14717,-0.4879 0.13645,-0.2363 0.34312,-0.7747 0.45928,-1.1964 0.64477,-2.3407 -0.0883,-5.0426 -2.170287,-7.9995 -0.43525,-0.6181 -0.7748,-1.1544 -0.75456,-1.1917 0.0905,-0.1671 3.305747,1.1686 4.570147,1.8986 1.78373,1.0298 2.9923,2.3432 3.01705,3.2788 0.034,1.2861 -0.40392,2.6137 -1.19981,3.6372 z m 42.8358,21.2052 c -0.69917,0.9683 -1.37493,1.6227 -2.38938,2.3138 -0.97621,0.665 -1.37125,0.8358 -2.85747,1.2351 -4.05002,1.0881 -8.08353,0.3517 -12.12161,-2.213 -2.29608,-1.4583 -3.79809,-2.9242 -5.10036,-4.9779 -2.64951,-4.1782 -2.59869,-8.7764 0.13054,-11.8116 2.86703,-3.1885 8.30087,-4.034 13.4247,-2.089 1.47385,0.5595 3.86721,1.944 5.019,2.9034 4.66402,3.8848 6.47493,9.46 4.43994,13.6691 -0.17283,0.3575 -0.41824,0.7941 -0.54536,0.9701 z m 19.06911,3.297 c -0.18783,0.01 -1.74121,-1.3214 -2.48163,-2.12 -0.38968,-0.4203 -0.66534,-0.903 -0.90355,-1.5821 -0.38328,-1.0927 -1.06984,-2.1417 -1.88743,-2.8838 -0.30003,-0.2724 -1.25116,-0.958 -2.11362,-1.5236 l -1.56811,-1.0284 -0.8828,-1.6018 c -0.48554,-0.881 -0.88456,-1.6608 -0.88673,-1.7329 -0.005,-0.1812 1.0669,-0.2298 1.96584,-0.089 2.76464,0.4324 6.68152,4.0133 8.10857,7.4129 0.96165,2.2909 1.31961,5.1288 0.64947,5.1489 z m 29.59737,3.2594 -0.98851,1.5834 c -0.91681,1.4687 -1.07178,1.6559 -2.13741,2.583 -1.65879,1.443 -2.22901,1.7895 -2.81991,1.7136 -0.65566,-0.084 -0.94885,-0.5046 -0.90155,-1.2924 0.0319,-0.5311 0.18851,-0.8582 1.71525,-3.5825 l 1.68016,-2.9981 m -57.86128,-33.4062 -0.47052,0.4982 c -0.65327,0.6917 -1.66439,1.117 -2.68671,1.1301 l -0.85298,0.011 -0.12534,0.4824 c -0.17185,0.6615 -0.86933,1.6157 -1.45644,1.9924 -0.57092,0.3663 -1.81359,0.6958 -2.47896,0.6573 l -0.46735,-0.027 -0.0663,0.6166 c -0.21653,2.0134 -1.84432,3.5346 -3.8186,3.5684 l -0.76707,0.013 0.0624,0.5988 c 0.16776,1.6105 -1.53118,4.0606 -2.81338,4.0573 l -0.40513,0 0.21409,0.4385 c 0.50764,1.0397 0.22421,2.2196 -0.77968,3.2459 -0.31692,0.3239 -0.72483,0.6639 -0.90646,0.7556 -0.32015,0.1614 -0.32057,0.1751 -0.0149,0.4437 0.43236,0.38 0.70727,1.5015 0.5406,2.2054 -0.11913,0.5031 -0.20399,0.6347 -0.65933,1.0229 l -0.52259,0.4455 0.14346,0.6694 c 0.18876,0.8808 0.1523,1.4692 -0.12031,1.9414 -0.43692,0.7568 -1.87468,1.1395 -2.63397,0.7011 -0.87654,-0.5061 -1.3148,-1.7164 -0.88873,-2.4544 0.23005,-0.3985 0.22054,-0.4427 -0.20182,-0.9382 -0.62073,-0.7281 -0.88363,-2.0156 -0.59792,-2.9281 0.15918,-0.5084 0.32875,-0.8062 0.68086,-1.1958 0.62846,-0.6955 0.62127,-0.6673 0.25273,-0.9911 -0.9635,-0.8468 -1.06715,-2.3678 -0.25686,-3.7694 0.4671,-0.808 1.30002,-1.5826 1.71498,-1.5951 0.11255,0 0.0805,-0.2211 -0.088,-0.5982 -0.35973,-0.805 -0.3878,-1.6428 -0.0838,-2.5001 0.43217,-1.2186 1.57163,-2.3464 2.78652,-2.758 0.53932,-0.1827 0.58201,-0.2229 0.49282,-0.4636 -0.16368,-0.4418 -0.003,-1.1319 0.44373,-1.9057 0.83279,-1.4424 2.30732,-2.2371 3.68089,-1.9839 l 0.66918,0.1234 0.0257,-0.4211 c 0.086,-1.412 1.54345,-2.8378 2.98929,-2.9244 0.31539,-0.019 0.60361,-0.037 0.64048,-0.04 0.0369,0 0.025,-0.185 -0.0263,-0.4037 -0.10502,-0.4473 0.0134,-1.2272 0.30567,-2.0125 l 0.19617,-0.5272 m -37.960557,-21.9166 -0.91639,1.5873 c -0.50402,0.8729 -0.89033,1.6023 -0.85848,1.6206 0.11661,0.067 2.07575,1.6581 2.31314,1.8782 0.22969,0.213 0.15552,0.2469 -1.20406,0.5503 l -1.44883,0.3233 0.31136,2.1071 c 0.17124,1.1588 0.3763,2.1425 0.45568,2.1859 0.0794,0.043 0.76736,0.237 1.52883,0.4301 0.76147,0.1932 1.44915,0.3881 1.52818,0.4332 0.079,0.045 0.21336,0.7262 0.29854,1.5136 l 0.15487,1.4315 1.93303,0.303 c 1.06318,0.1667 1.98121,0.3308 2.0401,0.3648 0.0657,0.038 -0.026,0.2041 -0.23713,0.43 -0.83646,0.8947 -1.44156,2.4661 -1.43351,3.7227 0.006,0.8888 0.29039,1.8956 0.76695,2.7122 l 0.39364,0.6745 -0.71141,-0.3082 c -2.78779,-1.2075 -6.17951,-1.8613 -8.2562,-1.5914 -1.71941,0.2235 -4.45038,1.6566 -5.89696,3.0945 -0.89555,0.8902 -2.14195,2.905 -2.54947,4.1212 -1.18242,3.5288 0.11287,7.1733 3.69371,10.3928 0.81352,0.7314 3.35419,2.1958 4.25331,2.4516 0.39278,0.1117 1.50168,0.2892 2.46422,0.3945 3.57574,0.3912 6.74349,0.2901 8.9406,-0.2853 0.72122,-0.1889 1.32539,-0.3353 1.34258,-0.3254 0.0172,0.01 -0.0359,0.2092 -0.11809,0.4428 -0.19596,0.5573 -0.11187,2.0894 0.15824,2.8832 0.436,1.2812 1.422,2.2245 2.746077,2.627 l 0.79337,0.2413 -0.15721,0.5531 c -0.23627,0.8313 -0.0483,1.8537 0.49499,2.6931 0.42077,0.6501 0.57863,0.7892 1.4987,1.3204 0.85213,0.492 1.14822,0.6016 1.7276,0.64 0.38457,0.025 0.70046,0.072 0.70196,0.1029 0.0716,1.4774 0.30743,2.1314 1.02501,2.8421 0.40138,0.3976 1.296,0.861 1.82357,0.9446 0.19919,0.032 0.16527,0.1168 -0.30055,0.7553 -1.06006,1.4531 -2.28405,2.2499 -4.08352,2.6586 -1.85429,0.4211 -3.60111,0.041 -5.463007,-1.1896 -1.32015,-0.8723 -2.13294,-1.6684 -2.91883,-2.8589 -0.70707,-1.0711 -1.03285,-1.3161 -1.54251,-1.16 -0.58594,0.1795 -1.73451,1.3092 -2.256,2.2191 -0.99462,1.7353 -0.70549,3.5419 0.85954,5.3706 0.96057,1.1224 1.95439,1.6293 4.06561,2.0735 1.42833,0.3005 1.8816,0.4523 2.63463,0.8823 0.865067,0.4939 0.970677,0.6005 2.161407,2.1806 2.80803,3.7265 4.00191,4.2755 8.83698,4.0637 2.93128,-0.1283 4.04654,0.088 5.10215,0.9885 0.82302,0.7022 1.28929,1.4484 1.58078,2.5298 l 0.25272,0.9375 m 19.95766,-0.01 -0.50763,-0.4956 c -0.93838,-0.9159 -1.31751,-1.9904 -1.2012,-3.4045 0.0556,-0.6763 0.15613,-1.0148 0.41748,-1.4063 0.43292,-0.6484 0.75272,-0.6949 1.16062,-0.1689 0.77032,0.9934 1.5503,1.6942 2.56558,2.305 1.38139,0.8311 1.72448,0.8681 3.05832,0.3303 1.30025,-0.5242 2.16425,-1.0933 2.85618,-1.8811 0.2898,-0.3299 0.54661,-0.6101 0.5707,-0.6227 0.0241,-0.013 0.267,0.2128 0.53979,0.5006 1.47499,1.5565 4.25197,2.3133 5.92481,1.6147 0.63625,-0.2657 1.6719,-0.9785 2.03863,-1.4031 0.26276,-0.3042 0.28274,-0.3029 0.91667,0.063 0.80942,0.4674 1.94563,0.5978 3.04788,0.3501 0.80797,-0.1817 1.70168,-0.6893 1.93989,-1.1019 0.12635,-0.2188 0.21596,-0.1905 1.43861,0.4538 1.49306,0.7869 2.3766,0.9541 3.62637,0.6863 0.80048,-0.1715 2.00668,-0.9209 2.5864,-1.6067 0.21252,-0.2515 0.42716,-0.4184 0.47698,-0.371 0.0498,0.047 0.25099,0.2796 0.44706,0.516 0.46878,0.5652 1.21863,0.997 2.1066,1.213 0.56351,0.137 0.94082,0.1134 1.73634,-0.1086 l 1.01639,-0.2837 0.80692,2.4054 0.80693,2.4055 m 27.13197,-9.0085 c -0.0712,0.022 -0.57278,0.4279 -1.1146,0.9023 l -0.9851,0.8626 -0.74884,1.6226 c -0.78684,1.7049 -1.2798,2.4007 -2.05092,2.8949 -1.0003,0.6411 -4.42851,1.0671 -7.11618,0.8842 -2.06773,-0.1407 -4.49612,-1.0606 -4.19171,-1.5879 0.12147,-0.2104 1.00913,-0.3388 3.7935,-0.5485 2.71158,-0.2043 4.18634,-0.5639 5.26069,-1.2829 1.04947,-0.7022 1.45902,-1.2903 2.01614,-2.8951 0.25246,-0.7272 0.65154,-1.7383 0.88682,-2.2468 l 0.42778,-0.9246 m 132.74169,-29.2337 c 0.62853,0.8083 1.8477,1.5691 2.98869,1.8651 0.53867,0.1398 1.02481,0.2279 1.0803,0.1958 0.0555,-0.032 -0.0107,-0.2516 -0.14717,-0.4879 -0.13645,-0.2363 -0.34313,-0.7747 -0.45929,-1.1964 -0.64477,-2.3407 0.0883,-5.0426 2.1703,-7.9995 0.43525,-0.6181 0.7748,-1.1544 0.75456,-1.1918 -0.0905,-0.167 -3.30575,1.1687 -4.57015,1.8987 -1.78373,1.0298 -2.9923,2.3432 -3.01704,3.2788 -0.034,1.2861 0.40391,2.6137 1.1998,3.6372 z m -42.8358,21.2052 c 0.69917,0.9683 1.37494,1.6227 2.38937,2.3137 0.97621,0.6651 1.37126,0.8358 2.85748,1.2351 4.05003,1.0882 8.08353,0.3518 12.12161,-2.2129 2.29607,-1.4583 3.7981,-2.9242 5.10036,-4.9779 2.64951,-4.1782 2.59869,-8.7764 -0.13054,-11.8116 -2.86703,-3.1885 -8.30088,-4.034 -13.42469,-2.089 -1.47387,0.5595 -3.86722,1.944 -5.01901,2.9034 -4.66401,3.8848 -6.47493,9.46 -4.43994,13.6691 0.17283,0.3575 0.41824,0.7941 0.54536,0.9701 z m -19.06911,3.297 c 0.18783,0.01 1.74121,-1.3214 2.48163,-2.12 0.38968,-0.4204 0.66534,-0.903 0.90355,-1.5821 0.38329,-1.0927 1.06984,-2.1417 1.88743,-2.8838 0.30003,-0.2724 1.25117,-0.958 2.11363,-1.5236 l 1.56811,-1.0284 0.88279,-1.6018 c 0.48554,-0.881 0.88457,-1.6608 0.88673,-1.7329 0.005,-0.1812 -1.0669,-0.2298 -1.96584,-0.089 -2.76464,0.4324 -6.68152,4.0133 -8.10857,7.4129 -0.96165,2.2909 -1.31961,5.1288 -0.64946,5.1489 z m -29.59737,3.2594 0.9885,1.5834 c 0.91682,1.4687 1.07179,1.6559 2.13742,2.5829 1.65879,1.4431 2.22901,1.7896 2.81992,1.7137 0.65566,-0.084 0.94883,-0.5046 0.90154,-1.2924 -0.0319,-0.5311 -0.18851,-0.8582 -1.71525,-3.5825 l -1.68016,-2.9981 m 57.86128,-33.4062 0.47052,0.4982 c 0.65327,0.6917 1.66439,1.117 2.6867,1.1301 l 0.85298,0.011 0.12534,0.4824 c 0.17186,0.6615 0.86935,1.6157 1.45646,1.9924 0.57091,0.3663 1.81358,0.6958 2.47895,0.6573 l 0.46735,-0.027 0.0663,0.6166 c 0.21652,2.0134 1.84431,3.5346 3.81859,3.5684 l 0.76707,0.013 -0.0624,0.5989 c -0.16775,1.6104 1.5312,4.0605 2.81338,4.0572 l 0.40515,0 -0.2141,0.4385 c -0.50764,1.0397 -0.22421,2.2196 0.77969,3.2459 0.31691,0.3239 0.72483,0.664 0.90646,0.7556 0.32015,0.1615 0.32059,0.175 0.0148,0.4437 -0.43235,0.38 -0.70727,1.5015 -0.54061,2.2054 0.11914,0.5031 0.20399,0.6347 0.65934,1.0229 l 0.52259,0.4455 -0.14347,0.6694 c -0.18875,0.8808 -0.15229,1.4692 0.12033,1.9414 0.43691,0.7568 1.87467,1.1395 2.63395,0.7011 0.87655,-0.5061 1.31481,-1.7164 0.88874,-2.4544 -0.23006,-0.3985 -0.22054,-0.4427 0.20181,-0.9382 0.62074,-0.7281 0.88365,-2.0156 0.59794,-2.9281 -0.15919,-0.5084 -0.32876,-0.8062 -0.68087,-1.1958 -0.62846,-0.6954 -0.62126,-0.6672 -0.25273,-0.9911 0.9635,-0.8468 1.06716,-2.3678 0.25685,-3.7694 -0.4671,-0.808 -1.30001,-1.5826 -1.71497,-1.5951 -0.11255,0 -0.0805,-0.2211 0.088,-0.5982 0.35974,-0.8049 0.38781,-1.6428 0.0838,-2.5001 -0.43218,-1.2186 -1.57162,-2.3464 -2.78651,-2.758 -0.53933,-0.1827 -0.58202,-0.2229 -0.49283,-0.4636 0.16368,-0.4418 0.003,-1.1319 -0.44373,-1.9057 -0.83278,-1.4424 -2.30732,-2.2371 -3.68089,-1.9839 l -0.66919,0.1234 -0.0257,-0.4211 c -0.086,-1.412 -1.54346,-2.8378 -2.9893,-2.9244 -0.31538,-0.019 -0.6036,-0.037 -0.64046,-0.04 -0.0369,0 -0.025,-0.1849 0.0263,-0.4037 0.10501,-0.4473 -0.0134,-1.2272 -0.30567,-2.0125 l -0.19618,-0.5272 m 37.96055,-21.9166 0.91639,1.5873 c 0.50402,0.873 0.89035,1.6023 0.85849,1.6207 -0.11661,0.067 -2.07575,1.658 -2.31314,1.8781 -0.2297,0.213 -0.15552,0.2469 1.20406,0.5503 l 1.44883,0.3234 -0.31135,2.107 c -0.17125,1.1588 -0.37631,2.1425 -0.4557,2.1859 -0.0794,0.044 -0.76735,0.237 -1.52882,0.4302 -0.76147,0.1931 -1.44915,0.388 -1.52817,0.4331 -0.079,0.045 -0.21338,0.7262 -0.29855,1.5136 l -0.15487,1.4315 -1.93303,0.303 c -1.06318,0.1667 -1.98121,0.3308 -2.0401,0.3648 -0.0657,0.038 0.026,0.2041 0.23713,0.43 0.83646,0.8947 1.44155,2.4661 1.4335,3.7227 -0.006,0.8889 -0.29038,1.8956 -0.76694,2.7122 l -0.39365,0.6745 0.71142,-0.3082 c 2.78779,-1.2075 6.1795,-1.8613 8.2562,-1.5914 1.71941,0.2235 4.45038,1.6566 5.89695,3.0945 0.89556,0.8903 2.14196,2.905 2.54948,4.1212 1.18241,3.5288 -0.11287,7.1733 -3.69371,10.3928 -0.81353,0.7314 -3.3542,2.1958 -4.25331,2.4516 -0.39278,0.1117 -1.50169,0.2892 -2.46423,0.3945 -3.57574,0.3912 -6.74349,0.2901 -8.94061,-0.2853 -0.72121,-0.1889 -1.32537,-0.3353 -1.34257,-0.3254 -0.0172,0.01 0.0359,0.2092 0.1181,0.4428 0.19596,0.5573 0.11186,2.0894 -0.15825,2.8832 -0.43599,1.2812 -1.422,2.2245 -2.74607,2.6271 l -0.79338,0.2412 0.15722,0.5531 c 0.23626,0.8313 0.0483,1.8537 -0.49499,2.6931 -0.42077,0.6501 -0.57864,0.7892 -1.4987,1.3204 -0.85214,0.492 -1.14822,0.6016 -1.7276,0.64 -0.38457,0.025 -0.70045,0.072 -0.70197,0.1029 -0.0716,1.4774 -0.30743,2.1314 -1.025,2.8422 -0.40139,0.3975 -1.296,0.8609 -1.82358,0.9445 -0.19918,0.032 -0.16525,0.1169 0.30057,0.7554 1.06004,1.453 2.28403,2.2498 4.08351,2.6585 1.85428,0.4211 3.60112,0.041 5.46301,-1.1896 1.32015,-0.8723 2.13294,-1.6684 2.91883,-2.8589 0.70706,-1.0711 1.03284,-1.3161 1.5425,-1.16 0.58594,0.1795 1.73452,1.3092 2.25601,2.2191 0.99462,1.7353 0.70549,3.5419 -0.85954,5.3706 -0.96058,1.1225 -1.95438,1.6293 -4.06562,2.0735 -1.42832,0.3005 -1.88159,0.4523 -2.63462,0.8823 -0.86508,0.4939 -0.97069,0.6005 -2.16141,2.1806 -2.80803,3.7265 -4.00192,4.2755 -8.83699,4.0638 -2.93127,-0.1284 -4.04654,0.088 -5.10214,0.9884 -0.82303,0.7022 -1.2893,1.4484 -1.58078,2.5298 l -0.25273,0.9375 m -19.95766,-0.01 0.50763,-0.4955 c 0.93839,-0.916 1.31752,-1.9905 1.20121,-3.4045 -0.0556,-0.6764 -0.15614,-1.0149 -0.41748,-1.4064 -0.43292,-0.6484 -0.75272,-0.6949 -1.16062,-0.1689 -0.77032,0.9934 -1.5503,1.6942 -2.56559,2.305 -1.38139,0.8311 -1.72447,0.8681 -3.05831,0.3303 -1.30025,-0.5242 -2.16426,-1.0933 -2.85619,-1.8811 -0.28979,-0.3299 -0.5466,-0.6101 -0.57069,-0.6227 -0.0241,-0.013 -0.267,0.2128 -0.5398,0.5006 -1.47497,1.5565 -4.25196,2.3133 -5.92481,1.6147 -0.63624,-0.2657 -1.67189,-0.9785 -2.03863,-1.4031 -0.26275,-0.3042 -0.28273,-0.3029 -0.91667,0.063 -0.80941,0.4674 -1.94562,0.5978 -3.04787,0.3501 -0.80797,-0.1817 -1.70168,-0.6893 -1.93989,-1.1019 -0.12635,-0.2188 -0.21596,-0.1905 -1.43862,0.4539 -1.49305,0.7868 -2.37659,0.954 -3.62636,0.6862 -0.80049,-0.1715 -2.00669,-0.9209 -2.5864,-1.6067 -0.21253,-0.2515 -0.42717,-0.4184 -0.47698,-0.371 -0.0498,0.047 -0.25099,0.2796 -0.44706,0.516 -0.46879,0.5652 -1.21863,0.997 -2.1066,1.213 -0.56352,0.137 -0.94083,0.1135 -1.73635,-0.1086 l -1.01638,-0.2837 -0.80693,2.4054 -0.80692,2.4055 m -27.13197,-9.0085 c 0.0712,0.022 0.57278,0.4279 1.11459,0.9023 l 0.98511,0.8626 0.74884,1.6226 c 0.78684,1.7049 1.2798,2.4007 2.05092,2.8949 1.0003,0.6411 4.42851,1.0671 7.11618,0.8842 2.06773,-0.1407 4.49612,-1.0606 4.1917,-1.5879 -0.12146,-0.2104 -1.00912,-0.3387 -3.79349,-0.5485 -2.71158,-0.2043 -4.18633,-0.5639 -5.26069,-1.2829 -1.04947,-0.7022 -1.45903,-1.2903 -2.01614,-2.8951 -0.25247,-0.7272 -0.65153,-1.7383 -0.88682,-2.2468 l -0.42778,-0.9245 m 72.38414,-66.7636 c -0.38575,-0.9485 -0.43507,-2.3847 -0.1209,-3.5208 0.14833,-0.5364 0.31508,-1.0015 0.37058,-1.0335 0.0555,-0.032 0.21252,0.1351 0.34897,0.3714 0.13644,0.2363 0.49935,0.6845 0.80647,0.9959 1.70475,1.7288 4.41115,2.4449 8.01289,2.1202 0.75294,-0.068 1.38716,-0.094 1.40939,-0.057 0.0994,0.1619 -2.66493,2.2785 -3.92932,3.0085 -1.78373,1.0299 -3.5255,1.4198 -4.34812,0.9734 -1.13075,-0.6135 -2.0615,-1.6566 -2.54996,-2.8576 z m -39.78215,26.4943 c -0.48898,-1.0897 -0.7178,-2.0021 -0.80908,-3.2262 -0.0878,-1.1779 -0.0382,-1.6054 0.35912,-3.0921 1.08267,-4.0515 3.73714,-7.1765 7.97727,-9.3912 2.41095,-1.2593 4.43152,-1.8271 6.86117,-1.9281 4.9432,-0.2054 8.89989,2.1377 10.16388,6.0189 1.3278,4.0771 -0.65686,9.2057 -4.90327,12.6706 -1.22146,0.9966 -3.61714,2.3771 -5.02386,2.8949 -5.69633,2.0967 -11.43009,0.8774 -14.05782,-2.9895 -0.22318,-0.3284 -0.47851,-0.7592 -0.5674,-0.9573 z m -12.38982,14.8658 c 0.089,-0.1655 2.01496,-0.8472 3.0768,-1.0891 0.55885,-0.1273 1.11467,-0.1247 1.82189,0.01 1.13791,0.2144 2.38964,0.1443 3.44118,-0.1926 0.38588,-0.1237 1.45522,-0.6046 2.3763,-1.0687 l 1.67469,-0.8438 1.82858,0.036 c 1.00572,0.02 1.88056,0.064 1.9441,0.099 0.15959,0.086 -0.33445,1.0388 -0.90569,1.747 -1.75684,2.1781 -6.81636,3.7798 -10.47404,3.3158 -2.4648,-0.3126 -5.10148,-1.4216 -4.78381,-2.012 z m -17.62146,24.0024 -0.87701,-1.6478 c -0.81344,-1.5283 -0.89814,-1.7561 -1.16815,-3.1425 -0.42034,-2.1581 -0.43532,-2.8252 -0.0741,-3.2989 0.40081,-0.5257 0.91137,-0.5695 1.57002,-0.1346 0.44397,0.2931 0.64897,0.5924 2.24489,3.2767 l 1.75633,2.9541 m 57.86128,-33.4062 -0.19621,-0.6566 c -0.27241,-0.9116 -0.13516,-1.9999 0.3647,-2.8918 l 0.41705,-0.7442 -0.35513,-0.3497 c -0.48696,-0.4796 -0.96452,-1.5607 -0.99721,-2.2575 -0.0318,-0.6776 0.30419,-1.9186 0.67024,-2.4755 l 0.2571,-0.3912 -0.50079,-0.3657 c -1.63543,-1.1943 -2.13889,-3.3646 -1.18102,-5.0912 l 0.37216,-0.6709 -0.54982,-0.2454 c -1.47857,-0.6599 -2.75092,-3.3563 -2.10695,-4.4651 l 0.20346,-0.3503 -0.48679,-0.034 c -1.15424,-0.08 -2.03434,-0.9157 -2.42115,-2.2982 -0.12211,-0.4364 -0.21262,-0.9597 -0.20115,-1.1628 0.0202,-0.358 0.009,-0.3652 -0.37688,-0.2347 -0.54524,0.1844 -1.65393,-0.1383 -2.18018,-0.6345 -0.37614,-0.3548 -0.44773,-0.4941 -0.55621,-1.0825 l -0.12453,-0.6753 -0.65147,-0.2105 c -0.85718,-0.2769 -1.34854,-0.6027 -1.62115,-1.0749 -0.43691,-0.7568 -0.0494,-2.1932 0.70985,-2.6316 0.87655,-0.5061 2.14386,-0.2805 2.56993,0.4575 0.23007,0.3985 0.27312,0.4124 0.91338,0.2943 0.94097,-0.1735 2.18739,0.2426 2.83477,0.9463 0.36071,0.392 0.53384,0.6878 0.69523,1.1875 0.28801,0.892 0.26718,0.8717 0.73194,0.7144 1.21506,-0.411 2.58414,0.2598 3.39277,1.6623 0.46621,0.8085 0.72063,1.9172 0.52392,2.2827 -0.0533,0.099 0.1512,0.1803 0.56213,0.2229 0.87695,0.091 1.61656,0.4855 2.20698,1.1775 0.83927,0.9836 1.24626,2.5343 0.99527,3.7922 -0.11142,0.5584 -0.098,0.6155 0.15509,0.6586 0.46443,0.079 0.98175,0.5634 1.42847,1.3371 0.83278,1.4424 0.78378,3.1168 -0.12233,4.1797 l -0.44144,0.5178 0.35187,0.2328 c 1.17978,0.7805 1.68586,2.7556 1.03798,4.051 -0.14132,0.2826 -0.26971,0.5413 -0.28529,0.5749 -0.0156,0.034 0.14767,0.1141 0.3628,0.179 0.4399,0.1328 1.05604,0.6253 1.59007,1.271 l 0.35848,0.4335 m 37.96055,-21.9165 -0.91639,-1.5873 c -0.50402,-0.873 -0.94246,-1.5722 -0.97431,-1.5538 -0.11662,0.067 -2.47383,0.9686 -2.78314,1.0642 -0.29929,0.092 -0.29157,0.011 0.12547,-1.3179 l 0.44441,-1.4164 -1.98042,-0.7839 c -1.08921,-0.4311 -2.04364,-0.7454 -2.12093,-0.6983 -0.0773,0.047 -0.5889,0.546 -1.13691,1.1089 -0.548,0.5629 -1.06066,1.061 -1.13924,1.1069 -0.0786,0.046 -0.73557,-0.1783 -1.46002,-0.4982 l -1.31718,-0.5817 -1.22893,1.5226 c -0.67592,0.8374 -1.2771,1.5503 -1.33598,1.5843 -0.0657,0.038 -0.16378,-0.1245 -0.25381,-0.4203 -0.35658,-1.1717 -1.41491,-2.4815 -2.50723,-3.1028 -0.77259,-0.4395 -1.78683,-0.6964 -2.73227,-0.6919 l -0.78097,0 0.62258,-0.462 c 2.43969,-1.8105 4.70175,-4.4209 5.50634,-6.3544 0.66617,-1.6007 0.79053,-4.6824 0.26852,-6.6541 -0.32317,-1.2207 -1.44483,-3.3075 -2.29433,-4.2685 -2.4648,-2.7884 -6.26865,-3.4889 -10.84723,-1.9976 -1.04019,0.3388 -3.57876,1.8069 -4.24979,2.4577 -0.29314,0.2843 -1.00135,1.1559 -1.57383,1.9368 -2.12665,2.9011 -3.62297,5.695 -4.22318,7.8855 -0.19703,0.719 -0.37231,1.3154 -0.3895,1.3254 -0.0172,0.01 -0.16319,-0.1358 -0.32444,-0.3237 -0.3846,-0.4483 -1.75352,-1.1416 -2.57599,-1.3045 -1.32758,-0.2631 -2.63749,0.1192 -3.64817,1.0646 l -0.60558,0.5665 -0.40044,-0.4128 c -0.60174,-0.6202 -1.58119,-0.9687 -2.5798,-0.9179 -0.77336,0.039 -0.97272,0.1066 -1.8928,0.6378 -0.85213,0.492 -1.09517,0.6935 -1.41806,1.1761 -0.21432,0.3204 -0.41239,0.5708 -0.44013,0.5565 -1.31522,-0.6767 -1.99953,-0.7995 -2.97386,-0.5334 -0.54498,0.1488 -1.3936,0.6919 -1.7298,1.107 -0.12694,0.1567 -0.18382,0.085 -0.50386,-0.638 -0.72833,-1.6445 -0.80644,-3.103 -0.2606,-4.8657 0.56247,-1.8164 1.76529,-3.139 3.76171,-4.1363 1.41553,-0.7071 2.51137,-1.013 3.93531,-1.0983 1.28109,-0.077 1.65615,-0.2365 1.77582,-0.7559 0.13756,-0.5971 -0.26654,-2.1567 -0.79376,-3.0633 -1.00553,-1.729 -2.71461,-2.3819 -5.08088,-1.9409 -1.45234,0.2707 -2.3882,0.8779 -3.8285,2.4842 -0.97442,1.0867 -1.33252,1.4033 -2.08139,1.8405 -0.8603,0.5022 -1.00537,0.5404 -2.96922,0.7815 -4.6312,0.5686 -5.7036,1.328 -7.93776,5.6212 -1.35447,2.6027 -2.09921,3.4606 -3.40706,3.9244 -1.0197,0.3616 -1.89906,0.3923 -2.98129,0.1041 l -0.93829,-0.2499 m -9.97232,17.2876 0.68293,-0.1919 c 1.26245,-0.3547 2.38258,-0.1458 3.54899,0.662 0.55791,0.3863 0.80084,0.6426 1.00916,1.0647 0.3451,0.6991 0.22551,0.9993 -0.43399,1.0896 -1.24549,0.1704 -2.24235,0.4955 -3.27897,1.0693 -1.41043,0.7808 -1.61406,1.0594 -1.81525,2.4834 -0.19611,1.3882 -0.13531,2.421 0.20099,3.4141 0.14085,0.416 0.25511,0.7785 0.25393,0.8056 -0.001,0.027 -0.31774,0.1249 -0.70344,0.2172 -2.08543,0.4991 -4.12933,2.5257 -4.36075,4.3237 -0.088,0.6838 0.0115,1.9371 0.19581,2.467 0.13209,0.3797 0.12091,0.3963 -0.51302,0.7623 -0.80941,0.4673 -1.49052,1.3861 -1.82707,2.4646 -0.2467,0.7905 -0.25394,1.8183 -0.0157,2.2309 0.12635,0.2188 0.0571,0.2823 -1.11231,1.0189 -1.428,0.8996 -2.01457,1.5812 -2.40751,2.7974 -0.25167,0.779 -0.20584,2.1983 0.0983,3.0433 0.11149,0.3098 0.14875,0.5791 0.0828,0.5986 -0.066,0.019 -0.36764,0.077 -0.67042,0.1291 -0.72391,0.1234 -1.47275,0.5569 -2.10379,1.2179 -0.40045,0.4195 -0.56866,0.758 -0.77411,1.558 l -0.26248,1.0221 -2.48667,-0.5039 -2.48666,-0.504 m -5.76443,28.0013 c 0.0167,-0.073 -0.0841,-0.71 -0.2241,-1.4165 l -0.25449,-1.2844 -1.03076,-1.4598 c -1.08307,-1.5339 -1.43919,-2.3087 -1.48163,-3.2236 -0.055,-1.1868 1.29019,-4.3687 2.7924,-6.6049 1.15571,-1.7203 3.16659,-3.3634 3.47101,-2.8361 0.12146,0.2103 -0.21122,1.0433 -1.42173,3.5595 -1.17887,2.4504 -1.6048,3.9074 -1.51937,5.1973 0.0835,1.26 0.38799,1.9087 1.49921,3.1936 0.50356,0.5822 1.17962,1.4334 1.50235,1.8914 l 0.5868,0.8327 m 2.28198,-107.2843 c 1.01427,-0.1402 2.28276,-0.8156 3.10958,-1.6557 0.39035,-0.3967 0.70973,-0.7736 0.70973,-0.8377 0,-0.064 -0.22327,-0.1165 -0.49615,-0.1165 -0.27288,0 -0.84247,-0.09 -1.26575,-0.2005 -2.34951,-0.6119 -4.32289,-2.5977 -5.84259,-5.8792 -0.31769,-0.686 -0.61236,-1.2482 -0.65484,-1.2494 -0.18998,-0.01 -0.64081,3.4472 -0.64082,4.9072 -1e-5,2.0596 0.53319,3.763 1.33107,4.2523 1.09674,0.6724 2.46542,0.957 3.74977,0.7795 z m -3.05366,47.6995 c 1.18815,-0.1214 2.09274,-0.3794 3.19846,-0.9124 1.06404,-0.5129 1.40944,-0.7697 2.49836,-1.8571 2.96735,-2.9634 4.34639,-6.8247 4.14434,-11.6041 -0.11488,-2.7176 -0.63343,-4.7514 -1.76081,-6.906 -2.29369,-4.3837 -6.30121,-6.6387 -10.29442,-5.7928 -4.19484,0.8887 -7.64401,5.1718 -8.52143,10.5817 -0.25239,1.5561 -0.25007,4.3211 0.005,5.7982 1.03231,5.9816 4.95515,10.3375 9.61787,10.6797 0.39601,0.029 0.89676,0.035 1.11277,0.013 z m -6.67929,18.1628 c 0.0988,-0.1599 -0.27375,-2.1686 -0.59517,-3.2092 -0.16916,-0.5476 -0.44933,-1.0277 -0.91833,-1.5735 -0.75463,-0.8783 -1.3198,-1.9973 -1.55375,-3.0765 -0.0858,-0.396 -0.20406,-1.5625 -0.26267,-2.5922 l -0.10658,-1.8723 -0.94579,-1.5654 c -0.52018,-0.861 -0.996,-1.5964 -1.05737,-1.6344 -0.15416,-0.095 -0.73245,0.8091 -1.06015,1.6579 -1.00781,2.6105 0.13484,7.793 2.36547,10.7287 1.50315,1.9782 3.78187,3.7072 4.13434,3.1369 z m -11.97591,27.2618 1.86552,-0.064 c 1.73027,-0.06 1.96993,-0.1002 3.30557,-0.5596 2.07913,-0.715 2.66433,-1.0356 2.89401,-1.5853 0.25485,-0.6099 0.0375,-1.074 -0.66848,-1.4269 -0.47583,-0.238 -0.83747,-0.2659 -3.96014,-0.3058 l -3.43648,-0.044 m 0,-66.8125 0.66673,-0.1583 c 0.92568,-0.2199 1.79954,-0.8829 2.32201,-1.7618 l 0.43592,-0.7332 0.48048,0.1327 c 0.65881,0.1819 1.83385,0.055 2.45365,-0.2652 0.6027,-0.3112 1.5094,-1.2227 1.80872,-1.8182 l 0.21024,-0.4182 0.5671,0.2508 c 1.85196,0.8192 3.9832,0.1701 4.99962,-1.5228 l 0.3949,-0.6577 0.48744,0.3534 c 1.31081,0.9505 4.2821,0.7042 4.92034,-0.4078 l 0.20167,-0.3514 0.2727,0.4047 c 0.64659,0.9594 1.81013,1.3039 3.20083,0.9477 0.43903,-0.1125 0.93745,-0.2958 1.10761,-0.4073 0.29992,-0.1965 0.3119,-0.1901 0.39173,0.2091 0.11288,0.5644 0.94666,1.3632 1.63958,1.5708 0.49527,0.1484 0.65171,0.1407 1.21554,-0.06 l 0.64711,-0.2299 0.50801,0.459 c 0.66843,0.6039 1.19624,0.8665 1.74147,0.8665 0.87383,0 1.92411,-1.0538 1.92411,-1.9305 0,-1.0122 -0.82905,-1.9969 -1.6812,-1.9969 -0.46011,0 -0.49366,-0.03 -0.71156,-0.6439 -0.32023,-0.9016 -1.30375,-1.773 -2.23684,-1.9818 -0.51989,-0.1164 -0.86259,-0.1184 -1.37609,-0.01 -0.91648,0.1965 -0.88845,0.2044 -0.98467,-0.2767 -0.25156,-1.2578 -1.51699,-2.1081 -3.13592,-2.1071 -0.9333,5e-4 -2.02064,0.3345 -2.23889,0.6877 -0.0592,0.096 -0.23173,-0.041 -0.47409,-0.3754 -0.51721,-0.714 -1.22875,-1.1572 -2.1232,-1.3226 -1.27144,-0.235 -2.81789,0.1879 -3.78179,1.0342 -0.4279,0.3757 -0.48404,0.3926 -0.64792,0.195 -0.30075,-0.3627 -0.97876,-0.5686 -1.87219,-0.5686 -1.66557,0 -3.0911,0.8796 -3.55857,2.1958 l -0.22774,0.6412 -0.37753,-0.1883 c -1.26582,-0.6315 -3.22931,-0.082 -4.02727,1.1266 -0.17407,0.2637 -0.3339,0.5042 -0.35519,0.5345 -0.0213,0.03 -0.17269,-0.071 -0.33646,-0.2247 -0.33489,-0.3146 -1.06947,-0.6019 -1.89574,-0.7415 l -0.55465,-0.094 m 0,-43.8331 1.83279,0 c 1.00804,0 1.83279,0.03 1.83279,0.067 0,0.1346 0.39807,2.6267 0.47,2.9423 0.0696,0.3054 0.13604,0.2581 1.07859,-0.7676 l 1.00442,-1.0931 1.66905,1.3232 c 0.91798,0.7277 1.66735,1.3972 1.66526,1.4876 -0.002,0.09 -0.17846,0.783 -0.39193,1.5391 -0.21346,0.756 -0.38849,1.449 -0.38894,1.54 -3.9e-4,0.091 0.52222,0.5479 1.16149,1.0153 l 1.1623,0.8499 -0.7041,1.8256 c -0.38726,1.004 -0.70411,1.8811 -0.70411,1.9491 0,0.076 0.18974,0.08 0.49093,0.01 1.19304,-0.2771 2.85648,-0.015 3.94074,0.6199 0.7669,0.4493 1.49644,1.1993 1.96533,2.0203 l 0.38732,0.6781 0.0888,-0.7702 c 0.3481,-3.0181 1.47777,-6.2823 2.74986,-7.9458 1.05324,-1.3773 3.65986,-3.0258 5.62844,-3.5596 1.21872,-0.3305 3.58678,-0.4025 4.8438,-0.1473 3.64722,0.7404 6.15578,3.6844 7.15352,8.3952 0.22667,1.0702 0.22457,4.0027 -0.004,4.9093 -0.0996,0.396 -0.50032,1.4451 -0.89039,2.3313 -1.44909,3.2923 -3.12052,5.9851 -4.71742,7.6002 -0.52419,0.5301 -0.95308,0.9801 -0.95308,1 0,0.02 0.19914,0.073 0.44253,0.1191 0.58056,0.1089 1.86539,0.9478 2.41775,1.5786 0.89159,1.0182 1.21549,2.3438 0.90209,3.6917 l -0.18779,0.8077 0.55765,0.1404 c 0.83802,0.2111 1.62953,0.885 2.08481,1.7753 0.35259,0.6894 0.3941,0.8957 0.3941,1.9581 0,0.9839 -0.053,1.2952 -0.30954,1.8161 -0.17025,0.3458 -0.28807,0.6425 -0.26183,0.6594 1.24366,0.8007 1.69211,1.3319 1.94885,2.3087 0.1436,0.5464 0.0976,1.5529 -0.0938,2.0516 -0.0722,0.1883 0.0186,0.2015 0.80442,0.1174 1.78838,-0.1916 3.09048,-0.8531 4.34412,-2.2072 1.29181,-1.3953 1.83581,-3.0983 1.70129,-5.3259 -0.0954,-1.5794 -0.37844,-2.6814 -1.01647,-3.9572 -0.57404,-1.1479 -0.62331,-1.5525 -0.23331,-1.9159 0.44837,-0.4177 2.00105,-0.8475 3.04976,-0.8442 2.00015,0.01 3.4201,1.16 4.22133,3.4297 0.49177,1.3931 0.43381,2.5072 -0.23711,4.5577 -0.4539,1.3872 -0.54909,1.8556 -0.55324,2.7228 -0.005,0.9961 0.0347,1.1408 0.80781,2.9621 1.82318,4.2951 1.70169,5.6035 -0.89922,9.6849 -1.57681,2.4744 -1.94733,3.5483 -1.69508,4.9128 0.19667,1.0639 0.60976,1.8408 1.4005,2.6339 l 0.68557,0.6877 m -9.98534,17.2801 -0.1753,-0.6874 c -0.32406,-1.2707 -1.06507,-2.1363 -2.34779,-2.7425 -0.61353,-0.29 -0.95696,-0.3723 -1.42664,-0.3417 -0.77801,0.051 -0.97823,0.3044 -0.72662,0.9207 0.47516,1.1638 0.69204,2.1897 0.71338,3.3744 0.029,1.6118 -0.11041,1.9275 -1.24307,2.8137 -1.10414,0.8639 -2.02894,1.3277 -3.05717,1.533 -0.43064,0.086 -0.80172,0.1683 -0.82462,0.1829 -0.0229,0.015 0.0507,0.3376 0.16364,0.7178 0.61045,2.0556 -0.12263,4.8389 -1.56406,5.9383 -0.54822,0.4182 -1.68335,0.9587 -2.23444,1.064 -0.39485,0.075 -0.40365,0.093 -0.40365,0.8254 0,0.9346 -0.4551,1.9839 -1.2208,2.8146 -0.56128,0.6089 -1.44774,1.129 -1.92417,1.129 -0.25269,0 -0.27302,0.092 -0.32629,1.4728 -0.0651,1.6865 -0.36203,2.5353 -1.21887,3.4837 -0.54881,0.6074 -1.80084,1.2774 -2.68468,1.4365 -0.32401,0.058 -0.57591,0.1607 -0.55977,0.2276 0.0161,0.067 0.11664,0.3571 0.22335,0.6451 0.25513,0.6887 0.25413,1.5539 -0.003,2.4309 -0.16306,0.5566 -0.37216,0.8715 -0.96224,1.4494 l -0.7539,0.7384 1.67975,1.9015 1.67974,1.9016 m -21.36754,18.9927 c 0.0545,-0.051 0.65691,-0.2821 1.33869,-0.5141 l 1.2396,-0.4218 1.77959,0.1628 c 1.86992,0.171 2.719,0.092 3.53255,-0.3287 1.05535,-0.5458 3.13833,-3.3017 4.32378,-5.7207 0.91202,-1.8611 1.32954,-4.4241 0.72069,-4.4241 -0.24291,0 -0.7979,0.7045 -2.37176,3.011 -1.53271,2.2462 -2.58153,3.3435 -3.74131,3.9145 -1.13293,0.5577 -1.84702,0.6183 -3.51535,0.2984 -0.75603,-0.145 -1.83116,-0.3049 -2.38918,-0.3554 l -1.01458,-0.092 m -21.62682,-96.0682 c -1.01428,-0.1402 -2.28277,-0.8156 -3.10959,-1.6557 -0.39035,-0.3967 -0.70973,-0.7736 -0.70973,-0.8377 0,-0.064 0.22327,-0.1165 0.49615,-0.1165 0.27289,0 0.84247,-0.09 1.26575,-0.2005 2.34951,-0.6119 4.3229,-2.5977 5.84259,-5.8792 0.31769,-0.686 0.61237,-1.2482 0.65484,-1.2494 0.18998,-0.01 0.64081,3.4472 0.64082,4.9072 1e-5,2.0596 -0.53319,3.763 -1.33107,4.2523 -1.09674,0.6724 -2.46541,0.957 -3.74976,0.7795 z m 3.05365,47.6995 c -1.18815,-0.1214 -2.09273,-0.3794 -3.19846,-0.9124 -1.06404,-0.5129 -1.40944,-0.7697 -2.49836,-1.8571 -2.96735,-2.9634 -4.34639,-6.8247 -4.14434,-11.6041 0.11488,-2.7176 0.63343,-4.7514 1.76082,-6.906 2.29368,-4.3837 6.3012,-6.6387 10.29441,-5.7928 4.19484,0.8887 7.64401,5.1718 8.52143,10.5817 0.25239,1.5561 0.25007,4.3211 -0.005,5.7982 -1.03232,5.9816 -4.95516,10.3375 -9.61788,10.6797 -0.39601,0.029 -0.89676,0.035 -1.11276,0.013 z m 6.67929,18.1628 c -0.0988,-0.1599 0.27375,-2.1686 0.59517,-3.2092 0.16916,-0.5476 0.44933,-1.0277 0.91833,-1.5735 0.75463,-0.8783 1.3198,-1.9973 1.55375,-3.0765 0.0858,-0.396 0.20406,-1.5625 0.26268,-2.5922 l 0.10657,-1.8723 0.94579,-1.5654 c 0.52018,-0.861 0.996,-1.5964 1.05737,-1.6344 0.15416,-0.095 0.73246,0.8091 1.06015,1.6579 1.00781,2.6105 -0.13484,7.793 -2.36547,10.7287 -1.50315,1.9782 -3.78187,3.7072 -4.13434,3.1369 z m 11.97591,27.2618 -1.86552,-0.064 c -1.73026,-0.06 -1.96993,-0.1002 -3.30557,-0.5596 -2.07912,-0.715 -2.66433,-1.0356 -2.89401,-1.5853 -0.25485,-0.6099 -0.0375,-1.074 0.66848,-1.4269 0.47583,-0.238 0.83748,-0.2659 3.96014,-0.3058 l 3.43648,-0.044 m 0,-66.8125 -0.66673,-0.1583 c -0.92568,-0.2199 -1.79954,-0.8829 -2.32201,-1.7618 l -0.43592,-0.7332 -0.48048,0.1327 c -0.65881,0.1819 -1.83385,0.055 -2.45365,-0.2652 -0.6027,-0.3112 -1.5094,-1.2227 -1.80872,-1.8182 l -0.21024,-0.4182 -0.56709,0.2508 c -1.85197,0.8192 -3.98321,0.1701 -4.99963,-1.5228 l -0.3949,-0.6577 -0.48744,0.3534 c -1.31081,0.9505 -4.2821,0.7042 -4.92034,-0.4078 l -0.20166,-0.3514 -0.27271,0.4047 c -0.64659,0.9594 -1.81013,1.3039 -3.20083,0.9477 -0.43903,-0.1125 -0.93745,-0.2958 -1.10761,-0.4073 -0.29992,-0.1965 -0.3119,-0.1901 -0.39172,0.2091 -0.11289,0.5644 -0.94667,1.3632 -1.63958,1.5708 -0.49527,0.1484 -0.65172,0.1407 -1.21555,-0.06 l -0.64711,-0.2299 -0.50801,0.459 c -0.66843,0.6039 -1.19624,0.8665 -1.74147,0.8665 -0.87383,0 -1.92411,-1.0538 -1.92411,-1.9305 0,-1.0122 0.82905,-1.9969 1.6812,-1.9969 0.46011,0 0.49366,-0.03 0.71156,-0.6439 0.32024,-0.9016 1.30375,-1.773 2.23685,-1.9818 0.51988,-0.1164 0.86259,-0.1184 1.37609,-0.01 0.91647,0.1965 0.88844,0.2044 0.98467,-0.2767 0.25156,-1.2578 1.51698,-2.1081 3.13591,-2.1071 0.93331,5e-4 2.02064,0.3345 2.23889,0.6877 0.0592,0.096 0.23173,-0.041 0.47409,-0.3754 0.51721,-0.714 1.22875,-1.1572 2.1232,-1.3226 1.27145,-0.235 2.81789,0.1879 3.7818,1.0342 0.4279,0.3757 0.48403,0.3926 0.64791,0.195 0.30075,-0.3627 0.97876,-0.5686 1.87219,-0.5686 1.66557,0 3.0911,0.8796 3.55857,2.1958 l 0.22774,0.6412 0.37753,-0.1883 c 1.26582,-0.6315 3.22931,-0.082 4.02728,1.1266 0.17406,0.2637 0.3339,0.5042 0.35518,0.5345 0.0213,0.03 0.17269,-0.071 0.33646,-0.2247 0.33489,-0.3146 1.06947,-0.6019 1.89574,-0.7415 l 0.55465,-0.094 m 0,-43.8331 -1.83279,0 c -1.00804,0 -1.83279,0.03 -1.83279,0.067 0,0.1346 -0.39807,2.6267 -0.46999,2.9423 -0.0696,0.3054 -0.13605,0.2581 -1.07859,-0.7676 l -1.00443,-1.0931 -1.66905,1.3232 c -0.91798,0.7277 -1.66735,1.3972 -1.66526,1.4876 0.002,0.09 0.17846,0.783 0.39193,1.5391 0.21347,0.756 0.38849,1.449 0.38894,1.54 3.9e-4,0.091 -0.52222,0.5479 -1.16149,1.0153 l -1.1623,0.8499 0.7041,1.8256 c 0.38726,1.004 0.70411,1.8811 0.70411,1.9491 0,0.076 -0.18973,0.08 -0.49093,0.01 -1.19304,-0.2771 -2.85648,-0.015 -3.94074,0.6199 -0.7669,0.4493 -1.49644,1.1993 -1.96533,2.0203 l -0.38732,0.6781 -0.0888,-0.7702 c -0.3481,-3.0181 -1.47776,-6.2823 -2.74986,-7.9458 -1.05324,-1.3773 -3.65985,-3.0258 -5.62844,-3.5596 -1.21872,-0.3305 -3.58678,-0.4025 -4.8438,-0.1473 -3.64722,0.7404 -6.15578,3.6844 -7.15352,8.3952 -0.22667,1.0702 -0.22457,4.0027 0.004,4.9093 0.0996,0.396 0.50032,1.4451 0.8904,2.3313 1.44908,3.2923 3.12051,5.9851 4.71741,7.6002 0.52419,0.5301 0.95308,0.9801 0.95308,1 0,0.02 -0.19914,0.073 -0.44253,0.1191 -0.58056,0.1089 -1.86539,0.9478 -2.41775,1.5786 -0.89159,1.0182 -1.21549,2.3438 -0.90209,3.6917 l 0.18779,0.8077 -0.55765,0.1404 c -0.83802,0.2111 -1.62952,0.885 -2.08481,1.7753 -0.35259,0.6894 -0.3941,0.8957 -0.3941,1.9581 0,0.9839 0.053,1.2952 0.30954,1.8161 0.17025,0.3458 0.28807,0.6425 0.26183,0.6594 -1.24366,0.8007 -1.69211,1.3319 -1.94884,2.3087 -0.14361,0.5464 -0.0976,1.5529 0.0938,2.0516 0.0722,0.1883 -0.0186,0.2015 -0.80442,0.1174 -1.78838,-0.1916 -3.09048,-0.8531 -4.34411,-2.2072 -1.29182,-1.3953 -1.83582,-3.0983 -1.70129,-5.3259 0.0954,-1.5794 0.37843,-2.6814 1.01646,-3.9572 0.57404,-1.1479 0.62331,-1.5525 0.23331,-1.9159 -0.44837,-0.4177 -2.00105,-0.8475 -3.04975,-0.8442 -2.00016,0.01 -3.4201,1.16 -4.22133,3.4297 -0.49178,1.3931 -0.43382,2.5072 0.2371,4.5577 0.45391,1.3872 0.54909,1.8556 0.55324,2.7228 0.005,0.9961 -0.0347,1.1408 -0.80781,2.9621 -1.82317,4.2951 -1.70169,5.6035 0.89922,9.6849 1.57681,2.4744 1.94733,3.5483 1.69509,4.9128 -0.19668,1.0639 -0.60977,1.8408 -1.40051,2.6339 l -0.68557,0.6877 m 9.98534,17.2801 0.17531,-0.6874 c 0.32405,-1.2707 1.06506,-2.1363 2.34778,-2.7425 0.61354,-0.29 0.95697,-0.3723 1.42664,-0.3417 0.77802,0.051 0.97823,0.3044 0.72662,0.9207 -0.47516,1.1638 -0.69204,2.1897 -0.71338,3.3744 -0.029,1.6118 0.11041,1.9275 1.24307,2.8137 1.10414,0.8639 2.02894,1.3277 3.05717,1.533 0.43065,0.086 0.80173,0.1683 0.82462,0.1829 0.0229,0.015 -0.0507,0.3376 -0.16364,0.7178 -0.61045,2.0556 0.12263,4.8389 1.56406,5.9383 0.54822,0.4182 1.68335,0.9587 2.23444,1.064 0.39486,0.075 0.40365,0.093 0.40365,0.8254 0,0.9346 0.4551,1.9839 1.22081,2.8146 0.56127,0.6089 1.44773,1.129 1.92416,1.129 0.25269,0 0.27302,0.092 0.3263,1.4728 0.0651,1.6865 0.36202,2.5353 1.21886,3.4837 0.54881,0.6074 1.80084,1.2774 2.68468,1.4365 0.32401,0.058 0.57591,0.1607 0.55977,0.2276 -0.0161,0.067 -0.11664,0.3571 -0.22335,0.6451 -0.25513,0.6887 -0.25413,1.5539 0.003,2.4309 0.16306,0.5566 0.37216,0.8715 0.96224,1.4494 l 0.7539,0.7384 -1.67974,1.9015 -1.67975,1.9016 m 21.36755,18.9927 c -0.0545,-0.051 -0.65692,-0.2821 -1.3387,-0.5141 l -1.23959,-0.4218 -1.7796,0.1628 c -1.86992,0.171 -2.719,0.092 -3.53255,-0.3287 -1.05535,-0.5458 -3.13832,-3.3017 -4.32378,-5.7207 -0.91202,-1.8611 -1.32954,-4.4241 -0.72069,-4.4241 0.24292,0 0.7979,0.7045 2.37176,3.011 1.53271,2.2462 2.58153,3.3435 3.74132,3.9145 1.13292,0.5577 1.84701,0.6183 3.51535,0.2984 0.75602,-0.145 1.83115,-0.3049 2.38917,-0.3554 l 1.01458,-0.092"
     inkscape:connector-curvature="0" />
</svg>
