<?xml version="1.0" encoding="UTF-8" standalone="no"?>
<!-- Created with Inkscape (http://www.inkscape.org/) -->

<svg
   xmlns:dc="http://purl.org/dc/elements/1.1/"
   xmlns:cc="http://creativecommons.org/ns#"
   xmlns:rdf="http://www.w3.org/1999/02/22-rdf-syntax-ns#"
   xmlns:svg="http://www.w3.org/2000/svg"
   xmlns="http://www.w3.org/2000/svg"
   xmlns:sodipodi="http://sodipodi.sourceforge.net/DTD/sodipodi-0.dtd"
   xmlns:inkscape="http://www.inkscape.org/namespaces/inkscape"
   id="svg12938"
   version="1.1"
   inkscape:version="0.91 r"
   width="539"
   height="1364"
   viewBox="0 0 539 1364"
   sodipodi:docname="snowflake-princess_leia-000.svg">
  <metadata
     id="metadata12944">
    <rdf:RDF>
      <cc:Work
         rdf:about="">
        <dc:format>image/svg+xml</dc:format>
        <dc:type
           rdf:resource="http://purl.org/dc/dcmitype/StillImage" />
        <dc:title />
      </cc:Work>
    </rdf:RDF>
  </metadata>
  <defs
     id="defs12942" />
  <sodipodi:namedview
     pagecolor="#ffffff"
     bordercolor="#666666"
     borderopacity="1"
     objecttolerance="10"
     gridtolerance="10"
     guidetolerance="10"
     inkscape:pageopacity="0"
     inkscape:pageshadow="2"
     inkscape:window-width="1600"
     inkscape:window-height="843"
     id="namedview12940"
     showgrid="false"
     inkscape:zoom="2.7221984"
     inkscape:cx="188.43165"
     inkscape:cy="511.90901"
     inkscape:window-x="0"
     inkscape:window-y="0"
     inkscape:window-maximized="1"
     inkscape:current-layer="svg12938"
     inkscape:object-nodes="true"
     inkscape:snap-center="true"
     showguides="true"
     inkscape:guide-bbox="true">
    <sodipodi:guide
       position="433.5,98.5"
       orientation="0,1"
       id="guide4144" />
    <sodipodi:guide
       position="433.5,98.5"
       orientation="1,0"
       id="guide4146" />
  </sodipodi:namedview>
  <path
     id="path4168"
     style="fill:none;fill-opacity:1;stroke-width:0.70866142;stroke-miterlimit:4;stroke-dasharray:none;stroke:#00ff00;stroke-opacity:1"
     d="m 223.66653,937.37729 c 0.008,0.013 0.276,0.1947 0.59548,0.4029 0.96061,0.6262 1.5239,1.9689 1.21529,2.8968 -0.39095,1.1755 -1.6804,1.8646 -2.83298,1.5139 -0.62856,-0.1913 -0.98898,-0.5029 -1.39491,-1.206 l -0.3365,-0.5828 -0.3435,0.3477 c -0.50576,0.5121 -0.75552,0.9447 -1.00286,1.7373 -0.45505,1.4582 -0.18994,2.9597 0.77509,4.3898 0.31012,0.4596 0.65375,0.9084 0.76363,0.9973 0.179,0.1448 0.15807,0.1758 -0.20131,0.2973 -0.22058,0.075 -0.92453,0.2036 -1.56432,0.2866 -1.65734,0.2149 -1.61496,0.1975 -1.54643,0.6359 0.10032,0.6418 0.85799,1.3606 1.71661,1.6286 1.77427,0.5537 5.64969,0.4018 6.83423,-0.2678 0.32764,-0.1852 0.32591,-0.1549 -0.071,1.2499 -0.45296,1.6029 -0.85135,2.393 -1.68387,3.3394 l -0.56215,0.6391 0.55975,-0.1405 c 0.30784,-0.077 1.14831,-0.4785 1.86769,-0.8917 2.02143,-1.161 3.67499,-2.7193 5.02889,-4.7391 0.56328,-0.8403 0.74442,-1.2868 1.20443,-2.9746 0.47539,-1.7429 0.56327,-2.3642 0.71858,-5.0802 0.0973,-1.702 0.2933,-3.5949 0.43551,-4.2065 l 0.25859,-1.1121 -0.7516,0.4339 c -1.3907,0.8029 -2.49519,2.1509 -2.95997,3.6124 l -0.26089,0.8205 -0.55129,-0.9321 c -1.32342,-2.2376 -3.55373,-3.5035 -5.592,-3.1739 -0.18303,0.03 -0.3262,0.065 -0.31817,0.078 z m -0.34593,-14.0942 c -0.27704,0.1857 -0.46829,0.3626 -0.42501,0.3929 0.32033,0.2241 4.69701,2.334 4.79999,2.3139 0.28082,-0.055 0.44906,-0.7005 0.39901,-1.5311 -0.0288,-0.4784 -0.0902,-0.9354 -0.13646,-1.0154 -0.11152,-0.1932 -2.50681,-0.8967 -2.9628,-0.8702 -0.4436,0.026 -1.01728,0.2689 -1.67473,0.7099 z m -15.43539,6.6211 c -1.10967,1.1251 -1.85945,3.7177 -1.93936,6.7062 -0.0639,2.3886 0.38505,5.8475 1.18289,9.114 0.34415,1.409 0.39576,1.5287 1.40317,3.2538 1.00004,1.7125 1.14079,1.8982 3.21015,4.2362 1.19035,1.3449 2.58671,2.988 3.103,3.6513 1.25839,1.6167 3.32352,5.2015 3.98185,6.9119 0.26189,0.6804 0.51065,1.2464 0.55277,1.2577 0.1451,0.039 0.55743,-0.8739 0.71856,-1.5908 0.31222,-1.3889 0.12906,-2.9529 -0.60196,-5.1401 -0.87263,-2.6107 -1.62045,-4.1263 -4.73515,-9.5962 -3.12741,-5.4924 -3.39344,-6.0371 -4.37209,-8.9535 -0.94817,-2.8255 -1.97167,-7.4009 -2.07512,-9.2764 -0.0437,-0.7926 -0.11672,-0.8904 -0.4287,-0.5741 z m 13.67286,-20.5627 -0.77851,0.5487 c -2.24847,1.5848 -3.66174,3.8152 -4.04199,6.3791 -0.0935,0.6303 -0.2687,1.499 -0.38938,1.9306 -0.26869,0.9609 -0.2973,1.712 -0.0796,2.0903 0.15956,0.2773 0.18729,0.2738 0.99749,-0.1271 0.76482,-0.3785 0.96208,-0.414 2.39914,-0.4325 3.38969,-0.043 4.037,-0.3692 4.54762,-2.2882 0.14802,-0.5562 0.64875,-1.3949 0.93588,-1.5675 m 23.34519,40.1208 -1.73349,0.9077 c -3.09303,1.6196 -6.66366,2.8806 -10.06006,3.553 -0.82384,0.1631 -1.60388,0.311 -1.7334,0.3286 -0.42183,0.057 -0.0722,0.3715 0.61978,0.5569 0.78297,0.2098 2.05149,0.2049 3.79354,-0.015 0.70692,-0.089 2.08464,-0.2644 3.0616,-0.3895 0.97694,-0.1251 2.37489,-0.1925 3.10653,-0.1499 1.86875,0.109 4.46084,0.833 5.90213,1.6487 l 1.13176,0.6405 m 4.41543,7.6477 -0.55666,1.6902 c -1.22925,3.7323 -2.38032,5.4402 -4.48863,6.6601 -1.14024,0.6598 -1.61125,0.7877 -3.11522,0.8466 -3.35418,0.1313 -10.79232,-1.7552 -17.29599,-4.3868 -2.29615,-0.9291 -5.38231,-2.4701 -6.69886,-3.345 -0.99785,-0.6631 -1.20983,-0.8655 -1.94113,-1.8529 -0.45152,-0.6096 -0.89169,-1.1465 -0.97814,-1.193 -0.43493,-0.234 -0.5653,0.2225 -0.80249,2.8099 -0.19991,2.1805 -0.61987,3.6053 -1.41321,4.7944 -0.55445,0.831 -0.63917,0.9076 -1.6276,1.471 -0.88116,0.5023 -1.23456,0.6321 -2.281,0.8378 -1.75539,0.3451 -3.02846,0.2991 -4.74358,-0.1716 -1.69069,-0.464 -2.86643,-1.1037 -4.3663,-2.3759 -2.09781,-1.7793 -3.65065,-3.8229 -5.46738,-7.1952 -1.63952,-3.0433 -2.64598,-5.5187 -3.75336,-9.2314 -0.60312,-2.0221 -0.64354,-2.4095 -0.59491,-5.7007 0.0454,-3.0712 0.008,-3.972 -0.22264,-5.366 l -0.1644,-0.9936 -2.06478,-3.7427 c -1.13562,-2.0585 -2.21696,-4.1447 -2.40299,-4.636 -0.46535,-1.2291 -0.89087,-2.7542 -0.99399,-3.5626 -0.121,-0.9485 -0.0249,-2.5009 0.20189,-3.261 0.38635,-1.2952 1.37601,-3.3842 2.24601,-4.7411 2.60917,-4.0694 5.58193,-6.0172 8.61242,-5.6432 1.38418,0.1709 2.56767,0.7675 4.47805,2.2575 0.23449,0.1829 0.25671,0.1072 0.33376,-1.1361 0.44892,-7.244 2.04502,-13.0227 4.83629,-17.5099 0.39709,-0.6384 0.69025,-1.2157 0.65143,-1.2829 -0.0388,-0.067 -0.58785,-0.2546 -1.2201,-0.4164 -2.49489,-0.6385 -8.3884,-0.6182 -11.50339,0.04 -3.42117,0.7225 -4.77507,0.054 -9.48773,-4.6807 l -1.74301,-1.7514 m -0.017,-19.5013 3.45877,-2.0383 3.45874,-2.0384 -0.11109,-0.7804 c -0.25251,-1.7735 -1.42594,-5.2221 -2.49443,-7.3308 l -0.64011,-1.2633 -1.82208,1.052 -1.82207,1.052 m 20.25199,19.9495 -0.21007,1.1728 c -0.75682,4.2256 -0.31202,9.4884 0.99297,11.7487 0.26499,0.459 0.26709,0.4483 0.46175,-2.3551 0.24542,-3.5345 0.68854,-5.588 1.27946,-5.9292 m 33.45779,33.5542 c 0.008,0.014 0.0306,0.3364 0.0512,0.7172 0.062,1.145 0.94311,2.3041 1.90099,2.5008 1.21354,0.2492 2.45501,-0.5229 2.72757,-1.6965 0.14865,-0.6399 0.059,-1.1079 -0.34693,-1.811 l -0.33651,-0.5828 0.47292,-0.1236 c 0.69635,-0.182 1.19589,-0.182 2.00593,0 1.4904,0.335 2.6582,1.3154 3.41418,2.8662 0.24295,0.4983 0.45977,1.0203 0.48184,1.1599 0.036,0.2275 0.0732,0.2248 0.35816,-0.026 0.17492,-0.1538 0.63856,-0.6989 1.03032,-1.2115 1.01483,-1.3278 0.97855,-1.2998 1.32395,-1.0213 0.50567,0.4078 0.74935,1.4234 0.55209,2.3009 -0.40764,1.8134 -2.47684,5.0937 -3.64903,5.7847 -0.32421,0.1912 -0.29709,0.2048 1.11794,0.5635 1.61465,0.4091 2.49811,0.4592 3.73399,0.2114 l 0.83453,-0.1673 -0.40151,0.4145 c -0.22085,0.228 -0.98859,0.7552 -1.70611,1.1717 -2.01619,1.17 -4.1925,1.8229 -6.61864,1.9855 -1.00938,0.068 -1.48666,0 -3.17829,-0.4442 -1.74709,-0.4598 -2.32913,-0.6943 -4.75888,-1.9178 -1.52258,-0.7667 -3.25991,-1.5434 -3.86073,-1.7261 l -1.09239,-0.3321 0.75159,-0.4339 c 1.39071,-0.803 3.11031,-1.0855 4.60846,-0.7572 l 0.84097,0.1843 -0.53157,-0.9435 c -1.27607,-2.2649 -1.25722,-4.8294 0.0473,-6.4298 0.11715,-0.1437 0.21915,-0.2501 0.22668,-0.2365 z m -12.03301,-7.3467 c 0.29942,-0.147 0.54815,-0.2242 0.55276,-0.1716 0.034,0.3895 -0.32713,5.2348 -0.39605,5.3139 -0.18797,0.2157 -0.83119,0.039 -1.52549,-0.42 -0.3999,-0.2642 -0.76491,-0.5458 -0.81113,-0.6259 -0.11152,-0.1932 0.47688,-2.6193 0.72781,-3.0009 0.24412,-0.3713 0.74153,-0.7466 1.4521,-1.0955 z m 13.45178,-10.0569 c 1.52915,-0.3984 4.14936,0.2486 6.77737,1.6736 2.10056,1.139 4.87158,3.2572 7.30156,5.5814 1.04819,1.0026 1.12602,1.1071 2.1163,2.8421 0.983,1.7223 1.07349,1.9371 2.06358,4.8982 0.56953,1.7033 1.2943,3.7341 1.6106,4.5129 0.77094,1.8982 2.84288,5.479 3.99497,6.9043 0.45831,0.5671 0.82406,1.0655 0.81278,1.1076 -0.0389,0.1451 -1.03555,0.046 -1.7369,-0.1731 -1.35899,-0.4241 -2.62187,-1.3647 -4.15049,-3.0914 -1.82467,-2.0611 -2.76327,-3.4665 -5.94303,-8.8988 -3.19277,-5.4546 -3.53155,-5.9574 -5.56787,-8.2631 -1.9729,-2.2339 -5.42352,-5.408 -6.99604,-6.4353 -0.6646,-0.4342 -0.71276,-0.5463 -0.28285,-0.6583 z m -24.64429,1.5597 0.86446,-0.3998 c 2.49673,-1.1549 5.13497,-1.2636 7.54549,-0.3109 0.59255,0.2341 1.43253,0.5168 1.86661,0.6281 0.96653,0.2477 1.63125,0.5985 1.85003,0.9762 0.16043,0.2768 0.14349,0.2991 -0.60881,0.8002 -0.71016,0.4732 -0.8396,0.6262 -1.57409,1.8615 -1.73253,2.9138 -2.33824,3.3116 -4.25544,2.7943 -0.55574,-0.1499 -1.53243,-0.1356 -1.82545,0.027 m 23.07305,40.278 1.65282,-1.0474 c 2.94909,-1.8689 5.82653,-4.3306 8.10701,-6.9358 0.55318,-0.6319 1.07124,-1.2335 1.15126,-1.3369 0.26062,-0.3366 0.35788,0.1232 0.17245,0.8152 -0.2098,0.783 -0.8483,1.8791 -1.90945,3.278 -0.43062,0.5677 -1.27125,1.6732 -1.86807,2.4567 -0.59683,0.7835 -1.35423,1.9604 -1.68311,2.6154 -0.84001,1.6729 -1.50902,4.2797 -1.5233,5.9357 l -0.0112,1.3004 m 4.41543,7.6477 1.74208,0.363 c 3.84692,0.8016 5.90155,0.6588 8.01212,-0.5572 1.1415,-0.6576 1.48783,-1.0015 2.29082,-2.2745 1.79081,-2.8392 3.8761,-10.2241 4.84891,-17.1722 0.34346,-2.4531 0.55194,-5.8963 0.45253,-7.4739 -0.0754,-1.1957 -0.14458,-1.4805 -0.63402,-2.6075 -0.30221,-0.6958 -0.54706,-1.3454 -0.54413,-1.4436 0.0148,-0.4936 0.47537,-0.3783 2.83464,0.71 1.9884,0.9171 3.43226,1.2658 4.85872,1.1733 0.9969,-0.065 1.10557,-0.1 2.08772,-0.674 0.87556,-0.512 1.16467,-0.7532 1.86605,-1.5565 1.17658,-1.3477 1.77324,-2.4732 2.22319,-4.1939 0.44354,-1.6962 0.47736,-3.0343 0.12557,-4.9693 -0.49202,-2.7064 -1.48539,-5.073 -3.49752,-8.3325 -1.81585,-2.9415 -3.4564,-5.0508 -6.11802,-7.8662 -1.44962,-1.5334 -1.76485,-1.762 -4.63941,-3.3655 -2.6825,-1.4963 -3.44388,-1.979 -4.53583,-2.8758 l -0.77831,-0.6392 -2.20887,-3.6595 c -1.21488,-2.0127 -2.48089,-3.9923 -2.81337,-4.3991 -0.83174,-1.0175 -1.93974,-2.1486 -2.58832,-2.6421 -0.7609,-0.579 -2.15342,-1.272 -2.92509,-1.4557 -1.31476,-0.3129 -3.61874,-0.5004 -5.22883,-0.4254 -4.82879,0.2249 -8.00209,1.8255 -9.19338,4.637 -0.54414,1.2842 -0.61919,2.6074 -0.28401,5.0068 0.0411,0.2945 -0.0355,0.276 -1.15078,-0.279 -6.49794,-3.2332 -12.30049,-4.7403 -17.58213,-4.5666 -0.7514,0.025 -1.39793,-0.01 -1.43674,-0.077 -0.0388,-0.067 0.0734,-0.6364 0.24944,-1.2648 0.69452,-2.4799 3.65884,-7.5736 5.786,-9.9424 2.33624,-2.6016 2.43473,-4.1081 0.69024,-10.557 l -0.64522,-2.3852 m -16.88016,-9.7653 -3.49464,1.9762 -3.49463,1.9762 -0.62033,-0.4865 c -1.40967,-1.1054 -3.8095,-3.8459 -5.10147,-5.8256 l -0.77396,-1.186 1.82208,-1.052 1.82206,-1.0519 m 7.15078,27.5134 1.12079,0.4046 c 4.03789,1.4573 8.37314,4.4739 9.67815,6.7342 0.26498,0.459 0.25466,0.4555 -2.27047,-0.7777 -3.18366,-1.5547 -5.1836,-2.1976 -5.77452,-1.8565 M 96.953632,839.96199 c -0.0156,0 -0.30657,0.1417 -0.64668,0.3143 -1.0226,0.5188 -2.467,0.3353 -3.11629,-0.3959 -0.82257,-0.9264 -0.77459,-2.3876 0.10542,-3.2104 0.47993,-0.4487 0.92998,-0.6051 1.74185,-0.6051 l 0.67301,0 -0.12943,-0.4713 c -0.19058,-0.6941 -0.44038,-1.1267 -1.00309,-1.7371 -1.03534,-1.1233 -2.46825,-1.6444 -4.18927,-1.5237 -0.55306,0.039 -1.11352,0.112 -1.24547,0.1627 -0.21495,0.082 -0.23126,0.049 -0.15686,-0.323 0.0457,-0.2284 0.28597,-0.9025 0.534,-1.4981 0.64252,-1.5427 0.63642,-1.4973 0.2225,-1.6572 -0.606,-0.234 -1.60735,0.063 -2.26871,0.6724 -1.36663,1.2597 -3.17284,4.6918 -3.18519,6.0525 -0.003,0.3763 -0.0288,0.3597 -1.0469,-0.6865 -1.1617,-1.1937 -1.64677,-1.9338 -2.05012,-3.128 l -0.27239,-0.8063 -0.15822,0.5549 c -0.087,0.3053 -0.15974,1.2338 -0.16161,2.0634 -0.005,2.3311 0.51752,4.5423 1.58976,6.7247 0.4461,0.9079 0.74251,1.2879 1.97385,2.5303 1.27172,1.2832 1.76587,1.67 4.04032,3.1624 1.42527,0.9353 2.96661,2.0515 3.4252,2.4805 l 0.83382,0.78 0,-0.8679 c -1e-5,-1.6058 -0.61512,-3.2363 -1.64849,-4.3696 l -0.58008,-0.6362 1.08286,-0.011 c 2.5995,-0.027 4.81096,-1.3259 5.54471,-3.2559 0.0659,-0.1733 0.10707,-0.3148 0.0915,-0.3145 z m 12.378938,6.7476 c -0.0224,-0.3329 -0.0799,-0.5869 -0.12775,-0.5645 -0.35431,0.1653 -4.36988,2.9006 -4.40393,2.9999 -0.0929,0.2706 0.38212,0.7391 1.12647,1.1111 0.42874,0.2142 0.85515,0.3895 0.94759,0.3895 0.22305,0 2.02994,-1.7226 2.23498,-2.1308 0.19949,-0.397 0.27576,-1.0154 0.22264,-1.8052 z m 1.98362,-16.6781 c -0.4195,-1.5235 -2.28992,-3.4691 -4.83802,-5.0326 -2.0367,-1.2496 -5.25662,-2.5903 -8.484438,-3.5326 -1.39234,-0.4065 -1.52179,-0.4216 -3.51948,-0.4117 -1.98304,0.01 -2.21428,0.039 -5.27373,0.662 -1.75988,0.3584 -3.88099,0.7461 -4.71359,0.8616 -2.02933,0.2814 -6.16642,0.2775 -7.97681,-0.01 -0.72022,-0.1135 -1.33472,-0.181 -1.36558,-0.1502 -0.1062,0.1063 0.47814,0.9197 1.01835,1.4177 1.04677,0.9649 2.49281,1.5882 4.75247,2.0487 2.69728,0.5497 4.3837,0.6598 10.67817,0.6974 6.32019,0.038 6.92499,0.08 9.939948,0.6904 2.92107,0.5916 7.39519,1.9929 9.07116,2.8411 0.70831,0.3584 0.82948,0.3441 0.71155,-0.084 z m 10.97143,22.1225 -0.086,-0.9486 c -0.24826,-2.7397 -1.47324,-5.0788 -3.50351,-6.6901 -0.49906,-0.396 -1.16382,-0.9822 -1.47723,-1.3025 -0.69784,-0.7131 -1.33396,-1.1134 -1.77043,-1.114 -0.31999,0 -0.33079,0.025 -0.38868,0.9274 -0.0547,0.8516 -0.12249,1.0402 -0.82504,2.2939 -1.65718,2.9573 -1.69876,3.6808 -0.29219,5.0825 0.40772,0.4063 0.88369,1.2593 0.88956,1.5942 m -46.418228,0.1572 0.0807,-1.9551 c 0.14395,-3.4885 0.83715,-7.2112 1.95305,-10.4888 0.27067,-0.795 0.53264,-1.5445 0.58214,-1.6655 0.16121,-0.394 -0.28562,-0.2483 -0.79222,0.2583 -0.57318,0.5732 -1.2032,1.6742 -1.8841,3.2926 -0.27631,0.6568 -0.81338,1.9376 -1.19352,2.8462 -0.38012,0.9086 -1.02067,2.153 -1.42344,2.7653 -1.02873,1.5639 -2.95181,3.4467 -4.37882,4.287 l -1.12056,0.66 m -8.83086,0 -1.18541,-1.3272 c -2.61766,-2.9307 -3.52124,-4.7816 -3.5235,-7.2173 -10e-4,-1.3174 0.12343,-1.7893 0.82441,-3.1212 1.56335,-2.9705 6.91623,-8.4688 12.44707,-12.7854 1.9527,-1.524 4.83038,-3.4261 6.24633,-4.1288 1.0732,-0.5327 1.35441,-0.6151 2.57517,-0.7547 0.75373,-0.086 1.43873,-0.199 1.52225,-0.2506 0.42011,-0.2596 0.0899,-0.6008 -2.03215,-2.0999 -1.78849,-1.2634 -2.81239,-2.3395 -3.44549,-3.6211 -0.44246,-0.8956 -0.46641,-1.0073 -0.46013,-2.145 0.006,-1.0143 0.0699,-1.3852 0.41493,-2.3943 0.57881,-1.6928 1.25524,-2.7723 2.52041,-4.0223 1.24714,-1.2322 2.38907,-1.9305 4.24073,-2.5934 2.58984,-0.9271 5.13604,-1.2501 8.96491,-1.1373 3.45537,0.1018 6.10238,0.4679 9.87135,1.3653 2.05275,0.4887 2.4084,0.6474 5.23434,2.3351 2.63712,1.5749 3.43583,1.9929 4.758448,2.4902 l 0.94272,0.3544 4.27365,0.083 c 2.3505,0.046 4.69787,0.1524 5.21636,0.237 1.29709,0.2115 2.83061,0.6055 3.58231,0.9204 0.88189,0.3695 2.17831,1.229 2.72321,1.8054 0.9284,0.9821 2.24272,2.8837 2.98283,4.3156 2.21962,4.2943 2.42015,7.8427 0.58095,10.2802 -0.84005,1.1133 -1.94847,1.8399 -4.19405,2.7494 -0.27563,0.1116 -0.22123,0.1687 0.81702,0.8571 6.04902,4.0107 10.25548,8.2823 12.74585,12.9432 0.3543,0.6631 0.70769,1.2057 0.78531,1.2057 0.0776,0 0.51441,-0.3818 0.97067,-0.8485 1.80037,-1.8414 4.72955,-6.9555 5.71738,-9.982 1.08493,-3.3241 2.34034,-4.1626 8.79749,-5.8763 l 2.38822,-0.6338 m 16.89713,9.736 0.0359,4.0145 0.0359,4.0146 0.73142,0.294 c 1.66219,0.6681 5.23544,1.3761 7.59589,1.5051 l 1.41407,0.077 10e-6,-2.1039 0,-2.104 m -27.40276,7.564 -0.91072,-0.7684 c -3.28108,-2.7682 -8.06113,-5.0143 -10.67112,-5.0143 -0.52997,0 -0.52175,0.01 1.80872,1.5774 2.93823,1.9798 4.49505,3.3903 4.49505,4.0726 m -45.787678,12.1982 c -0.0156,0 -0.30658,-0.1417 -0.64668,-0.3142 -1.02261,-0.5188 -2.46701,-0.3354 -3.11628,0.3958 -0.82259,0.9264 -0.7746,2.3876 0.10542,3.2104 0.47991,0.4488 0.92997,0.6051 1.74184,0.6051 l 0.67301,0 -0.12943,0.4713 c -0.19058,0.6941 -0.44038,1.1267 -1.00297,1.7372 -1.03533,1.1232 -2.46826,1.6444 -4.18926,1.5237 -0.55306,-0.039 -1.11352,-0.112 -1.24547,-0.1627 -0.21495,-0.083 -0.23126,-0.049 -0.15685,0.323 0.0457,0.2284 0.28596,0.9025 0.53399,1.498 0.64252,1.5428 0.63642,1.4974 0.2225,1.6572 -0.606,0.2341 -1.60735,-0.063 -2.2687,-0.6723 -1.36664,-1.2597 -3.17284,-4.6918 -3.1852,-6.0525 -0.003,-0.3763 -0.0288,-0.3597 -1.04691,0.6865 -1.16169,1.1937 -1.64674,1.9338 -2.05012,3.128 l -0.27238,0.8063 -0.15822,-0.555 c -0.087,-0.3052 -0.15974,-1.2337 -0.16161,-2.0633 -0.005,-2.3311 0.51752,-4.5423 1.58976,-6.7247 0.4461,-0.908 0.74224,-1.2881 1.97386,-2.5304 1.27171,-1.2831 1.76586,-1.6699 4.04031,-3.1624 1.42527,-0.9352 2.96661,-2.0514 3.4252,-2.4804 l 0.83382,-0.78 -1e-5,0.8679 c 0,1.6058 -0.61511,3.2363 -1.64848,4.3696 l -0.58008,0.6362 1.08286,0.011 c 2.5995,0.027 4.81095,1.3259 5.54473,3.2558 0.0659,0.1733 0.10704,0.3149 0.0915,0.3146 z m 12.378938,-6.7475 c -0.0224,0.3328 -0.0799,0.5868 -0.12774,0.5645 -0.35432,-0.1653 -4.36989,-2.9007 -4.40395,-3 -0.0928,-0.2706 0.38212,-0.7391 1.12648,-1.1111 0.42873,-0.2142 0.85515,-0.3895 0.94759,-0.3895 0.22305,0 2.02993,1.7226 2.23498,2.1308 0.19949,0.397 0.27575,1.0154 0.22264,1.8053 z m 1.98361,16.678 c -0.41949,1.5235 -2.28992,3.4692 -4.83801,5.0326 -2.0367,1.2496 -5.25663,2.5903 -8.484448,3.5326 -1.39233,0.4065 -1.52177,0.4216 -3.51948,0.4117 -1.98302,-0.01 -2.21427,-0.039 -5.27373,-0.662 -1.75986,-0.3584 -3.88099,-0.7461 -4.71358,-0.8616 -2.02933,-0.2814 -6.16642,-0.2775 -7.97681,0.01 -0.72022,0.1134 -1.33473,0.1809 -1.36557,0.1501 -0.10621,-0.1062 0.47814,-0.9197 1.01834,-1.4177 1.04678,-0.9648 2.49281,-1.5882 4.75247,-2.0487 2.69728,-0.5497 4.3837,-0.6598 10.67816,-0.6974 6.32019,-0.038 6.925,-0.08 9.939958,-0.6904 2.92107,-0.5916 7.39519,-1.9929 9.07116,-2.8411 0.7083,-0.3584 0.82949,-0.3441 0.71154,0.084 z m 10.97144,-22.1224 -0.086,0.9485 c -0.24826,2.7397 -1.47325,5.0788 -3.5035,6.6901 -0.49908,0.3961 -1.16384,0.9822 -1.47725,1.3025 -0.69783,0.7131 -1.33395,1.1134 -1.77042,1.114 -0.32,0 -0.33079,-0.025 -0.38868,-0.9274 -0.0547,-0.8515 -0.12249,-1.0402 -0.82505,-2.2939 -1.65716,-2.9573 -1.69875,-3.6808 -0.29218,-5.0825 0.40773,-0.4063 0.88368,-1.2593 0.88957,-1.5942 m -46.418228,-0.1571 0.0807,1.955 c 0.14394,3.4885 0.83714,7.2112 1.95304,10.4888 0.27067,0.795 0.53264,1.5445 0.58214,1.6655 0.16122,0.394 -0.28562,0.2483 -0.79222,-0.2583 -0.57317,-0.5732 -1.2032,-1.6742 -1.8841,-3.2926 -0.27631,-0.6568 -0.81339,-1.9375 -1.19351,-2.8462 -0.38012,-0.9086 -1.02067,-2.153 -1.42345,-2.7653 -1.02873,-1.5639 -2.95181,-3.4467 -4.37882,-4.287 l -1.12057,-0.6599 m -8.83087,0 -1.18541,1.3272 c -2.61765,2.9307 -3.52123,4.7815 -3.52349,7.2173 -10e-4,1.3173 0.12343,1.7892 0.82441,3.1211 1.56335,2.9705 6.91622,8.4689 12.44708,12.7854 1.95269,1.524 4.83037,3.4262 6.24632,4.1289 1.07319,0.5326 1.35441,0.615 2.57517,0.7546 0.75372,0.086 1.43873,0.199 1.52224,0.2506 0.42013,0.2597 0.09,0.6008 -2.03214,2.0999 -1.78849,1.2634 -2.81239,2.3395 -3.4455,3.6211 -0.44245,0.8957 -0.46641,1.0073 -0.46012,2.1451 0.006,1.0142 0.0699,1.3851 0.41492,2.3942 0.57883,1.6928 1.25524,2.7723 2.52041,4.0223 1.24715,1.2322 2.38907,1.9305 4.24073,2.5934 2.58983,0.9271 5.13605,1.2501 8.96491,1.1373 3.45537,-0.1018 6.10238,-0.4679 9.87136,-1.3652 2.05275,-0.4888 2.40841,-0.6474 5.23433,-2.3351 2.63713,-1.575 3.43585,-1.993 4.758458,-2.4903 l 0.94272,-0.3544 4.27365,-0.083 c 2.3505,-0.046 4.69786,-0.1524 5.21635,-0.2369 1.2971,-0.2116 2.83062,-0.6056 3.58232,-0.9205 0.88189,-0.3695 2.1783,-1.2289 2.7232,-1.8054 0.9284,-0.9821 2.24272,-2.8837 2.98282,-4.3156 2.21963,-4.2943 2.42016,-7.8427 0.58097,-10.2802 -0.84006,-1.1133 -1.94848,-1.8399 -4.19405,-2.7493 -0.27563,-0.1117 -0.22124,-0.1687 0.81701,-0.8571 6.04902,-4.0108 10.25548,-8.2824 12.74586,-12.9433 0.35429,-0.6631 0.70767,-1.2056 0.7853,-1.2056 0.0776,0 0.51442,0.3818 0.97067,0.8484 1.80038,1.8414 4.72955,6.9555 5.71739,9.9821 1.08493,3.324 2.34033,4.1625 8.79748,5.8762 l 2.38822,0.6338 m 16.89714,-9.7359 0.0359,-4.0146 0.0359,-4.0145 0.73144,-0.294 c 1.66219,-0.6681 5.23543,-1.3762 7.5959,-1.5052 l 1.41407,-0.077 -1e-5,2.104 1e-5,2.1039 m -27.40276,-7.564 -0.91073,0.7684 c -3.28107,2.7682 -8.06112,5.0144 -10.67112,5.0144 -0.52996,0 -0.52174,-0.01 1.80873,-1.5775 2.93824,-1.9797 4.49505,-3.3903 4.49506,-4.0726 m -10.55278,73.0886 c -0.008,0.014 -0.0306,0.3364 -0.0512,0.7172 -0.062,1.145 -0.94312,2.3041 -1.901,2.5008 -1.21353,0.2492 -2.45499,-0.5229 -2.72757,-1.6965 -0.14864,-0.6399 -0.059,-1.1079 0.34694,-1.811 l 0.33651,-0.5828 -0.47292,-0.1236 c -0.69635,-0.182 -1.19589,-0.1819 -2.00594,0 -1.49038,0.335 -2.6582,1.3154 -3.41418,2.8662 -0.24293,0.4983 -0.45977,1.0203 -0.48184,1.1599 -0.0359,0.2275 -0.0732,0.2248 -0.35815,-0.026 -0.17493,-0.1538 -0.63857,-0.6989 -1.03034,-1.2115 -1.01482,-1.3278 -0.97854,-1.2998 -1.32393,-1.0213 -0.50567,0.4078 -0.74935,1.4234 -0.55209,2.3009 0.40764,1.8134 2.47685,5.0937 3.64903,5.7847 0.32422,0.1912 0.29709,0.2048 -1.11794,0.5634 -1.61465,0.4092 -2.49811,0.4593 -3.73398,0.2115 l -0.83454,-0.1673 0.40152,0.4145 c 0.22083,0.228 0.98858,0.7552 1.70609,1.1717 2.01617,1.1701 4.1925,1.8229 6.61865,1.9855 1.00937,0.068 1.48665,0 3.17828,-0.4442 1.7471,-0.4598 2.32914,-0.6943 4.75889,-1.9178 1.52259,-0.7667 3.25991,-1.5434 3.86072,-1.7261 l 1.0924,-0.3321 -0.75159,-0.4339 c -1.39071,-0.803 -3.11032,-1.0855 -4.60845,-0.7572 l -0.84098,0.1842 0.53152,-0.9434 c 1.27607,-2.2649 1.25723,-4.8294 -0.0473,-6.4298 -0.11714,-0.1437 -0.21914,-0.2502 -0.22667,-0.2365 z m 12.03301,-7.3467 c -0.29942,-0.147 -0.54816,-0.2242 -0.55276,-0.1716 -0.034,0.3895 0.32713,5.2348 0.39605,5.3139 0.18796,0.2157 0.83119,0.039 1.5255,-0.42 0.39989,-0.2642 0.76489,-0.5458 0.81112,-0.6259 0.11152,-0.1932 -0.47689,-2.6193 -0.72781,-3.0009 -0.24412,-0.3713 -0.74153,-0.7466 -1.4521,-1.0955 z m -13.45177,-10.0569 c -1.52918,-0.3984 -4.14937,0.2486 -6.77738,1.6736 -2.10057,1.139 -4.87158,3.2572 -7.30156,5.5814 -1.04818,1.0026 -1.12602,1.1071 -2.11629,2.8421 -0.98303,1.7223 -1.07349,1.9371 -2.0636,4.8982 -0.56952,1.7033 -1.29429,3.7341 -1.6106,4.5129 -0.77093,1.8982 -2.84287,5.479 -3.99493,6.9044 -0.45832,0.567 -0.82407,1.0654 -0.81278,1.1075 0.0389,0.1451 1.03555,0.046 1.73689,-0.1731 1.35899,-0.4241 2.62187,-1.3647 4.15049,-3.0914 1.82467,-2.061 2.76327,-3.4665 5.94303,-8.8988 3.19278,-5.4546 3.53156,-5.9574 5.56787,-8.2631 1.97289,-2.2339 5.42352,-5.408 6.99604,-6.4353 0.66459,-0.4342 0.71276,-0.5463 0.28284,-0.6583 z m 24.64428,1.5597 -0.86447,-0.3998 c -2.49672,-1.1549 -5.13497,-1.2636 -7.54549,-0.3109 -0.59254,0.2341 -1.43252,0.5168 -1.8666,0.628 -0.96653,0.2478 -1.63125,0.5986 -1.85004,0.9762 -0.15999,0.2772 -0.14349,0.2992 0.60882,0.8003 0.71016,0.4732 0.83959,0.6262 1.57409,1.8615 1.73252,2.9138 2.33824,3.3116 4.25544,2.7943 0.55575,-0.1499 1.53243,-0.1356 1.82545,0.027 m -23.07305,40.278 -1.65281,-1.0474 c -2.94908,-1.8689 -5.82653,-4.3306 -8.10703,-6.9358 -0.55317,-0.6319 -1.07124,-1.2335 -1.15126,-1.3369 -0.2606,-0.3366 -0.35786,0.1232 -0.17244,0.8152 0.2098,0.783 0.8483,1.8791 1.90945,3.278 0.43061,0.5677 1.27124,1.6732 1.86808,2.4567 0.59682,0.7835 1.35422,1.9604 1.6831,2.6154 0.84001,1.6729 1.50902,4.2797 1.5233,5.9357 l 0.0112,1.3004 m -4.41544,7.6477 -1.74208,0.363 c -3.8469,0.8016 -5.90155,0.6587 -8.01212,-0.5572 -1.14149,-0.6576 -1.48782,-1.0015 -2.29081,-2.2745 -1.79083,-2.8392 -3.8761,-10.2241 -4.84891,-17.1722 -0.34345,-2.453 -0.55194,-5.8963 -0.45253,-7.4739 0.0753,-1.1957 0.14458,-1.4804 0.63403,-2.6075 0.3022,-0.6958 0.54704,-1.3455 0.5441,-1.4436 -0.0148,-0.4936 -0.47536,-0.3783 -2.83463,0.71 -1.988398,0.9171 -3.432258,1.2658 -4.858698,1.1733 -0.99692,-0.065 -1.10559,-0.1 -2.08774,-0.674 -0.87554,-0.5121 -1.16467,-0.7532 -1.86606,-1.5565 -1.17657,-1.3477 -1.77323,-2.4732 -2.22317,-4.1939 -0.44354,-1.6962 -0.47736,-3.0343 -0.12558,-4.9693 0.49203,-2.7064 1.4854,-5.073 3.49752,-8.3325 1.81586,-2.9415 3.45641,-5.0508 6.11802,-7.8662 1.449628,-1.5334 1.764848,-1.762 4.639408,-3.3655 2.68251,-1.4963 3.44387,-1.9791 4.53582,-2.8758 l 0.77832,-0.6392 2.20888,-3.6595 c 1.21488,-2.0127 2.48089,-3.9923 2.81336,-4.3991 0.83175,-1.0175 1.93974,-2.1486 2.58832,-2.6421 0.7609,-0.579 2.15343,-1.272 2.92509,-1.4557 1.31476,-0.3129 3.61873,-0.5004 5.22884,-0.4254 4.82879,0.2249 8.00208,1.8255 9.19338,4.637 0.54413,1.2842 0.61919,2.6074 0.284,5.0068 -0.0411,0.2945 0.0355,0.276 1.15078,-0.279 6.49795,-3.2332 12.3005,-4.7403 17.58214,-4.5666 0.75139,0.025 1.39792,-0.01 1.43673,-0.077 0.0388,-0.067 -0.0734,-0.6365 -0.24944,-1.2649 -0.6945,-2.4799 -3.65884,-7.5736 -5.786,-9.9424 -2.33624,-2.6016 -2.43473,-4.1081 -0.69023,-10.557 l 0.64521,-2.3852 m 16.88016,-9.7653 3.49464,1.9762 3.49464,1.9762 0.62032,-0.4865 c 1.40968,-1.1054 3.8095,-3.8459 5.10146,-5.8256 l 0.77398,-1.186 -1.82208,-1.052 -1.82207,-1.0519 m -7.15078,27.5134 -1.12079,0.4046 c -4.0379,1.4573 -8.37314,4.4739 -9.67815,6.7342 -0.26498,0.459 -0.25467,0.4555 2.27047,-0.7777 3.18366,-1.5547 5.1836,-2.1976 5.77451,-1.8565 m -12.32991,45.7524 c -0.008,0.014 -0.276,0.1947 -0.59547,0.4029 -0.96061,0.6262 -1.52389,1.9689 -1.2153,2.8968 0.39096,1.1755 1.68041,1.8646 2.83299,1.5139 0.62856,-0.1913 0.98897,-0.5029 1.39491,-1.206 l 0.33651,-0.5828 0.34349,0.3477 c 0.50577,0.5121 0.7555,0.9447 1.00283,1.7373 0.45506,1.4582 0.18994,2.9598 -0.77508,4.3898 -0.31013,0.4596 -0.65376,0.9084 -0.76363,0.9973 -0.179,0.1449 -0.15807,0.1758 0.2013,0.2973 0.22059,0.075 0.92454,0.2036 1.56432,0.2866 1.65734,0.215 1.61497,0.1975 1.54644,0.6359 -0.10032,0.6418 -0.85799,1.3606 -1.71661,1.6286 -1.77428,0.5537 -5.64969,0.4018 -6.83424,-0.2678 -0.32762,-0.1852 -0.3259,-0.1549 0.0711,1.2499 0.45296,1.6029 0.85135,2.393 1.68386,3.3394 l 0.56216,0.6391 -0.55975,-0.1404 c -0.30785,-0.077 -1.14832,-0.4786 -1.8677,-0.8918 -2.02145,-1.1609 -3.67498,-2.7193 -5.02889,-4.7391 -0.56328,-0.8403 -0.74414,-1.287 -1.20443,-2.9746 -0.47539,-1.7429 -0.56326,-2.3642 -0.71857,-5.0802 -0.0973,-1.7019 -0.2933,-3.5949 -0.43552,-4.2065 l -0.25859,-1.1121 0.75161,0.4339 c 1.39069,0.8029 2.49519,2.1509 2.95997,3.6125 l 0.26089,0.8204 0.55133,-0.9321 c 1.32342,-2.2375 3.55374,-3.5034 5.592,-3.1739 0.18303,0.03 0.3262,0.065 0.31816,0.078 z m 0.34594,-14.0942 c 0.27703,0.1858 0.46829,0.3626 0.42501,0.3929 -0.32033,0.2241 -4.69702,2.334 -4.79999,2.3139 -0.28082,-0.055 -0.44907,-0.7005 -0.39901,-1.5311 0.0288,-0.4784 0.0902,-0.9353 0.13646,-1.0154 0.11152,-0.1932 2.50681,-0.8966 2.9628,-0.8702 0.44359,0.026 1.01728,0.269 1.67473,0.7099 z m 15.43538,6.6211 c 1.10968,1.1251 1.85945,3.7177 1.93936,6.7062 0.0639,2.3886 -0.38504,5.8475 -1.18288,9.114 -0.34416,1.4091 -0.39576,1.5287 -1.40318,3.2538 -1.00001,1.7125 -1.14079,1.8982 -3.21015,4.2362 -1.19034,1.3449 -2.58669,2.988 -3.10299,3.6513 -1.25839,1.6167 -3.32354,5.2015 -3.98187,6.9119 -0.26189,0.6804 -0.51065,1.2464 -0.55278,1.2577 -0.1451,0.039 -0.55742,-0.874 -0.71855,-1.5908 -0.31222,-1.3889 -0.12906,-2.9529 0.60198,-5.1401 0.87261,-2.6107 1.62044,-4.1263 4.73512,-9.5962 3.12742,-5.4924 3.39344,-6.0371 4.3721,-8.9535 0.94817,-2.8255 1.97167,-7.4009 2.07511,-9.2764 0.0437,-0.7926 0.11673,-0.8904 0.42871,-0.5741 z m -13.67284,-20.5627 0.77851,0.5487 c 2.24846,1.5848 3.66173,3.8152 4.04199,6.3791 0.0935,0.6303 0.2687,1.499 0.38937,1.9306 0.26869,0.9609 0.29729,1.712 0.0796,2.0903 -0.16,0.2771 -0.18729,0.2738 -0.99749,-0.1271 -0.76482,-0.3785 -0.96209,-0.414 -2.39914,-0.4325 -3.3897,-0.043 -4.037,-0.3692 -4.54762,-2.2882 -0.14801,-0.5562 -0.64875,-1.3949 -0.93589,-1.5675 m -23.34518,40.1208 1.73349,0.9077 c 3.09303,1.6196 6.66365,2.8806 10.06005,3.553 0.82386,0.1631 1.60389,0.311 1.73341,0.3286 0.42183,0.057 0.0723,0.3715 -0.61977,0.5569 -0.78298,0.2098 -2.0515,0.2049 -3.79355,-0.015 -0.70693,-0.089 -2.08464,-0.2643 -3.0616,-0.3895 -0.97694,-0.1251 -2.37489,-0.1925 -3.10654,-0.1499 -1.86875,0.109 -4.46084,0.833 -5.90212,1.6487 l -1.13177,0.6404 m -4.41543,7.6478 0.55666,1.6902 c 1.22924,3.7323 2.38032,5.4402 4.48863,6.6601 1.14023,0.6597 1.61124,0.7877 3.11521,0.8466 3.35418,0.1313 10.79234,-1.7552 17.29599,-4.3868 2.29616,-0.9291 5.38232,-2.4702 6.69887,-3.3451 0.99785,-0.6631 1.20983,-0.8654 1.94113,-1.8528 0.45152,-0.6096 0.89169,-1.1465 0.97814,-1.193 0.43492,-0.234 0.5653,0.2225 0.80249,2.8098 0.19991,2.1806 0.61987,3.6054 1.41321,4.7945 0.55445,0.831 0.63917,0.9076 1.6276,1.471 0.88119,0.5022 1.23456,0.6321 2.28099,0.8378 1.75538,0.3451 3.02847,0.2991 4.74358,-0.1716 1.69068,-0.464 2.86643,-1.1037 4.3663,-2.3759 2.09782,-1.7793 3.65067,-3.8229 5.46739,-7.1952 1.63951,-3.0433 2.64598,-5.5188 3.75335,-9.2315 0.60313,-2.0221 0.64355,-2.4094 0.59491,-5.7006 -0.0454,-3.0713 -0.008,-3.972 0.22264,-5.366 l 0.16441,-0.9937 2.06477,-3.7426 c 1.13562,-2.0585 2.21697,-4.1447 2.40299,-4.636 0.46537,-1.2291 0.89087,-2.7542 0.994,-3.5626 0.12099,-0.9485 0.0249,-2.501 -0.20189,-3.2611 -0.38636,-1.2951 -1.37602,-3.3841 -2.24601,-4.741 -2.60917,-4.0694 -5.58193,-6.0173 -8.61242,-5.6432 -1.38419,0.1709 -2.56766,0.7675 -4.47805,2.2575 -0.23449,0.1829 -0.25672,0.1072 -0.33377,-1.1361 -0.44891,-7.244 -2.04502,-13.0227 -4.83628,-17.5099 -0.3971,-0.6384 -0.69025,-1.2157 -0.65143,-1.2829 0.0388,-0.067 0.58786,-0.2546 1.2201,-0.4164 2.4949,-0.6385 8.3884,-0.6182 11.50339,0.04 3.42117,0.7224 4.77507,0.054 9.48773,-4.6807 l 1.743,-1.7514 m 0.017,-19.5013 -3.45877,-2.0383 -3.45875,-2.0384 0.11111,-0.7804 c 0.2525,-1.7736 1.42593,-5.2221 2.49443,-7.3308 l 0.6401,-1.2633 1.82207,1.052 1.82208,1.0519 m -20.25199,19.9495 0.21008,1.1729 c 0.75681,4.2256 0.31202,9.4884 -0.99298,11.7487 -0.26499,0.4589 -0.26709,0.4482 -0.46174,-2.3551 -0.24543,-3.5345 -0.68855,-5.588 -1.27946,-5.9292 m -12.44959,-124.8903 c -0.008,-0.013 -0.276,-0.1947 -0.59547,-0.4029 -0.9606,-0.6262 -1.52389,-1.9689 -1.2153,-2.8968 0.39096,-1.1755 1.68041,-1.8646 2.83299,-1.5139 0.62856,0.1913 0.98898,0.5029 1.39491,1.206 l 0.3365,0.5829 0.3435,-0.3478 c 0.50576,-0.5121 0.75551,-0.9447 1.00286,-1.7373 0.45505,-1.4582 0.18994,-2.9597 -0.77509,-4.3898 -0.31013,-0.4596 -0.65376,-0.9084 -0.76364,-0.9973 -0.17899,-0.1448 -0.15806,-0.1758 0.20132,-0.2973 0.22058,-0.075 0.92453,-0.2036 1.56431,-0.2866 1.65735,-0.2149 1.61496,-0.1975 1.54644,-0.6359 -0.10032,-0.6418 -0.85799,-1.3606 -1.71662,-1.6286 -1.77426,-0.5537 -5.64968,-0.4018 -6.83422,0.2678 -0.32764,0.1852 -0.32591,0.1549 0.071,-1.2499 0.45295,-1.6029 0.85136,-2.393 1.68386,-3.3394 l 0.56216,-0.6391 -0.55975,0.1405 c -0.30785,0.077 -1.14832,0.4785 -1.86769,0.8917 -2.02143,1.161 -3.67499,2.7193 -5.0289,4.7391 -0.56327,0.8403 -0.74419,1.287 -1.20443,2.9746 -0.47538,1.7429 -0.56327,2.3642 -0.71857,5.0802 -0.0973,1.702 -0.2933,3.5949 -0.43552,4.2065 l -0.25859,1.1121 0.7516,-0.4339 c 1.39071,-0.8029 2.49519,-2.1509 2.95997,-3.6124 l 0.2609,-0.8205 0.55129,0.9321 c 1.32342,2.2376 3.55373,3.5035 5.592,3.1739 0.18303,-0.029 0.3262,-0.065 0.31816,-0.078 z m 0.34594,14.0942 c 0.27704,-0.1858 0.46829,-0.3625 0.425,-0.3929 -0.32032,-0.2241 -4.69701,-2.334 -4.79998,-2.3139 -0.28083,0.055 -0.44907,0.7005 -0.39901,1.5311 0.0288,0.4784 0.0902,0.9353 0.13646,1.0154 0.11152,0.1932 2.50681,0.8967 2.9628,0.8702 0.44359,-0.026 1.01728,-0.269 1.67473,-0.7099 z m 15.43539,-6.6211 c 1.10966,-1.1251 1.85945,-3.7177 1.93935,-6.7062 0.0639,-2.3886 -0.38504,-5.8475 -1.18288,-9.114 -0.34415,-1.409 -0.39577,-1.5287 -1.40318,-3.2538 -1.00003,-1.7125 -1.14078,-1.8982 -3.21015,-4.2362 -1.19034,-1.3449 -2.5867,-2.988 -3.10299,-3.6513 -1.25839,-1.6167 -3.32353,-5.2015 -3.98186,-6.9119 -0.26188,-0.6804 -0.51063,-1.2464 -0.55277,-1.2577 -0.14509,-0.039 -0.55742,0.874 -0.71855,1.5908 -0.31223,1.3889 -0.12906,2.9529 0.60197,5.1401 0.87261,2.6107 1.62044,4.1263 4.73514,9.5962 3.12741,5.4924 3.39344,6.0371 4.37209,8.9535 0.94817,2.8255 1.97167,7.4009 2.07512,9.2764 0.0437,0.7926 0.11672,0.8904 0.42869,0.5741 z m -13.67286,20.5627 0.77851,-0.5487 c 2.24847,-1.5848 3.66174,-3.8152 4.04199,-6.3791 0.0935,-0.6303 0.2687,-1.499 0.38938,-1.9306 0.26869,-0.9609 0.2973,-1.712 0.0796,-2.0903 -0.15956,-0.2773 -0.18729,-0.2738 -0.99748,0.1271 -0.76482,0.3785 -0.96209,0.414 -2.39914,0.4325 -3.3897,0.043 -4.037,0.3692 -4.54763,2.2882 -0.14801,0.5562 -0.64874,1.3949 -0.93588,1.5675 m -23.34518,-40.1208 1.73349,-0.9077 c 3.09302,-1.6196 6.66366,-2.8806 10.06005,-3.553 0.82385,-0.1631 1.60389,-0.311 1.73341,-0.3286 0.42182,-0.057 0.0723,-0.3715 -0.61978,-0.5569 -0.78298,-0.2098 -2.0515,-0.2049 -3.79354,0.015 -0.70693,0.089 -2.08464,0.2644 -3.06159,0.3895 -0.97696,0.1251 -2.3749,0.1925 -3.10654,0.1499 -1.86876,-0.109 -4.46084,-0.833 -5.90214,-1.6487 l -1.13176,-0.6404 m -4.41544,-7.6478 0.55667,-1.6902 c 1.22925,-3.7323 2.38032,-5.4402 4.48862,-6.6601 1.14024,-0.6597 1.61125,-0.7877 3.11522,-0.8466 3.35418,-0.1313 10.79233,1.7552 17.29599,4.3868 2.29615,0.9291 5.38232,2.4702 6.69887,3.3451 0.99784,0.6631 1.20982,0.8654 1.94113,1.8528 0.45152,0.6096 0.89168,1.1465 0.97814,1.193 0.43492,0.234 0.5653,-0.2225 0.80249,-2.8098 0.1999,-2.1806 0.61987,-3.6054 1.4132,-4.7945 0.55446,-0.831 0.63918,-0.9076 1.62761,-1.471 0.88116,-0.5022 1.23456,-0.6321 2.281,-0.8378 1.75537,-0.3451 3.02845,-0.299 4.74357,0.1716 1.69069,0.464 2.86643,1.1038 4.36631,2.3759 2.09781,1.7793 3.65065,3.8229 5.46737,7.1952 1.63953,3.0433 2.64598,5.5188 3.75336,9.2315 0.60312,2.0221 0.64355,2.4094 0.59492,5.7006 -0.0454,3.0713 -0.008,3.972 0.22263,5.366 l 0.16441,0.9937 2.06477,3.7426 c 1.13562,2.0585 2.21697,4.1447 2.40299,4.636 0.46536,1.2291 0.89088,2.7542 0.994,3.5626 0.12099,0.9485 0.0249,2.501 -0.2019,3.2611 -0.38635,1.2951 -1.37601,3.3841 -2.246,4.741 -2.60917,4.0694 -5.58193,6.0173 -8.61243,5.6432 -1.38418,-0.1709 -2.56767,-0.7675 -4.47805,-2.2575 -0.23448,-0.1829 -0.25671,-0.1072 -0.33376,1.1361 -0.44892,7.244 -2.04502,13.0227 -4.83628,17.5099 -0.3971,0.6384 -0.69025,1.2157 -0.65143,1.2829 0.0388,0.067 0.58785,0.2546 1.2201,0.4164 2.49489,0.6385 8.3884,0.6182 11.50338,-0.04 3.42117,-0.7224 4.77508,-0.054 9.48774,4.6807 l 1.743,1.7514 m 0.017,19.5013 -3.45876,2.0383 -3.45875,2.0384 0.1111,0.7804 c 0.25251,1.7736 1.42595,5.2221 2.49443,7.3309 l 0.64011,1.2632 1.82208,-1.052 1.82207,-1.0519 m -20.25198,-19.9495 0.21006,-1.1729 c 0.75682,-4.2256 0.31202,-9.4883 -0.99297,-11.7487 -0.26499,-0.4589 -0.26708,-0.4482 -0.46175,2.3552 -0.24541,3.5344 -0.68854,5.5879 -1.27946,5.9291 m -33.45778,-33.5542 c -0.008,-0.014 -0.0306,-0.3364 -0.0512,-0.7172 -0.062,-1.145 -0.94312,-2.3041 -1.90099,-2.5008 -1.21354,-0.2492 -2.45501,0.523 -2.72757,1.6965 -0.14864,0.6399 -0.059,1.1079 0.34693,1.811 l 0.33651,0.5828 -0.47293,0.1236 c -0.69635,0.182 -1.19588,0.182 -2.00593,0 -1.49039,-0.335 -2.65819,-1.3154 -3.41418,-2.8662 -0.24294,-0.4983 -0.45977,-1.0203 -0.48183,-1.1599 -0.036,-0.2275 -0.0732,-0.2248 -0.35816,0.026 -0.17493,0.1538 -0.63857,0.6989 -1.03033,1.2115 -1.01483,1.3278 -0.97854,1.2998 -1.32394,1.0213 -0.50567,-0.4078 -0.74935,-1.4234 -0.55209,-2.3009 0.40764,-1.8134 2.47685,-5.0937 3.64903,-5.7847 0.32421,-0.1912 0.29709,-0.2048 -1.11794,-0.5635 -1.61465,-0.4091 -2.49811,-0.4592 -3.73399,-0.2114 l -0.83453,0.1673 0.40152,-0.4145 c 0.22083,-0.228 0.98858,-0.7552 1.70609,-1.1716 2.0162,-1.1701 4.1925,-1.823 6.61865,-1.9856 1.00937,-0.068 1.48665,0 3.17828,0.4442 1.7471,0.4598 2.32914,0.6943 4.75889,1.9178 1.52258,0.7667 3.25991,1.5434 3.86073,1.7261 l 1.09239,0.3321 -0.7516,0.4339 c -1.3907,0.803 -3.11031,1.0855 -4.60845,0.7572 l -0.84097,-0.1843 0.53157,0.9435 c 1.27607,2.2649 1.25722,4.8294 -0.0473,6.4298 -0.11714,0.1437 -0.21914,0.2502 -0.22668,0.2365 z m 12.03302,7.3467 c -0.29942,0.147 -0.54816,0.2242 -0.55275,0.1716 -0.034,-0.3895 0.32712,-5.2348 0.39604,-5.3139 0.18796,-0.2157 0.83118,-0.039 1.52549,0.42 0.3999,0.2642 0.7649,0.5458 0.81113,0.6259 0.11152,0.1932 -0.47689,2.6193 -0.72782,3.0009 -0.24411,0.3713 -0.74153,0.7466 -1.45209,1.0955 z m -13.45178,10.0569 c -1.52916,0.3984 -4.14936,-0.2486 -6.77737,-1.6736 -2.10057,-1.139 -4.87158,-3.2572 -7.30156,-5.5814 -1.04819,-1.0026 -1.12602,-1.1071 -2.1163,-2.8421 -0.98301,-1.7223 -1.07349,-1.9371 -2.06358,-4.8982 -0.56953,-1.7033 -1.2943,-3.7341 -1.6106,-4.5129 -0.77094,-1.8982 -2.84288,-5.479 -3.99496,-6.9043 -0.45832,-0.5671 -0.82408,-1.0655 -0.81279,-1.1076 0.0389,-0.1451 1.03555,-0.046 1.73689,0.1731 1.359,0.4241 2.62188,1.3647 4.1505,3.0914 1.82467,2.0611 2.76327,3.4665 5.94304,8.8988 3.19277,5.4546 3.53155,5.9574 5.56785,8.2631 1.9729,2.2339 5.42353,5.408 6.99605,6.4353 0.66459,0.4342 0.71276,0.5463 0.28284,0.6583 z m 24.64429,-1.5597 -0.86446,0.3998 c -2.49673,1.1549 -5.13497,1.2636 -7.5455,0.3109 -0.59255,-0.2341 -1.43252,-0.5168 -1.8666,-0.6281 -0.96654,-0.2477 -1.63126,-0.5985 -1.85003,-0.9761 -0.16044,-0.2769 -0.1435,-0.2992 0.60881,-0.8003 0.71016,-0.4732 0.8396,-0.6262 1.57409,-1.8615 1.73253,-2.9138 2.33824,-3.3116 4.25544,-2.7943 0.55574,0.1499 1.53243,0.1356 1.82545,-0.027 m -23.07305,-40.278 -1.65282,1.0474 c -2.94908,1.8689 -5.82652,4.3306 -8.10702,6.9358 -0.55317,0.6319 -1.07124,1.2335 -1.15126,1.3369 -0.26061,0.3366 -0.35787,-0.1232 -0.17244,-0.8152 0.2098,-0.783 0.8483,-1.8791 1.90945,-3.278 0.43062,-0.5677 1.27125,-1.6732 1.86807,-2.4567 0.59683,-0.7835 1.35422,-1.9604 1.6831,-2.6154 0.84002,-1.6729 1.50902,-4.2797 1.52331,-5.9357 l 0.0112,-1.3004 m -4.41544,-7.6477 -1.74207,-0.363 c -3.84691,-0.8016 -5.90156,-0.6588 -8.01212,0.5572 -1.14149,0.6576 -1.48783,1.0015 -2.29081,2.2745 -1.79083,2.8392 -3.87611,10.2241 -4.84892,17.1722 -0.34345,2.4531 -0.55193,5.8963 -0.45253,7.4739 0.0753,1.1957 0.14458,1.4805 0.63403,2.6075 0.3022,0.6958 0.54705,1.3455 0.54411,1.4436 -0.0148,0.4936 -0.47536,0.3783 -2.83464,-0.71 -1.988388,-0.9171 -3.432248,-1.2658 -4.858698,-1.1733 -0.99691,0.065 -1.10558,0.1 -2.08774,0.674 -0.87556,0.512 -1.16466,0.7532 -1.86605,1.5565 -1.17658,1.3477 -1.77323,2.4732 -2.22318,4.1939 -0.44354,1.6962 -0.47735,3.0343 -0.12557,4.9693 0.49202,2.7064 1.48539,5.073 3.49752,8.3325 1.81586,2.9415 3.45641,5.0508 6.11801,7.8662 1.449628,1.5334 1.764858,1.762 4.639418,3.3655 2.68251,1.4963 3.44388,1.979 4.53582,2.8758 l 0.77831,0.6392 2.20888,3.6595 c 1.21488,2.0127 2.4809,3.9923 2.81337,4.3991 0.83174,1.0175 1.93974,2.1486 2.58832,2.6421 0.76089,0.579 2.15342,1.272 2.92509,1.4557 1.31476,0.3129 3.61873,0.5004 5.22883,0.4254 4.8288,-0.2249 8.00209,-1.8255 9.19338,-4.637 0.54413,-1.2842 0.61919,-2.6074 0.28401,-5.0068 -0.0411,-0.2945 0.0355,-0.276 1.15078,0.279 6.49794,3.2332 12.30049,4.7403 17.58213,4.5666 0.7514,-0.025 1.39793,0.01 1.43674,0.077 0.0388,0.067 -0.0734,0.6364 -0.24944,1.2648 -0.69452,2.4799 -3.65884,7.5737 -5.786,9.9424 -2.33624,2.6016 -2.43473,4.1081 -0.69024,10.557 l 0.64521,2.3852 m 16.88017,9.7653 3.49463,-1.9762 3.49464,-1.9762 0.62033,0.4865 c 1.40968,1.1054 3.80949,3.8459 5.10147,5.8256 l 0.77397,1.186 -1.82209,1.052 -1.82206,1.052 m -7.15078,-27.5135 -1.12079,-0.4046 c -4.0379,-1.4573 -8.37315,-4.4739 -9.67815,-6.7342 -0.26498,-0.459 -0.25466,-0.4555 2.27047,0.7777 3.18366,1.5547 5.1836,2.1976 5.77452,1.8565 m 114.38298,51.6635 c 0.0156,0 0.30657,-0.1417 0.64668,-0.3142 1.0226,-0.5189 2.467,-0.3354 3.11629,0.3958 0.82257,0.9264 0.77458,2.3876 -0.10542,3.2104 -0.47993,0.4487 -0.92999,0.6051 -1.74185,0.6051 l -0.67301,0 0.12942,0.4713 c 0.1906,0.6941 0.44039,1.1267 1.0031,1.7371 1.03533,1.1232 2.46825,1.6444 4.18927,1.5237 0.55306,-0.039 1.11353,-0.112 1.24547,-0.1627 0.21495,-0.083 0.23127,-0.049 0.15685,0.3231 -0.0457,0.2283 -0.28597,0.9024 -0.53399,1.498 -0.64252,1.5427 -0.63642,1.4973 -0.22249,1.6572 0.60599,0.234 1.60733,-0.063 2.2687,-0.6724 1.36662,-1.2597 3.17283,-4.6918 3.18519,-6.0525 0.003,-0.3763 0.0288,-0.3597 1.0469,0.6865 1.1617,1.1937 1.64676,1.9338 2.05012,3.128 l 0.27238,0.8064 0.15823,-0.555 c 0.087,-0.3053 0.15973,-1.2338 0.1616,-2.0634 0.005,-2.3311 -0.51751,-4.5423 -1.58975,-6.7247 -0.4461,-0.9079 -0.74251,-1.2879 -1.97386,-2.5303 -1.27171,-1.2832 -1.76586,-1.67 -4.04032,-3.1624 -1.42526,-0.9353 -2.9666,-2.0515 -3.42519,-2.4805 l -0.83381,-0.78 0,0.8679 c 0,1.6058 0.61511,3.2363 1.64848,4.3696 l 0.58007,0.6362 -1.08285,0.011 c -2.59951,0.027 -4.81096,1.3259 -5.54472,3.2559 -0.0659,0.1733 -0.10705,0.3148 -0.0915,0.3145 z m -12.37895,-6.7475 c 0.0224,0.3328 0.0799,0.5868 0.12775,0.5645 0.35432,-0.1653 4.36989,-2.9007 4.40394,-3 0.0929,-0.2706 -0.38213,-0.7391 -1.12647,-1.1111 -0.42874,-0.2142 -0.85514,-0.3895 -0.94759,-0.3895 -0.22305,0 -2.02994,1.7226 -2.23499,2.1308 -0.19948,0.397 -0.27576,1.0154 -0.22264,1.8053 z m -1.98362,16.678 c 0.41951,1.5235 2.28993,3.4692 4.83803,5.0326 2.03669,1.2496 5.25662,2.5903 8.48444,3.5326 1.39233,0.4065 1.52179,0.4216 3.51948,0.4117 1.98303,-0.01 2.21428,-0.039 5.27373,-0.662 1.75987,-0.3584 3.88099,-0.7461 4.71358,-0.8616 2.02934,-0.2814 6.16643,-0.2775 7.97682,0.01 0.72023,0.1135 1.33471,0.181 1.36557,0.1502 0.1062,-0.1063 -0.47814,-0.9197 -1.01835,-1.4177 -1.04676,-0.9649 -2.4928,-1.5882 -4.75245,-2.0487 -2.69729,-0.5497 -4.38372,-0.6598 -10.67819,-0.6974 -6.32018,-0.038 -6.92499,-0.08 -9.93995,-0.6904 -2.92107,-0.5916 -7.39519,-1.9929 -9.07115,-2.8411 -0.70832,-0.3584 -0.82949,-0.3441 -0.71155,0.084 z m -10.97143,-22.1224 0.086,0.9485 c 0.24826,2.7397 1.47324,5.0788 3.5035,6.6901 0.49907,0.396 1.16383,0.9822 1.47723,1.3025 0.69785,0.7131 1.33396,1.1134 1.77044,1.114 0.31999,0 0.33078,-0.025 0.38867,-0.9274 0.0547,-0.8516 0.12249,-1.0402 0.82504,-2.2939 1.65718,-2.9573 1.69878,-3.6808 0.29219,-5.0825 -0.40773,-0.4063 -0.88367,-1.2593 -0.88955,-1.5942 m 46.41822,-0.1571 -0.0807,1.955 c -0.14394,3.4885 -0.83715,7.2112 -1.95305,10.4888 -0.27067,0.795 -0.53263,1.5445 -0.58213,1.6655 -0.16122,0.394 0.28562,0.2483 0.79221,-0.2583 0.57318,-0.5732 1.20321,-1.6742 1.8841,-3.2926 0.27632,-0.6568 0.81339,-1.9376 1.19353,-2.8462 0.38011,-0.9086 1.02066,-2.153 1.42344,-2.7653 1.02873,-1.5639 2.9518,-3.4467 4.37881,-4.287 l 1.12056,-0.6599 m 8.83087,0 1.18541,1.3271 c 2.61765,2.9308 3.52124,4.7816 3.52349,7.2173 10e-4,1.3174 -0.12342,1.7893 -0.82441,3.1212 -1.56334,2.9705 -6.91622,8.4688 -12.44707,12.7854 -1.95269,1.524 -4.83038,3.4261 -6.24632,4.1288 -1.07321,0.5327 -1.35441,0.6151 -2.57517,0.7547 -0.75373,0.086 -1.43873,0.199 -1.52224,0.2506 -0.42013,0.2596 -0.0899,0.6008 2.03213,2.0999 1.78849,1.2634 2.8124,2.3395 3.4455,3.6211 0.44246,0.8957 0.46641,1.0073 0.46013,2.145 -0.006,1.0143 -0.0699,1.3852 -0.41493,2.3943 -0.57882,1.6928 -1.25525,2.7723 -2.52041,4.0223 -1.24714,1.2322 -2.38908,1.9305 -4.24073,2.5934 -2.58984,0.9271 -5.13604,1.2501 -8.96491,1.1373 -3.45537,-0.1018 -6.10238,-0.4679 -9.87136,-1.3653 -2.05274,-0.4887 -2.4084,-0.6474 -5.23434,-2.3351 -2.63711,-1.5749 -3.43582,-1.9929 -4.75845,-2.4902 l -0.94272,-0.3544 -4.27364,-0.083 c -2.35051,-0.046 -4.69787,-0.1524 -5.21636,-0.237 -1.29709,-0.2115 -2.83062,-0.6055 -3.58231,-0.9204 -0.8819,-0.3695 -2.17831,-1.229 -2.72321,-1.8054 -0.92841,-0.9821 -2.24272,-2.8837 -2.98283,-4.3156 -2.21962,-4.2943 -2.42015,-7.8427 -0.58095,-10.2802 0.84005,-1.1133 1.94848,-1.8399 4.19404,-2.7494 0.27563,-0.1116 0.22124,-0.1687 -0.81701,-0.8571 -6.04902,-4.0107 -10.25548,-8.2823 -12.74585,-12.9432 -0.3543,-0.6631 -0.70769,-1.2056 -0.78531,-1.2056 -0.0776,0 -0.51442,0.3818 -0.97067,0.8484 -1.80037,1.8414 -4.72955,6.9555 -5.71738,9.982 -1.08493,3.3241 -2.34034,4.1626 -8.7975,5.8763 l -2.38822,0.6338 m -16.89712,-9.736 -0.0359,-4.0145 -0.0359,-4.0146 -0.73143,-0.294 c -1.66218,-0.6681 -5.23543,-1.3761 -7.59589,-1.5051 l -1.41407,-0.077 -1e-5,2.1039 0,2.104 m 27.40276,-7.564 0.91073,0.7684 c 3.28107,2.7682 8.06112,5.0143 10.67112,5.0143 0.52997,0 0.52174,-0.01 -1.80873,-1.5774 -2.93823,-1.9798 -4.49505,-3.3903 -4.49505,-4.0726 m 45.78769,-12.1982 c 0.0156,0 0.30658,0.1417 0.64668,0.3143 1.0226,0.5188 2.46701,0.3353 3.11628,-0.3959 0.82258,-0.9264 0.77459,-2.3876 -0.10541,-3.2104 -0.47992,-0.4487 -0.92999,-0.6051 -1.74185,-0.6051 l -0.67301,0 0.12942,-0.4713 c 0.1906,-0.6941 0.44038,-1.1267 1.00298,-1.7372 1.03533,-1.1232 2.46826,-1.6444 4.18927,-1.5237 0.55306,0.039 1.11351,0.112 1.24546,0.1627 0.21494,0.083 0.23126,0.049 0.15686,-0.323 -0.0457,-0.2284 -0.28597,-0.9025 -0.53401,-1.498 -0.64251,-1.5428 -0.63641,-1.4974 -0.22249,-1.6572 0.606,-0.2341 1.60734,0.063 2.2687,0.6723 1.36664,1.2597 3.17283,4.6918 3.1852,6.0525 0.003,0.3763 0.0288,0.3597 1.04691,-0.6865 1.16169,-1.1937 1.64675,-1.9338 2.05012,-3.128 l 0.27238,-0.8063 0.15822,0.555 c 0.087,0.3052 0.15974,1.2337 0.16161,2.0633 0.005,2.3311 -0.51753,4.5423 -1.58976,6.7247 -0.44611,0.908 -0.74224,1.2881 -1.97386,2.5304 -1.27171,1.2831 -1.76586,1.6699 -4.04032,3.1624 -1.42526,0.9352 -2.9666,2.0514 -3.4252,2.4804 l -0.83381,0.78 1e-5,-0.8679 c -1e-5,-1.6058 0.6151,-3.2363 1.64848,-4.3696 l 0.58008,-0.6362 -1.08287,-0.011 c -2.5995,-0.027 -4.81094,-1.3259 -5.54472,-3.2559 -0.0659,-0.1733 -0.10704,-0.3148 -0.0915,-0.3145 z m -12.37895,6.7476 c 0.0224,-0.3329 0.0799,-0.5869 0.12775,-0.5646 0.35432,0.1654 4.36989,2.9007 4.40394,3 0.0929,0.2706 -0.38211,0.7391 -1.12648,1.1111 -0.42872,0.2142 -0.85513,0.3895 -0.94758,0.3895 -0.22305,0 -2.02994,-1.7226 -2.23499,-2.1308 -0.19948,-0.397 -0.27576,-1.0154 -0.22264,-1.8052 z m -1.98361,-16.6781 c 0.4195,-1.5235 2.28992,-3.4691 4.83802,-5.0326 2.03671,-1.2496 5.25662,-2.5903 8.48444,-3.5326 1.39233,-0.4065 1.52178,-0.4216 3.51948,-0.4117 1.98303,0.01 2.21428,0.039 5.27374,0.662 1.75986,0.3584 3.88099,0.7461 4.71358,0.8616 2.02933,0.2814 6.16642,0.2775 7.97681,-0.01 0.72023,-0.1135 1.33473,-0.181 1.36557,-0.1502 0.10621,0.1063 -0.47814,0.9197 -1.01835,1.4177 -1.04676,0.9649 -2.4928,1.5882 -4.75247,2.0487 -2.69727,0.5497 -4.3837,0.6598 -10.67815,0.6974 -6.3202,0.038 -6.92501,0.08 -9.93997,0.6904 -2.92106,0.5916 -7.39519,1.9929 -9.07115,2.8411 -0.70832,0.3584 -0.82949,0.3441 -0.71155,-0.084 z m -10.97144,22.1224 0.086,-0.9485 c 0.24826,-2.7397 1.47324,-5.0788 3.5035,-6.6901 0.49907,-0.396 1.16383,-0.9822 1.47723,-1.3024 0.69784,-0.7132 1.33396,-1.1135 1.77044,-1.1141 0.31999,0 0.33078,0.025 0.38867,0.9274 0.0547,0.8516 0.12249,1.0402 0.82506,2.2939 1.65716,2.9573 1.69876,3.6808 0.29217,5.0825 -0.40773,0.4063 -0.88367,1.2593 -0.88955,1.5942 m 46.41822,0.1572 -0.0807,-1.9551 c -0.14395,-3.4885 -0.83713,-7.2113 -1.95303,-10.4888 -0.27069,-0.795 -0.53265,-1.5445 -0.58215,-1.6655 -0.16122,-0.394 0.28562,-0.2483 0.79222,0.2583 0.57317,0.5732 1.2032,1.6742 1.88409,3.2926 0.27632,0.6568 0.8134,1.9376 1.19352,2.8462 0.38012,0.9086 1.02067,2.153 1.42345,2.7653 1.02873,1.5639 2.9518,3.4467 4.37881,4.287 l 1.12056,0.66 m 8.83087,0 1.18542,-1.3272 c 2.61766,-2.9308 3.52123,-4.7816 3.52348,-7.2173 10e-4,-1.3174 -0.12342,-1.7893 -0.82441,-3.1212 -1.56335,-2.9705 -6.91622,-8.4688 -12.44707,-12.7854 -1.95269,-1.524 -4.83038,-3.4261 -6.24632,-4.1288 -1.07319,-0.5326 -1.35441,-0.6151 -2.57518,-0.7547 -0.75372,-0.086 -1.43872,-0.199 -1.52225,-0.2506 -0.42011,-0.2596 -0.0899,-0.6008 2.03215,-2.0999 1.78849,-1.2634 2.8124,-2.3395 3.4455,-3.6211 0.44246,-0.8957 0.46642,-1.0073 0.46013,-2.145 -0.006,-1.0143 -0.0699,-1.3852 -0.41493,-2.3943 -0.57882,-1.6928 -1.25523,-2.7723 -2.52041,-4.0223 -1.24715,-1.2322 -2.38907,-1.9305 -4.24073,-2.5934 -2.58983,-0.9271 -5.13604,-1.2501 -8.96491,-1.1373 -3.45537,0.1018 -6.10237,0.4679 -9.87136,1.3653 -2.05274,0.4887 -2.4084,0.6474 -5.23432,2.3351 -2.63713,1.5749 -3.43586,1.9929 -4.75847,2.4902 l -0.94272,0.3544 -4.27364,0.083 c -2.35051,0.046 -4.69787,0.1524 -5.21636,0.237 -1.29709,0.2115 -2.83062,0.6055 -3.58233,0.9204 -0.88188,0.3695 -2.17829,1.229 -2.72319,1.8054 -0.9284,0.9821 -2.24272,2.8837 -2.98282,4.3156 -2.21963,4.2943 -2.42016,7.8427 -0.58097,10.2802 0.84006,1.1133 1.94849,1.8399 4.19405,2.7494 0.27563,0.1116 0.22124,0.1687 -0.81702,0.8571 -6.04901,4.0107 -10.25547,8.2823 -12.74584,12.9432 -0.3543,0.6631 -0.70769,1.2056 -0.7853,1.2057 -0.0776,0 -0.51443,-0.3818 -0.97068,-0.8485 -1.80037,-1.8414 -4.72955,-6.9555 -5.71738,-9.982 -1.08493,-3.3241 -2.34034,-4.1626 -8.7975,-5.8763 l -2.38821,-0.6338 m -16.89714,9.736 -0.0359,4.0145 -0.0359,4.0146 -0.73144,0.294 c -1.66218,0.6681 -5.23543,1.3761 -7.59589,1.5051 l -1.41408,0.077 1e-5,-2.1039 0,-2.104 m 27.40276,7.564 0.91072,-0.7684 c 3.28107,-2.7682 8.06112,-5.0143 10.67112,-5.0144 0.52997,10e-5 0.52174,0.01 -1.80873,1.5775 -2.93823,1.9798 -4.49505,3.3903 -4.49505,4.0726 m 10.55279,-73.0886 c 0.008,-0.014 0.0306,-0.3364 0.0512,-0.7172 0.062,-1.145 0.94311,-2.3041 1.90099,-2.5008 1.21353,-0.2492 2.455,0.523 2.72757,1.6965 0.14864,0.6399 0.059,1.1079 -0.34694,1.811 l -0.3365,0.5828 0.47292,0.1236 c 0.69635,0.182 1.19589,0.1819 2.00594,-10e-5 1.49038,-0.335 2.65819,-1.3154 3.41417,-2.8662 0.24295,-0.4983 0.45977,-1.0203 0.48184,-1.1599 0.036,-0.2275 0.0732,-0.2248 0.35816,0.026 0.17492,0.1537 0.63857,0.6989 1.03032,1.2115 1.01484,1.3278 0.97855,1.2998 1.32395,1.0213 0.50567,-0.4078 0.74935,-1.4234 0.55208,-2.3009 -0.40763,-1.8134 -2.47684,-5.0937 -3.64902,-5.7848 -0.32421,-0.1911 -0.29709,-0.2048 1.11794,-0.5634 1.61464,-0.4092 2.49811,-0.4592 3.73399,-0.2114 l 0.83453,0.1673 -0.40153,-0.4145 c -0.22083,-0.228 -0.98857,-0.7553 -1.70609,-1.1717 -2.01619,-1.1701 -4.1925,-1.8229 -6.61864,-1.9856 -1.00938,-0.068 -1.48666,-10e-4 -3.17829,0.4443 -1.74709,0.4597 -2.32913,0.6943 -4.75888,1.9178 -1.52259,0.7667 -3.25991,1.5434 -3.86073,1.7261 l -1.09239,0.3321 0.7516,0.4339 c 1.3907,0.8029 3.1103,1.0855 4.60845,0.7572 l 0.84097,-0.1843 -0.53157,0.9435 c -1.27608,2.2649 -1.25722,4.8294 0.0473,6.4298 0.11713,0.1437 0.21914,0.2501 0.22667,0.2365 z m -12.03301,7.3467 c 0.29942,0.147 0.54815,0.2242 0.55275,0.1716 0.034,-0.3895 -0.32712,-5.2348 -0.39604,-5.3139 -0.18797,-0.2157 -0.83119,-0.039 -1.52549,0.42 -0.3999,0.2642 -0.76491,0.5458 -0.81113,0.6259 -0.11152,0.1932 0.47688,2.6193 0.72781,3.0009 0.24412,0.3713 0.74153,0.7466 1.4521,1.0955 z m 13.45177,10.0569 c 1.52917,0.3984 4.14937,-0.2486 6.77738,-1.6736 2.10057,-1.139 4.87158,-3.2572 7.30156,-5.5814 1.04819,-1.0026 1.12602,-1.1071 2.1163,-2.8421 0.983,-1.7223 1.07349,-1.9371 2.06358,-4.8982 0.56953,-1.7033 1.2943,-3.7341 1.6106,-4.5129 0.77094,-1.8982 2.84288,-5.479 3.99495,-6.9043 0.45833,-0.5671 0.82409,-1.0655 0.8128,-1.1076 -0.0389,-0.1451 -1.03557,-0.046 -1.7369,0.1731 -1.35899,0.4241 -2.62187,1.3647 -4.1505,3.0914 -1.82466,2.0611 -2.76326,3.4665 -5.94303,8.8989 -3.19277,5.4545 -3.53155,5.9573 -5.56786,8.263 -1.97289,2.2339 -5.42352,5.408 -6.99604,6.4353 -0.66459,0.4342 -0.71276,0.5463 -0.28284,0.6584 z m -24.64428,-1.5597 0.86446,0.3998 c 2.49673,1.1549 5.13497,1.2636 7.54549,0.3109 0.59255,-0.2341 1.43253,-0.5168 1.86661,-0.628 0.96653,-0.2478 1.63125,-0.5986 1.85003,-0.9762 0.16043,-0.2769 0.1435,-0.2992 -0.60881,-0.8004 -0.71016,-0.4731 -0.8396,-0.6261 -1.57409,-1.8614 -1.73253,-2.9138 -2.33824,-3.3116 -4.25544,-2.7943 -0.55574,0.1499 -1.53243,0.1356 -1.82545,-0.027 m 23.07305,-40.278 1.65281,1.0474 c 2.94909,1.8689 5.82653,4.3306 8.10702,6.9358 0.55318,0.6319 1.07124,1.2335 1.15126,1.3369 0.26061,0.3366 0.35788,-0.1232 0.17244,-0.8152 -0.20979,-0.783 -0.84829,-1.8791 -1.90944,-3.278 -0.43062,-0.5677 -1.27125,-1.6732 -1.86808,-2.4567 -0.59682,-0.7835 -1.35422,-1.9604 -1.6831,-2.6154 -0.84002,-1.6729 -1.50902,-4.2797 -1.5233,-5.9357 l -0.0112,-1.3004 m 4.41543,-7.6477 1.74208,-0.363 c 3.84691,-0.8016 5.90155,-0.6587 8.01212,0.5572 1.14149,0.6576 1.48782,1.0015 2.29081,2.2745 1.79082,2.8392 3.8761,10.2241 4.84892,17.1722 0.34345,2.4531 0.55193,5.8963 0.45253,7.4739 -0.0753,1.1957 -0.14458,1.4805 -0.63404,2.6075 -0.30219,0.6958 -0.54705,1.3455 -0.54411,1.4436 0.0148,0.4936 0.47537,0.3783 2.83464,-0.71 1.9884,-0.9171 3.43225,-1.2658 4.85871,-1.1733 0.99691,0.065 1.10558,0.1 2.08774,0.674 0.87555,0.512 1.16466,0.7532 1.86605,1.5565 1.17657,1.3477 1.77323,2.4732 2.22317,4.1939 0.44354,1.6962 0.47736,3.0343 0.12557,4.9693 -0.49202,2.7064 -1.48538,5.073 -3.49753,8.3325 -1.81584,2.9415 -3.4564,5.0508 -6.118,7.8662 -1.44963,1.5334 -1.76485,1.762 -4.63942,3.3655 -2.6825,1.4963 -3.44387,1.9791 -4.53582,2.8758 l -0.77831,0.6392 -2.20887,3.6595 c -1.21488,2.0127 -2.4809,3.9923 -2.81338,4.3991 -0.83172,1.0175 -1.93973,2.1486 -2.58832,2.6421 -0.76089,0.579 -2.15341,1.272 -2.92508,1.4557 -1.31476,0.3129 -3.61874,0.5004 -5.22884,0.4254 -4.82879,-0.2249 -8.00208,-1.8255 -9.19338,-4.637 -0.54413,-1.2842 -0.61919,-2.6074 -0.284,-5.0068 0.0411,-0.2945 -0.0355,-0.276 -1.15078,0.279 -6.49794,3.2332 -12.3005,4.7403 -17.58213,4.5666 -0.7514,-0.025 -1.39793,0.01 -1.43674,0.077 -0.0388,0.067 0.0734,0.6364 0.24944,1.2648 0.69451,2.4799 3.65884,7.5737 5.78599,9.9424 2.33624,2.6016 2.43474,4.1081 0.69024,10.557 l -0.64521,2.3852 m -16.88016,9.7653 -3.49463,-1.9762 -3.49465,-1.9762 -0.62032,0.4865 c -1.40968,1.1054 -3.8095,3.8459 -5.10146,5.8256 l -0.77398,1.186 1.82208,1.052 1.82207,1.052 m 7.15078,-27.5135 1.12079,-0.4046 c 4.03789,-1.4573 8.37315,-4.4739 9.67815,-6.7342 0.26498,-0.459 0.25466,-0.4555 -2.27047,0.7777 -3.18365,1.5547 -5.1836,2.1976 -5.77451,1.8565 m 12.32991,-45.7524 c 0.008,-0.013 0.276,-0.1947 0.59547,-0.4029 0.96061,-0.6262 1.52389,-1.9689 1.2153,-2.8968 -0.39096,-1.1755 -1.68041,-1.8646 -2.83299,-1.5139 -0.62856,0.1913 -0.98897,0.5029 -1.39491,1.206 l -0.3365,0.5828 -0.3435,-0.3477 c -0.50577,-0.5121 -0.7555,-0.9447 -1.00284,-1.7373 -0.45505,-1.4582 -0.18993,-2.9597 0.7751,-4.3898 0.31011,-0.4596 0.65375,-0.9084 0.76362,-0.9973 0.179,-0.1448 0.15807,-0.1758 -0.2013,-0.2973 -0.22059,-0.075 -0.92454,-0.2036 -1.56432,-0.2866 -1.65735,-0.215 -1.61496,-0.1975 -1.54644,-0.6359 0.10032,-0.6418 0.85799,-1.3607 1.71661,-1.6286 1.77428,-0.5537 5.64969,-0.4018 6.83424,0.2678 0.32763,0.1852 0.3259,0.1549 -0.0711,-1.2499 -0.45295,-1.6029 -0.85135,-2.393 -1.68386,-3.3394 l -0.56216,-0.6391 0.55975,0.1405 c 0.30786,0.077 1.14832,0.4785 1.86769,0.8917 2.02143,1.161 3.675,2.7193 5.0289,4.7391 0.56327,0.8403 0.74414,1.287 1.20443,2.9746 0.47538,1.7429 0.56327,2.3642 0.71857,5.0802 0.0973,1.7019 0.2933,3.5949 0.43552,4.2065 l 0.25859,1.1121 -0.7516,-0.4339 c -1.39071,-0.8029 -2.49519,-2.1509 -2.95997,-3.6125 l -0.2609,-0.8204 -0.55129,0.9321 c -1.32342,2.2376 -3.55373,3.5035 -5.592,3.1739 -0.18303,-0.03 -0.3262,-0.065 -0.31816,-0.078 z m -0.34594,14.0942 c -0.27704,-0.1858 -0.46829,-0.3625 -0.425,-0.3928 0.32032,-0.2242 4.69701,-2.3341 4.79998,-2.314 0.28082,0.055 0.44907,0.7005 0.39901,1.5311 -0.0288,0.4784 -0.0902,0.9353 -0.13646,1.0154 -0.11152,0.1932 -2.50681,0.8967 -2.9628,0.8702 -0.44359,-0.026 -1.01727,-0.269 -1.67473,-0.7099 z m -15.43539,-6.6211 c -1.10967,-1.1251 -1.85945,-3.7177 -1.93936,-6.7062 -0.0639,-2.3886 0.38505,-5.8475 1.18289,-9.114 0.34415,-1.409 0.39576,-1.5287 1.40318,-3.2538 1.00003,-1.7125 1.14078,-1.8982 3.21015,-4.2362 1.19034,-1.3449 2.58669,-2.988 3.10299,-3.6513 1.25839,-1.6167 3.32353,-5.2015 3.98185,-6.9119 0.26189,-0.6804 0.51064,-1.2464 0.55278,-1.2577 0.14509,-0.039 0.55741,0.874 0.71854,1.5908 0.31223,1.3889 0.12906,2.9529 -0.60197,5.1401 -0.87261,2.6107 -1.62044,4.1263 -4.73512,9.5962 -3.12743,5.4924 -3.39345,6.0371 -4.3721,8.9535 -0.94817,2.8255 -1.97167,7.4009 -2.07512,9.2764 -0.0437,0.7926 -0.11673,0.8904 -0.4287,0.5741 z m 13.67285,20.5627 -0.77851,-0.5487 c -2.24846,-1.5848 -3.66173,-3.8152 -4.04199,-6.3791 -0.0935,-0.6303 -0.26869,-1.499 -0.38937,-1.9306 -0.2687,-0.9609 -0.2973,-1.712 -0.0796,-2.0903 0.15956,-0.2773 0.18729,-0.2738 0.99749,0.1271 0.76481,0.3785 0.96209,0.414 2.39914,0.4325 3.3897,0.043 4.037,0.3692 4.54762,2.2882 0.14802,0.5562 0.64875,1.3949 0.93589,1.5675 m 23.34518,-40.1208 -1.73349,-0.9077 c -3.09303,-1.6195 -6.66366,-2.8806 -10.06006,-3.553 -0.82385,-0.1631 -1.60388,-0.311 -1.7334,-0.3286 -0.42182,-0.057 -0.0722,-0.3715 0.61977,-0.5569 0.78298,-0.2098 2.0515,-0.2049 3.79355,0.015 0.70692,0.089 2.08464,0.2644 3.06159,0.3895 0.97695,0.1251 2.3749,0.1925 3.10654,0.1499 1.86875,-0.109 4.46084,-0.833 5.90213,-1.6487 l 1.13177,-0.6404 m 4.41543,-7.6478 -0.55666,-1.6902 c -1.22925,-3.7323 -2.38032,-5.4402 -4.48863,-6.6601 -1.14023,-0.6597 -1.61125,-0.7877 -3.11521,-0.8466 -3.35418,-0.1313 -10.79234,1.7552 -17.296,4.3868 -2.29615,0.9291 -5.38231,2.4702 -6.69886,3.3451 -0.99785,0.6631 -1.20982,0.8654 -1.94113,1.8528 -0.45153,0.6096 -0.89169,1.1465 -0.97814,1.193 -0.43492,0.234 -0.5653,-0.2225 -0.8025,-2.8098 -0.1999,-2.1806 -0.61986,-3.6054 -1.4132,-4.7945 -0.55445,-0.831 -0.63917,-0.9076 -1.62761,-1.471 -0.88116,-0.5022 -1.23455,-0.6321 -2.28099,-0.8378 -1.75538,-0.3451 -3.02846,-0.299 -4.74357,0.1716 -1.69069,0.464 -2.86643,1.1037 -4.36631,2.3759 -2.09781,1.7793 -3.65066,3.8229 -5.46739,7.1952 -1.63951,3.0433 -2.64597,5.5188 -3.75334,9.2315 -0.60313,2.0221 -0.64355,2.4094 -0.59492,5.7006 0.0454,3.0713 0.008,3.972 -0.22264,5.366 l -0.1644,0.9937 -2.06477,3.7427 c -1.13563,2.0584 -2.21697,4.1446 -2.40299,4.6359 -0.46537,1.2291 -0.89087,2.7542 -0.994,3.5626 -0.12099,0.9485 -0.0249,2.501 0.20189,3.2611 0.38636,1.2951 1.37601,3.3841 2.24601,4.741 2.60917,4.0694 5.58193,6.0173 8.61242,5.6432 1.38419,-0.1709 2.56767,-0.7675 4.47805,-2.2575 0.23449,-0.1828 0.25671,-0.1072 0.33376,1.1361 0.44893,7.244 2.04502,13.0227 4.83629,17.5099 0.3971,0.6384 0.69024,1.2157 0.65143,1.2829 -0.0388,0.067 -0.58786,0.2546 -1.22011,0.4164 -2.49489,0.6385 -8.38839,0.6182 -11.50338,-0.04 -3.42117,-0.7224 -4.77507,-0.054 -9.48773,4.6807 l -1.74301,1.7514 m -0.017,19.5013 3.45876,2.0383 3.45876,2.0384 -0.11111,0.7804 c -0.25251,1.7736 -1.42593,5.2221 -2.49443,7.3309 l -0.6401,1.2632 -1.82208,-1.052 -1.82207,-1.0519 m 20.25198,-19.9495 -0.21006,-1.1729 c -0.75682,-4.2256 -0.31203,-9.4883 0.99297,-11.7487 0.26498,-0.4589 0.26708,-0.4482 0.46174,2.3552 0.24542,3.5344 0.68855,5.5879 1.27946,5.9291"
     inkscape:connector-curvature="0" />
</svg>
