<?xml version="1.0" encoding="UTF-8" standalone="no"?>
<!-- Created with Inkscape (http://www.inkscape.org/) -->

<svg
   xmlns:dc="http://purl.org/dc/elements/1.1/"
   xmlns:cc="http://creativecommons.org/ns#"
   xmlns:rdf="http://www.w3.org/1999/02/22-rdf-syntax-ns#"
   xmlns:svg="http://www.w3.org/2000/svg"
   xmlns="http://www.w3.org/2000/svg"
   xmlns:sodipodi="http://sodipodi.sourceforge.net/DTD/sodipodi-0.dtd"
   xmlns:inkscape="http://www.inkscape.org/namespaces/inkscape"
   id="svg6888"
   version="1.1"
   inkscape:version="0.91 r"
   width="467"
   height="1353"
   viewBox="0 0 467 1353"
   sodipodi:docname="snowflake-chewbacca-000.svg">
  <metadata
     id="metadata6894">
    <rdf:RDF>
      <cc:Work
         rdf:about="">
        <dc:format>image/svg+xml</dc:format>
        <dc:type
           rdf:resource="http://purl.org/dc/dcmitype/StillImage" />
        <dc:title />
      </cc:Work>
    </rdf:RDF>
  </metadata>
  <defs
     id="defs6892" />
  <sodipodi:namedview
     pagecolor="#ffffff"
     bordercolor="#666666"
     borderopacity="1"
     objecttolerance="10"
     gridtolerance="10"
     guidetolerance="10"
     inkscape:pageopacity="0"
     inkscape:pageshadow="2"
     inkscape:window-width="1600"
     inkscape:window-height="843"
     id="namedview6890"
     showgrid="false"
     inkscape:zoom="2.2340738"
     inkscape:cx="172.99102"
     inkscape:cy="1124.3119"
     inkscape:window-x="0"
     inkscape:window-y="0"
     inkscape:window-maximized="1"
     inkscape:current-layer="svg6888"
     showguides="true"
     inkscape:guide-bbox="true"
     inkscape:snap-center="true"
     inkscape:object-nodes="true">
    <sodipodi:guide
       position="389.46312,77.892624"
       orientation="0,1"
       id="guide4133" />
    <sodipodi:guide
       position="389.46312,77.892624"
       orientation="1,0"
       id="guide4135" />
  </sodipodi:namedview>
  <path
     id="path4154"
     style="fill:none;stroke:#00ff00;stroke-opacity:1;stroke-width:0.70866142;stroke-miterlimit:4;stroke-dasharray:none"
     d="m 95.241376,293.50385 c 0.53157,1.7016 0.25393,3.9093 -0.67621,5.3769 -0.41596,0.6564 -0.42412,0.7065 -0.16124,0.9917 0.49477,0.5368 2.61171,4.3123 2.54911,4.5462 -0.0435,0.1627 -0.34235,0.1645 -1.28718,0.01 -1.19562,-0.1987 -2.68223,-0.3105 -2.84875,-0.2144 -0.0452,0.026 0.0802,0.8255 0.27871,1.7763 0.4047,1.9387 0.58003,3.6122 0.42791,4.0844 -0.097,0.3011 -0.13201,0.2936 -0.80911,-0.1734 -0.38925,-0.2685 -1.40246,-0.7243 -2.25158,-1.0129 -3.54252,-1.2039 -4.56818,-1.7597 -5.38452,-2.9178 -0.61391,-0.8709 -0.61309,-0.8711 -3.21717,1.0135 l -0.56202,0.4067 -0.0424,-0.708 c -0.0233,-0.3895 -0.25957,-1.5741 -0.525,-2.6326 -0.50112,-1.9984 -0.52451,-2.2399 -0.31816,-3.2855 0.27341,-1.3854 0.37724,-3.7662 0.30026,-6.8842 -0.0609,-2.4664 0.0591,-3.6723 0.47417,-4.7629 0.71332,-1.8744 1.62139,-2.8957 3.57295,-4.0184 0.75278,-0.4331 1.63637,-0.8567 1.96353,-0.9414 0.5245,-0.1357 2.04971,-0.3992 2.07181,-0.3579 0.005,0.01 -0.13279,0.6032 -0.30525,1.3215 -0.17245,0.7183 -0.34866,1.8378 -0.39156,2.4878 l -0.078,1.1818 0.94115,0.052 c 2.79024,0.1541 5.4983,2.1654 6.27856,4.6632 z m 28.281674,-2.0134 c -1.11736,1.3265 -2.06071,2.2607 -2.59055,2.5654 -1.75397,1.0086 -6.78735,1.7273 -10.53047,1.5036 -2.04967,-0.1224 -4.77386,-0.7981 -6.02298,-1.4938 -0.83994,-0.4678 -0.84861,-0.4772 -0.75655,-0.8208 0.0921,-0.3435 0.10714,-0.3487 1.31579,-0.4524 3.71694,-0.3188 5.80693,-1.7063 7.26489,-4.8231 l 0.38734,-0.828 0.47847,0.046 c 1.13702,0.1086 2.23547,0.7419 3.44897,1.9886 1.50813,1.5493 2.19036,1.7263 5.61856,1.4578 1.16335,-0.091 2.12734,-0.1446 2.14219,-0.1189 0.0149,0.026 -0.32519,0.4649 -0.75566,0.976 z m -19.73641,-22.7845 0.25335,0.4388 c 0.30053,0.5205 0.464,1.2416 0.38014,1.6766 -0.0704,0.3652 -0.27936,0.4527 -1.66765,0.6988 -1.01347,0.1797 -1.95869,0.6264 -2.22188,1.0501 -0.826994,1.3315 2.27236,2.6238 3.96234,1.6522 0.51499,-0.2962 0.65038,-0.4627 1.04463,-1.2855 0.24913,-0.5199 0.48131,-0.9616 0.51597,-0.9816 0.0785,-0.045 1.43842,0.9339 1.75635,1.2647 0.20062,0.2088 0.17932,0.4424 -0.14722,1.6148 -0.42575,1.5286 -1.13545,2.8908 -2.03401,3.9039 -0.75606,0.8525 -1.29789,1.0959 -2.68903,1.2077 -1.1842,0.095 -4.536684,0.056 -5.772874,-0.067 -0.97925,-0.098 -1.41117,-0.4735 -2.01427,-1.7526 -0.44711,-0.9484 -0.42872,-0.9464 -0.80404,-0.086 l -0.20206,0.4633 -3.41277,-0.1452 -3.41278,-0.1452 m -11.73673,6.7777 -0.37425,0.8774 c -2.80343,6.5723 -2.88672,12.7541 -0.24882,18.4681 1.50148,3.2525 4.15864,6.3567 6.8482,8.0005 1.09103,0.6668 1.4655,1.0864 1.22959,1.3776 -0.68776,0.8491 -3.8037,1.1383 -6.23164,0.5783 -2.46456,-0.5684 -4.6059,-1.7377 -6.29178,-3.4357 -1.07578,-1.0835 -2.38702,-3.2937 -2.84213,-4.7908 -0.16923,-0.5567 -0.34807,-1.0229 -0.39742,-1.0362 -0.14294,-0.038 -0.8452,2.4789 -1.19102,4.2692 -0.68709,3.5568 -1.04376,7.7644 -0.89924,10.6078 0.0922,1.8143 0.12803,1.7876 -1.1662,0.8678 -2.8912,-2.0547 -4.28863,-6.2237 -4.36886,-13.0337 -0.0346,-2.9363 -0.0782,-3.6192 -0.23358,-3.6612 -0.27742,-0.075 -2.89727,1.4626 -4.00791,2.3521 -1.93839,1.5525 -3.83635,3.5908 -4.51095,4.8446 l -0.24788,0.4607 -0.0135,-0.3575 c -0.11699,-3.0987 1.7201,-9.0047 4.16944,-13.4042 l 0.81371,-1.4616 m -17.16106,9.9079 1.27316,2.0143 1.27316,2.0144 0.75986,0.4321 c 0.41792,0.2376 1.00384,0.6279 1.30205,0.8671 l 0.54221,0.4351 0.64162,2.1366 0.64162,2.1365 0.90867,1.2987 0.90867,1.2987 0.89106,0.1647 c 1.89785,0.3509 3.79789,0.8971 4.39876,1.2645 0.3453,0.2111 1.36693,1.1451 2.27028,2.0756 4.33054,4.4606 8.00752,6.3781 13.26937,6.92 4.37026,0.45 7.85407,0.7184 7.91266,0.6095 0.0343,-0.064 -0.38235,-0.8498 -0.92583,-1.7469 l -0.98814,-1.631 0.16071,-0.46 c 0.12967,-0.3712 0.28719,-0.5331 0.81571,-0.8382 0.89765,-0.5183 1.7064,-0.5423 3.90494,-0.1158 4.9543,0.9609 7.1991,1.0208 10.78839,0.2877 2.89183,-0.5906 6.03833,-1.7398 9.32483,-3.4057 1.08115,-0.5481 2.363444,-1.1101 2.849534,-1.2489 1.96213,-0.5606 5.82319,-0.9056 8.23286,-0.7357 l 1.14103,0.08 0.12173,-1.0012 c 0.067,-0.5506 0.11498,-1.3831 0.1067,-1.85 l -0.015,-0.8488 1.92707,-1.2845 c 3.2442,-2.1625 5.57131,-4.2795 6.54917,-5.958 0.22333,-0.3834 0.39148,-0.7223 0.37367,-0.7531 -0.0687,-0.119 -0.62198,-0.4157 -1.5488,-0.8306 -1.13146,-0.5065 -1.95085,-1.0203 -2.13444,-1.3383 -0.18298,-0.3169 0.14858,-1.03 1.15559,-2.4852 2.0586,-2.9749 5.2617,-6.36 8.49974,-8.9827 1.6889,-1.3679 6.08446,-3.9037 7.59918,-4.384 1.31918,-0.4183 2.64932,-0.6869 3.67992,-0.7431 l 0.78646,-0.043 m 2.8038,-4.8523 c -0.13019,-0.3288 -1.01354,-0.3138 -1.01354,-0.3138 -1.06911,-0.3311 -2.76185,-1.3546 -2.89996,-1.7535 -0.18696,-0.5399 1.52417,-2.5249 3.47185,-4.0275 1.08899,-0.8402 3.70631,-2.3449 4.86948,-2.7995 l 0.9308,-0.3638 m 7.7813,-13.5163 -1.73242,0.1034 c -3.64158,0.2173 -6.53824,-0.7192 -8.53996,-2.7612 -0.32143,-0.3279 -0.66576,-0.7371 -0.76518,-0.9092 l -0.18076,-0.3131 1.83293,-0.9702 c 1.00812,-0.5336 2.47406,-1.2216 3.25764,-1.5289 1.61685,-0.6342 5.9048,-3.0157 6.11901,-3.3985 0.11334,-0.2026 0.0488,-0.2651 -0.63906,-0.6187 -1.11077,-0.5709 -2.44281,-1.5369 -3.26571,-2.3682 -0.6766,-0.6835 -1.86001,-2.4663 -1.79591,-2.7055 0.0155,-0.058 0.39324,-0.043 0.83935,0.034 2.18064,0.3751 5.11247,-0.2324 9.31043,-1.9293 l 0.59129,-0.239 0.0351,1.1468 c 0.0193,0.6307 -0.0183,1.3708 -0.0837,1.6445 -0.10409,0.4361 -0.0875,0.5018 0.13386,0.5305 0.13897,0.018 0.85241,0.1115 1.58544,0.2077 l 1.33277,0.1748 m -41.64746,10.9889 0.41694,0.5569 c 0.36709,0.4904 1.70847,1.9912 2.12833,2.3814 0.0873,0.081 0.0316,1.1105 -0.1305,2.4126 -0.15554,1.2491 -0.26362,2.3022 -0.24019,2.3403 0.0235,0.038 0.90023,-0.1309 1.94842,-0.3754 2.17307,-0.5069 2.5946,-0.4708 3.79949,0.3251 0.90179,0.5957 1.52729,1.6 1.96136,3.149 0.62996,2.2481 0.11095,4.2901 -1.53177,6.0267 -1.3191,1.3944 -3.62655,2.6938 -5.57638,3.1402 -2.93407,0.6718 -6.74073,0.1012 -9.42955,-1.4135 -1.02162,-0.5754 -1.13879,-0.7311 -0.60416,-0.8026 0.90557,-0.1211 4.24358,-2.3026 5.51581,-3.6047 0.66507,-0.6807 0.52511,-0.8876 -0.51797,-0.7656 -2.32947,0.2725 -3.90246,0.057 -5.7625,-0.7905 l -0.94344,-0.4297 -0.0893,-0.9662 c -0.1975,-2.1373 -0.35381,-2.5326 -1.37153,-3.4683 -0.35393,-0.3254 -0.71488,-0.7152 -0.80212,-0.8663 m -30.907524,-2.3553 c -1.20789,-1.3112 -3.2586,-2.1746 -4.9947,-2.1029 -0.77639,0.032 -0.82391,0.014 -0.93947,-0.3562 -0.21749,-0.6969 -2.42861,-4.4179 -2.66252,-4.4807 -0.16269,-0.044 -0.31359,0.2143 -0.65006,1.111 -0.42578,1.1348 -1.07219,2.4782 -1.23871,2.5743 -0.0452,0.026 -0.67477,-0.4822 -1.399,-1.1295 -1.47659,-1.3198 -2.83821,-2.3084 -3.32323,-2.4128 -0.30925,-0.066 -0.32026,-0.033 -0.25435,0.7874 0.0379,0.4714 -0.074,1.5767 -0.24863,2.4564 -0.72859,3.6699 -0.76009,4.836 -0.16535,6.122 0.44724,0.9671 0.44787,0.9665 -2.48629,2.2794 l -0.63326,0.2834 0.592,0.3907 c 0.3256,0.215 1.23341,1.0119 2.01737,1.771 1.48012,1.4332 1.67753,1.5742 2.68622,1.9183 1.33653,0.4559 3.45023,1.5564 6.11202,3.182 2.10557,1.286 3.20988,1.785 4.36188,1.9708 1.98,0.3195 3.31851,0.044 5.26658,-1.085 0.75144,-0.4354 1.56008,-0.9888 1.797,-1.2298 0.37981,-0.3863 1.37059,-1.5755 1.34585,-1.6153 -0.005,-0.01 -0.5888,-0.1866 -1.29708,-0.3964 -0.70829,-0.2098 -1.76589,-0.6169 -2.35024,-0.9048 l -1.06245,-0.5233 0.42556,-0.841 c 1.26169,-2.4935 0.87388,-5.8444 -0.89914,-7.769 z m 15.88447,-23.486 c -1.7075,0.3044 -2.98822,0.6543 -3.517,0.9608 -1.75043,1.0147 -4.88954,5.0144 -6.5674,8.3679 -0.91877,1.8363 -1.69573,4.5333 -1.71779,5.9629 -0.0148,0.9613 -0.011,0.9736 0.33254,1.0656 0.34356,0.092 0.35559,0.082 1.0497,-0.9133 2.13457,-3.0595 4.38121,-4.1758 7.80937,-3.88 l 0.91077,0.079 0.19967,-0.4372 c 0.47451,-1.039 0.47527,-2.307 0.002,-3.9812 -0.58771,-2.0808 -0.39989,-2.7601 1.54674,-5.5948 0.66058,-0.9619 1.18891,-1.77 1.17406,-1.7957 -0.0149,-0.026 -0.56521,0.049 -1.22303,0.1664 z m 9.863764,28.4845 -0.25336,-0.4388 c -0.30053,-0.5205 -0.84321,-1.0226 -1.26194,-1.1675 -0.35141,-0.1216 -0.53173,0.016 -1.43898,1.0948 -0.66231,0.7879 -1.521804,1.3831 -2.020364,1.3992 -1.56658,0.05 -1.13606,-3.2798 0.55039,-4.2576 0.51393,-0.2979 0.725884,-0.3319 1.635524,-0.2619 0.5748,0.044 1.07344,0.064 1.1081,0.044 0.0785,-0.045 -0.0896,-1.7126 -0.21711,-2.1534 -0.0805,-0.2781 -0.29348,-0.3765 -1.47207,-0.6799 -1.536674,-0.3956 -3.071174,-0.462 -4.397894,-0.1904 -1.11631,0.2285 -1.59796,0.5761 -2.39041,1.7249 -0.67456,0.9779 -2.31714,3.9007 -2.82849,5.0329 -0.40505,0.8969 -0.29554,1.4588 0.51071,2.6207 0.59772,0.8614 0.60522,0.8445 -0.32779,0.7392 l -0.50228,-0.057 -1.58066,3.0282 -1.58065,3.0281 m -11.73805,6.7755 -0.94696,-0.1146 c -7.09346,-0.8583 -12.48874,-3.8771 -16.11827,-9.0186 -2.06592,-2.9265 -3.4257,-6.7798 -3.50451,-9.931 -0.032,-1.2782 -0.20807,-1.8123 -0.57825,-1.7536 -1.07924,0.171 -2.88763,2.7249 -3.61664,5.1076 -0.73999,2.4186 -0.79802,4.8577 -0.17049,7.1667 0.40043,1.4734 1.65897,3.7141 2.72789,4.8567 0.39748,0.4249 0.71187,0.813 0.69865,0.8623 -0.0383,0.1429 -2.56938,-0.5075 -4.29268,-1.1031 -3.42388,-1.1834 -7.24606,-2.9783 -9.63631,-4.5252 -1.52506,-0.987 -1.48408,-1.0046 -1.33463,0.5761 0.33387,3.5312 3.2456,6.8259 9.10314,10.3004 2.52561,1.4981 3.09524,1.8773 3.05387,2.0329 -0.0738,0.2777 -2.71526,1.7778 -4.04093,2.2949 -2.31367,0.9024 -5.0279,1.527 -6.451,1.4843 l -0.52292,-0.016 0.30287,0.1905 c 2.62502,1.6506 8.65833,3.0127 13.69309,3.0912 l 1.67262,0.026 m -17.16105,9.908 -1.10787,-2.1098 -1.10787,-2.1097 0.006,-0.8742 c 0.003,-0.4807 -0.0418,-1.1832 -0.1,-1.5611 l -0.10566,-0.6871 -1.52952,-1.624 -1.52952,-1.6239 -0.67034,-1.4363 -0.67034,-1.4363 0.30285,-0.854 c 0.64503,-1.8191 1.12204,-3.7376 1.10432,-4.4417 -0.0102,-0.4046 -0.30827,-1.7564 -0.66241,-3.0039 -1.69771,-5.9807 -1.51986,-10.1238 0.6418,-14.9516 1.7954,-4.0098 3.30491,-7.161 3.42853,-7.1573 0.0723,0 0.54474,0.756 1.04988,1.6752 l 0.91843,1.6712 0.47875,0.091 c 0.38631,0.073 0.60524,0.018 1.13376,-0.2873 0.89765,-0.5183 1.3228,-1.2067 2.05277,-3.3239 1.64495,-4.771 2.7155,-6.745 5.145,-9.4869 1.95741,-2.2091 4.5259,-4.3594 7.61188,-6.3727 1.01517,-0.6622 2.14304,-1.4917 2.50636,-1.8433 1.46652,-1.4189 3.69585,-4.5902 4.75353,-6.762 l 0.50083,-1.0284 0.92795,0.3952 c 0.51037,0.2173 1.25535,0.592 1.6555,0.8326 l 0.72756,0.4374 2.07596,-1.0266 c 3.49486,-1.7283 6.49184,-2.6852 8.43438,-2.6928 0.44366,0 0.82122,0.022 0.83904,0.053 0.0687,0.119 0.049,0.7465 -0.0551,1.7566 -0.12708,1.2331 -0.0919,2.1996 0.0917,2.5176 0.18298,0.3169 0.96629,0.3863 2.73006,0.2418 3.60565,-0.2953 8.13878,-1.3767 12.02911,-2.8696 2.0291,-0.7787 6.42298,-3.3174 7.59627,-4.3891 1.021814,-0.9333 1.919484,-1.9509 2.483464,-2.8153 l 0.43038,-0.6597 m 5.60412,0 c 0.21969,0.2772 -0.23496,1.0347 -0.23496,1.0347 -0.24785,1.0914 -0.20784,3.0691 0.0685,3.3882 0.37411,0.4319 2.94876,-0.058 5.22391,-0.993 1.27209,-0.523 3.88384,-2.0373 4.85911,-2.8173 l 0.78045,-0.6242 m 15.59612,0.019 -0.95573,1.4486 c -2.00898,3.0451 -2.64622,6.022 -1.87871,8.7765 0.12325,0.4423 0.30543,0.9451 0.40485,1.1173 l 0.18077,0.3131 1.75665,-1.1023 c 0.96616,-0.6063 2.29497,-1.5318 2.95292,-2.0567 1.3576,-1.0832 5.56401,-3.6059 6.00266,-3.6 0.2321,0 0.25396,0.09 0.21624,0.8627 -0.0609,1.2475 0.10964,2.884 0.41812,4.0124 0.25365,0.9277 1.20588,2.8439 1.44509,2.908 0.058,0.015 0.23353,-0.3192 0.39013,-0.7439 0.76545,-2.0761 2.75751,-4.3114 6.32604,-7.0985 l 0.50264,-0.3925 -0.97563,-0.6038 c -0.53659,-0.3321 -1.19632,-0.6695 -1.46605,-0.7498 -0.4297,-0.1279 -0.4783,-0.1751 -0.39248,-0.3812 0.0539,-0.1294 0.32967,-0.7939 0.61288,-1.4768 l 0.51492,-1.2417 m -30.34032,30.5733 -0.27388,-0.6395 c -0.24113,-0.5631 -0.8702,-2.4752 -0.99811,-3.0339 -0.0266,-0.1162 -0.94596,-0.5827 -2.15467,-1.0933 -1.15954,-0.4898 -2.12562,-0.9228 -2.14683,-0.9621 -0.0212,-0.039 0.56347,-0.7142 1.29931,-1.4997 1.5255,-1.6285 1.70503,-2.0116 1.61817,-3.453 -0.065,-1.0788 -0.62198,-2.1227 -1.74646,-3.2731 -1.63194,-1.6696 -3.65983,-2.2411 -5.98509,-1.6868 -1.86716,0.4452 -4.14621,1.7938 -5.50773,3.2592 -2.04879,2.2051 -3.45796,5.7871 -3.49068,8.873 -0.0124,1.1724 0.0638,1.3517 0.39301,0.9245 0.55765,-0.7237 4.11588,-2.5238 5.87971,-2.9745 0.92206,-0.2356 1.03123,-0.011 0.40401,0.8314 -1.40076,1.8811 -2.00039,3.3512 -2.19668,5.3857 l -0.0996,1.0319 0.79215,0.5604 c 1.75216,1.2397 2.01633,1.5727 2.3178,2.9219 0.10484,0.4692 0.262,0.9768 0.34924,1.1279 m 159.27506,-1.829 c 1.20789,-1.3112 3.2586,-2.1746 4.9947,-2.1029 0.7764,0.032 0.82391,0.014 0.93947,-0.3562 0.21749,-0.6969 2.42862,-4.4179 2.66252,-4.4807 0.1627,-0.044 0.3136,0.2143 0.65007,1.111 0.42577,1.1348 1.07219,2.4782 1.23871,2.5743 0.0452,0.026 0.67476,-0.4822 1.39899,-1.1295 1.4766,-1.3198 2.83822,-2.3084 3.32323,-2.4128 0.30925,-0.066 0.32027,-0.033 0.25436,0.7874 -0.0379,0.4714 0.074,1.5767 0.24863,2.4564 0.72858,3.6699 0.76008,4.836 0.16534,6.122 -0.44724,0.9671 -0.44787,0.9665 2.48629,2.2794 l 0.63326,0.2834 -0.592,0.3907 c -0.32559,0.215 -1.23342,1.0119 -2.01737,1.771 -1.48011,1.4332 -1.67753,1.5742 -2.68621,1.9183 -1.33653,0.4559 -3.45024,1.5564 -6.11203,3.182 -2.10557,1.286 -3.20988,1.785 -4.36187,1.9708 -1.98,0.3195 -3.31852,0.044 -5.26659,-1.085 -0.75143,-0.4354 -1.56008,-0.9888 -1.797,-1.2298 -0.3798,-0.3863 -1.37059,-1.5755 -1.34585,-1.6153 0.005,-0.01 0.58881,-0.1866 1.29709,-0.3964 0.70828,-0.2098 1.76588,-0.6169 2.35024,-0.9047 l 1.06245,-0.5234 -0.42557,-0.841 c -1.26169,-2.4935 -0.87388,-5.8444 0.89914,-7.769 z m -15.88447,-23.486 c 1.70751,0.3044 2.98823,0.6543 3.517,0.9608 1.75044,1.0147 4.88954,5.0144 6.56741,8.3679 0.91877,1.8363 1.69572,4.5333 1.71779,5.9629 0.0148,0.9613 0.0111,0.9736 -0.33254,1.0656 -0.34357,0.092 -0.35559,0.082 -1.0497,-0.9133 -2.13458,-3.0595 -4.38121,-4.1758 -7.80938,-3.88 l -0.91077,0.079 -0.19966,-0.4372 c -0.47452,-1.039 -0.47527,-2.307 -0.002,-3.9812 0.5877,-2.0808 0.39989,-2.7601 -1.54674,-5.5948 -0.66059,-0.9619 -1.18892,-1.77 -1.17407,-1.7957 0.0149,-0.026 0.56522,0.049 1.22303,0.1664 z m -9.86375,28.4845 0.25335,-0.4388 c 0.30053,-0.5205 0.84322,-1.0226 1.26194,-1.1675 0.35142,-0.1216 0.53174,0.016 1.43898,1.0948 0.66231,0.7879 1.5218,1.3831 2.02036,1.3992 1.56658,0.05 1.13607,-3.2798 -0.55038,-4.2576 -0.51394,-0.2979 -0.72588,-0.3319 -1.63553,-0.2619 -0.5748,0.044 -1.07344,0.064 -1.1081,0.044 -0.0785,-0.045 0.0896,-1.7126 0.21712,-2.1534 0.0805,-0.2781 0.29347,-0.3765 1.47206,-0.6799 1.53668,-0.3956 3.07117,-0.462 4.39789,-0.1904 1.11631,0.2285 1.59797,0.5761 2.39041,1.7249 0.67456,0.9779 2.31714,3.9007 2.82849,5.0329 0.40506,0.8969 0.29554,1.4588 -0.5107,2.6207 -0.59772,0.8614 -0.60522,0.8445 0.32779,0.7392 l 0.50228,-0.057 1.58065,3.0282 1.58066,3.0281 m 11.73805,6.7755 0.94695,-0.1146 c 7.09347,-0.8583 12.48874,-3.8771 16.11828,-9.0186 2.06592,-2.9265 3.4257,-6.7798 3.5045,-9.931 0.032,-1.2782 0.20808,-1.8123 0.57826,-1.7536 1.07923,0.171 2.88762,2.7249 3.61664,5.1076 0.73999,2.4186 0.79801,4.8577 0.17049,7.1667 -0.40044,1.4734 -1.65897,3.7141 -2.7279,4.8567 -0.39748,0.4249 -0.71187,0.813 -0.69865,0.8623 0.0383,0.143 2.56938,-0.5075 4.29268,-1.1031 3.42388,-1.1834 7.24606,-2.9783 9.63631,-4.5252 1.52506,-0.987 1.48408,-1.0046 1.33464,0.5761 -0.33387,3.5312 -3.24561,6.8259 -9.10314,10.3004 -2.52562,1.4981 -3.09524,1.8773 -3.05387,2.0329 0.0738,0.2777 2.71526,1.7778 4.04092,2.2949 2.31367,0.9024 5.02791,1.527 6.45101,1.4843 l 0.52291,-0.016 -0.30287,0.1905 c -2.62502,1.6506 -8.65833,3.0127 -13.69308,3.0912 l -1.67263,0.026 m 17.16105,9.908 1.10787,-2.1098 1.10787,-2.1097 -0.006,-0.8742 c -0.003,-0.4807 0.0418,-1.1832 0.0999,-1.5611 l 0.10566,-0.6871 1.52952,-1.624 1.52952,-1.6239 0.67033,-1.4363 0.67034,-1.4363 -0.30284,-0.854 c -0.64504,-1.8191 -1.12204,-3.7376 -1.10432,-4.4417 0.0101,-0.4046 0.30827,-1.7564 0.66241,-3.0039 1.6977,-5.9807 1.51986,-10.1238 -0.64181,-14.9516 -1.79539,-4.0098 -3.30491,-7.161 -3.42852,-7.1573 -0.0723,0 -0.54475,0.756 -1.04987,1.6752 l -0.91843,1.6712 -0.47876,0.091 c -0.38632,0.073 -0.60525,0.018 -1.13377,-0.2873 -0.89764,-0.5183 -1.32279,-1.2067 -2.05276,-3.3239 -1.64495,-4.771 -2.71551,-6.745 -5.14501,-9.4869 -1.95741,-2.2091 -4.52589,-4.3594 -7.61187,-6.3727 -1.01517,-0.6622 -2.14305,-1.4917 -2.50636,-1.8433 -1.46652,-1.4189 -3.69585,-4.5902 -4.75353,-6.762 l -0.50083,-1.0284 -0.92796,0.3952 c -0.51036,0.2173 -1.25533,0.592 -1.6555,0.8326 l -0.72755,0.4374 -2.07596,-1.0266 c -3.49485,-1.7283 -6.49184,-2.6852 -8.43438,-2.6928 -0.44366,0 -0.82123,0.022 -0.83905,0.053 -0.0687,0.119 -0.049,0.7465 0.0551,1.7566 0.12707,1.2331 0.0919,2.1996 -0.0917,2.5176 -0.18298,0.3169 -0.96628,0.3863 -2.73006,0.2418 -3.60566,-0.2953 -8.13879,-1.3767 -12.02911,-2.8696 -2.02911,-0.7787 -6.42299,-3.3174 -7.59627,-4.3891 -1.02182,-0.9333 -1.91948,-1.9509 -2.48347,-2.8153 l -0.43038,-0.6597 m -5.60412,0 c -0.21969,0.2772 0.23497,1.0347 0.23497,1.0347 0.24784,1.0914 0.20784,3.0691 -0.0685,3.3882 -0.37411,0.4319 -2.94876,-0.058 -5.22391,-0.993 -1.27209,-0.523 -3.88384,-2.0373 -4.85912,-2.8173 l -0.78044,-0.6242 m -15.59613,0.019 0.95574,1.4486 c 2.00898,3.0451 2.64622,6.022 1.8787,8.7765 -0.12324,0.4423 -0.30543,0.9451 -0.40485,1.1173 l -0.18076,0.3131 -1.75665,-1.1023 c -0.96616,-0.6063 -2.29498,-1.5318 -2.95292,-2.0567 -1.3576,-1.0832 -5.56402,-3.6059 -6.00266,-3.6 -0.2321,0 -0.25396,0.09 -0.21624,0.8627 0.0609,1.2475 -0.10964,2.884 -0.41813,4.0124 -0.25364,0.9277 -1.20588,2.8439 -1.44509,2.908 -0.058,0.015 -0.23353,-0.3192 -0.39013,-0.7439 -0.76545,-2.0761 -2.7575,-4.3114 -6.32603,-7.0985 l -0.50264,-0.3925 0.97563,-0.6038 c 0.53659,-0.3321 1.19631,-0.6695 1.46605,-0.7498 0.4297,-0.1279 0.4783,-0.1751 0.39247,-0.3812 -0.0539,-0.1294 -0.32967,-0.7939 -0.61287,-1.4768 l -0.51493,-1.2417 m 30.34032,30.5733 0.27388,-0.6395 c 0.24114,-0.5631 0.8702,-2.4752 0.99812,-3.0339 0.0266,-0.1162 0.94596,-0.5827 2.15466,-1.0933 1.15955,-0.4898 2.12562,-0.9228 2.14684,-0.9621 0.0212,-0.039 -0.56348,-0.7142 -1.29931,-1.4997 -1.5255,-1.6285 -1.70503,-2.0116 -1.61817,-3.453 0.065,-1.0788 0.62198,-2.1227 1.74645,-3.2731 1.63194,-1.6696 3.65983,-2.2411 5.9851,-1.6868 1.86716,0.4452 4.1462,1.7938 5.50773,3.2592 2.04879,2.2051 3.45796,5.7871 3.49068,8.873 0.0124,1.1724 -0.0638,1.3517 -0.39301,0.9245 -0.55766,-0.7237 -4.11588,-2.5238 -5.87972,-2.9745 -0.92205,-0.2356 -1.03122,-0.011 -0.404,0.8314 1.40075,1.8811 2.00038,3.3512 2.19667,5.3857 l 0.0996,1.0319 -0.79216,0.5604 c -1.75215,1.2397 -2.01632,1.5727 -2.31779,2.9219 -0.10485,0.4692 -0.262,0.9768 -0.34924,1.1279 m 13.41398,27.9443 c -0.53157,1.7016 -0.25393,3.9093 0.67621,5.3769 0.41596,0.6564 0.42412,0.7065 0.16125,0.9917 -0.49477,0.5368 -2.61172,4.3123 -2.54912,4.5462 0.0435,0.1627 0.34236,0.1645 1.28718,0.01 1.19563,-0.1987 2.68223,-0.3105 2.84875,-0.2144 0.0452,0.026 -0.0802,0.8255 -0.2787,1.7763 -0.40471,1.9387 -0.58004,3.6122 -0.42792,4.0844 0.097,0.3011 0.13202,0.2936 0.80911,-0.1734 0.38925,-0.2685 1.40246,-0.7243 2.25159,-1.0129 3.54251,-1.2039 4.56817,-1.7597 5.38452,-2.9178 0.6139,-0.8709 0.61309,-0.8711 3.21716,1.0135 l 0.56203,0.4067 0.0424,-0.708 c 0.0233,-0.3895 0.25956,-1.5741 0.52499,-2.6326 0.50113,-1.9984 0.52451,-2.2399 0.31817,-3.2855 -0.27342,-1.3854 -0.37725,-3.7662 -0.30026,-6.8842 0.0609,-2.4664 -0.0592,-3.6723 -0.47418,-4.7629 -0.71331,-1.8744 -1.62138,-2.8957 -3.57295,-4.0184 -0.75277,-0.4331 -1.63637,-0.8567 -1.96353,-0.9414 -0.52449,-0.1357 -2.04971,-0.3992 -2.07181,-0.3579 -0.005,0.01 0.1328,0.6032 0.30525,1.3215 0.17246,0.7183 0.34866,1.8378 0.39156,2.4878 l 0.078,1.1818 -0.94114,0.052 c -2.79024,0.1541 -5.49831,2.1654 -6.27857,4.6632 z m -28.28167,-2.0134 c 1.11736,1.3265 2.06072,2.2607 2.59056,2.5654 1.75396,1.0086 6.78734,1.7273 10.53046,1.5036 2.04967,-0.1224 4.77386,-0.7981 6.02298,-1.4938 0.83994,-0.4678 0.84861,-0.4772 0.75655,-0.8208 -0.0921,-0.3435 -0.10713,-0.3487 -1.31579,-0.4524 -3.71694,-0.3188 -5.80693,-1.7063 -7.26489,-4.8231 l -0.38733,-0.828 -0.47847,0.046 c -1.13703,0.1086 -2.23547,0.7419 -3.44897,1.9886 -1.50813,1.5493 -2.19037,1.7263 -5.61856,1.4578 -1.16336,-0.091 -2.12734,-0.1446 -2.1422,-0.1189 -0.0148,0.026 0.3252,0.4649 0.75566,0.976 z m 19.73642,-22.7845 -0.25336,0.4388 c -0.30053,0.5205 -0.464,1.2416 -0.38013,1.6766 0.0704,0.3652 0.27936,0.4527 1.66764,0.6988 1.01348,0.1797 1.95869,0.6264 2.22188,1.0501 0.827,1.3315 -2.27236,2.6238 -3.96233,1.6522 -0.51499,-0.2962 -0.65038,-0.4627 -1.04464,-1.2855 -0.24912,-0.5199 -0.48131,-0.9616 -0.51597,-0.9816 -0.0786,-0.045 -1.43841,0.9339 -1.75635,1.2647 -0.20062,0.2088 -0.17932,0.4424 0.14722,1.6148 0.42575,1.5286 1.13545,2.8908 2.03402,3.9039 0.75605,0.8525 1.29788,1.0959 2.68903,1.2077 1.1842,0.095 4.53667,0.056 5.77287,-0.067 0.97924,-0.098 1.41116,-0.4735 2.01426,-1.7526 0.44712,-0.9484 0.42872,-0.9464 0.80405,-0.086 l 0.20205,0.4633 3.41277,-0.1452 3.41278,-0.1452 m 11.73673,6.7777 0.37425,0.8774 c 2.80343,6.5723 2.88672,12.7541 0.24883,18.4681 -1.50148,3.2525 -4.15865,6.3567 -6.84821,8.0005 -1.09103,0.6668 -1.46549,1.0864 -1.22959,1.3776 0.68775,0.8491 3.80371,1.1383 6.23165,0.5783 2.46456,-0.5684 4.60589,-1.7377 6.29177,-3.4357 1.07578,-1.0835 2.38702,-3.2937 2.84213,-4.7908 0.16923,-0.5567 0.34807,-1.0229 0.39742,-1.0362 0.14294,-0.038 0.84521,2.4789 1.19102,4.2692 0.6871,3.5568 1.04377,7.7644 0.89924,10.6078 -0.0922,1.8143 -0.12803,1.7876 1.1662,0.8678 2.89121,-2.0547 4.28863,-6.2237 4.36886,-13.0337 0.0346,-2.9363 0.0782,-3.6192 0.23359,-3.6612 0.27742,-0.075 2.89727,1.4626 4.00791,2.3521 1.93839,1.5525 3.83635,3.5908 4.51094,4.8446 l 0.24788,0.4607 0.0135,-0.3575 c 0.11699,-3.0987 -1.7201,-9.0047 -4.16943,-13.4042 l -0.81372,-1.4616 m 17.16107,9.9079 -1.27317,2.0143 -1.27316,2.0144 -0.75986,0.4321 c -0.41791,0.2376 -1.00384,0.6279 -1.30205,0.8671 l -0.5422,0.4351 -0.64162,2.1366 -0.64162,2.1365 -0.90868,1.2987 -0.90867,1.2987 -0.89106,0.1647 c -1.89785,0.3509 -3.79789,0.8971 -4.39875,1.2645 -0.34531,0.2111 -1.36694,1.1451 -2.27029,2.0756 -4.33053,4.4606 -8.00752,6.3781 -13.26936,6.92 -4.37026,0.45 -7.85407,0.7184 -7.91267,0.6095 -0.0343,-0.064 0.38236,-0.8498 0.92583,-1.7469 l 0.98814,-1.631 -0.1607,-0.46 c -0.12968,-0.3712 -0.2872,-0.5331 -0.81572,-0.8382 -0.89764,-0.5183 -1.70639,-0.5423 -3.90494,-0.1158 -4.95429,0.9609 -7.19911,1.0208 -10.78838,0.2877 -2.89184,-0.5906 -6.03834,-1.7398 -9.32483,-3.4057 -1.08115,-0.5481 -2.36344,-1.1101 -2.84954,-1.2489 -1.96213,-0.5606 -5.82319,-0.9056 -8.23286,-0.7357 l -1.14102,0.08 -0.12174,-1.0012 c -0.067,-0.5506 -0.11497,-1.3831 -0.1067,-1.85 l 0.015,-0.8488 -1.92707,-1.2845 c -3.2442,-2.1625 -5.57131,-4.2795 -6.54916,-5.958 -0.22334,-0.3834 -0.39149,-0.7223 -0.37367,-0.7531 0.0687,-0.119 0.62198,-0.4157 1.5488,-0.8306 1.13145,-0.5065 1.95085,-1.0203 2.13443,-1.3383 0.18298,-0.3169 -0.14858,-1.03 -1.15558,-2.4852 -2.05861,-2.9749 -5.26171,-6.36 -8.49975,-8.9827 -1.68889,-1.3679 -6.08445,-3.9037 -7.59918,-4.384 -1.31918,-0.4183 -2.64931,-0.6869 -3.67992,-0.7431 l -0.78645,-0.043 m -2.8038,-4.8523 c 0.13018,-0.3288 1.01353,-0.3138 1.01353,-0.3138 1.06911,-0.3311 2.76185,-1.3546 2.89997,-1.7535 0.18696,-0.5399 -1.52418,-2.5249 -3.47185,-4.0275 -1.089,-0.8402 -3.70632,-2.3449 -4.86949,-2.7995 l -0.9308,-0.3638 m -7.7813,-13.5163 1.73242,0.1034 c 3.64158,0.2173 6.53825,-0.7192 8.53996,-2.7612 0.32143,-0.3279 0.66576,-0.7371 0.76518,-0.9092 l 0.18077,-0.3131 -1.83294,-0.9702 c -1.00811,-0.5336 -2.47405,-1.2216 -3.25764,-1.5289 -1.61685,-0.6342 -5.9048,-3.0157 -6.119,-3.3985 -0.11335,-0.2026 -0.0488,-0.2651 0.63906,-0.6187 1.11076,-0.5709 2.4428,-1.5369 3.2657,-2.3682 0.67661,-0.6835 1.86001,-2.4663 1.79592,-2.7055 -0.0155,-0.058 -0.39325,-0.043 -0.83936,0.034 -2.18063,0.3751 -5.11247,-0.2324 -9.31042,-1.9293 l -0.59129,-0.239 -0.0351,1.1468 c -0.0193,0.6307 0.0183,1.3708 0.0837,1.6445 0.10409,0.4361 0.0875,0.5018 -0.13386,0.5305 -0.13896,0.018 -0.85241,0.1115 -1.58543,0.2077 l -1.33277,0.1748 m 41.64745,10.9889 -0.41694,0.5569 c -0.36708,0.4904 -1.70847,1.9912 -2.12833,2.3814 -0.0873,0.081 -0.0316,1.1105 0.1305,2.4126 0.15554,1.2491 0.26363,2.3022 0.24019,2.3403 -0.0235,0.038 -0.90022,-0.1309 -1.94842,-0.3754 -2.17307,-0.5069 -2.5946,-0.4708 -3.79949,0.3251 -0.90178,0.5957 -1.52729,1.6 -1.96135,3.149 -0.62996,2.2481 -0.11096,4.2901 1.53177,6.0267 1.31909,1.3944 3.62654,2.6938 5.57637,3.1402 2.93407,0.6718 6.74073,0.1012 9.42956,-1.4135 1.02162,-0.5754 1.13878,-0.7311 0.60416,-0.8026 -0.90558,-0.1211 -4.24358,-2.3026 -5.51581,-3.6047 -0.66508,-0.6807 -0.52511,-0.8876 0.51796,-0.7656 2.32948,0.2725 3.90247,0.057 5.7625,-0.7905 l 0.94344,-0.4297 0.0893,-0.9662 c 0.1975,-2.1373 0.35382,-2.5326 1.37153,-3.4683 0.35393,-0.3254 0.71489,-0.7152 0.80213,-0.8663 m -46.84222,62.3824 c 1.73946,0.3904 3.51253,1.7347 4.31849,3.2741 0.36042,0.6884 0.39979,0.7205 0.77822,0.6355 0.71226,-0.1601 5.04033,-0.1057 5.21163,0.066 0.11915,0.119 -0.0287,0.3787 -0.63711,1.1184 -0.76985,0.9361 -1.61004,2.1676 -1.61004,2.3599 0,0.052 0.75497,0.3433 1.6777,0.6468 1.8813,0.6189 3.41825,1.3038 3.75115,1.6716 0.21226,0.2346 0.18824,0.2611 -0.55476,0.614 -0.42714,0.2029 -1.32847,0.8524 -2.00295,1.4435 -2.81393,2.4659 -3.80809,3.0763 -5.21917,3.2042 -1.06115,0.096 -1.06097,0.095 -0.73089,3.2929 l 0.0712,0.6901 -0.6344,-0.3173 c -0.34892,-0.1745 -1.49299,-0.5622 -2.54237,-0.8616 -1.98125,-0.5652 -2.20204,-0.6657 -3.00439,-1.3672 -1.06311,-0.9295 -3.07298,-2.2098 -5.81175,-3.7021 -2.16648,-1.1805 -3.15073,-1.8874 -3.88771,-2.7921 -1.26669,-1.555 -1.69713,-2.8521 -1.69363,-5.1035 0.001,-0.8685 0.0763,-1.8455 0.16653,-2.1712 0.14469,-0.5221 0.67911,-1.9747 0.72595,-1.9732 0.01,0 0.45602,0.4166 0.99184,0.9251 0.53583,0.5085 1.41724,1.2209 1.95868,1.583 l 0.98445,0.6585 0.51558,-0.7891 c 1.52856,-2.3394 4.62443,-3.679 7.17771,-3.1058 z m 12.3972,-25.4994 c 0.59014,1.631 0.9275,2.915 0.92644,3.5262 -0.004,2.0233 -1.8978,6.7417 -3.96306,9.8715 -1.1309,1.7138 -3.07814,3.7352 -4.30519,4.4691 -0.8251,0.4935 -0.83758,0.4963 -1.08909,0.2448 -0.25151,-0.2515 -0.24846,-0.2671 0.26609,-1.3657 1.58236,-3.3784 1.42572,-5.8821 -0.54448,-8.7031 l -0.52343,-0.7495 0.27879,-0.3915 c 0.66252,-0.9304 1.76021,-1.565 3.4466,-1.9926 2.09584,-0.5314 2.59026,-1.0338 4.07183,-4.1369 0.50276,-1.0531 0.93842,-1.9147 0.96812,-1.9147 0.0297,0 0.24002,0.5141 0.46738,1.1424 z m -29.60017,5.7 0.5067,0 c 0.60106,0 1.30722,0.219 1.64208,0.5091 0.28103,0.2436 0.25238,0.4683 -0.22866,1.7936 -0.35117,0.9676 -0.4369,2.0095 -0.20153,2.4493 0.73959,1.3819 3.40843,-0.656 3.41196,-2.6054 0.001,-0.5941 -0.0755,-0.7946 -0.5909,-1.5474 -0.32567,-0.4757 -0.59213,-0.8977 -0.59213,-0.9377 0,-0.091 1.52797,-0.7787 1.97347,-0.8886 0.28111,-0.069 0.4728,0.066 1.32485,0.9348 1.11092,1.1331 1.93572,2.4287 2.36387,3.7135 0.36025,1.081 0.30008,1.6719 -0.29862,2.9326 -0.50964,1.0732 -2.21953,3.9571 -2.94438,4.966 -0.57419,0.7993 -1.11562,0.9854 -2.52497,0.8681 -1.04484,-0.087 -1.03394,-0.1019 -0.47625,0.6535 l 0.30022,0.4066 -1.83212,2.883 -1.83212,2.8829 m 10e-4,13.5532 0.57271,0.7628 c 4.29003,5.714 9.60201,8.877 15.86945,9.4496 3.5674,0.3258 7.58434,-0.4232 10.35271,-1.9305 1.123,-0.6115 1.67356,-0.726 1.80784,-0.3761 0.39148,1.0202 -0.91607,3.8633 -2.61501,5.6859 -1.72456,1.8502 -3.80788,3.12 -6.12128,3.731 -1.47621,0.3899 -4.04599,0.4204 -5.57003,0.066 -0.5667,-0.1318 -1.05993,-0.2101 -1.09606,-0.1739 -0.10464,0.1046 1.72417,1.9714 3.10165,3.166 2.7368,2.3734 6.20231,4.7861 8.73708,6.0827 1.61728,0.8272 1.6121,0.7829 0.16843,1.4438 -3.22507,1.4765 -7.53424,0.6022 -13.472,-2.7333 -2.5602,-1.4382 -3.1734,-1.7419 -3.28745,-1.6283 -0.20359,0.2028 -0.18201,3.2404 0.033,4.647 0.37529,2.4549 1.19156,5.1178 1.94006,6.3289 l 0.27504,0.445 -0.31637,-0.1671 c -2.74202,-1.448 -6.93823,-5.992 -9.52365,-10.3129 l -0.85892,-1.4355 m 0,19.8159 2.38103,-0.095 2.38104,-0.096 0.75414,-0.442 c 0.41478,-0.2431 1.04569,-0.5554 1.40202,-0.694 l 0.64786,-0.252 2.17114,0.5126 2.17114,0.5126 1.57901,-0.1376 1.57901,-0.1376 0.58821,-0.6893 c 1.25282,-1.4681 2.67585,-2.8405 3.29444,-3.1772 0.35549,-0.1935 1.6752,-0.6112 2.93269,-0.9283 6.02825,-1.52 9.52739,-3.7456 12.62756,-8.0316 2.57488,-3.5597 4.54916,-6.4426 4.48415,-6.5478 -0.038,-0.062 -0.9271,-0.094 -1.97571,-0.072 l -1.90657,0.04 -0.31806,-0.3692 c -0.25663,-0.2979 -0.31804,-0.5152 -0.31804,-1.1255 0,-1.0365 0.3836,-1.7489 1.85217,-3.4397 3.30935,-3.8101 4.4836,-5.7242 5.64339,-9.1992 0.93442,-2.7997 1.51243,-6.0992 1.71295,-9.7784 0.066,-1.2103 0.2204,-2.6018 0.34318,-3.0922 0.49559,-1.9795 2.12734,-5.4958 3.47933,-7.4977 l 0.64019,-0.9479 -0.80621,-0.6061 c -0.44342,-0.3333 -1.14038,-0.7911 -1.54881,-1.0174 l -0.7426,-0.4113 -0.14889,-2.3112 c -0.25066,-3.8908 -0.92053,-6.9647 -1.88521,-8.6507 -0.22032,-0.3851 -0.42974,-0.7002 -0.46537,-0.7002 -0.1374,0 -0.67101,0.3308 -1.49374,0.926 -1.00438,0.7266 -1.85899,1.1793 -2.22617,1.1793 -0.36595,0 -0.8177,-0.6436 -1.57447,-2.2433 -1.54705,-3.2703 -2.87708,-7.7368 -3.52936,-11.8524 -0.34022,-2.1466 -0.33854,-7.2211 0.003,-8.7731 0.29737,-1.3515 0.72983,-2.6378 1.19645,-3.5584 l 0.35608,-0.7026 m -2.80032,-4.8543 c -0.34987,-0.052 -0.77857,0.7209 -0.77857,0.7209 -0.82126,0.7603 -2.55401,1.7145 -2.9685,1.6347 -0.56107,-0.1081 -1.42459,-2.5825 -1.75206,-5.0205 -0.18309,-1.3632 -0.17752,-4.3822 0.0104,-5.6168 l 0.15035,-0.988 m -7.81482,-13.497 -0.77668,1.552 c -1.6326,3.2624 -3.89203,5.3027 -6.66126,6.0153 -0.44468,0.1144 -0.97119,0.208 -1.17003,0.208 l -0.36153,0 0.0763,-2.0725 c 0.042,-1.1398 0.17908,-2.7534 0.30472,-3.5856 0.25926,-1.7173 0.34078,-6.6215 0.11635,-6.9985 -0.11876,-0.1994 -0.20521,-0.1747 -0.8553,0.2441 -1.04986,0.6765 -2.55245,1.3471 -3.68383,1.6441 -0.93025,0.2442 -3.06589,0.3777 -3.24101,0.2025 -0.0424,-0.042 0.15972,-0.3618 0.44923,-0.7098 1.41518,-1.7009 2.35496,-4.5437 2.98438,-9.0277 l 0.0887,-0.6316 1.01073,0.543 c 0.5559,0.2987 1.17797,0.7013 1.38236,0.8948 0.32561,0.3081 0.39079,0.3266 0.52634,0.1493 0.0851,-0.1114 0.52274,-0.6825 0.97256,-1.2692 l 0.81784,-1.0668 m -11.30713,41.5622 0.69082,-0.083 c 0.60822,-0.073 2.57867,-0.484 3.12645,-0.6526 0.11392,-0.035 0.97759,0.5279 2.02416,1.3194 1.004,0.7593 1.86199,1.3794 1.90664,1.3781 0.0447,0 0.33675,-0.845 0.64911,-1.875 0.64757,-2.1354 0.88958,-2.4824 2.18132,-3.1279 0.9668,-0.4831 2.14927,-0.5227 3.70782,-0.1241 2.26189,0.5785 3.77078,2.0489 4.45332,4.3399 0.54807,1.8395 0.51966,4.4876 -0.0687,6.3994 -0.88528,2.8768 -3.28277,5.8882 -5.93887,7.4595 -1.00919,0.597 -1.20257,0.6206 -0.99717,0.1219 0.34792,-0.8448 0.1277,-4.8264 -0.3639,-6.5792 -0.25699,-0.9164 -0.50612,-0.8986 -0.92198,0.066 -0.92872,2.1536 -1.90208,3.408 -3.56582,4.5952 l -0.84388,0.6022 -0.88144,-0.4058 c -1.94966,-0.8976 -2.37014,-0.9599 -3.68933,-0.5464 -0.45877,0.1439 -0.97688,0.2615 -1.15136,0.2615 m -17.49349,25.5891 c -1.73946,0.3904 -3.51254,1.7347 -4.31849,3.2741 -0.36043,0.6884 -0.3998,0.7205 -0.77822,0.6355 -0.71227,-0.1601 -5.04034,-0.1057 -5.21164,0.066 -0.11915,0.119 0.0287,0.3787 0.63712,1.1184 0.76984,0.9361 1.61003,2.1676 1.61003,2.3599 0,0.052 -0.75496,0.3433 -1.6777,0.6468 -1.8813,0.6189 -3.41825,1.3038 -3.75115,1.6716 -0.21226,0.2346 -0.18824,0.2611 0.55476,0.614 0.42715,0.2029 1.32848,0.8524 2.00296,1.4435 2.81392,2.4659 3.80809,3.0763 5.21917,3.2042 1.06115,0.096 1.06096,0.095 0.73088,3.2929 l -0.0712,0.6901 0.6344,-0.3173 c 0.34893,-0.1745 1.49299,-0.5622 2.54238,-0.8616 1.98124,-0.5652 2.20203,-0.6657 3.00438,-1.3672 1.06312,-0.9295 3.07298,-2.2098 5.81176,-3.7021 2.16647,-1.1805 3.15073,-1.8874 3.88771,-2.7921 1.26668,-1.555 1.69712,-2.8521 1.69363,-5.1035 -10e-4,-0.8685 -0.0763,-1.8455 -0.16654,-2.1712 -0.14468,-0.5221 -0.67911,-1.9747 -0.72595,-1.9732 -0.01,0 -0.45602,0.4166 -0.99184,0.9251 -0.53583,0.5085 -1.41723,1.2209 -1.95868,1.583 l -0.98445,0.6585 -0.51558,-0.7891 c -1.52855,-2.3394 -4.62443,-3.679 -7.1777,-3.1058 z m -12.3972,-25.4994 c -0.59015,1.631 -0.92751,2.915 -0.92644,3.5262 0.004,2.0233 1.89779,6.7417 3.96305,9.8715 1.1309,1.7138 3.07814,3.7352 4.30519,4.4691 0.82511,0.4935 0.83759,0.4963 1.08909,0.2448 0.25151,-0.2515 0.24846,-0.2671 -0.26608,-1.3657 -1.58237,-3.3784 -1.42573,-5.8821 0.54448,-8.7031 l 0.52343,-0.7495 -0.2788,-0.3915 c -0.66251,-0.9304 -1.7602,-1.565 -3.4466,-1.9926 -2.09584,-0.5314 -2.59026,-1.0338 -4.07182,-4.1369 -0.50277,-1.0531 -0.93843,-1.9147 -0.96813,-1.9147 -0.0297,0 -0.24002,0.5141 -0.46737,1.1424 z m 29.60016,5.7 -0.5067,0 c -0.60106,0 -1.30722,0.219 -1.64208,0.5091 -0.28103,0.2436 -0.25237,0.4683 0.22866,1.7936 0.35117,0.9676 0.4369,2.0095 0.20153,2.4493 -0.73959,1.3819 -3.40843,-0.656 -3.41196,-2.6054 -0.001,-0.5941 0.0755,-0.7946 0.5909,-1.5474 0.32567,-0.4757 0.59213,-0.8977 0.59213,-0.9377 0,-0.091 -1.52797,-0.7787 -1.97347,-0.8886 -0.28111,-0.069 -0.47279,0.066 -1.32485,0.9348 -1.11092,1.1331 -1.93571,2.4287 -2.36387,3.7135 -0.36025,1.081 -0.30008,1.6719 0.29862,2.9326 0.50964,1.0732 2.21953,3.9571 2.94438,4.966 0.57419,0.7993 1.11563,0.9854 2.52498,0.8681 1.04483,-0.087 1.03394,-0.1019 0.47625,0.6535 l -0.30023,0.4066 1.83212,2.883 1.83212,2.8829 m -0.001,13.5532 -0.57271,0.7628 c -4.29003,5.714 -9.60202,8.877 -15.86945,9.4496 -3.56741,0.3258 -7.58435,-0.4232 -10.35271,-1.9305 -1.123,-0.6115 -1.67357,-0.726 -1.80785,-0.3761 -0.39148,1.0202 0.91608,3.8633 2.61501,5.6859 1.72457,1.8502 3.80788,3.12 6.12128,3.731 1.47621,0.3899 4.04599,0.4204 5.57003,0.066 0.56671,-0.1318 1.05993,-0.2101 1.09606,-0.1739 0.10464,0.1046 -1.72417,1.9714 -3.10165,3.166 -2.73679,2.3734 -6.2023,4.7861 -8.73708,6.0827 -1.61727,0.8272 -1.6121,0.7829 -0.16842,1.4438 3.22507,1.4765 7.53423,0.6022 13.472,-2.7333 2.5602,-1.4382 3.17339,-1.7419 3.28745,-1.6283 0.20359,0.2028 0.182,3.2404 -0.033,4.647 -0.37528,2.4549 -1.19155,5.1178 -1.94006,6.3289 l -0.27504,0.445 0.31638,-0.1671 c 2.74201,-1.448 6.93822,-5.992 9.52365,-10.3129 l 0.85891,-1.4355 m 0,19.8159 -2.38103,-0.095 -2.38103,-0.096 -0.75415,-0.442 c -0.41478,-0.2431 -1.04569,-0.5554 -1.40201,-0.694 l -0.64787,-0.252 -2.17114,0.5126 -2.17113,0.5126 -1.57902,-0.1376 -1.57901,-0.1376 -0.58821,-0.6893 c -1.25282,-1.4681 -2.67585,-2.8405 -3.29444,-3.1772 -0.35549,-0.1935 -1.6752,-0.6112 -2.93269,-0.9283 -6.02824,-1.52 -9.52738,-3.7456 -12.62756,-8.0316 -2.57487,-3.5597 -4.54916,-6.4426 -4.48414,-6.5478 0.038,-0.062 0.92709,-0.094 1.97571,-0.072 l 1.90657,0.04 0.31805,-0.3692 c 0.25663,-0.2979 0.31805,-0.5152 0.31805,-1.1255 0,-1.0365 -0.38361,-1.7489 -1.85218,-3.4397 -3.30934,-3.8101 -4.4836,-5.7242 -5.64338,-9.1992 -0.93442,-2.7997 -1.51243,-6.0992 -1.71296,-9.7784 -0.066,-1.2103 -0.22039,-2.6018 -0.34317,-3.0922 -0.4956,-1.9795 -2.12734,-5.4958 -3.47933,-7.4977 l -0.64019,-0.9479 0.80621,-0.6061 c 0.44341,-0.3333 1.14037,-0.7911 1.5488,-1.0174 l 0.7426,-0.4113 0.14889,-2.3112 c 0.25066,-3.8908 0.92053,-6.9647 1.88521,-8.6507 0.22033,-0.3851 0.42975,-0.7002 0.46538,-0.7002 0.1374,0 0.67101,0.3308 1.49373,0.926 1.00438,0.7266 1.85899,1.1793 2.22617,1.1793 0.36596,0 0.8177,-0.6436 1.57447,-2.2433 1.54706,-3.2703 2.87709,-7.7368 3.52937,-11.8524 0.34021,-2.1466 0.33853,-7.2211 -0.003,-8.7731 -0.29737,-1.3515 -0.72983,-2.6378 -1.19645,-3.5584 l -0.35608,-0.7026 m 2.80032,-4.8543 c 0.34988,-0.052 0.77857,0.7209 0.77857,0.7209 0.82127,0.7603 2.55401,1.7145 2.9685,1.6347 0.56108,-0.1081 1.42459,-2.5825 1.75206,-5.0205 0.1831,-1.3632 0.17753,-4.3822 -0.0104,-5.6168 l -0.15035,-0.988 m 7.81482,-13.497 0.77669,1.552 c 1.63259,3.2624 3.89203,5.3027 6.66126,6.0153 0.44467,0.1144 0.97118,0.208 1.17002,0.208 l 0.36153,0 -0.0763,-2.0725 c -0.042,-1.1398 -0.17908,-2.7534 -0.30472,-3.5856 -0.25925,-1.7173 -0.34078,-6.6215 -0.11635,-6.9985 0.11876,-0.1994 0.20521,-0.1747 0.8553,0.2441 1.04986,0.6765 2.55245,1.3471 3.68383,1.6441 0.93026,0.2442 3.06589,0.3777 3.24101,0.2025 0.0424,-0.042 -0.15971,-0.3618 -0.44923,-0.7098 -1.41518,-1.7009 -2.35496,-4.5437 -2.98438,-9.0277 l -0.0887,-0.6316 -1.01073,0.543 c -0.5559,0.2987 -1.17796,0.7013 -1.38236,0.8948 -0.32561,0.3081 -0.39079,0.3266 -0.52634,0.1493 -0.0851,-0.1114 -0.52274,-0.6825 -0.97255,-1.2692 l -0.81785,-1.0668 m 11.30713,41.5622 -0.69081,-0.083 c -0.60822,-0.073 -2.57868,-0.484 -3.12645,-0.6526 -0.11392,-0.035 -0.97759,0.5279 -2.02417,1.3194 -1.004,0.7593 -1.86199,1.3794 -1.90664,1.3781 -0.0447,0 -0.33675,-0.845 -0.64911,-1.875 -0.64757,-2.1354 -0.88957,-2.4824 -2.18132,-3.1279 -0.9668,-0.4831 -2.14927,-0.5227 -3.70781,-0.1241 -2.2619,0.5785 -3.77079,2.0489 -4.45332,4.3399 -0.54807,1.8395 -0.51967,4.4876 0.0686,6.3994 0.88528,2.8768 3.28277,5.8882 5.93888,7.4595 1.00918,0.597 1.20257,0.6206 0.99717,0.1219 -0.34793,-0.8448 -0.1277,-4.8264 0.3639,-6.5792 0.25699,-0.9164 0.50612,-0.8986 0.92197,0.066 0.92872,2.1536 1.90208,3.408 3.56582,4.5952 l 0.84388,0.6022 0.88145,-0.4058 c 1.94965,-0.8976 2.37013,-0.9599 3.68932,-0.5464 0.45877,0.1439 0.97689,0.2615 1.15137,0.2615 M 95.241146,163.87315 c 0.53157,-1.7017 0.25393,-3.9094 -0.67621,-5.377 -0.41596,-0.6564 -0.42412,-0.7065 -0.16124,-0.9917 0.49477,-0.5368 2.61171,-4.3122 2.54911,-4.5462 -0.0435,-0.1627 -0.34235,-0.1644 -1.28718,-0.01 -1.19562,0.1987 -2.68223,0.3106 -2.84875,0.2144 -0.0452,-0.026 0.0802,-0.8254 0.27871,-1.7763 0.4047,-1.9387 0.58003,-3.6122 0.42791,-4.0844 -0.097,-0.3011 -0.13201,-0.2936 -0.80911,0.1734 -0.38925,0.2685 -1.40246,0.7243 -2.25158,1.0129 -3.54252,1.204 -4.56818,1.7598 -5.38452,2.9178 -0.61391,0.8709 -0.61309,0.8712 -3.21717,-1.0135 l -0.56202,-0.4067 -0.0424,0.7081 c -0.0233,0.3894 -0.25957,1.5741 -0.525,2.6325 -0.50112,1.9985 -0.52451,2.2399 -0.31816,3.2855 0.27341,1.3854 0.37724,3.7662 0.30026,6.8842 -0.0609,2.4665 0.0591,3.6723 0.47417,4.7629 0.71332,1.8745 1.62139,2.8958 3.57295,4.0185 0.75278,0.4331 1.63637,0.8567 1.96353,0.9413 0.5245,0.1358 2.04971,0.3993 2.07181,0.3579 0.005,-0.01 -0.13279,-0.6032 -0.30525,-1.3215 -0.17245,-0.7183 -0.34866,-1.8378 -0.39156,-2.4877 l -0.078,-1.1818 0.94115,-0.052 c 2.79024,-0.1541 5.4983,-2.1654 6.27856,-4.6631 z m 28.281674,2.0133 c -1.11736,-1.3265 -2.06071,-2.2607 -2.59056,-2.5654 -1.75396,-1.0086 -6.78734,-1.7273 -10.53046,-1.5036 -2.04967,0.1225 -4.77386,0.7981 -6.02298,1.4938 -0.83994,0.4678 -0.84861,0.4772 -0.75655,0.8208 0.0921,0.3436 0.10714,0.3487 1.31579,0.4524 3.71694,0.3188 5.80693,1.7064 7.26489,4.8231 l 0.38734,0.828 0.47847,-0.046 c 1.13702,-0.1086 2.23547,-0.7419 3.44897,-1.9886 1.50813,-1.5493 2.19036,-1.7263 5.61855,-1.4578 1.16336,0.091 2.12735,0.1446 2.1422,0.1189 0.0149,-0.026 -0.32519,-0.4649 -0.75566,-0.976 z m -19.73641,22.7845 0.25335,-0.4388 c 0.30053,-0.5205 0.464,-1.2415 0.38014,-1.6766 -0.0704,-0.3652 -0.27936,-0.4527 -1.66765,-0.6988 -1.01347,-0.1796 -1.95869,-0.6264 -2.22188,-1.0501 -0.826994,-1.3315 2.27236,-2.6238 3.96234,-1.6521 0.51499,0.2961 0.65038,0.4626 1.04463,1.2854 0.24913,0.5199 0.48131,0.9616 0.51597,0.9816 0.0785,0.045 1.43842,-0.9339 1.75635,-1.2647 0.20062,-0.2088 0.17932,-0.4424 -0.14722,-1.6148 -0.42575,-1.5286 -1.13545,-2.8907 -2.03401,-3.9039 -0.75606,-0.8525 -1.29789,-1.0959 -2.68903,-1.2077 -1.1842,-0.095 -4.536684,-0.056 -5.772874,0.067 -0.97925,0.098 -1.41117,0.4735 -2.01427,1.7526 -0.44711,0.9484 -0.42872,0.9464 -0.80404,0.086 l -0.20206,-0.4634 -3.41277,0.1452 -3.41278,0.1452 m -11.73673,-6.7777 -0.37425,-0.8774 c -2.80343,-6.5723 -2.88672,-12.7541 -0.24882,-18.4681 1.50148,-3.2524 4.15864,-6.3567 6.8482,-8.0005 1.09103,-0.6668 1.4655,-1.0864 1.22959,-1.3776 -0.68776,-0.8491 -3.8037,-1.1383 -6.23164,-0.5783 -2.46456,0.5684 -4.6059,1.7377 -6.29178,3.4357 -1.07578,1.0835 -2.38702,3.2937 -2.84213,4.7908 -0.16923,0.5567 -0.34807,1.0229 -0.39742,1.0362 -0.14294,0.038 -0.8452,-2.4789 -1.19102,-4.2691 -0.68709,-3.5569 -1.04376,-7.7645 -0.89924,-10.6079 0.0922,-1.8143 0.12803,-1.7876 -1.1662,-0.8678 -2.8912,2.0547 -4.28863,6.2237 -4.36886,13.0337 -0.0346,2.9363 -0.0782,3.6192 -0.23358,3.6612 -0.27742,0.075 -2.89727,-1.4626 -4.00791,-2.3521 -1.93839,-1.5525 -3.83635,-3.5908 -4.51095,-4.8446 l -0.24788,-0.4607 -0.0135,0.3576 c -0.11699,3.0986 1.7201,9.0046 4.16944,13.4041 l 0.81371,1.4616 m -17.16106,-9.9079 1.27316,-2.0143 1.27316,-2.0143 0.75986,-0.4322 c 0.41792,-0.2376 1.00384,-0.6278 1.30205,-0.8671 l 0.54221,-0.4351 0.64162,-2.1365 0.64162,-2.1366 0.90867,-1.2987 0.90867,-1.2986 0.89106,-0.1648 c 1.89785,-0.3509 3.79789,-0.8971 4.39876,-1.2645 0.3453,-0.2111 1.36693,-1.1451 2.27028,-2.0756 4.33054,-4.4606 8.00752,-6.3781 13.26937,-6.92 4.37026,-0.45 7.85407,-0.7184 7.91266,-0.6094 0.0343,0.064 -0.38235,0.8497 -0.92583,1.7468 l -0.98814,1.631 0.16071,0.46 c 0.12967,0.3712 0.28719,0.5331 0.81571,0.8382 0.89765,0.5183 1.7064,0.5423 3.90494,0.1158 4.9543,-0.9609 7.1991,-1.0208 10.78839,-0.2877 2.89183,0.5906 6.03833,1.7398 9.32483,3.4057 1.08115,0.5481 2.363444,1.1101 2.849534,1.249 1.96213,0.5605 5.82319,0.9055 8.23286,0.7356 l 1.14102,-0.08 0.12174,1.0012 c 0.067,0.5506 0.11498,1.3832 0.1067,1.85 l -0.015,0.8488 1.92707,1.2845 c 3.2442,2.1625 5.57131,4.2795 6.54917,5.958 0.22333,0.3834 0.39148,0.7223 0.37367,0.7531 -0.0687,0.119 -0.62198,0.4157 -1.5488,0.8306 -1.13146,0.5066 -1.95085,1.0203 -2.13444,1.3383 -0.18298,0.3169 0.14858,1.03 1.15559,2.4852 2.0586,2.9749 5.2617,6.36 8.49974,8.9827 1.6889,1.3679 6.08446,3.9038 7.59918,4.384 1.31918,0.4183 2.64932,0.6869 3.67992,0.7431 l 0.78646,0.043 m 2.8038,4.8523 c -0.13019,0.3288 -1.01354,0.3138 -1.01354,0.3138 -1.06911,0.3311 -2.76185,1.3546 -2.89996,1.7535 -0.18696,0.5399 1.52417,2.5249 3.47185,4.0276 1.08899,0.8401 3.70631,2.3448 4.86948,2.7994 l 0.9308,0.3638 m 7.7813,13.5163 -1.73242,-0.1034 c -3.64158,-0.2173 -6.53824,0.7193 -8.53996,2.7612 -0.32143,0.3279 -0.66576,0.7371 -0.76518,0.9093 l -0.18076,0.3131 1.83293,0.9701 c 1.00812,0.5336 2.47406,1.2216 3.25764,1.529 1.61685,0.6341 5.9048,3.0156 6.11901,3.3984 0.11334,0.2026 0.0488,0.2651 -0.63906,0.6187 -1.11077,0.571 -2.44281,1.5369 -3.26571,2.3682 -0.6766,0.6836 -1.86001,2.4663 -1.79591,2.7056 0.0155,0.058 0.39324,0.043 0.83935,-0.034 2.18064,-0.3751 5.11247,0.2325 9.31043,1.9293 l 0.59129,0.2391 0.0351,-1.1469 c 0.0193,-0.6307 -0.0183,-1.3708 -0.0837,-1.6445 -0.10409,-0.4361 -0.0875,-0.5018 0.13386,-0.5305 0.13897,-0.018 0.85241,-0.1114 1.58544,-0.2076 l 1.33277,-0.1749 m -41.64746,-10.9888 0.41694,-0.557 c 0.36709,-0.4904 1.70847,-1.9912 2.12833,-2.3813 0.0873,-0.081 0.0316,-1.1106 -0.1305,-2.4127 -0.15554,-1.2491 -0.26362,-2.3022 -0.24019,-2.3403 0.0235,-0.038 0.90023,0.1309 1.94842,0.3754 2.17307,0.5069 2.5946,0.4708 3.79949,-0.3251 0.90179,-0.5957 1.52729,-1.6 1.96136,-3.149 0.62995,-2.2481 0.11095,-4.2901 -1.53178,-6.0266 -1.31909,-1.3945 -3.62654,-2.6939 -5.57637,-3.1403 -2.93407,-0.6718 -6.74073,-0.1011 -9.42955,1.4135 -1.02162,0.5754 -1.13879,0.7311 -0.60416,0.8026 0.90557,0.1211 4.24358,2.3026 5.51581,3.6047 0.66507,0.6808 0.52511,0.8876 -0.51797,0.7656 -2.32947,-0.2725 -3.90246,-0.057 -5.7625,0.7905 l -0.94344,0.4297 -0.0893,0.9663 c -0.1975,2.1372 -0.35381,2.5325 -1.37153,3.4682 -0.35393,0.3254 -0.71488,0.7152 -0.80212,0.8663 m -30.907524,2.3553 c -1.20789,1.3112 -3.2586,2.1746 -4.9947,2.1029 -0.77639,-0.032 -0.82391,-0.014 -0.93947,0.3562 -0.21749,0.6969 -2.42861,4.4179 -2.66252,4.4807 -0.16269,0.044 -0.31359,-0.2143 -0.65006,-1.111 -0.42578,-1.1348 -1.07219,-2.4782 -1.23871,-2.5743 -0.0452,-0.026 -0.67477,0.4822 -1.399,1.1295 -1.47659,1.3199 -2.83821,2.3085 -3.32323,2.4128 -0.30925,0.067 -0.32026,0.032 -0.25435,-0.7874 0.0379,-0.4713 -0.074,-1.5767 -0.24863,-2.4564 -0.72859,-3.6699 -0.76009,-4.836 -0.16535,-6.122 0.44724,-0.9671 0.44787,-0.9665 -2.48629,-2.2794 l -0.63326,-0.2834 0.592,-0.3907 c 0.3256,-0.2149 1.23341,-1.0119 2.01737,-1.771 1.48012,-1.4332 1.67753,-1.5741 2.68622,-1.9183 1.33653,-0.4559 3.45023,-1.5563 6.11202,-3.182 2.10557,-1.286 3.20988,-1.7849 4.36188,-1.9708 1.98,-0.3195 3.31851,-0.044 5.26658,1.085 0.75144,0.4354 1.56008,0.9888 1.797,1.2298 0.37981,0.3863 1.37059,1.5755 1.34585,1.6153 -0.005,0.01 -0.5888,0.1866 -1.29708,0.3964 -0.70829,0.2098 -1.76589,0.6169 -2.35024,0.9048 l -1.06245,0.5233 0.42556,0.841 c 1.26169,2.4935 0.87388,5.8444 -0.89914,7.769 z m 15.88447,23.486 c -1.7075,-0.3044 -2.98822,-0.6543 -3.517,-0.9608 -1.75043,-1.0147 -4.88954,-5.0144 -6.5674,-8.3678 -0.91877,-1.8363 -1.69573,-4.5334 -1.71779,-5.963 -0.0148,-0.9613 -0.011,-0.9735 0.33254,-1.0656 0.34356,-0.092 0.35559,-0.082 1.0497,0.9133 2.13457,3.0596 4.38121,4.1758 7.80937,3.88 l 0.91077,-0.078 0.19967,0.4372 c 0.47451,1.0389 0.47527,2.3069 0.002,3.9811 -0.58771,2.0808 -0.39989,2.7601 1.54674,5.5948 0.66058,0.9619 1.18891,1.77 1.17406,1.7957 -0.0149,0.026 -0.56521,-0.049 -1.22303,-0.1664 z m 9.863764,-28.4845 -0.25336,0.4388 c -0.30053,0.5205 -0.84321,1.0226 -1.26194,1.1675 -0.35141,0.1217 -0.53173,-0.015 -1.43898,-1.0948 -0.66231,-0.7879 -1.521804,-1.3831 -2.020364,-1.3991 -1.56658,-0.05 -1.13606,3.2798 0.55039,4.2575 0.51393,0.2979 0.725884,0.3319 1.635524,0.262 0.5748,-0.044 1.07344,-0.064 1.1081,-0.044 0.0785,0.045 -0.0896,1.7126 -0.21711,2.1534 -0.0805,0.2781 -0.29348,0.3765 -1.47207,0.6799 -1.536674,0.3956 -3.071174,0.462 -4.397894,0.1905 -1.11631,-0.2286 -1.59796,-0.5761 -2.39041,-1.725 -0.67456,-0.9779 -2.31714,-3.9007 -2.82849,-5.0329 -0.40505,-0.8968 -0.29554,-1.4588 0.51071,-2.6207 0.59772,-0.8614 0.60522,-0.8445 -0.32779,-0.7392 l -0.50228,0.057 -1.58066,-3.0281 -1.58065,-3.0282 m -11.73805,-6.7754 -0.94696,0.1145 c -7.09346,0.8583 -12.48874,3.8771 -16.11827,9.0186 -2.06592,2.9265 -3.4257,6.7798 -3.50451,9.931 -0.032,1.2782 -0.20807,1.8123 -0.57825,1.7536 -1.07924,-0.171 -2.88763,-2.7249 -3.61664,-5.1076 -0.73999,-2.4186 -0.79802,-4.8577 -0.17049,-7.1667 0.40043,-1.4734 1.65897,-3.7141 2.72789,-4.8567 0.39748,-0.4249 0.71187,-0.8129 0.69865,-0.8623 -0.0383,-0.1429 -2.56938,0.5075 -4.29268,1.1031 -3.42388,1.1834 -7.24606,2.9783 -9.63631,4.5252 -1.52506,0.987 -1.48408,1.0047 -1.33463,-0.5761 0.33387,-3.5312 3.2456,-6.8259 9.10314,-10.3004 2.52561,-1.4981 3.09524,-1.8773 3.05387,-2.0329 -0.0738,-0.2777 -2.71526,-1.7778 -4.04093,-2.2949 -2.31367,-0.9024 -5.0279,-1.5269 -6.451,-1.4843 l -0.52292,0.016 0.30287,-0.1904 c 2.62502,-1.6507 8.65833,-3.0127 13.69309,-3.0913 l 1.67262,-0.026 m -17.16105,-9.9079 -1.10787,2.1097 -1.10787,2.1098 0.006,0.8741 c 0.003,0.4807 -0.0418,1.1833 -0.1,1.5612 l -0.10566,0.687 -1.52952,1.624 -1.52952,1.6239 -0.67034,1.4363 -0.67034,1.4363 0.30285,0.854 c 0.64503,1.8191 1.12204,3.7376 1.10432,4.4417 -0.0102,0.4046 -0.30827,1.7564 -0.66241,3.0039 -1.69771,5.9807 -1.51986,10.1238 0.6418,14.9516 1.7954,4.0098 3.30491,7.161 3.42853,7.1573 0.0723,0 0.54474,-0.756 1.04988,-1.6752 l 0.91843,-1.6712 0.47875,-0.091 c 0.38631,-0.073 0.60524,-0.018 1.13376,0.2873 0.89765,0.5183 1.3228,1.2067 2.05277,3.3239 1.64495,4.771 2.7155,6.745 5.145,9.4869 1.95741,2.2091 4.5259,4.3594 7.61188,6.3727 1.01517,0.6623 2.14304,1.4917 2.50636,1.8433 1.46652,1.419 3.69585,4.5902 4.75353,6.762 l 0.50083,1.0284 0.92795,-0.3952 c 0.51037,-0.2173 1.25535,-0.592 1.6555,-0.8326 l 0.72756,-0.4374 2.07596,1.0266 c 3.49486,1.7284 6.49184,2.6852 8.43438,2.6928 0.44366,0 0.82122,-0.022 0.83904,-0.053 0.0687,-0.119 0.049,-0.7465 -0.0551,-1.7566 -0.12708,-1.2331 -0.0919,-2.1996 0.0917,-2.5176 0.18298,-0.3169 0.96629,-0.3863 2.73006,-0.2418 3.60565,0.2953 8.13878,1.3767 12.02911,2.8696 2.0291,0.7787 6.42298,3.3174 7.59627,4.3891 1.021814,0.9333 1.919484,1.951 2.483464,2.8154 l 0.43038,0.6596 m 5.60412,0 c 0.21969,-0.2772 -0.23496,-1.0347 -0.23496,-1.0347 -0.24785,-1.0914 -0.20784,-3.0691 0.0685,-3.3881 0.37411,-0.4319 2.94876,0.057 5.22391,0.9929 1.27209,0.523 3.88384,2.0373 4.85911,2.8174 l 0.78045,0.6242 m 15.59612,-0.019 -0.95573,-1.4486 c -2.00899,-3.0451 -2.64622,-6.0219 -1.87871,-8.7765 0.12325,-0.4423 0.30543,-0.945 0.40485,-1.1172 l 0.18077,-0.3131 1.75665,1.1022 c 0.96616,0.6063 2.29497,1.5318 2.95292,2.0568 1.3576,1.0831 5.56401,3.6059 6.00266,3.6 0.2321,0 0.25396,-0.09 0.21624,-0.8628 -0.0609,-1.2474 0.10964,-2.884 0.41812,-4.0123 0.25365,-0.9277 1.20588,-2.844 1.44509,-2.9081 0.058,-0.015 0.23353,0.3193 0.39013,0.744 0.76545,2.076 2.75751,4.3113 6.32604,7.0984 l 0.50264,0.3925 -0.97563,0.6039 c -0.53659,0.3321 -1.19632,0.6695 -1.46605,0.7497 -0.4297,0.1279 -0.4783,0.1751 -0.39248,0.3812 0.0539,0.1294 0.32967,0.794 0.61288,1.4769 l 0.51492,1.2416 m -30.34032,-30.5733 -0.27388,0.6395 c -0.24113,0.5631 -0.8702,2.4752 -0.99811,3.0339 -0.0266,0.1162 -0.94596,0.5827 -2.15467,1.0933 -1.15954,0.4899 -2.12562,0.9228 -2.14683,0.9621 -0.0212,0.039 0.56347,0.7142 1.29931,1.4997 1.5255,1.6285 1.70503,2.0116 1.61817,3.453 -0.065,1.0789 -0.62198,2.1227 -1.74646,3.2731 -1.63194,1.6697 -3.65983,2.2412 -5.98509,1.6868 -1.86716,-0.4452 -4.14621,-1.7938 -5.50773,-3.2592 -2.04879,-2.2051 -3.45796,-5.787 -3.49068,-8.8729 -0.0124,-1.1725 0.0638,-1.3518 0.39301,-0.9246 0.55765,0.7237 4.11588,2.5238 5.87971,2.9745 0.92206,0.2356 1.03123,0.011 0.40401,-0.8314 -1.40076,-1.8811 -2.00039,-3.3512 -2.19668,-5.3857 l -0.0996,-1.0319 0.79215,-0.5604 c 1.75216,-1.2397 2.01633,-1.5727 2.3178,-2.9219 0.10484,-0.4692 0.262,-0.9768 0.34924,-1.1279 m 159.27506,1.829 c 1.20789,1.3112 3.2586,2.1746 4.9947,2.1029 0.7764,-0.032 0.82391,-0.014 0.93947,0.3562 0.21749,0.6969 2.42862,4.4179 2.66252,4.4807 0.1627,0.044 0.3136,-0.2143 0.65007,-1.111 0.42577,-1.1348 1.07219,-2.4782 1.23871,-2.5743 0.0452,-0.026 0.67476,0.4822 1.39899,1.1295 1.4766,1.3199 2.83822,2.3085 3.32323,2.4128 0.30925,0.067 0.32027,0.032 0.25436,-0.7874 -0.0379,-0.4713 0.074,-1.5767 0.24863,-2.4564 0.72858,-3.6699 0.76008,-4.836 0.16534,-6.122 -0.44724,-0.9671 -0.44787,-0.9665 2.48629,-2.2794 l 0.63326,-0.2834 -0.592,-0.3907 c -0.32559,-0.2149 -1.23342,-1.0119 -2.01737,-1.771 -1.48011,-1.4332 -1.67753,-1.5741 -2.68621,-1.9183 -1.33653,-0.4559 -3.45024,-1.5563 -6.11203,-3.182 -2.10557,-1.286 -3.20988,-1.7849 -4.36187,-1.9708 -1.98,-0.3195 -3.31852,-0.044 -5.26659,1.085 -0.75143,0.4354 -1.56008,0.9888 -1.797,1.2298 -0.3798,0.3863 -1.37059,1.5755 -1.34585,1.6153 0.005,0.01 0.58881,0.1866 1.29709,0.3964 0.70828,0.2098 1.76588,0.6169 2.35024,0.9048 l 1.06245,0.5233 -0.42557,0.841 c -1.26169,2.4935 -0.87388,5.8444 0.89914,7.769 z m -15.88447,23.486 c 1.70751,-0.3044 2.98823,-0.6543 3.517,-0.9608 1.75044,-1.0147 4.88954,-5.0144 6.56741,-8.3678 0.91877,-1.8363 1.69572,-4.5334 1.71779,-5.963 0.0148,-0.9613 0.0111,-0.9735 -0.33254,-1.0656 -0.34357,-0.092 -0.35559,-0.082 -1.0497,0.9133 -2.13458,3.0596 -4.38121,4.1758 -7.80938,3.88 l -0.91077,-0.078 -0.19966,0.4372 c -0.47452,1.0389 -0.47527,2.3069 -0.002,3.9811 0.5877,2.0808 0.39989,2.7601 -1.54674,5.5948 -0.66059,0.9619 -1.18892,1.77 -1.17407,1.7957 0.0149,0.026 0.56522,-0.049 1.22303,-0.1664 z m -9.86375,-28.4845 0.25335,0.4388 c 0.30053,0.5205 0.84322,1.0226 1.26194,1.1675 0.35142,0.1217 0.53174,-0.015 1.43898,-1.0948 0.66231,-0.7879 1.5218,-1.3831 2.02036,-1.3991 1.56658,-0.05 1.13607,3.2798 -0.55038,4.2575 -0.51394,0.2979 -0.72588,0.3319 -1.63553,0.262 -0.5748,-0.044 -1.07344,-0.064 -1.1081,-0.044 -0.0785,0.045 0.0896,1.7126 0.21712,2.1534 0.0805,0.2781 0.29347,0.3765 1.47206,0.6799 1.53668,0.3956 3.07117,0.462 4.39789,0.1905 1.11631,-0.2286 1.59797,-0.5761 2.39041,-1.725 0.67456,-0.9779 2.31714,-3.9007 2.82849,-5.0329 0.40506,-0.8968 0.29554,-1.4588 -0.5107,-2.6207 -0.59772,-0.8614 -0.60522,-0.8445 0.32779,-0.7392 l 0.50228,0.057 1.58065,-3.0281 1.58066,-3.0282 m 11.73805,-6.7754 0.94695,0.1145 c 7.09347,0.8583 12.48874,3.8771 16.11828,9.0186 2.06592,2.9265 3.4257,6.7798 3.5045,9.931 0.032,1.2782 0.20808,1.8123 0.57826,1.7536 1.07923,-0.171 2.88762,-2.7249 3.61664,-5.1076 0.73999,-2.4186 0.79801,-4.8577 0.17049,-7.1667 -0.40044,-1.4734 -1.65897,-3.7141 -2.7279,-4.8567 -0.39748,-0.4249 -0.71187,-0.8129 -0.69865,-0.8623 0.0383,-0.1429 2.56938,0.5075 4.29268,1.1031 3.42388,1.1834 7.24606,2.9783 9.63631,4.5252 1.52506,0.987 1.48408,1.0047 1.33464,-0.5761 -0.33387,-3.5312 -3.24561,-6.8259 -9.10314,-10.3004 -2.52562,-1.4981 -3.09524,-1.8773 -3.05387,-2.0329 0.0738,-0.2777 2.71526,-1.7778 4.04092,-2.2949 2.31367,-0.9024 5.02791,-1.5269 6.45101,-1.4843 l 0.52291,0.016 -0.30287,-0.1904 c -2.62502,-1.6507 -8.65833,-3.0127 -13.69308,-3.0913 l -1.67263,-0.026 m 17.16105,-9.9079 1.10787,2.1097 1.10787,2.1098 -0.006,0.8741 c -0.003,0.4807 0.0418,1.1833 0.0999,1.5612 l 0.10566,0.687 1.52952,1.624 1.52952,1.6239 0.67033,1.4363 0.67034,1.4363 -0.30284,0.854 c -0.64504,1.8191 -1.12204,3.7376 -1.10432,4.4417 0.0101,0.4046 0.30827,1.7564 0.66241,3.0039 1.6977,5.9807 1.51986,10.1238 -0.64181,14.9516 -1.79539,4.0098 -3.30491,7.161 -3.42852,7.1573 -0.0723,0 -0.54475,-0.756 -1.04987,-1.6752 l -0.91843,-1.6712 -0.47876,-0.091 c -0.38632,-0.073 -0.60525,-0.018 -1.13377,0.2873 -0.89764,0.5183 -1.32279,1.2067 -2.05276,3.3239 -1.64495,4.771 -2.71551,6.745 -5.14501,9.4869 -1.95741,2.2091 -4.52589,4.3594 -7.61187,6.3727 -1.01517,0.6623 -2.14305,1.4917 -2.50636,1.8433 -1.46652,1.419 -3.69585,4.5902 -4.75353,6.762 l -0.50083,1.0284 -0.92796,-0.3952 c -0.51036,-0.2173 -1.25533,-0.592 -1.6555,-0.8326 l -0.72755,-0.4374 -2.07596,1.0266 c -3.49485,1.7284 -6.49184,2.6852 -8.43438,2.6928 -0.44366,0 -0.82123,-0.022 -0.83905,-0.053 -0.0687,-0.119 -0.049,-0.7465 0.0551,-1.7566 0.12707,-1.2331 0.0919,-2.1996 -0.0917,-2.5176 -0.18298,-0.3169 -0.96628,-0.3863 -2.73006,-0.2418 -3.60566,0.2953 -8.13879,1.3767 -12.02911,2.8696 -2.02911,0.7787 -6.42299,3.3174 -7.59627,4.3891 -1.02182,0.9333 -1.91948,1.951 -2.48347,2.8154 l -0.43038,0.6596 m -5.60412,0 c -0.21969,-0.2772 0.23497,-1.0347 0.23497,-1.0347 0.24784,-1.0914 0.20784,-3.0691 -0.0685,-3.3881 -0.37411,-0.4319 -2.94876,0.057 -5.22391,0.9929 -1.27209,0.523 -3.88384,2.0373 -4.85912,2.8174 l -0.78044,0.6242 m -15.59613,-0.019 0.95574,-1.4486 c 2.00898,-3.0451 2.64622,-6.0219 1.8787,-8.7765 -0.12324,-0.4423 -0.30543,-0.945 -0.40485,-1.1172 l -0.18076,-0.3131 -1.75665,1.1022 c -0.96616,0.6063 -2.29498,1.5318 -2.95292,2.0568 -1.3576,1.0831 -5.56402,3.6059 -6.00266,3.6 -0.2321,0 -0.25396,-0.09 -0.21624,-0.8628 0.0609,-1.2474 -0.10964,-2.884 -0.41813,-4.0123 -0.25364,-0.9278 -1.20588,-2.844 -1.44509,-2.9081 -0.058,-0.015 -0.23353,0.3193 -0.39013,0.744 -0.76545,2.076 -2.7575,4.3113 -6.32603,7.0984 l -0.50264,0.3925 0.97563,0.6039 c 0.53659,0.3321 1.19631,0.6695 1.46605,0.7497 0.4297,0.1279 0.4783,0.1751 0.39247,0.3812 -0.0539,0.1294 -0.32967,0.794 -0.61287,1.4769 l -0.51493,1.2416 m 30.34032,-30.5733 0.27388,0.6395 c 0.24114,0.5631 0.8702,2.4752 0.99812,3.0339 0.0266,0.1162 0.94596,0.5827 2.15466,1.0933 1.15955,0.4899 2.12562,0.9228 2.14684,0.9621 0.0212,0.039 -0.56348,0.7142 -1.29931,1.4997 -1.5255,1.6285 -1.70503,2.0116 -1.61817,3.453 0.065,1.0789 0.62198,2.1227 1.74645,3.2731 1.63194,1.6697 3.65983,2.2412 5.9851,1.6868 1.86716,-0.4452 4.1462,-1.7938 5.50773,-3.2592 2.04879,-2.2051 3.45796,-5.787 3.49068,-8.8729 0.0124,-1.1725 -0.0638,-1.3518 -0.39301,-0.9246 -0.55766,0.7237 -4.11588,2.5238 -5.87972,2.9745 -0.92205,0.2356 -1.03122,0.011 -0.404,-0.8314 1.40075,-1.8811 2.00038,-3.3512 2.19667,-5.3857 l 0.0996,-1.0319 -0.79216,-0.5604 c -1.75215,-1.2397 -2.01632,-1.5727 -2.31779,-2.9219 -0.10485,-0.4692 -0.262,-0.9768 -0.34924,-1.1279 m 13.41398,-27.9442 c -0.53157,-1.7017 -0.25393,-3.9094 0.67621,-5.377 0.41596,-0.6564 0.42412,-0.7065 0.16125,-0.9917 -0.49477,-0.5368 -2.61172,-4.3122 -2.54912,-4.5462 0.0435,-0.1627 0.34236,-0.1644 1.28718,-0.01 1.19563,0.1987 2.68223,0.3106 2.84875,0.2144 0.0452,-0.026 -0.0802,-0.8254 -0.2787,-1.7763 -0.40471,-1.9387 -0.58004,-3.6122 -0.42792,-4.0844 0.097,-0.3011 0.13202,-0.2936 0.80911,0.1734 0.38925,0.2685 1.40246,0.7243 2.25159,1.0129 3.54251,1.204 4.56817,1.7598 5.38452,2.9178 0.6139,0.8709 0.61309,0.8712 3.21716,-1.0135 l 0.56203,-0.4067 0.0424,0.7081 c 0.0233,0.3894 0.25956,1.5741 0.52499,2.6325 0.50113,1.9985 0.52451,2.2399 0.31817,3.2855 -0.27342,1.3854 -0.37725,3.7662 -0.30026,6.8842 0.0609,2.4665 -0.0592,3.6723 -0.47418,4.7629 -0.71331,1.8745 -1.62138,2.8958 -3.57295,4.0185 -0.75277,0.4331 -1.63637,0.8567 -1.96353,0.9413 -0.52449,0.1358 -2.04971,0.3993 -2.07181,0.3579 -0.005,-0.01 0.1328,-0.6032 0.30525,-1.3215 0.17246,-0.7183 0.34866,-1.8378 0.39156,-2.4877 l 0.078,-1.1818 -0.94114,-0.052 c -2.79024,-0.1541 -5.49831,-2.1654 -6.27857,-4.6631 z m -28.28167,2.0133 c 1.11736,-1.3265 2.06072,-2.2607 2.59056,-2.5654 1.75396,-1.0086 6.78734,-1.7273 10.53046,-1.5036 2.04967,0.1225 4.77386,0.7981 6.02298,1.4938 0.83994,0.4678 0.84861,0.4772 0.75655,0.8208 -0.0921,0.3436 -0.10713,0.3487 -1.31579,0.4524 -3.71694,0.3188 -5.80693,1.7064 -7.26489,4.8231 l -0.38733,0.828 -0.47847,-0.046 c -1.13703,-0.1086 -2.23547,-0.7419 -3.44897,-1.9886 -1.50813,-1.5493 -2.19037,-1.7263 -5.61856,-1.4578 -1.16336,0.091 -2.12734,0.1446 -2.1422,0.1189 -0.0148,-0.026 0.3252,-0.4649 0.75566,-0.976 z m 19.73642,22.7845 -0.25336,-0.4388 c -0.30053,-0.5205 -0.464,-1.2415 -0.38013,-1.6766 0.0704,-0.3652 0.27936,-0.4527 1.66764,-0.6988 1.01348,-0.1796 1.95869,-0.6264 2.22188,-1.0501 0.827,-1.3315 -2.27236,-2.6238 -3.96233,-1.6521 -0.51499,0.2961 -0.65038,0.4626 -1.04464,1.2854 -0.24912,0.5199 -0.48131,0.9616 -0.51597,0.9816 -0.0786,0.045 -1.43841,-0.9339 -1.75635,-1.2647 -0.20062,-0.2088 -0.17932,-0.4424 0.14722,-1.6148 0.42575,-1.5286 1.13545,-2.8907 2.03402,-3.9039 0.75605,-0.8525 1.29788,-1.0959 2.68903,-1.2077 1.1842,-0.095 4.53667,-0.056 5.77287,0.067 0.97924,0.098 1.41116,0.4735 2.01426,1.7526 0.44712,0.9484 0.42872,0.9464 0.80405,0.086 l 0.20205,-0.4634 3.41277,0.1452 3.41278,0.1452 m 11.73673,-6.7777 0.37425,-0.8774 c 2.80343,-6.5723 2.88672,-12.7541 0.24883,-18.4681 -1.50148,-3.2524 -4.15865,-6.3567 -6.84821,-8.0005 -1.09103,-0.6668 -1.46549,-1.0864 -1.22959,-1.3776 0.68775,-0.8491 3.80371,-1.1383 6.23165,-0.5783 2.46456,0.5684 4.60589,1.7377 6.29177,3.4357 1.07578,1.0835 2.38702,3.2937 2.84213,4.7908 0.16923,0.5567 0.34807,1.0229 0.39742,1.0362 0.14294,0.038 0.84521,-2.4789 1.19102,-4.2691 0.6871,-3.5569 1.04377,-7.7645 0.89924,-10.6079 -0.0922,-1.8143 -0.12803,-1.7876 1.1662,-0.8678 2.89121,2.0547 4.28863,6.2237 4.36886,13.0337 0.0346,2.9363 0.0782,3.6192 0.23359,3.6612 0.27742,0.075 2.89727,-1.4626 4.00791,-2.3521 1.93839,-1.5525 3.83635,-3.5908 4.51094,-4.8446 l 0.24788,-0.4607 0.0135,0.3576 c 0.11699,3.0986 -1.7201,9.0046 -4.16943,13.4041 l -0.81372,1.4616 m 17.16107,-9.9079 -1.27317,-2.0143 -1.27316,-2.0143 -0.75986,-0.4322 c -0.41791,-0.2376 -1.00384,-0.6278 -1.30205,-0.8671 l -0.5422,-0.4351 -0.64162,-2.1365 -0.64162,-2.1366 -0.90868,-1.2987 -0.90867,-1.2986 -0.89106,-0.1648 c -1.89785,-0.3509 -3.79789,-0.8971 -4.39875,-1.2645 -0.34531,-0.2111 -1.36694,-1.1451 -2.27029,-2.0756 -4.33053,-4.4606 -8.00752,-6.3781 -13.26936,-6.92 -4.37026,-0.45 -7.85407,-0.7184 -7.91267,-0.6094 -0.0343,0.064 0.38236,0.8497 0.92583,1.7468 l 0.98814,1.631 -0.1607,0.46 c -0.12968,0.3712 -0.2872,0.5331 -0.81572,0.8382 -0.89764,0.5183 -1.70639,0.5423 -3.90494,0.1158 -4.95429,-0.9609 -7.19911,-1.0208 -10.78838,-0.2877 -2.89184,0.5906 -6.03834,1.7398 -9.32483,3.4057 -1.08115,0.5481 -2.36344,1.1101 -2.84954,1.249 -1.96213,0.5605 -5.82319,0.9055 -8.23286,0.7356 l -1.14102,-0.08 -0.12174,1.0012 c -0.067,0.5506 -0.11497,1.3832 -0.1067,1.85 l 0.015,0.8488 -1.92707,1.2845 c -3.2442,2.1625 -5.57131,4.2795 -6.54916,5.958 -0.22334,0.3834 -0.39149,0.7223 -0.37367,0.7531 0.0687,0.119 0.62198,0.4157 1.5488,0.8306 1.13145,0.5066 1.95085,1.0203 2.13443,1.3383 0.18298,0.3169 -0.14858,1.03 -1.15558,2.4852 -2.05861,2.9749 -5.26171,6.36 -8.49975,8.9827 -1.68889,1.3679 -6.08445,3.9038 -7.59918,4.384 -1.31918,0.4183 -2.64931,0.6869 -3.67992,0.7431 l -0.78645,0.043 m -2.8038,4.8523 c 0.13018,0.3288 1.01353,0.3138 1.01353,0.3138 1.06911,0.3311 2.76185,1.3546 2.89997,1.7535 0.18696,0.5399 -1.52418,2.5249 -3.47185,4.0276 -1.089,0.8401 -3.70632,2.3448 -4.86949,2.7994 l -0.9308,0.3638 m -7.7813,13.5163 1.73242,-0.1034 c 3.64158,-0.2173 6.53825,0.7193 8.53996,2.7612 0.32143,0.3279 0.66576,0.7371 0.76518,0.9093 l 0.18077,0.3131 -1.83294,0.9701 c -1.00811,0.5336 -2.47405,1.2216 -3.25764,1.529 -1.61685,0.6341 -5.9048,3.0156 -6.119,3.3984 -0.11335,0.2026 -0.0488,0.2651 0.63906,0.6187 1.11076,0.571 2.4428,1.5369 3.2657,2.3682 0.67661,0.6836 1.86001,2.4663 1.79592,2.7056 -0.0155,0.058 -0.39325,0.043 -0.83936,-0.034 -2.18063,-0.3751 -5.11247,0.2325 -9.31042,1.9293 l -0.59129,0.2391 -0.0351,-1.1469 c -0.0193,-0.6307 0.0183,-1.3708 0.0837,-1.6445 0.10409,-0.4361 0.0875,-0.5018 -0.13386,-0.5305 -0.13896,-0.018 -0.85241,-0.1114 -1.58543,-0.2076 l -1.33277,-0.1749 m 41.64745,-10.9888 -0.41694,-0.557 c -0.36708,-0.4904 -1.70847,-1.9912 -2.12833,-2.3813 -0.0873,-0.081 -0.0316,-1.1106 0.1305,-2.4127 0.15554,-1.2491 0.26363,-2.3022 0.24019,-2.3403 -0.0235,-0.038 -0.90022,0.1309 -1.94842,0.3754 -2.17307,0.5069 -2.5946,0.4708 -3.79949,-0.3251 -0.90178,-0.5957 -1.52729,-1.6 -1.96135,-3.149 -0.62996,-2.2481 -0.11096,-4.2901 1.53177,-6.0266 1.31909,-1.3945 3.62654,-2.6939 5.57637,-3.1403 2.93407,-0.6718 6.74073,-0.1011 9.42956,1.4135 1.02162,0.5754 1.13878,0.7311 0.60416,0.8026 -0.90558,0.1211 -4.24358,2.3026 -5.51581,3.6047 -0.66508,0.6808 -0.52511,0.8876 0.51796,0.7656 2.32948,-0.2725 3.90247,-0.057 5.7625,0.7905 l 0.94344,0.4297 0.0893,0.9663 c 0.1975,2.1372 0.35382,2.5325 1.37153,3.4682 0.35393,0.3254 0.71489,0.7152 0.80213,0.8663 m -46.84222,-62.3824 c 1.73946,-0.3904 3.51253,-1.7347 4.31849,-3.2741 0.36042,-0.6884 0.39979,-0.7205 0.77822,-0.6355 0.71226,0.1601 5.04033,0.1058 5.21163,-0.065 0.11915,-0.1191 -0.0287,-0.3787 -0.63711,-1.1185 -0.76985,-0.9361 -1.61004,-2.1676 -1.61004,-2.3599 0,-0.052 0.75497,-0.3433 1.6777,-0.6468 1.8813,-0.6188 3.41825,-1.3038 3.75115,-1.6716 0.21226,-0.2345 0.18824,-0.2611 -0.55476,-0.614 -0.42714,-0.2029 -1.32847,-0.8524 -2.00295,-1.4435 -2.81393,-2.4659 -3.80809,-3.0763 -5.21917,-3.2042 -1.06115,-0.096 -1.06097,-0.095 -0.73089,-3.2929 l 0.0712,-0.6901 -0.6344,0.3173 c -0.34892,0.1745 -1.49299,0.5623 -2.54237,0.8616 -1.98125,0.5652 -2.20204,0.6657 -3.00439,1.3672 -1.06311,0.9295 -3.07298,2.2098 -5.81175,3.7022 -2.16648,1.1805 -3.15073,1.8873 -3.88771,2.7921 -1.26669,1.5549 -1.69713,2.852 -1.69363,5.1035 0.001,0.8684 0.0763,1.8454 0.16653,2.1711 0.14469,0.5221 0.67911,1.9747 0.72595,1.9732 0.01,-3e-4 0.45602,-0.4166 0.99184,-0.9251 0.53583,-0.5085 1.41724,-1.2209 1.95868,-1.583 l 0.98445,-0.6584 0.51558,0.789 c 1.52856,2.3394 4.62443,3.679 7.17771,3.1058 z m 12.3972,25.4994 c 0.59014,-1.631 0.9275,-2.915 0.92644,-3.5262 -0.004,-2.0233 -1.8978,-6.7417 -3.96306,-9.8715 -1.1309,-1.7138 -3.07814,-3.7352 -4.30519,-4.4691 -0.8251,-0.4935 -0.83758,-0.4963 -1.08909,-0.2448 -0.25151,0.2515 -0.24846,0.2671 0.26609,1.3657 1.58236,3.3784 1.42572,5.8821 -0.54448,8.7031 l -0.52343,0.7495 0.27879,0.3915 c 0.66252,0.9304 1.76021,1.5651 3.4466,1.9926 2.09584,0.5314 2.59026,1.0338 4.07183,4.1369 0.50276,1.0531 0.93842,1.9147 0.96812,1.9147 0.0297,0 0.24002,-0.5141 0.46738,-1.1424 z m -29.60017,-5.7 0.5067,0 c 0.60106,0 1.30722,-0.2189 1.64208,-0.5091 0.28103,-0.2435 0.25238,-0.4683 -0.22866,-1.7936 -0.35117,-0.9675 -0.4369,-2.0095 -0.20153,-2.4493 0.73959,-1.3819 3.40843,0.6561 3.41196,2.6054 10e-4,0.5941 -0.0755,0.7946 -0.5909,1.5474 -0.32567,0.4757 -0.59213,0.8977 -0.59213,0.9377 0,0.091 1.52797,0.7787 1.97347,0.8887 0.28111,0.069 0.4728,-0.066 1.32485,-0.9349 1.11092,-1.133 1.93572,-2.4287 2.36387,-3.7135 0.36025,-1.081 0.30008,-1.6719 -0.29862,-2.9326 -0.50964,-1.0732 -2.21953,-3.9571 -2.94438,-4.966 -0.57419,-0.7992 -1.11562,-0.9854 -2.52497,-0.8681 -1.04484,0.087 -1.03394,0.1019 -0.47625,-0.6535 l 0.30022,-0.4066 -1.83212,-2.883 -1.83212,-2.8829 m 0.001,-13.5532 0.57271,-0.7628 c 4.29003,-5.714 9.60201,-8.877 15.86945,-9.4495 3.5674,-0.3259 7.58434,0.4231 10.35271,1.9304 1.123,0.6115 1.67356,0.726 1.80784,0.3761 0.39148,-1.0202 -0.91607,-3.8632 -2.61501,-5.6859 -1.72456,-1.8502 -3.80788,-3.120001 -6.12128,-3.731001 -1.47621,-0.3899 -4.04599,-0.4203 -5.57003,-0.066 -0.5667,0.1318 -1.05993,0.2101 -1.09606,0.174 -0.10464,-0.1047 1.72417,-1.9715 3.10165,-3.1661 2.7368,-2.3734 6.20231,-4.7861 8.73708,-6.0827 1.61728,-0.8272 1.6121,-0.7829 0.16843,-1.4438 -3.22507,-1.4765 -7.53424,-0.6022 -13.472,2.7333 -2.5602,1.4382 -3.1734,1.7419 -3.28745,1.6283 -0.20359,-0.2028 -0.18201,-3.2404 0.033,-4.647 0.37529,-2.4549 1.19156,-5.1178 1.94006,-6.3289 l 0.27504,-0.445 -0.31637,0.1671 c -2.74202,1.448 -6.93823,5.992 -9.52365,10.3129 l -0.85892,1.4355 m 0,-19.8159 2.38103,0.095 2.38104,0.095 0.75414,0.442 c 0.41478,0.2431 1.04569,0.5554 1.40202,0.694 l 0.64786,0.252 2.17114,-0.5126 2.17114,-0.5126 1.57901,0.1376 1.57901,0.1376 0.58821,0.6893 c 1.25282,1.4681 2.67585,2.8405 3.29444,3.1772 0.35549,0.1935 1.6752,0.6112 2.93269,0.9283 6.02825,1.5201 9.52739,3.7457 12.62756,8.0316 2.57488,3.5598 4.54916,6.4427 4.48415,6.5479 -0.038,0.061 -0.9271,0.094 -1.97571,0.072 l -1.90657,-0.04 -0.31806,0.3692 c -0.25663,0.2979 -0.31804,0.5153 -0.31804,1.1255 0,1.0366 0.3836,1.749 1.85217,3.4397 3.30935,3.810101 4.4836,5.724201 5.64339,9.199201 0.93442,2.7997 1.51243,6.0992 1.71295,9.7784 0.066,1.2103 0.2204,2.6018 0.34318,3.0922 0.49559,1.9796 2.12734,5.4958 3.47933,7.4977 l 0.64019,0.9479 -0.80621,0.6061 c -0.44342,0.3333 -1.14038,0.7911 -1.54881,1.0174 l -0.7426,0.4114 -0.14889,2.3111 c -0.25066,3.8908 -0.92053,6.9647 -1.88521,8.6508 -0.22032,0.3851 -0.42974,0.7001 -0.46537,0.7001 -0.1374,0 -0.67101,-0.3308 -1.49374,-0.926 -1.00438,-0.7266 -1.85899,-1.1793 -2.22617,-1.1793 -0.36595,0 -0.8177,0.6436 -1.57447,2.2434 -1.54705,3.2702 -2.87708,7.7367 -3.52936,11.8523 -0.34022,2.1466 -0.33854,7.2212 0.003,8.7731 0.29737,1.3516 0.72983,2.6378 1.19645,3.5584 l 0.35608,0.7026 m -2.80032,4.8543 c -0.34987,0.052 -0.77857,-0.7208 -0.77857,-0.7208 -0.82126,-0.7604 -2.55401,-1.7146 -2.9685,-1.6348 -0.56107,0.1081 -1.42459,2.5825 -1.75206,5.0205 -0.18309,1.3632 -0.17752,4.3822 0.0104,5.6168 l 0.15035,0.988 m -7.81482,13.497 -0.77668,-1.552 c -1.6326,-3.2624 -3.89203,-5.3027 -6.66126,-6.0152 -0.44468,-0.1145 -0.97119,-0.2081 -1.17003,-0.2081 l -0.36153,0 0.0763,2.0725 c 0.042,1.1398 0.17908,2.7534 0.30472,3.5856 0.25926,1.7173 0.34078,6.6216 0.11635,6.9985 -0.11876,0.1994 -0.20521,0.1748 -0.8553,-0.2441 -1.04986,-0.6765 -2.55245,-1.3471 -3.68383,-1.6441 -0.93025,-0.2442 -3.06589,-0.3776 -3.24101,-0.2025 -0.0424,0.042 0.15972,0.3618 0.44923,0.7098 1.41518,1.7009 2.35496,4.5438 2.98438,9.0277 l 0.0887,0.6316 1.01073,-0.543 c 0.5559,-0.2987 1.17797,-0.7013 1.38236,-0.8947 0.32561,-0.3082 0.39079,-0.3267 0.52634,-0.1493 0.0851,0.1113 0.52274,0.6824 0.97256,1.2691 l 0.81784,1.0668 m -11.30713,-41.5621 0.69082,0.082 c 0.60822,0.073 2.57867,0.484 3.12645,0.6526 0.11392,0.035 0.97759,-0.5279 2.02416,-1.3194 1.004,-0.7592 1.86199,-1.3794 1.90664,-1.3781 0.0447,0 0.33675,0.8451 0.64911,1.8751 0.64757,2.1353 0.88958,2.4824 2.18132,3.1279 0.9668,0.4831 2.14927,0.5226 3.70782,0.124 2.26189,-0.5785 3.77078,-2.0489 4.45332,-4.3398 0.54807,-1.8396 0.51966,-4.4876 -0.0687,-6.3995 -0.88528,-2.8768 -3.28277,-5.8882 -5.93887,-7.4595 -1.00919,-0.597 -1.20257,-0.6206 -0.99717,-0.1219 0.34792,0.8448 0.1277,4.8264 -0.3639,6.5792 -0.25699,0.9164 -0.50612,0.8986 -0.92198,-0.066 -0.92872,-2.1537 -1.90208,-3.4081 -3.56582,-4.5953 l -0.84388,-0.6022 -0.88144,0.4058 c -1.94966,0.8976 -2.37014,0.9599 -3.68933,0.5464 -0.45877,-0.1438 -0.97688,-0.2615 -1.15136,-0.2615 m -17.49349,-25.5891 c -1.73946,-0.3904 -3.51254,-1.7347 -4.31849,-3.2741 -0.36043,-0.6884 -0.3998,-0.7205 -0.77822,-0.6355 -0.71227,0.1601 -5.04034,0.1058 -5.21164,-0.065 -0.11915,-0.1191 0.0287,-0.3787 0.63712,-1.1185 0.76984,-0.9361 1.61003,-2.1676 1.61003,-2.3599 0,-0.052 -0.75496,-0.3433 -1.6777,-0.6468 -1.8813,-0.6188 -3.41825,-1.3038 -3.75115,-1.6716 -0.21226,-0.2345 -0.18824,-0.2611 0.55476,-0.614 0.42715,-0.2029 1.32848,-0.8524 2.00296,-1.4435 2.81392,-2.4659 3.80809,-3.0763 5.21917,-3.2042 1.06115,-0.096 1.06096,-0.095 0.73088,-3.2929 l -0.0712,-0.6901 0.6344,0.3173 c 0.34893,0.1745 1.49299,0.5623 2.54238,0.8616 1.98124,0.5652 2.20203,0.6657 3.00438,1.3672 1.06312,0.9295 3.07298,2.2098 5.81176,3.7022 2.16647,1.1805 3.15073,1.8873 3.88771,2.7921 1.26668,1.5549 1.69712,2.852 1.69363,5.1035 -0.001,0.8684 -0.0763,1.8454 -0.16654,2.1711 -0.14468,0.5221 -0.67911,1.9747 -0.72595,1.9732 -0.01,-3e-4 -0.45602,-0.4166 -0.99184,-0.9251 -0.53583,-0.5085 -1.41723,-1.2209 -1.95868,-1.583 l -0.98445,-0.6584 -0.51558,0.789 c -1.52855,2.3394 -4.62443,3.679 -7.1777,3.1058 z m -12.3972,25.4994 c -0.59015,-1.631 -0.92751,-2.915 -0.92644,-3.5262 0.004,-2.0233 1.89779,-6.7417 3.96305,-9.8715 1.1309,-1.7138 3.07814,-3.7352 4.30519,-4.4691 0.82511,-0.4935 0.83759,-0.4963 1.08909,-0.2448 0.25151,0.2515 0.24846,0.2671 -0.26608,1.3657 -1.58237,3.3784 -1.42573,5.8821 0.54448,8.7031 l 0.52343,0.7495 -0.2788,0.3915 c -0.66251,0.9304 -1.7602,1.5651 -3.4466,1.9926 -2.09584,0.5314 -2.59026,1.0338 -4.07182,4.1369 -0.50277,1.0531 -0.93843,1.9147 -0.96813,1.9147 -0.0297,0 -0.24002,-0.5141 -0.46737,-1.1424 z m 29.60016,-5.7 -0.5067,0 c -0.60106,0 -1.30722,-0.2189 -1.64208,-0.5091 -0.28103,-0.2435 -0.25237,-0.4683 0.22866,-1.7936 0.35117,-0.9675 0.4369,-2.0095 0.20153,-2.4493 -0.73959,-1.3819 -3.40843,0.6561 -3.41196,2.6054 -10e-4,0.5941 0.0755,0.7946 0.5909,1.5474 0.32567,0.4757 0.59213,0.8977 0.59213,0.9377 0,0.091 -1.52797,0.7787 -1.97347,0.8887 -0.28111,0.069 -0.47279,-0.066 -1.32485,-0.9349 -1.11092,-1.133 -1.93571,-2.4287 -2.36387,-3.7135 -0.36025,-1.081 -0.30008,-1.6719 0.29862,-2.9326 0.50964,-1.0732 2.21953,-3.9571 2.94438,-4.966 0.57419,-0.7992 1.11563,-0.9854 2.52498,-0.8681 1.04483,0.087 1.03394,0.1019 0.47625,-0.6535 l -0.30023,-0.4066 1.83212,-2.883 1.83212,-2.8829 m -0.001,-13.5532 -0.57271,-0.7628 c -4.29003,-5.714 -9.60202,-8.877 -15.86945,-9.4495 -3.56741,-0.3259 -7.58435,0.4231 -10.35271,1.9304 -1.123,0.6115 -1.67357,0.726 -1.80785,0.3761 -0.39148,-1.0202 0.91608,-3.8632 2.61501,-5.6859 1.72457,-1.8502 3.80788,-3.120001 6.12128,-3.731001 1.47621,-0.3899 4.04599,-0.4203 5.57003,-0.066 0.56671,0.1318 1.05993,0.2101 1.09606,0.174 0.10464,-0.1047 -1.72417,-1.9715 -3.10165,-3.1661 -2.73679,-2.3734 -6.2023,-4.7861 -8.73708,-6.0827 -1.61727,-0.8272 -1.6121,-0.7829 -0.16842,-1.4438 3.22507,-1.4765 7.53423,-0.6022 13.472,2.7333 2.5602,1.4382 3.17339,1.7419 3.28745,1.6283 0.20359,-0.2028 0.182,-3.2404 -0.033,-4.647 -0.37528,-2.4549 -1.19155,-5.1178 -1.94006,-6.3289 l -0.27504,-0.445 0.31638,0.1671 c 2.74201,1.448 6.93822,5.992 9.52365,10.3129 l 0.85891,1.4355 m 0,-19.8159 -2.38103,0.095 -2.38103,0.095 -0.75415,0.442 c -0.41478,0.2431 -1.04569,0.5554 -1.40201,0.694 l -0.64787,0.252 -2.17114,-0.5126 -2.17113,-0.5126 -1.57902,0.1376 -1.57901,0.1376 -0.58821,0.6893 c -1.25282,1.4681 -2.67585,2.8405 -3.29444,3.1772 -0.35549,0.1935 -1.6752,0.6112 -2.93269,0.9283 -6.02824,1.5201 -9.52738,3.7457 -12.62756,8.0316 -2.57487,3.5598 -4.54916,6.4427 -4.48414,6.5479 0.038,0.061 0.92709,0.094 1.97571,0.072 l 1.90657,-0.04 0.31805,0.3692 c 0.25663,0.2979 0.31805,0.5153 0.31805,1.1255 0,1.0366 -0.38361,1.749 -1.85218,3.4397 -3.30934,3.810101 -4.4836,5.724201 -5.64338,9.199201 -0.93442,2.7997 -1.51243,6.0992 -1.71296,9.7784 -0.066,1.2103 -0.2204,2.6018 -0.34317,3.0922 -0.4956,1.9796 -2.12734,5.4958 -3.47933,7.4977 l -0.64019,0.9479 0.80621,0.6061 c 0.44341,0.3333 1.14037,0.7911 1.5488,1.0174 l 0.7426,0.4114 0.14889,2.3111 c 0.25066,3.8908 0.92053,6.9647 1.88521,8.6508 0.22033,0.3851 0.42975,0.7001 0.46538,0.7001 0.1374,0 0.67101,-0.3308 1.49373,-0.926 1.00438,-0.7266 1.85899,-1.1793 2.22617,-1.1793 0.36596,0 0.8177,0.6436 1.57447,2.2434 1.54706,3.2702 2.87709,7.7367 3.52937,11.8523 0.34021,2.1466 0.33853,7.2212 -0.003,8.7731 -0.29737,1.3516 -0.72983,2.6378 -1.19645,3.5584 l -0.35608,0.7026 m 2.80032,4.8543 c 0.34988,0.052 0.77857,-0.7208 0.77857,-0.7208 0.82127,-0.7604 2.55401,-1.7146 2.9685,-1.6348 0.56108,0.1081 1.42459,2.5825 1.75206,5.0205 0.1831,1.3632 0.17753,4.3822 -0.0104,5.6168 l -0.15035,0.988 m 7.81482,13.497 0.77669,-1.552 c 1.63259,-3.2624 3.89203,-5.3027 6.66126,-6.0152 0.44467,-0.1145 0.97118,-0.2081 1.17002,-0.2081 l 0.36153,0 -0.0763,2.0725 c -0.042,1.1398 -0.17908,2.7534 -0.30472,3.5856 -0.25925,1.7173 -0.34078,6.6216 -0.11635,6.9985 0.11876,0.1994 0.20521,0.1748 0.8553,-0.2441 1.04986,-0.6765 2.55245,-1.3471 3.68383,-1.6441 0.93026,-0.2442 3.06589,-0.3776 3.24101,-0.2025 0.0424,0.042 -0.15971,0.3618 -0.44923,0.7098 -1.41518,1.7009 -2.35496,4.5438 -2.98438,9.0277 l -0.0887,0.6316 -1.01073,-0.543 c -0.5559,-0.2987 -1.17796,-0.7013 -1.38236,-0.8947 -0.32561,-0.3082 -0.39079,-0.3267 -0.52634,-0.1493 -0.0851,0.1113 -0.52274,0.6824 -0.97255,1.2691 l -0.81785,1.0668 m 11.30713,-41.5621 -0.69081,0.082 c -0.60822,0.073 -2.57868,0.484 -3.12645,0.6526 -0.11392,0.035 -0.97759,-0.5279 -2.02417,-1.3194 -1.004,-0.7592 -1.86199,-1.3794 -1.90664,-1.3781 -0.0447,0 -0.33675,0.8451 -0.64911,1.8751 -0.64757,2.1353 -0.88957,2.4824 -2.18132,3.1279 -0.9668,0.4831 -2.14927,0.5226 -3.70781,0.124 -2.2619,-0.5785 -3.77079,-2.0489 -4.45332,-4.3398 -0.54807,-1.8396 -0.51967,-4.4876 0.0686,-6.3995 0.88528,-2.8768 3.28277,-5.8882 5.93888,-7.4595 1.00918,-0.597 1.20257,-0.6206 0.99717,-0.1219 -0.34793,0.8448 -0.1277,4.8264 0.3639,6.5792 0.25699,0.9164 0.50612,0.8986 0.92197,-0.066 0.92872,-2.1537 1.90208,-3.4081 3.56582,-4.5953 l 0.84388,-0.6022 0.88145,0.4058 c 1.94965,0.8976 2.37013,0.9599 3.68932,0.5464 0.45877,-0.1438 0.97689,-0.2615 1.15137,-0.2615"
     inkscape:connector-curvature="0" />
</svg>
