<?xml version="1.0" encoding="UTF-8" standalone="no"?>
<!-- Created with Inkscape (http://www.inkscape.org/) -->

<svg
   xmlns:dc="http://purl.org/dc/elements/1.1/"
   xmlns:cc="http://creativecommons.org/ns#"
   xmlns:rdf="http://www.w3.org/1999/02/22-rdf-syntax-ns#"
   xmlns:svg="http://www.w3.org/2000/svg"
   xmlns="http://www.w3.org/2000/svg"
   xmlns:sodipodi="http://sodipodi.sourceforge.net/DTD/sodipodi-0.dtd"
   xmlns:inkscape="http://www.inkscape.org/namespaces/inkscape"
   id="svg8538"
   version="1.1"
   inkscape:version="0.91 r"
   width="556"
   height="1331"
   viewBox="0 0 556 1331"
   sodipodi:docname="snowflake-Emperor_Palpatine-000.svg">
  <metadata
     id="metadata8544">
    <rdf:RDF>
      <cc:Work
         rdf:about="">
        <dc:format>image/svg+xml</dc:format>
        <dc:type
           rdf:resource="http://purl.org/dc/dcmitype/StillImage" />
        <dc:title />
      </cc:Work>
    </rdf:RDF>
  </metadata>
  <defs
     id="defs8542" />
  <sodipodi:namedview
     pagecolor="#ffffff"
     bordercolor="#666666"
     borderopacity="1"
     objecttolerance="10"
     gridtolerance="10"
     guidetolerance="10"
     inkscape:pageopacity="0"
     inkscape:pageshadow="2"
     inkscape:window-width="1600"
     inkscape:window-height="843"
     id="namedview8540"
     showgrid="false"
     inkscape:zoom="2.265687"
     inkscape:cx="254.29464"
     inkscape:cy="562.64018"
     inkscape:window-x="0"
     inkscape:window-y="0"
     inkscape:window-maximized="1"
     inkscape:current-layer="svg8538"
     showguides="true"
     inkscape:guide-bbox="true"
     inkscape:snap-center="true"
     inkscape:object-nodes="true">
    <sodipodi:guide
       position="479.92122,88.724931"
       orientation="0,1"
       id="guide4133" />
    <sodipodi:guide
       position="479.92122,88.724931"
       orientation="1,0"
       id="guide4135" />
  </sodipodi:namedview>
  <path
     id="path4153"
     style="fill:none;stroke:#00ff00;stroke-opacity:1;stroke-width:0.70866142;stroke-miterlimit:4;stroke-dasharray:none"
     d="m 316.57699,803.98162 -0.58208,0.8259 c -0.32014,0.4542 -0.93347,1.139 -1.36295,1.5218 l -0.78087,0.696 0.0538,1.0702 c 0.0296,0.5886 0.0322,1.7204 0.006,2.5151 l -0.0479,1.4449 -0.55109,0.2748 c -1.14438,0.5707 -3.29185,0.9753 -4.78796,0.9021 -0.26157,-0.013 -0.5108,0.039 -0.55385,0.1157 -0.0431,0.077 -0.0867,0.6278 -0.097,1.2251 l -0.0187,1.086 1.14539,0.021 c 0.62996,0.012 2.00062,0.065 3.04592,0.1176 1.63301,0.083 1.97042,0.054 2.39703,-0.2014 0.66783,-0.4005 2.31468,-1.8568 4.53287,-4.0087 l 1.83284,-1.778 -0.27796,-1.1752 c -0.23296,-0.9849 -0.32207,-2.1535 -0.18264,-2.395 m 6.58048,3.718 -0.44412,0.7693 c -1.00873,1.7471 -1.97146,2.5473 -3.62935,3.0164 l -1.10004,0.3112 0.0716,1.352 c 0.0688,1.298 0.40012,2.7298 0.76926,3.3241 0.16117,0.2595 0.28419,0.2519 1.55702,-0.096 0.76012,-0.2079 1.79935,-0.5589 2.3094,-0.7801 l 0.92739,-0.4021 0.1217,-0.9619 c 0.18144,-1.4342 0.47188,-2.3521 1.20477,-3.8073 l 0.66063,-1.3117 m 25.19196,14.5446 -0.48727,0.3581 c -0.26801,0.197 -0.8916,0.6437 -1.38576,0.9927 -1.23467,0.8721 -1.86745,1.4978 -2.33663,2.3104 -0.48221,0.8352 -0.59258,1.8876 -0.29125,2.7771 l 0.19954,0.5889 0.81422,-0.7869 c 0.44782,-0.4328 1.14344,-1.0182 1.54582,-1.3009 1.6954,-1.1911 3.98379,-1.3175 6.14231,-0.3392 0.39357,0.1784 0.88533,0.395 1.09279,0.4813 0.65084,0.2709 2.04611,1.3809 2.78958,2.2192 1.29559,1.4608 2.28373,3.6387 2.34941,5.1781 0.0361,0.8462 0.2349,0.7361 0.78636,-0.4354 0.49887,-1.0597 0.62889,-2.5049 0.37631,-4.1827 l -0.19227,-1.2771 m 21.5923,12.4663 -1.78877,2.917 c -2.105,3.4327 -4.53501,7.0985 -6.61832,9.9842 -2.39298,3.3147 -2.26267,3.1636 -3.06365,3.5511 -2.91152,1.4087 -8.67239,3.1474 -11.51751,3.4764 -3.9946,0.4618 -7.32329,0.01 -14.09118,-1.9156 -2.0259,-0.5762 -4.26954,-1.1467 -4.98585,-1.2677 -1.99803,-0.3376 -5.09501,-0.4582 -10.0067,-0.3898 -8.61067,0.12 -12.77523,-0.397 -17.33997,-2.1524 -2.05423,-0.79 -5.77441,-2.9845 -8.0813,-4.7672 -2.02706,-1.5663 -3.12293,-2.163 -4.57915,-2.4933 -0.99231,-0.225 -2.20372,-0.3349 -2.66797,-0.2419 m -37.28486,-77.1549 1.60086,1.4625 c 5.25011,4.7963 8.87926,9.1374 9.63588,11.5262 0.493,1.5566 0.26428,3.0131 -0.768,4.8906 l -0.58293,1.0603 0.61291,1.3002 c 1.62191,3.4407 3.56677,6.8238 5.31453,9.2447 2.69497,3.7329 5.08527,6.1798 12.03662,12.3215 1.91807,1.6947 3.88393,3.5086 4.36858,4.0309 1.21355,1.3077 2.52929,3.7621 5.34038,9.9622 l 0.74246,1.6376 -0.78459,-0.2615 c -1.93494,-0.645 -5.26027,-1.2632 -6.58143,-1.2236 -0.47716,0.014 -0.49963,0.032 -0.51723,0.4117 -0.0315,0.6788 0.49017,2.1157 1.05386,2.9027 0.62944,0.8789 1.44464,1.6532 2.56867,2.4398 1.50344,1.0521 2.41622,2.1405 5.2134,6.2162 3.10633,4.5262 3.22331,4.6656 5.79488,6.9031 2.61517,2.2754 6.36123,4.6463 8.6506,5.4751 2.76063,0.9993 7.6742,1.5721 13.09191,1.5263 l 0.96244,-0.01 -0.40676,-0.6683 c -0.9366,-1.5387 -1.37514,-3.2162 -1.22493,-4.6855 0.10039,-0.9822 0.95409,-2.6319 1.71436,-3.3129 2.82666,-2.532 8.30111,-3.8456 13.96869,-3.3517 3.97835,0.3467 6.79499,1.0566 11.5304,2.9064 2.73329,1.0676 3.56262,1.3207 5.03364,1.5362 3.53765,0.5183 7.17963,0.1654 9.36122,-0.907 0.94717,-0.4656 1.92985,-1.3528 2.39959,-2.1664 0.19331,-0.3349 0.32208,-0.6258 0.28614,-0.6466 -0.0359,-0.021 -0.49587,0.043 -1.0221,0.1415 -3.08181,0.5772 -8.56619,0.4762 -10.89394,-0.2007 -1.15216,-0.335 -2.5116,-0.9307 -5.04363,-2.21 -4.49599,-2.2717 -5.7057,-2.6768 -8.64446,-2.8947 -2.07084,-0.1536 -5.62291,-0.1408 -8.11367,0.029 -1.16639,0.08 -1.41743,0.055 -1.5647,-0.1566 -0.24556,-0.352 -1.3166,-3.6796 -1.34476,-4.178 -0.0273,-0.484 -0.0599,-0.4475 2.51613,-2.8143 0.95424,-0.8767 1.82373,-1.7477 1.93223,-1.9356 0.22628,-0.392 0.30672,-1.4522 0.26416,-3.4817 -0.0362,-1.7261 -0.21495,-4.1593 -0.30958,-4.2139 -0.038,-0.022 -0.5185,0.078 -1.06786,0.2221 l -0.99882,0.2621 -1.43283,-0.6187 c -3.5363,-1.5268 -6.14953,-2.0116 -7.52638,-1.3963 -1.19702,0.535 -2.90113,2.2755 -4.22994,4.3203 l -0.74113,1.1405 0.56882,-0.4992 c 1.60864,-1.4116 3.16664,-1.8972 4.99367,-1.5564 1.03226,0.1925 6.52537,2.3468 6.58894,2.584 0.008,0.03 -0.87489,0.4925 -1.96169,1.029 -3.40236,1.6796 -6.07698,3.5752 -7.16565,5.0787 -0.49359,0.6816 -1.27244,2.3995 -1.27805,2.8189 -0.002,0.1549 0.28383,0.026 1.00386,-0.4534 1.1831,-0.7872 2.27791,-1.2714 2.8242,-1.249 0.37242,0.015 0.406,0.059 0.73558,0.9529 0.72025,1.9542 1.76549,3.8322 2.68563,4.8255 l 0.47607,0.5139 -2.43863,0.849 c -2.97188,1.0348 -4.51834,1.4759 -5.09534,1.4536 -0.34873,-0.014 -0.64521,-0.1566 -1.47831,-0.7132 -2.76088,-1.8448 -4.39544,-4.3741 -4.52043,-6.9951 l -0.0369,-0.7736 -1.12599,2.1335 c -1.18426,2.244 -1.63841,3.0189 -1.92835,3.2904 -0.54108,0.5067 -3.08447,-0.4268 -3.6074,-1.324 -0.7309,-1.2539 -0.95265,-1.5429 -1.73177,-2.2559 -0.46948,-0.4297 -1.47754,-1.2251 -2.24017,-1.7676 l -1.38659,-0.9863 -0.82866,-1.6921 c -0.9852,-2.0118 -3.14998,-6.9139 -3.06375,-6.9379 0.0333,-0.01 0.59736,0.088 1.25352,0.2161 3.96218,0.7736 7.78376,0.6722 10.31411,-0.2736 0.90906,-0.3398 2.14611,-1.0892 2.63292,-1.5951 l 0.26209,-0.2723 -0.54778,-0.061 c -6.09007,-0.6792 -13.29303,-2.3527 -16.19736,-3.7634 l -0.9651,-0.4687 -0.70089,-1.2064 c -1.29397,-2.2272 -4.06219,-7.3362 -5.15895,-9.5214 -1.15618,-2.3036 -1.315,-2.8853 -1.14137,-4.1799 0.0964,-0.719 0.20139,-0.9476 1.35863,-2.9576 1.11128,-1.9303 1.30634,-2.2119 1.71246,-2.4721 0.53411,-0.3422 1.8378,-0.6836 2.87895,-0.7538 0.40131,-0.027 1.02179,-0.1523 1.37885,-0.2783 l 0.64919,-0.2291 m 11.05038,6.5528 0.42415,-0.9171 c 0.23328,-0.5043 0.5197,-1.3779 0.63647,-1.9412 l 0.21232,-1.0243 0.95371,-0.4885 c 0.52455,-0.2687 1.50603,-0.8323 2.18107,-1.2525 l 1.22736,-0.7639 -0.0376,-0.6147 c -0.078,-1.2764 -0.8013,-3.3385 -1.61274,-4.5975 -0.14187,-0.2202 -0.22138,-0.4621 -0.17668,-0.5376 0.0447,-0.075 0.50026,-0.3889 1.01238,-0.6965 l 0.93112,-0.5592 0.59123,0.9812 c 0.32517,0.5397 1.05633,1.7003 1.6248,2.5791 0.88809,1.3729 1.03222,1.6792 1.02403,2.1766 -0.0129,0.7786 -0.45069,2.933 -1.20513,5.9299 l -0.6234,2.4763 -1.15674,0.3469 c -0.96948,0.2907 -2.02602,0.7978 -2.16545,1.0393 m 6.51014,3.8398 0.44412,-0.7692 c 1.00873,-1.7472 1.2203,-2.981 0.7976,-4.6513 l -0.28046,-1.1083 1.2067,-0.6139 c 1.1585,-0.5895 2.56408,-1.0184 3.26335,-0.9959 0.3053,0.01 0.36022,0.1202 0.69513,1.3966 0.20001,0.7622 0.4156,1.8377 0.47912,2.39 l 0.11546,1.0042 -0.77219,0.5864 c -1.15135,0.8742 -1.80104,1.5847 -2.69485,2.947 l -0.80568,1.228 m 25.19196,14.5446 0.0665,-0.6011 c 0.0366,-0.3306 0.11168,-1.094 0.16687,-1.6965 0.13787,-1.5053 0.36332,-2.3661 0.83249,-3.1787 0.48221,-0.8352 1.33847,-1.457 2.25942,-1.6408 l 0.60979,-0.1217 -0.27435,1.0986 c -0.1509,0.6042 -0.31005,1.4994 -0.35369,1.9892 -0.18388,2.0638 0.85087,4.1088 2.77736,5.489 0.35126,0.2517 0.78471,0.5692 0.96324,0.7057 0.56001,0.4282 2.21891,1.0816 3.31662,1.3063 1.91294,0.3916 4.29307,0.1584 5.65906,-0.5544 0.75092,-0.3918 0.75501,-0.1647 0.0162,0.8987 -0.66836,0.9619 -1.85491,1.7971 -3.43422,2.4172 l -1.20214,0.4721 m 21.59229,12.4663 1.63181,-3.0076 c 1.9203,-3.5393 3.88001,-7.4767 5.33746,-10.7238 1.67407,-3.7297 1.60842,-3.5413 1.54353,-4.4287 -0.23588,-3.2258 -1.61047,-9.0842 -2.74816,-11.7126 -1.59736,-3.6904 -3.6536,-6.3469 -8.70455,-11.2456 -1.51195,-1.4664 -3.1278,-3.1242 -3.59077,-3.684 -1.29138,-1.5616 -2.94435,-4.1833 -5.34091,-8.4712 -4.20144,-7.517 -6.7314,-10.8652 -10.53404,-13.9406 -1.71127,-1.384 -5.47187,-3.5085 -8.16912,-4.615 -2.37005,-0.9723 -3.43475,-1.623 -4.44886,-2.719 -0.69105,-0.7469 -1.39189,-1.7411 -1.54351,-2.1896 m -85.46052,6.2878 2.06698,0.6551 c 6.77876,2.1486 12.35286,3.121 14.79995,2.5818 1.59452,-0.3513 2.74152,-1.2776 3.85139,-3.1104 l 0.62674,-1.0349 1.43246,-0.1193 c 3.79072,-0.3158 7.69299,-0.323 10.66343,-0.02 4.58029,0.4675 7.89448,1.3141 16.68907,4.2633 2.42666,0.8137 4.98045,1.6093 5.67508,1.7679 1.73932,0.3971 4.52279,0.3093 11.29777,-0.3563 l 1.78941,-0.1758 -0.61878,-0.5487 c -1.52603,-1.3532 -3.72409,-3.9239 -4.35037,-5.0879 -0.22618,-0.4203 -0.22194,-0.4488 0.098,-0.6538 0.57213,-0.3666 2.07729,-0.6333 3.04076,-0.5387 1.07585,0.1057 2.15402,0.4245 3.39725,1.0047 1.66287,0.7759 3.0618,1.0223 7.99008,1.4068 5.47296,0.4271 5.65214,0.4587 8.87564,1.567 3.27819,1.1271 7.20449,3.1858 9.06688,4.7541 2.24572,1.8911 5.19862,5.86 7.86777,10.5748 l 0.47418,0.8376 -0.78213,-0.018 c -1.80092,-0.042 -3.47287,0.4172 -4.67029,1.282 -0.80034,0.578 -1.80215,2.1421 -2.01181,3.1411 -0.77949,3.714 0.82013,9.1118 4.08165,13.7731 2.28943,3.272 4.31259,5.3563 8.28221,8.5324 2.29126,1.8333 2.92513,2.4249 3.84729,3.5911 2.21766,2.8046 3.73304,6.1351 3.89506,8.5606 0.0703,1.0531 -0.20665,2.3477 -0.67638,3.1613 -0.19333,0.3349 -0.38089,0.5918 -0.41683,0.5711 -0.0359,-0.021 -0.21076,-0.4509 -0.38853,-0.9559 -1.04102,-2.9575 -3.87072,-7.6566 -5.62077,-9.3341 -0.86623,-0.8303 -2.06183,-1.7097 -4.43579,-3.2629 -4.21529,-2.7578 -5.17096,-3.6029 -6.82908,-6.0389 -1.16843,-1.7167 -2.93342,-4.7992 -4.0316,-7.0413 -0.51426,-1.0499 -0.66155,-1.2547 -0.91801,-1.2767 -0.42761,-0.037 -3.84491,0.6996 -4.29061,0.9244 -0.43283,0.2183 -0.41753,0.1718 -1.17918,3.5862 -0.28214,1.2647 -0.60174,2.4532 -0.71023,2.6412 -0.22628,0.3919 -1.10425,0.9916 -2.88308,1.9695 -1.51298,0.8317 -3.70959,1.8936 -3.80422,1.8389 -0.038,-0.022 -0.19166,-0.4881 -0.34152,-1.0359 l -0.27249,-0.996 -1.25216,-0.9315 c -3.09044,-2.2991 -4.81693,-4.3198 -4.97245,-5.8199 -0.13522,-1.3041 0.52005,-3.6502 1.6265,-5.8234 l 0.61712,-1.2121 -0.14788,0.7422 c -0.41819,2.099 -0.0597,3.691 1.14892,5.1029 0.68288,0.7977 5.29511,4.4777 5.53232,4.4142 0.0294,-0.01 -0.0109,-1.0039 -0.0897,-2.2134 -0.24661,-3.7863 0.0577,-7.0505 0.81543,-8.745 0.34352,-0.7682 1.44182,-2.3017 1.80225,-2.5163 0.13306,-0.079 0.16419,0.233 0.10927,1.0961 -0.0902,1.4182 0.0378,2.6085 0.33037,3.0704 0.19945,0.3149 0.2539,0.3222 1.19307,0.1605 2.05249,-0.3533 4.20155,-0.3871 5.52181,-0.087 l 0.68309,0.1553 -0.48402,-2.5364 c -0.58984,-3.0911 -0.98102,-4.6509 -1.28889,-5.1395 -0.18607,-0.2952 -0.45818,-0.4805 -1.35679,-0.9236 -2.97803,-1.4686 -5.98577,-1.6195 -8.31809,-0.4173 l -0.68845,0.3549 1.28471,-2.042 c 1.35116,-2.1475 1.7952,-2.9283 1.88536,-3.3151 0.16826,-0.722 -1.91184,-2.4579 -2.95029,-2.4622 -1.45142,-0.01 -1.81251,-0.053 -2.8196,-0.3717 -0.60681,-0.1918 -1.79969,-0.6671 -2.65083,-1.0563 l -1.54751,-0.7076 -1.87974,0.1284 c -2.23479,0.1526 -7.56256,0.7289 -7.54024,0.8156 0.009,0.034 0.37487,0.4734 0.81391,0.9775 2.65107,3.0446 4.47406,6.4049 4.92013,9.0691 0.16026,0.9572 0.12974,2.4032 -0.0649,3.0778 l -0.10482,0.3631 -0.32679,-0.4438 c -3.63318,-4.9346 -8.68401,-10.3358 -11.35781,-12.1457 l -0.8885,-0.6014 -1.39523,0 c -2.57575,-0.01 -8.38438,0.1501 -10.82523,0.2929 -2.57309,0.1505 -3.15622,0.3038 -4.19063,1.1015 -0.57446,0.443 -0.71987,0.6482 -1.88205,2.6554 -1.11602,1.9275 -1.26234,2.2373 -1.28463,2.7191 -0.0293,0.6336 0.32694,1.9333 0.7867,2.8701 0.17722,0.3611 0.379,0.9611 0.4484,1.3333 l 0.12619,0.6767 m -113.28982,6.4232 -0.42415,-0.9171 c -0.23329,-0.5044 -0.51969,-1.378 -0.63648,-1.9413 l -0.21231,-1.0243 -0.95371,-0.4885 c -0.52454,-0.2687 -1.50602,-0.8323 -2.18107,-1.2524 l -1.22736,-0.764 0.0375,-0.6147 c 0.078,-1.2764 0.80131,-3.3384 1.61275,-4.5975 0.14186,-0.2201 0.22138,-0.462 0.17668,-0.5375 -0.0447,-0.076 -0.50026,-0.389 -1.01237,-0.6966 l -0.93113,-0.5592 -0.59123,0.9813 c -0.32517,0.5396 -1.05633,1.7002 -1.62479,2.579 -0.88809,1.3729 -1.03224,1.6793 -1.02403,2.1766 0.0129,0.7786 0.45067,2.933 1.20513,5.9299 l 0.62339,2.4763 1.15675,0.3469 c 0.96948,0.2907 2.02602,0.7978 2.16545,1.0393 m -6.51015,3.8399 -0.44411,-0.7692 c -1.00873,-1.7472 -1.22031,-2.981 -0.79761,-4.6514 l 0.28047,-1.1082 -1.20671,-0.614 c -1.15849,-0.5894 -2.56407,-1.0184 -3.26335,-0.9958 -0.30529,0.01 -0.36022,0.1201 -0.69512,1.3965 -0.20001,0.7623 -0.41562,1.8378 -0.47912,2.3901 l -0.11548,1.0042 0.77221,0.5863 c 1.15135,0.8743 1.80104,1.5847 2.69485,2.947 l 0.80566,1.228 m -25.19196,14.5446 -0.0665,-0.6011 c -0.0366,-0.3306 -0.11168,-1.094 -0.16686,-1.6964 -0.13788,-1.5053 -0.36333,-2.3661 -0.83249,-3.1788 -0.48222,-0.8352 -1.33847,-1.457 -2.25943,-1.6408 l -0.6098,-0.1216 0.27436,1.0986 c 0.1509,0.6042 0.31006,1.4993 0.3537,1.9891 0.18386,2.0639 -0.85087,4.1089 -2.77736,5.489 -0.35126,0.2517 -0.78472,0.5693 -0.96324,0.7058 -0.56003,0.4281 -2.21891,1.0815 -3.31663,1.3062 -1.91294,0.3916 -4.29307,0.1585 -5.65906,-0.5544 -0.75091,-0.3918 -0.75501,-0.1646 -0.0162,0.8987 0.66835,0.9619 1.85491,1.7971 3.4342,2.4173 l 1.20216,0.472 m -21.59229,12.4663 -1.63183,-3.0076 c -1.92028,-3.5393 -3.88,-7.4767 -5.33744,-10.7237 -1.67407,-3.7297 -1.60842,-3.5414 -1.54353,-4.4288 0.23587,-3.2257 1.61046,-9.0842 2.74816,-11.7126 1.59736,-3.6903 3.65358,-6.3468 8.70454,-11.2455 1.51196,-1.4664 3.1278,-3.1242 3.59078,-3.6841 1.29137,-1.5615 2.94433,-4.1833 5.34091,-8.4711 4.20142,-7.5171 6.73139,-10.8652 10.53403,-13.9407 1.71127,-1.384 5.47187,-3.5085 8.16912,-4.615 2.37006,-0.9723 3.43474,-1.623 4.44887,-2.719 0.69105,-0.7469 1.39188,-1.741 1.5435,-2.1896 m 85.46053,6.2878 -2.06699,0.6552 c -6.77876,2.1486 -12.35286,3.1209 -14.79995,2.5818 -1.59452,-0.3514 -2.74152,-1.2777 -3.85139,-3.1104 l -0.62673,-1.035 -1.43248,-0.1193 c -3.7907,-0.3157 -7.69298,-0.323 -10.66342,-0.02 -4.58028,0.4674 -7.89448,1.314 -16.68906,4.2632 -2.42667,0.8138 -4.98046,1.6093 -5.67509,1.7679 -1.73932,0.3971 -4.5228,0.3093 -11.29777,-0.3562 l -1.7894,-0.1758 0.61878,-0.5487 c 1.52602,-1.3533 3.72409,-3.924 4.35036,-5.0879 0.22619,-0.4204 0.22193,-0.4488 -0.098,-0.6538 -0.57211,-0.3667 -2.07728,-0.6334 -3.04075,-0.5387 -1.07586,0.1056 -2.15402,0.4245 -3.39725,1.0046 -1.66286,0.776 -3.0618,1.0223 -7.99008,1.4069 -5.47295,0.427 -5.65214,0.4587 -8.87565,1.5669 -3.27818,1.1271 -7.20449,3.1858 -9.06687,4.7541 -2.24573,1.8912 -5.19861,5.86 -7.86778,10.5748 l -0.47417,0.8376 0.78213,-0.018 c 1.80091,-0.042 3.47288,0.4172 4.67028,1.2819 0.80034,0.578 1.80216,2.1422 2.01181,3.1411 0.77951,3.714 -0.82013,9.1118 -4.08165,13.7731 -2.28942,3.272 -4.31259,5.3563 -8.28219,8.5325 -2.29127,1.8332 -2.92515,2.4249 -3.8473,3.5911 -2.21767,2.8045 -3.73305,6.135 -3.89506,8.5606 -0.0703,1.0531 0.20665,2.3477 0.67639,3.1613 0.19331,0.3348 0.38087,0.5918 0.41681,0.571 0.0359,-0.021 0.21078,-0.4509 0.38853,-0.9559 1.04103,-2.9575 3.87073,-7.6566 5.62079,-9.334 0.86622,-0.8303 2.06183,-1.7098 4.43578,-3.2629 4.21529,-2.7578 5.17095,-3.603 6.82909,-6.039 1.16842,-1.7166 2.93341,-4.7992 4.0316,-7.0412 0.51426,-1.05 0.66155,-1.2548 0.91799,-1.2768 0.42762,-0.037 3.84493,0.6996 4.29062,0.9244 0.43282,0.2183 0.41753,0.1718 1.17918,3.5862 0.28214,1.2647 0.60174,2.4533 0.71024,2.6412 0.22626,0.3919 1.10423,0.9917 2.88308,1.9696 1.51297,0.8317 3.70957,1.8935 3.8042,1.8388 0.038,-0.022 0.19166,-0.488 0.34152,-1.0358 l 0.27249,-0.9961 1.25217,-0.9315 c 3.09044,-2.2991 4.81692,-4.3198 4.97244,-5.8199 0.13522,-1.3041 -0.52004,-3.6502 -1.6265,-5.8234 l -0.61712,-1.212 0.14788,0.7422 c 0.4182,2.0989 0.0597,3.691 -1.14892,5.1028 -0.68288,0.7977 -5.29509,4.4778 -5.53231,4.4142 -0.0294,-0.01 0.0109,-1.0039 0.0897,-2.2134 0.24661,-3.7863 -0.0578,-7.0504 -0.81544,-8.745 -0.3435,-0.7682 -1.44182,-2.3017 -1.80224,-2.5163 -0.13307,-0.079 -0.16419,0.233 -0.10927,1.0961 0.0902,1.4182 -0.0378,2.6085 -0.33037,3.0704 -0.19944,0.3149 -0.2539,0.3222 -1.19308,0.1605 -2.05247,-0.3533 -4.20154,-0.3871 -5.52179,-0.087 l -0.68309,0.1554 0.484,-2.5365 c 0.58984,-3.0911 0.98103,-4.6509 1.28889,-5.1394 0.18607,-0.2953 0.45818,-0.4805 1.3568,-0.9237 2.97802,-1.4686 5.98578,-1.6195 8.31809,-0.4173 l 0.68844,0.3549 -1.28471,-2.0419 c -1.35116,-2.1476 -1.79519,-2.9284 -1.88535,-3.3152 -0.16826,-0.7219 1.91183,-2.4578 2.95028,-2.4621 1.45143,-0.01 1.81252,-0.054 2.8196,-0.3718 0.60683,-0.1918 1.7997,-0.6671 2.65083,-1.0563 l 1.54751,-0.7076 1.87974,0.1284 c 2.23479,0.1527 7.56256,0.729 7.54024,0.8157 -0.009,0.033 -0.37487,0.4733 -0.81391,0.9775 -2.65105,3.0445 -4.47406,6.4048 -4.92013,9.0691 -0.16025,0.9571 -0.12974,2.4032 0.065,3.0777 l 0.1048,0.3631 0.32679,-0.4438 c 3.63319,-4.9346 8.68401,-10.3358 11.35781,-12.1457 l 0.8885,-0.6014 1.39523,0 c 2.57575,-0.01 8.38438,0.1501 10.82523,0.2929 2.57309,0.1506 3.15622,0.3038 4.19064,1.1015 0.57446,0.443 0.71987,0.6482 1.88205,2.6554 1.11601,1.9276 1.26235,2.2373 1.28463,2.7191 0.0293,0.6337 -0.32693,1.9334 -0.7867,2.8701 -0.17722,0.3611 -0.379,0.9611 -0.4484,1.3333 l -0.12619,0.6768 m -11.20003,6.2935 0.58209,0.8259 c 0.32014,0.4542 0.93348,1.139 1.36295,1.5218 l 0.78087,0.696 -0.0538,1.0702 c -0.0296,0.5886 -0.0322,1.7204 -0.006,2.5151 l 0.0479,1.4449 0.55111,0.2748 c 1.14437,0.5707 3.29185,0.9753 4.78795,0.9021 0.26157,-0.013 0.51081,0.039 0.55387,0.1157 0.0431,0.077 0.0867,0.6278 0.097,1.2251 l 0.0187,1.086 -1.1454,0.021 c -0.62996,0.012 -2.00062,0.065 -3.04591,0.1176 -1.63302,0.083 -1.97042,0.054 -2.39703,-0.2014 -0.66786,-0.4005 -2.31468,-1.8568 -4.53288,-4.0087 l -1.83284,-1.778 0.27797,-1.1752 c 0.23295,-0.9849 0.32207,-2.1535 0.18264,-2.395 m -6.58048,3.718 0.4441,0.7693 c 1.00874,1.7471 1.97147,2.5473 3.62937,3.0164 l 1.10003,0.3112 -0.0716,1.352 c -0.0688,1.298 -0.40012,2.7298 -0.76927,3.3241 -0.16116,0.2595 -0.28417,0.2519 -1.55701,-0.096 -0.76011,-0.2079 -1.79934,-0.5589 -2.30941,-0.7801 l -0.92738,-0.4021 -0.12169,-0.9619 c -0.18144,-1.4342 -0.4719,-2.3521 -1.20478,-3.8073 l -0.66062,-1.3117 m -25.19197,14.5445 0.48728,0.3582 c 0.268,0.197 0.89159,0.6437 1.38576,0.9927 1.23467,0.8721 1.86745,1.4978 2.33662,2.3104 0.48222,0.8352 0.59259,1.8876 0.29124,2.7771 l -0.19953,0.5889 -0.81422,-0.7869 c -0.44781,-0.4328 -1.14344,-1.0182 -1.54583,-1.3009 -1.69539,-1.1911 -3.98379,-1.3175 -6.14231,-0.3392 -0.39355,0.1784 -0.88531,0.395 -1.09279,0.4813 -0.65082,0.2709 -2.04611,1.3809 -2.78957,2.2192 -1.2956,1.4608 -2.28373,3.6387 -2.3494,5.1781 -0.0361,0.8462 -0.23491,0.7361 -0.78637,-0.4354 -0.49886,-1.0597 -0.62888,-2.5049 -0.37631,-4.1827 l 0.19226,-1.2771 m -21.59228,12.4663 1.78876,2.917 c 2.10499,3.4327 4.535,7.0985 6.61833,9.9842 2.39296,3.3147 2.26267,3.1636 3.06365,3.5511 2.91151,1.4087 8.67237,3.1474 11.51749,3.4764 3.99461,0.4618 7.32331,0.01 14.0912,-1.9156 2.0259,-0.5762 4.26953,-1.1467 4.98584,-1.2677 1.99804,-0.3376 5.09502,-0.4582 10.00671,-0.3898 8.61067,0.12 12.77523,-0.397 17.33996,-2.1524 2.05423,-0.79 5.77441,-2.9845 8.08131,-4.7672 2.02704,-1.5663 3.12292,-2.163 4.57914,-2.4933 0.99232,-0.225 2.20372,-0.3349 2.66798,-0.2419 m 37.28486,-77.1549 -1.60087,1.4625 c -5.25011,4.7963 -8.87926,9.1374 -9.63587,11.5262 -0.49301,1.5566 -0.26429,3.0131 0.768,4.8906 l 0.58293,1.0603 -0.61291,1.3002 c -1.62192,3.4407 -3.56678,6.8238 -5.31454,9.2447 -2.69497,3.7329 -5.08526,6.1798 -12.03662,12.3215 -1.91806,1.6947 -3.88393,3.5086 -4.36858,4.0309 -1.21355,1.3077 -2.52927,3.7621 -5.34037,9.9622 l -0.74247,1.6376 0.78459,-0.2615 c 1.93493,-0.645 5.26026,-1.2632 6.58143,-1.2236 0.47716,0.014 0.49963,0.032 0.51724,0.4117 0.0315,0.6788 -0.49017,2.1157 -1.05386,2.9028 -0.62944,0.8788 -1.44464,1.6531 -2.56868,2.4397 -1.50344,1.0521 -2.41622,2.1405 -5.2134,6.2162 -3.10633,4.5262 -3.22332,4.6656 -5.79487,6.9031 -2.61518,2.2754 -6.36123,4.6463 -8.65061,5.4751 -2.76062,0.9993 -7.6742,1.5721 -13.0919,1.5263 l -0.96246,-0.01 0.40677,-0.6683 c 0.9366,-1.5388 1.37513,-3.2162 1.22494,-4.6855 -0.10039,-0.9822 -0.95409,-2.6319 -1.71436,-3.3129 -2.82667,-2.532 -8.30111,-3.8456 -13.9687,-3.3517 -3.97834,0.3467 -6.79498,1.0566 -11.53039,2.9064 -2.73329,1.0676 -3.56263,1.3207 -5.03366,1.5362 -3.53763,0.5183 -7.17963,0.1654 -9.36121,-0.907 -0.94717,-0.4656 -1.92986,-1.3528 -2.39958,-2.1664 -0.19332,-0.3349 -0.32209,-0.6258 -0.28615,-0.6466 0.0359,-0.021 0.49588,0.043 1.0221,0.1415 3.08181,0.5772 8.5662,0.4762 10.89393,-0.2007 1.15216,-0.335 2.5116,-0.9307 5.04364,-2.21 4.49599,-2.2717 5.7057,-2.6768 8.64445,-2.8947 2.07084,-0.1536 5.62293,-0.1408 8.11369,0.029 1.16639,0.08 1.41742,0.055 1.56469,-0.1566 0.24555,-0.352 1.31659,-3.6796 1.34475,-4.178 0.0274,-0.484 0.06,-0.4475 -2.51612,-2.8143 -0.95423,-0.8767 -1.82374,-1.7477 -1.93222,-1.9356 -0.22628,-0.392 -0.30672,-1.4522 -0.26418,-3.4817 0.0362,-1.7261 0.21496,-4.1593 0.30959,-4.2139 0.038,-0.022 0.51851,0.078 1.06786,0.2221 l 0.99883,0.2621 1.43281,-0.6187 c 3.53631,-1.5268 6.14954,-2.0116 7.52639,-1.3963 1.19703,0.535 2.90113,2.2755 4.22995,4.3203 l 0.74113,1.1405 -0.56882,-0.4992 c -1.60865,-1.4116 -3.16665,-1.8972 -4.99367,-1.5564 -1.03227,0.1925 -6.52538,2.3468 -6.58894,2.584 -0.008,0.03 0.87486,0.4925 1.96168,1.029 3.40235,1.6796 6.07699,3.5752 7.16566,5.0787 0.49357,0.6816 1.27243,2.3995 1.27805,2.8189 0.002,0.1549 -0.28385,0.026 -1.00388,-0.4534 -1.18308,-0.7872 -2.27791,-1.2714 -2.82418,-1.249 -0.37244,0.015 -0.406,0.059 -0.73558,0.9529 -0.72025,1.9542 -1.76549,3.8322 -2.68564,4.8255 l -0.47608,0.5139 2.43864,0.849 c 2.97189,1.0348 4.51834,1.4759 5.09535,1.4536 0.34873,-0.014 0.64521,-0.1566 1.47829,-0.7132 2.76089,-1.8448 4.39544,-4.3741 4.52044,-6.9951 l 0.0369,-0.7736 1.12599,2.1335 c 1.18425,2.244 1.63842,3.0189 1.92834,3.2904 0.54109,0.5067 3.08448,-0.4268 3.6074,-1.324 0.73088,-1.254 0.95265,-1.5429 1.73178,-2.2559 0.46946,-0.4297 1.47754,-1.2251 2.24016,-1.7676 l 1.38659,-0.9863 0.82867,-1.6921 c 0.9852,-2.0118 3.14997,-6.9139 3.06375,-6.9379 -0.0333,-0.01 -0.59737,0.088 -1.25353,0.2161 -3.96218,0.7736 -7.78376,0.6722 -10.31411,-0.2736 -0.90905,-0.3398 -2.14611,-1.0892 -2.63291,-1.5951 l -0.26209,-0.2723 0.54778,-0.061 c 6.09005,-0.6792 13.29302,-2.3527 16.19735,-3.7634 l 0.9651,-0.4687 0.70093,-1.2064 c 1.29398,-2.2271 4.06219,-7.3361 5.15895,-9.5214 1.15618,-2.3036 1.315,-2.8853 1.14137,-4.1799 -0.0964,-0.719 -0.2014,-0.9475 -1.35863,-2.9576 -1.11128,-1.9303 -1.30634,-2.2119 -1.71245,-2.4721 -0.53412,-0.3422 -1.83781,-0.6835 -2.87896,-0.7538 -0.40131,-0.027 -1.0218,-0.1523 -1.37886,-0.2783 l -0.64918,-0.2291 m 51.2319,42.4251 -1.00623,-0.091 c -0.55342,-0.05 -1.45316,-0.2389 -1.99942,-0.4194 l -0.99319,-0.3283 -0.89994,0.5817 c -0.49496,0.3199 -1.4738,0.8881 -2.1752,1.2626 l -1.27527,0.681 -0.51356,-0.3399 c -1.06641,-0.7057 -2.49054,-2.3632 -3.1752,-3.6954 -0.11971,-0.2329 -0.28944,-0.4228 -0.37718,-0.4218 -0.0878,0 -0.58698,0.2388 -1.1094,0.5285 l -0.94986,0.5267 0.55416,1.0027 c 0.30479,0.5514 0.9443,1.7649 1.42112,2.6966 0.74493,1.4556 0.93819,1.7336 1.37301,1.9752 0.6807,0.3781 2.76535,1.0762 5.738,1.9212 l 2.45623,0.6983 0.87878,-0.8283 c 0.73652,-0.6942 1.70394,-1.3557 1.98281,-1.3557 m 0.0703,7.5579 -0.88822,0 c -2.01747,0 -3.19178,-0.4337 -4.42697,-1.6349 l -0.81957,-0.797 -1.13506,0.738 c -1.08971,0.7086 -2.16396,1.7114 -2.49408,2.3282 -0.14414,0.2694 -0.076,0.3721 0.86188,1.3003 0.56011,0.5543 1.38374,1.2788 1.83029,1.61 l 0.81192,0.6021 0.89389,-0.3756 c 1.33279,-0.56 2.27293,-0.7674 3.89962,-0.8603 l 1.4663,-0.084 m 0,29.0891 -0.55381,-0.2429 c -0.30459,-0.1336 -1.00327,-0.4503 -1.55262,-0.7037 -1.37255,-0.6333 -2.23077,-0.8684 -3.16911,-0.8684 -0.96444,0 -1.93107,0.4306 -2.55067,1.1363 l -0.41027,0.4673 1.08858,0.3117 c 0.59872,0.1714 1.4535,0.4811 1.89952,0.6882 1.87927,0.8727 3.13293,2.7913 3.36495,5.1498 0.0423,0.43 0.1006,0.9642 0.12955,1.1871 0.0908,0.699 -0.1728,2.4624 -0.52705,3.5254 -0.61734,1.8524 -2.00934,3.7971 -3.30965,4.6237 -0.71481,0.4543 -0.5201,0.5715 0.77017,0.4633 1.16722,-0.098 2.4838,-0.7078 3.81052,-1.7655 l 1.00989,-0.805 m 0,24.9326 -3.42059,-0.091 c -4.02528,-0.1066 -8.41501,-0.3782 -11.95577,-0.7395 -4.06704,-0.4151 -3.8711,-0.3778 -4.60718,-0.8777 -2.67564,-1.8171 -7.06191,-5.9368 -8.76933,-8.2362 -2.39725,-3.2286 -3.66971,-6.3376 -5.38666,-13.1612 -0.51394,-2.0426 -1.14173,-4.2708 -1.39507,-4.9517 -0.70665,-1.8991 -2.15067,-4.6415 -4.66578,-8.8609 -4.40925,-7.3971 -6.04384,-11.2622 -6.80594,-16.0931 -0.34296,-2.174 -0.30253,-6.493 0.0878,-9.3822 0.34301,-2.5387 0.31182,-3.7861 -0.13029,-5.2123 -0.30125,-0.9719 -0.81183,-2.0759 -1.12446,-2.4315 m 48.17566,-70.8671 -0.46612,2.1176 c -1.52865,6.9449 -3.4736,12.2584 -5.16408,14.1081 -1.10151,1.2052 -2.47723,1.7354 -4.61938,1.7802 l -1.20967,0.025 -0.81956,1.1809 c -2.16879,3.125 -4.12621,6.5008 -5.34888,9.2248 -1.88532,4.2004 -2.80922,7.4939 -4.65246,16.5848 -0.5086,2.5085 -1.09652,5.1179 -1.3065,5.7987 -0.52577,1.7049 -1.99352,4.0716 -5.9574,9.6061 l -1.04694,1.4618 -0.1658,-0.8103 c -0.40891,-1.9982 -1.53618,-5.1871 -2.23106,-6.3114 -0.25098,-0.4061 -0.27771,-0.4167 -0.6152,-0.2421 -0.60362,0.3121 -1.58712,1.4823 -1.98691,2.364 -0.44642,0.9845 -0.70937,2.0777 -0.82857,3.4444 -0.15942,1.8281 -0.64558,3.1628 -2.77668,7.6231 -2.36663,4.9532 -2.42883,5.1242 -3.08077,8.47 -0.66301,3.4025 -0.84327,7.8322 -0.41627,10.2292 0.5149,2.8904 2.47559,7.4321 5.22413,12.1011 l 0.48827,0.8294 0.37537,-0.6864 c 0.86431,-1.5805 2.09774,-2.799 3.44534,-3.4036 0.90073,-0.4041 2.75625,-0.4897 3.72618,-0.1718 3.60616,1.182 7.48098,5.2662 9.88704,10.4214 1.68893,3.6187 2.4824,6.413 3.2482,11.4388 0.44202,2.9009 0.63749,3.7457 1.18636,5.1274 1.31997,3.3229 3.44658,6.3005 5.46615,7.6535 0.87684,0.5875 2.13651,0.995 3.07597,0.995 0.38663,0 0.70297,-0.034 0.70297,-0.075 0,-0.041 -0.28511,-0.408 -0.63357,-0.8144 -2.04079,-2.3803 -4.69548,-7.1805 -5.27316,-9.5348 -0.28593,-1.1653 -0.44977,-2.6405 -0.60785,-5.4729 -0.2807,-5.0295 -0.53474,-6.2797 -1.81537,-8.9337 -0.90242,-1.8702 -2.68951,-4.94 -4.08208,-7.0121 -0.65213,-0.9703 -0.75588,-1.2003 -0.64669,-1.4334 0.18206,-0.3886 2.52832,-2.98 2.94586,-3.2535 0.40547,-0.2657 0.35756,-0.2757 3.6953,0.7718 1.23637,0.3881 2.42548,0.7056 2.64246,0.7056 0.45255,0 1.41096,-0.4605 3.14725,-1.5121 1.47678,-0.8944 3.49463,-2.2658 3.49463,-2.3751 0,-0.044 -0.32686,-0.41 -0.72634,-0.8137 l -0.72635,-0.734 -0.18065,-1.5502 c -0.44586,-3.8259 -1.33261,-6.3314 -2.55393,-7.2162 -1.06181,-0.7691 -3.42118,-1.3747 -5.85646,-1.503 l -1.35824,-0.072 0.7167,0.2431 c 2.02683,0.6873 3.22639,1.7938 3.84476,3.5464 0.34937,0.9902 1.23026,6.8246 1.05661,6.9982 -0.0215,0.022 -0.86395,-0.5114 -1.87199,-1.1843 -3.15574,-2.1068 -6.13473,-3.4752 -7.98109,-3.6664 -0.83708,-0.087 -2.71425,0.098 -3.0803,0.3027 -0.13514,0.076 0.11966,0.2587 0.89461,0.6427 1.27332,0.6309 2.24007,1.337 2.49381,1.8213 0.17299,0.3301 0.15211,0.381 -0.45749,1.1135 -1.33223,1.6008 -2.43606,3.445 -2.83617,4.7385 l -0.20701,0.6693 -1.95462,-1.6874 c -2.38205,-2.0564 -3.53732,-3.1751 -3.80646,-3.686 -0.16266,-0.3087 -0.18703,-0.637 -0.12151,-1.6368 0.21714,-3.3134 1.59034,-5.9936 3.79766,-7.4123 l 0.65154,-0.4188 -2.4107,0.092 c -2.53542,0.096 -3.43361,0.091 -3.8137,-0.025 -0.70934,-0.2152 -1.17264,-2.8846 -0.65711,-3.7861 0.72055,-1.2599 0.85986,-1.5964 1.08782,-2.6277 0.13735,-0.6214 0.32215,-1.8921 0.41066,-2.8238 l 0.16093,-1.694 1.05106,-1.5637 c 1.24961,-1.8591 4.4126,-6.1849 4.4765,-6.1222 0.0247,0.024 0.22249,0.5613 0.43962,1.1936 1.31112,3.8182 3.3097,7.0771 5.39398,8.7955 0.7488,0.6174 2.01636,1.3139 2.69786,1.4826 l 0.3669,0.091 -0.22099,-0.5049 c -2.45687,-5.6137 -4.60902,-12.6885 -4.83954,-15.909 l -0.0766,-1.0702 0.69431,-1.2102 c 1.28176,-2.2342 4.32219,-7.186 5.66628,-9.2285 1.41691,-2.1531 1.84122,-2.5814 3.04926,-3.0784 0.67088,-0.276 0.92127,-0.2994 3.24068,-0.3022 2.2273,0 2.56869,0.025 2.99709,0.247 0.56342,0.2914 1.51087,1.2498 2.09225,2.1164 0.2241,0.334 0.6428,0.8087 0.93045,1.0549 l 0.523,0.4477 m -0.1496,12.8463 1.00623,-0.091 c 0.55343,-0.05 1.45317,-0.2389 1.99942,-0.4194 l 0.9932,-0.3283 0.89993,0.5817 c 0.49496,0.3199 1.4738,0.8881 2.1752,1.2626 l 1.27527,0.681 0.51356,-0.3399 c 1.06641,-0.7057 2.49054,-2.3632 3.17521,-3.6954 0.1197,-0.2329 0.28943,-0.4228 0.37718,-0.4218 0.0877,0 0.58697,0.2388 1.10939,0.5285 l 0.94986,0.5267 -0.55416,1.0027 c -0.30479,0.5514 -0.94429,1.7649 -1.42112,2.6966 -0.74493,1.4556 -0.93819,1.7336 -1.37301,1.9752 -0.68069,0.3781 -2.76535,1.0762 -5.738,1.9212 l -2.45623,0.6983 -0.87878,-0.8283 c -0.73652,-0.6942 -1.70394,-1.3557 -1.9828,-1.3557 m -0.0704,7.5579 0.88822,0 c 2.01747,0 3.19178,-0.4337 4.42698,-1.6349 l 0.81956,-0.797 1.13506,0.738 c 1.08971,0.7086 2.16396,1.7114 2.49408,2.3282 0.14414,0.2694 0.076,0.3721 -0.86188,1.3003 -0.56011,0.5543 -1.38374,1.2788 -1.83029,1.61 l -0.81191,0.6021 -0.8939,-0.3756 c -1.33279,-0.56 -2.27293,-0.7674 -3.89962,-0.8603 l -1.4663,-0.084 m 0,29.0891 0.55381,-0.2429 c 0.30459,-0.1336 1.00327,-0.4503 1.55262,-0.7037 1.37255,-0.6333 2.23077,-0.8684 3.16912,-0.8684 0.96443,0 1.93106,0.4306 2.55067,1.1363 l 0.41026,0.4673 -1.08858,0.3117 c -0.59871,0.1714 -1.4535,0.4811 -1.89952,0.6882 -1.87927,0.8727 -3.13292,2.7913 -3.36495,5.1498 -0.0423,0.43 -0.1006,0.9642 -0.12955,1.1871 -0.0908,0.699 0.17281,2.4624 0.52706,3.5254 0.61733,1.8524 2.00933,3.7971 3.30965,4.6237 0.7148,0.4543 0.52009,0.5715 -0.77018,0.4633 -1.16722,-0.098 -2.4838,-0.7078 -3.81052,-1.7655 l -1.00989,-0.805 m 0,24.9326 3.42059,-0.091 c 4.02528,-0.1066 8.41501,-0.3782 11.95577,-0.7395 4.06705,-0.4151 3.8711,-0.3778 4.60718,-0.8777 2.67564,-1.8171 7.06192,-5.9368 8.76934,-8.2362 2.39725,-3.2286 3.66971,-6.3376 5.38665,-13.1612 0.51395,-2.0426 1.14173,-4.2708 1.39507,-4.9517 0.70666,-1.8991 2.15067,-4.6415 4.66579,-8.8609 4.40924,-7.3971 6.04383,-11.2622 6.80593,-16.0931 0.34296,-2.174 0.30254,-6.493 -0.0878,-9.3822 -0.343,-2.5387 -0.31182,-3.7861 0.13028,-5.2123 0.30127,-0.9719 0.81184,-2.0759 1.12448,-2.4315 m -48.17567,-70.8671 0.46612,2.1176 c 1.52866,6.9449 3.4736,12.2584 5.16408,14.1081 1.10152,1.2052 2.47724,1.7354 4.61939,1.7802 l 1.20967,0.025 0.81956,1.1809 c 2.16878,3.125 4.1262,6.5008 5.34888,9.2248 1.88531,4.2004 2.80922,7.4939 4.65245,16.5848 0.5086,2.5085 1.09652,5.1179 1.3065,5.7987 0.52577,1.7049 1.99352,4.0716 5.9574,9.6061 l 1.04694,1.4618 0.16581,-0.8103 c 0.4089,-1.9982 1.53617,-5.1871 2.23106,-6.3114 0.25097,-0.4061 0.2777,-0.4167 0.6152,-0.2421 0.60361,0.3121 1.58712,1.4823 1.9869,2.364 0.44642,0.9845 0.70937,2.0777 0.82857,3.4444 0.15943,1.8281 0.64558,3.1628 2.77668,7.6231 2.36663,4.9532 2.42883,5.1242 3.08078,8.47 0.663,3.4025 0.84326,7.8322 0.41626,10.2292 -0.5149,2.8904 -2.47559,7.4321 -5.22413,12.1011 l -0.48827,0.8294 -0.37537,-0.6864 c -0.8643,-1.5805 -2.09774,-2.799 -3.44534,-3.4036 -0.90073,-0.4041 -2.75625,-0.4897 -3.72618,-0.1718 -3.60616,1.182 -7.48098,5.2662 -9.88704,10.4214 -1.68893,3.6187 -2.48239,6.413 -3.2482,11.4388 -0.44202,2.9009 -0.63748,3.7457 -1.18635,5.1274 -1.31997,3.3229 -3.44658,6.3005 -5.46616,7.6535 -0.87683,0.5875 -2.13651,0.995 -3.07597,0.995 -0.38663,0 -0.70296,-0.034 -0.70296,-0.075 0,-0.041 0.2851,-0.408 0.63357,-0.8144 2.04079,-2.3803 4.69547,-7.1805 5.27315,-9.5348 0.28593,-1.1653 0.44977,-2.6405 0.60785,-5.4729 0.2807,-5.0295 0.53474,-6.2797 1.81537,-8.9337 0.90242,-1.8702 2.68951,-4.94 4.08208,-7.0121 0.65213,-0.9703 0.75588,-1.2003 0.64669,-1.4334 -0.18206,-0.3886 -2.52832,-2.98 -2.94585,-3.2535 -0.40548,-0.2657 -0.35757,-0.2757 -3.69531,0.7718 -1.23637,0.3881 -2.42547,0.7056 -2.64246,0.7056 -0.45255,0 -1.41096,-0.4605 -3.14725,-1.5121 -1.47677,-0.8944 -3.49462,-2.2658 -3.49462,-2.3751 0,-0.044 0.32685,-0.41 0.72634,-0.8137 l 0.72634,-0.734 0.18065,-1.5502 c 0.44586,-3.8259 1.33261,-6.3314 2.55393,-7.2162 1.06181,-0.7691 3.42119,-1.3747 5.85646,-1.503 l 1.35824,-0.072 -0.7167,0.2431 c -2.02683,0.6873 -3.22638,1.7938 -3.84475,3.5464 -0.34938,0.9902 -1.23027,6.8246 -1.05662,6.9982 0.0216,0.022 0.86395,-0.5114 1.87199,-1.1843 3.15574,-2.1068 6.13474,-3.4752 7.98109,-3.6664 0.83709,-0.087 2.71425,0.098 3.0803,0.3027 0.13514,0.076 -0.11966,0.2587 -0.8946,0.6427 -1.27332,0.6309 -2.24007,1.337 -2.49382,1.8213 -0.17299,0.3301 -0.15211,0.381 0.45749,1.1135 1.33223,1.6008 2.43606,3.445 2.83617,4.7385 l 0.20701,0.6693 1.95463,-1.6874 c 2.38204,-2.0564 3.53731,-3.1751 3.80645,-3.686 0.16266,-0.3087 0.18703,-0.637 0.12151,-1.6368 -0.21714,-3.3134 -1.59034,-5.9936 -3.79766,-7.4123 l -0.65154,-0.4188 2.4107,0.092 c 2.53542,0.096 3.43361,0.091 3.8137,-0.025 0.70935,-0.2152 1.17264,-2.8846 0.65711,-3.7861 -0.72054,-1.2599 -0.85985,-1.5964 -1.08781,-2.6277 -0.13736,-0.6214 -0.32216,-1.8921 -0.41067,-2.8238 l -0.16093,-1.694 -1.05106,-1.5637 c -1.2496,-1.8591 -4.41259,-6.1849 -4.4765,-6.1222 -0.0247,0.024 -0.22249,0.5613 -0.43962,1.1936 -1.31112,3.8182 -3.30969,7.0771 -5.39398,8.7955 -0.7488,0.6174 -2.01636,1.3139 -2.69786,1.4826 l -0.3669,0.091 0.22099,-0.5049 c 2.45687,-5.6137 4.60902,-12.6885 4.83955,-15.909 l 0.0766,-1.0702 -0.69431,-1.2102 c -1.28176,-2.2342 -4.32219,-7.186 -5.66628,-9.2285 -1.41691,-2.1531 -1.84122,-2.5814 -3.04926,-3.0784 -0.67088,-0.276 -0.92127,-0.2994 -3.24068,-0.3022 -2.2273,0 -2.56869,0.025 -2.99708,0.247 -0.56343,0.2914 -1.51088,1.2498 -2.09226,2.1164 -0.2241,0.334 -0.6428,0.8087 -0.93045,1.0549 l -0.523,0.4477 m -62.20753,-94.4035 0.58208,-0.8258 c 0.32014,-0.4542 0.93347,-1.139 1.36295,-1.5218 l 0.78088,-0.696 -0.0538,-1.0702 c -0.0296,-0.5887 -0.0322,-1.7204 -0.006,-2.5151 l 0.0479,-1.4449 0.5511,-0.2749 c 1.14437,-0.5706 3.29185,-0.9752 4.78795,-0.902 0.26157,0.013 0.51081,-0.039 0.55386,-0.1158 0.0431,-0.077 0.0867,-0.6277 0.097,-1.225 l 0.0187,-1.086 -1.14538,-0.021 c -0.62997,-0.012 -2.00063,-0.065 -3.04592,-0.1176 -1.63301,-0.083 -1.97042,-0.054 -2.39703,0.2015 -0.66783,0.4005 -2.31469,1.8568 -4.53288,4.0086 l -1.83284,1.778 0.27797,1.1752 c 0.23296,0.985 0.32207,2.1535 0.18264,2.395 m -6.58048,-3.718 0.44411,-0.7692 c 1.00873,-1.7472 1.97146,-2.5473 3.62936,-3.0164 l 1.10003,-0.3113 -0.0716,-1.352 c -0.0688,-1.298 -0.40011,-2.7297 -0.76926,-3.324 -0.16117,-0.2595 -0.28418,-0.2519 -1.55701,0.096 -0.76012,0.2079 -1.79935,0.559 -2.30941,0.7801 l -0.92739,0.4021 -0.12169,0.9619 c -0.18144,1.4343 -0.47189,2.3522 -1.20477,3.8074 l -0.66063,1.3117 m -25.19197,-14.5446 0.48728,-0.3582 c 0.268,-0.1969 0.8916,-0.6437 1.38576,-0.9927 1.23467,-0.872 1.86745,-1.4977 2.33662,-2.3103 0.48222,-0.8352 0.59259,-1.8877 0.29125,-2.7771 l -0.19954,-0.589 -0.81421,0.7869 c -0.44782,0.4328 -1.14345,1.0182 -1.54583,1.3009 -1.6954,1.1912 -3.98379,1.3176 -6.14231,0.3393 -0.39356,-0.1784 -0.88532,-0.395 -1.09279,-0.4814 -0.65084,-0.2709 -2.04611,-1.3808 -2.78957,-2.2191 -1.2956,-1.4609 -2.28374,-3.6387 -2.34941,-5.1781 -0.0361,-0.8462 -0.23491,-0.7362 -0.78636,0.4353 -0.49887,1.0598 -0.62889,2.505 -0.37631,4.1828 l 0.19226,1.2771 m -21.59229,-12.4663 1.78877,-2.917 c 2.10499,-3.4327 4.535,-7.0986 6.61832,-9.9843 2.39297,-3.3146 2.26267,-3.1636 3.06365,-3.5511 2.91151,-1.4086 8.67238,-3.1474 11.5175,-3.4763 3.9946,-0.4618 7.32329,-0.01 14.09119,1.9156 2.0259,0.5762 4.26953,1.1466 4.98585,1.2676 1.99803,0.3376 5.09501,0.4583 10.0067,0.3898 8.61067,-0.12 12.77522,0.397 17.33997,2.1525 2.05422,0.7899 5.7744,2.9845 8.08129,4.7671 2.02706,1.5664 3.12293,2.1631 4.57915,2.4933 0.99232,0.2251 2.20373,0.3349 2.66797,0.242 m 37.28487,77.1549 -1.60086,-1.4625 c -5.25012,-4.7963 -8.87926,-9.1375 -9.63588,-11.5263 -0.49301,-1.5565 -0.26429,-3.013 0.768,-4.8906 l 0.58293,-1.0602 -0.61291,-1.3002 c -1.62192,-3.4408 -3.56677,-6.8239 -5.31454,-9.2448 -2.69497,-3.7329 -5.08526,-6.1797 -12.03662,-12.3215 -1.91807,-1.6947 -3.88392,-3.5085 -4.36858,-4.0308 -1.21354,-1.3077 -2.52928,-3.7622 -5.34037,-9.9623 l -0.74247,-1.6375 0.78459,0.2615 c 1.93494,0.645 5.26027,1.2632 6.58143,1.2236 0.47716,-0.014 0.49963,-0.032 0.51723,-0.4118 0.0315,-0.6788 -0.49016,-2.1156 -1.05385,-2.9027 -0.62944,-0.8789 -1.44464,-1.6532 -2.56868,-2.4398 -1.50343,-1.0521 -2.41622,-2.1404 -5.21339,-6.2162 -3.10633,-4.5262 -3.22332,-4.6655 -5.79489,-6.903 -2.61517,-2.2755 -6.36122,-4.6464 -8.6506,-5.4751 -2.76062,-0.9993 -7.6742,-1.5721 -13.0919,-1.5263 l -0.96244,0.01 0.40675,0.6683 c 0.93661,1.5388 1.37515,3.2162 1.22494,4.6856 -0.10039,0.9821 -0.95409,2.6318 -1.71436,3.3128 -2.82666,2.5321 -8.30111,3.8456 -13.9687,3.3517 -3.97835,-0.3467 -6.79498,-1.0566 -11.53039,-2.9063 -2.73329,-1.0677 -3.56263,-1.3208 -5.03365,-1.5363 -3.53764,-0.5183 -7.17963,-0.1654 -9.36122,0.907 -0.94717,0.4657 -1.92985,1.3529 -2.39958,2.1665 -0.19332,0.3348 -0.32209,0.6257 -0.28615,0.6465 0.0359,0.021 0.49588,-0.043 1.0221,-0.1415 3.08182,-0.5772 8.5662,-0.4762 10.89394,0.2007 1.15216,0.335 2.5116,0.9307 5.04363,2.21 4.49599,2.2717 5.7057,2.6768 8.64446,2.8947 2.07084,0.1536 5.62292,0.1408 8.11368,-0.029 1.16639,-0.08 1.41743,-0.054 1.56469,0.1566 0.24556,0.352 1.3166,3.6796 1.34476,4.178 0.0273,0.484 0.06,0.4475 -2.51612,2.8143 -0.95424,0.8767 -1.82374,1.7477 -1.93223,1.9357 -0.22628,0.3919 -0.30672,1.4521 -0.26417,3.4816 0.0362,1.7261 0.21495,4.1593 0.30958,4.214 0.038,0.022 0.51851,-0.078 1.06786,-0.2222 l 0.99883,-0.2621 1.43282,0.6187 c 3.53631,1.5268 6.14953,2.0117 7.52638,1.3963 1.19703,-0.535 2.90114,-2.2755 4.22995,-4.3203 l 0.74113,-1.1404 -0.56882,0.4991 c -1.60864,1.4117 -3.16665,1.8973 -4.99368,1.5565 -1.03225,-0.1926 -6.52536,-2.3469 -6.58893,-2.5841 -0.008,-0.029 0.87489,-0.4925 1.96169,-1.029 3.40235,-1.6796 6.07698,-3.5752 7.16565,-5.0787 0.49357,-0.6816 1.27243,-2.3995 1.27805,-2.8189 0.002,-0.1549 -0.28384,-0.026 -1.00387,0.4534 -1.18309,0.7872 -2.27791,1.2715 -2.82419,1.2491 -0.37243,-0.015 -0.40601,-0.059 -0.73558,-0.953 -0.72025,-1.9541 -1.76549,-3.8322 -2.68563,-4.8255 l -0.47608,-0.5139 2.43863,-0.849 c 2.97189,-1.0348 4.51834,-1.4759 5.09535,-1.4535 0.34873,0.014 0.6452,0.1565 1.4783,0.7131 2.76088,1.8448 4.39544,4.3741 4.52044,6.9951 l 0.0369,0.7736 1.126,-2.1335 c 1.18426,-2.2439 1.63841,-3.0189 1.92835,-3.2904 0.54108,-0.5067 3.08447,0.4268 3.6074,1.324 0.7309,1.254 0.95265,1.5429 1.73177,2.2559 0.46947,0.4297 1.47754,1.2251 2.24016,1.7676 l 1.38659,0.9864 0.82867,1.6921 c 0.98519,2.0117 3.14997,6.9138 3.06374,6.9378 -0.0333,0.01 -0.59736,-0.088 -1.25352,-0.2161 -3.96218,-0.7736 -7.78376,-0.6722 -10.31411,0.2736 -0.90905,0.3398 -2.1461,1.0892 -2.63292,1.5951 l -0.26208,0.2724 0.54777,0.061 c 6.09007,0.6792 13.29303,2.3527 16.19737,3.7634 l 0.96509,0.4687 0.70089,1.2064 c 1.29397,2.2272 4.0622,7.3362 5.15895,9.5214 1.15618,2.3036 1.315,2.8853 1.14137,4.18 -0.0964,0.719 -0.20139,0.9475 -1.35862,2.9576 -1.11128,1.9302 -1.30635,2.2118 -1.71246,2.472 -0.53412,0.3422 -1.83781,0.6836 -2.87895,0.7538 -0.40132,0.027 -1.02179,0.1523 -1.37885,0.2783 l -0.6492,0.2291 m -11.05038,-6.5527 -0.42415,0.917 c -0.23328,0.5043 -0.51969,1.3779 -0.63647,1.9412 l -0.21232,1.0243 -0.95371,0.4885 c -0.52454,0.2687 -1.50602,0.8323 -2.18107,1.2525 l -1.22736,0.7639 0.0376,0.6147 c 0.078,1.2764 0.80131,3.3385 1.61274,4.5976 0.14187,0.2201 0.22138,0.462 0.17669,0.5375 -0.0447,0.075 -0.50027,0.3889 -1.01238,0.6965 l -0.93112,0.5592 -0.59123,-0.9812 c -0.32517,-0.5397 -1.05634,-1.7003 -1.6248,-2.5791 -0.88809,-1.3729 -1.03223,-1.6792 -1.02403,-2.1766 0.0129,-0.7786 0.45068,-2.9329 1.20513,-5.9299 l 0.62339,-2.4763 1.15675,-0.3469 c 0.96948,-0.2907 2.02601,-0.7978 2.16544,-1.0393 m -6.51013,-3.8398 -0.44412,0.7692 c -1.00873,1.7472 -1.22031,2.981 -0.79761,4.6513 l 0.28047,1.1083 -1.2067,0.614 c -1.1585,0.5894 -2.56408,1.0183 -3.26335,0.9958 -0.30531,-0.01 -0.36022,-0.1202 -0.69514,-1.3966 -0.2,-0.7622 -0.4156,-1.8377 -0.47911,-2.39 l -0.11547,-1.0042 0.7722,-0.5864 c 1.15135,-0.8742 1.80104,-1.5847 2.69484,-2.947 l 0.80568,-1.228 m -25.19196,-14.5446 -0.0665,0.6011 c -0.0366,0.3306 -0.11168,1.094 -0.16686,1.6965 -0.13788,1.5053 -0.36332,2.3661 -0.83249,3.1787 -0.48222,0.8353 -1.33847,1.4571 -2.25943,1.6408 l -0.60979,0.1217 0.27435,-1.0986 c 0.1509,-0.6042 0.31007,-1.4993 0.3537,-1.9892 0.18388,-2.0638 -0.85087,-4.1088 -2.77736,-5.489 -0.35125,-0.2516 -0.78471,-0.5692 -0.96324,-0.7057 -0.56001,-0.4282 -2.21892,-1.0816 -3.31663,-1.3063 -1.91293,-0.3916 -4.29307,-0.1584 -5.65906,0.5544 -0.75091,0.3919 -0.755,0.1647 -0.0162,-0.8987 0.66836,-0.9619 1.85492,-1.7971 3.43422,-2.4172 l 1.20215,-0.4721 m -21.59229,-12.4663 -1.63182,3.0076 c -1.92029,3.5393 -3.88001,7.4767 -5.33745,10.7238 -1.67407,3.7297 -1.60842,3.5413 -1.54353,4.4288 0.23588,3.2257 1.61046,9.0841 2.74816,11.7126 1.59736,3.6903 3.65359,6.3468 8.70454,11.2455 1.51196,1.4664 3.12781,3.1242 3.59077,3.684 1.29139,1.5616 2.94435,4.1833 5.34092,8.4712 4.20143,7.517 6.7314,10.8652 10.53403,13.9406 1.71127,1.384 5.47187,3.5085 8.16912,4.6151 2.37006,0.9723 3.43475,1.623 4.44887,2.719 0.69105,0.7468 1.39189,1.741 1.54351,2.1895 m 85.46052,-6.2878 -2.06699,-0.6551 c -6.77876,-2.1486 -12.35286,-3.121 -14.79995,-2.5818 -1.59452,0.3513 -2.74152,1.2776 -3.85139,3.1104 l -0.62674,1.035 -1.43246,0.1193 c -3.79071,0.3157 -7.69299,0.3229 -10.66343,0.02 -4.58028,-0.4675 -7.89447,-1.3141 -16.68907,-4.2633 -2.42666,-0.8137 -4.98045,-1.6093 -5.67508,-1.7679 -1.73932,-0.397 -4.52279,-0.3093 -11.29777,0.3563 l -1.7894,0.1758 0.61878,0.5487 c 1.52602,1.3532 3.72409,3.9239 4.35036,5.0879 0.22619,0.4204 0.22194,0.4488 -0.098,0.6538 -0.57213,0.3667 -2.07729,0.6333 -3.04076,0.5387 -1.07585,-0.1057 -2.15401,-0.4245 -3.39725,-1.0047 -1.66286,-0.7759 -3.0618,-1.0223 -7.99007,-1.4068 -5.47296,-0.4271 -5.65215,-0.4587 -8.87565,-1.567 -3.27818,-1.1271 -7.20449,-3.1858 -9.06687,-4.7541 -2.24573,-1.8911 -5.19862,-5.86 -7.86778,-10.5748 l -0.47418,-0.8375 0.78213,0.018 c 1.80092,0.042 3.47288,-0.4172 4.67029,-1.282 0.80034,-0.578 1.80215,-2.1421 2.01181,-3.1411 0.7795,-3.714 -0.82013,-9.1118 -4.08165,-13.7731 -2.28942,-3.272 -4.31259,-5.3563 -8.2822,-8.5324 -2.29126,-1.8333 -2.92514,-2.4249 -3.8473,-3.5911 -2.21766,-2.8046 -3.73304,-6.1351 -3.89505,-8.5606 -0.0703,-1.0531 0.20665,-2.3477 0.67638,-3.1613 0.19332,-0.3348 0.38089,-0.5918 0.41682,-0.5711 0.0359,0.021 0.21077,0.4509 0.38853,0.9559 1.04103,2.9576 3.87073,7.6566 5.62078,9.3341 0.86623,0.8303 2.06183,1.7097 4.43579,3.2629 4.21528,2.7578 5.17095,3.6029 6.82908,6.039 1.16842,1.7166 2.93342,4.7991 4.0316,7.0412 0.51427,1.0499 0.66155,1.2547 0.918,1.2767 0.42762,0.037 3.84492,-0.6996 4.29061,-0.9244 0.43283,-0.2183 0.41754,-0.1718 1.17919,-3.5861 0.28213,-1.2648 0.60173,-2.4533 0.71023,-2.6412 0.22627,-0.392 1.10424,-0.9917 2.88308,-1.9696 1.51297,-0.8317 3.70958,-1.8935 3.80421,-1.8389 0.038,0.022 0.19165,0.4881 0.34152,1.0359 l 0.27249,0.996 1.25217,0.9315 c 3.09043,2.2991 4.81692,4.3199 4.97245,5.8199 0.13521,1.3042 -0.52006,3.6502 -1.62652,5.8234 l -0.61711,1.2121 0.14788,-0.7422 c 0.41819,-2.099 0.0597,-3.691 -1.14891,-5.1029 -0.68289,-0.7977 -5.29511,-4.4777 -5.53232,-4.4141 -0.0294,0.01 0.0109,1.0039 0.0897,2.2133 0.24661,3.7863 -0.0578,7.0505 -0.81544,8.745 -0.34351,0.7683 -1.44181,2.3017 -1.80224,2.5163 -0.13306,0.079 -0.16419,-0.233 -0.10928,-1.0961 0.0902,-1.4182 -0.0378,-2.6084 -0.33037,-3.0703 -0.19944,-0.3149 -0.25389,-0.3223 -1.19307,-0.1606 -2.05247,0.3533 -4.20155,0.3872 -5.5218,0.087 l -0.68309,-0.1553 0.48401,2.5364 c 0.58984,3.0911 0.98103,4.651 1.28889,5.1395 0.18608,0.2952 0.45818,0.4805 1.35679,0.9236 2.97803,1.4687 5.98578,1.6196 8.3181,0.4173 l 0.68844,-0.3548 -1.28471,2.0419 c -1.35116,2.1475 -1.79519,2.9283 -1.88535,3.3151 -0.16826,0.722 1.91183,2.4579 2.95028,2.4622 1.45143,0.01 1.81252,0.053 2.8196,0.3718 0.60682,0.1917 1.7997,0.667 2.65083,1.0562 l 1.54752,0.7077 1.87973,-0.1285 c 2.2348,-0.1526 7.56256,-0.7289 7.54024,-0.8156 -0.009,-0.034 -0.37487,-0.4733 -0.8139,-0.9775 -2.65107,-3.0446 -4.47407,-6.4048 -4.92014,-9.0691 -0.16025,-0.9572 -0.12974,-2.4032 0.0649,-3.0777 l 0.10481,-0.3632 0.32679,0.4439 c 3.63319,4.9345 8.68401,10.3357 11.35781,12.1456 l 0.88849,0.6015 1.39525,0 c 2.57574,0.01 8.38437,-0.1501 10.82522,-0.2929 2.57309,-0.1505 3.15622,-0.3038 4.19063,-1.1015 0.57446,-0.443 0.71988,-0.6482 1.88205,-2.6554 1.11602,-1.9275 1.26235,-2.2372 1.28463,-2.719 0.0293,-0.6337 -0.32694,-1.9334 -0.78669,-2.8702 -0.17722,-0.3611 -0.379,-0.961 -0.4484,-1.3333 l -0.1262,-0.6767 m 113.28982,-6.4231 0.42415,0.917 c 0.23329,0.5043 0.5197,1.3779 0.63647,1.9412 l 0.21232,1.0243 0.95372,0.4885 c 0.52454,0.2687 1.50602,0.8323 2.18106,1.2525 l 1.22736,0.7639 -0.0375,0.6147 c -0.078,1.2764 -0.80131,3.3385 -1.61275,4.5976 -0.14187,0.2201 -0.22137,0.462 -0.17668,0.5375 0.0447,0.075 0.50027,0.3889 1.01238,0.6965 l 0.93113,0.5592 0.59122,-0.9812 c 0.32517,-0.5397 1.05633,-1.7003 1.6248,-2.5791 0.88809,-1.3729 1.03223,-1.6792 1.02402,-2.1766 -0.0129,-0.7786 -0.45067,-2.9329 -1.20513,-5.9299 l -0.62339,-2.4763 -1.15675,-0.3469 c -0.96947,-0.2907 -2.02601,-0.7978 -2.16544,-1.0393 m 6.51014,-3.8398 0.44412,0.7692 c 1.00872,1.7472 1.22031,2.981 0.7976,4.6513 l -0.28046,1.1083 1.2067,0.614 c 1.15849,0.5894 2.56408,1.0183 3.26335,0.9958 0.3053,-0.01 0.36022,-0.1202 0.69513,-1.3966 0.20001,-0.7622 0.41561,-1.8377 0.47911,-2.39 l 0.11548,-1.0042 -0.7722,-0.5864 c -1.15135,-0.8742 -1.80104,-1.5847 -2.69485,-2.947 l -0.80567,-1.228 m 25.19196,-14.5446 0.0665,0.6011 c 0.0366,0.3306 0.11167,1.094 0.16686,1.6965 0.13788,1.5053 0.36332,2.3661 0.83248,3.1787 0.48222,0.8353 1.33848,1.4571 2.25943,1.6408 l 0.6098,0.1217 -0.27436,-1.0986 c -0.1509,-0.6042 -0.31006,-1.4994 -0.3537,-1.9892 -0.18386,-2.0638 0.85088,-4.1088 2.77736,-5.489 0.35126,-0.2516 0.78472,-0.5692 0.96324,-0.7057 0.56003,-0.4282 2.21892,-1.0816 3.31663,-1.3063 1.91294,-0.3916 4.29307,-0.1584 5.65906,0.5544 0.75092,0.3919 0.75501,0.1647 0.0162,-0.8986 -0.66835,-0.962 -1.85491,-1.7972 -3.43421,-2.4173 l -1.20216,-0.4721 m 21.5923,-12.4663 1.63182,3.0076 c 1.92028,3.5393 3.88,7.4767 5.33745,10.7238 1.67407,3.7297 1.60842,3.5413 1.54352,4.4287 -0.23587,3.2258 -1.61046,9.0842 -2.74816,11.7127 -1.59735,3.6903 -3.65358,6.3468 -8.70454,11.2455 -1.51195,1.4664 -3.1278,3.1242 -3.59077,3.684 -1.29138,1.5616 -2.94434,4.1833 -5.34092,8.4712 -4.20142,7.517 -6.73139,10.8652 -10.53403,13.9406 -1.71127,1.384 -5.47187,3.5085 -8.16912,4.6151 -2.37006,0.9723 -3.43474,1.623 -4.44886,2.719 -0.69105,0.7468 -1.39189,1.741 -1.5435,2.1895 m -85.46054,-6.2878 2.06699,-0.6551 c 6.77877,-2.1486 12.35286,-3.121 14.79995,-2.5818 1.59453,0.3513 2.74153,1.2776 3.85139,3.1104 l 0.62674,1.0349 1.43247,0.1194 c 3.79071,0.3157 7.69298,0.3229 10.66342,0.02 4.58029,-0.4675 7.89448,-1.3141 16.68907,-4.2633 2.42667,-0.8137 4.98045,-1.6093 5.67509,-1.7679 1.73931,-0.397 4.52279,-0.3093 11.29776,0.3563 l 1.78941,0.1758 -0.61878,0.5487 c -1.52603,1.3532 -3.72409,3.9239 -4.35037,5.0879 -0.22619,0.4204 -0.22193,0.4488 0.098,0.6538 0.57212,0.3667 2.07728,0.6333 3.04075,0.5387 1.07586,-0.1057 2.15402,-0.4245 3.39725,-1.0047 1.66286,-0.7759 3.0618,-1.0223 7.99008,-1.4068 5.47295,-0.4271 5.65214,-0.4587 8.87565,-1.567 3.27818,-1.1271 7.20449,-3.1858 9.06687,-4.7541 2.24573,-1.8911 5.19862,-5.86 7.86778,-10.5748 l 0.47417,-0.8375 -0.78212,0.018 c -1.80092,0.042 -3.47289,-0.4172 -4.67029,-1.282 -0.80034,-0.578 -1.80216,-2.1421 -2.01181,-3.1411 -0.77951,-3.714 0.82013,-9.1118 4.08165,-13.7731 2.28943,-3.272 4.31259,-5.3563 8.28219,-8.5324 2.29128,-1.8333 2.92515,-2.4249 3.8473,-3.5911 2.21767,-2.8046 3.73305,-6.1351 3.89507,-8.5606 0.0703,-1.0531 -0.20666,-2.3477 -0.6764,-3.1613 -0.19331,-0.3349 -0.38087,-0.5918 -0.41681,-0.5711 -0.0359,0.021 -0.21078,0.4509 -0.38853,0.9559 -1.04103,2.9576 -3.87072,7.6567 -5.62079,9.3341 -0.86622,0.8303 -2.06182,1.7097 -4.43578,3.2629 -4.21528,2.7578 -5.17095,3.6029 -6.82908,6.039 -1.16842,1.7166 -2.93342,4.7991 -4.03161,7.0412 -0.51426,1.0499 -0.66155,1.2547 -0.91799,1.2767 -0.42762,0.037 -3.84493,-0.6996 -4.29062,-0.9244 -0.43282,-0.2183 -0.41753,-0.1718 -1.17918,-3.5861 -0.28213,-1.2648 -0.60174,-2.4533 -0.71023,-2.6412 -0.22627,-0.392 -1.10424,-0.9917 -2.88309,-1.9696 -1.51296,-0.8317 -3.70957,-1.8935 -3.8042,-1.8389 -0.038,0.022 -0.19166,0.4881 -0.34152,1.0359 l -0.27249,0.996 -1.25217,0.9315 c -3.09044,2.2992 -4.81692,4.3199 -4.97244,5.8199 -0.13522,1.3042 0.52005,3.6502 1.6265,5.8234 l 0.61712,1.2121 -0.14788,-0.7422 c -0.41819,-2.099 -0.0597,-3.691 1.14892,-5.1029 0.68288,-0.7977 5.2951,-4.4777 5.53231,-4.4141 0.0294,0.01 -0.0109,1.0039 -0.0897,2.2133 -0.24661,3.7863 0.0578,7.0505 0.81544,8.745 0.34351,0.7683 1.44182,2.3017 1.80224,2.5163 0.13307,0.079 0.16419,-0.233 0.10928,-1.0961 -0.0902,-1.4182 0.0378,-2.6084 0.33037,-3.0703 0.19943,-0.3149 0.25389,-0.3223 1.19307,-0.1606 2.05247,0.3533 4.20154,0.3872 5.5218,0.087 l 0.68308,-0.1553 -0.484,2.5364 c -0.58984,3.0911 -0.98102,4.651 -1.28889,5.1395 -0.18607,0.2952 -0.45818,0.4805 -1.35679,0.9236 -2.97803,1.4687 -5.98579,1.6196 -8.31809,0.4173 l -0.68845,-0.3548 1.28471,2.0419 c 1.35116,2.1475 1.79519,2.9283 1.88535,3.3151 0.16827,0.722 -1.91183,2.4579 -2.95028,2.4622 -1.45142,0.01 -1.81252,0.053 -2.8196,0.3718 -0.60683,0.1917 -1.79969,0.667 -2.65083,1.0562 l -1.54751,0.7077 -1.87974,-0.1285 c -2.23479,-0.1526 -7.56256,-0.7289 -7.54024,-0.8156 0.009,-0.034 0.37487,-0.4733 0.81391,-0.9775 2.65105,-3.0446 4.47406,-6.4048 4.92013,-9.0691 0.16026,-0.9572 0.12974,-2.4032 -0.065,-3.0777 l -0.10481,-0.3632 -0.32679,0.4439 c -3.63318,4.9345 -8.68401,10.3357 -11.35781,12.1456 l -0.8885,0.6015 -1.39523,0 c -2.57575,0.01 -8.38438,-0.1501 -10.82524,-0.2929 -2.57308,-0.1505 -3.15621,-0.3038 -4.19062,-1.1015 -0.57446,-0.443 -0.71988,-0.6482 -1.88205,-2.6554 -1.11602,-1.9275 -1.26236,-2.2373 -1.28464,-2.7191 -0.0293,-0.6336 0.32694,-1.9333 0.7867,-2.8701 0.17722,-0.3611 0.379,-0.961 0.4484,-1.3333 l 0.12619,-0.6767 m 11.20003,-6.2936 -0.58208,-0.8258 c -0.32015,-0.4542 -0.93348,-1.139 -1.36296,-1.5218 l -0.78087,-0.696 0.0538,-1.0702 c 0.0296,-0.5887 0.0322,-1.7204 0.006,-2.5151 l -0.0479,-1.4449 -0.55111,-0.2749 c -1.14437,-0.5706 -3.29184,-0.9752 -4.78794,-0.902 -0.26158,0.013 -0.51081,-0.039 -0.55387,-0.1158 -0.0431,-0.077 -0.0867,-0.6277 -0.097,-1.225 l -0.0187,-1.086 1.14539,-0.021 c 0.62996,-0.012 2.00063,-0.065 3.04592,-0.1176 1.63301,-0.083 1.97041,-0.054 2.39703,0.2015 0.66785,0.4004 2.31468,1.8568 4.53287,4.0086 l 1.83284,1.778 -0.27796,1.1752 c -0.23296,0.985 -0.32208,2.1535 -0.18264,2.395 m 6.58048,-3.718 -0.44411,-0.7692 c -1.00874,-1.7472 -1.97147,-2.5473 -3.62937,-3.0164 l -1.10002,-0.3113 0.0716,-1.352 c 0.0688,-1.298 0.40012,-2.7297 0.76927,-3.324 0.16116,-0.2595 0.28417,-0.2519 1.55701,0.096 0.76011,0.2079 1.79935,0.559 2.30941,0.7801 l 0.92738,0.4021 0.12169,0.9619 c 0.18144,1.4343 0.4719,2.3522 1.20478,3.8074 l 0.66062,1.3117 m 25.19197,-14.5446 -0.48728,-0.3581 c -0.268,-0.197 -0.89159,-0.6438 -1.38576,-0.9928 -1.23467,-0.872 -1.86744,-1.4977 -2.33662,-2.3103 -0.48222,-0.8352 -0.59259,-1.8877 -0.29124,-2.7771 l 0.19953,-0.589 0.81422,0.7869 c 0.44782,0.4328 1.14344,1.0182 1.54583,1.3009 1.69539,1.1912 3.98379,1.3176 6.14231,0.3393 0.39356,-0.1784 0.88531,-0.395 1.09279,-0.4814 0.65082,-0.2709 2.04611,-1.3808 2.78957,-2.2191 1.2956,-1.4609 2.28373,-3.6387 2.3494,-5.1781 0.0361,-0.8462 0.23491,-0.7362 0.78638,0.4353 0.49885,1.0598 0.62888,2.505 0.3763,4.1828 l -0.19226,1.2771 m 21.59228,-12.4663 -1.78876,-2.917 c -2.10499,-3.4327 -4.535,-7.0986 -6.61833,-9.9843 -2.39296,-3.3146 -2.26267,-3.1636 -3.06365,-3.5511 -2.91151,-1.4086 -8.67237,-3.1474 -11.51749,-3.4763 -3.99461,-0.4618 -7.3233,-0.01 -14.0912,1.9156 -2.0259,0.5762 -4.26953,1.1466 -4.98583,1.2676 -1.99804,0.3376 -5.09503,0.4583 -10.00672,0.3898 -8.61067,-0.12 -12.77522,0.397 -17.33996,2.1524 -2.05423,0.79 -5.7744,2.9846 -8.0813,4.7672 -2.02706,1.5664 -3.12292,2.1631 -4.57915,2.4933 -0.99232,0.2251 -2.20372,0.3349 -2.66797,0.242 m -37.28487,77.1548 1.60087,-1.4624 c 5.25011,-4.7963 8.87926,-9.1375 9.63588,-11.5263 0.493,-1.5565 0.26428,-3.013 -0.76801,-4.8906 l -0.58293,-1.0602 0.61291,-1.3002 c 1.62193,-3.4408 3.56678,-6.8239 5.31455,-9.2447 2.69497,-3.733 5.08526,-6.1798 12.03661,-12.3216 1.91807,-1.6947 3.88393,-3.5085 4.36858,-4.0308 1.21355,-1.3078 2.52928,-3.7622 5.34037,-9.9623 l 0.74247,-1.6375 -0.78459,0.2615 c -1.93493,0.645 -5.26026,1.2632 -6.58142,1.2236 -0.47717,-0.014 -0.49964,-0.032 -0.51724,-0.4118 -0.0315,-0.6788 0.49017,-2.1156 1.05385,-2.9027 0.62944,-0.8789 1.44465,-1.6532 2.56869,-2.4398 1.50343,-1.0521 2.41622,-2.1404 5.21339,-6.2162 3.10633,-4.5262 3.22332,-4.6655 5.79487,-6.903 2.61518,-2.2755 6.36123,-4.6464 8.65061,-5.4751 2.76062,-0.9993 7.6742,-1.5721 13.0919,-1.5263 l 0.96246,0.01 -0.40677,0.6683 c -0.9366,1.5388 -1.37513,3.2162 -1.22493,4.6856 0.10038,0.9821 0.95409,2.6318 1.71436,3.3128 2.82667,2.5321 8.30111,3.8456 13.96869,3.3517 3.97835,-0.3467 6.79498,-1.0566 11.53039,-2.9063 2.73329,-1.0677 3.56263,-1.3208 5.03366,-1.5363 3.53763,-0.5183 7.17963,-0.1654 9.36121,0.907 0.94717,0.4657 1.92986,1.3529 2.39959,2.1665 0.19331,0.3348 0.32208,0.6257 0.28614,0.6465 -0.0359,0.021 -0.49588,-0.043 -1.0221,-0.1415 -3.08181,-0.5772 -8.5662,-0.4762 -10.89393,0.2007 -1.15216,0.335 -2.5116,0.9307 -5.04364,2.21 -4.49598,2.2717 -5.7057,2.6768 -8.64445,2.8947 -2.07084,0.1536 -5.62292,0.1408 -8.11369,-0.029 -1.16638,-0.08 -1.41742,-0.054 -1.56468,0.1566 -0.24556,0.352 -1.3166,3.6796 -1.34476,4.178 -0.0273,0.484 -0.06,0.4475 2.51612,2.8143 0.95424,0.8767 1.82374,1.7477 1.93222,1.9357 0.22628,0.3919 0.30672,1.4521 0.26418,3.4816 -0.0362,1.7261 -0.21496,4.1593 -0.30959,4.214 -0.038,0.022 -0.51851,-0.078 -1.06786,-0.2222 l -0.99883,-0.262 -1.43281,0.6186 c -3.5363,1.5268 -6.14954,2.0117 -7.52639,1.3963 -1.19702,-0.5349 -2.90113,-2.2755 -4.22995,-4.3203 l -0.74112,-1.1404 0.56882,0.4991 c 1.60864,1.4117 3.16664,1.8973 4.99367,1.5565 1.03226,-0.1926 6.52537,-2.3469 6.58894,-2.5841 0.008,-0.029 -0.87487,-0.4925 -1.96169,-1.029 -3.40235,-1.6796 -6.07699,-3.5752 -7.16566,-5.0787 -0.49357,-0.6816 -1.27243,-2.3995 -1.27805,-2.8189 -0.002,-0.1549 0.28385,-0.026 1.00388,0.4534 1.18308,0.7873 2.27791,1.2715 2.82419,1.2491 0.37243,-0.015 0.406,-0.059 0.73557,-0.953 0.72025,-1.9541 1.76549,-3.8322 2.68564,-4.8255 l 0.47608,-0.5139 -2.43864,-0.849 c -2.97188,-1.0348 -4.51834,-1.4759 -5.09535,-1.4535 -0.34873,0.014 -0.6452,0.1565 -1.47829,0.7132 -2.76089,1.8447 -4.39544,4.374 -4.52044,6.995 l -0.0369,0.7736 -1.126,-2.1335 c -1.18425,-2.2439 -1.63841,-3.0189 -1.92834,-3.2904 -0.54108,-0.5067 -3.08448,0.4268 -3.6074,1.324 -0.73088,1.254 -0.95265,1.5429 -1.73178,2.2559 -0.46946,0.4297 -1.47754,1.2251 -2.24016,1.7676 l -1.38659,0.9864 -0.82867,1.6921 c -0.9852,2.0117 -3.14997,6.9138 -3.06374,6.9378 0.0333,0.01 0.59736,-0.088 1.25352,-0.2161 3.96219,-0.7736 7.78377,-0.6722 10.31411,0.2736 0.90906,0.3398 2.14611,1.0893 2.63292,1.5951 l 0.26208,0.2724 -0.54777,0.061 c -6.09006,0.6792 -13.29303,2.3527 -16.19736,3.7634 l -0.96509,0.4687 -0.70094,1.2064 c -1.29398,2.2271 -4.06219,7.3362 -5.15895,9.5214 -1.15617,2.3036 -1.31499,2.8853 -1.14137,4.1799 0.0964,0.719 0.2014,0.9476 1.35864,2.9577 1.11128,1.9302 1.30634,2.2118 1.71245,2.472 0.53411,0.3422 1.83781,0.6835 2.87895,0.7538 0.40132,0.027 1.0218,0.1523 1.37885,0.2783 l 0.64919,0.2291 m -51.2319,-42.4251 1.00623,0.091 c 0.55343,0.05 1.45317,0.2389 1.99942,0.4194 l 0.9932,0.3283 0.89993,-0.5817 c 0.49496,-0.3199 1.47381,-0.8881 2.17521,-1.2626 l 1.27527,-0.681 0.51355,0.3399 c 1.06641,0.7057 2.49054,2.3632 3.17521,3.6954 0.1197,0.233 0.28943,0.4228 0.37718,0.4218 0.0878,-9e-4 0.58697,-0.2387 1.1094,-0.5285 l 0.94985,-0.5267 -0.55416,-1.0027 c -0.30479,-0.5514 -0.94429,-1.7649 -1.42112,-2.6966 -0.74492,-1.4556 -0.93818,-1.7336 -1.373,-1.9752 -0.6807,-0.3781 -2.76536,-1.0761 -5.73801,-1.9212 l -2.45622,-0.6983 -0.87879,0.8283 c -0.73652,0.6943 -1.70394,1.3557 -1.9828,1.3557 m -0.0703,-7.5579 0.88823,0 c 2.01746,0 3.19177,0.4337 4.42697,1.6349 l 0.81956,0.7971 1.13506,-0.7381 c 1.08971,-0.7086 2.16396,-1.7114 2.49409,-2.3282 0.14413,-0.2693 0.076,-0.3721 -0.86189,-1.3003 -0.5601,-0.5543 -1.38374,-1.2788 -1.83029,-1.61 l -0.81191,-0.6021 -0.89389,0.3756 c -1.3328,0.56 -2.27294,0.7674 -3.89963,0.8603 l -1.4663,0.084 m 0,-29.0892 0.55381,0.2429 c 0.3046,0.1336 1.00328,0.4503 1.55262,0.7037 1.37255,0.6333 2.23078,0.8684 3.16912,0.8684 0.96443,0 1.93106,-0.4306 2.55067,-1.1363 l 0.41026,-0.4673 -1.08857,-0.3116 c -0.59872,-0.1715 -1.45351,-0.4812 -1.89953,-0.6883 -1.87927,-0.8727 -3.13292,-2.7913 -3.36495,-5.1498 -0.0423,-0.43 -0.1006,-0.9642 -0.12955,-1.187 -0.0908,-0.6991 0.17281,-2.4625 0.52706,-3.5255 0.61733,-1.8524 2.00933,-3.7971 3.30965,-4.6237 0.71481,-0.4543 0.5201,-0.5715 -0.77018,-0.4633 -1.16722,0.098 -2.48379,0.7078 -3.81052,1.7655 l -1.00989,0.805 m 0,-24.9326 3.42059,0.091 c 4.02528,0.1067 8.41501,0.3782 11.95577,0.7395 4.06705,0.4151 3.8711,0.3778 4.60718,0.8777 2.67564,1.8171 7.06192,5.9368 8.76934,8.2363 2.39725,3.2285 3.66971,6.3375 5.38665,13.1611 0.51395,2.0426 1.14173,4.2708 1.39507,4.9517 0.70666,1.8992 2.15067,4.6415 4.66579,8.861 4.40924,7.397 6.04384,11.2621 6.80593,16.093 0.34296,2.174 0.30254,6.493 -0.0878,9.3822 -0.343,2.5387 -0.31182,3.7861 0.13029,5.2123 0.30126,0.9719 0.81183,2.0759 1.12447,2.4315 m -48.17567,70.8671 0.46612,-2.1176 c 1.52866,-6.9449 3.4736,-12.2584 5.16408,-14.1081 1.10152,-1.2052 2.47724,-1.7354 4.61939,-1.7802 l 1.20967,-0.025 0.81956,-1.181 c 2.16878,-3.1249 4.1262,-6.5008 5.34888,-9.2248 1.88531,-4.2004 2.80922,-7.4939 4.65245,-16.5848 0.5086,-2.5084 1.09653,-5.1179 1.3065,-5.7987 0.52577,-1.7049 1.99352,-4.0715 5.9574,-9.6061 l 1.04694,-1.4617 0.16581,0.8102 c 0.40891,1.9982 1.53617,5.1871 2.23106,6.3115 0.25097,0.4061 0.2777,0.4166 0.6152,0.242 0.60361,-0.3121 1.58712,-1.4823 1.9869,-2.364 0.44642,-0.9845 0.70938,-2.0777 0.82857,-3.4444 0.15943,-1.8281 0.64558,-3.1628 2.77668,-7.623 2.36663,-4.9533 2.42883,-5.1243 3.08078,-8.4701 0.663,-3.4025 0.84326,-7.8321 0.41626,-10.2292 -0.51489,-2.8904 -2.47558,-7.4321 -5.22413,-12.1011 l -0.48827,-0.8294 -0.37536,0.6864 c -0.86431,1.5805 -2.09775,2.799 -3.44535,3.4036 -0.90073,0.4041 -2.75625,0.4897 -3.72618,0.1718 -3.60616,-1.182 -7.48097,-5.2662 -9.88704,-10.4214 -1.68893,-3.6187 -2.48239,-6.413 -3.24819,-11.4388 -0.44203,-2.9009 -0.63749,-3.7457 -1.18636,-5.1274 -1.31997,-3.3229 -3.44658,-6.3005 -5.46616,-7.6535 -0.87683,-0.5875 -2.13651,-0.9949 -3.07596,-0.9949 -0.38664,0 -0.70297,0.034 -0.70297,0.075 0,0.042 0.2851,0.408 0.63357,0.8144 2.04079,2.3804 4.69547,7.1805 5.27315,9.5348 0.28594,1.1653 0.44977,2.6405 0.60786,5.473 0.28069,5.0294 0.53474,6.2796 1.81537,8.9336 0.90241,1.8702 2.6895,4.94 4.08207,7.0121 0.65213,0.9703 0.75589,1.2003 0.6467,1.4334 -0.18207,0.3886 -2.52833,2.98 -2.94586,3.2536 -0.40548,0.2656 -0.35757,0.2756 -3.69531,-0.7719 -1.23637,-0.3881 -2.42547,-0.7055 -2.64246,-0.7055 -0.45255,0 -1.41095,0.4604 -3.14724,1.512 -1.47678,0.8944 -3.49463,2.2658 -3.49463,2.3751 0,0.044 0.32685,0.41 0.72634,0.8137 l 0.72634,0.734 0.18065,1.5502 c 0.44586,3.8259 1.33261,6.3315 2.55393,7.2162 1.06182,0.7691 3.42119,1.3747 5.85646,1.5031 l 1.35824,0.072 -0.71669,-0.2431 c -2.02684,-0.6873 -3.22639,-1.7937 -3.84476,-3.5464 -0.34938,-0.9902 -1.23027,-6.8245 -1.05662,-6.9982 0.0216,-0.022 0.86396,0.5114 1.872,1.1844 3.15573,2.1067 6.13473,3.4752 7.98109,3.6663 0.83708,0.087 2.71424,-0.098 3.08029,-0.3027 0.13514,-0.076 -0.11966,-0.2587 -0.8946,-0.6427 -1.27332,-0.6309 -2.24007,-1.3369 -2.49382,-1.8212 -0.17299,-0.3302 -0.15211,-0.381 0.4575,-1.1135 1.33222,-1.6009 2.43605,-3.4451 2.83616,-4.7386 l 0.20702,-0.6693 1.95462,1.6874 c 2.38204,2.0564 3.53731,3.1751 3.80645,3.686 0.16266,0.3087 0.18703,0.637 0.12151,1.6368 -0.21714,3.3134 -1.59034,5.9936 -3.79765,7.4123 l -0.65154,0.4188 2.4107,-0.092 c 2.53542,-0.096 3.4336,-0.09 3.81369,0.025 0.70935,0.2153 1.17265,2.8846 0.65712,3.7861 -0.72055,1.2599 -0.85986,1.5965 -1.08782,2.6277 -0.13736,0.6214 -0.32216,1.8921 -0.41067,2.8238 l -0.16092,1.694 -1.05107,1.5637 c -1.2496,1.8591 -4.41259,6.1849 -4.47649,6.1223 -0.0247,-0.024 -0.2225,-0.5614 -0.43963,-1.1937 -1.31112,-3.8181 -3.30969,-7.077 -5.39397,-8.7955 -0.7488,-0.6173 -2.01637,-1.3139 -2.69787,-1.4826 l -0.36689,-0.091 0.22098,0.5049 c 2.45688,5.6138 4.60902,12.6885 4.83955,15.909 l 0.0766,1.0702 -0.69431,1.2102 c -1.28176,2.2342 -4.32218,7.1861 -5.66628,9.2285 -1.41691,2.1531 -1.84122,2.5815 -3.04926,3.0784 -0.67088,0.276 -0.92127,0.2994 -3.24068,0.3022 -2.22729,0 -2.56869,-0.025 -2.99708,-0.247 -0.56342,-0.2914 -1.51087,-1.2498 -2.09226,-2.1163 -0.2241,-0.3341 -0.6428,-0.8088 -0.93045,-1.055 l -0.523,-0.4477 m 0.1496,-12.8463 -1.00623,0.091 c -0.55342,0.05 -1.45316,0.2389 -1.99942,0.4194 l -0.99319,0.3283 -0.89993,-0.5817 c -0.49497,-0.3199 -1.47381,-0.8881 -2.17521,-1.2626 l -1.27527,-0.681 -0.51356,0.3399 c -1.06641,0.7057 -2.49054,2.3632 -3.1752,3.6954 -0.1197,0.233 -0.28944,0.4228 -0.37718,0.4218 -0.0877,-9e-4 -0.58698,-0.2387 -1.1094,-0.5285 l -0.94986,-0.5267 0.55417,-1.0027 c 0.30479,-0.5514 0.94429,-1.7649 1.42111,-2.6966 0.74493,-1.4556 0.93819,-1.7336 1.37301,-1.9752 0.6807,-0.3781 2.76535,-1.0761 5.73801,-1.9212 l 2.45622,-0.6983 0.87879,0.8283 c 0.73652,0.6943 1.70394,1.3557 1.9828,1.3557 m 0.0703,-7.5579 -0.88822,0 c -2.01747,0 -3.19178,0.4337 -4.42697,1.6349 l -0.81957,0.7971 -1.13505,-0.7381 c -1.08972,-0.7086 -2.16396,-1.7114 -2.49409,-2.3282 -0.14413,-0.2693 -0.076,-0.3721 0.86188,-1.3003 0.56011,-0.5543 1.38374,-1.2788 1.83029,-1.61 l 0.81192,-0.6021 0.89389,0.3756 c 1.33279,0.56 2.27293,0.7674 3.89962,0.8603 l 1.4663,0.084 m 0,-29.0892 -0.5538,0.2429 c -0.3046,0.1336 -1.00328,0.4503 -1.55263,0.7037 -1.37255,0.6333 -2.23077,0.8684 -3.16911,0.8684 -0.96444,0 -1.93106,-0.4306 -2.55067,-1.1363 l -0.41026,-0.4673 1.08857,-0.3116 c 0.59872,-0.1715 1.4535,-0.4812 1.89953,-0.6883 1.87926,-0.8727 3.13292,-2.7913 3.36494,-5.1498 0.0423,-0.43 0.10061,-0.9642 0.12956,-1.187 0.0908,-0.6991 -0.17281,-2.4625 -0.52706,-3.5255 -0.61733,-1.8524 -2.00934,-3.7971 -3.30965,-4.6237 -0.71481,-0.4543 -0.5201,-0.5715 0.77017,-0.4633 1.16723,0.098 2.4838,0.7078 3.81053,1.7655 l 1.00988,0.805 m 0,-24.9326 -3.42058,0.091 c -4.02528,0.1067 -8.41502,0.3782 -11.95578,0.7395 -4.06704,0.4151 -3.87109,0.3778 -4.60718,0.8777 -2.67563,1.8171 -7.06191,5.9368 -8.76933,8.2363 -2.39725,3.2285 -3.66971,6.3375 -5.38665,13.1611 -0.51395,2.0426 -1.14173,4.2708 -1.39508,4.9517 -0.70665,1.8992 -2.15067,4.6415 -4.66578,8.861 -4.40925,7.397 -6.04384,11.2621 -6.80594,16.093 -0.34296,2.174 -0.30253,6.493 0.0878,9.3822 0.343,2.5387 0.31183,3.7861 -0.13028,5.2123 -0.30127,0.9719 -0.81184,2.0759 -1.12447,2.4315 m 48.17567,70.8671 -0.46612,-2.1176 c -1.52866,-6.9449 -3.47361,-12.2584 -5.16408,-14.1081 -1.10152,-1.2052 -2.47724,-1.7354 -4.61939,-1.7802 l -1.20967,-0.025 -0.81956,-1.181 c -2.16879,-3.1249 -4.12621,-6.5008 -5.34888,-9.2248 -1.88532,-4.2004 -2.80922,-7.4939 -4.65246,-16.5848 -0.50859,-2.5084 -1.09652,-5.1179 -1.3065,-5.7987 -0.52577,-1.7049 -1.99352,-4.0715 -5.9574,-9.6061 l -1.04694,-1.4617 -0.1658,0.8102 c -0.40891,1.9982 -1.53617,5.1871 -2.23106,6.3115 -0.25097,0.4061 -0.2777,0.4166 -0.6152,0.242 -0.60361,-0.3121 -1.58712,-1.4823 -1.98691,-2.364 -0.44641,-0.9845 -0.70937,-2.0777 -0.82856,-3.4444 -0.15943,-1.8281 -0.64558,-3.1628 -2.77668,-7.623 -2.36664,-4.9533 -2.42883,-5.1243 -3.08078,-8.4701 -0.663,-3.4025 -0.84326,-7.8321 -0.41626,-10.2292 0.51489,-2.8904 2.47558,-7.4321 5.22412,-12.1011 l 0.48828,-0.8294 0.37536,0.6864 c 0.86431,1.5805 2.09774,2.799 3.44535,3.4036 0.90073,0.4041 2.75624,0.4897 3.72617,0.1718 3.60617,-1.182 7.48098,-5.2662 9.88704,-10.4214 1.68893,-3.6187 2.4824,-6.413 3.2482,-11.4388 0.44202,-2.9009 0.63749,-3.7457 1.18636,-5.1274 1.31997,-3.3229 3.44658,-6.3005 5.46615,-7.6535 0.87684,-0.5875 2.13651,-0.9949 3.07597,-0.9949 0.38663,0 0.70297,0.034 0.70297,0.075 0,0.042 -0.28511,0.408 -0.63357,0.8144 -2.04079,2.3804 -4.69548,7.1805 -5.27316,9.5348 -0.28593,1.1653 -0.44977,2.6405 -0.60785,5.473 -0.2807,5.0294 -0.53474,6.2796 -1.81537,8.9336 -0.90242,1.8702 -2.6895,4.94 -4.08208,7.0121 -0.65212,0.9703 -0.75588,1.2003 -0.64669,1.4334 0.18206,0.3886 2.52832,2.98 2.94586,3.2536 0.40548,0.2656 0.35757,0.2756 3.69531,-0.7719 1.23636,-0.3881 2.42547,-0.7055 2.64245,-0.7055 0.45255,0 1.41096,0.4604 3.14725,1.512 1.47678,0.8944 3.49463,2.2658 3.49463,2.3751 0,0.044 -0.32686,0.41 -0.72634,0.8137 l -0.72634,0.734 -0.18065,1.5502 c -0.44587,3.8259 -1.33262,6.3315 -2.55394,7.2162 -1.06181,0.7691 -3.42118,1.3747 -5.85646,1.5031 l -1.35823,0.072 0.71669,-0.2431 c 2.02683,-0.6873 3.22639,-1.7937 3.84476,-3.5464 0.34937,-0.9902 1.23026,-6.8245 1.05662,-6.9982 -0.0216,-0.022 -0.86396,0.5114 -1.872,1.1844 -3.15574,2.1067 -6.13473,3.4752 -7.98109,3.6663 -0.83708,0.087 -2.71425,-0.098 -3.08029,-0.3027 -0.13514,-0.076 0.11965,-0.2587 0.8946,-0.6427 1.27332,-0.6309 2.24007,-1.3369 2.49382,-1.8212 0.17299,-0.3302 0.1521,-0.381 -0.4575,-1.1135 -1.33223,-1.6009 -2.43605,-3.4451 -2.83617,-4.7386 l -0.20701,-0.6693 -1.95462,1.6874 c -2.38205,2.0564 -3.53732,3.1751 -3.80646,3.686 -0.16266,0.3087 -0.18702,0.637 -0.1215,1.6368 0.21713,3.3134 1.59034,5.9936 3.79765,7.4123 l 0.65154,0.4188 -2.4107,-0.092 c -2.53542,-0.096 -3.43361,-0.09 -3.8137,0.025 -0.70934,0.2153 -1.17264,2.8846 -0.65711,3.7861 0.72055,1.2599 0.85986,1.5965 1.08782,2.6277 0.13736,0.6214 0.32216,1.8921 0.41067,2.8238 l 0.16092,1.694 1.05107,1.5637 c 1.2496,1.8591 4.41259,6.1849 4.47649,6.1223 0.0247,-0.024 0.22249,-0.5614 0.43962,-1.1937 1.31113,-3.8181 3.3097,-7.077 5.39398,-8.7955 0.7488,-0.6173 2.01637,-1.3139 2.69787,-1.4826 l 0.36689,-0.091 -0.22098,0.5049 c -2.45688,5.6138 -4.60902,12.6885 -4.83955,15.909 l -0.0766,1.0702 0.6943,1.2102 c 1.28176,2.2342 4.32219,7.1861 5.66628,9.2285 1.41692,2.1531 1.84122,2.5815 3.04926,3.0784 0.67088,0.276 0.92128,0.2994 3.24068,0.3022 2.2273,0 2.5687,-0.025 2.99709,-0.247 0.56342,-0.2914 1.51087,-1.2498 2.09226,-2.1163 0.22409,-0.3341 0.6428,-0.8088 0.93045,-1.055 l 0.52299,-0.4477"
     inkscape:connector-curvature="0" />
</svg>
