<?xml version="1.0" encoding="UTF-8" standalone="no"?>
<!-- Created with Inkscape (http://www.inkscape.org/) -->

<svg
   xmlns:dc="http://purl.org/dc/elements/1.1/"
   xmlns:cc="http://creativecommons.org/ns#"
   xmlns:rdf="http://www.w3.org/1999/02/22-rdf-syntax-ns#"
   xmlns:svg="http://www.w3.org/2000/svg"
   xmlns="http://www.w3.org/2000/svg"
   xmlns:sodipodi="http://sodipodi.sourceforge.net/DTD/sodipodi-0.dtd"
   xmlns:inkscape="http://www.inkscape.org/namespaces/inkscape"
   id="svg15138"
   version="1.1"
   inkscape:version="0.91 r"
   width="1249"
   height="996"
   viewBox="0 0 1249 996"
   sodipodi:docname="snowflake-Tie_Interceptor-000.svg">
  <metadata
     id="metadata15144">
    <rdf:RDF>
      <cc:Work
         rdf:about="">
        <dc:format>image/svg+xml</dc:format>
        <dc:type
           rdf:resource="http://purl.org/dc/dcmitype/StillImage" />
        <dc:title />
      </cc:Work>
    </rdf:RDF>
  </metadata>
  <defs
     id="defs15142" />
  <sodipodi:namedview
     pagecolor="#ffffff"
     bordercolor="#666666"
     borderopacity="1"
     objecttolerance="10"
     gridtolerance="10"
     guidetolerance="10"
     inkscape:pageopacity="0"
     inkscape:pageshadow="2"
     inkscape:window-width="1600"
     inkscape:window-height="843"
     id="namedview15140"
     showgrid="false"
     inkscape:zoom="2.4553905"
     inkscape:cx="568.53803"
     inkscape:cy="399.03709"
     inkscape:window-x="0"
     inkscape:window-y="0"
     inkscape:window-maximized="1"
     inkscape:current-layer="svg15138"
     showguides="true"
     inkscape:guide-bbox="true"
     inkscape:object-nodes="true"
     inkscape:snap-center="true">
    <sodipodi:guide
       position="1193.5779,131.27848"
       orientation="1,0"
       id="guide4133" />
    <sodipodi:guide
       position="1178.4884,141.84111"
       orientation="0,1"
       id="guide4135" />
  </sodipodi:namedview>
  <path
     id="path4174"
     style="fill:none;stroke:#00ff00;stroke-opacity:1;stroke-width:0.70866142;stroke-miterlimit:4;stroke-dasharray:none"
     d="m 473.99913,588.54631 c -0.67252,0.6725 -1.92249,3.0193 -2.44511,4.5907 -0.32599,0.9801 -0.66361,2.4481 -0.58185,2.5298 0.0446,0.045 2.83171,0.1957 4.84073,0.2625 l 0.78101,0.026 0.7275,-1.7834 0.72748,-1.7834 -1.95284,-1.9931 c -1.87789,-1.9167 -1.95837,-1.9877 -2.09692,-1.8491 z m 8.46119,-4.0146 c -0.97563,0.113 -2.04836,0.3971 -3.16534,0.8383 -1.72828,0.6826 -3.55059,1.7292 -3.42646,1.9678 0.0481,0.092 1.84178,2.1096 3.34512,3.7619 l 0.35188,0.3867 1.75994,-0.7223 c 0.96797,-0.3973 1.78201,-0.7444 1.80899,-0.7713 0.0488,-0.049 0.0813,-3.661 0.044,-4.8942 l -0.0196,-0.6479 z m 9.2868,1.9022 c -2.03633,-1.1066 -4.18351,-1.8277 -5.81286,-1.9523 l -0.34207,-0.026 0.008,2.7786 0.008,2.7785 1.76818,0.7204 c 0.97251,0.3962 1.79757,0.7204 1.8335,0.7204 0.0757,0 3.41024,-3.6743 3.61232,-3.9804 0.17598,-0.2665 -0.0425,-0.4775 -1.07588,-1.039 z m 2.58265,2.2544 c -0.0698,0.031 -0.96531,0.9132 -1.99,1.9601 l -1.86307,1.9036 0.69317,1.7255 c 0.38124,0.9491 0.73824,1.7527 0.79331,1.7858 0.0551,0.033 1.3335,0.01 2.84092,-0.06 l 2.74077,-0.1203 -0.0281,-0.3739 c -0.10026,-1.3338 -1.25145,-4.2942 -2.22784,-5.729 -0.6336,-0.9311 -0.82655,-1.1507 -0.95915,-1.0917 z m 7.23671,1.0602 c -0.44643,-0.1758 -1.01505,0 -1.30719,0.4062 -0.46072,0.6392 -0.17784,1.5117 0.56208,1.7336 0.94348,0.283 1.74078,-0.6103 1.3639,-1.5282 -0.17914,-0.4362 -0.1829,-0.44 -0.61879,-0.6116 z m -40.07747,-55.9069 c -0.0926,0.1361 -5.26832,6.2186 -11.50169,13.5167 -6.23336,7.2981 -11.31632,13.2862 -11.29547,13.3069 0.0464,0.046 26.25279,-20.2921 26.25274,-20.3742 -3e-5,-0.063 -3.19034,-6.5998 -3.25068,-6.6602 -0.0201,-0.02 -0.11234,0.075 -0.20489,0.2108 z m 22.69399,7.285 -0.70829,0.01 0.001,6.8724 0.001,6.8724 0.67679,0.01 c 0.37223,0 0.71629,-0.033 0.76457,-0.082 0.0483,-0.048 0.0622,-3.1461 0.0309,-6.8841 l -0.0569,-6.7963 -0.70829,0.01 z m -2.53769,-4.2863 c -1.07036,-0.072 -1.66043,1.174 -0.91104,1.9234 0.41649,0.4165 1.20106,0.4263 1.6073,0.02 0.21727,-0.2172 0.27966,-0.3943 0.27966,-0.7936 0,-0.6422 -0.39798,-1.111 -0.97592,-1.1498 z m 6.32285,0.1532 c -0.75067,-0.2954 -1.48503,0.1881 -1.53115,1.0081 -0.0226,0.4013 0.0236,0.5173 0.32624,0.8199 0.30266,0.3027 0.41864,0.3488 0.81992,0.3263 0.83253,-0.047 1.3079,-0.7881 0.99463,-1.5511 -0.17631,-0.4293 -0.18186,-0.4348 -0.60964,-0.6032 z m 17.28997,-0.4249 c -0.0564,0.1306 -0.42309,1.0734 -0.81485,2.0951 -0.62669,1.6343 -0.69071,1.877 -0.5327,2.019 0.85301,0.7666 23.23579,18.544 23.17168,18.4039 -0.0463,-0.1011 -1.98459,-2.1608 -4.30735,-4.5772 -2.32277,-2.4163 -6.97999,-7.2827 -10.34939,-10.8142 -7.79515,-8.17 -7.0408,-7.4199 -7.16739,-7.1266 z m 30.235,60.3991 -0.45461,-10.2784 c -0.58989,-13.3368 -0.49286,-11.9863 -0.87447,-12.1706 -0.22272,-0.1076 -0.39105,-0.1022 -0.57956,0.018 -0.25,0.1599 -0.28463,0.8272 -0.58693,11.3061 l -0.32124,11.1361 m -8.60896,0 -0.003,-1.2831 c -0.002,-0.7057 0.0479,-1.3354 0.11045,-1.3994 0.0626,-0.064 1.14453,-0.7651 2.40431,-1.5581 l 2.29052,-1.4419 0.16249,-1.1976 c 0.12619,-0.93 0.12231,-1.1808 -0.0173,-1.1223 -0.1371,0.057 -5.42139,3.9223 -6.2416,4.5652 -0.0956,0.075 -0.15201,0.7398 -0.15093,1.7781 l 0.002,1.6586 m -10.04479,-0.071 c -0.10222,-0.1022 -0.10425,-1.1879 -0.002,-1.2897 0.0461,-0.046 0.28369,-0.08 0.5279,-0.074 0.2442,0.01 0.47778,-0.024 0.51906,-0.066 0.0413,-0.041 0.15057,-0.4329 0.24285,-0.8702 0.17953,-0.8509 0.1189,-0.9317 -0.47296,-0.6304 -0.59873,0.3047 -1.25841,-0.2834 -1.00474,-0.8958 0.12012,-0.29 0.17807,-0.3349 0.4907,-0.3804 0.19497,-0.028 0.4308,0 0.52409,0.065 0.0933,0.064 0.31559,0.1227 0.49403,0.1299 l 0.32443,0.013 0.0991,-0.4199 0.0991,-0.4199 0.45535,0 0.45535,0 0.30578,1.5472 0.30578,1.5472 0.80302,-0.01 0.80303,-0.01 0.64182,-2.6694 0.64182,-2.6694 0.79668,-0.1827 0.79669,-0.1826 0.28825,-0.5822 0.28826,-0.5822 0.83535,-0.088 c 0.45946,-0.048 0.86009,-0.065 0.89029,-0.036 0.0302,0.028 0.1935,0.07 0.36285,0.092 l 0.30791,0.04 1.04504,-3.2567 1.04504,-3.2566 1.32094,-0.7155 1.32093,-0.7155 2.2656,-6.96 c 1.24607,-3.828 2.26797,-7.0048 2.27088,-7.0595 0.004,-0.078 -16.66958,-12.8116 -29.45722,-22.4967 l -1.81154,-1.372 -5.31551,0 c -2.92354,0 -5.33435,0.015 -5.35736,0.038 -0.0322,0.032 -1.38274,12.94 -1.41501,13.524 -0.004,0.076 0.54737,0.4465 1.33184,0.8941 l 1.33902,0.7641 1.43471,6.9744 c 0.7891,3.8359 1.4714,7.011 1.51621,7.0559 0.0448,0.045 0.45807,0.1803 0.91833,0.3012 0.46026,0.1209 0.86255,0.2775 0.89399,0.3481 0.0314,0.071 0.22914,1.1461 0.43934,2.3901 0.2102,1.244 0.46515,2.689 0.56656,3.2113 l 0.18437,0.9495 0.62581,0.4274 c 3.84009,2.6224 7.2999,8.1797 8.32964,13.3793 0.25618,1.2936 0.54214,3.9751 0.4447,4.17 m -17.64381,0.083 -0.76808,-1.6764 -0.76808,-1.6764 -1.84927,-0.8189 c -1.01711,-0.4504 -1.92912,-0.8268 -2.02671,-0.8363 -0.0976,-0.01 -1.05869,0.3467 -2.13579,0.7918 l -1.95836,0.8093 -0.75913,1.7124 -0.75914,1.7125 m -17.89326,0 0.0442,-0.8384 c 0.14446,-2.7395 1.43224,-6.7762 3.1567,-9.8949 1.20732,-2.1835 1.87488,-3.0621 3.75283,-4.9394 0.95294,-0.9526 1.86075,-1.7877 2.12588,-1.9556 l 0.46271,-0.2931 0.36893,-1.4451 c 0.2029,-0.7948 0.57025,-2.3148 0.81631,-3.3778 0.24606,-1.0629 0.46719,-1.9524 0.4914,-1.9766 0.0242,-0.024 0.44594,-0.2044 0.93719,-0.4004 l 0.89318,-0.3564 1.24967,-7.0018 c 0.68733,-3.851 1.28992,-7.042 1.33909,-7.0912 0.0492,-0.049 0.74333,-0.4075 1.54259,-0.7964 l 1.45317,-0.708 -0.3215,-2.73 c -0.51994,-4.4151 -1.30416,-10.4147 -1.36991,-10.4805 -0.0335,-0.033 -2.48792,-0.056 -5.45439,-0.05 l -5.39358,0.011 -1.6333,1.2389 c -1.54292,1.1703 -13.588,10.2353 -24.23746,18.2408 -2.65794,1.998 -5.90117,4.4366 -7.20719,5.4189 -2.56448,1.9289 -2.51777,1.9036 -4.3745,2.3679 -1.10541,0.2764 -1.42512,0.2106 -2.05155,-0.4224 -0.47804,-0.483 -0.63498,-0.9873 -0.5251,-1.6873 0.0777,-0.495 0.13354,-0.5915 0.55267,-0.9556 0.74835,-0.6501 1.72253,-0.6564 2.36361,-0.015 l 0.33737,0.3374 0.20003,-0.2913 c 0.91426,-1.3312 15.13739,-19.0527 21.85785,-27.234 4.71533,-5.7404 5.38631,-6.514 7.33739,-8.4597 3.26312,-3.2542 3.93161,-3.5474 5.03733,-2.2091 0.49304,0.5967 0.93193,1.5124 2.12163,4.4265 l 0.92719,2.2712 3.47286,-0.019 c 1.91006,-0.011 4.38626,-0.028 5.50266,-0.039 l 2.02983,-0.02 0.92601,-0.7111 c 0.50931,-0.3911 1.06689,-0.7821 1.23906,-0.8688 0.47038,-0.2369 7.08839,-0.2112 7.53558,0.029 0.18876,0.1016 0.81078,0.6117 1.38225,1.1336 l 1.03904,0.949 5.17298,0 5.17298,0 0.81779,-2.2713 m 39.10989,36.0755 0,0 c -0.24649,0.2404 -1.02975,0.469 -1.60672,0.469 -0.76265,0 -1.54722,-0.3076 -2.444,-0.9581 l -0.74004,-0.5368 0.71725,3.5155 c 0.39448,1.9335 1.18308,5.8012 1.75244,8.5949 0.95547,4.6884 1.06801,5.1347 1.46117,5.795 0.83654,1.4048 1.49364,3.2867 1.84074,5.2717 0.19704,1.1268 0.41794,3.44 0.40504,4.2412 l -0.0105,0.6507 m -68.35056,8.3938 c -0.67252,-0.6725 -1.9225,-3.0193 -2.44512,-4.5907 -0.32599,-0.9801 -0.6636,-2.4481 -0.58184,-2.5298 0.0446,-0.045 2.8317,-0.1958 4.84072,-0.2626 l 0.78101,-0.026 0.7275,1.7834 0.72749,1.7834 -1.95285,1.9931 c -1.87789,1.9167 -1.95837,1.9876 -2.09691,1.8491 z m 8.46118,4.0146 c -0.97562,-0.113 -2.04836,-0.3972 -3.16534,-0.8383 -1.72827,-0.6826 -3.55058,-1.7292 -3.42646,-1.9679 0.0481,-0.092 1.84178,-2.1096 3.34513,-3.7618 l 0.35187,-0.3868 1.75994,0.7223 c 0.96797,0.3973 1.78201,0.7444 1.80899,0.7714 0.0488,0.049 0.0813,3.6609 0.044,4.8941 l -0.0196,0.648 z m 9.2868,-1.9022 c -2.03633,1.1065 -4.18351,1.8277 -5.81286,1.9523 l -0.34206,0.026 0.008,-2.7785 0.008,-2.7785 1.76817,-0.7204 c 0.97251,-0.3962 1.79758,-0.7204 1.8335,-0.7204 0.0757,0 3.41025,3.6742 3.61233,3.9803 0.17597,0.2665 -0.0425,0.4776 -1.07588,1.0391 z m 2.58265,-2.2545 c -0.0698,-0.031 -0.96531,-0.9131 -1.99,-1.9601 l -1.86306,-1.9036 0.69316,-1.7255 c 0.38124,-0.949 0.73824,-1.7526 0.79331,-1.7857 0.0551,-0.033 1.3335,-0.01 2.84093,0.06 l 2.74076,0.1203 -0.0281,0.374 c -0.10026,1.3338 -1.25145,4.2941 -2.22784,5.729 -0.63359,0.9311 -0.82654,1.1507 -0.95914,1.0916 z m 7.23672,-1.0601 c -0.44644,0.1758 -1.01506,0 -1.3072,-0.4062 -0.46071,-0.6392 -0.17783,-1.5117 0.56208,-1.7336 0.94349,-0.283 1.74078,0.6103 1.3639,1.5281 -0.17914,0.4363 -0.1829,0.44 -0.61878,0.6117 z m -40.07748,55.9068 c -0.0926,-0.136 -5.26831,-6.2185 -11.50168,-13.5166 -6.23336,-7.2981 -11.31632,-13.2862 -11.29547,-13.307 0.0464,-0.046 26.25278,20.2922 26.25274,20.3743 -4e-5,0.063 -3.19035,6.5998 -3.25069,6.6602 -0.0201,0.02 -0.11233,-0.075 -0.20489,-0.2109 z m 22.694,-7.285 -0.70829,-0.01 0.001,-6.8724 0.001,-6.8724 0.67679,-0.01 c 0.37223,0 0.71628,0.033 0.76456,0.081 0.0483,0.048 0.0622,3.1461 0.0309,6.8841 l -0.0569,6.7964 -0.70829,-0.01 z m -2.5377,4.2863 c -1.07036,0.072 -1.66043,-1.1739 -0.91104,-1.9233 0.4165,-0.4165 1.20106,-0.4263 1.60731,-0.02 0.21726,0.2173 0.27966,0.3944 0.27966,0.7937 0,0.6421 -0.39798,1.111 -0.97593,1.1497 z m 6.32285,-0.1532 c -0.75067,0.2954 -1.48503,-0.1881 -1.53115,-1.008 -0.0226,-0.4013 0.0236,-0.5173 0.32624,-0.82 0.30266,-0.3026 0.41865,-0.3488 0.81992,-0.3262 0.83253,0.047 1.3079,0.7881 0.99463,1.551 -0.17631,0.4294 -0.18185,0.4349 -0.60964,0.6032 z m 17.28997,0.425 c -0.0564,-0.1307 -0.42309,-1.0735 -0.81485,-2.0951 -0.62668,-1.6343 -0.69071,-1.877 -0.53269,-2.019 0.85301,-0.7666 23.23578,-18.544 23.17167,-18.404 -0.0463,0.1011 -1.98459,2.1609 -4.30735,4.5772 -2.32277,2.4164 -6.97998,7.2828 -10.34938,10.8142 -7.79515,8.17 -7.0408,7.42 -7.1674,7.1267 z m 30.23501,-60.3991 -0.45462,10.2784 c -0.58989,13.3367 -0.49286,11.9863 -0.87447,12.1706 -0.22272,0.1076 -0.39104,0.1022 -0.57956,-0.018 -0.25,-0.16 -0.28463,-0.8273 -0.58692,-11.3061 l -0.32125,-11.1361 m -8.60896,0 -0.003,1.2831 c -0.002,0.7057 0.0479,1.3355 0.11045,1.3994 0.0626,0.064 1.14453,0.7652 2.40432,1.5582 l 2.29051,1.4419 0.16249,1.1976 c 0.1262,0.93 0.12232,1.1808 -0.0174,1.1223 -0.1371,-0.057 -5.42139,-3.9223 -6.2416,-4.5652 -0.0956,-0.075 -0.152,-0.7399 -0.15092,-1.7782 l 0.002,-1.6585 m -10.04479,0.071 c -0.10222,0.1022 -0.10426,1.1879 -0.002,1.2897 0.0461,0.046 0.28369,0.08 0.52789,0.074 0.2442,-0.01 0.47778,0.024 0.51906,0.066 0.0413,0.041 0.15057,0.4328 0.24285,0.8702 0.17954,0.8508 0.11891,0.9317 -0.47296,0.6304 -0.59873,-0.3047 -1.2584,0.2833 -1.00474,0.8957 0.12013,0.29 0.17807,0.335 0.4907,0.3805 0.19497,0.028 0.43081,0 0.52409,-0.065 0.0933,-0.064 0.31559,-0.1226 0.49404,-0.1299 l 0.32442,-0.013 0.0991,0.4199 0.0991,0.4199 0.45535,0 0.45535,0 0.30578,-1.5472 0.30579,-1.5472 0.80301,0.01 0.80303,0.01 0.64182,2.6694 0.64182,2.6694 0.79668,0.1826 0.79669,0.1827 0.28826,0.5822 0.28825,0.5822 0.83535,0.088 c 0.45946,0.049 0.86009,0.065 0.8903,0.037 0.0302,-0.028 0.19349,-0.07 0.36284,-0.092 l 0.30792,-0.04 1.04504,3.2566 1.04503,3.2567 1.32094,0.7155 1.32093,0.7154 2.2656,6.9601 c 1.24607,3.828 2.26797,7.0048 2.27088,7.0595 0.004,0.078 -16.66958,12.8116 -29.45721,22.4966 l -1.81155,1.3721 -5.31551,0 c -2.92354,0 -5.33435,-0.015 -5.35735,-0.038 -0.0322,-0.032 -1.38275,-12.9399 -1.41502,-13.5239 -0.004,-0.076 0.54737,-0.4465 1.33184,-0.8941 l 1.33902,-0.7641 1.43472,-6.9744 c 0.7891,-3.8359 1.47139,-7.0111 1.51621,-7.0559 0.0448,-0.045 0.45806,-0.1804 0.91832,-0.3012 0.46027,-0.1209 0.86255,-0.2775 0.89399,-0.3481 0.0314,-0.071 0.22915,-1.1462 0.43934,-2.3901 0.2102,-1.244 0.46515,-2.6891 0.56656,-3.2113 l 0.18438,-0.9495 0.62581,-0.4274 c 3.84009,-2.6225 7.2999,-8.1797 8.32963,-13.3794 0.25619,-1.2935 0.54215,-3.975 0.4447,-4.1699 m -17.6438,-0.083 -0.76809,1.6764 -0.76808,1.6763 -1.84927,0.819 c -1.01711,0.4504 -1.92912,0.8267 -2.0267,0.8363 -0.0976,0.01 -1.05869,-0.3467 -2.13579,-0.7918 l -1.95836,-0.8093 -0.75914,-1.7124 -0.75914,-1.7125 m -17.89326,0 0.0442,0.8384 c 0.14446,2.7395 1.43224,6.7761 3.1567,9.8949 1.20732,2.1835 1.87489,3.0621 3.75283,4.9393 0.95295,0.9527 1.86075,1.7877 2.12588,1.9557 l 0.46272,0.2931 0.36893,1.4451 c 0.2029,0.7948 0.57024,2.3148 0.8163,3.3777 0.24606,1.063 0.46719,1.9525 0.4914,1.9767 0.0242,0.024 0.44595,0.2044 0.93719,0.4004 l 0.89318,0.3564 1.24968,7.0018 c 0.68732,3.8509 1.28992,7.042 1.33909,7.0912 0.0492,0.049 0.74332,0.4075 1.54258,0.7963 l 1.45318,0.7081 -0.3215,2.73 c -0.51995,4.415 -1.30416,10.4147 -1.36991,10.4804 -0.0335,0.034 -2.48793,0.056 -5.4544,0.05 l -5.39358,-0.011 -1.6333,-1.2389 c -1.54291,-1.1703 -13.588,-10.2353 -24.23746,-18.2408 -2.65794,-1.9981 -5.90117,-4.4366 -7.20719,-5.4189 -2.56448,-1.9289 -2.51777,-1.9037 -4.3745,-2.3679 -1.10541,-0.2764 -1.42512,-0.2106 -2.05155,0.4224 -0.47804,0.483 -0.63498,0.9873 -0.5251,1.6873 0.0777,0.495 0.13354,0.5915 0.55267,0.9556 0.74835,0.6501 1.72253,0.6564 2.36361,0.015 l 0.33737,-0.3374 0.20003,0.2913 c 0.91426,1.3312 15.13739,19.0526 21.85785,27.234 4.71533,5.7404 5.38631,6.514 7.3374,8.4597 3.26311,3.2542 3.93161,3.5473 5.03732,2.2091 0.49304,-0.5967 0.93194,-1.5125 2.12164,-4.4266 l 0.92718,-2.2711 3.47286,0.019 c 1.91006,0.011 4.38626,0.028 5.50267,0.039 l 2.02982,0.02 0.92601,0.7112 c 0.50931,0.3911 1.06689,0.782 1.23906,0.8688 0.47038,0.2369 7.08839,0.2112 7.53559,-0.029 0.18876,-0.1015 0.81077,-0.6116 1.38224,-1.1335 l 1.03904,-0.949 5.17298,0 5.17298,0 0.81779,2.2714 m 39.10989,-36.0755 0,0 c -0.24649,-0.2404 -1.02974,-0.469 -1.60671,-0.469 -0.76266,0 -1.54722,0.3075 -2.44401,0.9581 l -0.74003,0.5368 0.71724,-3.5155 c 0.39448,-1.9335 1.18309,-5.8012 1.75245,-8.595 0.95546,-4.6883 1.068,-5.1346 1.46116,-5.7949 0.83655,-1.4049 1.49364,-3.2868 1.84074,-5.2717 0.19704,-1.1268 0.41794,-3.44 0.40504,-4.2412 l -0.0105,-0.6507 m 17.77151,94.56 c 0.67252,0.6726 3.01933,1.9225 4.59067,2.4452 0.98013,0.326 2.44809,0.6636 2.52985,0.5818 0.0446,-0.045 0.19572,-2.8317 0.26252,-4.8407 l 0.026,-0.781 -1.7834,-0.7275 -1.7834,-0.7275 -1.99314,1.9528 c -1.91666,1.8779 -1.98763,1.9584 -1.84908,2.0969 z m -4.01463,-8.4611 c 0.11306,0.9756 0.39718,2.0483 0.83835,3.1653 0.68261,1.7283 1.72918,3.5506 1.96783,3.4265 0.0924,-0.048 2.10958,-1.8418 3.76187,-3.3452 l 0.38672,-0.3518 -0.72231,-1.76 c -0.39727,-0.9679 -0.7444,-1.782 -0.77136,-1.809 -0.0488,-0.049 -3.66092,-0.081 -4.89413,-0.044 l -0.64792,0.02 z m 1.90221,-9.2868 c -1.10653,2.0363 -1.82766,4.1835 -1.95227,5.8128 l -0.0262,0.3421 2.77851,-0.01 2.77851,-0.01 0.72041,-1.7682 c 0.39623,-0.9725 0.72041,-1.7975 0.72041,-1.8335 0,-0.076 -3.67426,-3.4102 -3.98034,-3.6123 -0.26653,-0.176 -0.47757,0.043 -1.03908,1.0759 z m 2.25446,-2.5827 c 0.0311,0.07 0.91315,0.9653 1.96011,1.99 l 1.90358,1.8631 1.72553,-0.6932 c 0.94903,-0.3812 1.75261,-0.7382 1.78574,-0.7933 0.0331,-0.055 0.006,-1.3335 -0.0601,-2.8409 l -0.12027,-2.7408 -0.37396,0.028 c -1.33383,0.1003 -4.29416,1.2515 -5.72902,2.2279 -0.93109,0.6336 -1.1507,0.8265 -1.09164,0.9591 z m 1.06016,-7.2367 c -0.17581,0.4464 0.001,1.0151 0.40622,1.3072 0.6392,0.4607 1.51167,0.1778 1.7336,-0.5621 0.28298,-0.9435 -0.61033,-1.7408 -1.52817,-1.3639 -0.43629,0.1792 -0.44001,0.1829 -0.61165,0.6188 z m -55.90686,40.0775 c 0.13609,0.092 6.21859,5.2683 13.51667,11.5017 7.29809,6.2333 13.2862,11.3163 13.30692,11.2954 0.0461,-0.046 -20.29215,-26.2528 -20.37424,-26.2527 -0.0634,0 -6.59982,3.1903 -6.66016,3.2507 -0.0201,0.02 0.0747,0.1123 0.21081,0.2049 z m 7.28501,-22.694 0.005,0.7083 6.87239,0 6.87239,0 0.006,-0.6768 c 0.003,-0.3722 -0.0332,-0.7162 -0.0814,-0.7645 -0.0483,-0.048 -3.14611,-0.062 -6.88409,-0.031 l -6.79633,0.057 0.005,0.7083 z m -4.28631,2.5377 c -0.0718,1.0703 1.17397,1.6604 1.92336,0.911 0.41651,-0.4165 0.42629,-1.201 0.02,-1.6073 -0.21727,-0.2173 -0.39432,-0.2797 -0.79363,-0.2797 -0.64215,0 -1.11102,0.398 -1.14977,0.976 z m 0.15321,-6.3229 c -0.2954,0.7507 0.18808,1.4851 1.00806,1.5312 0.40129,0.023 0.51727,-0.024 0.81993,-0.3263 0.30266,-0.3026 0.34881,-0.4186 0.32624,-0.8199 -0.0468,-0.8325 -0.7881,-1.3079 -1.55102,-0.9946 -0.42937,0.1763 -0.43487,0.1818 -0.6032,0.6096 z m -0.42497,-17.2899 c 0.13066,0.056 1.07347,0.423 2.09512,0.8148 1.63429,0.6267 1.87698,0.6907 2.01899,0.5327 0.76663,-0.853 18.54402,-23.2358 18.40396,-23.1717 -0.10111,0.046 -2.16086,1.9846 -4.57722,4.3074 -2.41637,2.3227 -7.28274,6.98 -10.81417,10.3494 -8.17,7.7951 -7.41995,7.0408 -7.12668,7.1674 z m 60.39909,-30.235 -10.27834,0.4546 c -13.33679,0.5899 -11.98631,0.4928 -12.17063,0.8744 -0.10758,0.2228 -0.10223,0.3911 0.0184,0.5796 0.15995,0.25 0.82725,0.2846 11.3061,0.5869 l 11.1361,0.3213 m 0.004,8.6089 -1.2831,0 c -0.7057,0 -1.33542,-0.048 -1.39939,-0.1104 -0.064,-0.063 -0.76514,-1.1445 -1.55819,-2.4043 l -1.44187,-2.2905 -1.19759,-0.1625 c -0.93003,-0.1262 -1.18077,-0.1223 -1.12234,0.017 0.0574,0.1371 3.92236,5.4214 4.56521,6.2416 0.0749,0.096 0.73986,0.152 1.77818,0.1509 l 1.65856,0 m -0.0709,10.0448 c -0.10222,0.1022 -1.18792,0.1043 -1.28975,0 -0.0462,-0.046 -0.0796,-0.2837 -0.0744,-0.5279 0.005,-0.2442 -0.0243,-0.4778 -0.0656,-0.5191 -0.0413,-0.041 -0.43288,-0.1505 -0.87019,-0.2428 -0.8509,-0.1796 -0.93172,-0.1189 -0.63046,0.4729 0.30476,0.5988 -0.28333,1.2584 -0.89572,1.0048 -0.29001,-0.1201 -0.33494,-0.1781 -0.38044,-0.4907 -0.0284,-0.195 0.001,-0.4308 0.0651,-0.5241 0.0642,-0.093 0.12265,-0.3156 0.12991,-0.494 l 0.0132,-0.3245 -0.41991,-0.099 -0.4199,-0.099 0,-0.4554 0,-0.4553 1.5472,-0.3058 1.5472,-0.3058 -0.007,-0.803 -0.007,-0.803 -2.66942,-0.6419 -2.6694,-0.6418 -0.18265,-0.7967 -0.18265,-0.7966 -0.58222,-0.2883 -0.58222,-0.2883 -0.0881,-0.8353 c -0.0485,-0.4595 -0.0649,-0.8601 -0.0365,-0.8903 0.0284,-0.03 0.0696,-0.1935 0.0917,-0.3628 l 0.0401,-0.308 -3.25665,-1.045 -3.25665,-1.045 -0.71547,-1.321 -0.71547,-1.3209 -6.96004,-2.2656 c -3.82802,-1.2461 -7.00479,-2.268 -7.05948,-2.2709 -0.0778,0 -12.81161,16.6696 -22.4967,29.4572 l -1.37201,1.8116 -0.004,5.3155 c -0.002,2.9235 0.0147,5.3343 0.0377,5.3573 0.0322,0.032 12.93996,1.3828 13.52397,1.4151 0.0762,0 0.44645,-0.5474 0.89409,-1.3319 l 0.7641,-1.339 6.97439,-1.4347 c 3.83591,-0.7891 7.01106,-1.4714 7.05589,-1.5162 0.0448,-0.045 0.18037,-0.4581 0.30123,-0.9184 0.12087,-0.4602 0.27751,-0.8625 0.3481,-0.8939 0.0706,-0.032 1.14613,-0.2292 2.3901,-0.4394 1.24396,-0.2102 2.68903,-0.4651 3.21128,-0.5665 l 0.94952,-0.1844 0.42738,-0.6258 c 2.62246,-3.8401 8.17973,-7.2999 13.37935,-8.3297 1.29358,-0.2562 3.97505,-0.5421 4.16994,-0.4447 m 0.083,17.6438 -1.67635,0.7681 -1.67636,0.7681 -0.81893,1.8493 c -0.45041,1.0171 -0.82678,1.9291 -0.83636,2.0267 -0.01,0.098 0.34675,1.0587 0.79186,2.1358 l 0.80927,1.9583 1.71243,0.7592 1.71244,0.7591 m 0,17.8933 -0.83836,-0.044 c -2.73949,-0.1445 -6.77615,-1.4323 -9.89491,-3.1567 -2.18348,-1.2074 -3.0621,-1.8749 -4.93934,-3.7529 -0.95263,-0.9529 -1.78771,-1.8607 -1.95567,-2.1258 l -0.29312,-0.4628 -1.44509,-0.3689 c -0.7948,-0.2029 -2.31479,-0.5702 -3.37774,-0.8163 -1.06296,-0.2461 -1.95246,-0.4672 -1.97666,-0.4914 -0.0242,-0.024 -0.20439,-0.4459 -0.4004,-0.9372 l -0.35637,-0.8932 -7.00179,-1.2496 c -3.85098,-0.6874 -7.04202,-1.29 -7.09119,-1.3391 -0.0492,-0.049 -0.40755,-0.7434 -0.79639,-1.5426 l -0.70802,-1.4532 -2.73002,0.3215 c -4.41506,0.52 -10.41471,1.3042 -10.48046,1.3699 -0.0335,0.034 -0.056,2.4879 -0.0501,5.4544 l 0.0107,5.3936 1.23889,1.6333 c 1.17034,1.5429 10.23533,13.588 18.24083,24.2375 1.99805,2.6579 4.43656,5.9011 5.4189,7.2071 1.92892,2.5645 1.90363,2.5178 2.3679,4.3745 0.27641,1.1055 0.21059,1.4252 -0.42238,2.0516 -0.48305,0.478 -0.98736,0.635 -1.68734,0.5251 -0.49497,-0.078 -0.59153,-0.1335 -0.95561,-0.5527 -0.65007,-0.7483 -0.65635,-1.7225 -0.0152,-2.3636 l 0.33736,-0.3374 -0.29126,-0.2 c -1.33121,-0.9142 -19.05268,-15.1374 -27.23406,-21.8578 -5.74036,-4.7154 -6.51396,-5.3864 -8.45969,-7.3374 -3.25415,-3.2631 -3.54732,-3.9316 -2.20908,-5.0374 0.59672,-0.493 1.51244,-0.9319 4.42656,-2.1216 l 2.27111,-0.9272 -0.0193,-3.4728 c -0.0106,-1.9101 -0.0283,-4.3863 -0.0394,-5.5027 l -0.0202,-2.0298 -0.71113,-0.926 c -0.39111,-0.5093 -0.78208,-1.0669 -0.86881,-1.2391 -0.23694,-0.4704 -0.21118,-7.0884 0.0293,-7.5356 0.10152,-0.1887 0.61162,-0.8108 1.13357,-1.3822 l 0.94897,-1.0391 -0.001,-5.1729 -0.001,-5.173 -2.27137,-0.8178 m 36.07552,-39.1099 -10e-6,0 c 0.24039,0.2465 0.46903,1.0297 0.46902,1.6067 0,0.7627 -0.30756,1.5472 -0.95808,2.444 l -0.53685,0.74 3.51548,-0.7172 c 1.93351,-0.3945 5.80125,-1.1831 8.595,-1.7524 4.68833,-0.9555 5.13462,-1.068 5.79491,-1.4612 1.40489,-0.8366 3.28678,-1.4937 5.27176,-1.8408 1.1268,-0.197 3.43995,-0.4179 4.24117,-0.405 l 0.65072,0.01 m 8.39377,68.3505 c -0.67252,0.6726 -3.01933,1.9225 -4.59066,2.4452 -0.98014,0.326 -2.4481,0.6636 -2.52986,0.5818 -0.0446,-0.045 -0.19572,-2.8317 -0.26252,-4.8407 l -0.026,-0.781 1.7834,-0.7275 1.7834,-0.7275 1.99314,1.9528 c 1.91665,1.8779 1.98763,1.9584 1.84907,2.0969 z m 4.01463,-8.4611 c -0.11306,0.9756 -0.39718,2.0483 -0.83835,3.1653 -0.6826,1.7283 -1.72917,3.5506 -1.96783,3.4265 -0.0924,-0.048 -2.10958,-1.8418 -3.76187,-3.3452 l -0.38672,-0.3518 0.72231,-1.76 c 0.39728,-0.9679 0.7444,-1.782 0.77137,-1.809 0.0488,-0.049 3.66091,-0.081 4.89413,-0.044 l 0.64791,0.02 z m -1.90221,-9.2868 c 1.10653,2.0363 1.82767,4.1835 1.95227,5.8128 l 0.0262,0.3421 -2.77851,-0.01 -2.77851,-0.01 -0.72041,-1.7682 c -0.39623,-0.9725 -0.72041,-1.7975 -0.72041,-1.8335 0,-0.076 3.67425,-3.4102 3.98034,-3.6123 0.26652,-0.176 0.47756,0.043 1.03908,1.0759 z m -2.25446,-2.5827 c -0.0311,0.07 -0.91315,0.9653 -1.96011,1.99 l -1.90358,1.8631 -1.72553,-0.6932 c -0.94903,-0.3812 -1.75261,-0.7382 -1.78574,-0.7933 -0.0331,-0.055 -0.006,-1.3335 0.0601,-2.8409 l 0.12028,-2.7408 0.37396,0.028 c 1.33383,0.1003 4.29416,1.2515 5.72902,2.2279 0.93109,0.6336 1.1507,0.8265 1.09164,0.9591 z m -1.06015,-7.2367 c 0.1758,0.4464 -0.001,1.0151 -0.40623,1.3072 -0.6392,0.4607 -1.51166,0.1778 -1.73359,-0.5621 -0.28299,-0.9435 0.61032,-1.7408 1.52816,-1.3639 0.43629,0.1792 0.44001,0.1829 0.61166,0.6188 z m 55.90685,40.0775 c -0.13609,0.092 -6.21859,5.2683 -13.51667,11.5017 -7.29809,6.2333 -13.2862,11.3163 -13.30692,11.2954 -0.0461,-0.046 20.29215,-26.2528 20.37424,-26.2527 0.0634,0 6.59982,3.1903 6.66016,3.2507 0.0201,0.02 -0.0747,0.1123 -0.21081,0.2049 z m -7.28501,-22.694 -0.005,0.7083 -6.87239,0 -6.87239,0 -0.006,-0.6768 c -0.004,-0.3722 0.0332,-0.7162 0.0814,-0.7645 0.0483,-0.048 3.14611,-0.062 6.88409,-0.031 l 6.79633,0.057 -0.005,0.7083 z m 4.28631,2.5377 c 0.0718,1.0703 -1.17397,1.6604 -1.92336,0.911 -0.41651,-0.4165 -0.42629,-1.201 -0.02,-1.6073 0.21727,-0.2173 0.39432,-0.2797 0.79363,-0.2797 0.64215,0 1.11102,0.398 1.14977,0.976 z m -0.15321,-6.3229 c 0.2954,0.7507 -0.18808,1.4851 -1.00806,1.5312 -0.40129,0.023 -0.51727,-0.024 -0.81993,-0.3263 -0.30266,-0.3026 -0.34881,-0.4186 -0.32624,-0.8199 0.0468,-0.8325 0.7881,-1.3079 1.55102,-0.9946 0.42937,0.1763 0.43487,0.1818 0.6032,0.6096 z m 0.42497,-17.2899 c -0.13066,0.056 -1.07347,0.423 -2.09512,0.8148 -1.63429,0.6267 -1.87698,0.6907 -2.01899,0.5327 -0.76663,-0.853 -18.54402,-23.2358 -18.40396,-23.1717 0.10111,0.046 2.16086,1.9846 4.57722,4.3074 2.41637,2.3227 7.28274,6.98 10.81417,10.3494 8.17,7.7951 7.41995,7.0408 7.12668,7.1674 z m -60.39909,-30.235 10.27834,0.4546 c 13.33679,0.5899 11.98631,0.4928 12.17063,0.8744 0.10758,0.2228 0.10223,0.3911 -0.0184,0.5796 -0.15995,0.25 -0.82725,0.2846 -11.30609,0.5869 l -11.13611,0.3213 m -0.004,8.6089 1.2831,0 c 0.7057,0 1.33543,-0.048 1.39939,-0.1104 0.064,-0.063 0.76514,-1.1445 1.55819,-2.4043 l 1.44188,-2.2905 1.19758,-0.1625 c 0.93003,-0.1262 1.18078,-0.1223 1.12234,0.017 -0.0574,0.1371 -3.92235,5.4214 -4.5652,6.2416 -0.0749,0.096 -0.73987,0.152 -1.77819,0.1509 l -1.65856,0 m 0.0709,10.0448 c 0.10222,0.1022 1.18791,0.1043 1.28974,0 0.0461,-0.046 0.0796,-0.2837 0.0744,-0.5279 -0.005,-0.2442 0.0243,-0.4778 0.0656,-0.5191 0.0413,-0.041 0.43289,-0.1505 0.8702,-0.2428 0.8509,-0.1796 0.93172,-0.1189 0.63046,0.4729 -0.30476,0.5988 0.28333,1.2584 0.89572,1.0048 0.29,-0.1201 0.33494,-0.1781 0.38044,-0.4907 0.0284,-0.195 -0.001,-0.4308 -0.0651,-0.5241 -0.0642,-0.093 -0.12265,-0.3156 -0.12991,-0.494 l -0.0132,-0.3245 0.4199,-0.099 0.41991,-0.099 0,-0.4554 0,-0.4553 -1.5472,-0.3058 -1.5472,-0.3058 0.007,-0.803 0.007,-0.803 2.66942,-0.6419 2.6694,-0.6418 0.18265,-0.7967 0.18265,-0.7966 0.58222,-0.2883 0.58222,-0.2883 0.0881,-0.8353 c 0.0485,-0.4595 0.0649,-0.8601 0.0365,-0.8903 -0.0284,-0.03 -0.0696,-0.1935 -0.0917,-0.3628 l -0.0401,-0.308 3.25665,-1.045 3.25665,-1.045 0.71547,-1.321 0.71547,-1.3209 6.96003,-2.2656 c 3.82802,-1.2461 7.00479,-2.268 7.05949,-2.2709 0.0778,0 12.81161,16.6696 22.4967,29.4572 l 1.37201,1.8116 0.004,5.3155 c 0.002,2.9235 -0.0147,5.3343 -0.0377,5.3573 -0.0322,0.032 -12.93996,1.3828 -13.52397,1.4151 -0.0762,0 -0.44645,-0.5474 -0.8941,-1.3319 l -0.76409,-1.339 -6.97439,-1.4347 c -3.83591,-0.7891 -7.01106,-1.4714 -7.05589,-1.5162 -0.0448,-0.045 -0.18037,-0.4581 -0.30123,-0.9184 -0.12087,-0.4602 -0.27751,-0.8625 -0.34811,-0.8939 -0.0706,-0.032 -1.14613,-0.2292 -2.39009,-0.4394 -1.24396,-0.2102 -2.68903,-0.4651 -3.21128,-0.5665 l -0.94952,-0.1844 -0.42738,-0.6258 c -2.62247,-3.8401 -8.17973,-7.2999 -13.37935,-8.3297 -1.29358,-0.2562 -3.97505,-0.5421 -4.16994,-0.4447 m -0.083,17.6438 1.67635,0.7681 1.67636,0.7681 0.81893,1.8493 c 0.45041,1.0171 0.82678,1.9291 0.83636,2.0267 0.01,0.098 -0.34675,1.0587 -0.79186,2.1358 l -0.80927,1.9583 -1.71243,0.7592 -1.71244,0.7591 m 0,17.8933 0.83836,-0.044 c 2.73949,-0.1445 6.77615,-1.4323 9.8949,-3.1567 2.18349,-1.2074 3.06211,-1.8749 4.93935,-3.7529 0.95263,-0.9529 1.78771,-1.8607 1.95567,-2.1258 l 0.29312,-0.4628 1.44509,-0.3689 c 0.7948,-0.2029 2.31478,-0.5702 3.37774,-0.8163 1.06296,-0.2461 1.95246,-0.4672 1.97666,-0.4914 0.0242,-0.024 0.20439,-0.4459 0.4004,-0.9372 l 0.35636,-0.8932 7.0018,-1.2496 c 3.85098,-0.6874 7.04202,-1.29 7.09119,-1.3391 0.0492,-0.049 0.40755,-0.7434 0.79639,-1.5426 l 0.70802,-1.4532 2.73002,0.3215 c 4.41506,0.52 10.41471,1.3042 10.48046,1.3699 0.0335,0.034 0.056,2.4879 0.0501,5.4544 l -0.0107,5.3936 -1.23889,1.6333 c -1.17034,1.5429 -10.23533,13.588 -18.24083,24.2375 -1.99805,2.6579 -4.43656,5.9011 -5.4189,7.2071 -1.92892,2.5645 -1.90363,2.5178 -2.3679,4.3745 -0.27642,1.1055 -0.21059,1.4252 0.42238,2.0516 0.48305,0.478 0.98736,0.635 1.68733,0.5251 0.49498,-0.078 0.59153,-0.1335 0.95562,-0.5527 0.65006,-0.7483 0.65635,-1.7225 0.0152,-2.3636 l -0.33736,-0.3374 0.29126,-0.2 c 1.33121,-0.9142 19.05268,-15.1374 27.23406,-21.8578 5.74036,-4.7154 6.51396,-5.3864 8.45968,-7.3374 3.25416,-3.2631 3.54733,-3.9316 2.20909,-5.0374 -0.59673,-0.493 -1.51244,-0.9319 -4.42656,-2.1216 l -2.27111,-0.9272 0.0193,-3.4728 c 0.0106,-1.9101 0.0283,-4.3863 0.0394,-5.5027 l 0.0201,-2.0298 0.71112,-0.926 c 0.39112,-0.5093 0.78209,-1.0669 0.86882,-1.2391 0.23694,-0.4704 0.21118,-7.0884 -0.0293,-7.5356 -0.10152,-0.1887 -0.61162,-0.8108 -1.13357,-1.3822 l -0.94898,-1.0391 0.001,-5.1729 0.001,-5.173 2.27138,-0.8178 m -36.07553,-39.1099 10e-6,0 c -0.24039,0.2465 -0.46903,1.0297 -0.46902,1.6067 0,0.7627 0.30756,1.5472 0.95809,2.444 l 0.53684,0.74 -3.51548,-0.7172 c -1.9335,-0.3945 -5.80125,-1.1831 -8.59499,-1.7524 -4.68833,-0.9555 -5.13463,-1.068 -5.79491,-1.4612 -1.40489,-0.8366 -3.28678,-1.4937 -5.27176,-1.8408 -1.1268,-0.197 -3.43995,-0.4179 -4.24117,-0.405 l -0.65072,0.01 m 94.56009,-17.7715 c 0.67252,-0.6725 1.9225,-3.0193 2.44511,-4.5907 0.32599,-0.9801 0.66361,-2.4481 0.58185,-2.5298 -0.0446,-0.045 -2.8317,-0.1958 -4.84073,-0.2626 l -0.78101,-0.026 -0.72749,1.7834 -0.72749,1.7834 1.95285,1.9931 c 1.87789,1.9167 1.95837,1.9876 2.09691,1.8491 z m -8.46119,4.0146 c 0.97563,-0.113 2.04836,-0.3972 3.16534,-0.8383 1.72828,-0.6826 3.55059,-1.7292 3.42647,-1.9679 -0.0481,-0.092 -1.84179,-2.1096 -3.34513,-3.7618 l -0.35188,-0.3868 -1.75994,0.7223 c -0.96797,0.3973 -1.782,0.7444 -1.80898,0.7714 -0.0488,0.049 -0.0813,3.6609 -0.044,4.8941 l 0.0196,0.648 z m -9.2868,-1.9022 c 2.03633,1.1065 4.18352,1.8277 5.81286,1.9523 l 0.34207,0.026 -0.008,-2.7785 -0.008,-2.7785 -1.76818,-0.7204 c -0.9725,-0.3962 -1.79757,-0.7204 -1.8335,-0.7204 -0.0757,0 -3.41024,3.6742 -3.61232,3.9803 -0.17598,0.2665 0.0425,0.4776 1.07588,1.0391 z m -2.58265,-2.2545 c 0.0698,-0.031 0.96531,-0.9131 1.99,-1.9601 l 1.86307,-1.9036 -0.69317,-1.7255 c -0.38124,-0.949 -0.73824,-1.7526 -0.79331,-1.7857 -0.0551,-0.033 -1.3335,-0.01 -2.84092,0.06 l -2.74077,0.1203 0.0281,0.374 c 0.10026,1.3338 1.25145,4.2941 2.22785,5.729 0.63359,0.9311 0.82654,1.1507 0.95914,1.0916 z m -7.23671,-1.0601 c 0.44643,0.1758 1.01506,0 1.30719,-0.4062 0.46072,-0.6392 0.17784,-1.5117 -0.56208,-1.7336 -0.94348,-0.283 -1.74078,0.6103 -1.3639,1.5281 0.17914,0.4363 0.1829,0.44 0.61879,0.6117 z m 40.07748,55.9068 c 0.0926,-0.136 5.2683,-6.2185 11.50168,-13.5166 6.23336,-7.2981 11.31632,-13.2862 11.29547,-13.307 -0.0464,-0.046 -26.25278,20.2922 -26.25274,20.3743 3e-5,0.063 3.19035,6.5998 3.25069,6.6602 0.0201,0.02 0.11233,-0.075 0.20489,-0.2109 z m -22.694,-7.285 0.70829,-0.01 -0.001,-6.8724 -0.001,-6.8724 -0.67679,-0.01 c -0.37223,0 -0.71629,0.033 -0.76457,0.081 -0.0483,0.048 -0.0622,3.1461 -0.0309,6.8841 l 0.0569,6.7964 0.70829,-0.01 z m 2.53769,4.2863 c 1.07037,0.072 1.66043,-1.1739 0.91104,-1.9233 -0.41649,-0.4165 -1.20106,-0.4263 -1.6073,-0.02 -0.21727,0.2173 -0.27966,0.3944 -0.27966,0.7937 0,0.6421 0.39798,1.111 0.97592,1.1497 z m -6.32285,-0.1532 c 0.75067,0.2954 1.48503,-0.1881 1.53116,-1.008 0.0226,-0.4013 -0.0236,-0.5173 -0.32625,-0.82 -0.30265,-0.3026 -0.41864,-0.3488 -0.81992,-0.3262 -0.83252,0.047 -1.3079,0.7881 -0.99463,1.551 0.17631,0.4294 0.18186,0.4349 0.60964,0.6032 z m -17.28997,0.425 c 0.0564,-0.1307 0.42309,-1.0735 0.81485,-2.0951 0.62669,-1.6343 0.69072,-1.877 0.5327,-2.019 -0.85301,-0.7666 -23.23578,-18.544 -23.17168,-18.404 0.0463,0.1011 1.98459,2.1609 4.30736,4.5772 2.32276,2.4164 6.97998,7.2828 10.34938,10.8142 7.79515,8.17 7.0408,7.42 7.16739,7.1267 z m -30.235,-60.3991 0.45461,10.2784 c 0.5899,13.3367 0.49286,11.9863 0.87447,12.1706 0.22273,0.1076 0.39105,0.1022 0.57956,-0.018 0.25,-0.16 0.28464,-0.8273 0.58693,-11.3061 l 0.32124,-11.1361 m 8.60896,0 0.003,1.2831 c 0.002,0.7057 -0.0479,1.3355 -0.11045,1.3994 -0.0626,0.064 -1.14453,0.7652 -2.40431,1.5582 l -2.29052,1.4419 -0.16249,1.1976 c -0.12619,0.93 -0.12231,1.1808 0.0173,1.1223 0.1371,-0.057 5.42139,-3.9223 6.24161,-4.5652 0.0956,-0.075 0.152,-0.7399 0.15092,-1.7782 l -0.002,-1.6585 m 10.04479,0.071 c 0.10222,0.1022 0.10425,1.1879 0.002,1.2897 -0.0461,0.046 -0.28369,0.08 -0.5279,0.074 -0.24419,-0.01 -0.47778,0.024 -0.51906,0.066 -0.0413,0.041 -0.15057,0.4328 -0.24285,0.8702 -0.17953,0.8508 -0.1189,0.9317 0.47296,0.6304 0.59873,-0.3047 1.25841,0.2833 1.00474,0.8957 -0.12012,0.29 -0.17807,0.335 -0.4907,0.3805 -0.19497,0.028 -0.4308,0 -0.52409,-0.065 -0.0933,-0.064 -0.31559,-0.1226 -0.49403,-0.1299 l -0.32443,-0.013 -0.0991,0.4199 -0.0991,0.4199 -0.45535,0 -0.45535,0 -0.30578,-1.5472 -0.30578,-1.5472 -0.80302,0.01 -0.80302,0.01 -0.64183,2.6694 -0.64182,2.6694 -0.79668,0.1826 -0.79669,0.1827 -0.28825,0.5822 -0.28826,0.5822 -0.83535,0.088 c -0.45945,0.049 -0.86009,0.065 -0.89029,0.037 -0.0302,-0.028 -0.1935,-0.07 -0.36285,-0.092 l -0.30791,-0.04 -1.04504,3.2566 -1.04503,3.2567 -1.32095,0.7155 -1.32093,0.7154 -2.2656,6.9601 c -1.24607,3.828 -2.26797,7.0048 -2.27088,7.0595 -0.004,0.078 16.66958,12.8116 29.45722,22.4966 l 1.81154,1.3721 5.31551,0 c 2.92354,0 5.33435,-0.015 5.35736,-0.038 0.0322,-0.032 1.38274,-12.9399 1.41501,-13.5239 0.004,-0.076 -0.54737,-0.4465 -1.33184,-0.8941 l -1.33902,-0.7641 -1.43471,-6.9744 c -0.7891,-3.8359 -1.47139,-7.0111 -1.51621,-7.0559 -0.0448,-0.045 -0.45807,-0.1804 -0.91832,-0.3012 -0.46027,-0.1209 -0.86256,-0.2775 -0.894,-0.3481 -0.0314,-0.071 -0.22914,-1.1462 -0.43933,-2.3901 -0.21021,-1.244 -0.46516,-2.6891 -0.56656,-3.2113 l -0.18438,-0.9495 -0.62581,-0.4274 c -3.84009,-2.6225 -7.2999,-8.1797 -8.32964,-13.3794 -0.25618,-1.2935 -0.54214,-3.975 -0.4447,-4.1699 m 17.64381,-0.083 0.76808,1.6764 0.76808,1.6763 1.84927,0.819 c 1.01711,0.4504 1.92912,0.8267 2.02671,0.8363 0.0976,0.01 1.05869,-0.3467 2.13579,-0.7918 l 1.95836,-0.8093 0.75913,-1.7124 0.75914,-1.7125 m 17.89326,0 -0.0442,0.8384 c -0.14445,2.7395 -1.43224,6.7761 -3.1567,9.8949 -1.20732,2.1835 -1.87488,3.0621 -3.75283,4.9393 -0.95294,0.9527 -1.86074,1.7877 -2.12588,1.9557 l -0.46271,0.2931 -0.36893,1.4451 c -0.2029,0.7948 -0.57025,2.3148 -0.8163,3.3777 -0.24607,1.063 -0.4672,1.9525 -0.49141,1.9767 -0.0242,0.024 -0.44594,0.2044 -0.93719,0.4004 l -0.89318,0.3564 -1.24967,7.0018 c -0.68733,3.8509 -1.28992,7.042 -1.33909,7.0912 -0.0492,0.049 -0.74333,0.4075 -1.54258,0.7963 l -1.45318,0.7081 0.3215,2.73 c 0.51994,4.415 1.30416,10.4147 1.36991,10.4804 0.0334,0.034 2.48792,0.056 5.45439,0.05 l 5.39358,-0.011 1.63331,-1.2389 c 1.54291,-1.1703 13.58799,-10.2353 24.23745,-18.2408 2.65794,-1.9981 5.90117,-4.4366 7.20719,-5.4189 2.56448,-1.9289 2.51777,-1.9037 4.3745,-2.3679 1.10541,-0.2764 1.42511,-0.2106 2.05155,0.4224 0.47804,0.483 0.63498,0.9873 0.5251,1.6873 -0.0777,0.495 -0.13354,0.5915 -0.55267,0.9556 -0.74835,0.6501 -1.72253,0.6564 -2.36361,0.015 l -0.33737,-0.3374 -0.20003,0.2913 c -0.91426,1.3312 -15.13739,19.0526 -21.85785,27.234 -4.71533,5.7404 -5.38631,6.514 -7.33739,8.4597 -3.26312,3.2542 -3.93161,3.5473 -5.03732,2.2091 -0.49304,-0.5967 -0.93194,-1.5125 -2.12164,-4.4266 l -0.92718,-2.2711 -3.47287,0.019 c -1.91006,0.011 -4.38626,0.028 -5.50266,0.039 l -2.02983,0.02 -0.92601,0.7112 c -0.50931,0.3911 -1.06689,0.782 -1.23906,0.8688 -0.47038,0.2369 -7.08839,0.2112 -7.53558,-0.029 -0.18876,-0.1015 -0.81078,-0.6116 -1.38225,-1.1335 l -1.03904,-0.949 -5.17298,0 -5.17298,0 -0.81779,2.2714 m -39.10989,-36.0755 0,0 c 0.24649,-0.2404 1.02975,-0.469 1.60672,-0.469 0.76265,0 1.54722,0.3075 2.444,0.9581 l 0.74004,0.5368 -0.71725,-3.5155 c -0.39447,-1.9335 -1.18308,-5.8012 -1.75244,-8.595 -0.95547,-4.6883 -1.068,-5.1346 -1.46116,-5.7949 -0.83655,-1.4049 -1.49365,-3.2868 -1.84075,-5.2717 -0.19703,-1.1268 -0.41794,-3.44 -0.40504,-4.2412 l 0.0105,-0.6507 m 68.35056,-8.3938 c 0.67252,0.6725 1.9225,3.0193 2.44511,4.5907 0.32599,0.9801 0.66361,2.4481 0.58185,2.5298 -0.0446,0.045 -2.8317,0.1957 -4.84073,0.2625 l -0.78101,0.026 -0.72749,-1.7834 -0.72748,-1.7834 1.95284,-1.9931 c 1.87789,-1.9167 1.95837,-1.9877 2.09691,-1.8491 z m -8.46118,-4.0146 c 0.97562,0.113 2.04836,0.3971 3.16534,0.8383 1.72827,0.6826 3.55058,1.7292 3.42646,1.9678 -0.0481,0.092 -1.84179,2.1096 -3.34512,3.7619 l -0.35188,0.3867 -1.75994,-0.7223 c -0.96797,-0.3973 -1.78201,-0.7444 -1.80899,-0.7713 -0.0488,-0.049 -0.0813,-3.661 -0.044,-4.8942 l 0.0196,-0.6479 z m -9.2868,1.9022 c 2.03633,-1.1066 4.18351,-1.8277 5.81286,-1.9523 l 0.34206,-0.026 -0.008,2.7786 -0.008,2.7785 -1.76817,0.7204 c -0.97251,0.3962 -1.79758,0.7204 -1.8335,0.7204 -0.0757,0 -3.41025,-3.6743 -3.61233,-3.9804 -0.17597,-0.2665 0.0425,-0.4775 1.07588,-1.039 z m -2.58265,2.2544 c 0.0698,0.031 0.96531,0.9132 1.99,1.9601 l 1.86306,1.9036 -0.69316,1.7255 c -0.38124,0.9491 -0.73824,1.7527 -0.79331,1.7858 -0.0551,0.033 -1.3335,0.01 -2.84093,-0.06 l -2.74076,-0.1203 0.0281,-0.3739 c 0.10026,-1.3338 1.25145,-4.2942 2.22784,-5.729 0.63359,-0.9311 0.82655,-1.1507 0.95915,-1.0917 z m -7.23672,1.0602 c 0.44644,-0.1758 1.01506,0 1.3072,0.4062 0.46071,0.6392 0.17784,1.5117 -0.56208,1.7336 -0.94349,0.283 -1.74078,-0.6103 -1.3639,-1.5282 0.17914,-0.4362 0.1829,-0.44 0.61878,-0.6116 z m 40.07748,-55.9069 c 0.0926,0.1361 5.2683,6.2186 11.50168,13.5167 6.23336,7.2981 11.31632,13.2862 11.29547,13.3069 -0.0464,0.046 -26.25278,-20.2921 -26.25274,-20.3742 3e-5,-0.063 3.19035,-6.5998 3.25069,-6.6602 0.0201,-0.02 0.11233,0.075 0.20489,0.2108 z m -22.694,7.285 0.70829,0.01 -0.001,6.8724 -0.001,6.8724 -0.67678,0.01 c -0.37223,0 -0.71629,-0.033 -0.76457,-0.081 -0.0483,-0.048 -0.0622,-3.1461 -0.0309,-6.8841 l 0.0569,-6.7963 0.70829,0.01 z m 2.5377,-4.2863 c 1.07036,-0.072 1.66043,1.174 0.91104,1.9234 -0.41649,0.4165 -1.20106,0.4263 -1.6073,0.02 -0.21727,-0.2172 -0.27967,-0.3943 -0.27967,-0.7936 0,-0.6421 0.39798,-1.111 0.97593,-1.1498 z m -6.32285,0.1532 c 0.75067,-0.2954 1.48503,0.1881 1.53115,1.0081 0.0226,0.4013 -0.0236,0.5173 -0.32624,0.8199 -0.30266,0.3027 -0.41865,0.3488 -0.81992,0.3263 -0.83253,-0.047 -1.3079,-0.7881 -0.99463,-1.5511 0.17631,-0.4293 0.18186,-0.4348 0.60964,-0.6032 z m -17.28997,-0.4249 c 0.0564,0.1306 0.42309,1.0734 0.81485,2.0951 0.62668,1.6343 0.69071,1.877 0.53269,2.019 -0.85301,0.7666 -23.23578,18.544 -23.17167,18.4039 0.0463,-0.1011 1.98459,-2.1608 4.30735,-4.5772 2.32277,-2.4163 6.97998,-7.2827 10.34938,-10.8142 7.79515,-8.17 7.0408,-7.4199 7.1674,-7.1266 z m -30.235,60.3991 0.45461,-10.2784 c 0.58989,-13.3368 0.49286,-11.9863 0.87447,-12.1706 0.22272,-0.1076 0.39105,-0.1022 0.57956,0.018 0.25,0.1599 0.28463,0.8272 0.58692,11.3061 l 0.32125,11.1361 m 8.60896,0 0.003,-1.2831 c 0.002,-0.7057 -0.0479,-1.3354 -0.11045,-1.3994 -0.0626,-0.064 -1.14453,-0.7651 -2.40432,-1.5581 l -2.29051,-1.4419 -0.16249,-1.1976 c -0.1262,-0.93 -0.12232,-1.1808 0.0173,-1.1223 0.1371,0.057 5.42139,3.9223 6.2416,4.5652 0.0956,0.075 0.152,0.7398 0.15092,1.7781 l -0.002,1.6586 m 10.04479,-0.071 c 0.10223,-0.1022 0.10426,-1.1879 0.003,-1.2897 -0.0461,-0.046 -0.28369,-0.08 -0.52789,-0.074 -0.2442,0.01 -0.47778,-0.024 -0.51906,-0.066 -0.0413,-0.041 -0.15057,-0.4329 -0.24285,-0.8702 -0.17953,-0.8509 -0.1189,-0.9317 0.47296,-0.6304 0.59873,0.3047 1.25841,-0.2834 1.00474,-0.8958 -0.12013,-0.29 -0.17807,-0.3349 -0.4907,-0.3804 -0.19497,-0.028 -0.43081,0 -0.52409,0.065 -0.0933,0.064 -0.31559,0.1227 -0.49404,0.1299 l -0.32442,0.013 -0.0991,-0.4199 -0.0991,-0.4199 -0.45535,0 -0.45535,0 -0.30578,1.5472 -0.30578,1.5472 -0.80302,-0.01 -0.80303,-0.01 -0.64182,-2.6694 -0.64182,-2.6694 -0.79668,-0.1827 -0.79669,-0.1826 -0.28826,-0.5822 -0.28825,-0.5822 -0.83535,-0.088 c -0.45946,-0.048 -0.86009,-0.065 -0.8903,-0.036 -0.0302,0.028 -0.19349,0.07 -0.36284,0.092 l -0.30792,0.04 -1.04504,-3.2567 -1.04503,-3.2566 -1.32094,-0.7155 -1.32093,-0.7155 -2.2656,-6.96 c -1.24607,-3.828 -2.26797,-7.0048 -2.27088,-7.0595 -0.004,-0.078 16.66958,-12.8116 29.45721,-22.4967 l 1.81155,-1.372 5.31551,0 c 2.92354,0 5.33435,0.015 5.35735,0.038 0.0322,0.032 1.38275,12.9399 1.41502,13.5239 0.004,0.076 -0.54737,0.4465 -1.33184,0.8941 l -1.33902,0.7641 -1.43472,6.9744 c -0.78909,3.8359 -1.47139,7.0111 -1.51621,7.0559 -0.0448,0.045 -0.45806,0.1804 -0.91832,0.3012 -0.46026,0.1209 -0.86255,0.2775 -0.89399,0.3481 -0.0314,0.071 -0.22914,1.1462 -0.43934,2.3901 -0.2102,1.244 -0.46515,2.6891 -0.56656,3.2113 l -0.18438,0.9495 -0.62581,0.4274 c -3.84008,2.6225 -7.29989,8.1797 -8.32963,13.3794 -0.25619,1.2935 -0.54214,3.975 -0.4447,4.1699 m 17.6438,0.083 0.76809,-1.6764 0.76808,-1.6763 1.84927,-0.819 c 1.01711,-0.4504 1.92912,-0.8267 2.0267,-0.8363 0.0976,-0.01 1.05869,0.3467 2.13579,0.7918 l 1.95836,0.8093 0.75914,1.7124 0.75914,1.7125 m 17.89326,0 -0.0442,-0.8384 c -0.14445,-2.7395 -1.43224,-6.7761 -3.1567,-9.8949 -1.20732,-2.1835 -1.87488,-3.0621 -3.75283,-4.9393 -0.95294,-0.9527 -1.86074,-1.7877 -2.12588,-1.9557 l -0.46271,-0.2931 -0.36893,-1.4451 c -0.2029,-0.7948 -0.57025,-2.3148 -0.8163,-3.3778 -0.24607,-1.0629 -0.4672,-1.9524 -0.49141,-1.9766 -0.0242,-0.024 -0.44594,-0.2044 -0.93719,-0.4004 l -0.89318,-0.3564 -1.24967,-7.0018 c -0.68733,-3.851 -1.28992,-7.042 -1.33909,-7.0912 -0.0492,-0.049 -0.74333,-0.4075 -1.54259,-0.7964 l -1.45317,-0.708 0.3215,-2.73 c 0.51994,-4.415 1.30416,-10.4147 1.36991,-10.4805 0.0334,-0.033 2.48792,-0.056 5.45439,-0.05 l 5.39358,0.011 1.63331,1.2389 c 1.54291,1.1703 13.58799,10.2353 24.23745,18.2408 2.65794,1.9981 5.90117,4.4366 7.20719,5.4189 2.56448,1.9289 2.51777,1.9037 4.3745,2.3679 1.10541,0.2764 1.42511,0.2106 2.05155,-0.4224 0.47804,-0.483 0.63498,-0.9873 0.5251,-1.6873 -0.0777,-0.495 -0.13354,-0.5915 -0.55267,-0.9556 -0.74835,-0.6501 -1.72253,-0.6564 -2.36361,-0.015 l -0.33737,0.3374 -0.20003,-0.2913 c -0.91426,-1.3312 -15.13739,-19.0526 -21.85785,-27.234 -4.71533,-5.7404 -5.38631,-6.514 -7.33739,-8.4597 -3.26312,-3.2542 -3.93161,-3.5473 -5.03732,-2.2091 -0.49304,0.5967 -0.93194,1.5124 -2.12164,4.4266 l -0.92718,2.2711 -3.47287,-0.019 c -1.91006,-0.011 -4.38626,-0.028 -5.50266,-0.039 l -2.02983,-0.02 -0.92601,-0.7112 c -0.50931,-0.3911 -1.06689,-0.7821 -1.23906,-0.8688 -0.47038,-0.2369 -7.08839,-0.2112 -7.53558,0.029 -0.18877,0.1015 -0.81078,0.6116 -1.38225,1.1335 l -1.03904,0.949 -5.17298,-9e-4 -5.17298,-8e-4 -0.81779,-2.2714 m -39.10989,36.0755 0,0 c 0.24649,0.2404 1.02974,0.4691 1.60672,0.4691 0.76265,0 1.54722,-0.3076 2.444,-0.9581 l 0.74003,-0.5369 -0.71724,3.5155 c -0.39448,1.9335 -1.18308,5.8013 -1.75245,8.595 -0.95546,4.6883 -1.068,5.1346 -1.46116,5.7949 -0.83655,1.4049 -1.49364,3.2868 -1.84074,5.2718 -0.19704,1.1268 -0.41794,3.4399 -0.40504,4.2411 l 0.0105,0.6508 m -17.77143,-94.5519 c -0.67252,-0.6725 -3.01932,-1.9225 -4.59066,-2.4451 -0.98014,-0.326 -2.4481,-0.6636 -2.52986,-0.5818 -0.0446,0.044 -0.19572,2.8317 -0.26251,4.8407 l -0.026,0.781 1.78339,0.7275 1.7834,0.7275 1.99315,-1.9529 c 1.91665,-1.8779 1.98762,-1.9583 1.84907,-2.0969 z m 4.01464,8.4612 c -0.11306,-0.9756 -0.39718,-2.0484 -0.83836,-3.1653 -0.6826,-1.7283 -1.72917,-3.5506 -1.96783,-3.4265 -0.0924,0.048 -2.10958,1.8418 -3.76186,3.3451 l -0.38673,0.3519 0.72231,1.7599 c 0.39728,0.968 0.7444,1.7821 0.77137,1.809 0.0488,0.049 3.66092,0.081 4.89413,0.044 l 0.64792,-0.02 z m -1.90221,9.2868 c 1.10652,-2.0363 1.82766,-4.1835 1.95226,-5.8128 l 0.0262,-0.3421 -2.77851,0.01 -2.77851,0.01 -0.72041,1.7682 c -0.39623,0.9725 -0.72041,1.7975 -0.72041,1.8335 0,0.076 3.67426,3.4102 3.98034,3.6123 0.26653,0.176 0.47757,-0.043 1.03908,-1.0759 z m -2.25446,2.5827 c -0.0311,-0.07 -0.91315,-0.9654 -1.96012,-1.99 l -1.90357,-1.8631 -1.72553,0.6932 c -0.94903,0.3812 -1.75262,0.7382 -1.78574,0.7933 -0.0331,0.055 -0.006,1.3335 0.0601,2.8409 l 0.12027,2.7408 0.37397,-0.028 c 1.33383,-0.1002 4.29415,-1.2514 5.72902,-2.2278 0.93108,-0.6336 1.15069,-0.8265 1.09163,-0.9591 z m -1.06016,7.2367 c 0.17581,-0.4465 -0.001,-1.0151 -0.40622,-1.3072 -0.63921,-0.4607 -1.51167,-0.1779 -1.7336,0.5621 -0.28299,0.9434 0.61032,1.7407 1.52816,1.3639 0.43629,-0.1792 0.44001,-0.1829 0.61166,-0.6188 z m 55.90685,-40.0775 c -0.13608,-0.093 -6.21858,-5.2683 -13.51667,-11.5017 -7.29809,-6.2333 -13.28619,-11.3163 -13.30692,-11.2955 -0.0461,0.046 20.29215,26.2528 20.37425,26.2528 0.0634,0 6.59982,-3.1904 6.66016,-3.2507 0.0201,-0.02 -0.0747,-0.1123 -0.21082,-0.2049 z m -7.285,22.694 -0.005,-0.7083 -6.8724,6e-4 -6.87239,7e-4 -0.006,0.6768 c -0.004,0.3722 0.0332,0.7163 0.0814,0.7645 0.0483,0.048 3.14611,0.062 6.8841,0.031 l 6.79633,-0.057 -0.005,-0.7083 z m 4.28631,-2.5377 c 0.0718,-1.0704 -1.17398,-1.6604 -1.92337,-0.911 -0.4165,0.4165 -0.42628,1.201 -0.02,1.6073 0.21727,0.2172 0.39433,0.2796 0.79363,0.2796 0.64216,0 1.11103,-0.398 1.14978,-0.9759 z m -0.15321,6.3228 c 0.29539,-0.7506 -0.18809,-1.485 -1.00807,-1.5311 -0.40128,-0.023 -0.51726,0.024 -0.81993,0.3262 -0.30265,0.3027 -0.34881,0.4187 -0.32623,0.82 0.0468,0.8325 0.78809,1.3078 1.55101,0.9946 0.42938,-0.1763 0.43487,-0.1819 0.60321,-0.6097 z m 0.42497,17.29 c -0.13067,-0.056 -1.07348,-0.4231 -2.09513,-0.8148 -1.63428,-0.6267 -1.87697,-0.6908 -2.01899,-0.5327 -0.76663,0.853 -18.54402,23.2358 -18.40396,23.1717 0.10111,-0.046 2.16086,-1.9846 4.57722,-4.3074 2.41637,-2.3228 7.28274,-6.98 10.81418,-10.3494 8.17,-7.7951 7.41995,-7.0408 7.12668,-7.1674 z m -60.39909,30.235 10.27834,-0.4546 c 13.33679,-0.5899 11.9863,-0.4928 12.17063,-0.8745 0.10757,-0.2227 0.10223,-0.391 -0.0184,-0.5795 -0.15996,-0.25 -0.82725,-0.2847 -11.3061,-0.5869 L 568.52,561.10141 m -0.004,-8.609 1.2831,0 c 0.70571,0 1.33543,0.048 1.39939,0.1105 0.064,0.062 0.76515,1.1445 1.55819,2.4043 l 1.44188,2.2905 1.19759,0.1625 c 0.93002,0.1262 1.18077,0.1223 1.12233,-0.017 -0.0574,-0.1371 -3.92235,-5.4214 -4.5652,-6.2416 -0.0749,-0.095 -0.73986,-0.152 -1.77818,-0.1509 l -1.65856,0 m 0.0709,-10.0448 c 0.10222,-0.1022 1.18791,-0.1042 1.28975,0 0.0461,0.046 0.0796,0.2837 0.0744,0.5279 -0.005,0.2442 0.0243,0.4778 0.0656,0.5191 0.0413,0.041 0.43288,0.1505 0.8702,0.2428 0.85089,0.1796 0.93171,0.1189 0.63046,-0.4729 -0.30476,-0.5988 0.28332,-1.2584 0.89571,-1.0048 0.29001,0.1201 0.33495,0.1781 0.38044,0.4907 0.0284,0.195 -0.001,0.4308 -0.0651,0.5241 -0.0642,0.093 -0.12265,0.3156 -0.12991,0.494 l -0.0132,0.3245 0.41991,0.099 0.4199,0.099 0,0.4554 0,0.4553 -1.5472,0.3058 -1.5472,0.3058 0.007,0.803 0.007,0.803 2.66942,0.6419 2.66941,0.6418 0.18264,0.7967 0.18265,0.7966 0.58222,0.2883 0.58222,0.2882 0.0881,0.8354 c 0.0485,0.4595 0.0649,0.8601 0.0366,0.8903 -0.0284,0.03 -0.0696,0.1935 -0.0917,0.3628 l -0.0401,0.308 3.25665,1.045 3.25665,1.045 0.71547,1.321 0.71547,1.3209 6.96004,2.2656 c 3.82802,1.2461 7.00479,2.268 7.05948,2.2709 0.0778,0 12.81161,-16.6696 22.4967,-29.4572 l 1.37201,-1.8116 0.004,-5.3155 c 0.002,-2.9235 -0.0147,-5.3343 -0.0377,-5.3573 -0.0322,-0.032 -12.93996,-1.3828 -13.52396,-1.4151 -0.0762,0 -0.44646,0.5474 -0.8941,1.3319 l -0.7641,1.339 -6.97439,1.4347 c -3.83591,0.7891 -7.01105,1.4714 -7.05588,1.5162 -0.0448,0.045 -0.18037,0.4581 -0.30124,0.9184 -0.12087,0.4602 -0.27751,0.8625 -0.3481,0.8939 -0.0706,0.031 -1.14613,0.2292 -2.3901,0.4394 -1.24396,0.2102 -2.68903,0.4651 -3.21127,0.5665 l -0.94953,0.1844 -0.42737,0.6258 c -2.62247,3.8401 -8.17974,7.2999 -13.37936,8.3297 -1.29357,0.2561 -3.97505,0.5421 -4.16993,0.4447 m -0.083,-17.6438 1.67634,-0.7681 1.67636,-0.7681 0.81893,-1.8493 c 0.45041,-1.0171 0.82678,-1.9291 0.83636,-2.0267 0.01,-0.098 -0.34675,-1.0587 -0.79186,-2.1358 l -0.80927,-1.9583 -1.71243,-0.7592 -1.71243,-0.7591 m 0,-17.8933 0.83835,0.044 c 2.7395,0.1445 6.77615,1.4323 9.89491,3.1567 2.18348,1.2074 3.0621,1.8749 4.93934,3.7529 0.95264,0.9529 1.78771,1.8607 1.95567,2.1258 l 0.29312,0.4628 1.44509,0.3689 c 0.7948,0.2029 2.31479,0.5702 3.37774,0.8163 1.06296,0.246 1.95246,0.4672 1.97666,0.4914 0.0242,0.024 0.20439,0.4459 0.4004,0.9372 l 0.35637,0.8932 7.00179,1.2496 c 3.85098,0.6874 7.04202,1.29 7.09119,1.3391 0.0492,0.049 0.40755,0.7434 0.79639,1.5426 l 0.70802,1.4532 2.73002,-0.3215 c 4.41506,-0.52 10.41471,-1.3042 10.48046,-1.3699 0.0335,-0.034 0.056,-2.488 0.0501,-5.4544 l -0.0107,-5.3936 -1.23889,-1.6333 c -1.17034,-1.5429 -10.23533,-13.588 -18.24083,-24.2375 -1.99805,-2.6579 -4.43656,-5.9011 -5.4189,-7.2072 -1.92892,-2.5644 -1.90363,-2.5177 -2.3679,-4.3744 -0.27641,-1.1055 -0.21059,-1.4252 0.42238,-2.0516 0.48305,-0.478 0.98737,-0.635 1.68734,-0.5251 0.49497,0.078 0.59153,0.1335 0.95561,0.5527 0.65007,0.7483 0.65635,1.7225 0.0152,2.3636 l -0.33736,0.3374 0.29126,0.2 c 1.33121,0.9142 19.05269,15.1374 27.23406,21.8578 5.74036,4.7154 6.51396,5.3863 8.45969,7.3374 3.25416,3.2631 3.54732,3.9316 2.20908,5.0373 -0.59672,0.4931 -1.51244,0.932 -4.42656,2.1217 l -2.27111,0.9272 0.0193,3.4728 c 0.0106,1.9101 0.0283,4.3863 0.0394,5.5027 l 0.0201,2.0298 0.71113,0.926 c 0.39111,0.5093 0.78208,1.0669 0.86881,1.2391 0.23694,0.4704 0.21118,7.0884 -0.0293,7.5356 -0.10152,0.1887 -0.61162,0.8108 -1.13357,1.3822 l -0.94897,1.0391 0.001,5.1729 0.001,5.173 2.27137,0.8178 m -36.07552,39.1099 10e-6,0 c -0.24039,-0.2465 -0.46903,-1.0297 -0.46902,-1.6067 0,-0.7627 0.30756,-1.5472 0.95808,-2.444 l 0.53685,-0.7401 -3.51548,0.7173 c -1.93351,0.3945 -5.80125,1.1831 -8.595,1.7524 -4.68833,0.9555 -5.13462,1.068 -5.79491,1.4612 -1.40489,0.8365 -3.28678,1.4936 -5.27175,1.8407 -1.12681,0.1971 -3.43995,0.418 -4.24117,0.4051 l -0.65073,-0.011 m -8.39377,-68.3506 c 0.67252,-0.6725 3.01933,-1.9225 4.59067,-2.4451 0.98013,-0.326 2.44809,-0.6636 2.52985,-0.5818 0.0446,0.044 0.19572,2.8317 0.26252,4.8407 l 0.026,0.781 -1.7834,0.7275 -1.7834,0.7275 -1.99314,-1.9529 c -1.91665,-1.8779 -1.98763,-1.9583 -1.84908,-2.0969 z m -4.01463,8.4612 c 0.11306,-0.9756 0.39718,-2.0484 0.83835,-3.1653 0.68261,-1.7283 1.72918,-3.5506 1.96783,-3.4265 0.0924,0.048 2.10958,1.8418 3.76187,3.3451 l 0.38672,0.3519 -0.72231,1.7599 c -0.39727,0.968 -0.74439,1.7821 -0.77136,1.809 -0.0488,0.049 -3.66092,0.081 -4.89413,0.044 l -0.64792,-0.02 z m 1.90221,9.2868 c -1.10653,-2.0363 -1.82766,-4.1835 -1.95227,-5.8128 l -0.0262,-0.3421 2.77851,0.01 2.77851,0.01 0.72041,1.7682 c 0.39623,0.9725 0.72041,1.7975 0.72041,1.8335 0,0.076 -3.67426,3.4102 -3.98034,3.6123 -0.26653,0.176 -0.47757,-0.043 -1.03908,-1.0759 z m 2.25446,2.5827 c 0.0311,-0.07 0.91315,-0.9654 1.96011,-1.99 l 1.90358,-1.8631 1.72553,0.6932 c 0.94903,0.3812 1.75261,0.7382 1.78574,0.7933 0.0331,0.055 0.006,1.3335 -0.0601,2.8409 l -0.12027,2.7408 -0.37396,-0.028 c -1.33383,-0.1002 -4.29416,-1.2514 -5.72902,-2.2278 -0.93109,-0.6336 -1.1507,-0.8265 -1.09164,-0.9591 z m 1.06016,7.2367 c -0.17581,-0.4465 0.001,-1.0151 0.40622,-1.3072 0.6392,-0.4607 1.51167,-0.1779 1.7336,0.5621 0.28298,0.9434 -0.61033,1.7407 -1.52817,1.3639 -0.43629,-0.1792 -0.44001,-0.1829 -0.61165,-0.6188 z m -55.90685,-40.0775 c 0.13608,-0.093 6.21858,-5.2683 13.51666,-11.5017 7.29809,-6.2333 13.2862,-11.3163 13.30692,-11.2955 0.0461,0.046 -20.29215,26.2528 -20.37424,26.2528 -0.0633,0 -6.59982,-3.1904 -6.66016,-3.2507 -0.0201,-0.02 0.0747,-0.1123 0.21082,-0.2049 z m 7.285,22.694 0.005,-0.7083 6.87239,6e-4 6.87239,7e-4 0.006,0.6768 c 0.004,0.3722 -0.0332,0.7163 -0.0814,0.7645 -0.0483,0.048 -3.14612,0.062 -6.8841,0.031 l -6.79632,-0.057 0.005,-0.7083 z m -4.28631,-2.5377 c -0.0718,-1.0704 1.17398,-1.6604 1.92337,-0.911 0.4165,0.4165 0.42628,1.201 0.02,1.6073 -0.21727,0.2172 -0.39433,0.2796 -0.79363,0.2796 -0.64215,0 -1.11103,-0.398 -1.14978,-0.9759 z m 0.15321,6.3228 c -0.29539,-0.7506 0.18809,-1.485 1.00807,-1.5311 0.40128,-0.023 0.51726,0.024 0.81992,0.3262 0.30266,0.3027 0.34881,0.4187 0.32624,0.82 -0.0468,0.8325 -0.7881,1.3078 -1.55102,0.9946 -0.42938,-0.1763 -0.43487,-0.1819 -0.6032,-0.6097 z m -0.42497,17.29 c 0.13066,-0.056 1.07347,-0.4231 2.09513,-0.8148 1.63428,-0.6267 1.87697,-0.6908 2.01899,-0.5327 0.76663,0.853 18.54401,23.2358 18.40396,23.1717 -0.10111,-0.046 -2.16086,-1.9846 -4.57723,-4.3074 -2.41636,-2.3228 -7.28274,-6.98 -10.81417,-10.3494 -8.17,-7.7951 -7.41995,-7.0408 -7.12668,-7.1674 z m 60.39909,30.235 -10.27834,-0.4546 c -13.3368,-0.5899 -11.9863,-0.4928 -12.17063,-0.8745 -0.10757,-0.2227 -0.10223,-0.391 0.0184,-0.5795 0.15995,-0.25 0.82725,-0.2847 11.30609,-0.5869 l 11.13611,-0.3213 m 0.004,-8.609 -1.2831,0 c -0.7057,0 -1.33543,0.048 -1.39939,0.1105 -0.064,0.062 -0.76515,1.1445 -1.55819,2.4043 l -1.44188,2.2905 -1.19758,0.1625 c -0.93003,0.1262 -1.18078,0.1223 -1.12234,-0.017 0.0574,-0.1371 3.92235,-5.4214 4.5652,-6.2416 0.0749,-0.095 0.73987,-0.152 1.77818,-0.1509 l 1.65856,0 m -0.0709,-10.0448 c -0.10222,-0.1022 -1.18791,-0.1042 -1.28975,0 -0.0461,0.046 -0.0796,0.2837 -0.0744,0.5279 0.005,0.2442 -0.0243,0.4778 -0.0656,0.5191 -0.0413,0.041 -0.43288,0.1505 -0.8702,0.2428 -0.85089,0.1796 -0.93171,0.1189 -0.63046,-0.4729 0.30476,-0.5988 -0.28333,-1.2584 -0.89571,-1.0048 -0.29001,0.1201 -0.33495,0.1781 -0.38044,0.4907 -0.0284,0.195 0.001,0.4308 0.0651,0.5241 0.0642,0.093 0.12265,0.3156 0.1299,0.494 l 0.0132,0.3245 -0.41991,0.099 -0.4199,0.099 0,0.4554 0,0.4553 1.5472,0.3058 1.54719,0.3058 -0.007,0.803 -0.007,0.803 -2.66941,0.6419 -2.66941,0.6418 -0.18264,0.7967 -0.18265,0.7966 -0.58222,0.2883 -0.58222,0.2882 -0.0881,0.8354 c -0.0485,0.4595 -0.0649,0.8601 -0.0365,0.8903 0.0284,0.03 0.0696,0.1935 0.0917,0.3628 l 0.0401,0.308 -3.25665,1.045 -3.25665,1.045 -0.71547,1.321 -0.71547,1.3209 -6.96004,2.2656 c -3.82802,1.2461 -7.00479,2.268 -7.05948,2.2709 -0.0778,0 -12.81161,-16.6696 -22.4967,-29.4572 l -1.37202,-1.8116 -0.004,-5.3155 c -0.002,-2.9235 0.0147,-5.3343 0.0377,-5.3573 0.0322,-0.032 12.93996,-1.3828 13.52397,-1.4151 0.0762,0 0.44645,0.5474 0.8941,1.3319 l 0.7641,1.339 6.97439,1.4347 c 3.83591,0.7891 7.01105,1.4714 7.05587,1.5162 0.0448,0.045 0.18038,0.4581 0.30125,0.9184 0.12086,0.4602 0.27751,0.8625 0.34809,0.8939 0.0706,0.031 1.14614,0.2292 2.3901,0.4394 1.24396,0.2102 2.68904,0.4651 3.21128,0.5665 l 0.94952,0.1844 0.42738,0.6258 c 2.62247,3.8401 8.17973,7.2999 13.37935,8.3297 1.29358,0.2561 3.97505,0.5421 4.16994,0.4447 m 0.083,-17.6438 -1.67635,-0.7681 -1.67636,-0.7681 -0.81893,-1.8493 c -0.45041,-1.0171 -0.82678,-1.9291 -0.83635,-2.0267 -0.01,-0.098 0.34674,-1.0587 0.79185,-2.1358 l 0.80927,-1.9583 1.71244,-0.7592 1.71243,-0.7591 m 0,-17.8933 -0.83836,0.044 c -2.73949,0.1445 -6.77614,1.4323 -9.8949,3.1567 -2.18349,1.2074 -3.06211,1.8749 -4.93935,3.7529 -0.95263,0.9529 -1.78771,1.8607 -1.95567,2.1258 l -0.29311,0.4628 -1.4451,0.3689 c -0.7948,0.2029 -2.31478,0.5702 -3.37774,0.8163 -1.06295,0.246 -1.95245,0.4672 -1.97666,0.4914 -0.0242,0.024 -0.20438,0.4459 -0.40039,0.9372 l -0.35637,0.8932 -7.00179,1.2496 c -3.85099,0.6874 -7.04202,1.29 -7.0912,1.3391 -0.0492,0.049 -0.40754,0.7434 -0.79639,1.5426 l -0.70802,1.4532 -2.73001,-0.3215 c -4.41506,-0.52 -10.41471,-1.3042 -10.48046,-1.3699 -0.0335,-0.034 -0.056,-2.488 -0.0501,-5.4544 l 0.0107,-5.3936 1.23889,-1.6333 c 1.17034,-1.5429 10.23533,-13.588 18.24083,-24.2375 1.99805,-2.6579 4.43655,-5.9011 5.4189,-7.2072 1.92892,-2.5644 1.90363,-2.5177 2.3679,-4.3744 0.27641,-1.1055 0.21059,-1.4252 -0.42239,-2.0516 -0.48304,-0.478 -0.98736,-0.635 -1.68733,-0.5251 -0.49498,0.078 -0.59153,0.1335 -0.95562,0.5527 -0.65006,0.7483 -0.65635,1.7225 -0.0153,2.3636 l 0.33737,0.3374 -0.29126,0.2 c -1.33121,0.9142 -19.05269,15.1374 -27.23406,21.8578 -5.74036,4.7154 -6.51396,5.3863 -8.45969,7.3374 -3.25416,3.2631 -3.54732,3.9316 -2.20908,5.0373 0.59672,0.4931 1.51243,0.932 4.42656,2.1217 l 2.2711,0.9272 -0.0193,3.4728 c -0.0106,1.9101 -0.0283,4.3863 -0.0394,5.5027 l -0.0202,2.0298 -0.71112,0.926 c -0.39112,0.5093 -0.78209,1.0669 -0.86881,1.2391 -0.23695,0.4704 -0.21118,7.0884 0.0293,7.5356 0.10152,0.1887 0.61162,0.8108 1.13357,1.3822 l 0.94897,1.0391 -8.5e-4,5.1729 -8.6e-4,5.173 -2.27137,0.8178 m 36.07553,39.1099 -10e-6,0 c 0.24038,-0.2465 0.46902,-1.0297 0.46902,-1.6067 0,-0.7627 -0.30757,-1.5472 -0.95809,-2.444 l -0.53684,-0.7401 3.51547,0.7173 c 1.93351,0.3945 5.80125,1.1831 8.595,1.7524 4.68833,0.9555 5.13462,1.068 5.79491,1.4612 1.40489,0.8365 3.28678,1.4936 5.27175,1.8407 1.12681,0.1971 3.43995,0.418 4.24117,0.4051 l 0.65073,-0.011"
     inkscape:connector-curvature="0" />
</svg>
