<?xml version="1.0" encoding="UTF-8" standalone="no"?>
<!-- Created with Inkscape (http://www.inkscape.org/) -->

<svg
   xmlns:dc="http://purl.org/dc/elements/1.1/"
   xmlns:cc="http://creativecommons.org/ns#"
   xmlns:rdf="http://www.w3.org/1999/02/22-rdf-syntax-ns#"
   xmlns:svg="http://www.w3.org/2000/svg"
   xmlns="http://www.w3.org/2000/svg"
   xmlns:sodipodi="http://sodipodi.sourceforge.net/DTD/sodipodi-0.dtd"
   xmlns:inkscape="http://www.inkscape.org/namespaces/inkscape"
   id="svg9088"
   version="1.1"
   inkscape:version="0.91 r"
   width="517"
   height="1326"
   viewBox="0 0 517 1326"
   sodipodi:docname="snowflake-First_Order_Stormtrooper-000.svg">
  <metadata
     id="metadata9094">
    <rdf:RDF>
      <cc:Work
         rdf:about="">
        <dc:format>image/svg+xml</dc:format>
        <dc:type
           rdf:resource="http://purl.org/dc/dcmitype/StillImage" />
        <dc:title />
      </cc:Work>
    </rdf:RDF>
  </metadata>
  <defs
     id="defs9092" />
  <sodipodi:namedview
     pagecolor="#ffffff"
     bordercolor="#666666"
     borderopacity="1"
     objecttolerance="10"
     gridtolerance="10"
     guidetolerance="10"
     inkscape:pageopacity="0"
     inkscape:pageshadow="2"
     inkscape:window-width="1600"
     inkscape:window-height="843"
     id="namedview9090"
     showgrid="false"
     inkscape:zoom="2.2148687"
     inkscape:cx="198.92899"
     inkscape:cy="438.00512"
     inkscape:window-x="0"
     inkscape:window-y="0"
     inkscape:window-maximized="1"
     inkscape:current-layer="svg9088"
     showguides="true"
     inkscape:guide-bbox="true"
     inkscape:snap-center="true">
    <sodipodi:guide
       position="454.01155,78.347126"
       orientation="0,1"
       id="guide4133" />
    <sodipodi:guide
       position="454.01155,78.347126"
       orientation="1,0"
       id="guide4135" />
  </sodipodi:namedview>
  <path
     id="path4165"
     style="fill:none;stroke:#00ff00;stroke-opacity:1;stroke-width:0.70866142;stroke-miterlimit:4;stroke-dasharray:none"
     d="m 252.29412,965.31956 0.37441,1.5375 1.50132,-0.3969 1.50132,-0.3968 -0.36558,-1.4859 -0.36557,-1.4859 -1.51016,0.3452 -1.51014,0.3452 z m -1.29232,-5.1754 0.33438,1.4112 1.44819,-0.3087 c 0.79649,-0.1698 1.47885,-0.3619 1.51636,-0.4268 0.0375,-0.065 -0.0968,-0.7691 -0.29841,-1.5647 l -0.36658,-1.4466 -1.437,0.3806 c -0.79035,0.2092 -1.45823,0.4172 -1.48416,0.4622 -0.0259,0.045 0.10332,0.7167 0.28722,1.4928 z m -1.20591,-5.2852 c 0.16759,0.762 0.36759,1.4217 0.44446,1.4661 0.16811,0.097 2.78549,-0.5957 2.88195,-0.7627 0.0372,-0.064 -0.10038,-0.7362 -0.30577,-1.4926 l -0.37346,-1.3753 -0.58128,0.123 c -1.22551,0.2594 -2.30019,0.5323 -2.33466,0.5929 -0.0197,0.035 0.10118,0.6866 0.26876,1.4486 z m 5.1773,-11.4715 c 0.0592,1.1674 1.13181,8.1637 2.05815,13.4249 0.43261,2.4569 0.81453,4.1663 1.02819,4.6019 0.84162,1.7157 2.61837,3.1478 4.33662,3.4953 2.12366,0.4296 4.41389,0.187 8.27645,-0.8765 l 1.72355,-0.4746 -1.71839,-2.5078 c -0.94511,-1.3794 -1.76436,-2.5331 -1.82053,-2.5639 -0.0562,-0.031 -1.48851,0.057 -3.18297,0.1942 -1.69446,0.1376 -3.19354,0.1851 -3.33128,0.1056 -0.13774,-0.08 -0.3158,-0.2498 -0.39566,-0.3784 -0.0799,-0.1287 -0.4997,-1.8634 -0.93293,-3.8551 -1.96679,-9.042 -2.09797,-9.9104 -1.66367,-11.0146 0.25801,-0.6559 0.55864,-0.8541 1.68739,-1.1122 l 0.87132,-0.1993 -0.32921,-1.8288 c -0.18107,-1.0058 -0.38542,-1.8612 -0.45411,-1.9009 -0.0687,-0.04 -0.6521,0.014 -1.29649,0.1187 -1.78067,0.2899 -3.57067,1.5117 -4.45258,3.0392 -0.40911,0.7086 -0.44744,0.873 -0.40385,1.7323 z m -6.35133,6.3863 0.37018,1.4538 1.50075,-0.3697 1.50074,-0.3696 -0.35957,-1.4976 -0.35957,-1.4976 -1.45843,0.3219 c -0.80214,0.1771 -1.48225,0.3631 -1.51135,0.4134 -0.0291,0.05 0.11366,0.7458 0.31725,1.5454 z m -4.9075,3.0176 c 0.69183,4.0905 1.29226,7.4766 1.3343,7.5248 0.0977,0.1118 1.82186,-0.1428 1.90159,-0.2809 0.0751,-0.1301 -2.4308,-14.9745 -2.53707,-15.0291 -0.0428,-0.022 -0.50058,0.047 -1.01727,0.154 l -0.93941,0.194 z m 2.03765,-37.7628 -1.39675,2.51 -1.39676,2.5101 -0.0946,1.194 c -0.052,0.6566 -0.10631,1.9367 -0.12067,2.8446 -0.0144,0.9079 -0.0927,1.7659 -0.17397,1.9067 -0.0813,0.1409 -0.71523,0.9215 -1.40869,1.7348 -1.37,1.6068 -2.04698,2.765 -2.15799,3.692 l -0.0612,0.511 0.44465,-0.4456 c 2.67191,-2.6776 3.3229,-3.2211 8.95082,-7.4739 l 2.98556,-2.256 0.80754,-1.2896 0.80754,-1.2895 m 6.47814,3.8572 c -0.18586,0.315 -1.74474,1.8342 -2.47369,2.4106 -2.49566,1.9734 -6.85632,4.3867 -9.23401,5.1103 -0.55981,0.1703 -0.98072,0.3311 -0.93537,0.3573 0.31647,0.1827 2.97822,-0.2054 4.84291,-0.7062 1.86809,-0.5017 2.57956,-0.7808 4.43545,-1.7404 2.55487,-1.3209 4.79088,-2.7304 5.52435,-3.4824 l 0.51127,-0.5242 m 12.73739,7.3539 -0.50125,0.686 c -1.82896,2.5033 -4.02817,4.0336 -6.9255,4.8192 l -1.33223,0.3612 0.27094,1.4863 c 0.14901,0.8175 0.29678,1.5344 0.32836,1.5931 0.0754,0.1401 3.5109,-0.8532 5.04808,-1.4595 2.59212,-1.0225 4.3947,-2.438 6.15404,-4.8323 l 0.46298,-0.6301 m 13.92925,8.042 -0.8709,1.331 c -2.21021,3.3779 -4.13144,5.2827 -6.49129,6.4358 -0.36237,0.177 -2.09514,0.7217 -3.85063,1.2104 -5.31879,1.4804 -5.73939,1.6901 -8.32393,4.1486 -1.85632,1.7658 -1.88282,1.8316 -1.17321,2.9098 0.45953,0.6983 4.1495,5.3111 6.41155,8.0151 2.71605,3.2468 2.6384,3.0209 1.76085,5.1206 -0.3239,0.775 -0.63158,1.5312 -0.68371,1.6804 -0.0921,0.2638 -0.0147,0.3205 2.75529,2.0191 1.56752,0.9613 2.90802,1.7289 2.97889,1.706 0.0709,-0.023 0.35545,-0.7889 0.63241,-1.702 1.17883,-3.8864 1.96944,-5.7789 6.04095,-14.4602 2.05734,-4.3866 4.49603,-9.3874 5.55276,-11.3866 0.52146,-0.9865 1.11175,-2.1381 1.31176,-2.5591 l 0.36365,-0.7655 m 36.32891,20.9745 -1.10224,1.7437 c -4.52472,7.1578 -10.80925,12.5517 -17.85572,15.3254 -3.01961,1.1886 -7.08359,1.9644 -10.60876,2.0253 -5.8204,0.1005 -12.91951,-1.3708 -19.46531,-4.034 -3.62076,-1.4732 -4.97603,-2.1628 -9.33137,-4.7482 -6.70291,-3.9788 -7.82467,-4.5988 -8.81437,-4.8719 -0.48128,-0.1328 -1.99269,-0.3295 -3.35869,-0.4372 -6.41991,-0.506 -12.08068,-1.4225 -14.29214,-2.3139 -0.98767,-0.3982 -2.97671,-1.7814 -4.06968,-2.8302 -1.06183,-1.019 -2.42431,-2.9583 -3.1628,-4.5018 -0.62911,-1.3149 -1.63299,-4.8476 -1.87366,-6.5933 -0.18789,-1.363 -0.46966,-3.89 -1.11598,-10.0085 -0.25108,-2.3768 -0.47301,-4.3931 -0.49321,-4.4807 -0.0202,-0.088 -1.66114,0.9139 -3.64653,2.2256 -1.98539,1.3117 -3.6514,2.3609 -3.70225,2.3316 m -16.2317,-28.0746 c -0.0162,-0.066 0.78487,-1.6161 1.78015,-3.4444 1.26277,-2.3197 1.78321,-3.3736 1.72221,-3.4876 -0.17425,-0.3256 -2.54652,-3.353 -2.60886,-3.3293 -0.0352,0.013 -0.54037,0.6082 -1.12257,1.3218 l -1.05854,1.2975 0.61808,0.7749 0.61809,0.7749 -0.87453,1.5147 -0.87454,1.5148 m -3.75019,-6.4799 0.59307,-1.0272 c 0.3262,-0.565 0.61524,-1.0144 0.64232,-0.9988 0.0271,0.016 0.37995,0.4652 0.78413,0.9989 0.40417,0.5338 0.7659,0.9885 0.80383,1.0104 0.0379,0.022 0.41729,-0.4087 0.84304,-0.9569 0.42577,-0.5482 0.86549,-1.0943 0.97718,-1.2135 0.18646,-0.199 0.084,-0.3495 -1.25239,-1.8401 -1.77856,-1.9836 -1.8422,-2.0426 -2.16211,-2.0048 -0.20868,0.025 -0.46771,0.3827 -1.38588,1.9148 l -1.12922,1.8844 m 24.54029,2.4627 -2.45482,4.0958 c -1.35016,2.2527 -2.50045,4.2558 -2.55622,4.4515 -0.17087,0.5994 0.87934,2.6233 3.13491,6.0414 l 0.77388,1.1727 0.74063,-1.3334 c 1.26565,-2.2786 1.25114,-1.9899 0.18454,-3.6743 l -0.92559,-1.4618 0.36302,-0.7359 c 0.19967,-0.4047 1.13414,-2.0991 2.07662,-3.7653 l 1.71359,-3.0294 m 55.94255,-14.2107 1.51874,-0.4445 0.40697,1.4986 0.40698,1.4986 -1.4696,0.4263 -1.4696,0.4264 -0.4561,-1.4805 -0.45611,-1.4804 z m -5.12812,1.4685 1.38933,-0.4161 0.45673,1.4086 c 0.25119,0.7746 0.42604,1.4616 0.38854,1.5266 -0.0375,0.065 -0.71441,0.3007 -1.50425,0.5239 l -1.43606,0.4058 -0.38896,-1.4347 c -0.21393,-0.7891 -0.36774,-1.4715 -0.34181,-1.5164 0.0259,-0.045 0.67236,-0.2689 1.43648,-0.4977 z m -5.18013,1.5982 c 0.74371,-0.2358 1.41509,-0.3925 1.49196,-0.3481 0.16809,0.097 0.87686,2.7101 0.7804,2.8772 -0.0372,0.064 -0.68769,0.2811 -1.44546,0.4815 l -1.37779,0.3642 -0.18411,-0.5649 c -0.38815,-1.191 -0.68915,-2.2582 -0.6539,-2.3183 0.0202,-0.035 0.64521,-0.2557 1.3889,-0.4916 z m -7.34595,10.2195 c 1.04062,-0.5325 7.6359,-3.1017 12.65538,-4.9301 2.34404,-0.8538 4.01543,-1.3778 4.49947,-1.4105 1.90669,-0.129 4.03527,0.6937 5.19536,2.0079 1.43381,1.6244 2.36886,3.7291 3.37913,7.6059 l 0.4508,1.7299 -3.0311,-0.2342 c -1.66711,-0.1288 -3.07591,-0.2614 -3.13065,-0.2947 -0.0548,-0.033 -0.69523,-1.3174 -1.4233,-2.8536 -0.72806,-1.5362 -1.43645,-2.8582 -1.57419,-2.9378 -0.13774,-0.079 -0.37425,-0.1485 -0.52556,-0.1534 -0.1513,0 -1.86359,0.4989 -3.80506,1.1196 -8.81396,2.8177 -9.63164,3.1383 -10.3707,4.0665 -0.43909,0.5514 -0.46039,0.9108 -0.11956,2.0174 l 0.2631,0.8543 -1.7484,0.6292 c -0.96161,0.3461 -1.80459,0.5969 -1.87328,0.5572 -0.0687,-0.04 -0.31415,-0.5716 -0.54549,-1.1821 -0.63926,-1.6871 -0.47614,-3.8482 0.40577,-5.3757 0.40911,-0.7086 0.5323,-0.8239 1.29828,-1.2158 z m 2.35502,-8.6936 1.44412,-0.4063 0.43027,1.4845 0.43025,1.4845 -1.47673,0.4374 -1.47672,0.4374 -0.45046,-1.424 c -0.24774,-0.7832 -0.4267,-1.4652 -0.39765,-1.5156 0.029,-0.05 0.70264,-0.2744 1.49692,-0.4979 z m 0.15963,-5.7589 c 3.88836,-1.4461 7.12105,-2.6191 7.18376,-2.6068 0.14573,0.029 0.78727,1.6492 0.70755,1.7873 -0.0751,0.13 -14.18369,5.3821 -14.28408,5.3173 -0.0405,-0.026 -0.20932,-0.4571 -0.37526,-0.9579 l -0.30171,-0.9106 z m -31.68477,20.6461 1.4754,-2.4646 1.4754,-2.4647 0.98672,-0.6788 c 0.5427,-0.3734 1.62414,-1.0605 2.40319,-1.5269 0.77905,-0.4664 1.48299,-0.9632 1.5643,-1.104 0.0813,-0.1408 0.44043,-1.0802 0.79805,-2.0874 0.70649,-1.9898 1.37103,-3.1552 2.11836,-3.7148 l 0.41188,-0.3085 -0.16356,0.6079 c -0.98287,3.6527 -1.12812,4.4883 -1.99715,11.4886 l -0.46101,3.7136 -0.71302,1.3441 -0.71301,1.3441 m 6.57951,3.6816 c 0.17994,-0.3185 0.71613,-2.4281 0.85084,-3.3476 0.4612,-3.148 0.37082,-8.1311 -0.19139,-10.552 -0.13237,-0.57 -0.20356,-1.0149 -0.1582,-0.9887 0.31646,0.1827 1.31119,2.6819 1.80985,4.5472 0.49957,1.8686 0.61354,2.6244 0.7105,4.7114 0.13349,2.873 0.0308,5.5142 -0.25374,6.5254 l -0.19832,0.7049 m 12.73739,7.354 0.34351,-0.7771 c 1.25338,-2.8356 1.47908,-5.5053 0.71075,-8.4073 l -0.35329,-1.3344 1.42265,-0.5085 c 0.78247,-0.2797 1.47718,-0.5101 1.5438,-0.5121 0.15904,0 1.0166,3.4671 1.26008,5.1015 0.41056,2.7561 0.086,5.0249 -1.10788,7.7457 l -0.31419,0.716 m 13.92925,8.0421 0.71723,-1.4198 c 1.82021,-3.603 2.50919,-6.2192 2.32788,-8.8395 -0.0278,-0.4023 -0.42253,-2.1753 -0.87709,-3.9399 -1.37725,-5.3464 -1.40602,-5.8155 -0.56912,-9.2831 0.60109,-2.4905 0.64476,-2.5463 1.93334,-2.4709 0.83447,0.049 6.67429,0.938 10.14709,1.545 4.16976,0.7288 3.93538,0.7745 5.31493,-1.0353 0.50922,-0.668 1.01028,-1.3126 1.11349,-1.4323 0.18235,-0.2117 0.2702,-0.173 3.12621,1.3765 1.61623,0.8769 2.9513,1.654 2.96683,1.7269 0.0155,0.073 -0.50544,0.7022 -1.15771,1.3986 -2.77636,2.9641 -4.02001,4.5951 -9.50245,12.4618 -2.77027,3.975 -5.88177,8.5874 -7.0847,10.5021 -0.59361,0.9448 -1.29579,2.0319 -1.56039,2.4156 l -0.48112,0.6976 m 36.32893,20.9745 0.95894,-1.8264 c 3.93646,-7.4974 5.4655,-15.6369 4.34432,-23.1262 -0.48047,-3.2093 -1.84054,-7.1167 -3.55043,-10.2001 -2.82315,-5.0908 -7.64684,-10.5032 -13.2262,-14.8404 -3.08619,-2.3991 -4.36103,-3.228 -8.77767,-5.7072 -6.79722,-3.8154 -7.89506,-4.4769 -8.6264,-5.1975 -0.35563,-0.3504 -1.28172,-1.5609 -2.05795,-2.6901 -3.64819,-5.3068 -7.27229,-9.7509 -9.15003,-11.2204 -0.83862,-0.6562 -3.03108,-1.6872 -4.48586,-2.1093 -1.41334,-0.4101 -3.77407,-0.6204 -5.48008,-0.4882 -1.4533,0.1127 -5.0146,1.0096 -6.6468,1.674 -1.27429,0.5188 -3.60366,1.5383 -9.22559,4.0378 -2.18386,0.9709 -4.04099,1.7869 -4.12697,1.8132 -0.086,0.026 -0.0391,-1.8955 0.10416,-4.2708 0.14327,-2.3752 0.21889,-4.3426 0.16805,-4.372 m -32.42916,-0.02 c -0.0653,0.019 -1.00711,1.4878 -2.09285,3.2639 -1.37751,2.2534 -2.03,3.2311 -2.1592,3.2352 -0.3691,0.012 -4.17706,-0.5288 -4.18773,-0.5946 -0.006,-0.037 0.25654,-0.7721 0.58345,-1.6331 l 0.59439,-1.5655 0.98012,0.1478 0.98011,0.1479 0.87454,-1.5148 0.87452,-1.5147 m -7.48679,-0.01 -0.59307,1.0272 c -0.32618,0.565 -0.5709,1.04 -0.54382,1.0557 0.0271,0.016 0.59283,0.096 1.25718,0.1796 0.66436,0.083 1.23897,0.169 1.27688,0.1909 0.0379,0.022 -0.14531,0.5658 -0.40717,1.2086 -0.26187,0.6428 -0.51492,1.2966 -0.5623,1.453 -0.0791,0.261 -0.26069,0.2475 -2.21975,-0.1646 -2.60718,-0.5484 -2.69012,-0.574 -2.81725,-0.87 -0.0829,-0.1931 0.0975,-0.5964 0.96532,-2.1576 l 1.0673,-1.9202 m 14.40292,20.0212 2.31962,-4.1738 c 1.27579,-2.2956 2.43543,-4.2934 2.57698,-4.4395 0.43369,-0.4477 2.71155,-0.5502 6.79948,-0.3058 l 1.40256,0.084 -0.78445,1.3081 c -1.34051,2.2354 -1.09775,2.0785 -3.0898,1.997 l -1.72874,-0.071 -0.45575,0.6823 c -0.25067,0.3753 -1.25081,2.0318 -2.22255,3.6811 l -1.76678,2.9987 m -131.34591,-14.2142 -1.51874,-0.4445 -0.40697,1.4986 -0.40698,1.4986 1.4696,0.4263 1.46961,0.4264 0.45609,-1.4805 0.45611,-1.4804 z m 5.12812,1.4685 -1.38933,-0.4161 -0.45673,1.4086 c -0.25119,0.7746 -0.42604,1.4616 -0.38854,1.5266 0.0375,0.065 0.71441,0.3007 1.50425,0.5239 l 1.43606,0.4058 0.38896,-1.4347 c 0.21393,-0.7891 0.36774,-1.4715 0.34181,-1.5164 -0.0259,-0.045 -0.67236,-0.2689 -1.43648,-0.4977 z m 5.18013,1.5982 c -0.74371,-0.2358 -1.41509,-0.3925 -1.49195,-0.3481 -0.16812,0.097 -0.87687,2.7101 -0.7804,2.8772 0.0372,0.064 0.68768,0.2811 1.44545,0.4815 l 1.37779,0.3642 0.18411,-0.5649 c 0.38813,-1.191 0.68915,-2.2582 0.6539,-2.3183 -0.0202,-0.035 -0.64521,-0.2557 -1.3889,-0.4916 z m 7.34596,10.2195 c -1.04063,-0.5325 -7.63591,-3.1017 -12.65539,-4.9301 -2.34405,-0.8538 -4.01542,-1.3778 -4.49947,-1.4105 -1.90669,-0.129 -4.03527,0.6937 -5.19536,2.0079 -1.433808,1.6244 -2.368868,3.7291 -3.379128,7.6059 l -0.45079,1.7299 3.03109,-0.2342 c 1.667108,-0.1288 3.075888,-0.2614 3.130648,-0.2947 0.0547,-0.033 0.69523,-1.3174 1.4233,-2.8536 0.72807,-1.5362 1.43645,-2.8582 1.57419,-2.9378 0.13775,-0.079 0.37425,-0.1485 0.52555,-0.1534 0.15131,0 1.8636,0.4989 3.80507,1.1196 8.81396,2.8177 9.63164,3.1383 10.3707,4.0665 0.43909,0.5514 0.46039,0.9108 0.11956,2.0174 l -0.2631,0.8543 1.7484,0.6292 c 0.96161,0.3461 1.80459,0.5969 1.87328,0.5572 0.0687,-0.04 0.31415,-0.5716 0.54549,-1.1821 0.63926,-1.6871 0.47614,-3.8482 -0.40577,-5.3757 -0.40911,-0.7086 -0.5323,-0.8239 -1.29827,-1.2158 z m -2.35503,-8.6936 -1.44412,-0.4063 -0.43027,1.4845 -0.43025,1.4845 1.47673,0.4374 1.47672,0.4374 0.45046,-1.424 c 0.24775,-0.7832 0.4267,-1.4652 0.39765,-1.5156 -0.029,-0.05 -0.70264,-0.2744 -1.49692,-0.4979 z m -0.15963,-5.7589 c -3.88836,-1.4461 -7.12105,-2.6191 -7.18376,-2.6068 -0.14573,0.029 -0.78727,1.6492 -0.70755,1.7873 0.0751,0.13 14.18369,5.3821 14.28408,5.3173 0.0404,-0.026 0.20931,-0.4571 0.37526,-0.9579 l 0.30171,-0.9106 z m 31.68476,20.6461 -1.47539,-2.4646 -1.47541,-2.4647 -0.98672,-0.6788 c -0.54269,-0.3734 -1.62413,-1.0605 -2.40318,-1.5269 -0.77905,-0.4664 -1.48299,-0.9632 -1.5643,-1.104 -0.0813,-0.1408 -0.44044,-1.0802 -0.79804,-2.0874 -0.7065,-1.9898 -1.37105,-3.1552 -2.11838,-3.7148 l -0.41187,-0.3085 0.16356,0.6079 c 0.98287,3.6527 1.12812,4.4883 1.99715,11.4886 l 0.461,3.7136 0.71302,1.3441 0.71301,1.3441 m -6.5795,3.6816 c -0.17994,-0.3185 -0.71612,-2.4281 -0.85084,-3.3476 -0.4612,-3.148 -0.37082,-8.1311 0.19139,-10.552 0.13236,-0.57 0.20356,-1.0149 0.1582,-0.9887 -0.31646,0.1827 -1.3112,2.6819 -1.80986,4.5472 -0.49956,1.8686 -0.61353,2.6244 -0.71049,4.7114 -0.13349,2.873 -0.0308,5.5142 0.25373,6.5254 l 0.19832,0.7049 m -12.73739,7.354 -0.3435,-0.7772 c -1.25339,-2.8355 -1.47908,-5.5052 -0.71075,-8.4072 l 0.35329,-1.3344 -1.42266,-0.5085 c -0.78246,-0.2797 -1.47717,-0.5101 -1.54379,-0.5121 -0.15904,0 -1.0166,3.4671 -1.26008,5.1015 -0.41056,2.7561 -0.086,5.0249 1.10788,7.7457 l 0.31419,0.716 m -13.92925,8.0421 -0.71723,-1.4198 c -1.82021,-3.603 -2.50919,-6.2192 -2.32788,-8.8395 0.0278,-0.4023 0.42253,-2.1753 0.87709,-3.9399 1.37725,-5.3464 1.406,-5.8155 0.56912,-9.2831 -0.60108,-2.4905 -0.64475,-2.5463 -1.93334,-2.4709 -0.83447,0.049 -6.674278,0.938 -10.147088,1.545 -4.16976,0.7288 -3.93538,0.7745 -5.31493,-1.0353 -0.50923,-0.668 -1.0103,-1.3126 -1.11348,-1.4324 -0.18236,-0.2116 -0.27021,-0.1729 -3.12622,1.3766 -1.61623,0.8769 -2.9513,1.654 -2.96683,1.7269 -0.0155,0.073 0.50544,0.7022 1.15771,1.3986 2.77636,2.9641 4.02001,4.5951 9.50245,12.4618 2.77027,3.975 5.88176,8.5874 7.0847,10.5021 0.59361,0.9448 1.29579,2.0319 1.56039,2.4156 l 0.48112,0.6976 m -36.32893,20.9746 -0.95894,-1.8265 c -3.93647,-7.4974 -5.4655,-15.6369 -4.34432,-23.1262 0.48046,-3.2093 1.84054,-7.1167 3.55043,-10.2001 2.82315,-5.0908 7.64684,-10.5032 13.2262,-14.8404 3.08619,-2.3991 4.36103,-3.228 8.77767,-5.7072 6.79722,-3.8154 7.89506,-4.4769 8.6264,-5.1975 0.35563,-0.3504 1.28172,-1.5609 2.05796,-2.6901 3.64818,-5.3068 7.272278,-9.7509 9.150018,-11.2204 0.83862,-0.6562 3.03108,-1.6872 4.48586,-2.1093 1.41334,-0.4101 3.77407,-0.6204 5.48008,-0.4882 1.45331,0.1127 5.0146,1.0096 6.6468,1.674 1.27429,0.5188 3.60366,1.5383 9.22559,4.0378 2.18386,0.9709 4.04099,1.7869 4.12698,1.8132 0.086,0.026 0.0391,-1.8955 -0.10417,-4.2708 -0.14327,-2.3752 -0.21889,-4.3426 -0.16805,-4.372 m 32.42914,-0.02 c 0.0653,0.019 1.00713,1.4878 2.09286,3.2639 1.37753,2.2534 2.03001,3.2311 2.1592,3.2352 0.36912,0.012 4.17708,-0.5288 4.18774,-0.5946 0.006,-0.037 -0.25653,-0.7721 -0.58345,-1.6331 l -0.5944,-1.5655 -0.9801,0.1479 -0.98011,0.1478 -0.87454,-1.5147 -0.87454,-1.5148 m 7.48679,-0.01 0.59307,1.0272 c 0.3262,0.565 0.5709,1.04 0.54383,1.0557 -0.0271,0.016 -0.59282,0.096 -1.25719,0.1796 -0.66435,0.083 -1.23896,0.169 -1.27688,0.1909 -0.0379,0.022 0.14531,0.5658 0.40718,1.2086 0.26186,0.6428 0.51491,1.2966 0.56231,1.453 0.0792,0.261 0.26067,0.2475 2.21974,-0.1646 2.60718,-0.5484 2.69011,-0.574 2.81724,-0.87 0.0829,-0.1931 -0.0975,-0.5964 -0.9653,-2.1576 l -1.06732,-1.9202 m -14.40292,20.0212 -2.31962,-4.1738 c -1.27578,-2.2956 -2.43542,-4.2934 -2.57697,-4.4395 -0.43369,-0.4477 -2.71155,-0.5501 -6.79948,-0.3058 l -1.40257,0.084 0.78446,1.3081 c 1.34051,2.2354 1.09774,2.0785 3.08979,1.997 l 1.72874,-0.071 0.45576,0.6823 c 0.25067,0.3753 1.25081,2.0318 2.22254,3.6811 l 1.76679,2.9987 m -15.66445,55.5531 -0.37441,1.5375 -1.50131,-0.3969 -1.50133,-0.3968 0.36558,-1.4859 0.36558,-1.4859 1.51015,0.3452 1.51015,0.3452 z m 1.29232,-5.1754 -0.33437,1.4112 -1.44819,-0.3087 c -0.7965,-0.1698 -1.47886,-0.3619 -1.51636,-0.4268 -0.0375,-0.065 0.0968,-0.7691 0.29839,-1.5647 l 0.3666,-1.4466 1.43699,0.3806 c 0.79036,0.2092 1.45823,0.4172 1.48417,0.4622 0.0259,0.045 -0.10332,0.7167 -0.28723,1.4928 z m 1.20591,-5.2852 c -0.16757,0.762 -0.36758,1.4217 -0.44446,1.4661 -0.1681,0.097 -2.78548,-0.5957 -2.88194,-0.7627 -0.0372,-0.064 0.10037,-0.7362 0.30578,-1.4926 l 0.37344,-1.3753 0.58129,0.123 c 1.22551,0.2594 2.30018,0.5323 2.33466,0.5929 0.0197,0.035 -0.10118,0.6866 -0.26877,1.4486 z m -5.17729,-11.4715 c -0.0592,1.1674 -1.1318,8.1637 -2.05816,13.4249 -0.43259,2.4569 -0.81452,4.1663 -1.02818,4.6019 -0.84163,1.7157 -2.61837,3.1478 -4.33663,3.4953 -2.12364,0.4296 -4.41388,0.187 -8.27644,-0.8765 l -1.72355,-0.4746 1.71838,-2.5078 c 0.94512,-1.3794 1.76437,-2.5331 1.82054,-2.5639 0.0562,-0.031 1.4885,0.057 3.18296,0.1942 1.69446,0.1376 3.19354,0.1851 3.33128,0.1056 0.13774,-0.08 0.3158,-0.2498 0.39568,-0.3784 0.0799,-0.1286 0.49969,-1.8634 0.93291,-3.8552 1.96681,-9.0419 2.09797,-9.9103 1.66368,-11.0145 -0.25802,-0.6559 -0.55865,-0.8541 -1.6874,-1.1122 l -0.87132,-0.1993 0.32922,-1.8288 c 0.18108,-1.0058 0.38541,-1.8612 0.4541,-1.9009 0.0687,-0.04 0.65211,0.014 1.2965,0.1187 1.78066,0.2899 3.57067,1.5117 4.45257,3.0392 0.40912,0.7086 0.44744,0.873 0.40386,1.7323 z m 6.35133,6.3863 -0.37018,1.4538 -1.50074,-0.3697 -1.50075,-0.3696 0.35956,-1.4976 0.35957,-1.4976 1.45844,0.3219 c 0.80214,0.1771 1.48225,0.3631 1.51135,0.4134 0.0291,0.05 -0.11366,0.7458 -0.31725,1.5454 z m 4.9075,3.0176 c -0.69183,4.0905 -1.29225,7.4766 -1.3343,7.5248 -0.0977,0.1118 -1.82188,-0.1428 -1.90159,-0.2809 -0.0751,-0.1301 2.43079,-14.9745 2.53707,-15.0291 0.0428,-0.022 0.50058,0.047 1.01727,0.154 l 0.93941,0.194 z m -2.03765,-37.7628 1.39675,2.51 1.39675,2.5101 0.0946,1.194 c 0.052,0.6566 0.1063,1.9367 0.12067,2.8446 0.0144,0.9079 0.0926,1.7659 0.17397,1.9067 0.0813,0.1409 0.71522,0.9215 1.40869,1.7348 1.37001,1.6068 2.04697,2.765 2.15799,3.692 l 0.0612,0.511 -0.44465,-0.4456 c -2.67191,-2.6776 -3.32289,-3.2211 -8.95082,-7.4739 l -2.98556,-2.256 -0.80754,-1.2896 -0.80753,-1.2895 m -6.47815,3.8572 c 0.18587,0.315 1.74475,1.8342 2.4737,2.4106 2.49566,1.9734 6.85633,4.3867 9.23399,5.1103 0.55982,0.1703 0.98074,0.3311 0.93538,0.3573 -0.31646,0.1827 -2.97821,-0.2054 -4.8429,-0.7062 -1.86809,-0.5017 -2.57956,-0.7808 -4.43546,-1.7404 -2.55486,-1.3209 -4.79088,-2.7304 -5.52435,-3.4824 l -0.51126,-0.5242 m -12.73739,7.3539 0.50124,0.686 c 1.82897,2.5033 4.02817,4.0336 6.92551,4.8192 l 1.33222,0.3612 -0.27094,1.4863 c -0.14901,0.8175 -0.29677,1.5344 -0.32834,1.5931 -0.0754,0.1401 -3.51092,-0.8532 -5.04809,-1.4595 -2.59212,-1.0225 -4.39472,-2.438 -6.15404,-4.8323 l -0.46298,-0.6301 m -13.92925,8.042 0.8709,1.331 c 2.21021,3.3779 4.13144,5.2827 6.49129,6.4358 0.36237,0.177 2.09514,0.7217 3.85063,1.2104 5.31879,1.4804 5.73939,1.6901 8.32392,4.1486 1.85633,1.7658 1.88284,1.8316 1.17322,2.9098 -0.45953,0.6982 -4.14949,5.3111 -6.41156,8.0151 -2.71604,3.2468 -2.63839,3.0209 -1.76085,5.1206 0.32392,0.775 0.63159,1.5312 0.68371,1.6804 0.0921,0.2638 0.0147,0.3205 -2.75528,2.0191 -1.56752,0.9613 -2.90802,1.7289 -2.9789,1.706 -0.0709,-0.023 -0.35546,-0.7889 -0.6324,-1.702 -1.17882,-3.8864 -1.96944,-5.7789 -6.04096,-14.4602 -2.05733,-4.3866 -4.49602,-9.3875 -5.55275,-11.3866 -0.52146,-0.9865 -1.111758,-2.1381 -1.311758,-2.5591 l -0.36365,-0.7655 m -36.32891,20.9745 1.10225,1.7437 c 4.52471,7.1578 10.80923,12.5517 17.85571,15.3254 3.01961,1.1886 7.08359,1.9644 10.60876,2.0253 5.8204,0.1005 12.919518,-1.3708 19.465308,-4.0341 3.62076,-1.4731 4.97603,-2.1627 9.33138,-4.7481 6.7029,-3.9788 7.82464,-4.5988 8.81435,-4.8719 0.48128,-0.1328 1.99269,-0.3295 3.35869,-0.4372 6.41992,-0.506 12.08069,-1.4225 14.29214,-2.3139 0.98767,-0.3982 2.97671,-1.7814 4.06968,-2.8302 1.06183,-1.019 2.42433,-2.9583 3.16281,-4.5018 0.62911,-1.3149 1.63299,-4.8476 1.87365,-6.5934 0.1879,-1.3629 0.46968,-3.8899 1.116,-10.0084 0.25106,-2.3768 0.473,-4.3931 0.4932,-4.4807 0.0202,-0.088 1.66113,0.9139 3.64652,2.2256 1.98539,1.3117 3.6514,2.3609 3.70225,2.3316 m 16.2317,-28.0746 c 0.0162,-0.066 -0.78486,-1.6161 -1.78014,-3.4444 -1.26278,-2.3197 -1.78321,-3.3736 -1.72222,-3.4876 0.17426,-0.3256 2.54654,-3.353 2.60887,-3.3293 0.0352,0.013 0.54036,0.6082 1.12256,1.3218 l 1.05856,1.2975 -0.6181,0.7749 -0.61809,0.7749 0.87454,1.5147 0.87454,1.5148 m 3.75019,-6.4799 -0.59307,-1.0272 c -0.32619,-0.565 -0.61525,-1.0144 -0.64233,-0.9988 -0.0271,0.016 -0.37995,0.4652 -0.78413,0.9989 -0.40417,0.5338 -0.76589,0.9885 -0.80381,1.0104 -0.0379,0.022 -0.4173,-0.4087 -0.84306,-0.9569 -0.42576,-0.5482 -0.86549,-1.0943 -0.97717,-1.2135 -0.18645,-0.199 -0.084,-0.3495 1.25239,-1.8401 1.77856,-1.9836 1.84219,-2.0426 2.16212,-2.0048 0.20867,0.025 0.4677,0.3827 1.38587,1.9148 l 1.12922,1.8844 m -24.54028,2.4627 2.45482,4.0958 c 1.35014,2.2527 2.50044,4.2558 2.5562,4.4515 0.17088,0.5994 -0.87933,2.6233 -3.13489,6.0414 l -0.77389,1.1727 -0.74063,-1.3334 c -1.26564,-2.2786 -1.25114,-1.9899 -0.18455,-3.6743 l 0.9256,-1.4618 -0.36302,-0.7359 c -0.19968,-0.4047 -1.13415,-2.0991 -2.07662,-3.7653 l -1.7136,-3.0294 m -2.57745,63.1111 -1.14432,1.0931 1.09435,1.1017 1.09435,1.1018 1.10401,-1.0596 1.10403,-1.0595 -1.05405,-1.1352 -1.05404,-1.1352 z m 3.83581,-3.7068 -1.05495,0.9952 0.99145,1.0998 c 0.5453,0.6049 1.05283,1.0998 1.12783,1.0998 0.075,0 0.61763,-0.4683 1.20583,-1.0408 l 1.06948,-1.0407 -1.04803,-1.0542 c -0.57643,-0.5799 -1.09048,-1.0543 -1.14236,-1.0543 -0.0519,0 -0.56904,0.4479 -1.14925,0.9952 z m 3.97422,-3.687 c -0.57612,0.5262 -1.04749,1.0292 -1.04749,1.118 0,0.1941 1.90862,2.1145 2.10153,2.1145 0.0745,0 0.58731,-0.455 1.1397,-1.0111 l 1.00433,-1.0111 -0.39718,-0.4419 c -0.83737,-0.9316 -1.61104,-1.7259 -1.68074,-1.7254 -0.04,0 -0.54403,0.4309 -1.12015,0.957 z m 12.52325,-1.2521 c -0.98141,0.635 -6.50409,5.0621 -10.59722,8.4949 -1.91146,1.6031 -3.2009,2.7886 -3.47129,3.1914 -1.06507,1.5868 -1.41691,3.8415 -0.85874,5.5033 0.68984,2.0539 2.04503,3.916 4.89732,6.7293 l 1.27275,1.2554 1.31271,-2.7421 c 0.72199,-1.5082 1.31154,-2.7945 1.31011,-2.8586 -0.001,-0.064 -0.79327,-1.2608 -1.75966,-2.6594 -0.9664,-1.3986 -1.75708,-2.6731 -1.75708,-2.8322 0,-0.159 0.0584,-0.3984 0.12987,-0.5318 0.0714,-0.1335 1.3639,-1.3645 2.87215,-2.7355 6.84717,-6.2243 7.53366,-6.7721 8.70702,-6.9481 0.69712,-0.1045 1.01904,0.057 1.80696,0.9052 l 0.60822,0.655 1.41918,-1.1995 c 0.78055,-0.6598 1.41918,-1.2644 1.41918,-1.3437 0,-0.079 -0.33796,-0.5579 -0.75101,-1.0635 -1.1414,-1.3972 -3.09453,-2.3364 -4.85834,-2.3364 -0.81823,0 -0.97973,0.049 -1.70213,0.5163 z m -8.70635,-2.3072 -1.07395,1.0475 1.07049,1.1148 1.07048,1.1149 1.11717,-1.0602 1.11715,-1.0602 -1.00798,-1.1021 c -0.55439,-0.6061 -1.05555,-1.1021 -1.1137,-1.1021 -0.0581,-10e-5 -0.58898,0.4713 -1.17966,1.0474 z m -5.06713,-2.7412 c -3.19654,2.6444 -5.82879,4.8574 -5.84947,4.9179 -0.048,0.1406 1.03459,1.5064 1.19404,1.5064 0.15019,0 11.75289,-9.5924 11.74701,-9.7117 -0.002,-0.048 -0.29126,-0.4099 -0.642,-0.804 l -0.6377,-0.7165 z m 33.72242,-17.1168 -2.87215,0.045 -2.87215,0.045 -1.08128,0.5151 c -0.59471,0.2833 -1.73044,0.8764 -2.52387,1.3178 -0.79342,0.4415 -1.57564,0.8028 -1.73827,0.8028 -0.16262,0 -1.15566,-0.1587 -2.20673,-0.3526 -2.0765,-0.3831 -3.41802,-0.3903 -4.27635,-0.023 l -0.47306,0.2025 0.60822,0.1623 c 3.65476,0.9752 4.451,1.2671 10.94796,4.0147 l 3.44658,1.4575 1.52055,0.055 1.52055,0.055 m -0.10137,7.5388 c -0.3658,0 -2.46088,-0.5938 -3.32453,-0.9369 -2.95687,-1.1746 -7.22716,-3.7444 -9.04261,-5.4418 -0.42745,-0.3996 -0.77717,-0.6837 -0.77717,-0.6314 0,0.3655 1.66702,2.4765 3.03304,3.841 1.36852,1.367 1.96602,1.8435 3.72496,2.971 2.42137,1.5521 4.76009,2.7838 5.77809,3.043 l 0.70959,0.1807 m 0,14.7079 -0.84475,-0.091 c -3.08235,-0.3323 -5.50727,-1.4717 -7.63626,-3.5881 l -0.97894,-0.9731 -1.15172,0.9778 c -0.63344,0.5378 -1.1804,1.0242 -1.21543,1.0809 -0.0837,0.1353 2.4943,2.6139 3.78801,3.642 2.18154,1.7336 4.30866,2.5869 7.26192,2.9134 l 0.77717,0.086 m 0,16.0841 -1.58813,-0.089 c -4.03042,-0.2252 -6.64064,-0.9366 -8.81919,-2.4038 -0.33452,-0.2253 -1.67261,-1.4536 -2.97352,-2.7295 -3.94154,-3.866 -4.3334,-4.1254 -7.75482,-5.1344 -2.45741,-0.7247 -2.52759,-0.7148 -3.10655,0.4388 -0.37493,0.7471 -2.5248,6.2491 -3.73553,9.5602 -1.45373,3.9755 -1.297,3.7953 -3.55409,4.0852 -0.83314,0.107 -1.64187,0.2186 -1.79718,0.2481 -0.27446,0.052 -0.28489,0.1475 -0.37095,3.39574 -0.0487,1.8381 -0.0433,3.3829 0.012,3.4328 0.0553,0.05 0.8609,-0.087 1.79013,-0.3033 3.95517,-0.9224 5.98944,-1.1839 15.5434,-1.9985 4.8276,-0.4116 10.37778,-0.8001 12.63746,-0.8845 1.11507,-0.042 2.40753,-0.1062 2.87215,-0.1435 l 0.84475,-0.068 m 0,41.9491 -2.06119,-0.083 c -8.46118,-0.3396 -16.27474,-3.0852 -22.20003,-7.8008 -2.53916,-2.0207 -5.24305,-5.1523 -7.05836,-8.1748 -2.99724,-4.9903 -5.27267,-11.874 -6.2391,-18.8745 -0.53457,-3.8722 -0.61499,-5.3907 -0.5537,-10.45524 0.0943,-7.7943 0.0704,-9.0758 -0.18797,-10.0694 -0.12564,-0.4832 -0.71097,-1.8905 -1.30072,-3.1273 -2.77174,-5.8129 -4.80841,-11.1735 -5.14212,-13.5344 -0.14904,-1.0544 0.0544,-3.4686 0.41618,-4.9395 0.35151,-1.4291 1.34976,-3.5787 2.31726,-4.99 0.82421,-1.2023 3.38161,-3.838 4.77317,-4.9193 1.08639,-0.8442 3.13399,-2.3517 8.1096,-5.9707 1.93278,-1.4058 3.56798,-2.6061 3.63376,-2.6675 0.0658,-0.061 -1.62203,-0.9816 -3.75069,-2.0451 -2.12866,-1.0636 -3.87029,-1.9818 -3.87029,-2.0405 m 16.19745,-28.0944 c 0.0491,-0.047 1.79198,-0.1283 3.87299,-0.1805 2.64029,-0.066 3.81321,-0.1425 3.88141,-0.2523 0.19486,-0.3137 1.63055,-3.8819 1.57887,-3.924 -0.0292,-0.024 -0.79689,-0.1639 -1.70602,-0.3113 l -1.65294,-0.268 -0.36202,0.9228 -0.36201,0.9227 -1.74908,0 -1.74908,0 m 3.73662,-6.4877 1.18613,0 c 0.65238,0 1.18616,0.026 1.18616,0.057 0,0.031 -0.21288,0.5616 -0.47306,1.1785 -0.26019,0.6169 -0.47306,1.1575 -0.47306,1.2013 0,0.044 0.5626,0.1571 1.25023,0.2517 0.68762,0.095 1.38038,0.2024 1.53947,0.2395 0.2656,0.062 0.34471,-0.102 0.96735,-2.0046 0.82863,-2.5321 0.84791,-2.6168 0.65514,-2.8749 -0.12576,-0.1683 -0.56522,-0.2137 -2.35119,-0.2428 l -2.19653,-0.036 m 10.13737,22.4838 -4.77444,-0.078 c -2.62594,-0.043 -4.93588,-0.038 -5.13318,0.012 -0.60456,0.1517 -1.83222,2.0732 -3.66458,5.7356 l -0.62869,1.2566 1.52509,-0.025 c 2.60615,-0.043 2.34888,0.089 3.27434,-1.6773 l 0.80313,-1.5325 0.81879,-0.054 c 0.45034,-0.029 2.38496,-0.067 4.29917,-0.084 l 3.48037,-0.031 m 40.27811,41.3423 1.14433,1.093 -1.09436,1.1018 -1.09435,1.1017 -1.10402,-1.0595 -1.10402,-1.0596 1.05405,-1.1352 1.05404,-1.1352 z m -3.83581,-3.7069 1.05495,0.9952 -0.99146,1.0998 c -0.5453,0.6049 -1.05282,1.0998 -1.12781,1.0998 -0.075,0 -0.61763,-0.4683 -1.20585,-1.0407 l -1.06948,-1.0408 1.04805,-1.0542 c 0.57642,-0.5798 1.09047,-1.0542 1.14234,-1.0542 0.0519,0 0.56904,0.4478 1.14926,0.9951 z m -3.97421,-3.6869 c 0.57612,0.5261 1.04749,1.0292 1.04749,1.118 0,0.1941 -1.90862,2.1144 -2.10155,2.1144 -0.0745,0 -0.58731,-0.455 -1.13968,-1.0111 l -1.00434,-1.011 0.39719,-0.4419 c 0.83735,-0.9317 1.61102,-1.7259 1.68074,-1.7255 0.04,0 0.54403,0.4309 1.12015,0.9571 z m -12.52326,-1.2521 c 0.98142,0.635 6.5041,5.062 10.59723,8.4948 1.91145,1.6032 3.20089,2.7886 3.47128,3.1914 1.06508,1.5868 1.41691,3.8415 0.85875,5.5034 -0.68985,2.0538 -2.04503,3.916 -4.89732,6.7293 l -1.27275,1.2554 -1.31272,-2.7422 c -0.72198,-1.5081 -1.31154,-2.7945 -1.31012,-2.8585 0.001,-0.064 0.79328,-1.2608 1.75968,-2.6595 0.96639,-1.3986 1.75708,-2.6731 1.75708,-2.8321 0,-0.1591 -0.0584,-0.3984 -0.12988,-0.5319 -0.0714,-0.1335 -1.36391,-1.3645 -2.87215,-2.7355 -6.84716,-6.2243 -7.53367,-6.7721 -8.70702,-6.948 -0.69711,-0.1046 -1.01904,0.057 -1.80695,0.9052 l -0.60822,0.6549 -1.41918,-1.1995 c -0.78055,-0.6597 -1.41918,-1.2644 -1.41918,-1.3437 0,-0.079 0.33794,-0.5579 0.75099,-1.0635 1.1414,-1.3971 3.09454,-2.3364 4.85835,-2.3364 0.81823,0 0.97974,0.049 1.70213,0.5164 z m 8.70635,-2.3073 1.07396,1.0475 -1.0705,1.1149 -1.07049,1.1148 -1.11715,-1.0601 -1.11715,-1.0602 1.00797,-1.1021 c 0.55438,-0.6062 1.05556,-1.1022 1.11369,-1.1022 0.0581,0 0.589,0.4713 1.17967,1.0474 z m 5.06714,-2.7412 c 3.19653,2.6444 5.82879,4.8575 5.84946,4.9179 0.048,0.1406 -1.0346,1.5064 -1.19404,1.5064 -0.15019,0 -11.75289,-9.5923 -11.74702,-9.7117 0.002,-0.048 0.29127,-0.4098 0.64201,-0.8039 l 0.63771,-0.7166 z m -33.72242,-17.1167 2.87215,0.045 2.87215,0.045 1.08128,0.5151 c 0.5947,0.2833 1.73044,0.8763 2.52386,1.3178 0.79343,0.4415 1.57564,0.8027 1.73826,0.8027 0.16263,0 1.15566,-0.1587 2.20675,-0.3526 2.07649,-0.383 3.418,-0.3902 4.27635,-0.023 l 0.47306,0.2024 -0.60822,0.1623 c -3.65478,0.9752 -4.45102,1.2672 -10.94796,4.0147 l -3.44658,1.4576 -1.52055,0.055 -1.52055,0.055 m 0.10137,7.5389 c 0.3658,0 2.46086,-0.5939 3.32453,-0.937 2.95685,-1.1746 7.22714,-3.7444 9.04261,-5.4417 0.42744,-0.3997 0.77717,-0.6838 0.77717,-0.6314 0,0.3654 -1.66702,2.4765 -3.03304,3.841 -1.36853,1.3669 -1.96603,1.8435 -3.72496,2.971 -2.42139,1.5521 -4.76009,2.7838 -5.77809,3.043 l -0.70959,0.1806 m 0,14.7079 0.84475,-0.091 c 3.08235,-0.3323 5.50726,-1.4717 7.63626,-3.5881 l 0.97893,-0.9731 1.15171,0.9778 c 0.63346,0.5378 1.1804,1.0242 1.21544,1.0809 0.0836,0.1353 -2.49429,2.6139 -3.788,3.642 -2.18155,1.7336 -4.30866,2.587 -7.26192,2.9134 l -0.77717,0.086 m 0,16.0841 1.58813,-0.089 c 4.03042,-0.2251 6.64063,-0.9366 8.81919,-2.4037 0.33452,-0.2253 1.6726,-1.4536 2.97352,-2.7296 3.94154,-3.8659 4.33339,-4.1254 7.75482,-5.1344 2.45741,-0.7247 2.52757,-0.7148 3.10654,0.4389 0.37494,0.7471 2.52479,6.2491 3.73554,9.5601 1.45371,3.9755 1.297,3.7954 3.55409,4.0852 0.83314,0.107 1.64187,0.2187 1.79718,0.2482 0.27445,0.052 0.28488,0.1475 0.37094,3.39564 0.0487,1.8382 0.0433,3.3829 -0.0121,3.4328 -0.0553,0.05 -0.8609,-0.087 -1.79012,-0.3033 -3.95517,-0.9223 -5.98945,-1.1839 -15.5434,-1.9985 -4.8276,-0.4116 -10.37779,-0.8 -12.63746,-0.8844 -1.11507,-0.042 -2.40754,-0.1063 -2.87215,-0.1436 l -0.84475,-0.068 m 0,41.949 2.06119,-0.083 c 8.46118,-0.3396 16.27474,-3.0852 22.20003,-7.8008 2.53916,-2.0208 5.24304,-5.1524 7.05835,-8.1748 2.99723,-4.9904 5.27267,-11.874 6.2391,-18.8745 0.53457,-3.8723 0.61499,-5.3908 0.5537,-10.45534 -0.0943,-7.7943 -0.0704,-9.0757 0.18797,-10.0694 0.12564,-0.4832 0.71097,-1.8905 1.30072,-3.1273 2.77174,-5.8128 4.80841,-11.1734 5.14212,-13.5343 0.14904,-1.0545 -0.0544,-3.4686 -0.41619,-4.9396 -0.35151,-1.429 -1.34975,-3.5786 -2.31726,-4.9899 -0.8242,-1.2023 -3.38161,-3.838 -4.77315,-4.9193 -1.0864,-0.8442 -3.134,-2.3518 -8.1096,-5.9707 -1.93279,-1.4058 -3.56798,-2.6062 -3.63376,-2.6675 -0.0658,-0.061 1.62202,-0.9816 3.75069,-2.0452 2.12866,-1.0635 3.87029,-1.9818 3.87029,-2.0405 m -16.19745,-28.0943 c -0.0491,-0.047 -1.79198,-0.1283 -3.873,-0.1806 -2.6403,-0.066 -3.81321,-0.1425 -3.88142,-0.2523 -0.19486,-0.3137 -1.63054,-3.8818 -1.57887,-3.924 0.0292,-0.024 0.79691,-0.1638 1.70602,-0.3112 l 1.65295,-0.268 0.36201,0.9227 0.36203,0.9227 1.74906,0 1.74908,0 m -3.7366,-6.4877 -1.18615,0 c -0.65238,0 -1.18614,0.026 -1.18614,0.057 0,0.031 0.21288,0.5617 0.47306,1.1786 0.26018,0.6169 0.47306,1.1575 0.47306,1.2013 0,0.044 -0.5626,0.157 -1.25023,0.2516 -0.68763,0.095 -1.38039,0.2024 -1.53949,0.2395 -0.26559,0.062 -0.34469,-0.1019 -0.96734,-2.0046 -0.82864,-2.5321 -0.84791,-2.6167 -0.65513,-2.8748 0.12574,-0.1684 0.5652,-0.2138 2.35118,-0.2428 l 2.19653,-0.036 m -10.13736,22.4839 4.77443,-0.078 c 2.62594,-0.043 4.93587,-0.037 5.13318,0.012 0.60457,0.1517 1.83222,2.0732 3.66459,5.7356 l 0.62868,1.2565 -1.52509,-0.025 c -2.60615,-0.043 -2.34888,0.089 -3.27434,-1.6773 l -0.80314,-1.5325 -0.81878,-0.053 c -0.45033,-0.03 -2.38496,-0.067 -4.29916,-0.084 l -3.48037,-0.031 m -53.36301,-120.8561 -0.37441,-1.5375 -1.50132,0.3968 -1.50133,0.3969 0.36558,1.4859 0.36558,1.4859 1.51015,-0.3453 1.51015,-0.3452 z m 1.29231,5.1753 -0.33437,-1.4112 -1.44819,0.3088 c -0.79649,0.1698 -1.47885,0.3618 -1.51636,0.4268 -0.0375,0.065 0.0968,0.769 0.2984,1.5646 l 0.36659,1.4466 1.437,-0.3805 c 0.79035,-0.2093 1.45823,-0.4173 1.48415,-0.4622 0.0259,-0.045 -0.10331,-0.7167 -0.28722,-1.4929 z m 1.20592,5.2853 c -0.16759,-0.762 -0.36759,-1.4218 -0.44446,-1.4662 -0.16812,-0.097 -2.78549,0.5957 -2.88195,0.7628 -0.0372,0.064 0.10037,0.7361 0.30577,1.4925 l 0.37346,1.3754 0.58128,-0.1231 c 1.22551,-0.2593 2.30019,-0.5322 2.33465,-0.5928 0.0197,-0.035 -0.10118,-0.6866 -0.26875,-1.4486 z m -5.1773,11.4715 c -0.0592,-1.1674 -1.13181,-8.1637 -2.05815,-13.4249 -0.43261,-2.4569 -0.81453,-4.1664 -1.0282,-4.6019 -0.84161,-1.7158 -2.61837,-3.1478 -4.33661,-3.4954 -2.12366,-0.4295 -4.41389,-0.1869 -8.27645,0.8766 l -1.72355,0.4745 1.71839,2.5079 c 0.94511,1.3794 1.76436,2.5331 1.82053,2.5639 0.0562,0.031 1.48851,-0.057 3.18297,-0.1942 1.69445,-0.1376 3.19353,-0.1851 3.33128,-0.1056 0.13774,0.079 0.3158,0.2498 0.39566,0.3784 0.0799,0.1286 0.4997,1.8634 0.93293,3.8551 1.96679,9.042 2.09797,9.9104 1.66367,11.0145 -0.25802,0.656 -0.55864,0.8542 -1.6874,1.1123 l -0.87132,0.1993 0.32922,1.8288 c 0.18107,1.0058 0.38542,1.8612 0.45411,1.9009 0.0687,0.04 0.6521,-0.014 1.29649,-0.1187 1.78066,-0.2899 3.57067,-1.5117 4.45258,-3.0392 0.40911,-0.7086 0.44743,-0.873 0.40385,-1.7323 z m 6.35133,-6.3863 -0.37018,-1.4538 -1.50075,0.3696 -1.50075,0.3697 0.35958,1.4975 0.35956,1.4976 1.45844,-0.3219 c 0.80214,-0.177 1.48225,-0.363 1.51135,-0.4134 0.0291,-0.05 -0.11366,-0.7457 -0.31725,-1.5453 z m 4.9075,-3.0177 c -0.69183,-4.0904 -1.29226,-7.4766 -1.3343,-7.5247 -0.0977,-0.1119 -1.82187,0.1428 -1.90159,0.2809 -0.0751,0.13 2.4308,14.9745 2.53707,15.029 0.0428,0.022 0.50058,-0.047 1.01727,-0.154 l 0.93941,-0.194 z m -2.03765,37.7629 1.39675,-2.5101 1.39675,-2.51 0.0946,-1.194 c 0.052,-0.6567 0.10631,-1.9368 0.12067,-2.8446 0.0144,-0.9079 0.0926,-1.7659 0.17396,-1.9068 0.0813,-0.1408 0.71523,-0.9215 1.4087,-1.7348 1.37,-1.6067 2.04698,-2.7649 2.15799,-3.692 l 0.0612,-0.5109 -0.44466,0.4456 c -2.6719,2.6775 -3.32289,3.2211 -8.95081,7.4739 l -2.98557,2.256 -0.80754,1.2896 -0.80754,1.2895 m -6.47813,-3.8572 c 0.18586,-0.3151 1.74474,-1.8342 2.47369,-2.4107 2.49566,-1.9734 6.85632,-4.3866 9.234,-5.1102 0.55982,-0.1704 0.98073,-0.3312 0.93538,-0.3574 -0.31647,-0.1827 -2.97822,0.2055 -4.84291,0.7062 -1.86809,0.5017 -2.57956,0.7809 -4.43545,1.7404 -2.55487,1.321 -4.79088,2.7305 -5.52435,3.4825 l -0.51127,0.5242 m -12.7374,-7.3539 0.50125,-0.6861 c 1.82897,-2.5032 4.02818,-4.0335 6.92551,-4.8191 l 1.33222,-0.3612 -0.27093,-1.4864 c -0.14902,-0.8174 -0.29678,-1.5343 -0.32836,-1.593 -0.0754,-0.1401 -3.51091,0.8531 -5.04809,1.4595 -2.5921,1.0225 -4.3947,2.4379 -6.15404,4.8323 l -0.46297,0.6301 m -13.92926,-8.0421 0.87091,-1.331 c 2.2102,-3.3778 4.13144,-5.2826 6.4913,-6.4357 0.36236,-0.1771 2.09514,-0.7217 3.85061,-1.2104 5.31879,-1.4805 5.7394,-1.6901 8.32393,-4.1487 1.85633,-1.7658 1.88283,-1.8315 1.17322,-2.9097 -0.45954,-0.6983 -4.14949,-5.3111 -6.41155,-8.0152 -2.71605,-3.2467 -2.6384,-3.0209 -1.76085,-5.1205 0.3239,-0.775 0.63158,-1.5312 0.68371,-1.6805 0.0921,-0.2637 0.0147,-0.3205 -2.75529,-2.0191 -1.56753,-0.9612 -2.90803,-1.7289 -2.97889,-1.7059 -0.0709,0.023 -0.35546,0.7889 -0.63241,1.7019 -1.17882,3.8865 -1.96944,5.779 -6.04096,14.4603 -2.05733,4.3866 -4.49602,9.3874 -5.55276,11.3866 -0.52146,0.9865 -1.111748,2.1381 -1.311748,2.5591 l -0.36364,0.7655 m -36.32892,-20.9745 1.10224,-1.7437 c 4.52471,-7.1578 10.80924,-12.5517 17.85571,-15.3254 3.01961,-1.1886 7.08359,-1.9644 10.60878,-2.0253 5.82038,-0.1005 12.919508,1.3707 19.465308,4.034 3.62075,1.4732 4.97602,2.1628 9.33136,4.7481 6.70291,3.9788 7.82467,4.5989 8.81437,4.8719 0.48128,0.1328 1.99269,0.3296 3.35868,0.4372 6.41992,0.5061 12.08069,1.4226 14.29214,2.314 0.98768,0.3981 2.97672,1.7814 4.06969,2.8302 1.06183,1.0189 2.42431,2.9582 3.1628,4.5018 0.6291,1.3149 1.63299,4.8475 1.87366,6.5933 0.18788,1.363 0.46966,3.89 1.11598,10.0085 0.25107,2.3767 0.47301,4.393 0.49321,4.4806 0.0202,0.088 1.66114,-0.9139 3.64653,-2.2256 1.98539,-1.3117 3.6514,-2.3608 3.70224,-2.3315 m 16.2317,28.0746 c 0.0162,0.066 -0.78487,1.6161 -1.78014,3.4444 -1.26278,2.3197 -1.78321,3.3736 -1.72222,3.4875 0.17426,0.3256 2.54653,3.3531 2.60886,3.3294 0.0352,-0.013 0.54037,-0.6082 1.12257,-1.3218 l 1.05856,-1.2975 -0.6181,-0.7749 -0.61809,-0.7749 0.87454,-1.5148 0.87454,-1.5147 m 3.75019,6.4798 -0.59307,1.0273 c -0.3262,0.565 -0.61524,1.0144 -0.64233,0.9988 -0.0271,-0.016 -0.37995,-0.4652 -0.78413,-0.999 -0.40416,-0.5338 -0.7659,-0.9884 -0.80382,-1.0103 -0.0379,-0.022 -0.41729,0.4087 -0.84305,0.9569 -0.42576,0.5482 -0.86548,1.0942 -0.97717,1.2135 -0.18646,0.199 -0.084,0.3495 1.25239,1.84 1.77855,1.9837 1.8422,2.0427 2.16211,2.0048 0.20867,-0.025 0.46771,-0.3826 1.38588,-1.9148 l 1.12922,-1.8843 m -24.54029,-2.4628 2.45482,-4.0957 c 1.35015,-2.2527 2.50045,-4.2558 2.55621,-4.4515 0.17087,-0.5994 -0.87934,-2.6233 -3.1349,-6.0414 l -0.77388,-1.1728 -0.74063,1.3335 c -1.26565,2.2786 -1.25115,1.9899 -0.18455,3.6743 l 0.9256,1.4618 -0.36302,0.7358 c -0.19967,0.4048 -1.13415,2.0991 -2.07662,3.7653 l -1.71359,3.0295 m -55.94256,14.2107 -1.51873,0.4445 -0.40697,-1.4986 -0.40697,-1.4986 1.46959,-0.4264 1.4696,-0.4263 0.45611,1.4804 0.45611,1.4805 z m 5.12813,-1.4685 -1.38933,0.416 -0.45673,-1.4085 c -0.2512,-0.7747 -0.42604,-1.4617 -0.38854,-1.5266 0.0375,-0.065 0.71441,-0.3007 1.50424,-0.5239 l 1.43606,-0.4058 0.38897,1.4347 c 0.21393,0.7891 0.36774,1.4715 0.34181,1.5164 -0.0259,0.045 -0.67236,0.2689 -1.43648,0.4977 z m 5.18012,-1.5983 c -0.7437,0.2359 -1.41507,0.3926 -1.49195,0.3482 -0.1681,-0.097 -0.87686,-2.7102 -0.7804,-2.8772 0.0372,-0.064 0.68768,-0.2812 1.44546,-0.4815 l 1.37779,-0.3642 0.1841,0.5649 c 0.38815,1.191 0.68915,2.2581 0.65391,2.3183 -0.0202,0.034 -0.64521,0.2557 -1.38891,0.4915 z m 7.34596,-10.2194 c -1.04062,0.5324 -7.6359,3.1017 -12.65538,4.93 -2.34404,0.8539 -4.01542,1.3778 -4.49947,1.4106 -1.9067,0.129 -4.03527,-0.6937 -5.19537,-2.008 -1.433788,-1.6244 -2.368858,-3.729 -3.379118,-7.6059 l -0.4508,-1.7299 3.0311,0.2342 c 1.667108,0.1289 3.075898,0.2615 3.130648,0.2947 0.0547,0.033 0.69523,1.3174 1.4233,2.8537 0.72806,1.5362 1.43645,2.8582 1.57419,2.9377 0.13775,0.08 0.37424,0.1486 0.52555,0.1535 0.15131,0 1.86359,-0.499 3.80508,-1.1196 8.81395,-2.8177 9.63162,-3.1383 10.37068,-4.0665 0.4391,-0.5515 0.4604,-0.9109 0.11956,-2.0175 l -0.2631,-0.8542 1.7484,-0.6293 c 0.96162,-0.3461 1.8046,-0.5968 1.87328,-0.5572 0.0687,0.04 0.31416,0.5716 0.54549,1.1822 0.63927,1.687 0.47615,3.8481 -0.40576,5.3756 -0.40911,0.7086 -0.5323,0.824 -1.29828,1.2159 z m -2.35502,8.6936 -1.44413,0.4063 -0.43025,-1.4845 -0.43026,-1.4845 1.47672,-0.4374 1.47673,-0.4374 0.45045,1.424 c 0.24776,0.7832 0.4267,1.4652 0.39766,1.5155 -0.029,0.05 -0.70265,0.2745 -1.49692,0.498 z m -0.15963,5.7588 c -3.88836,1.4461 -7.12105,2.6192 -7.18376,2.6069 -0.14573,-0.029 -0.78728,-1.6492 -0.70756,-1.7873 0.0751,-0.1301 14.1837,-5.3821 14.28409,-5.3174 0.0405,0.026 0.20931,0.4572 0.37526,0.958 l 0.30171,0.9106 z m 31.68477,-20.6461 -1.4754,2.4647 -1.4754,2.4646 -0.98672,0.6789 c -0.5427,0.3734 -1.62414,1.0605 -2.40319,1.5268 -0.77905,0.4664 -1.48299,0.9632 -1.5643,1.1041 -0.0813,0.1408 -0.44043,1.0801 -0.79805,2.0873 -0.70649,1.9899 -1.37104,3.1552 -2.11837,3.7149 l -0.41187,0.3084 0.16356,-0.6078 c 0.98287,-3.6527 1.12812,-4.4883 1.99715,-11.4886 l 0.46101,-3.7136 0.71302,-1.3441 0.71301,-1.3441 m -6.57952,-3.6817 c -0.17993,0.3185 -0.71612,2.4281 -0.85083,3.3476 -0.46121,3.148 -0.37083,8.1311 0.19139,10.552 0.13237,0.57 0.20356,1.015 0.1582,0.9888 -0.31646,-0.1827 -1.3112,-2.6819 -1.80986,-4.5472 -0.49956,-1.8687 -0.61353,-2.6244 -0.7105,-4.7114 -0.13348,-2.8731 -0.0308,-5.5143 0.25374,-6.5255 l 0.19833,-0.7048 m -12.7374,-7.354 -0.3435,0.7771 c -1.25339,2.8356 -1.47909,5.5053 -0.71075,8.4073 l 0.35329,1.3343 -1.42266,0.5085 c -0.78246,0.2797 -1.47716,0.5102 -1.54378,0.5122 -0.15905,0 -1.01661,-3.4671 -1.26009,-5.1015 -0.41056,-2.7561 -0.0861,-5.0249 1.10788,-7.7457 l 0.3142,-0.716 m -13.92926,-8.0421 -0.71722,1.4197 c -1.82022,3.6031 -2.5092,6.2193 -2.3279,8.8395 0.0278,0.4024 0.42254,2.1753 0.8771,3.94 1.37725,5.3464 1.40601,5.8155 0.56912,9.283 -0.60109,2.4906 -0.64476,2.5464 -1.93334,2.471 -0.83446,-0.049 -6.674288,-0.9381 -10.147088,-1.5451 -4.16976,-0.7288 -3.93539,-0.7744 -5.31494,1.0354 -0.50922,0.668 -1.01028,1.3126 -1.11348,1.4323 -0.18234,0.2117 -0.2702,0.173 -3.12622,-1.3766 -1.61622,-0.8769 -2.95129,-1.6539 -2.96683,-1.7268 -0.0155,-0.073 0.50545,-0.7023 1.15772,-1.3987 2.77636,-2.9641 4.02001,-4.595 9.50245,-12.4617 2.77027,-3.975 5.88177,-8.5874 7.0847,-10.5021 0.59361,-0.9449 1.29578,-2.0319 1.56039,-2.4156 l 0.48111,-0.6977 m -36.32892,-20.9745 -0.95894,1.8264 c -3.93647,7.4974 -5.4655,15.637 -4.34431,23.1262 0.48045,3.2094 1.84054,7.1168 3.55041,10.2001 2.82316,5.0909 7.64684,10.5033 13.22621,14.8405 3.08619,2.3991 4.36103,3.228 8.77767,5.7071 6.79722,3.8155 7.89505,4.477 8.62639,5.1975 0.35564,0.3504 1.28172,1.561 2.05796,2.6901 3.64818,5.3068 7.272288,9.751 9.150018,11.2204 0.83864,0.6563 3.03108,1.6872 4.48587,2.1094 1.41335,0.4101 3.77408,0.6204 5.48007,0.4881 1.45331,-0.1126 5.0146,-1.0095 6.64681,-1.674 1.27429,-0.5187 3.60367,-1.5382 9.22559,-4.0378 2.18386,-0.9709 4.04099,-1.7868 4.12697,-1.8132 0.086,-0.026 0.0391,1.8956 -0.10416,4.2708 -0.14327,2.3753 -0.21889,4.3427 -0.16805,4.372 m 32.42915,0.02 c 0.0653,-0.019 1.00712,-1.4877 2.09286,-3.2638 1.37751,-2.2535 2.02999,-3.2311 2.15919,-3.2353 0.36912,-0.012 4.17708,0.5289 4.18774,0.5947 0.006,0.037 -0.25653,0.7721 -0.58345,1.6331 l -0.59439,1.5655 -0.98012,-0.1479 -0.98011,-0.1478 -0.87454,1.5147 -0.87453,1.5148 m 7.4868,0.01 0.59307,-1.0272 c 0.32618,-0.565 0.5709,-1.0401 0.54382,-1.0557 -0.0271,-0.016 -0.59282,-0.097 -1.25719,-0.1796 -0.66436,-0.083 -1.23896,-0.1691 -1.27688,-0.191 -0.0379,-0.022 0.14532,-0.5657 0.40718,-1.2085 0.26187,-0.6428 0.51491,-1.2967 0.56231,-1.453 0.0791,-0.261 0.26067,-0.2475 2.21974,0.1646 2.60717,0.5484 2.69011,0.574 2.81725,0.87 0.0829,0.1931 -0.0975,0.5964 -0.96532,2.1576 l -1.0673,1.9201 m -14.40292,-20.0211 -2.31962,4.1738 c -1.2758,2.2956 -2.43543,4.2934 -2.57698,4.4395 -0.43369,0.4477 -2.71155,0.5501 -6.79948,0.3058 l -1.40257,-0.084 0.78446,-1.3081 c 1.34051,-2.2354 1.09775,-2.0784 3.08979,-1.997 l 1.72875,0.071 0.45575,-0.6823 c 0.25066,-0.3753 1.25081,-2.0317 2.22255,-3.681 l 1.76678,-2.9988 m 131.34591,14.2143 1.51874,0.4445 0.40697,-1.4986 0.40698,-1.4986 -1.4696,-0.4264 -1.4696,-0.4263 -0.4561,1.4804 -0.45611,1.4805 z m -5.12812,-1.4685 1.38933,0.416 0.45673,-1.4085 c 0.25119,-0.7747 0.42604,-1.4617 0.38854,-1.5266 -0.0375,-0.065 -0.71441,-0.3007 -1.50425,-0.5239 l -1.43606,-0.4058 -0.38896,1.4347 c -0.21393,0.7891 -0.36774,1.4715 -0.34181,1.5164 0.0259,0.045 0.67236,0.2689 1.43648,0.4977 z m -5.18013,-1.5983 c 0.74371,0.2359 1.41509,0.3926 1.49196,0.3482 0.16811,-0.097 0.87686,-2.7102 0.7804,-2.8772 -0.0372,-0.064 -0.68769,-0.2812 -1.44546,-0.4815 l -1.37779,-0.3642 -0.18411,0.5649 c -0.38813,1.191 -0.68915,2.2581 -0.6539,2.3183 0.0202,0.034 0.64521,0.2557 1.3889,0.4915 z m -7.34595,-10.2194 c 1.04062,0.5324 7.6359,3.1017 12.65538,4.93 2.34405,0.8539 4.01543,1.3778 4.49947,1.4106 1.90669,0.129 4.03527,-0.6937 5.19536,-2.008 1.43381,-1.6244 2.36887,-3.729 3.37913,-7.6059 l 0.4508,-1.7299 -3.0311,0.2342 c -1.66711,0.1289 -3.07589,0.2615 -3.13065,0.2947 -0.0548,0.033 -0.69523,1.3174 -1.4233,2.8537 -0.72806,1.5362 -1.43645,2.8582 -1.57419,2.9377 -0.13774,0.08 -0.37425,0.1486 -0.52555,0.1535 -0.15131,0 -1.8636,-0.499 -3.80507,-1.1196 -8.81396,-2.8177 -9.63164,-3.1383 -10.3707,-4.0665 -0.43909,-0.5515 -0.46039,-0.9109 -0.11956,-2.0175 l 0.2631,-0.8542 -1.7484,-0.6293 c -0.96161,-0.3461 -1.80459,-0.5968 -1.87328,-0.5572 -0.0687,0.04 -0.31415,0.5716 -0.54549,1.1822 -0.63926,1.687 -0.47614,3.8481 0.40577,5.3756 0.40911,0.7086 0.5323,0.824 1.29828,1.2159 z m 2.35502,8.6936 1.44412,0.4063 0.43027,-1.4845 0.43025,-1.4845 -1.47673,-0.4374 -1.47672,-0.4374 -0.45046,1.424 c -0.24774,0.7832 -0.4267,1.4652 -0.39765,1.5155 0.029,0.05 0.70264,0.2745 1.49692,0.498 z m 0.15963,5.7588 c 3.88836,1.4461 7.12105,2.6192 7.18376,2.6069 0.14573,-0.029 0.78727,-1.6492 0.70755,-1.7873 -0.0751,-0.1301 -14.18369,-5.3821 -14.28408,-5.3174 -0.0405,0.026 -0.20932,0.4572 -0.37526,0.958 l -0.30171,0.9106 z m -31.68476,-20.6461 1.47539,2.4647 1.4754,2.4646 0.98673,0.6789 c 0.54269,0.3734 1.62413,1.0605 2.40318,1.5268 0.77905,0.4664 1.48299,0.9632 1.5643,1.1041 0.0813,0.1408 0.44043,1.0801 0.79805,2.0873 0.70649,1.9899 1.37104,3.1552 2.11837,3.7149 l 0.41187,0.3084 -0.16356,-0.6078 c -0.98287,-3.6527 -1.12812,-4.4883 -1.99715,-11.4886 l -0.46101,-3.7136 -0.71301,-1.3441 -0.71302,-1.3441 m 6.57951,-3.6817 c 0.17994,0.3185 0.71613,2.4281 0.85084,3.3476 0.46121,3.148 0.37082,8.1311 -0.19139,10.552 -0.13237,0.57 -0.20356,1.015 -0.1582,0.9888 0.31646,-0.1827 1.3112,-2.6819 1.80986,-4.5472 0.49956,-1.8687 0.61353,-2.6244 0.7105,-4.7114 0.13348,-2.8731 0.0308,-5.5143 -0.25374,-6.5255 l -0.19833,-0.7048 m 12.7374,-7.354 0.3435,0.7771 c 1.25339,2.8356 1.47908,5.5053 0.71075,8.4073 l -0.35329,1.3343 1.42266,0.5085 c 0.78246,0.2797 1.47717,0.5102 1.54379,0.5122 0.15904,0 1.0166,-3.4671 1.26008,-5.1015 0.41056,-2.7561 0.086,-5.0249 -1.10788,-7.7457 l -0.31419,-0.716 m 13.92925,-8.0421 0.71723,1.4197 c 1.82021,3.6031 2.50919,6.2193 2.32788,8.8395 -0.0278,0.4024 -0.42253,2.1753 -0.87709,3.94 -1.37725,5.3464 -1.406,5.8155 -0.56912,9.283 0.60109,2.4906 0.64476,2.5464 1.93334,2.471 0.83447,-0.049 6.67429,-0.9381 10.14709,-1.545 4.16976,-0.7289 3.93538,-0.7745 5.31493,1.0353 0.50923,0.668 1.0103,1.3126 1.11348,1.4323 0.18236,0.2117 0.27021,0.173 3.12622,-1.3766 1.61623,-0.8769 2.9513,-1.6539 2.96683,-1.7268 0.0155,-0.073 -0.50544,-0.7023 -1.15771,-1.3987 -2.77636,-2.9641 -4.02001,-4.595 -9.50245,-12.4617 -2.77027,-3.975 -5.88176,-8.5874 -7.0847,-10.5021 -0.59361,-0.9449 -1.29579,-2.0319 -1.56039,-2.4156 l -0.48112,-0.6977 m 36.32893,-20.9745 0.95894,1.8264 c 3.93647,7.4974 5.4655,15.637 4.34432,23.1262 -0.48046,3.2094 -1.84054,7.1168 -3.55043,10.2001 -2.82315,5.0909 -7.64684,10.5033 -13.2262,14.8405 -3.08619,2.3991 -4.36103,3.228 -8.77767,5.7071 -6.79722,3.8155 -7.89506,4.477 -8.6264,5.1975 -0.35563,0.3504 -1.28172,1.561 -2.05795,2.6901 -3.64819,5.3068 -7.27229,9.751 -9.15003,11.2204 -0.83862,0.6563 -3.03108,1.6872 -4.48586,2.1094 -1.41334,0.4101 -3.77407,0.6204 -5.48008,0.4881 -1.4533,-0.1126 -5.0146,-1.0095 -6.6468,-1.674 -1.27429,-0.5187 -3.60366,-1.5382 -9.22559,-4.0378 -2.18386,-0.9709 -4.04099,-1.7868 -4.12697,-1.8132 -0.086,-0.026 -0.0391,1.8956 0.10416,4.2708 0.14327,2.3753 0.21889,4.3427 0.16805,4.372 m -32.42915,0.02 c -0.0653,-0.019 -1.00712,-1.4877 -2.09286,-3.2638 -1.37751,-2.2535 -2.03,-3.2311 -2.15919,-3.2353 -0.36912,-0.012 -4.17708,0.5289 -4.18774,0.5947 -0.006,0.037 0.25654,0.7721 0.58345,1.6331 l 0.5944,1.5655 0.98011,-0.1479 0.98011,-0.1478 0.87454,1.5147 0.87453,1.5148 m -7.4868,0.01 -0.59307,-1.0272 c -0.32619,-0.565 -0.5709,-1.0401 -0.54382,-1.0557 0.0271,-0.016 0.59283,-0.097 1.25719,-0.1796 0.66435,-0.083 1.23895,-0.1691 1.27688,-0.191 0.0379,-0.022 -0.14531,-0.5657 -0.40718,-1.2085 -0.26186,-0.6428 -0.51491,-1.2967 -0.56231,-1.453 -0.0791,-0.261 -0.26067,-0.2475 -2.21974,0.1646 -2.60718,0.5484 -2.69011,0.574 -2.81724,0.87 -0.0829,0.1931 0.0975,0.5964 0.96531,2.1576 l 1.0673,1.9201 m 14.40293,-20.0211 2.31961,4.1738 c 1.27579,2.2956 2.43543,4.2934 2.57698,4.4395 0.43368,0.4477 2.71155,0.5501 6.79948,0.3058 l 1.40257,-0.084 -0.78446,-1.3081 c -1.34051,-2.2354 -1.09774,-2.0784 -3.0898,-1.997 l -1.72873,0.071 -0.45576,-0.6823 c -0.25067,-0.3753 -1.25081,-2.0317 -2.22255,-3.681 l -1.76678,-2.9988 m 15.66444,-55.553 0.37441,-1.5375 1.50132,0.3968 1.50133,0.3969 -0.36558,1.4859 -0.36558,1.4859 -1.51015,-0.3453 -1.51015,-0.3452 z m -1.29231,5.1753 0.33437,-1.4112 1.44819,0.3088 c 0.7965,0.1698 1.47886,0.3618 1.51636,0.4268 0.0375,0.065 -0.0968,0.769 -0.2984,1.5646 l -0.36659,1.4466 -1.437,-0.3805 c -0.79035,-0.2093 -1.45822,-0.4173 -1.48416,-0.4622 -0.0259,-0.045 0.10332,-0.7167 0.28723,-1.4929 z m -1.20591,5.2853 c 0.16758,-0.762 0.36758,-1.4218 0.44446,-1.4662 0.1681,-0.097 2.78548,0.5957 2.88194,0.7628 0.0372,0.064 -0.10037,0.7361 -0.30577,1.4925 l -0.37346,1.3754 -0.58128,-0.1231 c -1.22551,-0.2593 -2.30018,-0.5322 -2.33465,-0.5928 -0.0198,-0.035 0.10118,-0.6866 0.26876,-1.4486 z m 5.17729,11.4715 c 0.0592,-1.1674 1.13181,-8.1637 2.05816,-13.4249 0.43259,-2.4569 0.81452,-4.1664 1.02818,-4.6019 0.84162,-1.7158 2.61837,-3.1478 4.33663,-3.4954 2.12364,-0.4295 4.41388,-0.1869 8.27644,0.8766 l 1.72355,0.4745 -1.71839,2.5079 c -0.94512,1.3794 -1.76435,2.5331 -1.82053,2.5639 -0.0562,0.031 -1.48851,-0.057 -3.18297,-0.1942 -1.69446,-0.1376 -3.19353,-0.1851 -3.33127,-0.1056 -0.13775,0.079 -0.3158,0.2498 -0.39567,0.3784 -0.0799,0.1286 -0.4997,1.8634 -0.93293,3.8551 -1.9668,9.042 -2.09797,9.9104 -1.66367,11.0145 0.25802,0.656 0.55864,0.8542 1.68739,1.1123 l 0.87133,0.1993 -0.32922,1.8288 c -0.18107,1.0058 -0.38542,1.8612 -0.4541,1.9009 -0.0687,0.04 -0.65211,-0.014 -1.29649,-0.1187 -1.78067,-0.2899 -3.57068,-1.5117 -4.45259,-3.0392 -0.40911,-0.7086 -0.44743,-0.873 -0.40385,-1.7323 z m -6.35133,-6.3863 0.37018,-1.4538 1.50075,0.3696 1.50074,0.3697 -0.35957,1.4975 -0.35956,1.4976 -1.45844,-0.3219 c -0.80214,-0.177 -1.48225,-0.363 -1.51135,-0.4134 -0.0291,-0.05 0.11365,-0.7457 0.31725,-1.5453 z m -4.9075,-3.0177 c 0.69182,-4.0904 1.29226,-7.4766 1.3343,-7.5247 0.0977,-0.1119 1.82187,0.1428 1.90159,0.2809 0.0751,0.13 -2.4308,14.9745 -2.53707,15.029 -0.0428,0.022 -0.50058,-0.047 -1.01726,-0.154 l -0.93942,-0.194 z m 2.03765,37.7629 -1.39675,-2.5101 -1.39675,-2.51 -0.0946,-1.194 c -0.052,-0.6567 -0.1063,-1.9368 -0.12067,-2.8446 -0.0144,-0.9079 -0.0927,-1.7659 -0.17397,-1.9068 -0.0813,-0.1408 -0.71522,-0.9215 -1.40869,-1.7348 -1.37,-1.6067 -2.04697,-2.7649 -2.15799,-3.692 l -0.0612,-0.5109 0.44466,0.4456 c 2.67191,2.6775 3.32289,3.2211 8.95081,7.4739 l 2.98557,2.256 0.80754,1.2896 0.80753,1.2895 m 6.47814,-3.8572 c -0.18586,-0.3151 -1.74474,-1.8342 -2.47369,-2.4107 -2.49566,-1.9734 -6.85633,-4.3866 -9.234,-5.1102 -0.55981,-0.1704 -0.98073,-0.3312 -0.93538,-0.3574 0.31647,-0.1827 2.97822,0.2055 4.84291,0.7062 1.86809,0.5017 2.57955,0.7809 4.43545,1.7404 2.55487,1.321 4.79088,2.7305 5.52435,3.4825 l 0.51127,0.5242 m 12.73739,-7.3539 -0.50124,-0.6861 c -1.82897,-2.5032 -4.02818,-4.0335 -6.92551,-4.8191 l -1.33222,-0.3612 0.27093,-1.4864 c 0.14902,-0.8174 0.29678,-1.5343 0.32836,-1.593 0.0754,-0.1401 3.5109,0.8532 5.04808,1.4595 2.59212,1.0225 4.39472,2.4379 6.15404,4.8323 l 0.46298,0.6301 m 13.92925,-8.0421 -0.8709,-1.331 c -2.21021,-3.3778 -4.13144,-5.2826 -6.49129,-6.4357 -0.36237,-0.1771 -2.09514,-0.7218 -3.85063,-1.2104 -5.31879,-1.4805 -5.73939,-1.6901 -8.32393,-4.1487 -1.85632,-1.7658 -1.88282,-1.8315 -1.17321,-2.9097 0.45953,-0.6983 4.1495,-5.3111 6.41156,-8.0152 2.71604,-3.2467 2.63839,-3.0209 1.76085,-5.1205 -0.32392,-0.775 -0.63159,-1.5312 -0.68371,-1.6805 -0.0921,-0.2637 -0.0147,-0.3205 2.75528,-2.0191 1.56752,-0.9612 2.90802,-1.7289 2.9789,-1.7059 0.0709,0.023 0.35546,0.7889 0.6324,1.7019 1.17883,3.8865 1.96944,5.779 6.04096,14.4603 2.05733,4.3866 4.49602,9.3874 5.55275,11.3866 0.52146,0.9865 1.11176,2.1381 1.31176,2.5591 l 0.36365,0.7655 m 36.32891,-20.9745 -1.10224,-1.7437 c -4.52472,-7.1578 -10.80924,-12.5517 -17.85572,-15.3254 -3.01961,-1.1886 -7.08359,-1.9644 -10.60876,-2.0253 -5.8204,-0.1005 -12.91951,1.3707 -19.46531,4.034 -3.62076,1.4732 -4.97603,2.1628 -9.33138,4.7481 -6.7029,3.9789 -7.82465,4.5989 -8.81436,4.8719 -0.48128,0.1328 -1.99269,0.3296 -3.35868,0.4372 -6.41992,0.506 -12.08069,1.4226 -14.29214,2.314 -0.98768,0.3981 -2.97671,1.7814 -4.06968,2.8302 -1.06184,1.0189 -2.42432,2.9582 -3.16281,4.5018 -0.62911,1.3149 -1.63299,4.8475 -1.87365,6.5933 -0.18789,1.363 -0.46967,3.89 -1.11599,10.0085 -0.25107,2.3767 -0.47301,4.393 -0.49321,4.4806 -0.0202,0.088 -1.66113,-0.9139 -3.64653,-2.2256 -1.98539,-1.3117 -3.6514,-2.3608 -3.70224,-2.3315 m -16.2317,28.0746 c -0.0162,0.066 0.78486,1.6161 1.78014,3.4444 1.26278,2.3197 1.78321,3.3736 1.72221,3.4875 -0.17426,0.3256 -2.54652,3.3531 -2.60886,3.3294 -0.0352,-0.013 -0.54036,-0.6082 -1.12257,-1.3218 l -1.05855,-1.2975 0.61809,-0.7749 0.6181,-0.7749 -0.87454,-1.5148 -0.87454,-1.5147 m -3.75019,6.4798 0.59307,1.0273 c 0.32619,0.5649 0.61525,1.0144 0.64233,0.9988 0.0271,-0.016 0.37995,-0.4652 0.78413,-0.999 0.40417,-0.5338 0.76589,-0.9884 0.80382,-1.0103 0.0379,-0.022 0.41729,0.4087 0.84305,0.9569 0.42576,0.5482 0.86548,1.0942 0.97717,1.2135 0.18645,0.199 0.084,0.3495 -1.2524,1.84 -1.77855,1.9837 -1.84219,2.0427 -2.1621,2.0048 -0.20867,-0.025 -0.46771,-0.3826 -1.38588,-1.9148 l -1.12922,-1.8843 m 24.54028,-2.4628 -2.45481,-4.0957 c -1.35015,-2.2527 -2.50045,-4.2558 -2.55621,-4.4515 -0.17088,-0.5994 0.87933,-2.6233 3.1349,-6.0414 l 0.77388,-1.1728 0.74064,1.3335 c 1.26563,2.2786 1.25113,1.9899 0.18454,3.6743 l -0.92561,1.4618 0.36304,0.7358 c 0.19966,0.4047 1.13414,2.0991 2.07661,3.7653 l 1.71359,3.0295 m 2.57746,-63.1112 1.14433,-1.093 -1.09435,-1.1017 -1.09436,-1.1018 -1.10402,1.0595 -1.10401,1.0596 1.05404,1.1352 1.05404,1.1352 z m -3.83581,3.7069 1.05495,-0.9952 -0.99146,-1.0998 c -0.5453,-0.6049 -1.05282,-1.0998 -1.12781,-1.0998 -0.075,0 -0.61763,0.4683 -1.20584,1.0407 l -1.06948,1.0408 1.04804,1.0542 c 0.57642,0.5798 1.09047,1.0542 1.14235,1.0542 0.0519,0 0.56903,-0.4478 1.14925,-0.9951 z m -3.97421,3.6869 c 0.57612,-0.5261 1.04749,-1.0292 1.04749,-1.118 0,-0.1941 -1.90862,-2.1144 -2.10154,-2.1144 -0.0745,0 -0.58732,0.455 -1.1397,1.0111 l -1.00433,1.011 0.39718,0.4419 c 0.83737,0.9317 1.61103,1.7259 1.68075,1.7255 0.04,-3e-4 0.54403,-0.4309 1.12015,-0.9571 z m -12.52326,1.2521 c 0.98141,-0.635 6.50409,-5.062 10.59723,-8.4949 1.91145,-1.603 3.20089,-2.7885 3.47128,-3.1913 1.06508,-1.5868 1.41691,-3.8415 0.85875,-5.5033 -0.68985,-2.0539 -2.04503,-3.9161 -4.89733,-6.7294 l -1.27275,-1.2554 -1.31271,2.7422 c -0.72199,1.5081 -1.31154,2.7945 -1.31011,2.8585 0.001,0.064 0.79327,1.2608 1.75967,2.6595 0.96639,1.3986 1.75708,2.6731 1.75708,2.8321 0,0.1591 -0.0584,0.3984 -0.12988,0.5319 -0.0714,0.1335 -1.3639,1.3644 -2.87215,2.7355 -6.84716,6.2243 -7.53366,6.7721 -8.70702,6.948 -0.69711,0.1046 -1.01903,-0.057 -1.80695,-0.9052 l -0.60822,-0.6549 -1.41918,1.1995 c -0.78055,0.6597 -1.41918,1.2644 -1.41918,1.3437 0,0.079 0.33795,0.5579 0.75099,1.0635 1.1414,1.3971 3.09454,2.3364 4.85835,2.3364 0.81823,0 0.97974,-0.049 1.70213,-0.5164 z m 8.70635,2.3073 1.07395,-1.0475 -1.07049,-1.1149 -1.07049,-1.1148 -1.11715,1.0601 -1.11716,1.0602 1.00798,1.1021 c 0.55439,0.6062 1.05555,1.1022 1.11369,1.1022 0.0581,0 0.589,-0.4713 1.17967,-1.0474 z m 5.06714,2.7412 c 3.19653,-2.6444 5.82879,-4.8575 5.84946,-4.9179 0.048,-0.1406 -1.0346,-1.5064 -1.19404,-1.5064 -0.15019,0 -11.75289,9.5924 -11.74702,9.7117 0.002,0.048 0.29127,0.4098 0.64201,0.8039 l 0.63771,0.7166 z m -33.72242,17.1167 2.87215,-0.045 2.87215,-0.045 1.08128,-0.5151 c 0.5947,-0.2833 1.73044,-0.8763 2.52386,-1.3178 0.79342,-0.4415 1.57564,-0.8027 1.73826,-0.8027 0.16263,0 1.15566,0.1587 2.20674,0.3526 2.0765,0.383 3.41802,0.3902 4.27636,0.023 l 0.47306,-0.2024 -0.60822,-0.1623 c -3.65478,-0.9752 -4.45102,-1.2672 -10.94796,-4.0147 l -3.44658,-1.4576 -1.52055,-0.055 -1.52055,-0.055 m 0.10137,-7.5389 c 0.36579,0 2.46086,0.5939 3.32452,0.937 2.95687,1.1746 7.22715,3.7444 9.04262,5.4417 0.42744,0.3997 0.77717,0.6838 0.77717,0.6314 0,-0.3654 -1.66702,-2.4765 -3.03305,-3.841 -1.36852,-1.3669 -1.96602,-1.8435 -3.72495,-2.971 -2.42139,-1.5521 -4.7601,-2.7838 -5.77809,-3.043 l -0.70959,-0.1806 m 0,-14.7079 0.84475,0.091 c 3.08235,0.3323 5.50726,1.4717 7.63625,3.5881 l 0.97894,0.9731 1.15172,-0.9778 c 0.63345,-0.5378 1.18039,-1.0242 1.21543,-1.0809 0.0837,-0.1353 -2.4943,-2.614 -3.788,-3.642 -2.18155,-1.7336 -4.30866,-2.587 -7.26192,-2.9134 l -0.77717,-0.086 m 0,-16.0841 1.58813,0.089 c 4.03042,0.2252 6.64063,0.9366 8.81919,2.4037 0.33452,0.2253 1.6726,1.4536 2.97352,2.7296 3.94154,3.8659 4.33339,4.1254 7.75481,5.1344 2.45742,0.7247 2.52759,0.7148 3.10655,-0.4389 0.37493,-0.7471 2.5248,-6.2491 3.73553,-9.5601 1.45373,-3.9755 1.297,-3.7954 3.55409,-4.0852 0.83314,-0.107 1.64187,-0.2187 1.79719,-0.2481 0.27445,-0.052 0.28488,-0.1476 0.37094,-3.3957 0.0487,-1.8382 0.0433,-3.3829 -0.0121,-3.4328 -0.0553,-0.05 -0.8609,0.087 -1.79012,0.3033 -3.95518,0.9223 -5.98945,1.1839 -15.5434,1.9985 -4.82761,0.4116 -10.37779,0.8 -12.63746,0.8845 -1.11507,0.042 -2.40754,0.1062 -2.87215,0.1435 l -0.84475,0.068 m 0,-41.949 2.06119,0.083 c 8.46117,0.3397 16.27474,3.0852 22.20003,7.8008 2.53915,2.0208 5.24304,5.1524 7.05835,8.1749 2.99723,4.9903 5.27267,11.8739 6.2391,18.8744 0.53457,3.8723 0.61499,5.3908 0.5537,10.4553 -0.0943,7.7943 -0.0704,9.0757 0.18797,10.0694 0.12564,0.4832 0.71097,1.8905 1.30072,3.1273 2.77174,5.8128 4.80841,11.1734 5.14212,13.5343 0.14904,1.0545 -0.0544,3.4686 -0.41619,4.9396 -0.35151,1.429 -1.34975,3.5786 -2.31726,4.99 -0.8242,1.2022 -3.38161,3.8379 -4.77315,4.9192 -1.0864,0.8442 -3.134,2.3518 -8.1096,5.9708 -1.93279,1.4058 -3.56798,2.6061 -3.63376,2.6674 -0.0658,0.061 1.62202,0.9816 3.75069,2.0452 2.12866,1.0635 3.87029,1.9818 3.87029,2.0405 m -16.19745,28.0943 c -0.0491,0.047 -1.79199,0.1283 -3.873,0.1806 -2.64029,0.066 -3.81321,0.1425 -3.88141,0.2523 -0.19486,0.3137 -1.63055,3.8818 -1.57888,3.924 0.0292,0.024 0.7969,0.1638 1.70602,0.3112 l 1.65295,0.268 0.36202,-0.9227 0.36201,-0.9227 1.74908,0 1.74908,0 m -3.73661,6.4877 -1.18615,0 c -0.65238,0 -1.18614,-0.026 -1.18614,-0.057 0,-0.031 0.21287,-0.5617 0.47306,-1.1786 0.26018,-0.6169 0.47306,-1.1575 0.47306,-1.2013 0,-0.044 -0.56261,-0.157 -1.25023,-0.2516 -0.68763,-0.095 -1.3804,-0.2024 -1.53948,-0.2395 -0.2656,-0.062 -0.34471,0.1019 -0.96735,2.0046 -0.82863,2.5321 -0.84791,2.6167 -0.65514,2.8748 0.12575,0.1684 0.56521,0.2138 2.35119,0.2428 l 2.19653,0.036 m -10.13736,-22.4839 4.77443,0.078 c 2.62594,0.043 4.93587,0.037 5.13318,-0.012 0.60456,-0.1517 1.83222,-2.0732 3.66459,-5.7356 l 0.62868,-1.2566 -1.52509,0.025 c -2.60615,0.043 -2.34888,-0.089 -3.27434,1.6773 l -0.80313,1.5325 -0.81879,0.054 c -0.45034,0.029 -2.38496,0.067 -4.29916,0.084 l -3.48037,0.031 m -40.27812,-41.3423 -1.14433,-1.093 1.09435,-1.1017 1.09436,-1.1018 1.10401,1.0595 1.10402,1.0596 -1.05404,1.1352 -1.05404,1.1352 z m 3.83581,3.7069 -1.05495,-0.9952 0.99146,-1.0998 c 0.5453,-0.6049 1.05281,-1.0998 1.12781,-1.0998 0.075,0 0.61763,0.4683 1.20584,1.0407 l 1.06948,1.0408 -1.04804,1.0542 c -0.57642,0.5798 -1.09047,1.0542 -1.14235,1.0542 -0.0519,0 -0.56903,-0.4478 -1.14925,-0.9951 z m 3.97421,3.6869 c -0.57612,-0.5261 -1.04749,-1.0292 -1.04749,-1.118 0,-0.1941 1.90862,-2.1144 2.10154,-2.1144 0.0745,0 0.58732,0.455 1.1397,1.0111 l 1.00432,1.011 -0.39717,0.4419 c -0.83737,0.9317 -1.61104,1.7259 -1.68075,1.7255 -0.04,-3e-4 -0.54403,-0.4309 -1.12015,-0.9571 z m 12.52326,1.2521 c -0.98142,-0.635 -6.50409,-5.062 -10.59723,-8.4949 -1.91145,-1.603 -3.20089,-2.7885 -3.47128,-3.1913 -1.06508,-1.5868 -1.41691,-3.8415 -0.85875,-5.5033 0.68985,-2.0539 2.04503,-3.9161 4.89733,-6.7294 l 1.27275,-1.2554 1.31271,2.7422 c 0.72199,1.5081 1.31154,2.7945 1.31011,2.8585 -0.001,0.064 -0.79327,1.2608 -1.75967,2.6595 -0.96639,1.3986 -1.75708,2.6731 -1.75708,2.8321 0,0.1591 0.0584,0.3984 0.12988,0.5319 0.0714,0.1335 1.3639,1.3644 2.87215,2.7355 6.84716,6.2243 7.53366,6.7721 8.70702,6.948 0.69711,0.1046 1.01903,-0.057 1.80695,-0.9052 l 0.60822,-0.6549 1.41918,1.1995 c 0.78055,0.6597 1.41918,1.2644 1.41918,1.3437 0,0.079 -0.33795,0.5579 -0.751,1.0635 -1.14139,1.3971 -3.09453,2.3364 -4.85834,2.3364 -0.81823,0 -0.97974,-0.049 -1.70213,-0.5164 z m -8.70635,2.3073 -1.07395,-1.0475 1.07049,-1.1149 1.07049,-1.1148 1.11715,1.0601 1.11716,1.0602 -1.00798,1.1021 c -0.55439,0.6062 -1.05555,1.1022 -1.11369,1.1022 -0.0582,0 -0.589,-0.4713 -1.17967,-1.0474 z m -5.06714,2.7412 c -3.19653,-2.6444 -5.82879,-4.8575 -5.84946,-4.9179 -0.048,-0.1406 1.0346,-1.5064 1.19404,-1.5064 0.15019,0 11.75289,9.5924 11.74702,9.7117 -0.002,0.048 -0.29127,0.4098 -0.64201,0.8039 l -0.63771,0.7166 z m 33.72242,17.1167 -2.87215,-0.045 -2.87215,-0.045 -1.08128,-0.5151 c -0.5947,-0.2833 -1.73044,-0.8763 -2.52386,-1.3178 -0.79342,-0.4415 -1.57564,-0.8027 -1.73827,-0.8027 -0.16262,0 -1.15565,0.1587 -2.20673,0.3526 -2.0765,0.383 -3.41802,0.3902 -4.27636,0.023 l -0.47306,-0.2024 0.60822,-0.1623 c 3.65478,-0.9752 4.45102,-1.2672 10.94796,-4.0147 l 3.44658,-1.4576 1.52055,-0.055 1.52055,-0.055 m -0.10137,-7.5389 c -0.36579,0 -2.46086,0.5939 -3.32452,0.937 -2.95687,1.1746 -7.22716,3.7444 -9.04262,5.4417 -0.42744,0.3997 -0.77717,0.6838 -0.77717,0.6314 0,-0.3654 1.66702,-2.4765 3.03305,-3.841 1.36852,-1.3669 1.96602,-1.8435 3.72495,-2.971 2.42139,-1.5521 4.7601,-2.7838 5.77809,-3.043 l 0.70959,-0.1806 m 0,-14.7079 -0.84475,0.091 c -3.08235,0.3323 -5.50726,1.4717 -7.63625,3.5881 l -0.97894,0.9731 -1.15172,-0.9778 c -0.63345,-0.5378 -1.18039,-1.0242 -1.21543,-1.0809 -0.0837,-0.1353 2.4943,-2.614 3.788,-3.642 2.18155,-1.7336 4.30866,-2.587 7.26192,-2.9134 l 0.77717,-0.086 m 0,-16.0841 -1.58813,0.089 c -4.03042,0.2252 -6.64063,0.9366 -8.81919,2.4037 -0.33452,0.2253 -1.6726,1.4536 -2.97352,2.7296 -3.94154,3.8659 -4.33339,4.1254 -7.75481,5.1344 -2.45742,0.7247 -2.52759,0.7148 -3.10655,-0.4389 -0.37493,-0.7471 -2.5248,-6.2491 -3.73553,-9.5601 -1.45373,-3.9755 -1.297,-3.7954 -3.55409,-4.0852 -0.83314,-0.107 -1.64187,-0.2187 -1.79719,-0.2481 -0.27445,-0.052 -0.28488,-0.1476 -0.37094,-3.3957 -0.0487,-1.8382 -0.0433,-3.3829 0.0121,-3.4328 0.0553,-0.05 0.8609,0.087 1.79012,0.3033 3.95518,0.9223 5.98945,1.1839 15.5434,1.9985 4.82761,0.4116 10.37779,0.8 12.63746,0.8845 1.11507,0.042 2.40754,0.1062 2.87215,0.1435 l 0.84475,0.068 m 0,-41.949 -2.06119,0.083 c -8.46117,0.3397 -16.27474,3.0852 -22.20003,7.8008 -2.53915,2.0208 -5.24304,5.1524 -7.05835,8.1749 -2.99723,4.9903 -5.27267,11.8739 -6.2391,18.8744 -0.53457,3.8723 -0.61499,5.3908 -0.5537,10.4553 0.0943,7.7943 0.0704,9.0757 -0.18797,10.0694 -0.12564,0.4832 -0.71097,1.8905 -1.30072,3.1273 -2.77174,5.8128 -4.80841,11.1734 -5.14212,13.5343 -0.14904,1.0545 0.0544,3.4686 0.41619,4.9396 0.35151,1.429 1.34975,3.5786 2.31726,4.99 0.8242,1.2022 3.38161,3.8379 4.77315,4.9192 1.0864,0.8442 3.134,2.3518 8.1096,5.9708 1.93279,1.4058 3.56798,2.6061 3.63376,2.6674 0.0658,0.061 -1.62203,0.9816 -3.75069,2.0452 -2.12866,1.0635 -3.87029,1.9818 -3.87029,2.0405 m 16.19745,28.0943 c 0.0491,0.047 1.79198,0.1283 3.873,0.1806 2.64029,0.066 3.81321,0.1425 3.88141,0.2523 0.19486,0.3137 1.63055,3.8818 1.57888,3.924 -0.0292,0.024 -0.7969,0.1638 -1.70602,0.3112 l -1.65295,0.268 -0.36202,-0.9227 -0.36201,-0.9227 -1.74908,0 -1.74908,0 m 3.73661,6.4877 1.18615,0 c 0.65238,0 1.18614,-0.026 1.18614,-0.057 0,-0.031 -0.21288,-0.5617 -0.47306,-1.1786 -0.26018,-0.6169 -0.47306,-1.1575 -0.47306,-1.2013 0,-0.044 0.56261,-0.157 1.25023,-0.2516 0.68763,-0.095 1.3804,-0.2024 1.53948,-0.2395 0.2656,-0.062 0.34471,0.1019 0.96735,2.0046 0.82863,2.5321 0.84791,2.6167 0.65514,2.8748 -0.12575,0.1684 -0.56521,0.2138 -2.35119,0.2428 l -2.19653,0.036 m 10.13736,-22.4839 -4.77443,0.078 c -2.62594,0.043 -4.93587,0.037 -5.13318,-0.012 -0.60457,-0.1517 -1.83222,-2.0732 -3.66459,-5.7356 l -0.62868,-1.2566 1.52509,0.025 c 2.60615,0.043 2.34888,-0.089 3.27434,1.6773 l 0.80313,1.5325 0.81879,0.054 c 0.45034,0.029 2.38496,0.067 4.29916,0.084 l 3.48037,0.031"
     inkscape:connector-curvature="0"
     inkscape:transform-center-x="4.7232694"
     inkscape:transform-center-y="4.7232694" />
</svg>
