<?xml version="1.0" encoding="UTF-8" standalone="no"?>
<!-- Created with Inkscape (http://www.inkscape.org/) -->

<svg
   xmlns:dc="http://purl.org/dc/elements/1.1/"
   xmlns:cc="http://creativecommons.org/ns#"
   xmlns:rdf="http://www.w3.org/1999/02/22-rdf-syntax-ns#"
   xmlns:svg="http://www.w3.org/2000/svg"
   xmlns="http://www.w3.org/2000/svg"
   xmlns:sodipodi="http://sodipodi.sourceforge.net/DTD/sodipodi-0.dtd"
   xmlns:inkscape="http://www.inkscape.org/namespaces/inkscape"
   id="svg4194"
   version="1.1"
   inkscape:version="0.91 r"
   width="1023"
   height="996"
   viewBox="0 0 1023 996"
   sodipodi:docname="Rose-ornament.svg">
  <sodipodi:namedview
     pagecolor="#ffffff"
     bordercolor="#666666"
     borderopacity="1"
     objecttolerance="10"
     gridtolerance="10"
     guidetolerance="10"
     inkscape:pageopacity="0"
     inkscape:pageshadow="2"
     inkscape:window-width="1410"
     inkscape:window-height="774"
     id="namedview4196"
     showgrid="false"
     inkscape:zoom="0.59884852"
     inkscape:cx="511.5"
     inkscape:cy="498"
     inkscape:window-x="0"
     inkscape:window-y="0"
     inkscape:window-maximized="0"
     inkscape:current-layer="svg4194" />
  <metadata
     id="metadata4200">
    <rdf:RDF>
      <cc:Work
         rdf:about="">
        <dc:format>image/svg+xml</dc:format>
        <dc:type
           rdf:resource="http://purl.org/dc/dcmitype/StillImage" />
        <dc:title></dc:title>
      </cc:Work>
    </rdf:RDF>
  </metadata>
  <defs
     id="defs4198" />
  <path
     id="path4749"
     style="fill:none;stroke:#00ff00;stroke-width:6.41961241;stroke-linecap:round;stroke-opacity:1"
     d="m 321.99039,283.29167 c 7.069,-0.419 13.944,1.356 20,-3 l 15,17 c -9.276,4.95 -25.487,0.127 -35,-3.001 -22.493,-7.395 -47.069,-18.91 -71,-19.96 -8.78,-0.385 -18.576,-0.251 -27,2.481 -3.31,1.073 -8.274,4.396 -11.57,1.833 -5.224,-4.061 -6.484,-18.2 -7.893,-24.353 -5.247,-22.917 -8.122,-48.495 12.467,-65.192 15.397,-12.486 34.712,-19.462 51.996,-28.723 10.977,-5.882 19.784,-14.863 32,-18.649 17.579,-5.448 37.784,-0.081 54,-9.9 13.965,-8.456 23.839,-22.583 36,-33.249998 14.918,-13.086 32.561,-22.6553 49,-33.641 14.222,-9.5044 25.089,-18.8283 43,-19.6056 26.694,-1.1586 55.281,16.3487 70.96,36.9606 10.867,14.286 17.778,31.145998 27.789,45.999998 7.567,11.227 19.163,17.478 31.251,22.861 3.045,1.356 8.995,5.732 12.427,3.926 3.754,-1.974 5.287,-16.393 8.573,-20.787 m -57,-14 c 14.326,-12.891 47.858,-33.129998 68,-26.058998 13.3,4.668 23.18,19.213998 37,21.439998 16.453,2.65 33.344,-6.461 49,-9.573 13.952,-2.773 28.007,0.232 40.99996,5.396 7.032,2.794 13.045,7.071 19,11.684 22.959,17.783 24,44.523 24,71.112 0,11.193 -1.324,23.367 2.93,34 8.707,21.769 32.888,35.376 39.63,58 2.37,7.951 1.743,16.188 -0.754,24 -1.027,3.21 -5.116,9.357 -3.565,12.682 1.924,4.126 13.048,1.319 16.759,1.318 16.005,-0.006 32.9,0.492 48,6.478 48.864,19.37 59.961,78.604 52.866,125.522 -3.735,24.696 -18.754,45.401 -38.866,59.561 -18.999,13.375 -42.231,22.438 -54.384,43.439 -18.054,31.195 -0.917,69.764 -33.616,94.764 -16.09,12.301 -37.161,16.235 -57,16.236 -4.672,0 -23.52696,-2.693 -26.05196,1.343 -2.23,3.561 3.896,7.414 6.053,9.247 9.20396,7.822 17.95096,16.679 25.11496,26.41 19.176,26.049 23.722,64.051 1.558,89.985 -15.967,18.685 -40.35196,12.114 -59.67396,23.248 -22.034,12.697 -32.773,51.007 -62,49.728 -27.634,-1.21 -47.017,-32.061 -76,-26.5 -23.557,4.52 -35.283,33.787 -59,36.365 -30.495,3.316 -59.029,-22.345 -89,-12.609 -15.112,4.909 -23.903,18.639 -36,27.74 -11.036,8.302 -29.48,11.252 -43,8.529 -38.36,-7.725 -69.977,-45.163 -79.105,-81.486 -6.267,-24.94 -6.014,-52.918 -22.564,-74 -4.317,-5.499 -11.373,-16.331 -18.331,-18.408 -6.997,-2.089 -21.09,2.411 -29,2.408 -21.178,-0.008 -43.943,-6.011 -61,-18.76 -16.117,-12.047 -34.997,-36.912 -34.545,-58.24 0.339,-15.956 9.003,-34.674 2.196,-50 -9.929,-22.358 -37.7146,-28.991 -46.837,-53 -5.5743,-14.671 -2.2794,-31.106 -7.5131,-46 -13.9644,-39.739 -52.0417,-80.966 -19.7029,-122.996 9.4712,-12.31 25.9167,-15.432 40.402,-17.577 4.352,-0.644 16.796,0.221 18.744,-4.641 1.496,-3.735 -4.422,-7.357 -6.351,-9.801 -3.851,-4.877 -6.217,-11.811 -6.378,-17.985 -0.482,-18.438 14.104,-26.695 17.441,-43 2.431,-11.88 -8.266,-20.371 -3.387,-33 4.198,-10.867 12.386,-19.689 17.672,-30 5.558,-10.843 9.223,-22.65 15.803,-33 17.519,-27.557 44.358,-36 75.456,-36 10.96,0 29.391,-2.281 38,5 m 182,-67.999998 12.245,40.999998 2.755,25 c 16.358,-12.418 17,-34.496 17,-54 m 17,9 -10,30 c 5.796,0 17.584,2.587 22.61,0.382 6.901,-3.028 10.28,-20.784 12.39,-27.382 m -11,-3 c -0.226,10.629 -6.024,18.998 -11,28 m 40,-22 c -1.781,13.218 -9.755,19.714 -17,30 4.795,3.447 14.532,9.472 15.232,15.999 0.383,3.564 -3.867,6.272 -6.227,8.232 -6.921,5.75 -11.218,12.983 -17.005,19.769 l -10,-33 m 234,-39 1,0 m 7,17 c -13.416,3.808 -27.552,7.982 -40,14.374 -4.877,2.505 -8.227,8.436 -13.089,10.298 -3.266,1.251 -15.699,-1.145 -18.213,-3.66 -4.321,-4.322 7.544,-13.023 10.302,-15.112 14.75,-11.173 32.967,-18.168 51,-21.9 m -55,7 c -7.689,5.927 -17.184,10.724 -22.656,19.001 -1.725,2.609 -4.007,8.495 -0.741,10.957 3.083,2.323 10.419,-0.131 14.397,1.042 m -235,-30 c 4.269,5.595 8.73,12.093 10.485,19 2.531,9.963 1.213,21.103 8.515,29 l 5,-19 m 193,-29 -10.005,14 -4.143,13.532 -15.852,6.932 -21,13.536 c 5.66,8.348 0.875,18.672 -9,21.637 -4.417,1.327 -9.758,-1.106 -11.852,4.422 -3.763,9.936 3.318,20.782 0.002,30.941 -1.861,5.701 -6.752,13.399 -13.15,10 -3.729,10.926 -20.815,9.015 -29,4 9.555,-12.542 11.321,-17.468 11,-33 m -4,-84 -17,23 m 46,-15 c -5.218,6.031 -9.807,11.776 -10,20 l -27,6 m 26,-24 -10,18 m -81,-13 11,-3 m 26,1 11,3 m 29,-3 -14,17 m -111,-15 c 8.332,12.752 10,26.132 10,41 l -49,4 1,-34 m 195,-10 -8,9 m -158,-6 c 4.904,12.712 5.052,21.669 4,35 m 211,-32 7,4 m 134,11 -28.999,5.479 -10.13,7.527 -14.871,-7.006 c 8.617,-10.575 21.208,-16.644 34,-21 m -349,3 -1,30 m 186,-29 c -8.229,8.878 -11.422,4.798 -22,3 m 75,-2 13,1 m -58,5 -6,6 -8,-5 m 112,-1 24,10 m -203,-8 4,18 m 4,-18 0,9 m -31,-5 c 3.717,10.918 7.867,27.095 15,36 l 6,-14 m 78,-22 10,6 m -234,-3 -0.448,27.961 -8.672,9.75 -8.88,14.289 -20,-35 m 126,-13 c -0.375,13.829 -9.084,11.81 -19,11 m -87,-6 7,27 m 100,-27 c 3.182,5.972 1.245,12.563 -6,8 m 284,-8 c 10.952,7.962 18.629,14.523 26,26 l 12,-4 m -288,-21 c 9.493,11.138 14.094,24.86 16.84,39 0.977,5.028 -1.87,13.068 1.478,17.397 2.62,3.387 7.448,-0.044 10.682,-0.003 3.825,0.049 6.892,3.624 10.83,3.104 8.353,-1.103 13.137,-13.502 14.17,-20.498 m 16,-28 -5,-8 9,0 2,9 m -46,42 c 9.835,-14.591 15.373,-47.094 35,-51 m 9,0 c 5.887,0.941 7.06,3.284 7,9 m 196,-8 1,0 m -12,7 9,-6 m -217,1 10,8 m 15,-8 6,4 -2,6 m 104,5 c -24.289,-4.509 -46.459,2.335 -67,15 -11.781,-16.199 25.312,-25.527 36,-28 m -275,10 16,-9 m 73,0 c 15.318,28.265 -23.304,41.189 -32.323,62 -2.766,6.382 -4.156,14.048 -3.777,21 0.153,2.782 1.729,7.28 -1.233,9.172 -3.837,2.452 -15.258,-5.125 -19.667,-6.172 m 173,-85 4,3 -3,4 m -38,-6 10,6 m 31,-4 5,3 m -384,-2 7,8 m 387,-4 11,11 m -419,-10 20,12 m 301,-7 -4,13 m 258,-12 0.029,14.678 8.971,1.411 22.99996,0.911 m -476.99996,-16 27,37 7,-21 m 129,-13 21,35 2,-5 m -72,-29 11,23 m 8,-23 2,14 m -8,-13 3,16 m -279,-14 c 14.784,0.305 23.95,8.601 37,13 m 74,-13 1,0 m 2,1 c 17.337,2.56 31.041,13.853 42.961,26.015 3.355,3.423 11.435,17.644 16.736,16.948 3.842,-0.505 2.303,-11.238 2.303,-13.963 m 78,-29 13,25 m 124,-24 c 1.873,7.24 3.38,15.074 -0.417,21.996 -2.239,4.08 -6.002,6.552 -7.583,11.004 m 61,-31 6,11 c 23.912,-18.961 52.045,-11.18 79,-5 m -282,-6 1,1 m 130,0 c -0.033,11.844 -5.577,15.882 -12,25 l 7,2 m -124,-25 14,23 m 330,-23 -24.286,29.525 -53.714,40.475 c 8.979,8.036 29.277,-5.912 40,-8.848 30.755,-8.421 63.58396,-12.974 94.99996,-18.537 9.743,-1.725 24.7,1.746 33,-2.615 m -285.99996,-36 -4,23 m 138,-23 1,0 m -288,2 16,22 m 43,-22 c 7.714,5.525 16.175,10.39 22.995,17.039 1.729,1.686 8.067,7.843 2.838,9.515 -2.851,0.911 -6.405,-2.1 -8.833,-3.231 -5.681,-2.645 -11.745,-4.193 -18,-4.323 m 101,-18 -1,14 m 5,-14 2,13 m 41,-11 4,10 c 14.523,-11.933 38.587,-4.614 55,0 m -270,-7 18,27 m 325,-22 c 7.889,6.672 21.159,4 30.99996,4 m -158.99996,-2 2.318,6.972 13.682,2.456 20,9.572 m -486,-15 21,-2.906 15,0.906 m 320,-1 6,2 m -137,0 c 12.003,4.999 18.318,12.902 27,22 m 76,-19 0,2 m 121,-1 17,21 m -16,-18 c -5.348,8.29 -14.275,12.276 -9,22 m 125,-21 29,5 m -466,-4 c 9.398,1.267 18.949,5.096 27,10.065 3.46,2.135 9.563,8.448 13.852,7.902 4.459,-0.568 2.798,-7.228 2.148,-9.967 m -133,-7 c -5.639,4.056 -12.568,2.731 -19,5.093 -12.478,4.584 -21.989,15.934 -27,27.907 m 335,-31 c 1.027,13.648 13.391,16.42 23,22 l 1,20 m -128,-38 27,13 m 77,-12 -23,9 m 141,-9 9,12 m 94,-9 c 8.628,8.276 29.999,5 42,5 m -549,-4 c -6.27,4.797 -13.83,7.198 -19.961,12.465 -12.298,10.564 -13.039,24.552 -13.039,39.535 m 440,-21 -7,11 c -7.996,-9.657 -25.302,-36.37 -5,-42 m -52,25 c -0.064,-3.022 -1.814,-7.862 -0.647,-10.621 1.264,-2.991 6.069,-4.876 8.647,-6.545 9.394,-6.08 26.033,-11.004 36,-3.834 m -20,-2 0,10 m 138,-10 6,3 m -218,0 -6,14 m -156,-13 3,3 m 147,11 c 1.286,-6.652 1.323,-11.299 9,-12 m 68,1 1,4 m -89,12 c 1.896,-9.193 2.527,-12.589 12,-15 m 16,0 c 0.045,16.295 4.112,43.482 -8,56 l 7,3 0,-7 m -294,-51 c -4.656,9.998 -11.903,16.552 -14.331,28 -1.459,6.882 2.988,17.039 -1.157,22.91 -4.443,6.294 -12.768,9.068 -19.512,11.94 -18.138,7.726 -43.101,18.553 -63,17.15 m 446,-79 0,9 m -62,45 -55,-28 c 4.565,-3.958 10.173,-5.393 14.996,-8.928 7.556,-5.538 13.291,-14.14 23.004,-16.072 m 6,0 c -3.265,6.518 -3.686,12.917 -2,20 m 33,-20 c 10.14,2.318 21,5.275 31,1 m -25,1 2,21 m -52,-19 5,22 m 55,-22 0,15 m 7,-15 1,11 m -122,-10 c 7.386,10.453 9.128,18.209 23,20 m 25,-18 3,11 m -69,-8 16,4 m 44,-1 5,13 m 179,106 c 0.081,-9.843 5.023,-23.504 2.806,-32.895 -0.844,-3.577 -4.905,-4.777 -7.806,-6.263 -9.171,-4.698 -18.46,-6.719 -28,-1.324 -13.587,7.683 -18.323,25.196 -27.093,37.312 -8.026,11.088 -20.203,17.91 -29.907,27.17 -3.871,-5.593 -2.107,-10.694 -3.514,-17 -1.365,-6.116 -7.625,-14.485 -5.811,-20.83 2.904,-10.156 17.416,-20.78 25.286,-27.009 25.172,-19.923 52.446,-35.777 79.039,-53.516 10.411,-6.945 18.003,-15.773 27,-23.645 m -319,1 49,5.282 21,0.718 m 195,-6 -10.326,20 9.326,17 m 53,-37 6,4 m -223,-1 1,4 m 148,-4 -3,4 m -70,-1 0,2 m 140,-1 5,-2 m -86,2 c 7.407,10.372 17.696,23.991 19,37 m 15,-36 -11,18 m -29,-16 c 6.786,11.627 15.804,25.307 17,39 m 4,-34 2,3 m -28,-2 11,43 m 39,-40 -12,13 m -51,-10 3.83,29 3.17,20 m -1,-48 3.826,20 3.174,23 m -61,-41 c -2.632,8.23 -6.433,24.727 -3.106,33 2.588,6.438 8.528,11.068 11.73,17.089 4.919,9.248 8.682,19.764 15.376,27.911 m 306.99996,-78 c -11.081,15.253 -16.889,31.603 -33,42.957 -9.28,6.54 -18.207,5.003 -27.961,8.643 -5.367,2.002 -11.029,8.442 -15.039,12.404 -8.08496,7.989 -15.01996,16.647 -19.87996,26.996 -3.7,7.879 -4.776,17.014 -10.12,24 l -5.514,-20 -7.486,-20 m -78,39 c 3.159,-17.015 -1.849,-37.977 7.499,-53.698 2.003,-3.367 7.552,-4.725 10.497,-7.407 8.561,-7.796 17.203,-16.034 24.704,-24.895 7.523,-8.888 10.26,-35.803 26.3,-23 -6.876,7.538 -11.317,17.19 -14,27 m -410,12 c -5.379,-15.901 -15.022,-25.428 -24,-39 14.005,-4.131 34.802,2.162 49,4.536 4.227,0.707 11.075,-0.727 14.53,2.078 13.621,11.06 19.333,34.781 19.47,51.386 m 201,-59 2.985,24 2.015,26 m -261,58 c 0,-40.407 -10.153,-73.172 -37,-104 l 9,-3 m 12,0 c 21.119,30.727 31,61.575 31,99 m 406,-99 30,33 -14,12 m -442,-43 10.073,15 9.927,24 m 48,3 c -3.14,-15.172 -11.032,-27.027 -19,-40 9.69,-4.562 13.957,11.138 24,12.903 16.003,2.812 32.392,-14.734 46.996,-9.3 10.547,3.925 10.792,20.352 13.047,29.397 2.552,10.238 8.171,18.049 15.957,24.816 6.801,5.91 16.201,9.132 25,10.719 4.609,0.832 10.617,-0.148 14.737,2.478 6.312,4.024 8.714,16.38 11.263,22.987 m -301,-95 c 11.085,13.389 20.76,21.792 39,13.802 4.974,-2.179 18.865,-11.742 23.91,-10.356 10.622,2.919 19.267,25.372 23.09,34.554 m -22,-36 5,-2 m 41,0 c 2.193,8.523 9.036,15.871 12.576,24 7.097,16.301 10.412,34.202 10.424,52 m -12,-75 16,40 m 5,-38 8,-2 m -21,2 c 2.004,8.533 8.771,15.735 11.935,24 5.017,13.106 5.778,28.082 6.065,42 m 198,-66 4.576,43 2.424,17 m -216,-59 16,33 m 205,-32 2,47 m 174,-47 c -14.511,14.634 -24.375,38.007 -29,58 m -169,-56 c -0.006,9.646 0.614,23.399 -4,32 m -277,-31 c 6.78,8.326 14.01,15.692 19.547,25 17.319,29.113 20.453,60.961 20.453,94 m 109,-119 c 8.866,10.253 13.008,22.947 16,36 m 89,-35 9,13 m -268,-12 19,35 m 123,-32 12,30 m -27,-28 11,31 m -148,-30 c 2.513,9.97 9.533,26.3 15.417,34.766 2.113,3.041 6.346,3.408 8.823,6.344 8.519,10.098 14.103,23.052 16.76,35.89 m 423,-77 c 3.679,8.251 -5.252,21.847 -6,31 m 44,-31 c -23.216,20.282 -29.296,47.695 -33,77 m 43,-68 c -12.453,11.47 -25.312,21.94 -32,38 m 39,-33 11,7 -19,14 m 11,-17 -21,17 m -51,-16 -4,29 m 0,-28 3,3 m 82,-2 19.99996,7 m -13,-3 -26.99996,24 m -124,-23 c -6.591,18.139 -9.946,36.501 -10,56 m 63,-56 0.086,17 -2.086,34 m 104.99996,-50 -19.99996,20 m -147,-18 -3,13 m 27,-12 c -5.425,20.293 -5.105,41.143 -6,62 m 18,-58 13,1 m -223,1 3,26 m -188,-24 8.982,60 0.978,58 1.04,27 c -8.123,3.045 -18.984,-10.884 -26,-14.982 -16.845,-9.841 -40.64,-14.618 -60,-15.018 m 430,-109 0,3 m -12,0 c 5.486,10.279 2.074,29.268 3,41 m 203.99996,1 c -13.834,10.978 -27.087,21.224 -38.38396,35 -8.172,9.964 -13.414,23.343 -24.616,30 -1.353,-6.104 -0.504,-18.334 2.988,-23.787 2.952,-4.609 8.15,-7.189 11.215,-12.213 19.09996,-31.307 44.08596,-57.533 78.79696,-71 m -374.99996,3 10,31 m 4,-27 14,30 m 3,-29 c 8.928,0 18.456,-0.299 27,2.765 4.931,1.768 7.036,8.613 12,6.235 l -4,-1 m -19,-7 9,33 m -301,-32 c 9.236,4.916 19.254,9.973 27,17.093 6.18,5.681 11.62,14.701 20,16.907 m 482,-31 0,2 m -214,2 c 9.786,9.883 11,30.161 11,44 m 204,-44 -1,16 m -217,-13 5,22 m 55,-21 c 0.039,14.048 3.921,28.869 11,41 m -334,-38 c 6.318,5.552 8.155,16.024 10,24 m 265,-22 c 4.097,4.492 6.592,10.988 13,12 m 25,-10 1,15 m -77,-9 0,1 m 69,1 0,16 m -21,-14 c -5.472,6.475 -3,14.946 -3,23 m 189,-22 4,27 c 9.153,1.46 2.834,9.942 6,16 m -587,-33 c 25.676,-11.047 52.209,-3.763 75,10.425 9.2,5.727 19.292,16.444 30,18.575 m 484,-34 -2,22 m -189,-21 c 1.981,9.571 5.292,24.022 11.247,31.852 2.264,2.977 5.829,3.159 8.583,5.465 6.393,5.353 11.826,12.141 18.17,17.683 m 140,-54 3,15 m -12,53 c 1.944,9.418 3.672,21.59 10,29 5.028,-11.344 13.038,-15.584 21.13,-25 26.20196,-30.487 62.95496,-56.761 102.86996,-65 m -593.99996,8 c 6.916,2.052 7.995,10.84 10,17 m 463,-11 5,9 m -13,-5 c 1.38,10.687 2.736,25.826 10,34 m -31,-30 c 0,39.949 -6.789,82.08 -22.579,119 -5.099,11.924 -22.674,32.366 -12.421,43 -6.424,3.865 -9.498,0.443 -6,-6 m -99,-151 4.317,22.698 7.165,5.53 13.518,17.772 m -361,-43 30,17 m 35,-16 c 0,35.677 -5.078,73.466 -0.714,109 2.486,20.244 15.184,37.43 17.714,57 -14.169,-1.168 -14.731,-15.308 -25.439,-21.317 -26.641,-14.951 -65.251,-11.934 -86.561,9.317 m -78,-127 c 28.342,-21.785 62.637,-34.179 97,-18.688 14.218,6.409 27.202,21.131 42,24.688 m 464,-31 5.316,31 4.684,13 m -430,-27 c 0.004,39.159 2.308,78.923 16.424,116 4.941,12.976 11.357,25.357 18.919,37 2.695,4.148 9.448,11.529 8.423,16.852 -0.7,3.638 -5.114,2.817 -7.766,3.735 -5.462,1.891 -11.554,6.534 -15.961,10.221 -11.027,9.226 -17.847,25.394 -21.039,39.192 m 267,-221 c 0,20.039 6.729,30.69 21,45 m 146,-42 -3,15 m -455,-13 c 0,18.021 -3.086,35.917 -2.999,54 0.043,8.993 3.349,17.491 -3.001,25 5.405,8.154 1.979,11.896 -3,19 5.348,2.178 7.598,-0.684 8,-6 m 442,-91 0,1 m -3,2 c 2.086,10.748 3.762,23.806 7.584,34 0.922,2.458 3.924,8.474 6.715,9.172 5.101,1.277 12.794,-7.524 16.701,-10.093 12.474,-8.201 24.92696,-9.69 38.99996,-13.079 m -216.99996,-6 c -0.001,4.625 -1.6,10.527 -0.643,14.961 1.688,7.815 14.036,19.416 19.643,25.039 m 122,-36 c 0,21.463 -1.87,42.706 -9.424,63 -1.57,4.216 -8.165,21.433 -5.868,24.683 2.985,4.222 14.521,4.178 19.292,5.468 17.276,4.672 33.977,10.406 51,15.849 m -504,-103 3,29 c -9.133,-2.531 -15.08,-10.649 -23,-15.539 -10.955,-6.764 -23.447,-10.025 -36,-12.461 m 525,4 -2,10 m -11,-9 c 0.521,6.601 -0.313,22.078 5.148,26.367 5.916,4.645 13.223,-2.058 18.852,-4.352 11.816,-4.816 25.47196,-3.015 37.99996,-3.015 m -210.99996,-16 c -4.168,17.307 7.769,31.02 19,44 m -264,-43 c 0.025,38.295 14.496,72.304 33.15,105 6.818,11.949 14.245,27.421 24.85,36 -13.605,12.213 -25.598,20.221 -33,38 m -2,-173 c -8.064,44.091 20.573,98.253 50,129 -5.094,4.928 -8.279,5.277 -15,6 m -239,-106 c 22.988,-22.925 55.391,-32.475 86,-18.688 8.334,3.754 16.503,8.174 24,13.409 3.209,2.242 7.601,6.872 11.852,6.618 5.888,-0.352 1.581,-12.988 1.148,-16.339 m 462,-10 -3,13 m -159,-7 c -3.87,14.952 1.039,25.862 9,39 m 148,-30 c -0.862,3.017 -5.487,10.477 -2.356,13.096 3.455,2.892 14.128,-2.696 18.356,-3.006 15.7,-1.152 30.89796,0.656 45.99996,4.91 m -409.99996,-12 c 0.292,35.247 16.005,65.909 36,94 5.073,7.127 11.422,20.143 20.005,22.81 3.079,0.957 10.112,4.024 11.534,-1.035 0.874,-3.108 -3.036,-6.616 -4.735,-8.775 -5.421,-6.889 -10.028,-14.397 -14.377,-22 -12.303,-21.508 -22.22,-49.008 -22.427,-74 m 268,-10 c -7.645,36.941 -30.454,69.453 -60,92 l 37,37 m -1,-128 c -8.656,26.557 -21.059,55.994 -41.001,76 -6.031,6.051 -14.067,16.327 -22.999,17 1.598,-10.659 10.241,-18.029 15.546,-27 8.449,-14.286 16.034,-33.549 18.454,-50 m -54,-13 -2.372,11 12.372,24 m -141,-32 c -0.263,32.194 6.005,59.701 22.15,88 3.63,6.361 7.389,15.307 12.409,20.566 6.283,6.581 17.152,-2.615 22.112,5.49 15.989,26.126 11.924,52.125 11.329,80.944 m -231,-194 5,3 m -73,-2 27,1.761 44,19.239 m 449,-21 c -5.796,6.074 -10.503,19.234 -19,21 m -244,-16 c -3.187,25.22 -0.68,49.364 9.427,73 4.159,9.723 12.993,19.073 15.573,29 m 77,-99 c -5.04,8.108 -7.579,18.186 -11.286,27 -6.635,15.779 -13.896,31.397 -20.944,47 -2.038,4.511 -8.925,20.852 -4.166,24.836 9.091,7.608 21.7,-10.471 26.504,-15.836 19.839,-22.155 40.966,-46.078 47.892,-76 m -100,0 c -5.92,28.681 -13.709,59.984 7,85 l 4,-4 -5,2 m 4,-81 0,1 m -24,1 c -6.095,23.556 -6.244,51.934 5.11,74 2.258,4.39 4.954,10.766 8.449,14.246 2.505,2.494 6.204,3.209 8.475,6.028 5.433,6.743 8.676,16.779 11.955,24.726 16.027,38.841 17.395,77.358 9.011,118 m 181,-236 22,-1 32,5 m -255,-4 -3.91,52 4.91,23 m -227,-72 6,17 m 267,-15 10,16 m 109,10 22,-17 m -146,3 7,13 m 127,-4 47,27.667 27,17.333 m -214,-41 8,16 m -241,-13 c -3.657,3.657 -7.337,8.438 -12,10.825 -5.263,2.694 -12.333,2.786 -18,4.691 -21.844,7.345 -49.057,22.617 -46.907,49.484 0.949,11.852 10.377,19.232 12.907,30 m 417,-95 -15,14.102 -19,9.898 29,28 m -120,-44 8,16 m -233,-13 16,17 c -6.521,6.164 -14.57,6.881 -22,11.468 -10.437,6.444 -18.324,17.359 -23,28.532 m 365,-53 26,22 m -359,-21 -20,11.108 -23,23.892 m 313,-29 6,6 m 31,-6 6,2 m -93,1 0,1 m -206,4 11,7 m 303,64 c -7.931,-16.756 -14.167,-34.15 -27.171,-47.961 -3.689,-3.918 -19.398,-11.607 -19.483,-16.974 -0.08,-5.003 10.209,-5.784 13.654,-6.065 m -28,2 -36,16 c 6.319,7.915 15.97,12.457 22.907,20 9.142,9.942 14.048,22.703 19.093,35 m 0,-71 7,3 m -245,1 c 7.29,5.618 15.656,12.987 25,8 m 202,-8 20.826,16.289 14.174,21.711 m -47,-30 c 5.55,10.93 21.396,18.174 29.381,28 12.834,15.793 19.41,36.311 26.619,55 m -112,-82 c 2.855,4.9 5.591,10.749 12,9 m -158,-8 c -6.57,5.399 -14.662,8.284 -20.961,14.174 -11.753,10.989 -18.37,27.129 -24.039,41.826 m 81,-56 c 6.642,8.288 17.312,11.17 27,6 m 83,-6 -4,12 m 39,-12 2,2 m -42,-1 0,2 m -104,-1 -7,2 m 52,2 c 5.459,3.147 14.269,4.946 20,2 m 30,0 -7,2 m -79,-1 c -10.515,10.508 -21.673,19.706 -30.279,32 -23.252,33.219 -28.695,72.521 -28.721,112 m 165,-144 -8,1 m 12,0 c 1.809,8.293 8.299,14.147 12.971,21 9.154,13.424 17.686,28.364 18.029,45 m -73,-65 7.829,27 -4.829,44 m 52,-71 c 6.128,12.068 21.925,21.221 29.971,33 15.695,22.976 24.56,50.484 32.029,77 m -157,-109 c -7.173,8.896 -16.685,15.652 -23.511,25 -13.726,18.797 -21.108,42.407 -25.489,65 m 74,-90 c -16.111,18.991 -22.933,41.157 -24,66 m 157,45 0,1"
     inkscape:connector-curvature="0" />
</svg>
