<?xml version="1.0" encoding="UTF-8" standalone="no"?>
<!-- Created with Inkscape (http://www.inkscape.org/) -->

<svg
   xmlns:dc="http://purl.org/dc/elements/1.1/"
   xmlns:cc="http://creativecommons.org/ns#"
   xmlns:rdf="http://www.w3.org/1999/02/22-rdf-syntax-ns#"
   xmlns:svg="http://www.w3.org/2000/svg"
   xmlns="http://www.w3.org/2000/svg"
   xmlns:sodipodi="http://sodipodi.sourceforge.net/DTD/sodipodi-0.dtd"
   xmlns:inkscape="http://www.inkscape.org/namespaces/inkscape"
   id="svg2"
   version="1.1"
   inkscape:version="0.91 r"
   width="1400"
   height="980"
   viewBox="0 0 1400 980"
   sodipodi:docname="victorian-ornament.svg">
  <sodipodi:namedview
     pagecolor="#ffffff"
     bordercolor="#666666"
     borderopacity="1"
     objecttolerance="10"
     gridtolerance="10"
     guidetolerance="10"
     inkscape:pageopacity="0"
     inkscape:pageshadow="2"
     inkscape:window-width="1600"
     inkscape:window-height="843"
     id="namedview4"
     showgrid="false"
     inkscape:zoom="0.64727679"
     inkscape:cx="245.27848"
     inkscape:cy="490"
     inkscape:window-x="0"
     inkscape:window-y="0"
     inkscape:window-maximized="1"
     inkscape:current-layer="svg2" />
  <metadata
     id="metadata8">
    <rdf:RDF>
      <cc:Work
         rdf:about="">
        <dc:format>image/svg+xml</dc:format>
        <dc:type
           rdf:resource="http://purl.org/dc/dcmitype/StillImage" />
        <dc:title></dc:title>
      </cc:Work>
    </rdf:RDF>
  </metadata>
  <defs
     id="defs6" />
  <path
     id="path4258"
     style="fill:none;stroke:#00ff00;stroke-width:0.35433071;stroke-linecap:round;stroke-miterlimit:4;stroke-dasharray:none;stroke-opacity:1"
     d="m -533.96174,-24.695463 c 1.98257,-1.570275 8.06806,-0.462523 10.52848,-0.462523 l 28.8,0 112.05,0 433.799995,0 126.000005,0 31.05,0 c 2.1645,0 8.892,-1.104785 10.3365,0.721584 1.5705,1.982479 0.4635,8.068041 0.4635,10.528416 l 0,28.35 0,111.149996 0,430.2 c 0,99.297 0.45,198.639 0.45,297.9 l 0,74.25 0,18.45 c 0,1.8045 0.693,5.481 -0.72,6.867 -1.8765,1.8315 -7.632,0.783 -10.08,0.783 l -27.45,0 -110.250005,0 c -146.6955,0 -293.445445,-0.45 -440.099995,-0.45 l -124.65,0 -30.15,0 c -2.43117,0 -8.68522,1.0755 -10.3375,-1.152 -1.6073,-2.1735 -0.4625,-8.361 -0.4625,-10.998 l 0,-29.7 0,-113.85 0,-436.95 0,-291.149996 0,-71.1000001 0,-17.5499999 c 0,-1.49193 -0.60786,-4.784544 0.72152,-5.837477 m 335.42848,175.037473 c 1.1934,0.9558 3.56895,2.8314 5.13045,1.4877 1.4625,-1.2582 1.57185,-4.6692 1.91295,-6.4377 1.03095,-5.34285 2.45565,-10.4868 3.7566,-15.75 -4.599,-2.03715 -7.8534,-7.26885 -4.8834,-12.15 1.3806,-2.2689 4.0446,-3.78945 4.9995,-6.3 1.0998,-2.8926 -1.58265,-5.8203 0.15525,-8.5482 1.83555,-2.880446 5.0607,-4.098146 6.0039,-7.651796 1.24695,-4.6962 -0.11295,-14.44455 4.1985,-17.7264 5.1858,-3.94785 4.79475,9.71145 8.4087,9.1494 4.06215,-0.6318 3.18645,-8.32725 5.96385,-10.4454 2.286,-1.74375 5.949,0.0603 7.7724,-1.82745 1.64025,-1.69785 1.0791,-4.63365 2.3589,-6.59835 1.926,-2.9574 5.65155,-3.95505 6.6213,-7.6518 1.28835,-4.90995 -1.6056,-12.80385 4.7529,-15.2937 6.25995,-2.45115 3.86955,9.37845 8.1243,10.15875 4.9248,0.9027 5.64075,-6.14115 9.43065,-6.6006 2.5893,-0.31365 4.2705,3.8286 6.74325,4.42035 3.24135,0.7758 6.05295,-3.05235 9.45,-2.862 3.37905,0.18945 4.4217,4.25025 7.658095,4.3119 4.39965,0.08415 9.15345,-1.81845 13.4919,-2.5722 9.8955,-1.71945 20.547,-3.4533 30.6,-3.25575 12.618,0.2484 25.0065,2.74365 37.35,5.21325 27.5805,5.517 54.567,14.3703 79.65,27.0621 5.256,2.6604 11.826,4.21605 17.55,5.52285 2.178,0.4968 4.473,1.62405 6.75,1.46745 3.195,-0.2196 7.6455,-2.1744 10.8,-3.14865 3.0915,-0.954 15.124505,-6.4584 10.872005,-11.0934 -2.538,-2.76075 -3.087,5.40135 -3.222,6.46965 m -222.75,-27 c 0.009,3.3876 0.4167,9.09675 4.95,5.85 l -1.8,-5.4 m 13.05,1.35 c -2.54835,3.375 -7.3638,3.31785 -11.25,4.05 m -20.25,-3.6 c -0.5598,5.25195 2.6676,8.3079 -0.4401,13.36545 -0.98685,1.60605 -3.2067,1.84095 -4.64175,2.83005 -2.36385,1.629 -4.3002,4.02525 -6.61815,5.78205 -7.75575,5.88015 -16.1325,12.5874 -22.31775,20.06955 -5.139,6.216746 -10.09575,13.165196 -13.9455,20.129396 -2.1933,3.96765 -2.7666,9.027 -5.58675,12.5235 m 47.25,-73.799996 5.85,9.9 m 11.25,-9.9 c 1.39095,3.6873 1.78695,7.6518 6.3,4.05 m -8.55,-2.25 c 0.8397,1.84725 1.32435,3.75795 3.6,3.6 m 35.549995,-3.6 1.8,0 m 17.1,0 2.25,0 m 5.4,0.9 2.7,0 m -36,0.45 1.35,0 m -36.899995,1.35 c 1.73115,2.5893 2.40885,6.17715 5.4,2.25 m -16.65,0 3.6,6.75 m 52.199995,-3.15 c 4.6035,-4.25835 13.4505,-2.7 19.35,-2.7 2.619,0 5.292,-0.35865 7.65,0.9 l -11.25,1.4265 -15.75,2.6235 c -0.1935,-2.45205 -1.98675,-3.6468 -4.482,-3.00645 -2.12085,0.54405 -2.83185,3.00735 -4.97475,3.64905 -6.22665,1.86525 -15.254095,1.3545 -20.588395,5.5737 -3.86865,3.05955 2.55915,3.0033 4.39515,2.3337 m -22.05,-13.05 c 0.87075,1.60155 0.9729,2.55195 -0.9,3.15 l -0.45,0.45 m 76.049995,-3.15 5.85,5.4 m -2.7,-4.05 c 2.979,-2.14245 8.325,-1.65465 11.25,0.45 -3.7575,3.17745 -7.7445,1.2654 -11.7,-0.45 m -72.449995,-0.9 -3.6,1.35 m -11.7,-0.9 2.25,4.95 m 97.199995,-4.05 c 6.5475,1.233 15.417,1.39185 21.15,4.95 l -2.7,2.7 m 129.150005,-1.8 c 0.162,-7.6725 8.3025,-6.993 10.485,-0.45 1.0035,3.01365 -1.0215,6.12495 -2.583,8.55 -2.2995,3.5703 -5.229,7.1181 -8.802,9.4599 -1.62,1.06155 -3.8115,1.3446 -5.256005,2.62395 -2.043,1.8036 -1.0035,4.92525 -3.7665,6.37605 -2.88,1.507946 -7.8255,-1.21095 -10.107,0.792 -1.701,1.490396 0.117,4.486946 -1.08,6.261746 -1.611,2.38365 -10.143,1.88145 -9.8865,6.0111 0.234,3.72195 6.1065,8.17515 8.4645,10.77525 6.102,6.74055 11.0025,14.73885 15.6915,22.5 16.114505,26.68905 20.826005,58.77855 37.462505,85.05 4.923,7.77285 9.7065,15.31575 17.9775,19.86075 4.032,2.2167 8.748,3.7422 12.582,0.30465 3.4245,-3.07125 4.9365,-10.87065 -0.0765,-13.72185 -1.989,-1.1313 -4.5045,0.0589 -6.6555,-0.22905 -3.2805,-0.4392 -6.921,-5.22 -6.2415,-8.46405 2.1285,-10.20555 16.8885,-7.18245 21.906,-1.7604 3.195,3.4533 2.0025,8.7264 2.412,13.00995 0.486,5.10705 1.4355,11.96775 -1.215,16.65 -6.3315,11.1681 -20.943,7.29 -30.3615,3.74625 -2.0925,-0.7866 -4.7205,-0.8883 -6.633,-2.0826 -4.6845,-2.9313 -5.6835,-13.15125 -7.767,-17.86365 M -54.983265,66.642014 c -3.708,3.13695 -15.543,3.61845 -19.8,1.35 m 92.7,-0.9 1.8,0 m -103.95,1.35 c -2.29455,1.22445 -5.1768,1.18125 -7.65,0.45 m 201.150005,0.45 -1.8,3.15 m -101.700005,-2.25 c 3.7485,1.61235 8.055,1.7694 11.7,3.52305 12.474,5.99895 24.138,14.31405 36.9,19.60425 7.4655,3.09555 19.683,5.2956 23.85,13.322696 m -99.9,-35.549996 c 8.19,0.3744 15.5655,5.28435 22.50000005,9.02835 5.68349995,3.06945 10.85849995,4.9203 15.82649995,9.2529 1.8135,1.5804 3.978,2.6946 5.751,4.3488 2.664,2.48805 3.6135,6.822446 7.6725,3.91995 m -173.249995,-26.1 1.35,1.35 m 162.899995,-0.45 12.15,3.15 m -63.45,-2.7 1.35,0 m -76.499995,2.7 8.549995,-1.8 m -9.899995,29.249996 c -4.8105,7.542 -10.72215,-1.82385 -18,0.8505 -2.5497,0.9369 -3.57255,3.55725 -5.86935,4.74345 -3.33405,1.7226 -7.32915,2.43945 -10.78065,3.99645 -7.25175,3.2715 -14.4324,8.52075 -19.43775,14.7096 -3.0276,3.74355 -5.6529,7.6761 -8.2782,11.69955 -0.73665,1.12905 -2.0385,3.3984 -3.71745,2.943 -1.79505,-0.48735 -1.15965,-3.04155 -0.85905,-4.29255 1.0269,-4.2705 3.5568,-7.87545 5.5827,-11.7 7.3188,-13.81635 22.99185,-26.156696 36.15975,-34.108196 42.462445,-25.641 105.281995,-25.80165 146.249995,2.8872 5.6835,3.9789 8.505,9.719996 13.2435,14.526896 2.376,2.40885 5.3685,0.2367 7.713,2.7612 3.978,4.2804 6.1335,10.01925 8.4555,15.27615 0.846,1.908 2.7495,3.0204 3.4875,4.95855 0.72,1.8981 -0.1665,3.8907 0.234,5.8482 2.25,10.9908 2.439,20.80305 -1.1835,31.5 l -3.15,-3.15 c -3.7755,10.06335 -5.184,20.32335 -11.772,29.25 -2.781,3.7701 -12.078,8.64045 -12.3345,13.49325 -0.2655,5.0076 9.0225,2.46285 11.0385,0.7812 6.498,-5.41575 9.648,-15.53355 12.168,-23.27445 m -200.249995,-83.25 -2.25,-1.35 c 6.35265,-8.038796 15.50025,-11.059646 24.24015,-16.155446 1.5183,-0.8856 1.9449,-2.6109 3.30615,-3.65985 1.83015,-1.41075 4.0635,-1.7406 6.08715,-2.6919 3.76875,-1.7721 6.5664,-6.1416 11.36655,-4.9428 m 151.199995,2.25 c 4.752,3.63555 10.6065,3.97035 16.2,4.15035 3.303,0.1062 4.968,1.00755 7.65,-1.45035 m -175.949995,-2.25 c -2.4165,2.83995 -6.7932,4.51665 -10.35,5.4 m 10.35,-4.5 1.8,0.45 m -24.3,0.9 -4.05,3.15 m 17.1,-3.15 1.8,1.8 m 173.249995,0.45 c 9.7695,8.00685 24.651,8.97975 34.2,17.55 m -43.2,-16.65 2.25,0.9 m -177.299995,1.8 c 4.0023,2.87865 4.54095,-1.49805 8.1,-0.9 m -22.5,2.25 c -2.4426,1.98945 -6.2532,4.3344 -4.05,7.65 m -23.85,-6.75 6.3,11.7 m 257.399995,-11.25 c 2.2095,4.9806 6.7905,2.80935 10.8,4.95 m -81.9,-4.5 -4.05,0.45 m -93.6,15.749996 c -2.2905,1.764 -3.4641,3.37455 -3.6,6.3 l -10.8,-1.8 c 1.539,-2.4273 2.67165,-4.662 0.9,-7.2 1.59165,-1.57815 3.73635,-4.328096 6.2919,-3.767846 2.5434,0.55755 3.1986,3.727796 6.3036,2.533496 4.5315,-1.745546 5.337,-8.396096 9.135,-11.092496 3.0105,-2.13705 6.2865,2.3418 6.057,5.12685 -0.585,7.006496 -8.0685,10.446746 -7.9875,17.549996 1.5255,0 5.8905,-0.7839 6.5835,1.0071 0.927,2.40615 -3.294,5.1516 -3.618,7.5339 -0.2745,2.0277 1.5345,1.88235 2.6145,0.83385 0.495,-0.48105 0.8505,-1.15515 1.251,-1.71405 0.5535,-0.7731 1.1295,-1.51605 1.719,-2.2608 m -106.649995,-27.899996 5.4,6.75 m 194.849995,-4.5 7.2,5.4 m -182.249995,-4.5 3.15,2.25 m 202.049995,-0.45 c 3.285,6.602396 10.611,12.215696 16.65,16.199996 m -249.749995,-13.499996 3.6,5.399996 m 9.45,-4.049996 c 0.2799,1.809446 0.8586,2.825546 2.7,3.149996 m 11.25,-3.149996 c -3.3651,2.270696 -8.2818,8.491496 -12.15,5.399996 l -2.7207,7.2 -5.3793,7.65 2.25,0.45 -0.9,-1.8 m 54.45,-13.95 c 4.50315,-8.674646 11.35485,-1.60335 18.449995,-1.8 m 128.7,-2.249996 0.9,3.149996 m 2.7,-3.149996 c 8.2755,6.378746 17.2305,12.813296 22.95,21.599996 l 5.4,-0.9 -8.55,-9 m -14.4,-11.699996 1.8,1.799996 m -16.2,-1.35 5.4,9.45 m -119.7,-9 -4.05,8.55 m -11.249995,-7.65 c -1.90485,2.8665 -3.10995,7.8048 -7.2,4.95 m 10.799995,-4.5 c -1.951645,2.14605 -2.663545,5.75865 -5.849995,5.85 m -57.6,-5.4 0,1.8 m 63.899995,-1.8 0,6.75 1.35,0 m -81.449995,-6.3 2.7,2.7 m 222.299995,-2.7 4.95,4.05 m -13.95,-3.6 2.7,3.15 m -161.999995,-2.7 c -0.35775,3.9411 -4.16205,6.48495 -7.65,4.05 m 50.849995,-3.6 -7.2,7.2 m -29.249995,-5.85 c -2.22435,2.061 -3.80925,2.31525 -6.75,2.25 m -48.6,11.7 -7.65,5.85 c 0.0612,-7.37685 6.8283,-15.1155 13.05,-18.45 m 82.799995,0.9 5.4,1.35 m -24.749995,-0.9 2.249995,0 m 18.9,1.35 c -0.9135,0.78075 -2.5425,1.6821 -2.988,2.84625 -0.6165,1.59345 1.134,4.356 2.9565,3.97935 1.5885,-0.32895 2.79,-2.4453 3.6315,-3.6756 m 110.25,-2.25 c -5.6475,5.6574 -0.936,10.09395 2.1375,16.2 6.3045,12.5199 7.7625,23.90355 7.7625,37.8 l 3.15,0.9 m -116.55,-53.1 c 5.544,-3.65985 6.0705,3.43935 10.8,4.22685 2.385,0.39645 5.715,-2.24955 7.8075,-0.35505 2.0205,1.83015 1.44,6.19245 4.8015,6.759 5.427,0.91575 7.686,-10.2924 13.932,-7.9722 8.0865,3.00375 -5.1525,13.32765 -3.3795,17.4843 1.4535,3.39975 7.578,-2.8872 9.99,-1.85175 1.809,0.77895 0.1485,3.6603 -0.54,4.65705 -3.0105,4.36905 -6.2145,3.5991 -10.5615,5.4018 m 65.7,-29.7 0.9,3.15 m -114.75,-2.7 1.35,1.35 m -74.699995,22.5 -1.8,-1.35 c -1.5336,2.295 -0.85185,4.9599 -2.19105,7.1235 -2.10015,3.39345 -5.5044,5.68125 -7.7067,8.7228 -3.7908,5.2344 -3.0537,12.85695 1.79775,16.5537 1.9557,-3.29805 0.64845,-7.9596 2.12805,-11.69145 2.9475,-7.43355 11.15145,-10.5363 7.77195,-19.80855 8.2674,-2.8053 10.2078,-12.1158 17.55,-16.704 4.02885,-2.5173 8.08695,0.009 12.6,-0.4743 5.5494,-0.594 10.0503,-3.72735 15.3,-4.8717 m 3.6,0.9 5.85,-0.9 m 166.949995,0.45 1.35,1.35 m -145.35,10.8 -7.19145,-3.9276 -4.0842,2.1249 -4.10085,-3.36825 -5.773495,-2.47905 c 3.010495,-6.74325 8.777695,-1.73925 13.628695,0.97785 11.3553,6.3603 21.0168,14.7051 29.1213,25.12215 m -75.599995,-26.55 c 3.04965,-3.63375 6.4017,-3.15 10.8,-3.15 m 6.75,0.45 c 4.8582,2.59245 11.40165,-1.33335 15.3,3.6 m 149.399995,-2.25 0.9,1.35 m 14.4,-1.35 1.8,1.8 m -238.949995,-0.9 2.25,3.6 m 112.499995,-3.6 c -0.9405,3.9213 -11.043,10.75365 -4.05,12.6 l -2.25,-4.05 m -13.5,-8.1 4.95,4.05 m -60.749995,-3.15 c -2.82645,2.4093 -6.52275,5.72625 -10.35,5.85 m 43.65,-5.85 c -4.8861,4.518 -13.4955,0.27045 -19.8,2.23245 -2.6307,0.819 -6.59925,0.47835 -6.0282,4.45905 0.49905,3.4794 6.6861,1.06785 8.7282,0.6993 4.79565,-0.8649 9.3015,-1.7172 13.95,0.30105 2.45835,1.0674 4.646245,3.63195 7.199995,4.24935 2.71935,0.657 5.29425,-1.5408 8.1,-0.5139 3.41055,1.24785 3.65715,3.68685 6.0795,5.63265 1.656,1.32885 3.9285,1.3257 5.6205,2.80035 4.3695,3.80565 6.0255,8.33355 9.063,12.8664 1.233,1.84185 4.68,3.84345 4.6665,6.44085 -0.018,2.92365 -5.616,2.8278 -5.1525,5.77935 0.504,3.21345 6.309,-0.22005 8.073,-0.3969 l -2.25,-4.5 m -0.45,-39.15 c -1.656,1.53675 -6.876,5.20425 -3.6,7.2 m 123.75,-7.2 0.45,1.35 m -152.1,-0.45 5.85,1.35 m 1.8,-1.8 0,1.35 m 31.95,-0.9 -6.75,7.65 m 127.8,-7.2 4.95,4.5 m -21.15,-4.05 1.35,3.15 m -200.249995,14.4 4.05,4.5 c -2.82105,2.40885 -7.53165,2.2851 -6.2253,-2.6739 0.351,-1.33245 1.71315,-1.68615 2.2419,-2.86065 0.56205,-1.24785 0.2034,-2.65545 0.88155,-3.91545 2.6109,-4.8483 8.49735,-8.19405 13.45185,-10.04355 2.79135,-1.0422 5.2263,-2.71575 8.1,-1.20645 m 186.749995,-0.9 3.15,3.15 m -99,-2.25 0,0.45 m -34.65,0.9 1.8,0.9 m 14.85,-0.9 c -1.962,1.59795 -5.8905,4.13415 -6.48,6.7302 -0.459,2.0313 3.96,3.83085 5.3955,2.80395 1.0755,-0.76815 0.639,-2.57715 1.044,-3.68415 0.6615,-1.8153 2.313,-3.1689 3.6405,-4.5 m 111.15,-1.35 c 0.711,3.3867 2.2005,6.1686 5.85,6.75 l 0,-4.5 m -208.349995,-1.8 1.35,1.35 m 50.399995,-1.35 c 3.5019,1.9512 9.5625,5.4081 13.05,2.7 m -76.049995,-1.8 1.8,0.45 -3.15,3.6 c -0.6966,-1.8171 -0.0765,-2.7162 1.8,-3.15 l 0.45,0.45 -0.45,0 -0.45,0 m 1.8,-0.9 2.25,0 m -28.8,0.45 c -2.2041,5.29425 -4.4262,11.7585 -7.12755,16.65 -1.76805,3.20175 -3.9843,7.9164 -0.52245,10.8 1.77255,-2.7873 2.0943,-7.2729 0.9,-10.35 m 59.4,-15.75 -2.7,6.3 -3.15,-6.3 3.15,-0.9 m 84.149995,0 -3.15,2.7 c 1.251,1.69695 2.1195,2.44305 4.05,1.35 m -149.399995,-3.6 c -1.60605,2.1474 -3.5604,5.0445 -4.27545,7.65 -0.44055,1.60605 0.0639,3.42855 -1.00845,4.8474 -1.8288,2.41965 -5.4207,0.66465 -7.5348,2.66895 -2.54385,2.4111 0.8631,5.57415 -0.3537,8.1864 -1.16955,2.5101 -4.8177,2.38455 -6.0903,5.004 -1.22535,2.52315 1.80765,5.59215 0.0734,7.9695 -4.3182,5.92065 -17.748,0.7677 -19.746,10.02375 -1.3788,6.3873 8.1405,7.155 11.46555,9.6795 3.38715,2.57175 2.1375,7.6095 5.1471,10.42065 2.421,2.26215 6.786,-1.0755 9.70335,-0.6768 2.4543,0.33525 3.4965,2.55825 6.31935,2.62665 -0.005,6.9282 -9.82125,10.971 -7.8408,17.99325 1.44585,5.1264 12.67155,2.85615 16.2153,1.0917 1.2375,-0.6156 1.89585,-2.19555 2.92275,-3.10365 0.63405,-0.56115 6.0921,-4.44555 3.4011,-5.3451 -2.15685,-0.7209 -4.22685,3.3228 -6.59835,3.36555 -3.46275,0.0625 -4.8753,0.864 -7.65,3.09825 m 149.849995,-85.5 -2.25,3.15 0.45,0.45 -0.9,-0.9 m -77.399995,4.5 c -0.31725,1.99845 -1.7262,3.3012 -3.3687,1.30365 -1.6128,-1.9611 -1.2888,-4.95315 -2.4813,-7.15365 l 3.15,-0.9 m 77.849995,0.45 1.8,1.8 -2.7,2.7 m -84.599995,-4.05 -5.85,4.05 m 7.2,-0.9 c -5.9913,1.2123 -2.889,12.4596 2.7,9.45 -1.8774,-3.51315 -3.62835,-10.41795 0.45,-12.6 m -22.95,0.45 -2.7,5.4 m 81.899995,-5.4 2.7,2.7 m 119.7,-2.25 c -1.413,2.6937 -0.4005,5.26725 1.8,7.2 m -109.35,-6.75 1.8,0.9 m 14.4,-0.9 c -1.7055,2.0466 -5.697,3.4992 -6.6555,5.86935 -0.9945,2.47005 2.7135,8.50815 5.3055,8.08065 m -1.35,-13.05 0.9,0.9 m -129.149995,4.05 3.6,-4.5 m 18.45,0 -1.8,1.35 m 60.749995,-1.35 c 0.66915,7.6167 6.8301,7.0524 12.6,4.95 m 151.2,-4.95 5.292,7.20045 -1.2465,5.39955 2.2545,7.65 m -226.349995,-18.9 0.9,-0.9 m 63.899995,0 -0.9,4.95 m 40.95,-4.95 4.05,0.45 m -64.349995,0 c -0.0436,2.1168 -0.77625,10.76535 -4.0482,10.01205 -3.32055,-0.765 -2.2518,-6.66225 -2.2518,-9.11205 m 178.199995,-0.45 0.9,1.8 m -114.3,23.4 c -3.2355,-0.2331 -4.4055,-2.1249 -6.3,-4.5 -1.3095,0.68445 -2.475,1.12905 -3.6225,-0.14355 -1.8045,-2.0088 -2.4435,-4.8447 -3.9735,-7.0164 -2.619,-3.71925 -9.441,-7.8057 -8.154,-13.09005 l 7.2,8.1 m 19.8,-7.65 -6.3,7.65 m -25.65,-7.2 c 1.593,1.5921 3.0195,3.7521 5.4,3.15 m -76.949995,0 7.2,-2.7 m 23.4,0.45 0.9,9 -6.28065,2.17935 -3.66615,3.0555 -7.14645,2.5155 -4.12155,3.213 -7.5852,-3.76335 m 34.2,-16.2 1.8,3.6 m 54.899995,-3.6 0.9,1.35 m 122.85,-1.35 c -1.296,2.68785 0.2295,4.9797 2.7,6.3 m -192.149995,-4.95 c 0,2.0358 -0.44235,4.2057 1.8,4.95 m 80.549995,-4.05 0.9,0.45 m -106.649995,0 c 0.9657,3.015 1.24875,5.8473 4.95,4.5 m 95.399995,-4.5 c -1.6875,2.28375 -3.96,4.0599 -6.75,2.7 m -80.099995,-2.25 c -0.82665,2.08125 -1.78875,2.979 -4.05,3.15 m 28.8,-3.15 0.4221,4.22865 3.6279,0.98415 10.343245,4.68675 4.50675,-1.34955 -2.25,3.15 6.3,10.8 1.8,-1.35 -2.25,-2.7 m -72.899995,-15.3 4.05,-0.45 m 31.5,0 -0.9,4.5 m 90.449995,-4.5 c -0.855,1.83375 -2.628,5.08455 -4.1895,6.37245 -2.8035,2.3112 -8.046,3.4443 -9.567,7.1343 -0.9135,2.20905 3.5415,10.0845 6.1065,10.2834 1.5345,0.1188 2.808,-1.28475 4.05,-1.97235 3.033,-1.67805 6.255,-2.46195 9,-4.7178 m -15.75,-16.65 c -3.2985,5.7636 -8.523,9.7506 -10.35,0.9 m 124.65,-0.9 c 2.358,2.84085 11.844,13.68225 3.6,13.95 0.3825,1.9674 0.324,6.1002 1.944,7.42185 1.5975,1.30185 3.366,-0.46575 3.762,-2.0241 0.5895,-2.3292 -0.3555,-4.4469 -1.656,-6.29775 m -191.249995,-12.15 4.5,0.9 m 17.099995,-0.9 -5.4,4.05 m -18.899995,-3.6 -3.6,1.35 m -62.55,-0.9 -0.9,4.05 m 7.65,-4.05 c -3.2472,11.3589 -7.6851,23.13225 -4.03245,35.1 0.77535,2.53935 2.0403,5.96925 3.80655,7.983 3.21345,3.663 10.29375,5.18265 6.9759,10.917 l -6.3,-6.75 0.9,-0.45 m 26.55,-46.35 1.8,-0.45 m 57.599995,0.45 -2.25,3.15 m 7.2,-2.7 -5.85,3.6 m -107.099995,-3.15 1.35,0.9 m 40.5,-0.9 c -1.41705,1.1826 -5.28975,4.6341 -4.74255,6.7482 0.41445,1.60245 2.70765,2.5767 3.8232,3.6486 2.0124,1.9341 3.024,4.07295 3.7341,6.7032 0.4248,1.57455 2.3346,4.0653 0.9459,5.6142 -2.4687,2.75445 -9.87075,-2.59695 -12.76065,-2.89665 -2.09655,-0.21735 -3.83085,1.0449 -5.85,1.33245 m 107.099995,-21.15 3.15,9 m -68.399995,-8.55 0,0.9 m 76.949995,-0.9 1.8,1.8 m -103.949995,-0.9 c -0.2799,6.525 -3.0267,13.9698 -10.35,8.55 l 2.7,-2.7 m 114.299995,6.3 c 2.9115,-2.8854 6.5925,-5.79015 10.35,-7.5141 2.0385,-0.93555 4.257,-0.85635 6.3,-1.94895 2.5155,-1.3455 6.534,-4.0302 9.3465,-1.90305 3.456,2.60955 -2.52,7.81695 1.9305,9.61245 3.7575,1.51695 14.47200005,-6.51735 16.569,-0.0216 2.2995,7.128 -7.2,6.98625 -11.196,7.7796 -1.602,0.3186 -2.8935,1.59165 -4.5,1.78605 -1.2375,0.14985 -2.34,-0.5382 -3.6,-0.25695 -2.844,0.6345 -5.184,2.7828 -8.1,1.46655 l 7.65,-4.5 m -117.449995,-10.35 c -2.47545,-4.0644 1.84635,-6.77565 3.15,-1.8 m 52.199995,-2.7 -6.3,4.05 m 53.1,-4.05 0,2.25 m -108.899995,-1.8 6.3,4.95 m 22.5,-3.15 6.3,-1.8 m 163.799995,0 c 0.7695,7.2054 0.504,18.31995 -4.95,23.4 m 25.65,-23.4 c -2.0475,2.421 -2.097,4.5108 -0.45,7.2 m -166.95,-6.75 1.35,1.35 m 40.5,-1.35 4.05,5.4 m -121.499995,-4.95 1.35,4.05 m 9.9,-4.05 3.6,3.15 m 74.699995,-3.15 -8.1,5.4 m -7.65,0.45 -4.95,-3.6 c 3.1887,-0.61965 7.6824,4.5963 9.9,6.75 m -16.199995,-7.2 6.299995,0.9 m 48.6,-0.9 c 0.342,2.13975 1.071,3.321 3.15,4.05 m -73.349995,-3.15 c -3.24,2.8881 -5.84055,1.6857 -9.45,3.0798 -2.84715,1.0998 -4.36815,3.42045 -5.85,5.9202 m 13.95,-7.2 12.15,-1.35 m -76.05,0.45 1.35,2.25 m 19.35,-2.25 3.15,1.8 m 83.699995,-1.8 -6.3,4.5 m 13.95,-4.5 c -2.763,4.88115 -1.5705,7.03125 3.6,3.6 m -127.349995,-3.15 c 0.46575,1.95795 1.6029,9.108 -1.37655,9.5553 -1.152,0.17325 -2.55735,-1.0098 -3.57345,-1.4553 m 27,-8.1 4.5,2.7 m 132.749995,5.4 c 2.6325,-4.8951 5.6745,-6.47145 10.8,-8.1 0.711,2.23785 0.7065,4.0599 3.15,4.95 m -161.099995,-4.5 0,0.45 m -4.95,0 c -1.74375,3.2679 -0.6921,7.2666 -0.49185,10.8 0.3411,6.0282 -1.88055,12.1284 1.84185,17.55 4.55085,-2.71035 2.3175,-7.96725 1.35,-12.15 m 81.9,-15.75 c 1.964695,1.44495 5.881045,6.27975 8.099995,4.5 l -2.25,0.45 m 35.55,-4.95 1.35,4.5 m -66.599995,-4.05 -4.05,5.85 m 32.849995,-5.85 2.25,2.7 m -66.149995,-1.8 -0.9,7.65 m 22.5,-7.65 c -1.76625,7.7256 -3.6,14.88645 -3.6,22.95 -1.5993,0.12645 -4.3551,0.007 -5.7069,0.9126 -1.26,0.8433 -1.06605,2.71845 -1.03635,4.0374 0.1341,5.96205 3.93525,7.3125 8.09325,10.35 l -4.5,9.9 c -2.151,-2.99295 -0.9549,-8.67195 0.9,-11.7 m 19.35,-36.45 c 1.6146,2.46105 4.2678,3.7287 1.35,6.3 m 81.449995,-1.35 7.2,-4.95 m -109.799995,0.45 5.4,2.7 m 10.8,-2.25 -2.25,2.7 m 75.149995,-2.7 1.35,6.3 m -141.749995,-5.85 3.15,0.9 m 22.05,0 3.15,1.8 m 7.65,-1.8 10.35,4.95 m 25.65,-4.95 -3.15,3.6 m 9,-3.6 -2.7,1.8 m 39.599995,-0.45 3.6,-1.35 m 6.3,0 c -1.7685,2.4687 -1.134,4.1751 1.8,4.95 m -41.399995,-4.05 3.6,-0.45 m 17.549995,0 1.35,2.25 m 36.45,-2.25 7.65,23.4 m 110.7,-23.4 c 6.3675,27.5328 6.2865,53.9523 -4.635,80.1 -2.214,5.29875 -3.3255,10.83465 -6.615,15.75 2.2275,3.18735 -0.144,6.72525 -2.25,9.45 l -2.7,-2.7 c -1.224,2.1195 -2.79,5.66775 -3.024,8.1 -0.297,3.12615 0.8775,6.6114 -0.7425,9.44955 -1.2735,2.23425 -4.7205,5.7609 -6.687,7.4187 -2.7045,2.28195 -5.8185,1.26 -4.3965,6.08175 l 1.8,-1.8 m -134.55,-112.5 c 2.2266,0.909 4.0878,-2.6469 2.88765,-4.4964 -2.37735,-3.6639 -10.482745,-3.25395 -11.346745,-8.59365 -0.31005,-1.91745 2.83185,-5.91435 4.86765,-5.15025 2.755795,1.0341 4.265995,4.06395 5.391445,6.5403 3.42945,-0.9387 3.501,-2.90025 1.8,-5.85 m 90.45,-0.9 -0.45,0.45 m -141.749995,0.45 4.95,2.25 m 118.349995,-2.25 c -2.799,1.7388 -6.957,3.8529 -9.9,1.8 m -50.85,-1.35 1.8,6.75 c 2.106,-1.5147 3.834,-1.3581 6.3,-0.9 m -28.349995,-5.4 4.049995,4.05 m 183.15,-1.8 2.7,-2.25 -1.8,4.05 -2.7,-3.15 m -203.849995,0 1.4166,2.47095 4.8834,-1.09485 9,0.8739 m 49.049995,-2.25 1.35,2.25 m -139.499995,-1.35 -5.4,1.8 m 119.249995,-0.45 3.15,-1.35 m -115.199995,0.45 c 1.4049,2.6325 0.4851,4.1193 -0.2745,6.75 -0.55395,1.9197 0.21375,4.07835 -0.9018,5.84775 -3.11445,4.93965 -12.74445,3.15225 -17.7237,3.15225 m 151.649995,-15.75 c 1.0755,1.93815 0.8595,3.83175 1.539,5.85 1.4625,4.35915 6.363,10.8378 2.2455,15.56145 -1.287,1.4787 -3.564,1.43055 -5.04,2.66805 -1.314,1.10385 -1.7865,2.90475 -3.2895,3.8169 -1.3815,0.83565 -3.618,1.07865 -3.762,3.15585 -0.099,1.4202 1.566,2.98305 2.394,4.00725 2.925,3.61935 7.3575,6.4269 10.863,9.4905 l 1.35,-4.95 c -4.9455,-0.7848 -10.9215,-6.00075 -14.4,-9.45 m 33.3,-30.15 c 2.907,2.91285 5.9895,7.0533 2.1915,10.7334 -1.107,1.0719 -3.51,1.11195 -4.1715,2.4597 -1.548,3.15765 1.3185,5.9373 4.23,6.1569 m 112.5,-18.9 1.35,3.15 m -117.9,-2.25 4.95,3.6 m -88.199995,-3.15 c -0.9657,1.32615 -1.5651,4.653 -3.2373,5.17635 -1.50345,0.47025 -2.1006,-1.35135 -1.4148,-2.4102 0.7596,-1.1718 2.04615,-1.3212 3.3021,-1.41615 m 166.049995,-1.35 -0.9,1.8 m 41.85,-1.8 c 0.378,1.93995 0.486,4.48065 1.4895,6.2055 0.846,1.4517 2.5965,2.0502 3.654,3.32775 3.2445,3.9204 4.77,11.02095 1.1565,14.76675 l -2.07,-8.40375 -3.78,-4.64625 c -5.688,5.1003 -3.906,10.90485 -3.6,18 m -246.149995,-28.8 7.3233,6.51195 5.59035,2.68155 2.83635,4.7565 m 13.5,-13.95 c -7.17705,6.46605 7.8003,10.7991 4.95,16.65 1.65735,0.639 2.241,0.216 3.6,-0.9 m 33.749995,-15.75 1.8,3.6 m 24.75,-3.6 c 1.8315,2.0439 3.564,2.92455 6.3,3.15 m -35.1,-2.7 -1.8,4.5 m 58.5,-4.5 0.45,9 m -73.799995,-8.55 -1.35,2.25 2.7,1.8 c -1.0746,0.9612 -2.1258,1.97055 -3.59955,2.24955 -4.1841,0.79065 -2.9412,-3.06045 0.44955,-3.59955 m 82.349995,-1.8 4.95,0 m 11.25,-0.9 c -0.5355,2.8467 0.306,7.67025 -2.313,9.5661 -2.673,1.9323 -8.955,0.4473 -10.5255,4.0302 -1.6155,3.69 3.6225,5.6943 4.0455,8.9037 0.342,2.6064 -2.8125,5.74695 -3.357,8.55 1.341,0.33075 2.7,0.5292 4.05,0.8136 3.51,0.73935 5.13,3.49605 2.2005,6.29055 -2.9025,2.76975 -9.7425,2.592 -9.3735,7.72785 0.45,6.2127 13.329,2.916 12.9555,11.268 -0.09,1.97145 -1.4085,3.4947 -2.5965,4.95 -1.1115,1.36215 -2.2275,3.5748 -3.753,4.4874 -3.123,1.87065 -8.5185,-0.1359 -12.033,0.702 -2.592,0.61785 -4.0365,2.7261 -6.3045,3.88305 -2.8395,1.4454 -6.084,1.51335 -8.937,3.15945 -3.546,2.04795 -1.2285,7.62705 -5.9085,8.7453 -5.283,1.2609 -6.48,-8.72955 -11.7,-5.6772 2.2275,3.25755 3.15,8.6877 8.1,5.85 m -107.549995,-82.8 c 0.78165,5.6079 4.8744,5.40045 9.45,5.4 m 77.399995,-4.95 0.45,4.05 c 5.3775,-2.1465 9.2655,-0.4653 14.85,-0.45 m -138.149995,-3.15 c 3.7071,0 6.5718,-0.4113 9.45,2.25 m 167.849995,-2.25 -4.5,2.7 m -117.899995,-2.25 -2.25,6.3 m 16.65,-5.85 -1.35,2.25 m 43.199995,-2.25 -1.35,4.5 m 148.5,-3.6 c -0.0225,8.838 -4.7295,17.24715 -5.7195,26.1 -0.297,2.68605 2.7315,6.5718 -0.2655,8.7021 -1.476,1.04895 -2.736,-0.4833 -2.5605,-1.95435 0.2025,-1.6848 1.5885,-2.90205 2.6955,-4.04775 m -100.8,-28.35 -3.6,4.5 m 102.15,-4.5 -0.9,10.35 m -213.299995,-9.9 c 0,6.02055 0.13905,10.4616 6.75,5.85 m 50.85,-5.85 1.8,0 m 8.1,0 c 0,3.03435 -0.61605,5.86395 2.249995,7.65 m -108.899995,-7.2 c 3.4731,0 5.7177,0.0356 8.55,2.25 -5.283,5.11155 -16.1091,2.54385 -22.95,2.25 m 124.199995,-4.5 c 0,4.5036 -0.9225,9.1935 3.15,12.15 1.5921,-2.4021 2.18655,-4.75785 0.45,-7.2 m 13.05,-4.5 c 0.0045,6.27975 4.266,5.42565 9,7.2 m -8.1,-7.2 c 3.6495,3.2427 9.288,3.0105 13.95,3.6 m 13.5,-3.15 c 3.573,4.30335 3.0465,7.62975 4.752,12.4713 1.134,3.2148 3.3795,6.3693 1.098,9.5787 -2.0295,-2.65995 -1.8,-5.3442 -1.8,-8.55 m -152.099995,-13.05 c -3.46635,1.84995 -8.7327,0.9 -12.6,0.9 m 298.799995,-0.9 0,3.6 m -119.7,-0.9 8.1,-2.25 m -172.799995,0.45 4.05,0 m 147.149995,0 -2.25,2.25 m 144.45,-2.25 c 8.334005,20.04075 17.091005,39.6009 22.104005,60.75 1.647,6.95745 2.7945,14.04225 3.4695,21.15 0.2565,2.7153 -0.8145,6.984 0.9495,9.3069 3.114,4.10445 6.9165,-2.50605 8.577,-4.3569 4.5495,5.2218 7.0335,6.0147 7.65,-1.8 m -56.250005,-84.6 1.35,4.5 m -218.249995,-4.05 c -1.38375,2.63475 -0.38835,4.5126 1.8,6.3 l 0.9,-3.6 m 52.199995,-1.35 -1.35,6.75 10.35,0 m -122.849995,-6.3 2.3508,9.8235 4.3992,10.8765 -4.5,1.35 m 83.7,-22.05 c 1.0575,1.6227 1.06425,2.54655 -0.9,3.15 m 9,-2.25 -7.65,11.69325 -7.12125,5.94 0.37125,4.86675 m 157.949995,-22.5 -0.9,4.05 m 35.55,-4.05 -1.35,18.45 m -239.399995,-17.55 6.3,4.05 m 15.3,-2.7 c 1.233,4.95 4.76955,9.14535 8.7255,12.32865 2.10375,1.69335 4.23495,1.45125 6.1245,3.87135 2.88,-2.55915 7.76925,-3.20715 11.25,-1.35 m 197.549995,-14.85 1.8,6.75 m -191.249995,-6.3 c -0.3888,2.33055 -2.02635,2.2104 -4.05,2.7 m 201.149995,-2.25 1.35,0 m -224.099995,0.9 2.7,1.35 m 91.799995,-1.35 c 0,6.52005 6.678,7.6644 11.25,3.6 m -155.699995,-2.7 c 2.53125,2.37915 6.16455,10.01295 9.45,4.95 m -35.1,-3.6 15.3,-0.9 m 9,0 c 0,5.0967 1.50075,10.1871 4.5,14.4 -1.67535,2.3661 -0.84915,3.7701 0.9,5.85 m 96.749995,-20.25 c -2.538,3.8457 -0.1215,5.2893 3.15,7.2 m 0.9,-6.75 5.4,1.8 m -55.799995,-1.35 c 3.64635,4.48335 11.00025,1.0197 15.75,0.9 m 17.999995,-0.9 -1.8,5.4 m -96.299995,-4.5 c -3.28185,2.7756 -8.51445,2.16585 -12.6,3.15 m 106.649995,-3.15 -2.249995,2.25 m 44.099995,-1.35 c 3.9105,4.59945 1.8225,5.83605 1.7235,10.8 -0.045,2.20185 0.972,4.4514 0.9765,6.75 m -73.799995,-17.1 0,0.9 m 214.199995,-0.9 0.45,11.7 m -125.55,-11.25 c 0,6.0327 3.8385,5.45805 9,4.5 m -49.5,-4.05 3.15,0.45 m -116.099995,0 c -1.98045,1.7766 -3.6252,2.637 -6.3,2.7 m 43.65,-2.7 0,0.45 m 71.549995,-0.45 c -1.0035,1.74195 -1.86165,3.5919 0,4.95 m -99.449995,-2.25 3.15,-2.25 m 274.049995,0.45 c -0.7965,5.2785 -2.358,8.49195 0.243,13.95 1.845,3.86145 6.421505,7.37955 7.600505,11.25045 0.6165,2.01285 1.656,5.1399 0.8865,7.1973 -0.4905,1.30905 -2.529,3.38355 -3.766505,1.6506 -2.1555,-3.0132 -0.5265,-8.9397 -1.3635,-12.44835 m -246.149995,-21.15 -5.25735,5.4 -2.84265,8.55 c 6.1758,4.70745 7.06095,-7.1334 10.35,-10.8 m 94.949995,-3.15 0.45,1.35 m -123.749995,-0.9 1.35,1.8 m -3.6,-1.35 c -0.4401,4.2606 3.0978,6.2856 5.85,9.0018 6.4179,6.33375 11.26305,11.37735 20.7,12.1482 m 48.6,-21.15 -4.95,4.05 m 197.099995,-4.05 -1.35,2.7 m 2.25,-2.25 1.35,1.35 m 0.9,0 4.05,7.65 0.9,-3.15 m -266.849995,-4.05 -1.8,1.8 m 105.299995,-1.8 c 2.709,1.92825 5.661,3.32685 9,3.6 m -29.7,-3.15 -1.35,5.4 7.2,0.9 m 40.95,-6.3 c 0.054,1.7586 1.1025,3.69675 0.7695,5.4 -0.405,2.0718 -3.8025,5.5395 -1.791,7.80255 0.774,0.8694 7.713,-0.35145 9.1215,-0.60255 m -102.599995,-12.15 -5.8374,5.40855 -0.9126,6.29145 c 2.3616,0.62145 3.5154,-0.42795 4.95,-2.25 3.5415,1.73745 6.24015,-0.6822 8.1,-3.6 3.9411,3.6414 7.2774,0.6489 10.8,-2.25 m -82.8,0 9,-2.7 m 25.2,0 10.8,0 m -3.6,0.45 -3.6,10.8 m 40.5,-10.8 0.45,4.5 m -41.4,-4.05 c -0.4464,2.8269 -2.2347,4.5936 0.45,6.75 m 20.25,-6.75 3.6,1.35 m 90.449995,-1.35 -2.223,11.7 -4.077,9.9 c 2.3085,-1.23435 3.033,-2.8413 3.15,-5.4 m 158.850005,-16.2 0.45,0.9 m -138.600005,3.15 c -2.925,0.73935 -5.4585,-0.3033 -7.65,-2.25 3.8295,-2.75355 5.58,0.72135 9,2.25 m -28.35,9.9 -1.8,3.6 c -2.97,-2.41605 -5.8545,-4.87305 -9,-7.06725 -1.2465,-0.86895 -3.519,-1.43955 -4.437,-2.59515 -1.908,-2.39895 -1.6695,-5.8761 0.837,-7.4376 m 19.35,0.45 0.45,1.8 m -85.049995,-1.35 0.9,6.3 m 8.1,-6.3 0,2.7 m -52.65,-1.35 5.56875,5.78115 7.03125,2.76885 m -20.7,-8.1 c -0.97875,3.3867 -6.0831,5.13765 -9,6.75 m 31.05,-6.75 2.25,0.9 m 76.499995,-0.45 c -3.28185,4.8276 -7.02945,7.5339 -2.25,13.05 m 5.4,-12.15 6.3,6.3 m 39.6,-6.3 c 2.6775,2.53215 5.4855,3.2463 9,4.05 m 126.45,-4.05 -1.8,4.95 m -283.499995,-4.5 2.7,6.75 m 38.7,-6.75 2.25,2.25 m 23.4,-1.8 1.35,1.8 m 31.499995,-1.35 8.55,7.2 m 153.9,-7.2 0.45,1.8 m -182.699995,-1.35 -4.05,2.7 m -48.15,-1.8 3.15,0.9 m 238.499995,-0.9 c 1.9215,10.34865 -1.89,20.8107 -2.7,31.05 m -265.949995,-30.6 -13.95,9.45 m 111.149995,-9 4.95,5.85 m -85.949995,-5.4 -2.25,0.45 m 77.849995,12.15 c -3.2526,-5.5665 -5.575045,-10.8603 3.15,-12.15 m 20.7,0 c 0.432,4.90995 3.8655,8.99415 0,13.5 1.2645,1.6389 2.385,5.5206 4.5225,6.1443 1.584,0.4626 2.0205,-1.4697 1.458,-2.54475 -0.99,-1.88775 -3.1365,-3.456 -4.6305,-4.94955 m -76.049995,-11.7 c -2.3625,1.9872 -3.8259,2.53395 -6.3,0.45 m 7.2,-0.45 4.5,0.9 m -45.45,-0.45 c -1.43955,1.3572 -2.6973,2.09385 -1.8,4.05 m 15.75,-3.6 c 3.168,3.02985 6.91875,4.76955 10.35,7.3692 1.9638,1.4877 3.59865,3.66885 5.85,1.6308 -1.6785,-1.11285 -2.97315,-2.0277 -4.95,-1.35 m 205.199995,-7.2 c -5.544,11.87685 -12.906,20.34765 -23.4765,28.42245 -3.2085,2.4507 -6.732,3.50415 -10.2735,5.21775 -1.1925,0.576 -3.456,1.20825 -4.086,2.47455 -1.1925,2.39535 3.0285,1.93365 4.086,1.68525 m -120.149995,-37.35 -4.95,2.25 m 74.249995,-2.25 c -1.9665,3.9195 2.8035,5.22225 5.85,5.85 m -116.549995,-5.4 -2.7,1.35 m 115.199995,-1.35 5.4,1.8 m 69.75,4.5 c 1.7595,-2.5803 2.763,-7.16535 6.75,-5.4 m 30.15,-0.9 -0.9,9 m -170.1,-8.55 4.95,5.85 m 154.35,-5.85 -2.7,10.8 m -251.999995,-8.1 3.6,-2.25 m 5.85,0.9 5.1795,7.87545 4.1481,3.3993 -2.1276,9.42525 m 28.8,-17.1 15.75,-3.6 m 210.149995,0 0,2.25 m -253.799995,-1.8 4.95,4.5 m 48.15,11.7 -1.35,-2.25 18.8919,-9.74025 4.958095,-4.20975 m 58.5,0 c -1.8765,2.61315 -4.0185,4.66425 -3.15,8.1 6.3,-1.3617 13.0365,4.923 18.45,7.2 m -84.599995,-14.85 -1.8,1.35 m -47.25,-0.9 0,1.8 m 90.449995,-1.8 c 3.807,0.6048 7.956,7.7544 10.8,3.15 m 111.15,-2.7 -0.9,3.6 m 2.7,-3.15 0,3.15 m -216.449995,-1.35 1.8,-1.35 m 117.899995,0 c 2.907,2.8485 7.0965,6.71085 11.25,4.05 m 116.55,-4.05 0,7.2 m -36,-6.75 0,2.25 m -152.099995,-1.8 5.849995,7.2 m 184.5,-6.75 -0.45,1.35 m -255.149995,-0.9 c 0.97875,3.25305 6.92955,4.69755 9.9,5.85 m 23.4,-5.4 5.4,0 m 157.949995,-0.45 c -1.7775,9.9765 -13.941,19.8018 -22.95,23.08725 -4.0545,1.4787 -8.586,1.6362 -12.5325,3.11535 -1.737,0.65115 -1.7235,2.84265 -3.6765,3.3543 -3.1005,0.81135 -7.7265,0.0864 -10.791,-0.65295 -1.5525,-0.37485 -4.275,-1.00575 -5.4405,0.61065 -2.385,3.29715 2.952,6.48045 5.4405,6.4854 7.6095,0.0157 21.69,0.22905 26.55,-6.3 l -13.5,-0.9 m -108.449995,-26.55 3.15,-1.8 m 218.7,0 0,1.35 m -48.150005,-0.9 -0.45,2.25 m 7.65,-2.25 -0.45,1.35 m 39.150005,-1.35 -0.45,3.15 m -258.75,-2.7 7.2,0.45 m 79.649995,-0.45 7.65,4.5 0.9,-3.15 m -84.149995,0.9 3.15,-1.35 m -15.3,0.45 3.6,3.15 m 230.849995,-3.15 -0.45,9.45 m 36.450005,-9 -1.35,2.25 m -301.95,-1.8 c 1.95345,2.6946 0.55305,5.28435 1.9953,8.0172 1.20555,2.28465 4.2417,2.8953 5.5917,5.1111 1.02825,1.68705 0.4707,4.53915 2.0943,5.81805 2.5722,2.02545 8.5167,-1.6119 10.5561,1.44675 2.64375,3.96495 -4.5378,13.29525 0.65115,16.4862 2.6226,1.61235 5.02605,-2.80395 6.0876,-4.4793 2.77515,-4.3803 4.806,-9.17145 7.67565,-13.5 1.8639,-2.8116 4.7394,-5.1444 5.3982,-8.55 8.7579,0.38655 17.43705,-1.5534 25.65,-4.05 m -54.45,-6.3 -4.95,6.3 m 74.25,-6.3 0.9,1.35 m 29.699995,16.2 c -1.0215,0.4743 -1.8675,0.8982 -2.736,-0.1512 -2.169,-2.6262 -3.0015,-7.5375 -4.54545,-10.6488 -0.6138,-1.2375 -1.83015,-2.61585 -1.8729,-4.04145 -0.07425,-2.49345 2.56635,-2.28735 4.20435,-1.80855 -0.855,5.13855 3.9375,11.457 4.95,16.65 6.5565,-2.25495 -2.1375,-9.52245 0.45,-14.4 l -5.4,-2.25 m 29.7,4.05 -3.6,1.8 3.6,-6.3 m -86.399995,0.45 1.35,0 m 5.4,0 c -3.66345,3.00015 -6.5475,1.98315 -10.8,2.40255 -3.94695,0.3897 -7.6923,1.19745 -11.7,1.19745 m 33.3,-3.15 1.8,-0.45 m 45.899995,13.5 c 6.7455,-2.6982 3.528,-7.1523 0.45,-12.15 l 3.15,-1.35 m 26.55,0 -6.885,10.7514 -4.059,2.9349 -4.8645,6.44715 -6.2415,5.96655 m 110.7,-26.1 c -2.565,4.39155 -4.8825,8.9874 -9,12.15 -0.2025,-3.31875 2.8125,-4.80555 0.45,-8.1 m 54.45,-4.05 0,4.5 m -134.55,-3.6 11.7,5.85 m 137.700005,-5.85 0,2.25 m -271.8,-1.8 2.7,0.45 m 86.399995,0 3.6,-0.45 m 12.15,0 -1.8,2.25 m 135.9,-2.25 -0.9,1.8 m 36.000005,-1.35 0,0.9 m -184.950005,-0.45 4.5,9.9 m -105.749995,-9.45 -1.35,3.15 m 7.2,-3.15 9.9,4.95 c -2.0997,3.26025 1.75545,3.79845 2.32605,6.75 0.3222,1.6677 -1.2978,3.63375 -1.42605,5.4 m 45,-17.1 1.8,3.15 m 27.899995,-3.15 c -2.92545,4.06395 0.8559,6.9201 2.43,10.8 0.9135,2.2617 1.3455,5.4459 4.32,4.05 m -51.749995,-13.95 2.25,0 m 83.699995,0.45 c 2.853,2.2014 6.7725,3.96405 10.35,4.5 m -110.249995,-3.6 1.35,0 m 15.75,2.7 c 4.0374,3.85245 9.8217,7.1262 15.3,4.06575 2.9961,-1.674 8.3376,-7.81875 11.6964,-6.10965 3.018145,1.5354 1.4787,3.5649 2.1204,6.0939 0.608845,2.39805 2.411545,4.30155 2.976745,6.75 0.31725,1.37295 -0.16785,5.0022 2.10645,4.7403 2.64915,-0.3051 1.47555,-4.0338 1.17495,-5.6403 -0.8217,-4.3938 -0.0058,-9.6363 -5.67495,-9.9 m -67.949995,-1.8 -4.95,5.4 m 115.199995,-4.95 -9.45,10.35 c -0.504,-3.43935 4.491,-6.98535 7.2,-8.55 m 157.95,-1.8 c 0,6.6816 0.108,13.60305 -0.5265,20.25 -0.423,4.4496 -1.845,10.4445 -0.6795,14.83065 0.702,2.6469 3.694505,2.7729 5.607005,4.06215 3.0825,2.079 7.128,11.86065 12.2085,10.5435 2.376,-0.6165 4.293,-5.98725 5.8905,-7.8363 m -19.35,-41.85 c 2.3985,3.3327 2.016,8.62515 2.2905,12.6 0.5895,8.58015 2.637,17.22645 -0.0405,25.65 m -170.100005,-37.8 -2.25,3.15 m 112.5,-2.7 -2.25,2.7 m -210.599995,-2.25 -0.45,3.6 m 6.75,-3.6 c 2.89035,1.3131 3.68955,2.92905 2.25,5.85 m 53.1,-5.85 5.85,3.15 m 12.149995,-3.15 c -0.7245,3.6072 1.9197,14.2605 6.75,10.8 m 33.75,-10.8 10.8,4.5 m 85.5,-4.5 -2.25,2.7 m -203.849995,0 c 2.84355,-1.2078 6.60375,-2.4111 9.45,-0.9 m 54.449995,-0.9 4.5,0 m 29.7,0 0.9,0.9 m -32.4,-0.45 c 0.0306,3.67155 1.23345,14.6052 6.3,10.8 m -79.199995,-9.45 -0.9,2.25 m 115.199995,-2.25 6.75,4.05 m 79.65,-4.05 0.9,0.9 m 13.5,-0.45 -2.7,3.6 m 6.75,-3.15 -2.25,3.6 m -17.1,-2.7 c -4.833,3.93525 -9.099,8.30025 -14.4,11.6757 -13.0545,8.31015 -30.231,14.0913 -45.45,16.60905 -8.4915,1.4049 -15.822,3.168 -24.3,2.7828 -2.943,-0.13365 -7.5285,-1.40085 -9.6255,1.4337 -3.0915,4.17555 6.057,6.26265 7.3755,8.89875 l 14.85,-0.94005 17.55,-3.2796 33.3,-12.88035 m -65.7,-23.85 c 0.936,2.1069 3.276,3.56445 2.25,5.85 m 125.55,-5.85 0,0.45 m -194.849995,0.9 c -3.23325,7.19955 -6.39585,15.0498 0.2295,21.3462 1.3149,1.24965 3.6252,1.47105 5.1705,2.5038 -3.34395,3.5271 -5.45355,9.0954 -5.85,13.95 m 241.2,-37.8 7.65,29.25 m 24.75,-27.45 c 2.7495,-1.485 8.424,-2.5965 11.25,-0.89595 4.4595,2.6856 8.775,11.853 4.05,15.74595 m -232.650005,-16.2 -6.3,7.2 m -21.15,8.1 c -1.95795,0.77445 -3.2922,2.75535 -5.4018,3.0834 -5.646595,0.8775 -21.078895,-3.4839 -19.989445,-11.1834 0.93915,-6.63885 10.0521,-7.6527 12.79125,-1.8 m 33.749995,-3.6 1.35,-0.45 m 140.4,0 -2.7,4.95 m -126,-4.5 3.6,2.25 m 80.1,-2.25 -2.25,1.8 m 14.4,-1.8 -1.8,1.8 m 18.9,-1.8 c -3.726,6.37875 -7.758,12.57075 -11.574,18.9 -1.5795,2.6226 -2.394,5.6736 -4.4145,8.0532 -7.146,8.4114 -17.1045,14.3028 -23.6745,23.1831 -2.349,3.1761 3.9825,10.6497 0.369,12.76335 -2.2005,1.28925 -4.257,-1.9746 -5.7465,-3.0528 -2.5515,-1.8441 -5.8185,-0.9981 -8.487,-2.45205 -1.4805,-0.8082 -1.809,-2.97585 -3.29849995,-3.53295 -3.11400005,-1.16595 -6.97050005,2.0349 -9.77400005,2.83635 -3.2535,0.93015 -4.464,-2.16135 -7.218,-2.079 -2.466,0.0742 -3.555,2.98215 -5.832,3.44385 -2.07,0.42075 -3.33,-2.29545 -3.0285,-4.023 0.369,-2.10645 3.1455,-3.17205 4.8285,-3.9897 4.896,-2.37735 9.8055,-6.0768 15.3,-6.93675 2.1375,-0.3348 3.663,1.34955 5.85000005,0.5589 3.93299995,-1.42155 7.50149995,-4.80375 11.24999995,-6.7725 m -78.75,-36.45 -1.35,1.8 m -53.999995,5.85 -4.5,-4.5 -3.6,3.6 c -1.50885,-1.00845 -3.9267,-1.2879 -5.1624,-2.56635 -1.79685,-1.85895 0.8505,-3.3372 2.46285,-3.5964 3.79665,-0.6102 8.2242,0.76275 12.14955,0.76275 m 98.549995,-0.45 15.3,4.95 m -119.699995,-4.05 0,1.35 m 54.449995,-1.35 -4.95,3.15 m 54.9,-2.7 0,4.5 m -36.45,-4.05 6.75,5.4 m 116.55,-5.4 c 1.53,2.88495 0.2835,4.64895 -2.25,6.3 m 22.5,-6.3 c -0.081,9.98235 -0.918,19.81035 -2.3085,29.7 -0.3375,2.4156 -2.556,11.7288 -5.7915,5.85 m -19.8,-33.75 0.9,-0.45 m 23.85,0 0,0.45 m -170.55,0 -4.05,1.35 m 32.85,-1.35 7.2,6.75 m 74.25,-1.35 8.1,-4.95 m 9.45,0.9 c 0.4185,1.87515 -0.153,2.6766 -1.8,3.6 -0.5085,-1.8945 0.0675,-2.7477 1.8,-3.6 m -135.45,0.45 c -3.576145,2.46375 -8.488345,1.98135 -8.549995,7.2 m -25.2,-6.75 c 0.2106,2.6442 2.70855,3.66165 4.5,5.4 l -6.3,4.05 m 69.299995,-9.45 4.95,4.95 m 89.55,-4.5 -0.45,0.45 m 4.5,0 0.45,0 m -166.499995,1.35 c -2.51955,2.51955 -5.34825,4.92165 -7.0542,8.1 -1.1502,2.1429 -1.1826,5.211 -2.66085,7.083 -2.9943,3.7926 -7.88175,4.24215 -10.1295,9.117 -1.3968,3.02985 -3.0294,9.738 1.4418,11.3463 5.9967,2.15775 5.71725,-9.76005 11.2014,-8.9847 3.46815,0.49005 3.74265,4.6467 6.3486,6.23475 2.745,1.6722 5.61645,-1.47825 8.496,-0.74475 3.5721,0.91035 4.0878,5.3388 8.55675,5.1543 4.96935,-0.2052 3.483,-7.4187 8.1018,-7.7706 4.66335,-0.3555 9.937345,3.89925 14.391445,1.70685 2.3058,-1.1349 2.71035,-3.4218 3.61485,-5.59215 2.22615,-5.34285 3.4164,-8.55 -0.0081,-13.95 6.4035,-4.62195 6.9885,4.4199 12.15,3.73815 6.039,-0.7974 1.2735,-7.1649 2.133,-10.46205 0.99,-3.7998 3.8025,-0.4563 4.4505,1.323 0.3825,1.0458 0.747,2.0853 1.0665,3.1509 m 94.5,-8.55 -12.15,7.2 m 31.05,-6.75 c -6.7095,10.39815 -16.0965,21.60675 -25.65,29.4912 -5.958,4.91445 -13.4325,7.9083 -18.89999995,13.2588 m 78.74999995,-42.75 0,4.5 m -149.85,-3.15 2.25,-0.9 m -57.599995,1.35 2.25,0.9 c -3.33135,3.5919 -9.59895,19.1277 -16.2,11.7 m 216.449995,-12.6 0,0.45 m -38.25,0.45 -1.8,1.8 m 7.2,-1.35 2.25,3.6 m -123.3,2.25 c -0.6795,-3.0177 -0.8955,-4.824 2.7,-5.4 m -11.25,0.45 c -2.49615,1.4517 -4.9041,2.7927 -7.65,1.35 m 56.25,9.45 c -1.9215,-1.6722 -4.3425,-2.6127 -6.2055,-4.35105 -2.6145,-2.4399 -2.655,-5.79915 1.2555,-6.318 5.4945,-0.72855 11.9385,0.31905 17.55,0.31905 m 58.05,-0.45 -0.45,0.45 m 136.350005,-0.45 c 1.5255,2.2842 0.495,3.73095 -0.9,5.85 m -0.45,-4.95 2.25,2.25 m -252.450005,1.8 3.6,-2.7 m 112.95,0.45 -4.05,4.05 m 46.35,-4.05 0,10.35 c 2.0655,-1.72035 1.8,-3.78855 1.8,-6.3 m -142.2,-3.15 c -1.089,5.2722 -3.8295,8.5545 -9.45,5.85 m -56.699995,-5.4 -6.3,5.4 m 161.999995,-5.4 c -9.4635,8.69085 -22.455,15.92955 -34.65,19.94805 -7.29,2.4021 -16.497,2.1096 -22.833,6.93405 -3.888,2.95785 -9.3915,8.8344 -11.7,13.1679 -1.3275,2.493 -1.386,6.11235 2.133,6.5529 7.8435,0.9819 8.001,-10.79325 15.3,-11.9529 m 66.15,-32.85 c 1.8405,-1.3023 2.7,-1.40175 4.5,0 m -162.899995,-1.35 c -3.4632,3.64005 -2.05965,7.84395 -3.15,12.6 m 8.1,-0.45 c 0.8676,-2.71395 3.5361,-6.92145 2.25,-9.45 3.25665,-1.7316 6.02955,-1.9215 9,0.45 -2.47995,3.0384 -2.4012,7.0119 -2.7,10.8 m 22.049995,-12.6 0.9,5.85 m 108.9,4.95 c -4.293,-4.5522 5.094,-11.4381 9.45,-9.9 m -126.45,7.2 -1.8,-6.75 3.6,-0.9 m -24.749995,0.45 1.35,0.45 m 166.499995,5.85 c -4.239,-1.20465 -2.5875,-4.70565 0.45,-6.3 m -16.2,0.45 -2.7,3.15 m -138.599995,-2.7 3.599995,0.45 c -1.0179,2.60325 -2.771095,6.4287 1.35,6.75 l -1.35,-5.4 m 0.45,-1.8 5.85,-0.45 m 107.55,0.45 -12.6,6.75 m 68.85,-6.75 c -0.972,7.695 -1.7145,15.3225 -3.24,22.95 -0.4905,2.45925 -2.3085,7.43445 -1.1205,9.80685 0.6615,1.31895 1.9845,0.53505 2.565,-0.39195 1.611,-2.56005 1.35,-6.01065 3.4335,-8.4123 2.2005,-2.5416 5.832,-1.44585 6.462,-5.5026 m -210.599995,-11.25 c 2.988,-2.99655 5.0319,-6.09705 9.45,-6.75 m 27.449995,0 0.45,9 m 239.400005,-4.95 c 1.7055,-1.8045 2.8395,-3.0096 5.4,-3.15 m -272.7,0.45 -4.5,6.3 m 16.2,-6.3 c 1.81665,2.5281 1.00575,4.7853 0.45,7.65 m 70.649995,-7.65 -3.15,3.15 m -35.55,-2.25 c -2.3085,4.3209 -1.548,5.4 -7.2,5.4 m 62.1,-0.9 13.05,-3.6 m 61.2,0 -1.35,2.25 m 46.8,-2.25 c -1.845,2.56095 -1.8,5.95665 -2.367,9 -0.9,4.81545 -2.0115,9.64845 -3.1995,14.4 -4.941,19.75905 -8.154,42.75 -4.5765,63 1.548,8.7588 5.7555,17.3646 9.81,25.2 4.189505,8.09505 12.730505,17.8731 22.383005,18.82305 3.888,0.38295 7.4385,-1.3599 11.25,-1.6398 2.628,-0.1926 4.941,1.07685 3.681,3.96495 -1.5975,3.65535 -6.2865,5.06475 -9.981,4.8573 -8.1135,-0.45585 -19.3005,-3.63285 -25.632005,-8.82405 -3.069,-2.5146 -4.6125,-6.86115 -7.7625,-9.0882 -2.6235,-1.85625 -4.473,1.4364 -7.0605,0.19035 -3.2085,-1.54665 -3.312,-6.6114 -5.67,-9.0423 -1.494,-1.54305 -3.924,-1.12455 -5.31,-2.9061 -2.3895,-3.06855 -2.691,-8.3718 -3.0915,-12.0852 -0.954,-8.9343 -0.6795,-16.68645 0.396,-25.65 0.5085,-4.21245 0.207,-9.0549 2.8305,-12.6 l 2.7,2.25 c 2.1285,-3.98205 2.6145,-10.0521 -0.45,-13.5 -2.808,3.28725 -2.25,7.16985 -2.25,11.25 m -215.099995,-57.15 2.25,2.25 1.35,-1.8 m 215.099995,0.9 -3.6,17.55 m -213.299995,-16.65 -7.2,10.35 m 169.199995,-7.65 2.7,-2.7 m -124.2,0.45 -0.899995,2.25 m 4.049995,-1.35 -0.45,3.6 -1.35,-1.8 m 174.6,-1.35 1.35,2.25 m -24.3,-1.35 -4.05,3.15 3.15,3.15 m 8.1,-3.6 -3.528,9.4239 -11.3085,20.2761 0.81,10.35 -3.9735,9.9 m 6.3,-49.5 0.45,0 m -5.4,5.4 -1.35,-2.7 4.5,-2.25 m -98.1,2.25 c -7.209,5.33565 -19.2285,4.84875 -27.45,8.8902 -9.4032,4.62285 -19.4427,11.0763 -24.183445,20.8098 -3.1689,6.507 -2.2194,17.14365 7.533445,13.7034 9.47115,-3.3408 -1.25145,-10.5948 4.203,-16.81155 3.132,-3.5694 9.2115,-9.612 13.797,-10.93725 3.9735,-1.1484 8.1585,-0.4437 12.15,-1.4697 5.67,-1.45845 10.8315,-4.0923 16.65,-5.27445 4.6395,-0.9423 12.078,-3.32595 16.2,-0.36045 m 68.85,8.1 c 0.441,-2.76525 3.1365,-4.0149 3.6765,-6.42195 0.2655,-1.17405 -0.873,-2.02995 -1.0935,-3.10455 -0.459,-2.2563 1.2915,-5.6034 2.817,-7.1235 m 36.45,0.45 0.9,2.25 m -44.1,-1.35 -2.7,2.7 m -0.9,-2.25 -6.75,7.2 m 54.9,-2.7 c 0,3.74445 0.297,8.5518 -0.738,12.15 -1.1385,3.9663 -4.1985,6.9336 -2.412,11.25 l 2.7,-4.05 m -81,-18.45 -13.95,9.9 m 35.55,-5.4 c 5.6745,5.0445 7.4025,-1.46205 12.15,-3.84435 2.169,-1.08945 4.1175,-0.20385 6.3,0.24435 m -45.9,0 -4.5,2.25 m 49.5,-2.25 c -5.391,5.51925 -8.046,13.83435 -11.367,20.7 -2.079,4.29975 -5.121,8.76375 -6.066,13.5 -0.4365,2.1852 1.089,3.7476 0.783,5.85 l -2.7,-2.25 c -5.1705,5.27985 -10.008,11.46105 -14.202,17.55 -1.26,1.8306 -1.6155,4.49865 -3.12749995,6.07725 -2.88000005,3.00555 -6.28650005,5.68935 -9.22050005,8.77275 -1.0755,1.1331 -3.177,2.8116 -3.3345,4.4892 -0.297,3.21345 3.465,0.30915 4.2345,-0.44145 3.3885,-3.3021 6.48,-6.3261 9,-10.34775 l 2.25,1.8 -2.25,-4.05 m 55.35,-61.2 c -0.153,7.4088 -3.8025,14.7996 -5.193,22.05 -2.682,13.9887 -3.807,28.54485 -3.807,42.75 0,5.21775 0.0765,10.1655 0.8235,15.3 0.2835,1.944 0.3555,5.0679 2.016,6.4161 2.322,1.8828 6.3315,0.738 6.543,-2.36655 0.2655,-3.91005 -1.908,-8.26875 -3.5325,-11.69955 l -5.4,-0.9 m -49.95,-68.85 1.35000005,-0.45 m 40.94999995,0 0.9,1.35 m 34.2,1.8 -4.5,16.65 m -30.15,-14.85 c 1.8585,5.37975 -3.6,8.5878 -5.2605,13.05045 -1.5615,4.17825 -4.4415,5.598 -6.498,9.0243 -1.4085,2.3481 -1.4805,5.19975 -2.9115,7.62525 -3.816,6.46425 -8.775,10.8135 -13.995,15.9237 -2.9385,2.8755 -5.4855,7.83855 -9.585,8.8263 m 65.25,-50.85 c -1.062,5.0616 -4.779,8.4915 -5.3235,13.95 -0.144,1.44 -0.5265,4.68225 1.3365,5.2443 1.9665,0.59265 2.5245,-2.15145 2.763,-3.4443 0.6975,-3.7467 2.727,-8.35515 0.324,-11.7 m -31.5,-1.35 0.9,3.15 m 48.15,-0.45 0,0.9 m -54.9,9.9 c 0.369,-4.6359 1.827,-7.965 5.85,-10.35 m 2.25,0.45 c 1.9125,1.91295 3.4335,4.2849 6.3,3.15 l 0.45,0 m 36.9,-2.7 -0.45,3.15 m -4.5,0.45 -0.9,4.95 m -33.3,-4.5 c -1.4085,3.86685 -2.763,8.69985 -5.0265,12.13065 -1.0485,1.584 -2.862,2.41245 -3.771,4.0887 -2.2275,4.1076 -2.7585,9.2862 -4.941,13.48065 -1.701,3.2688 -3.9195,5.8005 -5.0175,9.45 -1.233,4.10085 0.5445,6.19335 1.908,9.9 0.522,1.4148 2.214,3.27285 0.8235,4.7286 -2.079,2.1825 -4.383,-3.94785 -5.5755,-5.1786 -1.953,2.42055 -3.7575,6.68745 -3.492,9.9 0.243,2.95875 3.042,4.18185 4.392,1.35 m 49.05,-57.15 -0.9,1.8 m -170.099995,1.35 c 0.0855,2.628 0.971995,3.5145 3.599995,3.6 m 139.95,-2.7 0.45,4.95 m 38.7,-4.95 0,2.7 m -18.45,-0.45 c -0.9675,4.64535 -2.844,10.24695 -5.256,14.3532 -1.2195,2.0718 -3.1905,3.04695 -4.032,5.4468 -2.4705,7.0425 -1.062,14.79285 -1.062,22.05 m -33.3,-35.55 7.65,-5.85 m 8.55,4.05 4.05,12.15 m -22.5,-10.35 0.9,-0.45 m 18.45,0.9 -0.9,10.35 m 39.15,-7.65 -0.3735,26.1 2.1735,23.85 m -35.1,-47.7 0,2.7 m 40.05,-2.25 0,4.5 m -58.05,-0.9 c -7.461,14.22945 -17.415,28.08315 -23.0175,43.2 -0.75149995,2.025 -0.50849995,4.2327 -1.28249995,6.3 -3.19050005,-3.1437 -5.64300005,-2.4579 -6.38550005,2.24955 -0.45,2.85345 2.637,2.6973 3.222,4.97655 1.0035,3.8898 -0.7245,13.3704 -2.2995,17.05455 -1.2375,2.8854 -5.022,4.77135 -6.75,7.66935 -7.5465,12.67965 -14.274,25.173 -15.7635,40.05 -0.576,5.7645 0.018,11.889 -1.4085,17.55 -0.855,3.3705 -3.969,3.9735 -6.615,2.25 -1.296,1.4445 -2.835,5.139 -4.959,5.319 -2.817,0.2475 -4.491,-3.8295 -7.4655,-1.0755 -3.753,3.483 -3.411,10.134 -6.462,14.1435 -1.296,1.701 -3.7125,1.962 -5.4135,3.186 -2.025,1.458 -3.1005,3.69 -4.9905,5.238 -1.3365,1.0935 -3.114,1.3905 -4.401,2.565 -2.592,2.3715 -2.7,11.3625 -6.003,12.204 -2.646,0.6705 -4.3695,-5.373 -5.7555,-6.93 -1.1745,1.287 -2.61,2.7 -2.8845,4.5 -0.513,3.321 1.602,7.56 -1.66455,10.035 -5.47425,4.1535 -14.095795,-1.1205 -18.242545,5.715 -4.131,6.813 -6.7995,14.976 -9.30825,22.5 -1.35945,4.077 -2.25315,9.3735 -5.70015,12.15 -1.69785,-2.6505 -0.6624,-5.67 0.0571,-8.55 1.6191,-6.48 3.0888,-13.032 5.2803,-19.35 9.32895,-26.8875 24.218095,-53.3295 39.964045,-76.95 3.717,-5.58 7.9335,-10.917 11.4075,-16.65 0.9495,-1.566 1.008,-3.438 1.998,-4.95 2.0835,-3.186 6.588,-6.273 3.843,-10.35 6.192,-5.80635 12.6495,-11.322 18.9,-17.0613 2.5065,-2.3013 6.039,-4.28535 4.5,-8.1387 l -36,20.89215 -21.15,11.50785 2.25,2.25 1.35,-2.7 m 132.3,-100.8 0,0.45 m 13.5,0 3.834,10.8 1.7055,8.0037 3.4605,1.8963 m -52.65,-16.65 c 1.701,4.6746 -4.8465,8.5761 -7.0065,11.92275 -3.294,5.10345 -6.489,11.4201 -10.692,15.92865 -1.3635,1.467 -3.2895,2.0169 -4.797,3.29985 -2.0745,1.77075 -3.537,4.4055 -5.895,5.8473 -1.6065,0.98325 -3.6495,0.91215 -5.283,1.8378 -1.5525,0.87885 -2.4525,2.6406 -4.1265,3.33675 -1.296,0.53865 -2.7045,0.0837 -4.05,0.5769 m 54.45,-40.95 c 4.446,4.70475 1.44,7.90155 0.0765,13.1787 -0.6075,2.33145 0.2295,4.36545 -0.9765,6.6213 m 7.2,-19.8 c -0.603,2.5398 -0.5625,4.5369 0.9,6.75 2.169,-1.80675 1.8,-4.1283 1.8,-6.75 m 6.3,1.35 0,5.4 m -31.95,-4.05 1.35,1.35 m 12.15,2.25 4.05,4.05 m 6.3,-3.6 2.7135,37.8 3.1365,15.3 3.15,2.7 2.7,-1.35 0.45,0.45 0,0.45 0.45,0.45 m -40.95,-54 1.35,0.9 m 72,0 c 0.036,12.94515 6.867,23.9391 8.55,36.45 m -87.3,-36 0,0.9 m 40.95,0.9 c 0.999,5.63805 0.0945,11.79135 0.4905,17.55 0.567,8.27775 2.2005,15.2235 4.761,22.95 1.071,3.231 2.2095,7.5366 4.293,10.2654 0.9315,1.22085 3.051,1.4481 3.9015,-0.0567 1.1565,-2.0358 -0.8055,-6.3882 -1.449,-8.4087 -1.9035,-5.958 -5.9535,-13.437 -4.347,-19.8 m -27.45,-21.15 -1.35,4.05 m 2.25,-4.05 4.05,0 m -34.2,14.85 c 0.3195,-3.66255 2.8665,-8.69355 7.20000005,-7.65 m -13.05000005,1.8 c -0.504,1.92285 0.486,2.4795 2.25,1.8 m 37.35,-0.9 c 3.7935,6.58035 -0.135,15.26535 3.15,22.05 l 3.15,-2.25 3.6,2.25 m -50.4,-21.6 c -7.74,6.3036 -13.671,11.0403 -22.9275,14.96205 -2.403,1.0197 -2.961,3.4209 -5.8725,3.48795 m 94.5,-18 0.9,5.4 m -63.9,-4.05 -0.45,2.25 0.45,-1.35 m 0,1.35 2.7,2.7 m 25.2,-1.35 -5.364,12.6 -4.923,15.3 1.0935,8.55 -2.0565,10.8 0,0.45 0,0.45 0.45,0.45 m 14.4,-46.35 c 2.6865,3.69225 3.087,5.44905 7.2,8.1 m 59.4,-8.1 0.9,0.9 m -73.35,1.35 c 2.1195,2.5713 1.2375,4.67775 0.45,7.65 m 17.1,-7.2 0.9,9 m 56.7,-7.65 3.15,5.85 m -170.1,12.15 c -2.493,0.65565 -2.5155,3.32685 -4.545,3.9069 -7.81065,2.23335 -17.28,-3.0726 -24.704995,-4.85235 -3.47625,-0.8334 -7.54785,-0.70245 -10.78245,-2.40975 -3.1023,-1.638 -8.49555,-5.58495 -10.67445,-8.36235 -1.0386,-1.3239 -1.47465,-3.44025 0,-4.6593 2.0214,-1.67085 5.9769,0.5895 7.9569,1.46475 6.3216,2.7945 13.0338,8.4258 19.797745,9.78435 3.0798,0.6183 3.1581,-3.01455 6.3027,-2.62395 11.01105,1.36665 22.54455,6.51015 33.74955,2.45745 4.9815,-1.80225 2.097,-6.67215 5.1435,-9.16965 3.195,-2.6181 12.492,0.48105 16.4565,0.5139 m 24.75,-3.15 c -0.873,4.2246 -2.6325,6.27885 -5.4,9.45 -2.592,-1.8099 -7.5825,-0.3438 -7.0065,3.59145 0.5175,3.582 4.581,1.26675 5.778,-0.459 0.558,-0.80325 0.864,-1.7838 1.2285,-2.68245 m 41.85,-9.45 c -0.2205,5.1057 -3.7215,7.39125 -4.842,12.15 -4.014,17.03655 -9.0765,35.47845 -9.108,53.1 -0.009,5.1885 -1.8855,11.7945 0.45,16.65 l 4.05,-3.15 c 1.4085,1.1475 2.7405,2.34 4.05,3.5955 1.053,1.0125 6.03,5.2335 6.3225,1.3275 0.3825,-5.0715 -5.5305,-13.5 -0.972,-18.2025 1.089,-1.125 3.564,-0.5535 4.9995,-0.612 4.9275,-0.189 9.18,1.593 12.933,-2.7675 4.3875,-5.094 1.782,-10.69425 -0.6435,-16.191 -5.4,-12.22155 -7.515,-24.33645 -10.0395,-37.35 m -54.45,-7.65 -1.8,2.25 m 22.5,0.45 4.05000005,-2.25 m -21.60000005,1.8 c -0.504,-1.0368 -0.648,-1.08315 0.45,-0.9 m -12.6,2.25 7.2,-2.25 m 38.25,3.15 c 3.6585,4.3263 0.0135,11.0124 0,16.2 m -50.4,-13.5 9.45,-1.8 m 50.85,0 c 3.141,4.36725 0.09,13.5288 0.4905,18.9 0.252,3.33495 2.655,4.77405 3.7395,7.65 1.305,3.4641 0.477,7.2864 0.9225,10.78245 0.3825,3.0024 1.5975,5.18805 1.5975,8.56755 m -28.79999995,-45.45 -3.15000005,4.95 m -24.75,-3.15 -1.35,2.25 3.15,0.45 m 121.5,-1.35 1.8,1.8 m -126.45,-0.9 -5.85,2.7 m -14.4,-2.25 c -4.752,4.09725 -11.142,4.77495 -17.1,6.4863 -1.3455,0.387 -3.1185,-0.067 -4.311,0.7263 -3.159,2.09835 -0.6165,5.8023 1.161,7.6374 l 4.5,-4.05 -1.8,-3.6 m 112.05,-7.2 -3.6,5.4 m -138.6,-4.95 17.1,6.3 m 39.15,-3.6 -4.95,0.45 6.3,-3.15 m 13.05,15.3 6.2955,-3.7314 4.1265,-4.41495 2.178,0.49635 c 2.493,-3.8313 2.9205,-5.60025 7.65,-7.2 m 1.35,0 c -1.125,1.1376 -7.839,9.2457 -4.014,10.08585 1.3815,0.3042 3.5145,-1.1997 4.914,-1.53585 m 42.3,-8.55 c -1.647,1.8216 -1.8765,3.00645 -1.8,5.4 m -154.799995,-4.95 c -3.5919,3.0474 -9.9333,2.11995 -14.4,1.5408 -2.52585,-0.32715 -5.88285,0.0634 -6.7716,2.96595 -1.2852,4.19715 10.0125,3.6774 12.6216,4.19445 3.6639,0.72585 7.6806,0.495 11.25,1.3401 1.6317,0.38655 2.8557,1.63665 4.5,2.04615 5.94225,1.48005 13.702045,1.9143 19.799995,1.386 2.19645,-0.1899 3.68235,-1.8909 5.85,-2.22345 m 34.65,-9.9 4.95,0 m -153.899995,18.45 c -0.6795,4.2489 -5.5899,1.55655 -8.1,0.33345 -9.513,-4.63635 -16.80615,-8.57295 -27.45,-9.97425 -2.65095,-0.3492 -10.98585,1.14615 -10.93635,-2.96595 0.0369,-3.05865 2.6406,-3.7908 5.08635,-4.37355 4.75065,-1.1322 9.7884,-0.8766 14.4,0.98415 6.66765,2.69055 13.21425,6.5115 19.35,10.23795 2.3661,1.4373 5.04675,4.40235 7.65,5.1948 2.42505,0.73755 4.51035,-3.0168 7.2,-3.01905 1.85805,-0.002 3.21525,1.06605 4.95,1.5129 3.8268,0.98505 7.92135,1.2726 11.7,2.39355 9.4311,2.7981 17.21565,9.9405 27.85995,8.1594 4.66335,-0.7803 4.1238,-7.3332 0.04,-8.4834 m 102.149995,-17.55 -18.45,7.2 c 4.6755,4.2255 11.205,-0.2655 16.65,-0.34695 1.971,-0.0292 3.4245,1.83015 5.4,1.2681 4.977,-1.41615 7.5735,-7.3692 12.6,-2.72115 l 4.95,-5.4 m -215.999995,0.9 0,0.9 m 284.849995,-0.9 2.25,7.65 m -62.1,-5.4 2.7,-1.8 m -40.95,2.7 c 3.0645,1.38465 7.6185,-0.6228 10.8,-1.35 m 66.15,0 c 2.2005,0.35595 2.9385,1.79685 4.05,3.6 m -41.4,-3.15 0,0.9 m -125.549995,0 c -0.77445,1.11465 -1.43955,2.77335 -2.75985,3.32865 -2.10105,0.88335 -4.78575,-0.54405 -6.3495,1.68795 -2.7612,3.94245 5.31045,6.8526 7.29495,4.57155 1.01655,-1.16775 0.36765,-4.635 0.0144,-5.98815 m 121.949995,-3.6 -3.6,5.4 m -150.299995,8.55 c 3.18195,-3.82005 8.96715,-0.3375 13.00095,-2.4453 4.77135,-2.49255 -2.8494,-11.50965 6.34905,-10.5561 0.96975,0.10035 1.8333,0.39915 2.6991,0.84105 1.1871,0.6057 2.1555,1.38915 3.1509,2.26035 m 134.549995,-3.15 -1.8,2.25 m -63.45,-1.8 6.75,0.45 m -18,0 c -6.54615,5.8167 -17.361895,-2.8494 -23.849995,1.8 m 84.149995,-1.8 c -0.9945,4.9203 -5.031,2.808 -8.1,0.9 m -52.65,-0.45 2.25,3.6 m 77.85,-3.6 -2.124,6.29325 -10.4985,10.026 -6.2775,2.13075 m 66.15,-18.45 c 0.6885,2.4246 2.196,3.5154 4.5,2.25 m -106.2,-1.35 0.9,0 m -59.399995,0.45 c -2.448,4.6899 3.03705,5.21505 6.3,5.7393 7.9713,1.28025 15.9237,0.5895 23.849995,1.5084 2.79045,0.32355 5.8068,-0.89955 4.95,-4.0977 m 46.8,-2.7 4.5,4.95 m 28.8,-4.95 -2.25,1.8 m 54,-0.9 1.8,-0.9 m -117.45,0.45 -13.5,4.5 6.3,5.4 c -4.0635,4.9464 -7.86105,4.00815 -13.5,4.032 -2.61225,0.0108 -3.9843,0.7839 -6.3,-0.882 l 15.3,-4.95 m 40.5,-8.1 c -4.203,3.97125 -13.536,7.9929 -19.35,8.4582 -3.555,0.28485 -6.6375,-2.313 -6.75,-5.7582 m 53.1,-2.7 c -2.367,3.08115 -7.0605,7.67835 -4.95,11.7 m -119.699995,-10.8 c 3.8007,2.3283 12.4623,2.89395 16.65,1.35 m 163.799995,-0.9 1.8,7.65 4.05,-2.25 c 4.779,3.87495 6.7995,8.6148 8.865,14.4 0.693,1.93635 0.81,4.4604 1.998,6.17445 1.116,1.6164 5.0085,2.2734 6.2235,0.43245 1.2645,-1.9143 -0.3015,-5.23035 -1.08,-7.0569 -2.3085,-5.4414 -8.2845,-10.62405 -8.3565,-16.65 m -85.5,-2.25 -0.9,0.9 m 9,-0.9 1.35,1.35 0.9,-1.35 m -44.55,5.4 c 4.0905,-3.7863 12.537,-4.93515 18,-4.95 m 55.8,0.45 c -2.493,3.36645 -2.1915,8.12655 -2.7,12.15 m 25.65,-11.7 1.2465,7.65 0.4905,8.42625 4.563,3.72375 m 8.1,-19.8 0.9,3.6 m -68.4,-3.15 -8.55,7.2 m -55.35,-6.3 1.35,0 m -18.449995,21.6 c -2.98215,2.9556 -7.6446,6.46425 -12.00915,3.58785 -1.0899,-0.7182 -1.6254,-2.54205 -2.39085,-3.58785 l 11.6982,-1.7334 4.09185,1.5309 6.709945,-2.7369 8.55,-0.0486 10.8,-4.21065 36,-14.40135 m -100.349995,0.9 4.95,1.35 c -2.3535,2.8881 -3.9033,4.0473 -7.65,4.05 m 22.05,-5.4 c -0.96615,1.64835 -2.4876,5.12865 0.1026,6.33555 1.1565,0.53865 6.30495,-2.28555 8.4474,-2.28555 1.6695,0 3.474,-0.20925 4.95,0.72135 1.4517,0.9153 2.6433,3.0429 4.5,3.1455 2.1735,0.1197 3.79755,-2.52675 5.399995,-3.6135 1.9665,-1.3338 4.3515,-1.5102 6.3,-2.95335 m 22.95,-0.9 c -3.2355,2.9097 -6.012,2.89755 -9.9,4.05 m 103.05,-3.6 c -5.0625,9.48285 -0.891,24.435 -0.45,34.65 m -159.749995,-34.2 3.6,0.9 c -1.8774,2.12175 -3.77955,4.14855 -6.75,3.15 m 6.75,-3.15 9,0 m -7.65,0 c 2.03535,1.4625 3.36465,1.4625 5.4,0 m 178.649995,0 -2.7,2.7 m -9,-1.35 4.0365,6.30675 2.2635,11.24325 m -52.65,-16.65 c -0.0225,8.0586 -2.8125,16.2513 -2.223,24.3 0.342,4.6935 3.7575,8.1225 -0.027,12.6 -2.565,-3.0375 -2.295,-7.6185 0,-10.8 m -137.249995,-25.2 c -2.6325,1.8936 -5.07465,0.96255 -8.1,0.9 m 138.149995,-0.9 -2.7,8.55 m -118.349995,-8.1 c 4.93965,4.15935 8.6058,5.62005 13.95,1.35 m 29.699995,-1.35 0,2.25 m 115.2,-2.25 3.15,9 m -225.449995,-8.55 c 1.78515,3.3606 5.643,4.51125 9,5.85 5.36535,2.13975 10.953,3.84795 16.65,4.8375 4.04775,0.70335 8.6454,0.47025 12.15,2.8125 -3.5244,3.05325 -7.7949,2.36205 -12.15,2.7765 -9.85725,0.93825 -19.8018,0.52425 -29.7,0.83025 -4.1679,0.12915 -8.26335,2.5434 -12.6,1.07865 -6.40575,-2.1636 -12.58245,-4.1823 -19.35,-5.58405 -2.0169,-0.4176 -5.57595,-1.7757 -7.57485,-1.03995 -2.9322,1.08 2.86425,5.2848 3.97485,5.85225 4.51845,2.3076 17.87355,4.04055 22.05,1.03635 m 78.3,-18.45 c 0.004,1.70685 -0.25965,4.62555 0.90585,6.02865 1.69335,2.03805 7.27515,0.60795 8.99415,-0.62865 m -59.85,-4.95 4.05,1.35 m 83.7,-1.35 0.899995,0.9 m -21.149995,-0.45 4.95,1.35 c 1.32615,4.7079 5.2992,3.7476 7.65,0.45 l -7.2,-0.9 m 13.5,-0.45 c 3.567145,3.56445 6.355345,5.19075 10.799995,1.8 m 108.45,-1.8 c -4.0815,12.9015 -2.8215,28.476 -3.6,41.85 m -182.249995,-41.4 -8.1,4.95 m 71.55,-4.95 -3.15,1.35 m 135.899995,-1.35 2.25,0 m -134.099995,0.45 c -3.34665,8.7003 -18.37845,9.5004 -24.3,3.6 m 106.199995,-3.15 c -0.027,2.3238 -3.3795,7.3926 -2.196,9.18765 1.1295,1.71135 3.06,-0.39645 3.4695,-1.5417 0.6165,-1.7109 -0.2205,-2.78595 -1.2735,-4.04595 m 26.55,-3.15 -2.2725,13.05 -1.77749995,13.95 m 25.19999995,-27 1.35,0 m -142.649995,0.45 c -3.6153,3.49875 -7.09245,4.0374 -10.8,0.45 m 100.349995,-0.45 c -0.9495,4.60665 -5.3865,3.79215 -7.695,6.77655 -6.255,8.09685 -9.873,16.91595 -15.705,25.17345 m -127.349995,-31.05 3.6,0.9 m 11.7,-0.9 c -1.9107,1.62225 -4.19805,2.81025 -6.75,2.7 m 210.149995,-2.7 3.6,2.25 m -213.299995,-1.35 2.7,0.9 m 188.099995,-0.45 1.8,0 m -170.549995,0.45 7.65,0.45 m 170.099995,1.8 -2.25,2.25 m -57.15,-1.35 c -1.1925,2.5191 -2.196,4.29435 -0.45,6.75 l 3.15,-4.05 m -15.75,-0.9 c 2.133,0.3006 -1.0485,4.21785 -1.6965,5.4 -3.069,5.5935 -8.3115,9 -5.9535,15.3 m -198.449995,-19.8 2.7,0 m 155.249995,0.45 c -2.58525,4.35915 -7.0641,6.64515 -12.149995,6.75 l -0.45,-4.95 m 78.749995,-1.35 -0.9,2.7 m -137.699995,-2.25 10.8,0.27135 5.85,3.74625 26.1,-3.1176 m 85.949995,0 0,0.45 m -43.2,15.3 c 1.2915,2.7 -0.585,4.527 -3.15,5.4 0.5895,-6.6915 4.977,-5.859 9.45,-7.65 l -2.7,-3.15 6.831,-4.77585 3.969,-4.4343 4.95,0.66015 m -121.949995,20.7 c 2.1267,-1.305 4.51485,-1.3185 6.75,-2.349 2.84805,-1.3185 5.0571,-3.2805 8.1,-4.2525 1.8108,-0.5805 3.762,0.315 5.39145,-0.81 1.59435,-1.098 5.5629,-5.823 5.10885,-7.8795 -0.73485,-3.33135 -5.12775,-1.84095 -7.3503,-1.84455 -7.32915,-0.0117 -14.2173,0.5715 -21.6,1.4553 -21.83445,2.61225 -43.24365,5.25825 -65.25,3.15675 -6.0075,-0.576 -10.36305,-0.9405 -15.76755,-3.4839 -2.80305,-1.31895 -4.83615,-0.9702 -6.73245,-3.7926 5.55255,-2.96325 15.19065,-0.369 21.15,0.45 3.2211,0.4428 6.16995,1.5858 9,-0.45 m 211.499995,-0.9 c -0.045,5.5665 -3.015,10.413 -4.275,15.75 -2.313,9.8055 -3.375,21.456 -3.375,31.5 m 91.8,-47.25 c -2.9925,4.16025 -1.305,13.149 -9.45,8.604 -0.9855,-0.5535 -1.8225,-1.143 -2.7,-1.854 m -101.7,-6.3 c -2.1105,2.2698 -3.6045,3.6243 -6.75,4.05 m 101.25,-3.15 0,0.9 m -182.249995,-0.45 -6.3,3.6 m 36,-3.15 -2.25,3.6 2.7,0.45 m 80.099995,-4.05 -1.35,1.8 m -229.499995,79.65 c 1.6092,-4.0905 5.9517,-5.742 9.45,-7.965 8.91135,-5.661 18.2313,-10.6785 27.45,-15.822 9.5724,-5.3415 19.52505,-10.431 28.8,-16.2405 2.8773,-1.8045 4.7664,-4.7745 7.6518,-6.4125 2.24865,-1.2825 4.70385,-2.97 7.1982,-3.699 3.01545,-0.8775 5.7006,-0.468 8.54325,-2.2725 2.00025,-1.269 3.01545,-3.438 4.9635,-4.752 7.59105,-5.13 16.88985,-8.4645 25.19325,-12.276 9.3411,-4.2885 19.4274,-10.04895 29.7,-11.5605 m 14.85,1.8 c -1.38735,2.907 -4.1229,3.3975 -6.74325,4.86 -4.79115,2.6685 -8.77905,5.2155 -14.40675,5.94 0.0585,-3.618 3.393,-4.5855 6.3,-5.76 3.82995,-1.548 7.3764,-3.8745 11.25,-5.2776 1.5318,-0.55575 3.11085,-0.009 4.5,-0.6624 m 68.849995,0 -0.45,0.9 m 67.5,0.9 0,1.35 m -190.799995,2.25 c -4.72815,0.0135 -9.42345,1.98 -13.95,3.2805 -7.5519,2.169 -15.20325,4.32 -22.95,5.6835 -18.0288,3.1635 -36.7821,2.034 -54.9,5.229 -4.42305,0.7785 -5.8185,-3.0465 -9.9,-3.6945 -2.56455,-0.4095 -19.0458,2.34 -12.5622,-3.996 0.70785,-0.693 1.48455,-1.332 2.2122,-2.0025 -3.40695,-2.5965 -8.0649,-1.9395 -12.15,-2.3265 -11.5947,-1.1025 -25.64055,-0.882 -36.44325,4.0995 -3.3651,1.5525 -5.44185,6.0255 -8.10855,8.559 -0.9279,0.8775 -2.4507,2.448 -3.9051,1.9485 -2.1033,-0.72 -0.6741,-4.3785 0.0968,-5.5305 2.583,-3.8565 6.8094,-7.137 11.01015,-9.099 9.7803,-4.5585 22.12155,-6.4899 32.85,-5.1705 6.516,0.7965 18.2241,4.482 23.85,0.3195 m 89.1,0.45 1.8,-0.45 m 46.35,2.25 5.4,-2.25 m 81.899995,0.45 -0.45,0.9 m 41.85,-0.9 -1.35,4.5 m -209.699995,92.25 c 3.8547,-4.4415 8.08065,-11.4435 12.6783,-15.012 2.32335,-1.8 4.8429,0.1845 6.95115,-2.1375 2.81745,-3.105 4.7484,-7.353 7.2513,-10.7505 4.54005,-6.165 9.69885,-12.0195 14.9868,-17.55 20.2203,-21.1455 47.1618,-39.582 74.232445,-50.85 m -94.499995,0.9 7.2,-0.45 m 142.649995,0 -1.35,2.25 m -40.95,-1.35 c -2.808,2.961 -6.0255,6.1515 -8.42265,9.45 -1.3959,1.917 -0.6075,3.4605 1.67265,2.7 m -4.5,-11.25 c -13.571545,10.431 -27.995395,19.4265 -40.949995,30.7305 -29.80395,25.9965 -59.51385,55.665 -82.38915,88.0695 -8.6814,12.2985 -16.15905,25.3485 -23.90085,38.25 -5.2605,8.766 -10.377,18.6705 -17.47755,26.1 -6.5727,6.876 -15.5259,11.7045 -21.24045,19.35 -2.9547,3.9555 -4.4568,7.6635 -4.3902,12.6 0.0247,1.845 0.2682,4.761 2.71755,4.824 2.94795,0.0765 5.1255,-3.636 6.57585,-5.724 4.2534,-6.1155 8.1594,-12.3885 13.6548,-17.5095 4.8879,-4.554 9.2556,-8.9955 13.1643,-14.4405 1.79685,-2.502 2.7675,-6.273 5.0112,-8.3565 2.8377,-2.628 6.7032,-0.99 9.47385,-4.6935 3.3705,-4.5045 4.36995,-10.4265 8.13375,-14.8095 2.4111,-2.808 5.5521,-1.548 8.23365,-3.519 2.48265,-1.8225 2.92815,-5.319 4.56795,-7.7625 1.10745,-1.6515 3.0492,-2.4525 4.0932,-4.104 3.8403,-6.075 6.6168,-13.4145 10.3275,-19.755 1.8126,-3.096 5.53635,-6.831 6.3459,-10.323 0.43335,-1.8675 -1.3149,-1.395 -2.3013,-0.927 m 116.099995,-108 0,1.8 m -89.549995,-0.9 0.9,3.15 m 59.4,12.6 -3.6,2.7 c 3.04065,0.8325 4.2318,-2.556 6.302245,-4.293 4.49145,-3.7575 9.08235,-7.9065 13.94775,-11.1555 1.899,-1.269 3.5415,-2.8845 5.85,-2.1015 m 29.7,2.25 c -2.8215,2.9565 -4.887,6.4395 -7.0245,9.9 -0.675,1.0935 -1.8045,3.5055 -3.339,3.5055 -2.6145,0 -1.125,-3.384 -0.3735,-4.4055 2.799,-3.8115 5.9085,-9.6525 10.287,-11.7 m -171.899995,0.45 2.25,0 m 37.35,0 1.35,0 m 72.45,40.95 c -1.962,2.3265 -2.83635,4.599 -1.92465,7.641 0.85455,2.8575 4.54455,3.5325 6.67935,1.5165 1.6668,-1.575 0.97605,-4.41 1.1718,-6.4575 0.3303,-3.456 1.3896,-6.4665 3.166645,-9.45 6.03135,-10.1295 16.55685,-17.631 25.55685,-25.011 3.897,-3.1905 7.8165,-7.4115 12.6,-9.189 m -132.299995,0.9 4.05,-0.45 m 46.8,4.05 9.45,-3.15 m -69.75,0.9 6.75,-0.45 m 39.6,0 -1.35,0.9 m 29.7,-0.9 4.5,0.9 m -195.75,-0.45 1.35,2.25 m 49.95,-2.25 53.1,0.9 m 134.099995,-0.45 0.9,0 m 42.75,0 -0.9,4.5 m -122.849995,-4.05 c -1.5129,2.6595 -3.98835,3.717 -6.75,2.25 m 126.899995,-2.25 -0.9,1.8 m -40.5,-1.35 2.25,0.9 -0.9,-0.9 m -42.299995,0.45 c -4.18275,3.375 -10.0746,4.851 -14.85,7.317 -12.88395,6.651 -26.2242,12.8115 -38.69325,20.205 -3.95505,2.3445 -7.3287,6.1515 -11.25675,8.7705 -30.29895,20.196 -56.38995,42.678 -75.57255,73.9575 -5.02425,8.1945 -9.3825,16.8165 -13.14495,25.65 -2.36025,5.544 -3.59595,11.3175 -7.1667,16.2 -2.02095,2.763 -7.1046,11.0925 -1.2222,13.2525 2.3454,0.864 2.61675,-2.3445 2.8827,-3.8025 0.73755,-4.05 2.82285,-7.515 -0.2763,-10.8 m 203.399995,-150.75 1.35,0 m -2.7,0.9 -1.35,2.25 -1.8,-1.8 m -89.099995,0.45 2.7,0.45 m 24.75,3.15 12.15,-4.05 m 44.999995,0.45 1.8,1.35 m 4.05,-1.35 0.9,0 m -41.849995,3.15 4.5,-2.7 m 70.649995,0 c 1.0755,2.6955 -0.4545,4.7475 -2.25,6.75 -1.611,-0.9225 -2.1465,-0.6795 -3.6,0.45 m -134.549995,-2.25 c 3.26295,-1.062 7.95735,-4.1715 11.25,-2.7 m 170.099995,-0.45 c 6.102,13.4235 9.414,28.2735 14.661,42.3 1.602,4.2885 2.826,12.6585 8.289,12.6 l -4.14,-18.45 -1.71,-25.2 m -213.299995,-10.8 c -3.20985,2.9745 -7.5618,3.6315 -11.7,4.6665 -6.3369,1.584 -12.6162,3.3885 -18.9,5.1705 -14.22405,4.032 -28.6101,9.6435 -43.2,12.0825 -13.84065,2.3175 -28.0971,1.5075 -41.85,4.0905 -7.2639,1.368 -16.9695,4.2525 -21.62205,10.476 -1.20465,1.6155 -7.1892,6.552 -3.02535,8.415 1.8846,0.846 3.82725,-1.422 5.0382,-2.502 3.00105,-2.673 6.7725,-5.3325 10.6092,-6.552 3.64905,-1.161 9.16605,-3.8565 13.0482,-3.177 3.2157,0.567 4.25025,4.167 8.1018,3.627 7.6716,-1.08 14.571,-5.1165 22.05,-7.002 3.26835,-0.819 5.74875,-2.592 9,-0.945 m 196.649995,-28.35 -4.95,4.95 m -5.4,-3.6 2.7,1.35 c -1.3923,2.655 -8.77005,7.371 -11.7,7.2 2.565,-3.6405 7.16535,-8.5455 11.7,-9.45 m 0,0.9 0,0.45 m -85.949995,0 -1.8,0.9 m -31.05,78.75 c 0.004,-8.2935 5.7114,-12.5145 10.4022,-18.9 2.5893,-3.5235 4.77135,-7.776 8.0883,-10.6965 1.8288,-1.611 4.2408,-0.909 5.99895,-2.484 2.5182,-2.259 3.789,-5.301 5.88195,-7.839 7.59735,-9.2295 16.95735,-19.8405 26.7786,-26.5995 4.74435,-3.267 9.68445,-5.823 14.39955,-8.892 2.67885,-1.746 3.76965,-4.1175 7.20045,-3.789 m -0.45,0.45 -4.05,1.8 m -53.55,-0.45 -12.6,5.85 m -1.8,-4.5 4.95,-0.9 m 33.3,4.5 9.9,-4.5 m 100.799995,0 -5.9355,15.75 -5.229,17.1 -7.2855,18 m -89.999995,-50.4 -0.9,0.45 m 115.649995,0.45 -2.25,7.65 m -123.749995,-4.5 5.4,-1.35 m 104.849995,0 c -0.7785,2.115 -3.258,8.451 -0.45,9 m 4.95,-9 c 0.576,2.5785 -1.3095,5.3865 -2.511,7.65 -2.079,3.933 -3.51,8.1855 -5.589,12.15 m -120.599995,-14.85 c 2.871,-2.187 6.23475,-3.9645 9.9,-4.05 m 37.35,0 -1.35,1.8 m 70.199995,2.7 7.2,-4.5 m -44.099995,1.35 -1.8,-0.45 1.35,-0.45 m -114.3,3.6 7.65,-2.7 m 173.699995,0 c -0.1755,2.979 -1.4625,8.6985 1.8,9.9 m -72.449995,-8.55 1.8,-0.9 m 0,0 0.9,0.9 m 0,-0.9 -3.6,4.05 m 12.149995,-4.05 -8.549995,6.75 3.6,-5.4 m -101.7,2.7 c 0.3204,-1.962 1.22625,-2.484 3.15,-2.7 m 160.199995,1.35 -1.35,2.25 m -166.499995,-1.8 -4.95,3.15 m 148.049995,-2.7 0.45,1.35 m 2.7,0.9 c -7.5465,9.8145 -13.095,22.9005 -16.866,34.65 -1.143,3.5595 0.0405,7.425 -1.584,10.8 m -94.499995,-20.25 c -2.9547,-3.6045 -0.018,-5.6205 0.9,-9.45 l -1.8,-0.45 c 2.03715,-5.823 10.44405,-7.5555 15.3,-10.7775 2.69055,-1.7865 4.34205,-4.0275 7.65,-2.2725 m 46.8,-0.9 -14.1345,15.3405 -42.5655,44.5095 m 96.749995,-59.85 -3.6,5.85 m -227.699995,11.25 c 0.25785,7.9155 13.74885,2.2725 18.40995,3.888 1.9377,0.675 2.83005,2.7045 4.99005,3.159 6.35085,1.332 10.4256,-2.6955 16.2,-2.8395 2.4822,-0.063 3.95865,2.9295 6.3063,2.6955 2.32695,-0.234 3.16125,-3.1275 5.40045,-3.5505 3.44475,-0.6525 6.74235,1.7955 10.34325,-0.099 3.1833,-1.674 5.7546,-4.365 9,-6.0525 6.2217,-3.231 13.0446,-5.337 19.35,-8.4375 3.4866,-1.7145 9.12105,-5.724 13.05,-4.9635 m 94.5,0.9 -1.8,2.25 m -121.5,0 3.6,-1.8 m 101.7,1.8 -3.15,3.15 m 49.049995,-3.15 -0.45,0.45 m 24.75,-0.45 -2.7,5.85 m -53.549995,-4.95 -5.85,5.85 m 68.849995,-5.85 0,2.7 m -235.799995,1.8 c 5.247,-3.024 13.39605,-3.2985 19.35,-4.05 m 76.95,3.6 -1.8,-1.8 3.6,0 m -76.95,36 c -2.1906,2.628 -4.72725,5.157 -6.4971,8.1 -0.9864,1.6425 -1.1952,3.474 -2.54655,4.9095 -9.47205,10.0755 -30.6009,22.743 -25.60635,39.6405 6.04215,-1.8945 6.264,-8.9685 8.71785,-13.95 3.26835,-6.633 9.10305,-12.339 14.2722,-17.5095 18.34605,-18.3465 40.72455,-35.1 63.85995,-46.557 6.8895,-3.411 13.7367,-8.496 21.15,-10.6335 m -95.85,13.5 12.15,-5.751 13.5,-6.849 m 176.849995,0.45 -0.45,2.25 m -89.099995,-0.9 -8.55,4.05 m -123.3,-1.35 1.8,-0.45 m 50.4,7.2 c 1.6128,-3.1095 4.53285,-5.6475 7.65,-7.2 m 37.35,0 -5.85,3.6 m -68.85,-2.25 1.8,-0.45 m 25.65,0.9 6.3,0 m 31.05,1.8 2.7,-1.35 m -6.3,41.85 c 5.37435,-5.6295 9.29205,-12.6225 14.5926,-18.4095 3.9303,-4.2885 8.86365,-7.4745 12.8169,-11.7405 3.51585,-3.7935 3.9681,-10.2645 9.4905,-11.7 m -103.5,0.45 -2.25,0.9 m 22.05,0 2.25,-0.45 m 203.849995,0 -2.7,4.95 m -206.099995,-3.6 -1.8,2.25 m -70.2,-0.9 0.9,3.15 m 119.25,-2.25 c 1.9494,-0.81 2.65905,-0.108 4.05,1.35 m 20.7,1.35 1.35,2.25 c 2.2086,-2.2725 3.5244,-5.0085 6.75,-5.85 m 115.199995,0.45 -4.05,9 m -59.849995,6.3 c -1.4733,1.9305 -3.67785,4.6125 -3.5406,7.2 0.126,2.3805 2.3319,4.0005 4.2633,2.1105 2.2356,-2.187 2.51415,-6.543 3.8988,-9.3105 2.6766,-5.3505 9.468,-12.8565 15.1785,-14.85 m -230.4,2.25 3.15,2.7 m 157.05,0.9 3.6,-3.6 m -75.15,20.25 c 5.2587,-1.134 9.73035,-5.202 13.95,-8.334 5.328,-3.9555 11.232,-7.4745 17.1,-10.566 m 27.9,1.35 -21.15,20.25 1.35,-1.8 m 24.75,-18.45 -6.75,9.45 m 55.35,-4.05 -3.6,3.6 m -38.7,-3.15 -0.9,2.7 m -22.5,-1.8 -3.6,3.6 m 27.45,-3.6 0.9,0.9 m 42.3,-0.9 -7.2,7.2 m -83.7,-6.75 0.9,1.8 m -4.95,0.45 -1.8,3.6 m 37.35,-3.6 -22.5,20.7 m 37.8,-20.7 -7.2,15.75 m 0,-15.3 -8.55,9 m 110.699995,-9 -0.45,2.7 m 4.05,-2.7 -0.45,0.45 m 12.15,0.45 -1.35,4.95 m -125.999995,-4.05 0.9,1.35 m -41.85,3.6 c 0.64845,-2.475 1.989,-3.9015 4.5,-4.5 m 252.449995,0.9 c 10.6965,13.2525 9.9,33.966 9.9,49.95 0,4.086 -0.5895,17.856 -7.641,16.002 -4.3335,-1.1385 -4.4055,-9.36 -3.861,-12.852 1.4085,-9.0405 5.3595,-16.227 4.7115,-25.65 -0.6345,-9.234 -5.409,-17.829 -5.8095,-27 m -97.2,0.9 c -1.79325,4.266 -4.5072,7.6635 0,10.8 m -138.149995,-4.05 5.4,-4.5 m 14.85,1.35 0.45,-1.35 m -7.2,4.95 5.85,-4.5 m 54,13.95 c -2.4597,3.915 -4.068,11.952 -1.8,16.2 4.7295,-2.79 3.64365,-7.4745 4.6287,-12.15 1.20465,-5.715 5.6421,-15.4215 11.1213,-18 m 42.749995,4.05 c -0.64395,-1.4175 -0.9189,-2.2365 0.45,-3.15 m -111.149995,1.35 0.9,0.9 m -87.3,21.6 c -4.38525,4.3515 -8.2152,9.5175 -13.05,13.401 -6.5556,5.2605 -14.04045,9.6885 -20.24955,15.426 -20.9367,19.341 -40.73355,39.987 -59.2785,61.623 -6.56505,7.659 -13.02075,15.4125 -19.179,23.4 -1.521,1.9755 -4.53555,8.145 -7.79805,6.12 -3.17295,-1.9665 3.22155,-9.3105 4.4874,-11.07 7.49565,-10.4085 15.76485,-20.52 24.23745,-30.15 13.60935,-15.4665 28.1745,-29.9295 42.18975,-45 2.96235,-3.186 4.2813,-7.8165 7.2666,-10.6695 9.918,-9.4815 21.6054,-17.802 32.8239,-25.6545 9.963,-6.975 20.44755,-16.2765 32.4,-19.476 m 50.4,0.45 -1.35,1.8 0.9,-2.25 m 9.45,0 0.9,0.9 m 49.5,0 -2.7,1.35 m -58.05,0 -4.95,4.95 m 0,-4.05 -4.5,4.95 m 77.85,-4.5 c -6.56235,9.162 -13.0194,18.1665 -17.94465,28.35 -1.9359,4.005 -2.17395,10.278 -4.94145,13.761 -1.0647,1.341 -3.0429,1.404 -4.28715,2.574 -2.80125,2.637 -4.6881,7.3485 -8.37855,8.8605 -2.5119,1.0305 -5.64795,-0.369 -8.01495,0.9855 -4.824,2.7585 -4.00095,19.6875 -11.33325,10.269 m -51.3,-64.35 -8.55,6.75 m -9.45,-4.5 3.6,-1.8 m 40.95,0.9 -10.35,11.25 m -52.65,13.95 0.45,1.8 c -1.3977,-3.033 3.1446,-5.616 5.08005,-7.6905 5.70285,-6.1155 12.8268,-17.0055 21.46995,-18.8595 m 8.55,0.45 0.9,1.35 m 39.15,0.45 c -4.34835,4.977 -8.97705,9.7065 -13.13775,14.85 -1.5975,1.9755 -4.07835,4.131 -3.06225,6.75 l 3.6,-2.25 m -60.75,-9.9 9.9,-6.3 -1.35,3.6 m 50.4,-2.25 -8.55,8.7705 -4.482,2.097 -5.868,8.0325 m 20.25,-16.65 -4.05,3.15 m -0.9,32.85 c 1.36575,-2.7225 1.3113,-5.8095 2.51505,-8.55 3.3849,-7.6995 9.57555,-15.7185 15.48495,-21.6 2.5803,-2.5695 5.2767,-5.2695 9,-5.85 m 34.2,1.35 1.8,0 -4.8672,5.445 -10.8828,14.355 m 31.5,-18.45 c -2.9079,5.31 -6.64425,11.3355 -6.74865,17.55 -0.0333,1.98 0.007,6.525 -2.3454,7.353 -1.9728,0.693 -3.38085,-2.574 -4.40595,-3.753 m -118.35,-18.45 1.8,-1.35 m 106.2,0.45 -2.7,2.25 m -42.3,0.45 -1.8,1.8 m -14.4,-1.35 -0.9,2.25 m 4.5,-0.9 -1.35,1.35 m -61.65,-0.45 -3.6,3.6 m 13.95,-3.6 0,0.9 0,-0.9 m -3.15,1.8 2.7,-1.35 m 0.9,0.45 0.9,0.9 m 119.7,0.9 0.9,4.5 m -17.55,-0.45 3.6,-2.7 m -51.75,0 c -2.3931,2.6235 -3.5658,5.8005 -5.7078,8.5455 -3.5253,4.509 -6.8958,5.5305 -6.8922,11.7045 l 13.5,-6.3 m 47.7,-11.7 1.35,1.35 m -109.35,-0.9 c -8.4807,8.505 -13.54185,19.251 -18.19215,30.15 -2.74455,6.4305 -5.0364,13.6665 -2.95785,20.7 4.21605,-1.6965 4.17825,-7.011 5.5908,-10.8 2.8278,-7.587 6.10875,-14.85 9.8253,-22.05 1.6128,-3.123 3.10005,-6.894 6.6339,-8.1 m 115.2,-9 2.25,0 m -117,0 -0.9,1.8 m -18.45,1.35 -2.25,2.25 m 19.8,-1.8 -1.8,1.8 m -9.9,-0.9 -4.20075,6.75 -11.54925,14.4 c -1.2519,-0.837 -2.2275,-1.422 -3.15,0 l 0,0.9 -0.45,-0.45 m 147.6,-20.7 -1.35,1.35 m -138.15,0.9 0,3.6 m 6.75,-3.15 0.9,1.8 m 51.3,-0.45 -4.5,8.1 m 58.05,-8.1 -1.8,3.6 m 20.7,-3.6 -0.9,3.15 m -95.4,42.3 c 2.32695,-4.041 5.427,-7.713 7.90875,-11.7 1.4508,-2.331 2.44305,-5.5845 4.365,-7.533 2.86425,-2.9025 6.7284,-2.601 9.21645,-6.417 3.843,-5.8905 5.12235,-15.345 13.1598,-17.1 m 64.8,0 -2.7,5.85 m -157.95,0.45 c 1.74375,-2.7045 3.65985,-6.4125 7.2,-4.05 l -10.35,6.75 m 361.799995,-7.65 0.45,0.9 m -351.899995,0 1.35,0 m 73.35,1.35 1.8,0.45 m 12.6,0.45 -1.35,1.35 m -90,-0.9 0,0.9 m 74.25,3.6 c -0.55935,5.148 -9.5832,8.1855 -5.4,13.5 m 62.1,-11.7 -1.8,2.25 m 85.5,0.45 2.25,-2.7 c 2.14965,4.032 -1.0413,10.2375 -2.08215,14.4 -3.1194,12.4785 -4.9266,25.5285 -8.72955,37.8 -0.80595,2.601 -5.39775,14.904 -9.693,10.6515 -2.45655,-2.4345 -0.92475,-8.964 -0.51525,-12.0015 1.5912,-11.808 7.94115,-23.4585 12.78225,-34.2 1.16505,-2.583 4.3974,-14.04 7.3377,-12.6 l 0.45,0.45 0.45,0.45 m -200.25,-2.7 c -0.33435,2.0295 -1.12365,2.025 -2.7,0.9 l 0,0 m -3.15,0.9 2.25,-1.35 m 2.7,2.25 -0.45,1.8 -6.3,0.45 m 6.3,-0.45 c -0.3915,4.788 -3.3417,8.0055 -5.3379,12.15 -1.10745,2.2995 -1.1385,4.914 -2.3103,7.2 -0.81045,1.5795 -2.9547,2.8845 -3.44655,4.5 -0.4212,1.3815 1.683,2.619 1.8054,4.05 0.25335,2.9565 -1.7613,6.6015 -2.45655,9.45 -0.4725,1.935 -2.277,14.3595 2.70045,12.042 4.1049,-1.9125 4.07925,-10.53 4.62195,-14.292 1.1043,-7.659 4.99455,-20.6865 11.1735,-25.65 m -13.5,-7.2 c -0.6876,3.285 -3.60855,1.863 -5.79015,3.7755 -3.4776,3.0555 -3.10365,8.757 -8.15985,10.1745 0.9585,-2.5785 2.4174,-4.6665 4.95,-5.85 m 118.35,-3.6 -2.7,4.5 m -108.45,-4.05 c -2.9286,3.087 -3.9042,5.976 -6.22755,9.3195 -6.94845,10.0125 -13.34835,21.3435 -17.33895,32.9805 -1.3527,3.942 -1.1484,8.217 -2.3409,12.132 -0.55125,1.809 -2.32785,2.7765 -3.0087,4.518 -2.0844,5.3325 -1.84725,10.7685 -3.17295,16.2 -0.75105,3.078 -2.72925,5.877 -3.4524,9 -0.7578,3.276 0.1296,6.678 -0.5661,9.9 -2.2383,10.368 -7.3557,20.484 -9.1944,31.05 -0.70335,4.041 -9e-4,7.794 2.1312,11.25 1.5912,2.5785 5.0643,7.0065 3.7476,10.3005 -1.88325,4.7115 -10.90215,-0.4995 -13.67685,-1.7505 -1.48545,3.2445 -1.04265,8.802 0.1791,12.15 0.71595,1.962 3.10455,4.8465 1.60785,7.002 -2.94885,4.2525 -6.27525,-4.0815 -7.17975,-5.5755 -0.55665,-0.918 -1.8243,-1.6695 -1.9737,-2.79 -0.3573,-2.691 4.4784,-3.1095 3.30435,0.4455 -0.23175,0.6975 -0.8847,1.2825 -1.33785,1.818 m 53.1,-155.25 1.35,0.45 m -4.95,0.9 1.35,1.35 m 4.95,2.25 c 1.8153,-1.611 3.1068,-2.52 5.4,-1.35 m 110.7,1.35 -0.45,2.7 m -10.35,-1.8 -0.45,0.9 m -180,63.9 c -1.02375,6.831 -6.4656,13.1355 -9.31095,19.35 -6.075,13.266 -10.8729,26.9145 -17.34885,40.05 -1.81035,3.672 -10.65825,18.189 -2.5902,18.45 -0.5814,7.3575 -4.0824,14.031 -5.74425,21.15 -2.22345,9.522 -2.65275,19.9575 -2.65275,29.7 0,3.213 -0.2547,8.0145 1.64475,10.7505 1.2321,1.7775 3.3057,1.6425 4.75695,3.0015 1.34685,1.2645 1.3023,3.879 1.4688,5.598 1.3797,14.247 0.5265,28.881 0.5265,43.2 0,16.8885 0.7101,34.0515 -0.97605,50.85 -0.6831,6.804 -1.80045,15.111 -5.17995,21.15 -2.3418,4.185 -7.97895,7.2765 -8.79615,12.15 -1.07775,6.426 6.25635,7.4385 10.3689,4.5045 5.28435,-3.771 7.55505,-16.119 9.53325,-22.0545 3.96225,-11.8845 4.6935,-23.2155 5.92695,-35.55 0.6345,-6.345 2.75175,-12.9465 2.5047,-19.35 -0.28845,-7.47 -4.1247,-14.508 -4.3623,-22.05 -0.20295,-6.4485 5.18265,-10.602 5.751,-16.65 0.62055,-6.606 -4.7025,-14.112 -3.3372,-21.1095 0.3294,-1.6875 2.1825,-2.727 3.10095,-4.0905 4.71555,-7.011 5.8086,-15.768 11.5362,-22.482 2.31795,-2.718 5.53635,-2.592 8.0271,-4.7475 2.95065,-2.556 0.99945,-6.012 5.9526,-6.0705 0,-4.41 -2.6352,-7.4655 -2.49705,-11.7 0.4617,-14.1255 1.8747,-28.971 5.14485,-42.75 2.0376,-8.586 5.2785,-16.776 7.80525,-25.2 1.2816,-4.2705 1.71675,-8.8515 3.00375,-13.05 4.0779,-13.2975 10.79955,-26.316 17.0316,-38.7 4.2867,-8.5185 9.657,-16.371 14.15835,-24.75 2.48985,-4.635 5.0499,-10.728 9.80325,-13.5 m 7.2,4.05 c 2.2653,-2.0205 3.2958,-1.5615 5.4,0.45 m -3.6,-2.25 c 2.41515,2.4165 4.2138,4.1085 3.15,7.65 m 48.6,-5.4 1.8,1.8 m -65.7,-1.35 0,3.15 m 12.6,0 c -8.91225,12.519 -16.1622,30.6765 -18.32175,45.9 -0.5832,4.113 -1.27935,8.442 -0.98775,12.6 0.1809,2.583 1.80315,5.526 1.1124,8.091 -0.855,3.177 -4.4604,2.556 -6.219,4.698 -2.01645,2.457 0.9891,12.096 -5.0922,7.461 -0.936,-0.711 -1.84185,-1.269 -2.8917,-1.8 m 7.65,-71.55 -6.3,11.7 c -3.31065,-1.485 -7.659,6.7275 -8.9154,9.45 -1.55115,3.3615 -0.8676,7.0605 -2.24595,10.35 -1.49175,3.5595 -4.33305,6.552 -6.23745,9.9 -3.20175,5.6295 -5.8428,11.8215 -9.6012,17.1 m 40.05,-52.65 4.5,-2.7 m -6.3,2.7 -2.25,3.6 m -10.35,0.9 1.8,-1.35 m -0.45,3.15 -2.25,4.05 m 233.55,-2.7 -0.45,0.9 m -223.2,1.8 -1.8,3.15 m 220.95,-0.9 -0.9,1.8 m -230.4,-0.45 c -1.4418,2.6955 -2.26035,4.9095 -5.4,5.85 m -5.85,-3.15 c -4.9005,5.6115 -8.95185,11.304 -12.9645,17.55 -1.6047,2.4975 -4.64715,4.6035 -2.7855,7.65 1.4544,-2.007 2.88225,-3.861 1.8,-6.3 m 34.2,-18.45 c -2.7639,4.7295 -3.5145,9.54 -5.6304,14.4 -2.4075,5.526 -5.52825,10.908 -7.6923,16.65 -4.44735,11.8035 -6.66675,25.371 -8.46675,37.8 -0.89595,6.192 -5.6358,16.6275 -3.21345,22.5 1.4247,3.4515 7.65765,4.311 10.6029,6.75 m -36.45,-51.75 1.8,-0.9 2.25,6.75 c 2.32785,-3.114 2.60325,-6.7275 4.4703,-9.8595 5.06385,-8.496 10.74015,-16.9245 16.19415,-25.2405 3.2859,-5.0085 4.9455,-10.4715 10.38555,-13.5 m 9.45,4.5 2.25,-0.9 m -22.05,3.15 -2.25,2.25 m 32.4,-1.8 c -1.15065,4.2165 -1.62855,11.1285 -4.95,13.95 m -9.45,-6.3 2.25,-1.8 m 9,0.45 0.45,0 m -34.2,1.35 0,0.45 m 119.7,-0.45 -0.9,5.4 2.7,-2.25 m -126,1.8 c -2.1717,2.3085 -7.1901,3.465 -5.4,7.2 l 2.7,-4.05 m 126,-2.7 -0.9,0.9 m -121.05,0 -4.05,8.1 m 26.55,-6.3 0.9,2.7 m 15.75,-2.7 c -1.37205,4.0545 -2.08665,7.7175 -5.4,10.8 l -2.25,-2.25 m -17.55,-8.1 -3.6,6.3 m 19.8,-6.3 -0.9,0.45 m -24.3,2.7 -2.7,4.05 m 31.05,-3.6 2.7,2.7 m -43.2,-2.25 -0.9,9.45 c -2.5299,0.6615 -3.83895,1.971 -4.5,4.5 m 15.75,-6.3 -0.9,0.45 m -10.35,1.35 1.35,1.35 m 11.25,2.7 -1.8,3.15 m 23.4,-1.8 -1.35,3.6 m -1.8,0.45 -0.9,1.8 m -22.5,0.45 -1.8,9.45 m -8.55,-9 c -1.9683,3.348 -6.2379,5.7735 -1.8,9 1.7964,-2.25 2.52315,-4.6665 0.9,-7.2 m 18,-1.8 -3.8637,7.65 -2.8863,9.45 m 24.3,-14.4 0,0.45 m -39.15,4.5 c -7.4466,9.063 -11.23605,21.3795 -14.59935,32.4 -0.6255,2.0475 -2.30445,3.8025 -2.75805,5.85 -0.9702,4.374 -0.5688,8.694 -2.4426,13.05 l -1.8,-1.8 0.45,4.05 1.35,-2.25 m 55.8,-51.3 0,3.6 m -23.85,-3.15 -3.6,7.65 m -5.85,-6.75 c -5.51745,17.9415 -12.6765,35.955 -14.9787,54.45 -0.70785,5.6835 -5.03775,13.5945 -1.2213,18.9 l 4.05,-7.2 m 2.7,-63 0.9,4.05 m 19.8,-4.05 c -3.726,4.0815 -5.53095,8.406 -7.65,13.5 m 28.35,-10.8 -1.8,6.3 m -27.9,-2.25 -6.75,18.45 m 12.6,-15.75 -0.45,1.8 m 1.8,1.35 -3.6522,12.15 -3.5478,17.55 m 27.45,-29.7 -0.9,2.25 m -9.45,-1.35 c -1.9953,9.6705 -3.4947,20.304 -2.25,30.15 m 11.25,-25.2 0,3.6 m -26.55,-0.45 -0.9,3.15 m -19.8,6.75 c -3.2598,-3.3795 -2.39805,-6.7185 2.25,-8.1 m 18.45,4.95 -3.15,9.9 m -20.7,-9 0,4.5 1.35,0 m 45.9,-4.5 0,4.95 m -54,6.3 5.85,-6.3 m 12.6,0 c 2.3103,2.223 1.58085,4.275 1.35,7.2 m 30.15,-4.95 2.7,0 m -18.45,2.7 -2.7,10.8 m -26.55,-9 -0.45,4.05 m 20.25,-4.05 -1.35,5.85 m 22.5,-1.35 c -4.69035,6.5205 1.08135,15.651 1.3302,22.5 0.0779,2.142 -1.20195,7.6005 -4.3794,5.148 -1.4031,-1.0845 -1.8882,-3.231 -2.8008,-4.698 m -38.25,-7.2 c -2.65905,-3.699 -0.4689,-9.3825 2.7,-12.15 2.1618,5.31 -1.9152,9.1395 -2.6964,13.95 -1.51695,9.342 -1.0494,19.3185 -2.18385,28.8 -0.4779,3.996 -0.3537,9.054 -2.31975,12.6 m 27,-52.2 0,1.35 m 1.8,-0.45 0,1.8 m 2.7,-0.9 c -0.6012,3.24 -0.45765,5.922 -2.7,8.55 l -2.7,-4.95 m 1.8,0 -1.35,1.8 m 6.3,-0.45 0,6.75 m -6.75,-6.3 -0.7191,9.9 -4.2309,10.35 m 18.9,-18.9 c -1.6884,2.349 -1.35,4.8645 -1.35,7.65 m -9.9,-5.85 c -0.2862,1.7955 -0.90315,2.412 -2.7,2.7 m -25.65,6.3 c 4.5e-4,-3.6585 0.198,-6.111 3.6,-8.1 m 24.3,1.35 0.9,6.3 m -10.35,-5.85 1.35,3.15 4.95,-2.25 m -4.95,2.25 -4.5,4.95 -0.45,-3.15 m 0.45,3.15 c -1.6011,8.622 -8.39475,24.1785 -1.8,31.95 m -15.75,-13.5 -0.45,4.05 m 7.2,4.5 0.9,10.35 m 2.25,1.35 -1.35,6.3 m 3.15,-4.5 0,4.05 m -1.8,5.4 0.9,1.8 c 3.02895,-1.188 4.10265,0.7965 3.15,3.6 m -2.25,-3.15 0,1.35 m -1.8,0.45 0,1.8 m -0.9,8.1 0.45,1.35 m -0.45,4.95 0.45,0 m 0.9,7.2 2.25,7.2 m -0.45,13.5 0.9,0 m -4.05,4.95 0.9,2.25 m -0.9,3.6 0.45,1.35 m -0.9,3.6 0.9,0.9 m -0.9,6.75 0.9,5.85 m -0.45,3.6 0.9,0.9 m -3.15,7.65 -1.35,9 m -5.85,14.85 -6.3,2.25"
     inkscape:connector-curvature="0" />
</svg>
